<?xml version="1.0" encoding="UTF-8" standalone="no"?>
<!-- Created with LifeFLOW (http://life.worldsowisdom.com/flow/) -->

<svg
   xmlns:osb="http://www.openswatchbook.org/uri/2009/osb"
   xmlns:dc="http://purl.org/dc/elements/1.1/"
   xmlns:cc="http://creativecommons.org/ns#"
   xmlns:rdf="http://www.w3.org/1999/02/22-rdf-syntax-ns#"
   xmlns:svg="http://www.w3.org/2000/svg"
   xmlns="http://www.w3.org/2000/svg"
   xmlns:xlink="http://www.w3.org/1999/xlink"
   xmlns:sodipodi="http://sodipodi.sourceforge.net/DTD/sodipodi-0.dtd"
   xmlns:inkscape="http://www.inkscape.org/namespaces/inkscape"
   width="450"
   height="450"
   viewBox="0 0 450 450"
   id="svg2"
   version="1.1"
   inkscape:version="0.91 r13725"
   sodipodi:docname="newcreatures-plain.svg">
  <defs
     id="defs4">
    <linearGradient
       inkscape:collect="always"
       id="linearGradient6501">
      <stop
         style="stop-color:#0000ff;stop-opacity:1;"
         offset="0"
         id="stop6503" />
      <stop
         style="stop-color:#0000ff;stop-opacity:0;"
         offset="1"
         id="stop6505" />
    </linearGradient>
    <linearGradient
       id="linearGradient6455"
       osb:paint="solid">
      <stop
         style="stop-color:#0000ff;stop-opacity:1;"
         offset="0"
         id="stop6457" />
    </linearGradient>
    <filter
       inkscape:collect="always"
       style="color-interpolation-filters:sRGB"
       id="filter5001"
       x="-0.37912726"
       width="1.7582545"
       y="-0.65848422"
       height="2.3169684">
      <feGaussianBlur
         inkscape:collect="always"
         stdDeviation="6.3692616"
         id="feGaussianBlur5003" />
    </filter>
    <linearGradient
       inkscape:collect="always"
       xlink:href="#linearGradient6501"
       id="linearGradient6507"
       x1="242.51431"
       y1="178.50594"
       x2="313.40628"
       y2="178.50594"
       gradientUnits="userSpaceOnUse"
       gradientTransform="translate(-215.03742,319.7082)" />
  </defs>
  <sodipodi:namedview
     id="base"
     pagecolor="#ffffff"
     bordercolor="#666666"
     borderopacity="1.0"
     inkscape:pageopacity="0.0"
     inkscape:pageshadow="2"
     inkscape:zoom="0.24748738"
     inkscape:cx="463.57331"
     inkscape:cy="265.90363"
     inkscape:document-units="px"
     inkscape:current-layer="layer1"
     showgrid="false"
     inkscape:window-width="1366"
     inkscape:window-height="706"
     inkscape:window-x="-8"
     inkscape:window-y="-8"
     inkscape:window-maximized="1"
     units="px" />
  <metadata
     id="metadata7">
    <rdf:RDF>
      <cc:Work
         rdf:about="">
        <dc:format>image/svg+xml</dc:format>
        <dc:type
           rdf:resource="http://purl.org/dc/dcmitype/StillImage" />
        <dc:title></dc:title>
      </cc:Work>
    </rdf:RDF>
  </metadata>
  <g
     inkscape:label="Layer 1"
     inkscape:groupmode="layer"
     id="layer1"
     transform="translate(0,-364.28567)">
    <path
       sodipodi:type="star"
       style="opacity:0.28999999;fill:#00ffff;stroke:#800080"
       id="path4136eg"
       sodipodi:sides="5"
       sodipodi:cx="149.96248"
       sodipodi:cy="470.92843"
       sodipodi:r1="84.03109"
       sodipodi:r2="42.015545"
       sodipodi:arg1="0.31099828"
       sodipodi:arg2="0.93931681"
       inkscape:flatsided="false"
       inkscape:rounded="0"
       inkscape:randomized="0"
       d="m 229.96248,496.64272 -55.19656,8.19877 -24.53782,50.11762 -24.85417,-49.96149 -55.247286,-7.84966 39.835836,-39.07667 -9.60688,-54.96897 49.47407,25.81078 49.30991,-26.12303 -9.25918,55.0286 z"
       inkscape:transform-center-x="-0.082081267"
       inkscape:transform-center-y="7.9461513" />
    <path
       inkscape:transform-center-y="2.4320959"
       inkscape:transform-center-x="-0.025122895"
       d="m 68.791599,427.6385 -16.894071,2.5094 -7.510317,15.33956 -7.607143,-15.29177 -16.909598,-2.40255 12.192598,-11.96024 -2.940388,-16.82442 15.142583,7.89994 15.092337,-7.99551 -2.833967,16.84267 z"
       inkscape:randomized="0"
       inkscape:rounded="0"
       inkscape:flatsided="false"
       sodipodi:arg2="0.93931681"
       sodipodi:arg1="0.31099828"
       sodipodi:r2="12.859744"
       sodipodi:r1="25.719488"
       sodipodi:cy="419.76809"
       sodipodi:cx="44.305912"
       sodipodi:sides="5"
       id="path4138eg"
       style="opacity:0.28999999;fill:#00ffff;stroke:#800080;stroke-width:0.3060711"
       sodipodi:type="star" />
    <g
       id="BiggoEGbg"
       transform="translate(-109.96232,143.76849)">
      <desc
         id="desc4151">A big creature for LifeFLOW! :)</desc>
      <circle
         r="29.934187"
         cy="259.14496"
         cx="302.39636"
         id="path4137eg"
         style="opacity:0.28999999;fill:#ffff00;stroke:#800080;stroke-width:0.6047619" />
      <circle
         r="7.3308215"
         cy="265.86487"
         cx="307.8945"
         id="path4139eg"
         style="opacity:0.28999999;fill:#ffff00;stroke:#800080;stroke-width:0.6047619" />
      <ellipse
         ry="10.996231"
         rx="3.6654108"
         cy="251.20323"
         cx="292.01105"
         id="path4141eg"
         style="opacity:0.28999999;fill:#0000ff;stroke:#800080;stroke-width:0.6047619" />
      <ellipse
         ry="3.6654108"
         rx="9.7744284"
         cy="253.64687"
         cx="317.66891"
         id="path4143eg"
         style="opacity:0.28999999;fill:#0000ff;stroke:#800080;stroke-width:0.6047619" />
    </g>
    <rect
       style="opacity:0.87000002;fill:url(#linearGradient6507);fill-opacity:1;stroke:#0000ff;stroke-width:0.6047619;stroke-miterlimit:4;stroke-dasharray:none;filter:url(#filter5001)"
       id="MedyEGbg"
       width="40.319515"
       height="23.214266"
       x="42.763119"
       y="486.60684" />
    <g
       id="g6519eg"
       inkscape:label="#MedyEG"
       transform="translate(0,53.355016)">
      <rect
         y="281.74832"
         x="59.868374"
         height="31.766891"
         width="63.533783"
         id="rect6509eg"
         style="opacity:0.87000002;fill:#0000ff;fill-opacity:1;stroke:#0000ff;stroke-width:0.6047619;stroke-miterlimit:4;stroke-dasharray:none" />
      <path
         inkscape:transform-center-y="-0.19571458"
         inkscape:transform-center-x="0.72308977"
         d="m 81.860835,300.07539 -6.160837,-1.4834 -4.714657,4.23419 -0.493011,-6.31769 -5.483865,-3.17547 5.856139,-2.42116 1.325442,-6.19674 4.112304,4.82134 6.303033,-0.65433 -3.314595,5.40091 z"
         inkscape:randomized="0"
         inkscape:rounded="0"
         inkscape:flatsided="false"
         sodipodi:arg2="1.3230568"
         sodipodi:arg1="0.69473828"
         sodipodi:r2="4.7712951"
         sodipodi:r1="9.5425901"
         sodipodi:cy="293.96637"
         sodipodi:cx="74.530014"
         sodipodi:sides="5"
         id="path6511eg"
         style="opacity:0.87000002;fill:#ff8080;fill-opacity:1;stroke:#0000ff;stroke-width:0.6047619;stroke-miterlimit:4;stroke-dasharray:none"
         sodipodi:type="star" />
      <path
         inkscape:transform-center-y="0.22428177"
         inkscape:transform-center-x="0.37755769"
         d="m 108.74051,312.2934 -1.06782,-3.99694 -3.89796,-1.38629 3.47135,-2.25068 0.1139,-4.13556 3.21323,2.60595 3.96835,-1.16963 -1.48546,3.86124 2.33867,3.41269 -4.13129,-0.21956 z"
         inkscape:randomized="0"
         inkscape:rounded="0"
         inkscape:flatsided="false"
         sodipodi:arg2="2.3965104"
         sodipodi:arg1="1.7681919"
         sodipodi:r2="3.115"
         sodipodi:r1="6.23"
         sodipodi:cy="306.18439"
         sodipodi:cx="109.96231"
         sodipodi:sides="5"
         id="path6513eg"
         style="opacity:0.87000002;fill:#ff8080;fill-opacity:1;stroke:#0000ff;stroke-width:0.6047619;stroke-miterlimit:4;stroke-dasharray:none"
         sodipodi:type="star" />
      <path
         inkscape:transform-center-y="-0.16705416"
         inkscape:transform-center-x="0.16705535"
         d="m 92.857067,295.18814 -2.173306,-0.73698 -1.839194,1.3725 0.02933,-2.29468 -1.873674,-1.32505 2.191432,-0.6812 0.6812,-2.19143 1.32505,1.87368 2.294678,-0.0293 -1.372506,1.8392 z"
         inkscape:randomized="0"
         inkscape:rounded="0"
         inkscape:flatsided="false"
         sodipodi:arg2="1.4137167"
         sodipodi:arg1="0.78539816"
         sodipodi:r2="1.727891"
         sodipodi:r1="3.4557824"
         sodipodi:cy="292.74454"
         sodipodi:cx="90.41346"
         sodipodi:sides="5"
         id="path6515eg"
         style="opacity:0.87000002;fill:#ff8080;fill-opacity:1;stroke:#0000ff;stroke-width:0.6047619;stroke-miterlimit:4;stroke-dasharray:none"
         sodipodi:type="star" />
      <path
         inkscape:transform-center-y="-0.1121867"
         inkscape:transform-center-x="-0.63956251"
         d="m 84.736419,309.55335 2.201552,-4.70569 -2.628342,-4.48131 5.155694,0.63966 3.44978,-3.8845 0.984842,5.10102 4.760422,2.08056 -4.547027,2.51294 -0.507677,5.17036 -3.79506,-3.54794 z"
         inkscape:randomized="0"
         inkscape:rounded="0"
         inkscape:flatsided="false"
         sodipodi:arg2="3.0951702"
         sodipodi:arg1="2.4668517"
         sodipodi:r2="3.9116797"
         sodipodi:r1="7.8233595"
         sodipodi:cy="304.66614"
         sodipodi:cx="90.845436"
         sodipodi:sides="5"
         id="path6517eg"
         style="opacity:0.87000002;fill:#ff8080;fill-opacity:1;stroke:#0000ff;stroke-width:0.6047619;stroke-miterlimit:4;stroke-dasharray:none"
         sodipodi:type="star" />
    </g>
    <path
       sodipodi:type="spiral"
       style="fill:#00ffff;fill-rule:evenodd;stroke:#000000;stroke-width:0.6047619px;stroke-linecap:butt;stroke-linejoin:miter;stroke-opacity:1"
       id="eaglynew2"
       sodipodi:cx="73.308212"
       sodipodi:cy="393.74982"
       sodipodi:expansion="1"
       sodipodi:revolution="3"
       sodipodi:radius="41.613129"
       sodipodi:argument="-18.147299"
       sodipodi:t0="0"
       d="m 73.308212,393.74982 c 1.592741,1.3477 -1.030876,2.81189 -2.239973,2.64724 -3.276579,-0.4462 -4.137127,-4.52375 -3.054508,-7.12719 1.936552,-4.65694 7.887895,-5.67954 12.014402,-3.46177 6.055815,3.25466 7.263028,11.296 3.869042,16.90161 -4.52365,7.4714 -14.719492,8.86373 -21.788831,4.27631 -8.896041,-5.77281 -10.473289,-18.15026 -4.683575,-26.67604 7.01212,-10.32587 21.585119,-12.08797 31.563258,-5.09085 11.758893,8.24586 13.705843,25.02253 5.49811,36.45048 -9.476152,13.19401 -28.461631,15.32586 -41.337687,5.90537 -14.630593,-10.70415 -16.947384,-31.90193 -6.312644,-46.2249 11.930572,-16.06821 35.343106,-18.56999 51.112116,-6.71991 17.506588,13.15584 20.193418,38.78494 7.127178,55.99933">
      <desc
         id="desc6528">a new test shape to play with! :)</desc>
    </path>
    <path
       d="m 205.26299,520.81738 c 1.59274,1.34771 -1.03088,2.8119 -2.23998,2.64724 -3.27658,-0.44619 -4.13713,-4.52374 -3.05451,-7.12718 1.93656,-4.65695 7.8879,-5.67955 12.01441,-3.46178 6.05581,3.25466 7.26302,11.296 3.86904,16.90162 -4.52365,7.4714 -14.71949,8.86373 -21.78883,4.27631 -8.89604,-5.77281 -10.47329,-18.15027 -4.68358,-26.67605 7.01212,-10.32586 21.58512,-12.08796 31.56326,-5.09084 11.75889,8.24586 13.70584,25.02252 5.49811,36.45047 -9.47615,13.19402 -28.46163,15.32587 -41.33769,5.90538 -14.63059,-10.70416 -16.94738,-31.90193 -6.31264,-46.2249 11.93057,-16.06821 35.3431,-18.57 51.11211,-6.71991 17.50659,13.15583 20.19342,38.78493 7.12718,55.99933"
       sodipodi:t0="0"
       sodipodi:argument="-18.147299"
       sodipodi:radius="41.613129"
       sodipodi:revolution="3"
       sodipodi:expansion="1"
       sodipodi:cy="520.81738"
       sodipodi:cx="205.26299"
       id="path6530eg"
       style="fill:#800000;fill-rule:evenodd;stroke:#000000;stroke-width:0.6047619px;stroke-linecap:butt;stroke-linejoin:miter;stroke-opacity:1"
       sodipodi:type="spiral">
      <desc
         id="desc6532">a new test shape to play with! :)</desc>
    </path>
  </g>
  <rect
     height="448"
     id="Border"
     style="fill:none;stroke:#800080;stroke-width:0.60342091"
     width="448"
     x="1"
     y="1" />
	 
	 
	 <!-- creatures from original versions! :) -->
	 
			<a style="fill-opacity:0.75" xlink:href="http://life.worldsowisdom.com/flow/"> <rect height="90" id="YellowRect" onmouseout="setAttribute('fill-opacity','0.5')" onmouseover="setAttribute('fill-opacity','1.0')" style="fill:yellow;stroke:#000000" width="90" x="150" y="90"> <desc id="desc3364">A clickable square!</desc>
			<title id="title3362"></title>
			</rect> </a> <a style="fill-opacity:0.75" xlink:href="http://life.worldsowisdom.com/flow/">
			<rect height="90" id="OrangeRect" onmouseout="setAttribute('fill-opacity','0.75')" onmouseover="setAttribute('fill-opacity','1.0')" style="fill:orange;stroke:#000000" width="90" x="60" y="300"> <desc id="desc3364">A clickable square!</desc>
			<title id="title3362"></title>
			</rect> </a>

<path xmlns="http://www.w3.org/2000/svg" sodipodi:type="spiral" xmlns:sodipodi="http://sodipodi.sourceforge.net/DTD/sodipodi-0.dtd" style="fill:#00ffff;fill-rule:evenodd;stroke:#000000;stroke-width:0.6047619px;stroke-linecap:butt;stroke-linejoin:miter;stroke-opacity:1" id="eaglynew" sodipodi:cx="73.308212" sodipodi:cy="393.74982" sodipodi:expansion="1" sodipodi:revolution="3" sodipodi:radius="41.613129" sodipodi:argument="-18.147299" sodipodi:t0="0" d="m 73.308212,393.74982 c 1.592741,1.3477 -1.030876,2.81189 -2.239973,2.64724 -3.276579,-0.4462 -4.137127,-4.52375 -3.054508,-7.12719 1.936552,-4.65694 7.887895,-5.67954 12.014402,-3.46177 6.055815,3.25466 7.263028,11.296 3.869042,16.90161 -4.52365,7.4714 -14.719492,8.86373 -21.788831,4.27631 -8.896041,-5.77281 -10.473289,-18.15026 -4.683575,-26.67604 7.01212,-10.32587 21.585119,-12.08797 31.563258,-5.09085 11.758893,8.24586 13.705843,25.02253 5.49811,36.45048 -9.476152,13.19401 -28.461631,15.32586 -41.337687,5.90537 -14.630593,-10.70415 -16.947384,-31.90193 -6.312644,-46.2249 11.930572,-16.06821 35.343106,-18.56999 51.112116,-6.71991 17.506588,13.15584 20.193418,38.78494 7.127178,55.99933" transform="translate(25, 25 )">
    <desc id="desc36">a new test shape to play with! :)</desc>
  </path><rect xmlns="http://www.w3.org/2000/svg" height="10" id="AvrilNiblet1" onmouseout="setAttribute('fill-opacity','0.5')" onmouseover="setAttribute('fill-opacity','1.0')" style="fill:yellow;stroke:black" width="10" x="225" y="225" transform="translate(25, 25 )">
    <desc id="desc71">Avril's first little niblet! :)</desc>
    <title id="title73"/>
  </rect><path xmlns="http://www.w3.org/2000/svg" fill-opacity="0.43046721000000016" onmousedown="Reverse(PurpleSpiral)" id="PurpleSpiral" d="m 282.09113,269.50729 c 1.52075,1.52076 -1.29967,2.80025 -2.52761,2.52761 -3.32763,-0.73884 -3.86257,-5.00113 -2.5276,-7.58281 2.38796,-4.61803 8.58895,-5.15902 12.63801,-2.5276 5.94217,3.86172 6.4939,12.22544 2.5276,17.69322 -5.28645,7.28768 -15.87921,7.84514 -22.74842,2.52759 -8.6442,-6.69159 -9.20486,-19.54122 -2.5276,-27.80363 8.08706,-10.00688 23.20787,-10.56947 32.85884,-2.52759 11.37333,9.47708 11.93717,26.8774 2.52759,37.91404 -10.86373,12.74223 -30.54887,13.30692 -42.96924,2.52759 -14.11282,-12.24817 -14.67812,-34.22169 -2.52759,-48.02445 13.63105,-15.4846 37.8955,-16.05034 53.07965,-2.52759 16.85728,15.01283 17.42336,41.57006 2.52759,58.13486" inkscape:tile-cx="185.6451" xmlns:inkscape="http://www.inkscape.org/namespaces/inkscape" inkscape:tile-cy="265.9547" inkscape:tile-h="68.00056" inkscape:tile-w="75.106916" inkscape:tile-x0="148.09164" inkscape:tile-y0="231.95443" sodipodi:argument="-18.064157" xmlns:sodipodi="http://sodipodi.sourceforge.net/DTD/sodipodi-0.dtd" sodipodi:cx="182.09113" sodipodi:cy="269.50729" sodipodi:expansion="1" sodipodi:radius="42.894836" sodipodi:revolution="3" sodipodi:t0="0" sodipodi:type="spiral" style="fill:#800080;fill-rule:evenodd;stroke:#000000;stroke-width:0.2081555px;stroke-linecap:butt;stroke-linejoin:miter;stroke-opacity:1" transform="translate(25, 25)"/><image xmlns="http://www.w3.org/2000/svg" id="back3" width="448" height="448" x="1" y="1" xlink:href="creatures/png/back3.png" xmlns:xlink="http://www.w3.org/1999/xlink"/><image xmlns="http://www.w3.org/2000/svg" id="galaxy3" width="294" height="150" x="150" y="100" style="opacity:0.5" onmousedown="tool(eg_newy)" xlink:href="creatures/png/galaxy3.png" xmlns:xlink="http://www.w3.org/1999/xlink" transform="translate(25, 25 )"/><image xmlns="http://www.w3.org/2000/svg" id="galaxy4" width="306" height="150" x="50" y="250" style="opacity:0.25" onmousedown="tool(eg_newy2)" xlink:href="creatures/png/galaxy4.png" xmlns:xlink="http://www.w3.org/1999/xlink" transform="translate(25, 12.5 )"/><image xmlns="http://www.w3.org/2000/svg" id="planet3" width="157" height="150" x="100" y="250" style="opacity:0.5" onmousedown="tool(eg_niblet)" xlink:href="creatures/png/planet3.png" xmlns:xlink="http://www.w3.org/1999/xlink" transform="translate(25, 0.0 )"/><image xmlns="http://www.w3.org/2000/svg" id="planet4" width="150" height="150" x="300" y="150" style="opacity:0.9" onmousedown="tool(eg_medy)" xlink:href="creatures/png/planet4.png" xmlns:xlink="http://www.w3.org/1999/xlink" transform="translate(25, 0.0 )"/><image xmlns="http://www.w3.org/2000/svg" id="satellite3" width="79" height="150" x="200" y="250" onmousedown="tool(satellite3)" xlink:href="creatures/png/satellite3.png" xmlns:xlink="http://www.w3.org/1999/xlink" transform="translate(25, 25 )"/><image xmlns="http://www.w3.org/2000/svg" id="satellite4" width="109" height="75" x="50" y="50" onmousedown="tool(satellite4)" xlink:href="creatures/png/satellite4.png" xmlns:xlink="http://www.w3.org/1999/xlink" transform="translate(25, 25 )"/><image xmlns="http://www.w3.org/2000/svg" id="mediumcreature3" width="38" height="50" x="300" y="175" onmousedown="tool(the_rect)" xlink:href="creatures/png/mediumcreature3.png" xmlns:xlink="http://www.w3.org/1999/xlink" transform="translate( 0.0 , 25 )"/><image xmlns="http://www.w3.org/2000/svg" id="niblet3" width="21" height="32" x="400" y="350" onmousedown="tool(pink_rect)" xlink:href="creatures/png/niblet3.png" xmlns:xlink="http://www.w3.org/1999/xlink" transform="translate( 0.0 , 25 )"/><image xmlns="http://www.w3.org/2000/svg" id="bigbeauty3" width="92" height="110" x="100" y="150" onmousedown="tool(eg_biggo)" xlink:href="creatures/png/bigbeauty3.png" xmlns:xlink="http://www.w3.org/1999/xlink" transform="translate(25, 0.0 )"/><path xmlns="http://www.w3.org/2000/svg" id="Creature-0.09205489703630487-0.5727070521202676" d="M 88.50184739200888, 57.21425865147421 Q 26.041598149867994, 53.53798794936106 112.68003522071436, 29.224435912241447 T 27.789472340078575, 18.54627684191016, 18.915233413423262 9.043917543192906, 161.2938903895108 65.27972847282335, 36.960535053483575 12.500811098568207, 61.72353981475354 61.11191028985191 z" style="fill:yellow;stroke:orange" stroke-width="4.501081879484035" transform="translate(15.520629646395784, 14.24174867026875 )" onmousedown="deleteClone('Creature-0.09205489703630487-0.5727070521202676')" class="creatureClass"><title>Creature-0.09205489703630487</title><desc>moveLifePathCreature2("Creature-0.09205489703630487", 1, 1)</desc></path><path xmlns="http://www.w3.org/2000/svg" id="Creature-0.09205489703630487" d="M 88.50184739200888, 57.21425865147421 Q 26.041598149867994, 53.53798794936106 112.68003522071436, 29.224435912241447 T 27.789472340078575, 18.54627684191016, 18.915233413423262 9.043917543192906, 161.2938903895108 65.27972847282335, 36.960535053483575 12.500811098568207, 61.72353981475354 61.11191028985191 z" style="fill:yellow;stroke:orange" stroke-width="4.501081879484035" transform="translate(112.2513327551021, 328.6346561792504) rotate(-0.13464129867362096 171.86666870117188 219.9250030517578)" onmousedown="tool('Creature-0.09205489703630487')" class="creatureClass"><title>Creature-0.09205489703630487</title><desc>moveLifePathCreature2("Creature-0.09205489703630487", 1, 1)</desc></path><path xmlns="http://www.w3.org/2000/svg" id="Creature-0.7466106669328821" d="M 249.6312408648297, 30.946019619801984 Q 106.71520019212117, 10.598687503737398 124.88096564902835, 1.828263102999079 T 32.28876662067441, 71.91691611560957, 260.3145765373026 19.084893151035683, 262.6545350497134 49.15194697120693, 132.66874493601324 32.62343654335316, 52.32083673402418 111.92495021144296 z" style="fill:yellow;stroke:orange" stroke-width="2.5689159868385048" transform="translate(-18.075007892528042, 345.96887916887346) rotate(0.02446654327064593 151.26666259765625 251.6916732788086)" onmousedown="tool('Creature-0.7466106669328821')" class="creatureClass"><title>Creature-0.7466106669328821</title><desc>moveLifePathCreature2("Creature-0.7466106669328821", 1, 1)</desc></path><path xmlns="http://www.w3.org/2000/svg" id="Creature-0.9516927803750681" d="M 90.82966562305656, 15.238231320751941 Q 85.00858338384347, 274.8112052197102 26.871361885098448, 213.56464724435185 T 104.28004545337335, 166.24368112057644, 80.51936096836303 258.1175469059822, 135.76894688294522 257.1701796332487, 2.0982009436926052 90.52316457763504, 120.67614189110373 114.17057711450106 z" style="fill:yellow;stroke:orange" stroke-width="1.1551499097258255" transform="translate(173.4647552654775, 154.07563225793243) rotate(-0.33274407912009013 217.06666564941406 173.50833129882812)" onmousedown="tool('Creature-0.9516927803750681')" class="creatureClass"><title>Creature-0.9516927803750681</title><desc>moveLifePathCreature2("Creature-0.9516927803750681", 1, 1)</desc></path><path xmlns="http://www.w3.org/2000/svg" id="Creature-0.29577155474455974" d="M 8.952356511245165, 1.977913411443585 Q 0.5372583874275829, 0.9349747132655264 9.785671997620806, 0.9542562787541968 T 3.2455376348864293, 0.5600182966178765, 11.20775819448358 0.11418018362436111, 11.838685229072283 1.7371867098477691, 3.464666597698954 2.0836969216931482, 7.168144948740699 1.550049136260354 z" style="fill:yellow;stroke:orange" stroke-width="7.266262360593085" transform="translate(24.96488699276513, 248.15354132473976) rotate(-0.030806885849735545 46.875 116.2249984741211)" onmousedown="tool('Creature-0.29577155474455974')" class="creatureClass"><title>Creature-0.29577155474455974</title><desc>moveLifePathCreature2("Creature-0.29577155474455974", 1, 1)</desc></path><path xmlns="http://www.w3.org/2000/svg" id="Creature-0.14938957802335784" d="M 323.3858667842489, 29.52541675678831 Q 215.5050754738158, 7.58526155663204 224.1831310767366, 147.77509919101365 T 9.741057607389408, 49.80605540111232, 342.898473184363 72.46520911730819, 183.40607071445856 72.66513101686117, 207.4456547663574 83.86852311204585, 243.39604850268174 158.63476747722203 z" style="fill:yellow;stroke:orange" stroke-width="10.66903099875123" transform="translate(225.09995436309663, 287.1868903987709) rotate(0.38351833060998997 377.1416778564453 241.4166717529297)" onmousedown="tool('Creature-0.14938957802335784')" class="creatureClass"><title>Creature-0.14938957802335784</title><desc>moveLifePathCreature2("Creature-0.14938957802335784", 1, 1)</desc></path><path xmlns="http://www.w3.org/2000/svg" id="Creature-0.0026398978179702492" d="M 71.75935478097188, 75.61584201568122 Q 48.62927196375759, 101.86953110684931 78.81696563123755, 149.2779522684761 T 81.97705742365761, 97.75669052371467, 54.266226427682355 56.682971646438205, 77.74977214038232 41.8426694992121, 5.64189024181708 11.299779173602088, 81.98592690797165 24.000273374987973 z" style="fill:yellow;stroke:orange" stroke-width="7.771384470986115" transform="translate(-657.5777587890625, -680.0029296875) rotate(0.19323453164551319 -598.6666564941406 -723.716682434082)" onmousedown="tool('Creature-0.0026398978179702492')" class="creatureClass"><title>Creature-0.0026398978179702492</title><desc>moveLifePathCreature2("Creature-0.0026398978179702492", 1, 1)</desc></path><path xmlns="http://www.w3.org/2000/svg" id="Creature-0.5729283583403952" d="M 190.17985575883733, 183.7547166922929 Q 25.90266060525226, 212.37432775624455 115.65614008237753, 232.75374402079908 T 0.2453440624397448, 170.83931538144034, 119.9947889880896 238.88862167184664, 273.496782914686 217.36969323687833, 281.2980152920026 195.34611655995053, 207.3416508079407 260.6327515580985 z" style="fill:yellow;stroke:orange" stroke-width="1.4819708491406236" transform="translate(143.5844791382986, 192.4824798499048) rotate(-0.09266711450791008 179.76666259765625 273.93333435058594)" onmousedown="tool('Creature-0.5729283583403952')" class="creatureClass"><title>Creature-0.5729283583403952</title><desc>moveLifePathCreature2("Creature-0.5729283583403952", 1, 1)</desc></path><path xmlns="http://www.w3.org/2000/svg" id="Creature-0.6783560641891982" d="M 302.93465491502417, 23.48437344244009 Q 19.26323875252461, 125.88964730080515 249.4331960715214, 103.81882364293088 T 93.28527345029539, 102.2699254332216, 125.82208496560983 178.30506721175686, 163.41469702463314 163.359693759629, 197.28027042908684 21.64925156639845, 300.4789205261647 96.16818579380714 z" style="fill:yellow;stroke:orange" stroke-width="3.24132365882283" transform="translate(-17.846036379188753, 162.76344790424486) rotate(-0.04749174040641108 118.80001831054688 128.49166870117188)" onmousedown="tool('Creature-0.6783560641891982')" class="creatureClass"><title>Creature-0.6783560641891982</title><desc>moveLifePathCreature2("Creature-0.6783560641891982", 1, 1)</desc></path><path xmlns="http://www.w3.org/2000/svg" id="Creature-0.8006541877127609" d="M 94.46733959254585, 318.7606744350653 Q 26.972762462947575, 101.26337215311156 168.53406264173742, 398.3092885446861 T 12.16349527363194, 75.13746030825394, 83.67216643321161 311.77983643659553, 119.76977985330448 184.18002035119386, 114.96884161294625 210.90655163998537, 114.63895381626928 116.0494940935671 z" style="fill:yellow;stroke:orange" stroke-width="6.871404048137917" transform="translate(129.34766197446248, 286.58705243362084) rotate(-0.13619224057707227 217.5833282470703 430.63336181640625)" onmousedown="tool('Creature-0.8006541877127609')" class="creatureClass"><title>Creature-0.8006541877127609</title><desc>moveLifePathCreature2("Creature-0.8006541877127609", 1, 1)</desc></path><path xmlns="http://www.w3.org/2000/svg" id="Creature-0.7004834130629044" d="M 22.139363612437407, 31.058825765259876 Q 10.478290467435645, 103.96891134321778 26.793552319465846, 49.63594218277431 T 17.882169034205166, 125.98965465253785, 14.747900521183892 227.74164731566407, 39.049661928549256 238.37551705975554, 93.60578008089851 186.94257495966605, 39.92893612515178 158.1702411776492 z" style="fill:yellow;stroke:orange" stroke-width="18.388219479583988" transform="translate(95.1658706665039, 233.04354858398438) rotate(0.09705817968483971 175.74166107177734 252.43333435058594)" onmousedown="tool('Creature-0.7004834130629044')" class="creatureClass"><title>Creature-0.7004834130629044</title><desc>moveLifePathCreature2("Creature-0.7004834130629044", 1, 1)</desc></path><path xmlns="http://www.w3.org/2000/svg" id="Creature-0.23367822259963456" d="M 77.16714910258311, 189.36919898534572 Q 73.98489992817301, 53.36446643299278 119.65915500040936, 156.89698497627475 T 30.862839528330902, 134.56094592565762, 277.60823967698144 86.0466676602457, 342.96989451500014 137.92927647335603, 3.3887147721531496 156.75930826387068, 65.91652026373058 146.7977918684459 z" style="fill:yellow;stroke:orange" stroke-width="5.959214496835436" transform="translate(34.197601786671896, 191.94370008524905) rotate(0.018841871046753486 382.98333740234375 185.50833892822266)" onmousedown="tool('Creature-0.23367822259963456')" class="creatureClass"><title>Creature-0.23367822259963456</title><desc>moveLifePathCreature2("Creature-0.23367822259963456", 1, 1)</desc></path><path xmlns="http://www.w3.org/2000/svg" id="Creature-0.07085864633336347" d="M 254.25702600460943, 34.255991907275465 Q 19.10399425890499, 101.78018031812232 110.47643094792582, 230.5520955523672 T 280.1708813637942, 195.27477320746362, 311.4894684346664 224.1171248428931, 225.94165107297997 327.4431161127607, 358.462917717575 277.6828479781343, 323.09594542146493 145.58761008645067 z" style="fill:yellow;stroke:orange" stroke-width="1.0980416115160208" transform="translate(-25.235794067382812, 136.3775177001953) rotate(0.027866754325823896 258.2583312988281 209.96665954589844)" onmousedown="tool('Creature-0.07085864633336347')" class="creatureClass"><title>Creature-0.07085864633336347</title><desc>moveLifePathCreature2("Creature-0.07085864633336347", 1, 1)</desc></path><path xmlns="http://www.w3.org/2000/svg" id="Creature-0.20686982069233562" d="M 19.785979560754452, 97.9896289792943 Q 49.087042999459, 64.87020132340996 110.72501356864325, 83.59509631564246 T 18.933260202826226, 37.069721453711395, 20.95301789500242 107.00055252511551, 125.48112515129176 64.30653546679967, 107.90195800069502 24.96605707758946, 128.8011793426191 13.773093543211887 z" style="fill:yellow;stroke:orange" stroke-width="15.811561204879494" transform="translate(232.66097016536747, 206.6173132299662) rotate(0.10293463229702099 126.625 134.18333435058594)" onmousedown="tool('Creature-0.20686982069233562')" class="creatureClass"><title>Creature-0.20686982069233562</title><desc>moveLifePathCreature2("Creature-0.20686982069233562", 1, 1)</desc></path><path xmlns="http://www.w3.org/2000/svg" id="Creature-0.4171410035405101" d="M 30.454969896814728, 27.931149539164405 Q 33.310833572235424, 70.30287597419674 0.1217184780322158, 155.44691939302572 T 22.371918360780484, 9.628472361020725, 15.2372219274184 9.66787468081378, 1.5949908367445043 78.85452656251617, 12.000967213616072 78.77133539917524, 33.05202839007718 103.50415607864169 z" style="fill:yellow;stroke:orange" stroke-width="8.495295585034627" transform="translate(108.29398279759027, 353.17524124624424) rotate(-0.06886609697853072 135.4499969482422 255.3833465576172)" onmousedown="tool('Creature-0.4171410035405101')" class="creatureClass"><title>Creature-0.4171410035405101</title><desc>moveLifePathCreature2("Creature-0.4171410035405101", 1, 1)</desc></path><path xmlns="http://www.w3.org/2000/svg" id="Creature-0.37908152569545617" d="M 174.35797640232227, 44.21965743286311 Q 1.933863886375428, 162.9500953089646 78.94686984771236, 95.37986572850244 T 64.46410324036566, 86.65051522163316, 59.95537053409802 33.419796095921185, 117.00926737297266 171.15511150030997, 140.1495840979688 27.38367564729478, 88.62202395823884 87.95174084332105 z" style="fill:yellow;stroke:orange" stroke-width="14.902502134647232" transform="translate(173.9342187465863, 304.6334482797144) rotate(-0.0005769097529203039 279.5166702270508 180.95834350585938)" onmousedown="tool('Creature-0.37908152569545617')" class="creatureClass"><title>Creature-0.37908152569545617</title><desc>moveLifePathCreature2("Creature-0.37908152569545617", 1, 1)</desc></path><path xmlns="http://www.w3.org/2000/svg" id="Creature-0.4869010065644468" d="M 294.3981659051689, 256.0575603709359 Q 355.60755752671287, 319.0760503121313 7.246800378334599, 132.07628657433906 T 1.1523141241048318, 7.8107237890677546, 34.525483377379274 156.48379401483345, 323.772932613584 242.76043816124297, 186.9522171807379 201.80725495634323, 41.5018317459632 327.27898277643527 z" style="fill:yellow;stroke:orange" stroke-width="14.053997579413" transform="translate(197.58795166015625, 133.23707580566406) rotate(0.3733002921653515 406.1750030517578 171.22499084472656)" onmousedown="tool('Creature-0.4869010065644468')" class="creatureClass"><title>Creature-0.4869010065644468</title><desc>moveLifePathCreature2("Creature-0.4869010065644468", 1, 1)</desc></path><path xmlns="http://www.w3.org/2000/svg" id="Creature-0.08759430785408484" d="M 32.40521589579316, 79.48329375535205 Q 10.257634674021466, 110.28222367297175 43.230299391867355, 25.404429651034132 T 24.584304353157744, 57.09235382015014, 5.3900596931382445 96.91553368149913, 46.34539564566305 66.20840216605583, 69.12076502146454 95.50942214881104, 50.40751814843363 72.54888911882118 z" style="fill:yellow;stroke:orange" stroke-width="10.771394064586504" transform="translate(82.66130674530481, 190.47638549831368) rotate(-0.01478200363922511 124.875 86.05000305175781)" onmousedown="tool('Creature-0.08759430785408484')" class="creatureClass"><title>Creature-0.08759430785408484</title><desc>moveLifePathCreature2("Creature-0.08759430785408484", 1, 1)</desc></path><path xmlns="http://www.w3.org/2000/svg" id="Creature-0.0680258147000069" d="M 106.85160595677705, 52.723116650400335 Q 219.44197617583296, 10.318975522826179 156.7880072615926, 182.39186273485876 T 232.3301606877351, 154.0670716111305, 209.115843654394 208.53595132593682, 197.4305452499619 34.53223569816761, 71.72693677744122 186.90685437170924, 349.707816182276 177.89340113377625 z" style="fill:yellow;stroke:orange" stroke-width="5.596097496108103" transform="translate(61.68322390503106, 315.1337480238325) rotate(-0.09035084676530715 236 319.09165954589844)" onmousedown="tool('Creature-0.0680258147000069')" class="creatureClass"><title>Creature-0.0680258147000069</title><desc>moveLifePathCreature2("Creature-0.0680258147000069", 1, 1)</desc></path><path xmlns="http://www.w3.org/2000/svg" id="Creature-0.5262048850094191" d="M 7.786701569050165, 7.2778411573577735 Q 100.64754441007821, 5.318788284449415 326.8711299249415, 5.282331807455385 T 7.528128156432771, 4.067161759997879, 101.53278498814171 0.7682475906403422, 99.60005335533339 6.264157186284687, 329.601513380379 2.3553327394279973, 108.17211669781227 4.73333162624679 z" style="fill:yellow;stroke:orange" stroke-width="10.072967268863664" transform="translate(-190.27247619628906, 44.46800994873047) rotate(-0.23663970583410077 68.4083251953125 -73.24166870117188)" onmousedown="tool('Creature-0.5262048850094191')" class="creatureClass"><title>Creature-0.5262048850094191</title><desc>moveLifePathCreature2("Creature-0.5262048850094191", 1, 1)</desc></path><path xmlns="http://www.w3.org/2000/svg" id="Creature-0.4878580664624189" d="M 157.53138789128423, 10.768102389110162 Q 55.80089847600273, 63.56575658142152 224.40666014342776, 85.71925603303822 T 76.76032683812988, 21.72418188067719, 63.60544515124213 139.0829726812612, 142.33731805747655 47.655273568630605, 53.636764920213075 97.13207414035118, 29.49841799708464 33.67221303449043 z" style="fill:yellow;stroke:orange" stroke-width="11.542671220395182" transform="translate(178.43859927659486, 208.88665663187942) rotate(0.14795155210163413 340.6000061035156 278.2583312988281)" onmousedown="tool('Creature-0.4878580664624189')" class="creatureClass"><title>Creature-0.4878580664624189</title><desc>moveLifePathCreature2("Creature-0.4878580664624189", 1, 1)</desc></path><path xmlns="http://www.w3.org/2000/svg" id="Creature-0.44790887694771697" d="M 331.643410376724, 153.83358783451544 Q 122.4891828111701, 157.1117041257568 265.36124523735805, 280.55489247418166 T 37.85456032123103, 211.9007547172454, 310.0785740440672 290.68243672972557, 259.22023319085525 211.35683744621556, 254.64173903432666 37.07844423569691, 147.8895716975639 91.49636578726303 z" style="fill:yellow;stroke:orange" stroke-width="2.769818044625345" transform="translate(-83.043212890625, 113.41278076171875) rotate(-0.2765604249890266 200.57501220703125 185.6166534423828)" onmousedown="tool('Creature-0.44790887694771697')" class="creatureClass"><title>Creature-0.44790887694771697</title><desc>moveLifePathCreature2("Creature-0.44790887694771697", 1, 1)</desc></path><path xmlns="http://www.w3.org/2000/svg" id="Creature-0.9401004308142276" d="M 52.92143389223831, 43.358903748952564 Q 48.21420422545505, 58.46512346389192 27.477388609790722, 70.90788302563917 T 78.1730846720985, 14.974138855763472, 90.61084924660013 46.063948636638315, 54.06250935285877 73.36805318894555, 10.723386218777504 54.791114513697146, 42.93758285949366 0.43070757666285264 z" style="fill:yellow;stroke:orange" stroke-width="3.529069828638862" transform="translate(100.62126818284922, 266.2827468047768) rotate(0.06637811006410993 163.26667022705078 179.04999542236328)" onmousedown="tool('Creature-0.9401004308142276')" class="creatureClass"><title>Creature-0.9401004308142276</title><desc>moveLifePathCreature2("Creature-0.9401004308142276", 1, 1)</desc></path><path xmlns="http://www.w3.org/2000/svg" id="Creature-0.11707108181818104" d="M 269.83356391470716, 204.99744005568854 Q 342.2597926202637, 109.50779662756298 36.65969448314047, 63.418234292021594 T 76.23855548530196, 156.95368916754714, 49.11893232714513 73.84609330070003, 315.51599865905774 115.87707002421791, 60.85393095714973 254.82403074874264, 138.395541236316 213.61822112640814 z" style="fill:yellow;stroke:orange" stroke-width="16.670988414797936" transform="translate(309.1673823919531, 231.1335617183363) rotate(-0.46571037574968055 435.06666564941406 255.78334045410156)" onmousedown="tool('Creature-0.11707108181818104')" class="creatureClass"><title>Creature-0.11707108181818104</title><desc>moveLifePathCreature2("Creature-0.11707108181818104", 1, 1)</desc></path><path xmlns="http://www.w3.org/2000/svg" id="Creature-0.815153634395435" d="M 35.31767536290955, 34.424375179943596 Q 7.832296079821213, 23.19508699702911 2.365220846107032, 118.85847416158833 T 29.665235519469825, 128.19435502592935, 38.0376244101943 27.9277639432275, 10.557630971410719 61.255157536464225, 39.384111133196015 5.583972251881974, 36.985142598810896 73.15917072092842 z" style="fill:yellow;stroke:orange" stroke-width="10.282868167837943" transform="translate(3.74072265625, 240.52532958984375) rotate(-0.003174358710699843 54.883338928222656 187.01667022705078)" onmousedown="tool('Creature-0.815153634395435')" class="creatureClass"><title>Creature-0.815153634395435</title><desc>moveLifePathCreature2("Creature-0.815153634395435", 1, 1)</desc></path><path xmlns="http://www.w3.org/2000/svg" id="Creature-0.19250889459730414" d="M 224.3964158707624, 240.21490580146866 Q 235.7294184491838, 65.77402798267546 224.77563839900648, 170.6440049951779 T 172.74535533217175, 18.462001772159365, 120.22189821892646 48.229757115252724, 150.7043511927036 223.051224313947, 74.37248481621319 149.47629090853982, 187.42286403234576 41.486881603508515 z" style="fill:yellow;stroke:orange" stroke-width="4.054910891476733" transform="translate(9.817483441905729, 250.04377804776942) rotate(0.013229806882605565 149.21666717529297 190.05833435058594)" onmousedown="tool('Creature-0.19250889459730414')" class="creatureClass"><title>Creature-0.19250889459730414</title><desc>moveLifePathCreature2("Creature-0.19250889459730414", 1, 1)</desc></path><path xmlns="http://www.w3.org/2000/svg" id="Creature-0.42877241745347894" d="M 189.29627418813376, 134.25743868812796 Q 130.42965072650316, 82.92907897041998 48.685285542391675, 180.99899416499315 T 17.557029189335378, 211.83781404391402, 290.7398232256835 62.98368510168601, 145.27097210108417 146.29491314700914, 63.0523504710101 76.90599328813116, 181.29369971278552 266.3051835265056 z" style="fill:yellow;stroke:orange" stroke-width="4.212274550736906" transform="translate(-81.58909691238148, 154.03717236869772) rotate(-0.02721855032453661 78.13333129882812 148.49166870117188)" onmousedown="tool('Creature-0.42877241745347894')" class="creatureClass"><title>Creature-0.42877241745347894</title><desc>moveLifePathCreature2("Creature-0.42877241745347894", 1, 1)</desc></path><path xmlns="http://www.w3.org/2000/svg" id="Creature-0.2352176308779108" d="M 53.19763673432289, 182.45165856896614 Q 60.400695206811356, 416.6213670045977 212.11710573158265, 367.6628473411622 T 48.82718280523304, 187.02461835293713, 236.16480342921992 128.67925305764447, 291.866568424234 113.38544082496912, 40.04333537575305 104.37693640242148, 110.24703830401312 86.77536698873112 z" style="fill:yellow;stroke:orange" stroke-width="12.417446367465608" transform="translate(-182.0449822045891, 94.32714276009791) rotate(-0.18011933760574286 191.3916778564453 179.69166564941406)" onmousedown="tool('Creature-0.2352176308779108')" class="creatureClass"><title>Creature-0.2352176308779108</title><desc>moveLifePathCreature2("Creature-0.2352176308779108", 1, 1)</desc></path><path xmlns="http://www.w3.org/2000/svg" id="Creature-0.6661297280741059" d="M 44.047908193062916, 90.91757386862577 Q 276.07206110942025, 91.24049940500363 197.75452613461522, 61.667325321784794 T 85.11626051614111, 313.9288798196878, 38.65804191975681 119.80920187493933, 440.19311165251366 307.20588241801704, 271.2535162638294 343.76665123714645, 437.1383641545842 71.58170076072874 z" style="fill:yellow;stroke:orange" stroke-width="17.3445221039811" transform="translate(-269.0949401855469, -106.64002227783203) rotate(0.17467425021752944 65.11666870117188 59.274993896484375)" onmousedown="tool('Creature-0.6661297280741059')" class="creatureClass"><title>Creature-0.6661297280741059</title><desc>moveLifePathCreature2("Creature-0.6661297280741059", 1, 1)</desc></path><path xmlns="http://www.w3.org/2000/svg" id="Creature-0.012599258303746308" d="M 201.83839273663332, 99.20630561244087 Q 155.0308342512968, 115.33657141300799 283.50896769737835, 103.48703258768991 T 337.52750936094213, 246.72562022422127, 177.30443052000157 28.216149667928494, 124.12012911162013 350.17627246309223, 30.139341808553624 349.5944342328551, 270.5939673904786 227.71130268688387 z" style="fill:yellow;stroke:orange" stroke-width="19.08686227432438" transform="translate(86.00857255385431, 104.29653048716968) rotate(0.24676206350220153 301.0833282470703 157.33334350585938)" onmousedown="tool('Creature-0.012599258303746308')" class="creatureClass"><title>Creature-0.012599258303746308</title><desc>moveLifePathCreature2("Creature-0.012599258303746308", 1, 1)</desc></path><path xmlns="http://www.w3.org/2000/svg" id="Creature-0.49456457969979606" d="M 166.23680759667292, 98.39087035402555 Q 156.07380851029956, 83.01705988926132 160.26288481911885, 3.15412982117086 T 242.01092816936705, 32.73966506862156, 306.7396593604817 151.0615607517711, 138.41286809276224 153.81420641166355, 191.40736021555378 49.729268370144034, 59.181492816886085 86.02276591784437 z" style="fill:yellow;stroke:orange" stroke-width="12.972241842216262" transform="translate(-37.17681694030762, -38.52963638305664) rotate(0.1174419971106911 171.18331909179688 -97.41666412353516)" onmousedown="tool('Creature-0.49456457969979606')" class="creatureClass"><title>Creature-0.49456457969979606</title><desc>moveLifePathCreature2("Creature-0.49456457969979606", 1, 1)</desc></path><path xmlns="http://www.w3.org/2000/svg" id="Creature-0.9390264716679491" d="M 200.5963270574737, 322.97989873201067 Q 134.6708534284556, 231.63659400169053 105.71008232465036, 99.51577318196338 T 106.57388608866987, 159.2985965952726, 233.66496975917048 321.30626957488766, 133.07086898509252 316.00288715614, 240.79210769965644 26.78236574187221, 106.09110302375701 182.5943440633689 z" style="fill:yellow;stroke:orange" stroke-width="1.061986984828427" transform="translate(2.9346772918147797, 99.98293645813618) rotate(0.0007125889222895796 220.80833435058594 265.5749969482422)" onmousedown="tool('Creature-0.9390264716679491')" class="creatureClass"><title>Creature-0.9390264716679491</title><desc>moveLifePathCreature2("Creature-0.9390264716679491", 1, 1)</desc></path><path xmlns="http://www.w3.org/2000/svg" id="Creature-0.2410155743549448" d="M 40.397269319319435, 63.18535395694681 Q 40.730440394811474, 77.63084352413712 92.0131395553761, 205.08436922853653 T 54.76355271099154, 226.51492102307856, 84.90018277385114 249.57730126203427, 82.66159558006535 92.90343336572774, 78.08630562022007 265.8240326862232, 92.21068604089476 170.4227715301283 z" style="fill:yellow;stroke:orange" stroke-width="11.306482384633217" transform="translate(-12.882097855210304, 39.10057830810547) rotate(-0.16307721063528136 90.42500305175781 145.9833221435547)" onmousedown="tool('Creature-0.2410155743549448')" class="creatureClass"><title>Creature-0.2410155743549448</title><desc>moveLifePathCreature2("Creature-0.2410155743549448", 1, 1)</desc></path><path xmlns="http://www.w3.org/2000/svg" id="Creature-0.14988120804200322" d="M 16.027144071559505, 114.55728498695392 Q 48.70754102066868, 193.32988381211297 72.27766213584006, 28.956273366461488 T 56.50925861815638, 76.39138791134631, 109.00754806541936 222.32604646657825, 66.25537504579088 208.5211623600485, 115.65534208176132 162.81917271551544, 29.47491227014088 58.38478005652771 z" style="fill:yellow;stroke:orange" stroke-width="0.6440875655082223" transform="translate(2.4845652602124426, 174.84652546339012) rotate(-0.005794670220965716 109.80000305175781 -36.94999694824219)" onmousedown="tool('Creature-0.14988120804200322')" class="creatureClass"><title>Creature-0.14988120804200322</title><desc>moveLifePathCreature2("Creature-0.14988120804200322", 1, 1)</desc></path><path xmlns="http://www.w3.org/2000/svg" id="Creature-0.8983341720852709" d="M 177.29687316513898, 171.31348390567533 Q 113.44494537560055, 200.35721814996924 137.84557684807504, 154.45855623436725 T 174.62371387976367, 81.79581689786183, 101.95289556054975 41.49738141489807, 68.46806558628613 36.17459302526817, 135.03931877094848 180.24465704188557, 40.53755592042596 95.4861189767025 z" style="fill:yellow;stroke:orange" stroke-width="0.792449756619058" transform="translate(0.6783958996786907, 31.9753014752136) rotate(-0.009672310356824459 118.91666412353516 -1.9499969482421875)" onmousedown="tool('Creature-0.8983341720852709')" class="creatureClass"><title>Creature-0.8983341720852709</title><desc>moveLifePathCreature2("Creature-0.8983341720852709", 1, 1)</desc></path><path xmlns="http://www.w3.org/2000/svg" id="Creature-0.48624312884362064" d="M 116.71597520476624, 90.84388031169871 Q 78.30282411174775, 247.46731355554073 2.2740025849900367, 65.62933164881761 T 61.04320527314389, 34.44581292188125, 0.5348773642640275 320.53308934578064, 155.82140039662693 93.92342758751614, 69.50267855159478 233.08655532570214, 43.090530742472644 159.6977186400046 z" style="fill:yellow;stroke:orange" stroke-width="0.9721909170339527" transform="translate(175.05295669969465, 16.62123582138901) rotate(-2.8975803092202215 88.06666564941406 69.8416748046875)" onmousedown="tool('Creature-0.48624312884362064')" class="creatureClass"><title>Creature-0.48624312884362064</title><desc>moveLifePathCreature2("Creature-0.48624312884362064", 1, 1)</desc></path></svg>