<?xml version="1.0" encoding="UTF-8" standalone="no"?>
<!-- Created with Inkscape (http://www.inkscape.org/) -->

<svg
   xmlns:dc="http://purl.org/dc/elements/1.1/"
   xmlns:cc="http://creativecommons.org/ns#"
   xmlns:rdf="http://www.w3.org/1999/02/22-rdf-syntax-ns#"
   xmlns:svg="http://www.w3.org/2000/svg"
   xmlns="http://www.w3.org/2000/svg"
   xmlns:sodipodi="http://sodipodi.sourceforge.net/DTD/sodipodi-0.dtd"
   xmlns:inkscape="http://www.inkscape.org/namespaces/inkscape"
   width="210mm"
   height="297mm"
   viewBox="0 0 744.09448819 1052.3622047"
   id="svg2"
   version="1.1"
   inkscape:version="0.91 r13725"
   sodipodi:docname="Reverse.svg">
  <defs
     id="defs4" />
  <sodipodi:namedview
     id="base"
     pagecolor="#ffffff"
     bordercolor="#666666"
     borderopacity="1.0"
     inkscape:pageopacity="0.0"
     inkscape:pageshadow="2"
     inkscape:zoom="0.35"
     inkscape:cx="-283.57143"
     inkscape:cy="520"
     inkscape:document-units="px"
     inkscape:current-layer="layer1"
     showgrid="false"
     inkscape:window-width="1366"
     inkscape:window-height="706"
     inkscape:window-x="-8"
     inkscape:window-y="-8"
     inkscape:window-maximized="1" />
  <metadata
     id="metadata7">
    <rdf:RDF>
      <cc:Work
         rdf:about="">
        <dc:format>image/svg+xml</dc:format>
        <dc:type
           rdf:resource="http://purl.org/dc/dcmitype/StillImage" />
        <dc:title></dc:title>
      </cc:Work>
    </rdf:RDF>
  </metadata>
  <g
     inkscape:label="Layer 1"
     inkscape:groupmode="layer"
     id="layer1">
    <path
       style="opacity:0.28999999;fill:#00ffff;stroke:#800080"
       id="path4136"
       d="m 206.78638,290.56613 c 13.49496,-0.86227 26.98271,-0.26324 40.47855,0.20831 13.28782,0.55689 26.1215,3.34748 38.56636,7.86335 7.2861,2.90222 14.04561,6.51591 19.85506,11.81098 5.04153,5.17772 6.40283,11.66967 6.95422,18.60553 0.17882,12.49983 -5.68656,23.84054 -11.28812,34.66714 -3.99395,8.39074 -8.98862,16.01378 -15.98703,22.14469 -14.01044,10.32959 -30.34436,17.94615 -45.2057,26.30516 -3.24019,1.8225 -6.52277,3.26352 -10.00282,4.54823 -3.36769,1.73531 -6.64409,3.63081 -10.07363,5.23886 0,0 32.80112,-26.23171 32.80112,-26.23171 l 0,0 c 3.30696,-1.7508 6.64537,-3.46086 10.1193,-4.86076 4.17998,-1.85557 1.9818,-0.83106 6.2416,-2.92806 1.15005,-0.56614 4.55201,-2.35312 3.45103,-1.69664 -57.03236,34.00672 -38.24892,22.74167 -26.14172,15.09075 7.8682,-5.16669 13.428,-12.57638 17.65385,-20.94402 5.58232,-9.93204 11.15649,-20.43158 11.41687,-32.09071 -0.49035,-5.79721 -1.14914,-11.46468 -5.4515,-15.80867 -5.48315,-4.7781 -12.00115,-7.91674 -18.66672,-10.73706 -11.82647,-4.52989 -24.20287,-6.9656 -36.88734,-7.42806 -13.81951,-0.45685 -27.96885,-1.22584 -41.52918,2.00845 0,0 33.6958,-25.76576 33.6958,-25.76576 z"
       inkscape:connector-curvature="0" />
    <path
       inkscape:connector-curvature="0"
       d="m 246.94876,467.52093 c -13.49496,0.86227 -26.98271,0.26324 -40.47855,-0.20831 -13.28782,-0.55689 -26.1215,-3.34748 -38.56636,-7.86335 -7.2861,-2.90222 -14.04561,-6.51591 -19.85506,-11.81098 -5.04153,-5.17772 -6.40283,-11.66967 -6.95422,-18.60553 -0.17882,-12.49983 5.68656,-23.84054 11.28812,-34.66714 3.99395,-8.39074 8.98862,-16.01378 15.98703,-22.14469 14.01044,-10.32959 30.34436,-17.94615 45.2057,-26.30516 3.24019,-1.8225 6.52277,-3.26352 10.00282,-4.54823 3.36769,-1.73531 6.64409,-3.63081 10.07363,-5.23886 0,0 -32.80112,26.23171 -32.80112,26.23171 l 0,0 c -3.30696,1.7508 -6.64537,3.46086 -10.1193,4.86076 -4.17998,1.85557 -1.9818,0.83106 -6.2416,2.92806 -1.15005,0.56614 -4.55201,2.35312 -3.45103,1.69664 57.03236,-34.00672 38.24892,-22.74167 26.14172,-15.09075 -7.8682,5.16669 -13.428,12.57638 -17.65385,20.94402 -5.58232,9.93204 -11.15649,20.43158 -11.41687,32.09071 0.49035,5.79721 1.14914,11.46468 5.4515,15.80867 5.48315,4.7781 12.00115,7.91674 18.66672,10.73706 11.82647,4.52989 24.20287,6.9656 36.88734,7.42806 13.81951,0.45685 27.96885,1.22584 41.52918,-2.00845 0,0 -33.6958,25.76576 -33.6958,25.76576 z"
       id="path4147"
       style="opacity:0.28999999;fill:#0000ff;stroke:#800080" />
  </g>
</svg>
