<?xml version="1.0" encoding="UTF-8" standalone="no"?>
<!-- Created with Inkscape (http://www.inkscape.org/) -->

<svg
   xmlns:dc="http://purl.org/dc/elements/1.1/"
   xmlns:cc="http://creativecommons.org/ns#"
   xmlns:rdf="http://www.w3.org/1999/02/22-rdf-syntax-ns#"
   xmlns:svg="http://www.w3.org/2000/svg"
   xmlns="http://www.w3.org/2000/svg"
   xmlns:sodipodi="http://sodipodi.sourceforge.net/DTD/sodipodi-0.dtd"
   xmlns:inkscape="http://www.inkscape.org/namespaces/inkscape"
   width="210mm"
   height="297mm"
   viewBox="0 0 744.09448819 1052.3622047"
   id="svg2"
   version="1.1"
   inkscape:version="0.91 r13725"
   sodipodi:docname="Reverse.svg">
  <defs
     id="defs4" />
  <sodipodi:namedview
     id="base"
     pagecolor="#ffffff"
     bordercolor="#666666"
     borderopacity="1.0"
     inkscape:pageopacity="0.0"
     inkscape:pageshadow="2"
     inkscape:zoom="0.35"
     inkscape:cx="-283.57143"
     inkscape:cy="520"
     inkscape:document-units="px"
     inkscape:current-layer="layer1"
     showgrid="false"
     inkscape:window-width="1366"
     inkscape:window-height="706"
     inkscape:window-x="-8"
     inkscape:window-y="-8"
     inkscape:window-maximized="1" />
  <metadata
     id="metadata7">
    <rdf:RDF>
      <cc:Work
         rdf:about="">
        <dc:format>image/svg+xml</dc:format>
        <dc:type
           rdf:resource="http://purl.org/dc/dcmitype/StillImage" />
        <dc:title></dc:title>
      </cc:Work>
    </rdf:RDF>
  </metadata>
  <g
     inkscape:label="Layer 1"
     inkscape:groupmode="layer"
     id="layer1">
    <path
       style="opacity:1;fill:#00ffff;stroke:#800080;stroke-width:0.18216613"
       id="path4136"
       d="m 227.42886,363.21291 c 2.50289,-0.15428 5.00444,-0.0471 7.50749,0.0373 2.46447,0.0996 4.84471,0.59894 7.15284,1.40694 1.35134,0.51927 2.60501,1.16584 3.68248,2.11325 0.93505,0.92641 1.18752,2.08797 1.28979,3.32895 0.0332,2.2365 -1.05468,4.26562 -2.09359,6.20274 -0.74075,1.50129 -1.6671,2.86523 -2.96509,3.96219 -2.59849,1.8482 -5.62791,3.21097 -8.38422,4.70659 -0.60095,0.32609 -1.20977,0.58392 -1.85521,0.81378 -0.6246,0.31049 -1.23227,0.64964 -1.86834,0.93735 0,0 6.08357,-4.69345 6.08357,-4.69345 l 0,0 c 0.61334,-0.31325 1.23251,-0.61922 1.87681,-0.8697 0.77525,-0.332 0.36756,-0.14869 1.15762,-0.52389 0.2133,-0.1013 0.84425,-0.42103 0.64006,-0.30357 -10.5777,6.08457 -7.09397,4.069 -4.84846,2.70008 1.4593,-0.92444 2.49046,-2.2502 3.27423,-3.74737 1.03534,-1.77706 2.06917,-3.65567 2.11746,-5.74175 -0.0909,-1.03726 -0.21312,-2.05129 -1.01108,-2.82853 -1.01695,-0.85491 -2.22583,-1.41649 -3.46208,-1.92111 -2.19344,-0.8105 -4.48887,-1.2463 -6.84144,-1.32905 -2.56308,-0.0817 -5.18733,-0.21933 -7.70234,0.35936 0,0 6.2495,-4.61008 6.2495,-4.61008 z"
       inkscape:connector-curvature="0" />
    <path
       inkscape:connector-curvature="0"
       d="m 234.87771,394.87415 c -2.50289,0.15428 -5.00444,0.0471 -7.50749,-0.0373 -2.46447,-0.0996 -4.84471,-0.59894 -7.15284,-1.40694 -1.35134,-0.51927 -2.60501,-1.16584 -3.68248,-2.11325 -0.93505,-0.92641 -1.18752,-2.08797 -1.28979,-3.32895 -0.0332,-2.2365 1.05468,-4.26562 2.09359,-6.20274 0.74075,-1.50129 1.6671,-2.86523 2.96509,-3.96219 2.59849,-1.8482 5.62791,-3.21097 8.38422,-4.70659 0.60095,-0.32609 1.20977,-0.58392 1.85521,-0.81378 0.6246,-0.31049 1.23227,-0.64964 1.86834,-0.93735 0,0 -6.08357,4.69345 -6.08357,4.69345 l 0,0 c -0.61334,0.31325 -1.23251,0.61922 -1.87681,0.8697 -0.77525,0.332 -0.36756,0.14869 -1.15762,0.52389 -0.2133,0.1013 -0.84425,0.42103 -0.64006,0.30357 10.5777,-6.08457 7.09397,-4.069 4.84846,-2.70008 -1.4593,0.92444 -2.49046,2.2502 -3.27423,3.74737 -1.03534,1.77706 -2.06917,3.65567 -2.11746,5.74175 0.0909,1.03726 0.21312,2.05129 1.01108,2.82853 1.01695,0.85491 2.22583,1.41649 3.46208,1.92111 2.19344,0.8105 4.48887,1.2463 6.84144,1.32905 2.56308,0.0817 5.18733,0.21933 7.70234,-0.35936 0,0 -6.2495,4.61008 -6.2495,4.61008 z"
       id="path4147"
       style="opacity:1;fill:#0000ff;stroke:#800080;stroke-width:0.18216613" />
  </g>
</svg>
