<?xml version="1.0" encoding="UTF-8" standalone="no"?>
<!-- Created with LifeFLOW (http://life.worldsowisdom.com/flow/) -->

<svg
   xmlns:osb="http://www.openswatchbook.org/uri/2009/osb"
   xmlns:dc="http://purl.org/dc/elements/1.1/"
   xmlns:cc="http://creativecommons.org/ns#"
   xmlns:rdf="http://www.w3.org/1999/02/22-rdf-syntax-ns#"
   xmlns:svg="http://www.w3.org/2000/svg"
   xmlns="http://www.w3.org/2000/svg"
   xmlns:xlink="http://www.w3.org/1999/xlink"
   xmlns:sodipodi="http://sodipodi.sourceforge.net/DTD/sodipodi-0.dtd"
   xmlns:inkscape="http://www.inkscape.org/namespaces/inkscape"
   width="450"
   height="450"
   viewBox="0 0 450 450"
   id="svg2"
   version="1.1"
   inkscape:version="0.91 r13725"
   sodipodi:docname="newcreatures-plain.svg">
  <defs
     id="defs4">
    <linearGradient
       inkscape:collect="always"
       id="linearGradient6501">
      <stop
         style="stop-color:#0000ff;stop-opacity:1;"
         offset="0"
         id="stop6503" />
      <stop
         style="stop-color:#0000ff;stop-opacity:0;"
         offset="1"
         id="stop6505" />
    </linearGradient>
    <linearGradient
       id="linearGradient6455"
       osb:paint="solid">
      <stop
         style="stop-color:#0000ff;stop-opacity:1;"
         offset="0"
         id="stop6457" />
    </linearGradient>
    <filter
       inkscape:collect="always"
       style="color-interpolation-filters:sRGB"
       id="filter5001"
       x="-0.37912726"
       width="1.7582545"
       y="-0.65848422"
       height="2.3169684">
      <feGaussianBlur
         inkscape:collect="always"
         stdDeviation="6.3692616"
         id="feGaussianBlur5003" />
    </filter>
    <linearGradient
       inkscape:collect="always"
       xlink:href="#linearGradient6501"
       id="linearGradient6507"
       x1="242.51431"
       y1="178.50594"
       x2="313.40628"
       y2="178.50594"
       gradientUnits="userSpaceOnUse"
       gradientTransform="translate(-215.03742,319.7082)" />
  </defs>
  <sodipodi:namedview
     id="base"
     pagecolor="#ffffff"
     bordercolor="#666666"
     borderopacity="1.0"
     inkscape:pageopacity="0.0"
     inkscape:pageshadow="2"
     inkscape:zoom="0.24748738"
     inkscape:cx="463.57331"
     inkscape:cy="265.90363"
     inkscape:document-units="px"
     inkscape:current-layer="layer1"
     showgrid="false"
     inkscape:window-width="1366"
     inkscape:window-height="706"
     inkscape:window-x="-8"
     inkscape:window-y="-8"
     inkscape:window-maximized="1"
     units="px" />
  <metadata
     id="metadata7">
    <rdf:RDF>
      <cc:Work
         rdf:about="">
        <dc:format>image/svg+xml</dc:format>
        <dc:type
           rdf:resource="http://purl.org/dc/dcmitype/StillImage" />
        <dc:title></dc:title>
      </cc:Work>
    </rdf:RDF>
  </metadata>
  <g
     inkscape:label="Layer 1"
     inkscape:groupmode="layer"
     id="layer1"
     transform="translate(0,-364.28567)">
    <path
       sodipodi:type="star"
       style="opacity:0.28999999;fill:#00ffff;stroke:#800080"
       id="path4136eg"
       sodipodi:sides="5"
       sodipodi:cx="149.96248"
       sodipodi:cy="470.92843"
       sodipodi:r1="84.03109"
       sodipodi:r2="42.015545"
       sodipodi:arg1="0.31099828"
       sodipodi:arg2="0.93931681"
       inkscape:flatsided="false"
       inkscape:rounded="0"
       inkscape:randomized="0"
       d="m 229.96248,496.64272 -55.19656,8.19877 -24.53782,50.11762 -24.85417,-49.96149 -55.247286,-7.84966 39.835836,-39.07667 -9.60688,-54.96897 49.47407,25.81078 49.30991,-26.12303 -9.25918,55.0286 z"
       inkscape:transform-center-x="-0.082081267"
       inkscape:transform-center-y="7.9461513" />
    <path
       inkscape:transform-center-y="2.4320959"
       inkscape:transform-center-x="-0.025122895"
       d="m 68.791599,427.6385 -16.894071,2.5094 -7.510317,15.33956 -7.607143,-15.29177 -16.909598,-2.40255 12.192598,-11.96024 -2.940388,-16.82442 15.142583,7.89994 15.092337,-7.99551 -2.833967,16.84267 z"
       inkscape:randomized="0"
       inkscape:rounded="0"
       inkscape:flatsided="false"
       sodipodi:arg2="0.93931681"
       sodipodi:arg1="0.31099828"
       sodipodi:r2="12.859744"
       sodipodi:r1="25.719488"
       sodipodi:cy="419.76809"
       sodipodi:cx="44.305912"
       sodipodi:sides="5"
       id="path4138eg"
       style="opacity:0.28999999;fill:#00ffff;stroke:#800080;stroke-width:0.3060711"
       sodipodi:type="star" />
    <g
       id="BiggoEGbg"
       transform="translate(-109.96232,143.76849)">
      <desc
         id="desc4151">A big creature for LifeFLOW! :)</desc>
      <circle
         r="29.934187"
         cy="259.14496"
         cx="302.39636"
         id="path4137eg"
         style="opacity:0.28999999;fill:#ffff00;stroke:#800080;stroke-width:0.6047619" />
      <circle
         r="7.3308215"
         cy="265.86487"
         cx="307.8945"
         id="path4139eg"
         style="opacity:0.28999999;fill:#ffff00;stroke:#800080;stroke-width:0.6047619" />
      <ellipse
         ry="10.996231"
         rx="3.6654108"
         cy="251.20323"
         cx="292.01105"
         id="path4141eg"
         style="opacity:0.28999999;fill:#0000ff;stroke:#800080;stroke-width:0.6047619" />
      <ellipse
         ry="3.6654108"
         rx="9.7744284"
         cy="253.64687"
         cx="317.66891"
         id="path4143eg"
         style="opacity:0.28999999;fill:#0000ff;stroke:#800080;stroke-width:0.6047619" />
    </g>
    <rect
       style="opacity:0.87000002;fill:url(#linearGradient6507);fill-opacity:1;stroke:#0000ff;stroke-width:0.6047619;stroke-miterlimit:4;stroke-dasharray:none;filter:url(#filter5001)"
       id="MedyEGbg"
       width="40.319515"
       height="23.214266"
       x="42.763119"
       y="486.60684" />
    <g
       id="g6519eg"
       inkscape:label="#MedyEG"
       transform="translate(0,53.355016)">
      <rect
         y="281.74832"
         x="59.868374"
         height="31.766891"
         width="63.533783"
         id="rect6509eg"
         style="opacity:0.87000002;fill:#0000ff;fill-opacity:1;stroke:#0000ff;stroke-width:0.6047619;stroke-miterlimit:4;stroke-dasharray:none" />
      <path
         inkscape:transform-center-y="-0.19571458"
         inkscape:transform-center-x="0.72308977"
         d="m 81.860835,300.07539 -6.160837,-1.4834 -4.714657,4.23419 -0.493011,-6.31769 -5.483865,-3.17547 5.856139,-2.42116 1.325442,-6.19674 4.112304,4.82134 6.303033,-0.65433 -3.314595,5.40091 z"
         inkscape:randomized="0"
         inkscape:rounded="0"
         inkscape:flatsided="false"
         sodipodi:arg2="1.3230568"
         sodipodi:arg1="0.69473828"
         sodipodi:r2="4.7712951"
         sodipodi:r1="9.5425901"
         sodipodi:cy="293.96637"
         sodipodi:cx="74.530014"
         sodipodi:sides="5"
         id="path6511eg"
         style="opacity:0.87000002;fill:#ff8080;fill-opacity:1;stroke:#0000ff;stroke-width:0.6047619;stroke-miterlimit:4;stroke-dasharray:none"
         sodipodi:type="star" />
      <path
         inkscape:transform-center-y="0.22428177"
         inkscape:transform-center-x="0.37755769"
         d="m 108.74051,312.2934 -1.06782,-3.99694 -3.89796,-1.38629 3.47135,-2.25068 0.1139,-4.13556 3.21323,2.60595 3.96835,-1.16963 -1.48546,3.86124 2.33867,3.41269 -4.13129,-0.21956 z"
         inkscape:randomized="0"
         inkscape:rounded="0"
         inkscape:flatsided="false"
         sodipodi:arg2="2.3965104"
         sodipodi:arg1="1.7681919"
         sodipodi:r2="3.115"
         sodipodi:r1="6.23"
         sodipodi:cy="306.18439"
         sodipodi:cx="109.96231"
         sodipodi:sides="5"
         id="path6513eg"
         style="opacity:0.87000002;fill:#ff8080;fill-opacity:1;stroke:#0000ff;stroke-width:0.6047619;stroke-miterlimit:4;stroke-dasharray:none"
         sodipodi:type="star" />
      <path
         inkscape:transform-center-y="-0.16705416"
         inkscape:transform-center-x="0.16705535"
         d="m 92.857067,295.18814 -2.173306,-0.73698 -1.839194,1.3725 0.02933,-2.29468 -1.873674,-1.32505 2.191432,-0.6812 0.6812,-2.19143 1.32505,1.87368 2.294678,-0.0293 -1.372506,1.8392 z"
         inkscape:randomized="0"
         inkscape:rounded="0"
         inkscape:flatsided="false"
         sodipodi:arg2="1.4137167"
         sodipodi:arg1="0.78539816"
         sodipodi:r2="1.727891"
         sodipodi:r1="3.4557824"
         sodipodi:cy="292.74454"
         sodipodi:cx="90.41346"
         sodipodi:sides="5"
         id="path6515eg"
         style="opacity:0.87000002;fill:#ff8080;fill-opacity:1;stroke:#0000ff;stroke-width:0.6047619;stroke-miterlimit:4;stroke-dasharray:none"
         sodipodi:type="star" />
      <path
         inkscape:transform-center-y="-0.1121867"
         inkscape:transform-center-x="-0.63956251"
         d="m 84.736419,309.55335 2.201552,-4.70569 -2.628342,-4.48131 5.155694,0.63966 3.44978,-3.8845 0.984842,5.10102 4.760422,2.08056 -4.547027,2.51294 -0.507677,5.17036 -3.79506,-3.54794 z"
         inkscape:randomized="0"
         inkscape:rounded="0"
         inkscape:flatsided="false"
         sodipodi:arg2="3.0951702"
         sodipodi:arg1="2.4668517"
         sodipodi:r2="3.9116797"
         sodipodi:r1="7.8233595"
         sodipodi:cy="304.66614"
         sodipodi:cx="90.845436"
         sodipodi:sides="5"
         id="path6517eg"
         style="opacity:0.87000002;fill:#ff8080;fill-opacity:1;stroke:#0000ff;stroke-width:0.6047619;stroke-miterlimit:4;stroke-dasharray:none"
         sodipodi:type="star" />
    </g>
    <path
       sodipodi:type="spiral"
       style="fill:#00ffff;fill-rule:evenodd;stroke:#000000;stroke-width:0.6047619px;stroke-linecap:butt;stroke-linejoin:miter;stroke-opacity:1"
       id="eaglynew2"
       sodipodi:cx="73.308212"
       sodipodi:cy="393.74982"
       sodipodi:expansion="1"
       sodipodi:revolution="3"
       sodipodi:radius="41.613129"
       sodipodi:argument="-18.147299"
       sodipodi:t0="0"
       d="m 73.308212,393.74982 c 1.592741,1.3477 -1.030876,2.81189 -2.239973,2.64724 -3.276579,-0.4462 -4.137127,-4.52375 -3.054508,-7.12719 1.936552,-4.65694 7.887895,-5.67954 12.014402,-3.46177 6.055815,3.25466 7.263028,11.296 3.869042,16.90161 -4.52365,7.4714 -14.719492,8.86373 -21.788831,4.27631 -8.896041,-5.77281 -10.473289,-18.15026 -4.683575,-26.67604 7.01212,-10.32587 21.585119,-12.08797 31.563258,-5.09085 11.758893,8.24586 13.705843,25.02253 5.49811,36.45048 -9.476152,13.19401 -28.461631,15.32586 -41.337687,5.90537 -14.630593,-10.70415 -16.947384,-31.90193 -6.312644,-46.2249 11.930572,-16.06821 35.343106,-18.56999 51.112116,-6.71991 17.506588,13.15584 20.193418,38.78494 7.127178,55.99933">
      <desc
         id="desc6528">a new test shape to play with! :)</desc>
    </path>
    <path
       d="m 205.26299,520.81738 c 1.59274,1.34771 -1.03088,2.8119 -2.23998,2.64724 -3.27658,-0.44619 -4.13713,-4.52374 -3.05451,-7.12718 1.93656,-4.65695 7.8879,-5.67955 12.01441,-3.46178 6.05581,3.25466 7.26302,11.296 3.86904,16.90162 -4.52365,7.4714 -14.71949,8.86373 -21.78883,4.27631 -8.89604,-5.77281 -10.47329,-18.15027 -4.68358,-26.67605 7.01212,-10.32586 21.58512,-12.08796 31.56326,-5.09084 11.75889,8.24586 13.70584,25.02252 5.49811,36.45047 -9.47615,13.19402 -28.46163,15.32587 -41.33769,5.90538 -14.63059,-10.70416 -16.94738,-31.90193 -6.31264,-46.2249 11.93057,-16.06821 35.3431,-18.57 51.11211,-6.71991 17.50659,13.15583 20.19342,38.78493 7.12718,55.99933"
       sodipodi:t0="0"
       sodipodi:argument="-18.147299"
       sodipodi:radius="41.613129"
       sodipodi:revolution="3"
       sodipodi:expansion="1"
       sodipodi:cy="520.81738"
       sodipodi:cx="205.26299"
       id="path6530eg"
       style="fill:#800000;fill-rule:evenodd;stroke:#000000;stroke-width:0.6047619px;stroke-linecap:butt;stroke-linejoin:miter;stroke-opacity:1"
       sodipodi:type="spiral">
      <desc
         id="desc6532">a new test shape to play with! :)</desc>
    </path>
  </g>
  <rect
     height="448"
     id="Border"
     style="fill:none;stroke:#800080;stroke-width:0.60342091"
     width="448"
     x="1"
     y="1" />
	 
	 
	 <!-- creatures from original versions! :) -->
	 
			<a style="fill-opacity:0.75" xlink:href="http://life.worldsowisdom.com/flow/"> <rect height="90" id="YellowRect" onmouseout="setAttribute('fill-opacity','0.5')" onmouseover="setAttribute('fill-opacity','1.0')" style="fill:yellow;stroke:#000000" width="90" x="150" y="90"> <desc id="desc3364">A clickable square!</desc>
			<title id="title3362"></title>
			</rect> </a> <a style="fill-opacity:0.75" xlink:href="http://life.worldsowisdom.com/flow/">
			<rect height="90" id="OrangeRect" onmouseout="setAttribute('fill-opacity','0.75')" onmouseover="setAttribute('fill-opacity','1.0')" style="fill:orange;stroke:#000000" width="90" x="60" y="300"> <desc id="desc3364">A clickable square!</desc>
			<title id="title3362"></title>
			</rect> </a>

<path xmlns="http://www.w3.org/2000/svg" sodipodi:type="spiral" xmlns:sodipodi="http://sodipodi.sourceforge.net/DTD/sodipodi-0.dtd" style="fill:#00ffff;fill-rule:evenodd;stroke:#000000;stroke-width:0.6047619px;stroke-linecap:butt;stroke-linejoin:miter;stroke-opacity:1" id="eaglynew" sodipodi:cx="73.308212" sodipodi:cy="393.74982" sodipodi:expansion="1" sodipodi:revolution="3" sodipodi:radius="41.613129" sodipodi:argument="-18.147299" sodipodi:t0="0" d="m 73.308212,393.74982 c 1.592741,1.3477 -1.030876,2.81189 -2.239973,2.64724 -3.276579,-0.4462 -4.137127,-4.52375 -3.054508,-7.12719 1.936552,-4.65694 7.887895,-5.67954 12.014402,-3.46177 6.055815,3.25466 7.263028,11.296 3.869042,16.90161 -4.52365,7.4714 -14.719492,8.86373 -21.788831,4.27631 -8.896041,-5.77281 -10.473289,-18.15026 -4.683575,-26.67604 7.01212,-10.32587 21.585119,-12.08797 31.563258,-5.09085 11.758893,8.24586 13.705843,25.02253 5.49811,36.45048 -9.476152,13.19401 -28.461631,15.32586 -41.337687,5.90537 -14.630593,-10.70415 -16.947384,-31.90193 -6.312644,-46.2249 11.930572,-16.06821 35.343106,-18.56999 51.112116,-6.71991 17.506588,13.15584 20.193418,38.78494 7.127178,55.99933" transform="translate(25, 25 )">
    <desc id="desc36">a new test shape to play with! :)</desc>
  </path><rect xmlns="http://www.w3.org/2000/svg" height="10" id="AvrilNiblet1" onmouseout="setAttribute('fill-opacity','0.5')" onmouseover="setAttribute('fill-opacity','1.0')" style="fill:yellow;stroke:black" width="10" x="225" y="225" transform="translate(25, 25 )">
    <desc id="desc71">Avril's first little niblet! :)</desc>
    <title id="title73"/>
  </rect><path xmlns="http://www.w3.org/2000/svg" fill-opacity="0.43046721000000016" onmousedown="Reverse(PurpleSpiral)" id="PurpleSpiral" d="m 282.09113,269.50729 c 1.52075,1.52076 -1.29967,2.80025 -2.52761,2.52761 -3.32763,-0.73884 -3.86257,-5.00113 -2.5276,-7.58281 2.38796,-4.61803 8.58895,-5.15902 12.63801,-2.5276 5.94217,3.86172 6.4939,12.22544 2.5276,17.69322 -5.28645,7.28768 -15.87921,7.84514 -22.74842,2.52759 -8.6442,-6.69159 -9.20486,-19.54122 -2.5276,-27.80363 8.08706,-10.00688 23.20787,-10.56947 32.85884,-2.52759 11.37333,9.47708 11.93717,26.8774 2.52759,37.91404 -10.86373,12.74223 -30.54887,13.30692 -42.96924,2.52759 -14.11282,-12.24817 -14.67812,-34.22169 -2.52759,-48.02445 13.63105,-15.4846 37.8955,-16.05034 53.07965,-2.52759 16.85728,15.01283 17.42336,41.57006 2.52759,58.13486" inkscape:tile-cx="185.6451" xmlns:inkscape="http://www.inkscape.org/namespaces/inkscape" inkscape:tile-cy="265.9547" inkscape:tile-h="68.00056" inkscape:tile-w="75.106916" inkscape:tile-x0="148.09164" inkscape:tile-y0="231.95443" sodipodi:argument="-18.064157" xmlns:sodipodi="http://sodipodi.sourceforge.net/DTD/sodipodi-0.dtd" sodipodi:cx="182.09113" sodipodi:cy="269.50729" sodipodi:expansion="1" sodipodi:radius="42.894836" sodipodi:revolution="3" sodipodi:t0="0" sodipodi:type="spiral" style="fill:#800080;fill-rule:evenodd;stroke:#000000;stroke-width:0.2081555px;stroke-linecap:butt;stroke-linejoin:miter;stroke-opacity:1" transform="translate(25, 25)"/><image xmlns="http://www.w3.org/2000/svg" id="back3" width="448" height="448" x="1" y="1" xlink:href="creatures/png/back3.png" xmlns:xlink="http://www.w3.org/1999/xlink"/><image xmlns="http://www.w3.org/2000/svg" id="galaxy3" width="294" height="150" x="150" y="100" style="opacity:0.5" onmousedown="tool(eg_newy)" xlink:href="creatures/png/galaxy3.png" xmlns:xlink="http://www.w3.org/1999/xlink" transform="translate(25, 25 )"/><image xmlns="http://www.w3.org/2000/svg" id="galaxy4" width="306" height="150" x="50" y="250" style="opacity:0.25" onmousedown="tool(eg_newy2)" xlink:href="creatures/png/galaxy4.png" xmlns:xlink="http://www.w3.org/1999/xlink" transform="translate(25, 12.5 )"/><image xmlns="http://www.w3.org/2000/svg" id="planet3" width="157" height="150" x="100" y="250" style="opacity:0.5" onmousedown="tool(eg_niblet)" xlink:href="creatures/png/planet3.png" xmlns:xlink="http://www.w3.org/1999/xlink" transform="translate(25, 0.0 )"/><image xmlns="http://www.w3.org/2000/svg" id="planet4" width="150" height="150" x="300" y="150" style="opacity:0.9" onmousedown="tool(eg_medy)" xlink:href="creatures/png/planet4.png" xmlns:xlink="http://www.w3.org/1999/xlink" transform="translate(25, 0.0 )"/><image xmlns="http://www.w3.org/2000/svg" id="satellite3" width="79" height="150" x="200" y="250" onmousedown="tool(satellite3)" xlink:href="creatures/png/satellite3.png" xmlns:xlink="http://www.w3.org/1999/xlink" transform="translate(25, 25 )"/><image xmlns="http://www.w3.org/2000/svg" id="satellite4" width="109" height="75" x="50" y="50" onmousedown="tool(satellite4)" xlink:href="creatures/png/satellite4.png" xmlns:xlink="http://www.w3.org/1999/xlink" transform="translate(25, 25 )"/><image xmlns="http://www.w3.org/2000/svg" id="mediumcreature3" width="38" height="50" x="300" y="175" onmousedown="tool(the_rect)" xlink:href="creatures/png/mediumcreature3.png" xmlns:xlink="http://www.w3.org/1999/xlink" transform="translate( 0.0 , 25 )"/><image xmlns="http://www.w3.org/2000/svg" id="niblet3" width="21" height="32" x="400" y="350" onmousedown="tool(pink_rect)" xlink:href="creatures/png/niblet3.png" xmlns:xlink="http://www.w3.org/1999/xlink" transform="translate( 0.0 , 25 )"/><image xmlns="http://www.w3.org/2000/svg" id="bigbeauty3" width="92" height="110" x="100" y="150" onmousedown="tool(eg_biggo)" xlink:href="creatures/png/bigbeauty3.png" xmlns:xlink="http://www.w3.org/1999/xlink" transform="translate(25, 0.0 )"/><path xmlns="http://www.w3.org/2000/svg" id="Creature-0.8877623965907192" d="M 62.64173112172796 352.42302034903224, Q 98.34231412706336 346.34559343500086 13.982726404787595 52.71338298135384, T 108.10590375080155 89.72891599929447, 47.026808352648864 324.18751005293575, 19.82483196009141 238.0601577263848, 118.7747837875332 116.61262965609185, 21.817957347185978 42.3864651750154 z" style="fill:black;stroke:yellow" stroke-width="17.038292766332976" transform="translate(88363.52856085867, 191.29547654028767) rotate(-143.87909832866086 10 98.5)" onmousedown="tool('Creature-0.8877623965907192')" class="creatureClass"><title>Creature-0.8877623965907192</title><desc>moveLifePathCreature2("Creature-0.8877623965907192", 1, 1)</desc></path><path xmlns="http://www.w3.org/2000/svg" id="Creature-0.9138209650548266" d="M 209.87564818533784 185.8977667161371, Q 114.58521404557247 51.2265775934245 19.62071119534847 100.23744259586097, T 26.368285527842858 43.74645368189433, 146.6319795541609 13.857436215528482, 26.564948479984597 78.27072167082092, 180.48127116419155 120.6177084637578, 201.03371973322297 94.1892432902269 z" style="fill:black;stroke:yellow" stroke-width="0.6170814703079697" transform="translate(-1278.115705565057, -1288.4650140601307) rotate(-0.4926284498043621 10 98.5)" onmousedown="tool('Creature-0.9138209650548266')" class="creatureClass"><title>Creature-0.9138209650548266</title><desc>moveLifePathCreature2("Creature-0.9138209650548266", 1, 1)</desc></path><path xmlns="http://www.w3.org/2000/svg" id="Creature-0.9496068646855486" d="M 292.08391799379694 110.0411408658427, Q 193.654612011805 144.65318823635153 367.37715431778645 15.348997676692925, T 387.8636436068791 5.327108783548622, 376.9885158620564 36.35904969275011, 414.49872676940817 144.66891793660804, 372.1452212626248 109.8667591312645, 396.312587484082 85.71724604145702 z" style="fill:black;stroke:yellow" stroke-width="14.97590847709559" transform="translate(85890.20115682615, -43.17121563145306) rotate(-877.2689221653819 10 98.5)" onmousedown="tool('Creature-0.9496068646855486')" class="creatureClass"><title>Creature-0.9496068646855486</title><desc>moveLifePathCreature2("Creature-0.9496068646855486", 1, 1)</desc></path><path xmlns="http://www.w3.org/2000/svg" id="Creature-0.8641430163945149" d="M 158.8755959719426 66.32243623647406, Q 73.70376222402595 36.77487789235582 76.56068507420129 74.0282262107902, T 116.33766476210388 5.360537167179936, 196.12336726384993 74.62342780484343, 5.896255489389097 74.79899831328254, 157.03977932183003 68.47224884453854, 134.05009787519757 36.01650725009998 z" style="fill:black;stroke:yellow" stroke-width="16.082494003852933" transform="translate(86891.22314113284, 70.91609561121336) rotate(-19.42304744670625 10 98.5)" onmousedown="tool('Creature-0.8641430163945149')" class="creatureClass"><title>Creature-0.8641430163945149</title><desc>moveLifePathCreature2("Creature-0.8641430163945149", 1, 1)</desc></path><path xmlns="http://www.w3.org/2000/svg" id="Creature-0.6775612053760536" d="M 71.48837891694895 54.21454014596262, Q 102.45562426164255 9.678218661930917 107.23450388427105 48.97439676609166, T 106.38233426023815 55.14812224434953, 70.40419788854923 6.224102738495663, 15.405228113879073 18.823735098986536, 95.11332612862512 37.71338167609391, 84.65062244157608 51.82576301619622 z" style="fill:black;stroke:yellow" stroke-width="14.983100735503045" transform="translate(84110.92203766832, -102.36266110621295) rotate(-375.4923254576369 10 98.5)" onmousedown="tool('Creature-0.6775612053760536')" class="creatureClass"><title>Creature-0.6775612053760536</title><desc>moveLifePathCreature2("Creature-0.6775612053760536", 1, 1)</desc></path><path xmlns="http://www.w3.org/2000/svg" id="Creature-0.788375043362762" d="M 138.19133371417612 32.0258415072727, Q 137.00537479916932 64.49030064075228 37.614110133964694 11.047553572947967, T 157.3971090605703 27.558949575167716, 65.73840512636131 8.42220825441015, 310.0878905339891 0.507888584638582, 59.57399340523582 5.336396141054993, 231.48365279647084 44.583436403574254 z" style="fill:black;stroke:yellow" stroke-width="7.528020772127785" transform="translate(84590.6091556638, -123.32281221402673) rotate(152.63781834691156 10 98.5)" onmousedown="tool('Creature-0.788375043362762')" class="creatureClass"><title>Creature-0.788375043362762</title><desc>moveLifePathCreature2("Creature-0.788375043362762", 1, 1)</desc></path><path xmlns="http://www.w3.org/2000/svg" id="Creature-0.5673896254353815" d="M 177.28273286949405 12.260214446475537, Q 201.95805971292305 31.564434565712407 223.0819632399328 62.29191979432061, T 3.5576176413118183 26.58464015514221, 185.71695693737536 73.24527160034164, 146.18113726453572 52.7804390016889, 175.89020114809495 38.77779309968536, 256.78010870164553 37.26818115149086 z" style="fill:black;stroke:yellow" stroke-width="9.124126799384696" transform="translate(83896.60629435231, 125.83946155483255) rotate(-216.16282702518234 10 98.5)" onmousedown="tool('Creature-0.5673896254353815')" class="creatureClass"><title>Creature-0.5673896254353815</title><desc>moveLifePathCreature2("Creature-0.5673896254353815", 1, 1)</desc></path><path xmlns="http://www.w3.org/2000/svg" id="Creature-0.6164687078385307" d="M 149.89571879995106 67.3771263331925, Q 99.85396964159952 205.29219582954198 221.40536689822403 142.1431540600911, T 183.18150729460365 352.0906796360164, 99.6320256941501 0.7868498491532837, 305.40805168838557 259.6322452861239, 238.1105866480166 376.971509484362, 350.8701681610227 119.89907113073505 z" style="fill:black;stroke:yellow" stroke-width="7.303085006502769" transform="translate(75701.69733705245, -313.4035515733567) rotate(-64.37021469232106 10 98.5)" onmousedown="tool('Creature-0.6164687078385307')" class="creatureClass"><title>Creature-0.6164687078385307</title><desc>moveLifePathCreature2("Creature-0.6164687078385307", 1, 1)</desc></path><path xmlns="http://www.w3.org/2000/svg" id="Creature-0.1865351013810307" d="M 111.11486447106304 345.64095312942595, Q 367.8741785514322 69.14151522717899 141.5898783348905 46.74313332134365, T 177.67234864631365 249.78261349728993, 374.20880480438205 260.04037781883005, 193.58527203449523 313.987037411177, 143.42804022360397 163.8075682255566, 235.00557641052967 79.8359223116579 z" style="fill:black;stroke:yellow" stroke-width="2.00749246989802" transform="translate(1126.7978681678783, 1138.0053528396538) rotate(0.22235532575332145 10 98.5)" onmousedown="tool('Creature-0.1865351013810307')" class="creatureClass"><title>Creature-0.1865351013810307</title><desc>moveLifePathCreature2("Creature-0.1865351013810307", 1, 1)</desc></path><path xmlns="http://www.w3.org/2000/svg" id="Creature-0.3971861465724198" d="M 220.13147847886236 58.81757055413765, Q 110.21940653678087 160.87334206437117 410.5765823452233 142.05261166911265, T 311.71283024429323 66.73295471351435, 291.1483854115748 93.3104626823306, 216.8431218179086 190.03445741971632, 358.3098545964778 140.5421299528282, 223.95913741003622 217.65515383178044 z" style="fill:black;stroke:yellow" stroke-width="7.3804143251528975" transform="translate(78511.20495393971, -157.42072190510004) rotate(50.0604190259527 10 98.5)" onmousedown="tool('Creature-0.3971861465724198')" class="creatureClass"><title>Creature-0.3971861465724198</title><desc>moveLifePathCreature2("Creature-0.3971861465724198", 1, 1)</desc></path><path xmlns="http://www.w3.org/2000/svg" id="Creature-0.7196397530553997" d="M 84.15907753545109 32.34959224310043, Q 34.93248275210775 89.87723630509967 53.84482050135754 99.69173373119538, T 65.41444321727967 46.84230057145628, 48.44845174111463 28.70118328651132, 93.51289621990968 6.640471119899816, 53.035157616965805 35.91208386029451, 14.657408706954643 83.97327657861503 z" style="fill:black;stroke:yellow" stroke-width="11.160387627332325" transform="translate(74898.89442511133, -33.4393369962329) rotate(33.33954036828464 10 98.5)" onmousedown="tool('Creature-0.7196397530553997')" class="creatureClass"><title>Creature-0.7196397530553997</title><desc>moveLifePathCreature2("Creature-0.7196397530553997", 1, 1)</desc></path><path xmlns="http://www.w3.org/2000/svg" id="Creature-0.526068783808685" d="M 83.79841533882856 0.11803589388372125, Q 252.07429270298218 0.377582821319237 26.25073145161769 0.7118232153322566, T 119.91895651132988 0.7321485782877926, 146.00815579650822 0.6987189938582937, 107.28336970662383 0.6317869587718433, 9.034198168629777 0.7154060410962224, 135.96350726704466 0.3554518860487253 z" style="fill:black;stroke:yellow" stroke-width="1.9492517686185251" transform="translate(-1117.6570518887097, -1105.9945909118774) rotate(-0.024159913354505905 10 98.5)" onmousedown="tool('Creature-0.526068783808685')" class="creatureClass"><title>Creature-0.526068783808685</title><desc>moveLifePathCreature2("Creature-0.526068783808685", 1, 1)</desc></path><path xmlns="http://www.w3.org/2000/svg" id="Creature-0.011738991694519862" d="M 255.8846938635975 211.8868801611019, Q 281.0520014518373 352.44983952834417 275.073059746774 326.3391008089801, T 78.26196596589168 105.70927497290647, 106.46457484635717 318.9477467293955, 114.92496486016097 2.3483649137458715, 226.31716131865116 235.96859425049604, 167.94238666025234 9.052765566163664 z" style="fill:black;stroke:yellow" stroke-width="19.407040681926333" transform="translate(76990.12077009288, 741.2592744099647) rotate(-15.53868392266381 10 98.5)" onmousedown="tool('Creature-0.011738991694519862')" class="creatureClass"><title>Creature-0.011738991694519862</title><desc>moveLifePathCreature2("Creature-0.011738991694519862", 1, 1)</desc></path><path xmlns="http://www.w3.org/2000/svg" id="Creature-0.9712460677005643" d="M 8.63735690273711 162.80533504861313, Q 0.8703478677940067 103.92185518628993 6.867166545570339 139.70052284133314, T 19.161355326477835 11.471252565344791, 19.208247323655517 90.55711142427958, 24.577514535236933 127.8841190104531, 20.458361644810825 51.44720656480375, 8.257193000388023 7.26567667346449 z" style="fill:black;stroke:yellow" stroke-width="12.169878296589642" transform="translate(76623.96993866657, -14.193745565795187) rotate(679.4564629900472 10 98.5)" onmousedown="tool('Creature-0.9712460677005643')" class="creatureClass"><title>Creature-0.9712460677005643</title><desc>moveLifePathCreature2("Creature-0.9712460677005643", 1, 1)</desc></path><path xmlns="http://www.w3.org/2000/svg" id="Creature-0.17834290200739567" d="M 44.52854764183592 92.63016599527471, Q 54.26669343606408 174.87178038655634 29.03540476126393 116.08401006975438, T 41.48604458696106 115.3889182929022, 57.383428396389235 191.5169125210669, 2.6628163547268375 18.077424597657956, 44.19278798584624 185.03429979301126, 7.080141688399309 20.101184474980805 z" style="fill:black;stroke:yellow" stroke-width="4.677563031145984" transform="translate(1142.527227196467, 1166.1035927145506) rotate(0.0035686797475880743 10 98.5)" onmousedown="tool('Creature-0.17834290200739567')" class="creatureClass"><title>Creature-0.17834290200739567</title><desc>moveLifePathCreature2("Creature-0.17834290200739567", 1, 1)</desc></path><path xmlns="http://www.w3.org/2000/svg" id="Creature-0.41330474777926407" d="M 53.96968081052701 86.0110245684089, Q 39.576542067205054 81.86969366142509 67.21144251752331 67.55631759473268, T 110.99001291778269 157.39713047004955, 9.606145753739959 98.87451207083006, 45.8723546404871 152.35089714409915, 13.673736933402393 93.14321933767478, 111.14609422223535 88.39387910772268 z" style="fill:black;stroke:yellow" stroke-width="9.347866672888891" transform="translate(77386.22217142279, 135.0501284877753) rotate(-11.091039429594689 10 98.5)" onmousedown="tool('Creature-0.41330474777926407')" class="creatureClass"><title>Creature-0.41330474777926407</title><desc>moveLifePathCreature2("Creature-0.41330474777926407", 1, 1)</desc></path><path xmlns="http://www.w3.org/2000/svg" id="Creature-0.27147918838064866" d="M 47.593544427328524 46.487712274920646, Q 70.5439342917152 22.08678297800752 115.70392322834078 75.99579182095162, T 56.55897674524069 93.8771199920244, 42.564876318973255 121.33707107161294, 63.64479373211602 19.768629567795422, 108.41203191222293 58.0148463000393, 45.91752959340346 29.217903214064037 z" style="fill:black;stroke:yellow" stroke-width="12.799097290883388" transform="translate(77806.60855228604, -3.837559188490398) rotate(-9986.29424429633 10 98.5)" onmousedown="tool('Creature-0.27147918838064866')" class="creatureClass"><title>Creature-0.27147918838064866</title><desc>moveLifePathCreature2("Creature-0.27147918838064866", 1, 1)</desc></path><path xmlns="http://www.w3.org/2000/svg" id="Creature-0.9966585196756149" d="M 183.5195583942199 73.93466993715619, Q 191.24515711457468 5.311876626439298 178.89955672046364 154.17819925007703, T 156.20074800740974 62.541404051275585, 61.27980814780624 3.005699566795146, 122.74405485713584 97.60452205121993, 25.045500730329735 137.42969259063398, 130.80005002474303 86.08565399007607 z" style="fill:black;stroke:yellow" stroke-width="17.40408813324203" transform="translate(76321.27739612454, 257.8738582708845) rotate(54.887784530171466 10 98.5)" onmousedown="tool('Creature-0.9966585196756149')" class="creatureClass"><title>Creature-0.9966585196756149</title><desc>moveLifePathCreature2("Creature-0.9966585196756149", 1, 1)</desc></path><path xmlns="http://www.w3.org/2000/svg" id="Creature-0.10202812133562056" d="M 171.68322784469404 4.856858380855274, 121.81793089652118 279.05386097295224, 55.474965756165886 321.47962851180927, 136.50250959969964 96.67193410350643, 135.81356763377363 174.16175819725711, 5.561346643348892 81.86118991032794, 66.62932323788796 128.9736541140132 z" style="fill:black;stroke:yellow" stroke-width="18.25140672261498" transform="translate(114.14234393815276, -45.897477293891406) rotate(-0.054574750269987427 212.9583282470703 214.6999969482422)" onmousedown="tool('Creature-0.10202812133562056')" class="creatureClass"><title>Creature-0.10202812133562056</title><desc>moveLifePathCreature("Creature-0.10202812133562056", 1, 1)</desc></path><path xmlns="http://www.w3.org/2000/svg" id="Creature-0.41844436424859965" d="M108.64832185412007 95.3455375031704, Q145.0806028858915 153.24103885346432 95.03862317838525, 194.76027651683142 T 74.83309341564905 110.31170171516048, 131.48873437273755 143.55806299974753, 120.94491249613145 191.921267761065, 164.20466659117832 77.16850297321099, 100.66301947818991 97.95765552809027 z" style="fill:black;stroke:yellow" stroke-width="7.534866841616128" transform="translate(23644.645625042245, -80.16455025451248) rotate(-126.6288560488158 10 98.5)" onmousedown="tool('Creature-0.41844436424859965')" class="creatureClass"><title>Creature-0.41844436424859965</title><desc>moveLifePathCreature2("Creature-0.41844436424859965", 1, 1)</desc></path><path xmlns="http://www.w3.org/2000/svg" id="Creature-0.4578958392896194" d="M29.597215790271584 5.859538375860683, Q32.03566355387329 8.144928275844617 41.47137111696992, 2.899938853076636 T 17.34871051344064 6.020313455113234, 47.391733403188375 0.36207788461893087, 88.08285459322052 4.001316222840182, 43.02919674503382 8.616159053772348, 24.07241184586795 5.754792511393847 z" style="fill:black;stroke:yellow" stroke-width="13.027401111713852" transform="translate(23108.215577613173, -35.243252251168386) rotate(186.18912219406099 10 98.5)" onmousedown="tool('Creature-0.4578958392896194')" class="creatureClass"><title>Creature-0.4578958392896194</title><desc>moveLifePathCreature2("Creature-0.4578958392896194", 1, 1)</desc></path><path xmlns="http://www.w3.org/2000/svg" id="Creature-0.4974435745823623" d="M250.16099259215653 6.9801968125955245, Q208.57977703384918 5.205754649728 320.1723587827599, 13.28410019380096 T 1.9189818599204127 20.131761410274297, 361.5935880196115 30.919580579989788, 126.04713106011279 14.051869426646906, 90.90866666451251 18.7528840453258, 391.80890033354706 25.144607819584266 z" style="fill:black;stroke:yellow" stroke-width="14.873006067387607" transform="translate(23279.247821839217, 19.97896858676423) rotate(-272.09992510694246 10 98.5)" onmousedown="tool('Creature-0.4974435745823623')" class="creatureClass"><title>Creature-0.4974435745823623</title><desc>moveLifePathCreature2("Creature-0.4974435745823623", 1, 1)</desc></path><path xmlns="http://www.w3.org/2000/svg" id="Creature-0.7703235625158198" d="M24.548452329378065 104.76526803219811, Q26.137189730390492 75.03903882013059 25.149593757256437, 27.618581551919057 T 25.105704021420923 94.50281455544146, 24.920060726747064 98.4190606464159, 0.18505504814497298 91.51220601074269, 19.44239822006912 24.83881883818328, 13.90907471689566 93.36353247031863 z" style="fill:black;stroke:yellow" stroke-width="4.308111520180205" transform="translate(-342.06158056041335, -350.7239011300509) rotate(0.35342868213110434 10 98.5)" onmousedown="tool('Creature-0.7703235625158198')" class="creatureClass"><title>Creature-0.7703235625158198</title><desc>moveLifePathCreature2("Creature-0.7703235625158198", 1, 1)</desc></path><path xmlns="http://www.w3.org/2000/svg" id="Creature-0.7550388307336651" d="M4.094578502973596 47.21516480689739, Q5.223189461743072 13.72487207157961 118.13193464971071, 24.816275098304846 T 240.19598679496542 29.166928042760482, 144.7251671193535 10.990957501438148, 248.01592535286906 17.454335242871082, 145.32059149521126 74.84319454400716, 63.551918366233636 34.216985120558604 z" style="fill:black;stroke:yellow" stroke-width="17.567162004427047" transform="translate(23500.512536903618, 75.06312477892901) rotate(50.87311283017724 10 98.5)" onmousedown="tool('Creature-0.7550388307336651')" class="creatureClass"><title>Creature-0.7550388307336651</title><desc>moveLifePathCreature2("Creature-0.7550388307336651", 1, 1)</desc></path><path xmlns="http://www.w3.org/2000/svg" id="Creature-0.9163953155772062" d="M17.766660337347073 72.12780786368785, Q9.581147252404069 70.80282457757015 7.128320507267602, 25.472472998780617 T 1.9743927762739535 88.2288019523828, 2.9584119810972145 64.89634162754012, 13.428682852441526 88.72143582844902, 3.9178065540470866 23.805304718992154, 17.414860304827535 72.26728601982268 z" style="fill:black;stroke:yellow" stroke-width="17.12777780234999" transform="translate(20903.31815047004, 26.971948639760093) rotate(274.572163402705 10 98.5)" onmousedown="tool('Creature-0.9163953155772062')" class="creatureClass"><title>Creature-0.9163953155772062</title><desc>moveLifePathCreature2("Creature-0.9163953155772062", 1, 1)</desc></path><path xmlns="http://www.w3.org/2000/svg" id="Creature-0.17757283766041487" d="M61.58973680161955 41.320516370915094, Q256.2666603390172 83.95585607925726 354.58563709129044, 87.46356190871889 T 274.4916771649736 0.6444921028205399, 120.04234056217061 63.044680725356585, 148.55638572902498 49.995904527073435, 15.974787776308759 40.60690740261628, 207.32190551337703 37.00986425913213 z" style="fill:black;stroke:yellow" stroke-width="1.7237993432635057" transform="translate(-302.0736510251541, -312.27896156587605) rotate(-0.26583898678349976 10 98.5)" onmousedown="tool('Creature-0.17757283766041487')" class="creatureClass"><title>Creature-0.17757283766041487</title><desc>moveLifePathCreature2("Creature-0.17757283766041487", 1, 1)</desc></path><path xmlns="http://www.w3.org/2000/svg" id="Creature-0.8730897191962109" d="M226.69508613120132 130.32829477282652, Q239.81971316826025 150.2979622963784 51.93453795805516, 232.6854671547895 T 228.23916339223797 132.86182147437526, 150.0468456688148 199.28348126063946, 256.34174110378757 19.95834324932799, 58.66493661061146 227.24623576701353, 53.76152229736209 93.08359826724505 z" style="fill:black;stroke:yellow" stroke-width="15.260128140771084" transform="translate(20729.92162635975, -4.461210634028686) rotate(-758.6470867579876 10 98.5)" onmousedown="tool('Creature-0.8730897191962109')" class="creatureClass"><title>Creature-0.8730897191962109</title><desc>moveLifePathCreature2("Creature-0.8730897191962109", 1, 1)</desc></path><path xmlns="http://www.w3.org/2000/svg" id="Creature-0.29203660655032915" d="M137.69163042976032 26.951310306710045, Q158.0964499109991 4.203435347557729 149.5864677060008, 15.380535196242727 T 55.58146246503822 26.81551527486844, 129.35404068666267 7.244941804189356, 74.08826111065542 20.240298850468594, 69.1713752883196 23.3200663935693, 141.79625076337763 12.630565793801516 z" style="fill:black;stroke:yellow" stroke-width="14.175915183176924" transform="translate(20184.884207223284, -32.81877190797607) rotate(-109.20899120728032 10 98.5)" onmousedown="tool('Creature-0.29203660655032915')" class="creatureClass"><title>Creature-0.29203660655032915</title><desc>moveLifePathCreature2("Creature-0.29203660655032915", 1, 1)</desc></path><path xmlns="http://www.w3.org/2000/svg" id="Creature-0.3712589928566111" d="M 40.466008173167324, 94.18143042373723 Q 203.62377775098923, 69.67771626156842 212.30765205644144, 119.87152096472136 T 99.28614417761327, 88.60346746585095, 103.28820244505515 78.57229405978089, 49.319400655416224 53.47891824747607, 186.40727253202337 173.06484499322582, 42.134198480640784 141.81513585895505 z" style="fill:black;stroke:yellow" stroke-width="15.046283245490436" transform="translate(57.272787988540955, -26.66429284986959) rotate(0.013314496937738804 215.68333435058594 224.25)" onmousedown="tool('Creature-0.3712589928566111')" class="creatureClass"><title>Creature-0.3712589928566111</title><desc>moveLifePathCreature2("Creature-0.3712589928566111", 1, 1)</desc></path></svg>