<?xml version="1.0" encoding="UTF-8" standalone="no"?>
<!-- Created with LifeFLOW (http://life.worldsowisdom.com/flow/) -->

<svg
   xmlns:osb="http://www.openswatchbook.org/uri/2009/osb"
   xmlns:dc="http://purl.org/dc/elements/1.1/"
   xmlns:cc="http://creativecommons.org/ns#"
   xmlns:rdf="http://www.w3.org/1999/02/22-rdf-syntax-ns#"
   xmlns:svg="http://www.w3.org/2000/svg"
   xmlns="http://www.w3.org/2000/svg"
   xmlns:xlink="http://www.w3.org/1999/xlink"
   xmlns:sodipodi="http://sodipodi.sourceforge.net/DTD/sodipodi-0.dtd"
   xmlns:inkscape="http://www.inkscape.org/namespaces/inkscape"
   width="450"
   height="450"
   viewBox="0 0 450 450"
   id="svg2"
   version="1.1"
   inkscape:version="0.91 r13725"
   sodipodi:docname="newcreatures-plain.svg">
  <defs
     id="defs4">
    <linearGradient
       inkscape:collect="always"
       id="linearGradient6501">
      <stop
         style="stop-color:#0000ff;stop-opacity:1;"
         offset="0"
         id="stop6503" />
      <stop
         style="stop-color:#0000ff;stop-opacity:0;"
         offset="1"
         id="stop6505" />
    </linearGradient>
    <linearGradient
       id="linearGradient6455"
       osb:paint="solid">
      <stop
         style="stop-color:#0000ff;stop-opacity:1;"
         offset="0"
         id="stop6457" />
    </linearGradient>
    <filter
       inkscape:collect="always"
       style="color-interpolation-filters:sRGB"
       id="filter5001"
       x="-0.37912726"
       width="1.7582545"
       y="-0.65848422"
       height="2.3169684">
      <feGaussianBlur
         inkscape:collect="always"
         stdDeviation="6.3692616"
         id="feGaussianBlur5003" />
    </filter>
    <linearGradient
       inkscape:collect="always"
       xlink:href="#linearGradient6501"
       id="linearGradient6507"
       x1="242.51431"
       y1="178.50594"
       x2="313.40628"
       y2="178.50594"
       gradientUnits="userSpaceOnUse"
       gradientTransform="translate(-215.03742,319.7082)" />
  </defs>
  <sodipodi:namedview
     id="base"
     pagecolor="#ffffff"
     bordercolor="#666666"
     borderopacity="1.0"
     inkscape:pageopacity="0.0"
     inkscape:pageshadow="2"
     inkscape:zoom="0.24748738"
     inkscape:cx="463.57331"
     inkscape:cy="265.90363"
     inkscape:document-units="px"
     inkscape:current-layer="layer1"
     showgrid="false"
     inkscape:window-width="1366"
     inkscape:window-height="706"
     inkscape:window-x="-8"
     inkscape:window-y="-8"
     inkscape:window-maximized="1"
     units="px" />
  <metadata
     id="metadata7">
    <rdf:RDF>
      <cc:Work
         rdf:about="">
        <dc:format>image/svg+xml</dc:format>
        <dc:type
           rdf:resource="http://purl.org/dc/dcmitype/StillImage" />
        <dc:title></dc:title>
      </cc:Work>
    </rdf:RDF>
  </metadata>
  <g
     inkscape:label="Layer 1"
     inkscape:groupmode="layer"
     id="layer1"
     transform="translate(0,-364.28567)">
    <path
       sodipodi:type="star"
       style="opacity:0.28999999;fill:#00ffff;stroke:#800080"
       id="path4136eg"
       sodipodi:sides="5"
       sodipodi:cx="149.96248"
       sodipodi:cy="470.92843"
       sodipodi:r1="84.03109"
       sodipodi:r2="42.015545"
       sodipodi:arg1="0.31099828"
       sodipodi:arg2="0.93931681"
       inkscape:flatsided="false"
       inkscape:rounded="0"
       inkscape:randomized="0"
       d="m 229.96248,496.64272 -55.19656,8.19877 -24.53782,50.11762 -24.85417,-49.96149 -55.247286,-7.84966 39.835836,-39.07667 -9.60688,-54.96897 49.47407,25.81078 49.30991,-26.12303 -9.25918,55.0286 z"
       inkscape:transform-center-x="-0.082081267"
       inkscape:transform-center-y="7.9461513" />
    <path
       inkscape:transform-center-y="2.4320959"
       inkscape:transform-center-x="-0.025122895"
       d="m 68.791599,427.6385 -16.894071,2.5094 -7.510317,15.33956 -7.607143,-15.29177 -16.909598,-2.40255 12.192598,-11.96024 -2.940388,-16.82442 15.142583,7.89994 15.092337,-7.99551 -2.833967,16.84267 z"
       inkscape:randomized="0"
       inkscape:rounded="0"
       inkscape:flatsided="false"
       sodipodi:arg2="0.93931681"
       sodipodi:arg1="0.31099828"
       sodipodi:r2="12.859744"
       sodipodi:r1="25.719488"
       sodipodi:cy="419.76809"
       sodipodi:cx="44.305912"
       sodipodi:sides="5"
       id="path4138eg"
       style="opacity:0.28999999;fill:#00ffff;stroke:#800080;stroke-width:0.3060711"
       sodipodi:type="star" />
    <g
       id="BiggoEGbg"
       transform="translate(-109.96232,143.76849)">
      <desc
         id="desc4151">A big creature for LifeFLOW! :)</desc>
      <circle
         r="29.934187"
         cy="259.14496"
         cx="302.39636"
         id="path4137eg"
         style="opacity:0.28999999;fill:#ffff00;stroke:#800080;stroke-width:0.6047619" />
      <circle
         r="7.3308215"
         cy="265.86487"
         cx="307.8945"
         id="path4139eg"
         style="opacity:0.28999999;fill:#ffff00;stroke:#800080;stroke-width:0.6047619" />
      <ellipse
         ry="10.996231"
         rx="3.6654108"
         cy="251.20323"
         cx="292.01105"
         id="path4141eg"
         style="opacity:0.28999999;fill:#0000ff;stroke:#800080;stroke-width:0.6047619" />
      <ellipse
         ry="3.6654108"
         rx="9.7744284"
         cy="253.64687"
         cx="317.66891"
         id="path4143eg"
         style="opacity:0.28999999;fill:#0000ff;stroke:#800080;stroke-width:0.6047619" />
    </g>
    <rect
       style="opacity:0.87000002;fill:url(#linearGradient6507);fill-opacity:1;stroke:#0000ff;stroke-width:0.6047619;stroke-miterlimit:4;stroke-dasharray:none;filter:url(#filter5001)"
       id="MedyEGbg"
       width="40.319515"
       height="23.214266"
       x="42.763119"
       y="486.60684" />
    <g
       id="g6519eg"
       inkscape:label="#MedyEG"
       transform="translate(0,53.355016)">
      <rect
         y="281.74832"
         x="59.868374"
         height="31.766891"
         width="63.533783"
         id="rect6509eg"
         style="opacity:0.87000002;fill:#0000ff;fill-opacity:1;stroke:#0000ff;stroke-width:0.6047619;stroke-miterlimit:4;stroke-dasharray:none" />
      <path
         inkscape:transform-center-y="-0.19571458"
         inkscape:transform-center-x="0.72308977"
         d="m 81.860835,300.07539 -6.160837,-1.4834 -4.714657,4.23419 -0.493011,-6.31769 -5.483865,-3.17547 5.856139,-2.42116 1.325442,-6.19674 4.112304,4.82134 6.303033,-0.65433 -3.314595,5.40091 z"
         inkscape:randomized="0"
         inkscape:rounded="0"
         inkscape:flatsided="false"
         sodipodi:arg2="1.3230568"
         sodipodi:arg1="0.69473828"
         sodipodi:r2="4.7712951"
         sodipodi:r1="9.5425901"
         sodipodi:cy="293.96637"
         sodipodi:cx="74.530014"
         sodipodi:sides="5"
         id="path6511eg"
         style="opacity:0.87000002;fill:#ff8080;fill-opacity:1;stroke:#0000ff;stroke-width:0.6047619;stroke-miterlimit:4;stroke-dasharray:none"
         sodipodi:type="star" />
      <path
         inkscape:transform-center-y="0.22428177"
         inkscape:transform-center-x="0.37755769"
         d="m 108.74051,312.2934 -1.06782,-3.99694 -3.89796,-1.38629 3.47135,-2.25068 0.1139,-4.13556 3.21323,2.60595 3.96835,-1.16963 -1.48546,3.86124 2.33867,3.41269 -4.13129,-0.21956 z"
         inkscape:randomized="0"
         inkscape:rounded="0"
         inkscape:flatsided="false"
         sodipodi:arg2="2.3965104"
         sodipodi:arg1="1.7681919"
         sodipodi:r2="3.115"
         sodipodi:r1="6.23"
         sodipodi:cy="306.18439"
         sodipodi:cx="109.96231"
         sodipodi:sides="5"
         id="path6513eg"
         style="opacity:0.87000002;fill:#ff8080;fill-opacity:1;stroke:#0000ff;stroke-width:0.6047619;stroke-miterlimit:4;stroke-dasharray:none"
         sodipodi:type="star" />
      <path
         inkscape:transform-center-y="-0.16705416"
         inkscape:transform-center-x="0.16705535"
         d="m 92.857067,295.18814 -2.173306,-0.73698 -1.839194,1.3725 0.02933,-2.29468 -1.873674,-1.32505 2.191432,-0.6812 0.6812,-2.19143 1.32505,1.87368 2.294678,-0.0293 -1.372506,1.8392 z"
         inkscape:randomized="0"
         inkscape:rounded="0"
         inkscape:flatsided="false"
         sodipodi:arg2="1.4137167"
         sodipodi:arg1="0.78539816"
         sodipodi:r2="1.727891"
         sodipodi:r1="3.4557824"
         sodipodi:cy="292.74454"
         sodipodi:cx="90.41346"
         sodipodi:sides="5"
         id="path6515eg"
         style="opacity:0.87000002;fill:#ff8080;fill-opacity:1;stroke:#0000ff;stroke-width:0.6047619;stroke-miterlimit:4;stroke-dasharray:none"
         sodipodi:type="star" />
      <path
         inkscape:transform-center-y="-0.1121867"
         inkscape:transform-center-x="-0.63956251"
         d="m 84.736419,309.55335 2.201552,-4.70569 -2.628342,-4.48131 5.155694,0.63966 3.44978,-3.8845 0.984842,5.10102 4.760422,2.08056 -4.547027,2.51294 -0.507677,5.17036 -3.79506,-3.54794 z"
         inkscape:randomized="0"
         inkscape:rounded="0"
         inkscape:flatsided="false"
         sodipodi:arg2="3.0951702"
         sodipodi:arg1="2.4668517"
         sodipodi:r2="3.9116797"
         sodipodi:r1="7.8233595"
         sodipodi:cy="304.66614"
         sodipodi:cx="90.845436"
         sodipodi:sides="5"
         id="path6517eg"
         style="opacity:0.87000002;fill:#ff8080;fill-opacity:1;stroke:#0000ff;stroke-width:0.6047619;stroke-miterlimit:4;stroke-dasharray:none"
         sodipodi:type="star" />
    </g>
    <path
       sodipodi:type="spiral"
       style="fill:#00ffff;fill-rule:evenodd;stroke:#000000;stroke-width:0.6047619px;stroke-linecap:butt;stroke-linejoin:miter;stroke-opacity:1"
       id="eaglynew2"
       sodipodi:cx="73.308212"
       sodipodi:cy="393.74982"
       sodipodi:expansion="1"
       sodipodi:revolution="3"
       sodipodi:radius="41.613129"
       sodipodi:argument="-18.147299"
       sodipodi:t0="0"
       d="m 73.308212,393.74982 c 1.592741,1.3477 -1.030876,2.81189 -2.239973,2.64724 -3.276579,-0.4462 -4.137127,-4.52375 -3.054508,-7.12719 1.936552,-4.65694 7.887895,-5.67954 12.014402,-3.46177 6.055815,3.25466 7.263028,11.296 3.869042,16.90161 -4.52365,7.4714 -14.719492,8.86373 -21.788831,4.27631 -8.896041,-5.77281 -10.473289,-18.15026 -4.683575,-26.67604 7.01212,-10.32587 21.585119,-12.08797 31.563258,-5.09085 11.758893,8.24586 13.705843,25.02253 5.49811,36.45048 -9.476152,13.19401 -28.461631,15.32586 -41.337687,5.90537 -14.630593,-10.70415 -16.947384,-31.90193 -6.312644,-46.2249 11.930572,-16.06821 35.343106,-18.56999 51.112116,-6.71991 17.506588,13.15584 20.193418,38.78494 7.127178,55.99933">
      <desc
         id="desc6528">a new test shape to play with! :)</desc>
    </path>
    <path
       d="m 205.26299,520.81738 c 1.59274,1.34771 -1.03088,2.8119 -2.23998,2.64724 -3.27658,-0.44619 -4.13713,-4.52374 -3.05451,-7.12718 1.93656,-4.65695 7.8879,-5.67955 12.01441,-3.46178 6.05581,3.25466 7.26302,11.296 3.86904,16.90162 -4.52365,7.4714 -14.71949,8.86373 -21.78883,4.27631 -8.89604,-5.77281 -10.47329,-18.15027 -4.68358,-26.67605 7.01212,-10.32586 21.58512,-12.08796 31.56326,-5.09084 11.75889,8.24586 13.70584,25.02252 5.49811,36.45047 -9.47615,13.19402 -28.46163,15.32587 -41.33769,5.90538 -14.63059,-10.70416 -16.94738,-31.90193 -6.31264,-46.2249 11.93057,-16.06821 35.3431,-18.57 51.11211,-6.71991 17.50659,13.15583 20.19342,38.78493 7.12718,55.99933"
       sodipodi:t0="0"
       sodipodi:argument="-18.147299"
       sodipodi:radius="41.613129"
       sodipodi:revolution="3"
       sodipodi:expansion="1"
       sodipodi:cy="520.81738"
       sodipodi:cx="205.26299"
       id="path6530eg"
       style="fill:#800000;fill-rule:evenodd;stroke:#000000;stroke-width:0.6047619px;stroke-linecap:butt;stroke-linejoin:miter;stroke-opacity:1"
       sodipodi:type="spiral">
      <desc
         id="desc6532">a new test shape to play with! :)</desc>
    </path>
  </g>
  <rect
     height="448"
     id="Border"
     style="fill:none;stroke:#800080;stroke-width:0.60342091"
     width="448"
     x="1"
     y="1" />
	 
	 
	 <!-- creatures from original versions! :) -->
	 
			<a style="fill-opacity:0.75" xlink:href="http://life.worldsowisdom.com/flow/"> <rect height="90" id="YellowRect" onmouseout="setAttribute('fill-opacity','0.5')" onmouseover="setAttribute('fill-opacity','1.0')" style="fill:yellow;stroke:#000000" width="90" x="150" y="90"> <desc id="desc3364">A clickable square!</desc>
			<title id="title3362"></title>
			</rect> </a> <a style="fill-opacity:0.75" xlink:href="http://life.worldsowisdom.com/flow/">
			<rect height="90" id="OrangeRect" onmouseout="setAttribute('fill-opacity','0.75')" onmouseover="setAttribute('fill-opacity','1.0')" style="fill:orange;stroke:#000000" width="90" x="60" y="300"> <desc id="desc3364">A clickable square!</desc>
			<title id="title3362"></title>
			</rect> </a>

<path xmlns="http://www.w3.org/2000/svg" xmlns:sodipodi="http://sodipodi.sourceforge.net/DTD/sodipodi-0.dtd" sodipodi:type="spiral" style="fill:#00ffff;fill-rule:evenodd;stroke:#000000;stroke-width:0.6047619px;stroke-linecap:butt;stroke-linejoin:miter;stroke-opacity:1" id="eaglynew" sodipodi:cx="73.308212" sodipodi:cy="393.74982" sodipodi:expansion="1" sodipodi:revolution="3" sodipodi:radius="41.613129" sodipodi:argument="-18.147299" sodipodi:t0="0" d="m 73.308212,393.74982 c 1.592741,1.3477 -1.030876,2.81189 -2.239973,2.64724 -3.276579,-0.4462 -4.137127,-4.52375 -3.054508,-7.12719 1.936552,-4.65694 7.887895,-5.67954 12.014402,-3.46177 6.055815,3.25466 7.263028,11.296 3.869042,16.90161 -4.52365,7.4714 -14.719492,8.86373 -21.788831,4.27631 -8.896041,-5.77281 -10.473289,-18.15026 -4.683575,-26.67604 7.01212,-10.32587 21.585119,-12.08797 31.563258,-5.09085 11.758893,8.24586 13.705843,25.02253 5.49811,36.45048 -9.476152,13.19401 -28.461631,15.32586 -41.337687,5.90537 -14.630593,-10.70415 -16.947384,-31.90193 -6.312644,-46.2249 11.930572,-16.06821 35.343106,-18.56999 51.112116,-6.71991 17.506588,13.15584 20.193418,38.78494 7.127178,55.99933" transform="translate(25, 25 )">
    <desc id="desc36">a new test shape to play with! :)</desc>
  </path><rect xmlns="http://www.w3.org/2000/svg" height="10" id="AvrilNiblet1" onmouseout="setAttribute('fill-opacity','0.5')" onmouseover="setAttribute('fill-opacity','1.0')" style="fill:yellow;stroke:black" width="10" x="225" y="225" transform="translate(25, 25 )">
    <desc id="desc71">Avril's first little niblet! :)</desc>
    <title id="title73"/>
  </rect><path xmlns="http://www.w3.org/2000/svg" fill-opacity="0.43046721000000016" onmousedown="Reverse(PurpleSpiral)" id="PurpleSpiral" d="m 282.09113,269.50729 c 1.52075,1.52076 -1.29967,2.80025 -2.52761,2.52761 -3.32763,-0.73884 -3.86257,-5.00113 -2.5276,-7.58281 2.38796,-4.61803 8.58895,-5.15902 12.63801,-2.5276 5.94217,3.86172 6.4939,12.22544 2.5276,17.69322 -5.28645,7.28768 -15.87921,7.84514 -22.74842,2.52759 -8.6442,-6.69159 -9.20486,-19.54122 -2.5276,-27.80363 8.08706,-10.00688 23.20787,-10.56947 32.85884,-2.52759 11.37333,9.47708 11.93717,26.8774 2.52759,37.91404 -10.86373,12.74223 -30.54887,13.30692 -42.96924,2.52759 -14.11282,-12.24817 -14.67812,-34.22169 -2.52759,-48.02445 13.63105,-15.4846 37.8955,-16.05034 53.07965,-2.52759 16.85728,15.01283 17.42336,41.57006 2.52759,58.13486" xmlns:inkscape="http://www.inkscape.org/namespaces/inkscape" inkscape:tile-cx="185.6451" inkscape:tile-cy="265.9547" inkscape:tile-h="68.00056" inkscape:tile-w="75.106916" inkscape:tile-x0="148.09164" inkscape:tile-y0="231.95443" xmlns:sodipodi="http://sodipodi.sourceforge.net/DTD/sodipodi-0.dtd" sodipodi:argument="-18.064157" sodipodi:cx="182.09113" sodipodi:cy="269.50729" sodipodi:expansion="1" sodipodi:radius="42.894836" sodipodi:revolution="3" sodipodi:t0="0" sodipodi:type="spiral" style="fill:#800080;fill-rule:evenodd;stroke:#000000;stroke-width:0.2081555px;stroke-linecap:butt;stroke-linejoin:miter;stroke-opacity:1" transform="translate(25, 25)"/><image xmlns="http://www.w3.org/2000/svg" id="back3" width="448" height="448" x="1" y="1" xmlns:xlink="http://www.w3.org/1999/xlink" xlink:href="creatures/png/back3.png"/><image xmlns="http://www.w3.org/2000/svg" id="galaxy3" width="294" height="150" x="150" y="100" style="opacity:0.5" onmousedown="tool(eg_newy)" xmlns:xlink="http://www.w3.org/1999/xlink" xlink:href="creatures/png/galaxy3.png" transform="translate(25, 25 )"/><image xmlns="http://www.w3.org/2000/svg" id="galaxy4" width="306" height="150" x="50" y="250" style="opacity:0.25" onmousedown="tool(eg_newy2)" xmlns:xlink="http://www.w3.org/1999/xlink" xlink:href="creatures/png/galaxy4.png" transform="translate(25, 12.5 )"/><image xmlns="http://www.w3.org/2000/svg" id="planet3" width="157" height="150" x="100" y="250" style="opacity:0.5" onmousedown="tool(eg_niblet)" xmlns:xlink="http://www.w3.org/1999/xlink" xlink:href="creatures/png/planet3.png" transform="translate(25, 0.0 )"/><image xmlns="http://www.w3.org/2000/svg" id="planet4" width="150" height="150" x="300" y="150" style="opacity:0.9" onmousedown="tool(eg_medy)" xmlns:xlink="http://www.w3.org/1999/xlink" xlink:href="creatures/png/planet4.png" transform="translate(25, 0.0 )"/><image xmlns="http://www.w3.org/2000/svg" id="satellite3" width="79" height="150" x="200" y="250" onmousedown="tool(satellite3)" xmlns:xlink="http://www.w3.org/1999/xlink" xlink:href="creatures/png/satellite3.png" transform="translate(25, 25 )"/><image xmlns="http://www.w3.org/2000/svg" id="satellite4" width="109" height="75" x="50" y="50" onmousedown="tool(satellite4)" xmlns:xlink="http://www.w3.org/1999/xlink" xlink:href="creatures/png/satellite4.png" transform="translate(25, 25 )"/><image xmlns="http://www.w3.org/2000/svg" id="mediumcreature3" width="38" height="50" x="300" y="175" onmousedown="tool(the_rect)" xmlns:xlink="http://www.w3.org/1999/xlink" xlink:href="creatures/png/mediumcreature3.png" transform="translate( 0.0 , 25 )"/><image xmlns="http://www.w3.org/2000/svg" id="niblet3" width="21" height="32" x="400" y="350" onmousedown="tool(pink_rect)" xmlns:xlink="http://www.w3.org/1999/xlink" xlink:href="creatures/png/niblet3.png" transform="translate( 0.0 , 25 )"/><image xmlns="http://www.w3.org/2000/svg" id="bigbeauty3" width="92" height="110" x="100" y="150" onmousedown="tool(eg_biggo)" xmlns:xlink="http://www.w3.org/1999/xlink" xlink:href="creatures/png/bigbeauty3.png" transform="translate(25, 0.0 )"/><g xmlns="http://www.w3.org/2000/svg" id="Creature-0.2023327583619121" style="fill:#14e780;stroke:#18bdcf" stroke-width="17.124283452361972" opacity="0.7219337703140343" transform="translate(-257716.0625, -257634.53125) rotate(0.006687337280616493 -255607.5625 -259444.1796875)" onmousedown="tool('Creature-0.2023327583619121')" class="creatureClass"><title>Creature-0.2023327583619121</title><desc>moveLifePathCreatureNext("Creature-0.2023327583619121", 1, 1)</desc><path id="Creature-0.2023327583619121-part" d="M 116.71661247321539, 130.57570039097578 Q 85.79060049760483, 336.97485657060514 154.14989429719145, 11.056865089958373 T 126.49398978125767, 41.32775382279034, 99.68731107342819 282.9413977766013, 66.94561131879014 32.444788892455534, 137.85632828760737 71.22014768775728, 125.3421878917855 105.79001321556571 z" stroke-width="39.73902315135604" opacity="0.8869248708083977" class="creaturePartClass"/><path id="Creature-0.2023327583619121-part" d="M 210.19883890662456, 147.62523724839411 Q 217.44538677927443, 32.751186306590434 82.18129618197216, 202.85100742256824 T 36.06528429801727, 60.74380474775959, 180.68409877050445 156.86384632730685, 34.86044723826471 319.171759662267, 32.1946466057543 86.73912230205353, 191.36891544618933 146.35977928174563 z" stroke-width="22.830538295413447" opacity="0.7351608613397592" class="creaturePartClass"/></g><g xmlns="http://www.w3.org/2000/svg" id="Creature-0.6709967827206231" style="fill:#d391a8;stroke:#261afb" stroke-width="37.145819297878006" opacity="0.8596632092502567" transform="translate(-257777, -257777) rotate(0.3432942873025622 -258008.1015625 -256992.2421875)" onmousedown="tool('Creature-0.6709967827206231')" class="creatureClass"><title>Creature-0.6709967827206231</title><desc>moveLifePathCreatureNext("Creature-0.6709967827206231", 1, 1)</desc><path id="Creature-0.6709967827206231-part" d="M 14.462236948643607, 150.5190792614069 Q 83.84238511939739, 404.62863184593914 53.73030513531269, 432.6472478313645 T 52.23380021531702, 307.8997570502261, 95.36167452373377 286.3399319157456, 126.30525186302445 330.2950312731027, 5.189684462461902 67.2915973826313, 110.88524532851987 263.1108826297404 z" stroke-width="5.700357157157754" opacity="0.6894850982494155" class="creaturePartClass"/><path id="Creature-0.6709967827206231-part" d="M 27.186939064636196, 228.0964191099371 Q 91.07490472007532, 423.67167791398083 65.18245857756008, 116.03139688736437 T 13.10650454811376, 397.4514049491102, 42.634704999046946 417.2524499148607, 111.49595317639618 167.25061122087385, 69.81555906638783 237.06552343482568, 99.9564909191154 145.62758912939637 z" stroke-width="15.892859770531267" opacity="0.8526904409850341" class="creaturePartClass"/></g><g xmlns="http://www.w3.org/2000/svg" id="Creature-0.520468033770437" style="fill:#b1eabf;stroke:#84a00d" stroke-width="37.344904329941414" opacity="0.9577410780509357" transform="translate(-257218, -257218) rotate(0.30591660585013547 -257211.0703125 -256685.8125)" onmousedown="tool('Creature-0.520468033770437')" class="creatureClass"><title>Creature-0.520468033770437</title><desc>moveLifePathCreatureNext("Creature-0.520468033770437", 1, 1)</desc><path id="Creature-0.520468033770437-part" d="M 158.31946227200254, 73.15924338188054 Q 151.65485387211345, 137.26388975331702 88.26434279569547, 120.20289582418481 T 132.30715383544845, 242.1975932985212, 155.58850818123534 150.20837497175236, 89.48512265055227 1.8188044765204316, 227.0178052326106 208.4548119779246, 54.53041002671417 90.07663287656955 z" stroke-width="25.388453727609743" opacity="0.39122323516438656" class="creaturePartClass"/><path id="Creature-0.520468033770437-part" d="M 82.99633190175814, 9.986084866553133 Q 45.58961897777675, 134.0626666797675 15.566149576745412, 101.8600516360783 T 166.2547162101386, 75.8655321256012, 217.99862626880542 103.69533203238616, 35.04469120917771 24.004634386996646, 87.55636430601898 227.6247727428301, 6.478986820385148 157.87895252330003 z" stroke-width="4.7078586374302756" opacity="0.943248480456514" class="creaturePartClass"/></g><image xmlns="http://www.w3.org/2000/svg" id="Creature-0.5080494035125722" xmlns:xlink="http://www.w3.org/1999/xlink" xlink:href="creatures/png/star1.png" opacity="0.9158945273545075" transform="translate(256880, 256880) rotate(-0.8657570160259493 258688.078125 255826.2109375)" x="200" y="200" height="200" width="200" onmousedown="tool('Creature-0.5080494035125722')" class="creatureClass"><title>Creature-0.5080494035125722</title><desc>movePsyCreat("Creature-0.5080494035125722", 1, 1)</desc></image><image xmlns="http://www.w3.org/2000/svg" id="Creature-0.5999627483989283" xmlns:xlink="http://www.w3.org/1999/xlink" xlink:href="creatures/png/flower1.png" opacity="0.8459248363030586" transform="translate(256191, 256191) rotate(0.3143971846234752 259637.9453125 253422.5234375)" x="200" y="200" height="200" width="200" onmousedown="tool('Creature-0.5999627483989283')" class="creatureClass"><title>Creature-0.5999627483989283</title><desc>movePsyCreat("Creature-0.5999627483989283", 1, 1)</desc></image><image xmlns="http://www.w3.org/2000/svg" id="Creature-0.401669601422995" xmlns:xlink="http://www.w3.org/1999/xlink" xlink:href="creatures/png/flower1.png" opacity="0.8893741969154908" transform="translate(255684, 255684) rotate(0.8206780078531852 254745.2421875 257300.6171875)" x="200" y="200" height="200" width="200" onmousedown="tool('Creature-0.401669601422995')" class="creatureClass"><title>Creature-0.401669601422995</title><desc>movePsyCreat("Creature-0.401669601422995", 1, 1)</desc></image><image xmlns="http://www.w3.org/2000/svg" id="Creature-0.6039697150880814" xmlns:xlink="http://www.w3.org/1999/xlink" xlink:href="creatures/png/flower1.png" opacity="0.8005515162206776" transform="translate(240006, 240006) rotate(0.6109002783002717 241470.3671875 239211.2734375)" x="200" y="200" height="200" width="200" onmousedown="tool('Creature-0.6039697150880814')" class="creatureClass"><title>Creature-0.6039697150880814</title><desc>movePsyCreat("Creature-0.6039697150880814", 1, 1)</desc></image><g xmlns="http://www.w3.org/2000/svg" id="Creature-0.9938685479706946" style="fill:#32dabc;stroke:#c4d529" stroke-width="15.525497655916434" opacity="0.8676659448770201" transform="translate(-239746, -239746) rotate(-0.3335245137053464 -240208.7421875 -238916.4609375)" onmousedown="tool('Creature-0.9938685479706946')" class="creatureClass"><title>Creature-0.9938685479706946</title><desc>moveLifePathCreatureNext("Creature-0.9938685479706946", 1, 1)</desc><path id="Creature-0.9938685479706946-part" d="M 8.775321287706907, 150.4598889163915 Q 9.678095610296841, 23.144618343074708 1.0656206068403296, 113.6737486062687 T 2.5309576302868977, 288.58548873667473, 9.360842177360029 152.45139438470235, 0.1992788960806292 42.67626638681894, 5.425352437373321 103.48418207301565, 1.1270888252900342 246.63409364825534 z" stroke-width="12.41001396675494" opacity="0.4817653853934465" class="creaturePartClass"/><path id="Creature-0.9938685479706946-part" d="M 2.8268485329762565, 90.48128432525114 Q 8.940582607697035, 149.5955955705291 9.71455702423741, 91.25981833074816 T 9.253939708477144, 43.769289651700255, 5.105005973920322 154.93023014557616, 8.608584121396946 102.5204885114767, 2.60891037273944 229.49748808966734, 8.344015700847008 211.0675150538443 z" stroke-width="15.244699406719171" opacity="0.9226179030420735" class="creaturePartClass"/></g><g xmlns="http://www.w3.org/2000/svg" id="Creature-0.5519753382758654" style="fill:#912e94;stroke:#e4b367" stroke-width="22.87933817071692" opacity="0.4860988398143767" transform="translate(-239525, -239525) rotate(0.056283798093519355 -237535.265625 -241077.5625)" onmousedown="tool('Creature-0.5519753382758654')" class="creatureClass"><title>Creature-0.5519753382758654</title><desc>moveLifePathCreatureNext("Creature-0.5519753382758654", 1, 1)</desc><path id="Creature-0.5519753382758654-part" d="M 252.53534436287666, 215.66281960314225 Q 145.58856722760615, 154.16996666880848 115.35879213668674, 50.80624549011221 T 49.45765055180131, 172.41181350425643, 117.54791654244194 199.8758994357499, 83.71524257793325 64.27334727261321, 120.59744016578878 123.20218527866373, 253.9003819291721 93.33491724843553 z" stroke-width="27.49539456460546" opacity="0.9431606658372794" class="creaturePartClass"/><path id="Creature-0.5519753382758654-part" d="M 199.65753668994165, 169.02727331594713 Q 97.13652033075566, 151.34613339268978 154.92707553571356, 360.29513701879114 T 59.26438946234237, 93.18054624621045, 52.771547844919596 237.1582824305277, 220.41174581133942 7.541455997542252, 89.49062458110862 178.2563110896014, 20.379565514731304 135.76868826419894 z" stroke-width="23.36642408435633" opacity="0.6950505461255827" class="creaturePartClass"/></g><path xmlns="http://www.w3.org/2000/svg" id="Creature-0.7865030658520331" d="M NaN, NaN Q NaN, NaN NaN, NaN T NaN, NaN, NaN NaN, NaN NaN, NaN NaN, NaN NaN z" style="fill:#831166;stroke:#ef6cd2" stroke-width="NaN" opacity="0.9337911631789754" transform="translate(-239304, -239304) rotate(0.05398259897875013 -237985.6875 -240468.09375)" onmousedown="tool('Creature-0.7865030658520331')" class="creatureClass"><title>Creature-0.7865030658520331</title><desc>moveLifePathCreatureNext("Creature-0.7865030658520331", 1, 1)</desc></path><path xmlns="http://www.w3.org/2000/svg" id="Creature-0.525938708056813" d="M 121.66854882551678, 2.4252417723360598 Q 82.06875375233571, 3.6582671762508565 79.22330129629859, 9.364098252520014 T 95.8994117888524, 8.550776899167069, 103.76063559533513 10.062026539469226, 102.77432910130852 2.137835690567342, 121.330264306844 2.7501570873462184, 38.63436896470231 8.160311402550809 z" style="fill:#31c671;stroke:#df4d2e" stroke-width="0.08590326189300557" opacity="0.971478062311617" transform="translate(-238628, -238628) rotate(-0.42468320531889847 -240315.3046875 -236698.578125)" onmousedown="tool('Creature-0.525938708056813')" class="creatureClass"><title>Creature-0.525938708056813</title><desc>moveLifePathCreatureNext("Creature-0.525938708056813", 1, 1)</desc></path><path xmlns="http://www.w3.org/2000/svg" id="Creature-0.04703742593712068" d="M 21.851133566295964, 6.3854960380126045 Q 2.0788877318965056, 9.704573951356599 61.653304372488776, 12.00730485852428 T 57.6472676199448, 0.8434836032702521, 28.46938843175728 0.9461162822049256, 22.96269918017368 12.811258563105321, 59.647465383532634 9.272113467674851, 22.516476741543897 7.710799329507387 z" style="fill:#3af4fd;stroke:#cf0e17" stroke-width="1.9815698039837248" opacity="0.8996932813518738" transform="translate(-238446, -238446) rotate(-0.11608003033594128 -238565.46875 -238115.9140625)" onmousedown="tool('Creature-0.04703742593712068')" class="creatureClass"><title>Creature-0.04703742593712068</title><desc>moveLifePathCreatureNext("Creature-0.04703742593712068", 1, 1)</desc></path><path xmlns="http://www.w3.org/2000/svg" id="Creature-0.536115348714421" d="M 71.1564351727231, 14.735581709373255 Q 78.21445998490793, 8.247918139905964 113.67935444838085, 16.243197593216344 T 65.86666423074612, 11.192371916872586, 108.75206198448838 17.487368711488852, 164.03406643150495 7.720236970202254, 38.16449660292989 17.464399816451266, 153.17583907180912 5.4515676409245915 z" style="fill:#8d7318;stroke:#95f428" stroke-width="0.39315838281135873" opacity="0.834337460252061" transform="translate(-238381, -238381) rotate(0.38243644775134866 -239915.171875 -236579.375)" onmousedown="tool('Creature-0.536115348714421')" class="creatureClass"><title>Creature-0.536115348714421</title><desc>moveLifePathCreatureNext("Creature-0.536115348714421", 1, 1)</desc></path><path xmlns="http://www.w3.org/2000/svg" id="Creature-0.04706333800053519" d="M 153.6030536578525, 6.12389684097582 Q 125.89864206715222, 1.3432051021173599 177.71179529724418, 7.242211534442936 T 4.923862635457814, 6.105896377017295, 7.258910651197046 4.3513366808720955, 198.43998336263974 1.4553154893339526, 124.99357997799544 6.659198675060148, 110.44855042449977 6.726595165741072 z" style="fill:#9279c7;stroke:#7fe6fc" stroke-width="0.7635301134369565" opacity="0.45948156527627176" transform="translate(-238316, -238316) rotate(-0.0957889768189697 -238688.5859375 -237775.7265625)" onmousedown="tool('Creature-0.04706333800053519')" class="creatureClass"><title>Creature-0.04706333800053519</title><desc>moveLifePathCreatureNext("Creature-0.04706333800053519", 1, 1)</desc></path><path xmlns="http://www.w3.org/2000/svg" id="Creature-0.06199143372066773" d="M 103.84328809307172, 8.186256601002265 Q 77.81954201932281, 10.1854092634463 33.226356882308146, 11.983872095899482 T 33.497584469674415, 1.5539216381891712, 63.04831596293762 0.27832775749732475, 65.74326469742174 1.862456500574276, 102.57550559716553 3.884260260541253, 56.09222137004205 6.715372054089229 z" style="fill:#a51220;stroke:#9e1194" stroke-width="0.9450951873556068" opacity="0.9564846672812225" transform="translate(-238251, -238251) rotate(0.38375334270673545 -236205.1953125 -240121.3359375)" onmousedown="tool('Creature-0.06199143372066773')" class="creatureClass"><title>Creature-0.06199143372066773</title><desc>moveLifePathCreatureNext("Creature-0.06199143372066773", 1, 1)</desc></path><path xmlns="http://www.w3.org/2000/svg" id="Creature-0.6843882202912455" d="M 21.265681131845458, 9.300337387425401 Q 16.093915269577792, 15.937299785270298 10.467796968803771, 7.573153049393407 T 12.21011570720668, 17.11335946669345, 2.149900497823062 7.470984389541026, 10.691509093824344 9.581246063129568, 21.664022369958765 15.449275516810198, 20.999279375771646 11.818891692459426 z" style="fill:#84637a;stroke:#b86153" stroke-width="0.6998135383168487" opacity="0.9801366569920713" transform="translate(-238160, -238160) rotate(-0.12635196856184727 -237506.640625 -238640.484375)" onmousedown="tool('Creature-0.6843882202912455')" class="creatureClass"><title>Creature-0.6843882202912455</title><desc>moveLifePathCreatureNext("Creature-0.6843882202912455", 1, 1)</desc></path><path xmlns="http://www.w3.org/2000/svg" id="Creature-0.5927527567497699" d="M 183.14556653386927, 10.930710973948093 Q 73.71128066153975, 17.494934138064757 9.826962775179831, 14.880906910384784 T 12.138027388242778, 4.651355236145912, 14.606495522239369 10.129677926552457, 66.60259946923905 12.462441479990845, 100.52395919665057 0.8875004831888962, 9.345439260355855 4.890808511874094 z" style="fill:#19ec8;stroke:#1cea17" stroke-width="0.937543819458881" opacity="0.8824905025289103" transform="translate(-238095, -238095) rotate(-0.273595901881595 -236550.8359375 -239437.59375)" onmousedown="tool('Creature-0.5927527567497699')" class="creatureClass"><title>Creature-0.5927527567497699</title><desc>moveLifePathCreatureNext("Creature-0.5927527567497699", 1, 1)</desc></path><path xmlns="http://www.w3.org/2000/svg" id="Creature-0.14446071791883286" d="M 35.714622549079955, 0.8695735865535478 Q 7.41019144420243, 5.182353893445044 4.454661818062061, 2.4585482445978126 T 22.074290563262227, 0.775992867523204, 29.320224614290826 0.6976922898716584, 63.63507657721193 4.8772146035700175, 71.28909307021365 0.2378766292100234, 40.3686286489704 5.775719251955812 z" style="fill:#dde086;stroke:#ab6622" stroke-width="6.966032600385532" opacity="0.7190735266775354" transform="translate(-237991, -237991) rotate(0.277606865159171 -239549.0625 -236260.453125)" onmousedown="tool('Creature-0.14446071791883286')" class="creatureClass"><title>Creature-0.14446071791883286</title><desc>moveLifePathCreatureNext("Creature-0.14446071791883286", 1, 1)</desc></path><line xmlns="http://www.w3.org/2000/svg" id="Creature-0.5158195835572257" x1="203.511915802147" x2="174.3632787499807" y1="60.89143453046366" y2="47.45221227234272" style="fill:orange;stroke:pink" stroke-width="19.827083623737618" transform="translate(0,0)" onmousedown="tool('Creature-0.5158195835572257')" class="creatureClass"><title>Creature-0.5158195835572257</title><desc>moveStaticCreature("Creature-0.5158195835572257", 1, 1)</desc></line><line xmlns="http://www.w3.org/2000/svg" id="Creature-0.09007800516016573" x1="377.55554509753966" x2="349.2401572739312" y1="360.8664931343557" y2="357.556658500182" style="fill:orange;stroke:pink" stroke-width="11.52162280932101" transform="translate(0,0)" onmousedown="tool('Creature-0.09007800516016573')" class="creatureClass"><title>Creature-0.09007800516016573</title><desc>moveStaticCreature("Creature-0.09007800516016573", 1, 1)</desc></line><line xmlns="http://www.w3.org/2000/svg" id="Creature-0.5319369976606625" x1="189.08880512159942" x2="173.4578080049862" y1="138.62035117976347" y2="94.95649302741327" style="fill:orange;stroke:pink" stroke-width="13.036993531579085" transform="translate(0,0)" onmousedown="tool('Creature-0.5319369976606625')" class="creatureClass"><title>Creature-0.5319369976606625</title><desc>moveStaticCreature("Creature-0.5319369976606625", 1, 1)</desc></line><circle xmlns="http://www.w3.org/2000/svg" id="Creature-0.3431618105082135" r="20" cx="268.22686138937553" cy="23.771414837700245" style="fill:blue;stroke:purple" transform="translate(NaN, NaN)" onmousedown="deleteCreature('Creature-0.3431618105082135')" class="creatureClass"><title>Creature-0.3431618105082135</title><desc>moveSmoothyCreature("Creature-0.3431618105082135", 1, 1)</desc></circle><rect xmlns="http://www.w3.org/2000/svg" id="Creature-0.4913418297127323" x="440.2074264235261" y="216.49398997337062" width="14.61353132797489" height="4.379574128261083" style="fill:pink;stroke:yellow" transform="translate(2.5091364219658896, 20.867406704227353)" onmousedown="tool('Creature-0.4913418297127323')" class="creatureClass"><title>Creature-0.4913418297127323</title><desc>document.getElementById("Creature-0.4913418297127323").setAttribute("transform", "translate("+33*Math.random()+", "+50*Math.random()+")");</desc></rect><rect xmlns="http://www.w3.org/2000/svg" id="Creature-0.892298725721467" x="0" y="0" width="44.16206343775143" height="4.09525126532472" style="fill:yellow;stroke:black" transform="translate(NaN, NaN) rotate(601.6030200710604)" onmousedown="tool('Creature-0.892298725721467')" class="creatureClass"><title>Creature-0.892298725721467</title><desc>moveCoolCreature("Creature-0.892298725721467", 1, 1)</desc></rect><rect xmlns="http://www.w3.org/2000/svg" id="Creature-0.25452212423045695" x="88.99313863390753" y="116.61643078891512" width="7.471779982907503" height="29.650540021036562" style="fill:brown;stroke:white" transform="translate(NaN, NaN), rotate(NaN)" onmousedown="tool('Creature-0.25452212423045695')" class="creatureClass"><title>Creature-0.25452212423045695</title><desc>moveCreature("Creature-0.25452212423045695", -120, -30)</desc></rect><path xmlns="http://www.w3.org/2000/svg" id="Creature-0.7695184346496651" d="M 209.945689566752 344.7636392936605, 129.35138151953828 298.9388830599301, 220.83744980843076 126.93828073119981, 357.60648896708756 86.11453427852837, 286.55801431259164 189.2400055599586, 271.88851951859283 258.52073029286726, 162.72309297713855 320.97940752619047 z" style="fill:black;stroke:yellow" stroke-width="1.4327039339628467" transform="translate(-236288, -236288) rotate(0.06156027416441212 -237862.2421875 -234097.0703125)" onmousedown="tool('Creature-0.7695184346496651')" class="creatureClass"><title>Creature-0.7695184346496651</title><desc>moveLifePathCreature("Creature-0.7695184346496651", 1, 1)</desc></path><rect xmlns="http://www.w3.org/2000/svg" id="Creature-0.2402999881113992" x="400.18528366536117" y="237.5150674850349" width="59.200572921238255" height="19.565853942382052" style="fill:brown;stroke:white" transform="translate(NaN, NaN), rotate(NaN)" onmousedown="tool('Creature-0.2402999881113992')" class="creatureClass"><title>Creature-0.2402999881113992</title><desc>moveCreature("Creature-0.2402999881113992", -120, -30)</desc></rect><line xmlns="http://www.w3.org/2000/svg" id="Creature-0.29937527353539384" x1="272.42684217326706" x2="271.2393998508147" y1="310.46026861518783" y2="262.2531761472875" style="fill:orange;stroke:pink" stroke-width="1.9901437912468767" transform="translate(-235807, -235807) rotate(-0.16251731373096212 -236840.4453125 -234049.703125)" onmousedown="tool('Creature-0.29937527353539384')" class="creatureClass"><title>Creature-0.29937527353539384</title><desc>moveSpikyCreature("Creature-0.29937527353539384", 1, 1)</desc></line><path xmlns="http://www.w3.org/2000/svg" id="Creature-0.2129187771917449" d="M NaN, NaN Q NaN, NaN NaN, NaN T NaN, NaN, NaN NaN, NaN NaN, NaN NaN, NaN NaN z" style="fill:#d5a1e;stroke:#8d9f5e" stroke-width="NaN" opacity="0.9153531607121524" transform="translate(-235560, -235560) rotate(0.3755520328011843 -237367.875 -233594.109375)" onmousedown="tool('Creature-0.2129187771917449')" class="creatureClass"><title>Creature-0.2129187771917449</title><desc>moveLifePathCreatureNext("Creature-0.2129187771917449", 1, 1)</desc></path><g xmlns="http://www.w3.org/2000/svg" id="Creature-0.9917875308230519" style="fill:#f98807;stroke:#493137" stroke-width="38.132861774849246" opacity="0.90545402982998" transform="translate(-235391, -235391) rotate(-0.16276801037267896 -234914.640625 -235354.375)" onmousedown="tool('Creature-0.9917875308230519')" class="creatureClass"><title>Creature-0.9917875308230519</title><desc>moveLifePathCreatureNext("Creature-0.9917875308230519", 1, 1)</desc><path id="Creature-0.9917875308230519-part" d="M 139.23056854054832, 517.8243797486256 Q 224.0593837748186, 104.15529131324026 207.44334701626113, 287.2521160929725 T 170.38246278616515, 489.3346686519621, 95.90575476771083 471.2685042845458, 35.49005606110084 214.8372118296218, 133.42685806853444 154.96125251443334, 10.621432765826704 84.59587515063951 z" stroke-width="29.679077346552862" opacity="0.8406361126368296" class="creaturePartClass"/><path id="Creature-0.9917875308230519-part" d="M 141.0318521980752, 334.1955411955759 Q 30.4822203873768, 356.3863731379169 30.02245072580303, 300.66044249504483 T 186.91955308535523, 79.65785793670726, 177.89754477196382 198.60528332317864, 164.91221322399218 355.2897300271402, 134.04590952821346 83.4711423802859, 68.4833394672487 506.7206748591361 z" stroke-width="12.864319587357071" opacity="0.7665987993047482" class="creaturePartClass"/></g><image xmlns="http://www.w3.org/2000/svg" id="Creature-0.5632691844681825" xmlns:xlink="http://www.w3.org/1999/xlink" xlink:href="creatures/png/flower1.png" opacity="0.9466278390531983" transform="translate(235209, 235209) rotate(0.932173391971789 238189.984375 233036.4140625)" x="200" y="200" height="200" width="200" onmousedown="tool('Creature-0.5632691844681825')" class="creatureClass"><title>Creature-0.5632691844681825</title><desc>movePsyCreat("Creature-0.5632691844681825", 1, 1)</desc></image><image xmlns="http://www.w3.org/2000/svg" id="Creature-0.6336939077780077" xmlns:xlink="http://www.w3.org/1999/xlink" xlink:href="creatures/png/flower1.png" opacity="0.9055543273730451" transform="translate(235066, 235066) rotate(-0.3567811715824756 233652.09375 237138.3671875)" x="200" y="200" height="200" width="200" onmousedown="tool('Creature-0.6336939077780077')" class="creatureClass"><title>Creature-0.6336939077780077</title><desc>movePsyCreat("Creature-0.6336939077780077", 1, 1)</desc></image><image xmlns="http://www.w3.org/2000/svg" id="Creature-0.40771604254547045" xmlns:xlink="http://www.w3.org/1999/xlink" xlink:href="creatures/png/flower1.png" opacity="0.6554604249657627" transform="translate(234923, 234923) rotate(-0.7746288186110477 235216.90625 235329.15625)" x="200" y="200" height="200" width="200" onmousedown="tool('Creature-0.40771604254547045')" class="creatureClass"><title>Creature-0.40771604254547045</title><desc>movePsyCreat("Creature-0.40771604254547045", 1, 1)</desc></image></svg>