<?xml version="1.0" encoding="UTF-8" standalone="no"?>
<!-- Created with LifeFLOW (http://life.worldsowisdom.com/flow/) -->

<svg
   xmlns:osb="http://www.openswatchbook.org/uri/2009/osb"
   xmlns:dc="http://purl.org/dc/elements/1.1/"
   xmlns:cc="http://creativecommons.org/ns#"
   xmlns:rdf="http://www.w3.org/1999/02/22-rdf-syntax-ns#"
   xmlns:svg="http://www.w3.org/2000/svg"
   xmlns="http://www.w3.org/2000/svg"
   xmlns:xlink="http://www.w3.org/1999/xlink"
   xmlns:sodipodi="http://sodipodi.sourceforge.net/DTD/sodipodi-0.dtd"
   xmlns:inkscape="http://www.inkscape.org/namespaces/inkscape"
   width="450"
   height="450"
   viewBox="0 0 450 450"
   id="svg2"
   version="1.1"
   inkscape:version="0.91 r13725"
   sodipodi:docname="newcreatures-plain.svg">
  <defs
     id="defs4">
    <linearGradient
       inkscape:collect="always"
       id="linearGradient6501">
      <stop
         style="stop-color:#0000ff;stop-opacity:1;"
         offset="0"
         id="stop6503" />
      <stop
         style="stop-color:#0000ff;stop-opacity:0;"
         offset="1"
         id="stop6505" />
    </linearGradient>
    <linearGradient
       id="linearGradient6455"
       osb:paint="solid">
      <stop
         style="stop-color:#0000ff;stop-opacity:1;"
         offset="0"
         id="stop6457" />
    </linearGradient>
    <filter
       inkscape:collect="always"
       style="color-interpolation-filters:sRGB"
       id="filter5001"
       x="-0.37912726"
       width="1.7582545"
       y="-0.65848422"
       height="2.3169684">
      <feGaussianBlur
         inkscape:collect="always"
         stdDeviation="6.3692616"
         id="feGaussianBlur5003" />
    </filter>
    <linearGradient
       inkscape:collect="always"
       xlink:href="#linearGradient6501"
       id="linearGradient6507"
       x1="242.51431"
       y1="178.50594"
       x2="313.40628"
       y2="178.50594"
       gradientUnits="userSpaceOnUse"
       gradientTransform="translate(-215.03742,319.7082)" />
  </defs>
  <sodipodi:namedview
     id="base"
     pagecolor="#ffffff"
     bordercolor="#666666"
     borderopacity="1.0"
     inkscape:pageopacity="0.0"
     inkscape:pageshadow="2"
     inkscape:zoom="0.24748738"
     inkscape:cx="463.57331"
     inkscape:cy="265.90363"
     inkscape:document-units="px"
     inkscape:current-layer="layer1"
     showgrid="false"
     inkscape:window-width="1366"
     inkscape:window-height="706"
     inkscape:window-x="-8"
     inkscape:window-y="-8"
     inkscape:window-maximized="1"
     units="px" />
  <metadata
     id="metadata7">
    <rdf:RDF>
      <cc:Work
         rdf:about="">
        <dc:format>image/svg+xml</dc:format>
        <dc:type
           rdf:resource="http://purl.org/dc/dcmitype/StillImage" />
        <dc:title></dc:title>
      </cc:Work>
    </rdf:RDF>
  </metadata>
  <g
     inkscape:label="Layer 1"
     inkscape:groupmode="layer"
     id="layer1"
     transform="translate(0,-364.28567)">
    <path
       sodipodi:type="star"
       style="opacity:0.28999999;fill:#00ffff;stroke:#800080"
       id="path4136eg"
       sodipodi:sides="5"
       sodipodi:cx="149.96248"
       sodipodi:cy="470.92843"
       sodipodi:r1="84.03109"
       sodipodi:r2="42.015545"
       sodipodi:arg1="0.31099828"
       sodipodi:arg2="0.93931681"
       inkscape:flatsided="false"
       inkscape:rounded="0"
       inkscape:randomized="0"
       d="m 229.96248,496.64272 -55.19656,8.19877 -24.53782,50.11762 -24.85417,-49.96149 -55.247286,-7.84966 39.835836,-39.07667 -9.60688,-54.96897 49.47407,25.81078 49.30991,-26.12303 -9.25918,55.0286 z"
       inkscape:transform-center-x="-0.082081267"
       inkscape:transform-center-y="7.9461513" />
    <path
       inkscape:transform-center-y="2.4320959"
       inkscape:transform-center-x="-0.025122895"
       d="m 68.791599,427.6385 -16.894071,2.5094 -7.510317,15.33956 -7.607143,-15.29177 -16.909598,-2.40255 12.192598,-11.96024 -2.940388,-16.82442 15.142583,7.89994 15.092337,-7.99551 -2.833967,16.84267 z"
       inkscape:randomized="0"
       inkscape:rounded="0"
       inkscape:flatsided="false"
       sodipodi:arg2="0.93931681"
       sodipodi:arg1="0.31099828"
       sodipodi:r2="12.859744"
       sodipodi:r1="25.719488"
       sodipodi:cy="419.76809"
       sodipodi:cx="44.305912"
       sodipodi:sides="5"
       id="path4138eg"
       style="opacity:0.28999999;fill:#00ffff;stroke:#800080;stroke-width:0.3060711"
       sodipodi:type="star" />
    <g
       id="BiggoEGbg"
       transform="translate(-109.96232,143.76849)">
      <desc
         id="desc4151">A big creature for LifeFLOW! :)</desc>
      <circle
         r="29.934187"
         cy="259.14496"
         cx="302.39636"
         id="path4137eg"
         style="opacity:0.28999999;fill:#ffff00;stroke:#800080;stroke-width:0.6047619" />
      <circle
         r="7.3308215"
         cy="265.86487"
         cx="307.8945"
         id="path4139eg"
         style="opacity:0.28999999;fill:#ffff00;stroke:#800080;stroke-width:0.6047619" />
      <ellipse
         ry="10.996231"
         rx="3.6654108"
         cy="251.20323"
         cx="292.01105"
         id="path4141eg"
         style="opacity:0.28999999;fill:#0000ff;stroke:#800080;stroke-width:0.6047619" />
      <ellipse
         ry="3.6654108"
         rx="9.7744284"
         cy="253.64687"
         cx="317.66891"
         id="path4143eg"
         style="opacity:0.28999999;fill:#0000ff;stroke:#800080;stroke-width:0.6047619" />
    </g>
    <rect
       style="opacity:0.87000002;fill:url(#linearGradient6507);fill-opacity:1;stroke:#0000ff;stroke-width:0.6047619;stroke-miterlimit:4;stroke-dasharray:none;filter:url(#filter5001)"
       id="MedyEGbg"
       width="40.319515"
       height="23.214266"
       x="42.763119"
       y="486.60684" />
    <g
       id="g6519eg"
       inkscape:label="#MedyEG"
       transform="translate(0,53.355016)">
      <rect
         y="281.74832"
         x="59.868374"
         height="31.766891"
         width="63.533783"
         id="rect6509eg"
         style="opacity:0.87000002;fill:#0000ff;fill-opacity:1;stroke:#0000ff;stroke-width:0.6047619;stroke-miterlimit:4;stroke-dasharray:none" />
      <path
         inkscape:transform-center-y="-0.19571458"
         inkscape:transform-center-x="0.72308977"
         d="m 81.860835,300.07539 -6.160837,-1.4834 -4.714657,4.23419 -0.493011,-6.31769 -5.483865,-3.17547 5.856139,-2.42116 1.325442,-6.19674 4.112304,4.82134 6.303033,-0.65433 -3.314595,5.40091 z"
         inkscape:randomized="0"
         inkscape:rounded="0"
         inkscape:flatsided="false"
         sodipodi:arg2="1.3230568"
         sodipodi:arg1="0.69473828"
         sodipodi:r2="4.7712951"
         sodipodi:r1="9.5425901"
         sodipodi:cy="293.96637"
         sodipodi:cx="74.530014"
         sodipodi:sides="5"
         id="path6511eg"
         style="opacity:0.87000002;fill:#ff8080;fill-opacity:1;stroke:#0000ff;stroke-width:0.6047619;stroke-miterlimit:4;stroke-dasharray:none"
         sodipodi:type="star" />
      <path
         inkscape:transform-center-y="0.22428177"
         inkscape:transform-center-x="0.37755769"
         d="m 108.74051,312.2934 -1.06782,-3.99694 -3.89796,-1.38629 3.47135,-2.25068 0.1139,-4.13556 3.21323,2.60595 3.96835,-1.16963 -1.48546,3.86124 2.33867,3.41269 -4.13129,-0.21956 z"
         inkscape:randomized="0"
         inkscape:rounded="0"
         inkscape:flatsided="false"
         sodipodi:arg2="2.3965104"
         sodipodi:arg1="1.7681919"
         sodipodi:r2="3.115"
         sodipodi:r1="6.23"
         sodipodi:cy="306.18439"
         sodipodi:cx="109.96231"
         sodipodi:sides="5"
         id="path6513eg"
         style="opacity:0.87000002;fill:#ff8080;fill-opacity:1;stroke:#0000ff;stroke-width:0.6047619;stroke-miterlimit:4;stroke-dasharray:none"
         sodipodi:type="star" />
      <path
         inkscape:transform-center-y="-0.16705416"
         inkscape:transform-center-x="0.16705535"
         d="m 92.857067,295.18814 -2.173306,-0.73698 -1.839194,1.3725 0.02933,-2.29468 -1.873674,-1.32505 2.191432,-0.6812 0.6812,-2.19143 1.32505,1.87368 2.294678,-0.0293 -1.372506,1.8392 z"
         inkscape:randomized="0"
         inkscape:rounded="0"
         inkscape:flatsided="false"
         sodipodi:arg2="1.4137167"
         sodipodi:arg1="0.78539816"
         sodipodi:r2="1.727891"
         sodipodi:r1="3.4557824"
         sodipodi:cy="292.74454"
         sodipodi:cx="90.41346"
         sodipodi:sides="5"
         id="path6515eg"
         style="opacity:0.87000002;fill:#ff8080;fill-opacity:1;stroke:#0000ff;stroke-width:0.6047619;stroke-miterlimit:4;stroke-dasharray:none"
         sodipodi:type="star" />
      <path
         inkscape:transform-center-y="-0.1121867"
         inkscape:transform-center-x="-0.63956251"
         d="m 84.736419,309.55335 2.201552,-4.70569 -2.628342,-4.48131 5.155694,0.63966 3.44978,-3.8845 0.984842,5.10102 4.760422,2.08056 -4.547027,2.51294 -0.507677,5.17036 -3.79506,-3.54794 z"
         inkscape:randomized="0"
         inkscape:rounded="0"
         inkscape:flatsided="false"
         sodipodi:arg2="3.0951702"
         sodipodi:arg1="2.4668517"
         sodipodi:r2="3.9116797"
         sodipodi:r1="7.8233595"
         sodipodi:cy="304.66614"
         sodipodi:cx="90.845436"
         sodipodi:sides="5"
         id="path6517eg"
         style="opacity:0.87000002;fill:#ff8080;fill-opacity:1;stroke:#0000ff;stroke-width:0.6047619;stroke-miterlimit:4;stroke-dasharray:none"
         sodipodi:type="star" />
    </g>
    <path
       sodipodi:type="spiral"
       style="fill:#00ffff;fill-rule:evenodd;stroke:#000000;stroke-width:0.6047619px;stroke-linecap:butt;stroke-linejoin:miter;stroke-opacity:1"
       id="eaglynew2"
       sodipodi:cx="73.308212"
       sodipodi:cy="393.74982"
       sodipodi:expansion="1"
       sodipodi:revolution="3"
       sodipodi:radius="41.613129"
       sodipodi:argument="-18.147299"
       sodipodi:t0="0"
       d="m 73.308212,393.74982 c 1.592741,1.3477 -1.030876,2.81189 -2.239973,2.64724 -3.276579,-0.4462 -4.137127,-4.52375 -3.054508,-7.12719 1.936552,-4.65694 7.887895,-5.67954 12.014402,-3.46177 6.055815,3.25466 7.263028,11.296 3.869042,16.90161 -4.52365,7.4714 -14.719492,8.86373 -21.788831,4.27631 -8.896041,-5.77281 -10.473289,-18.15026 -4.683575,-26.67604 7.01212,-10.32587 21.585119,-12.08797 31.563258,-5.09085 11.758893,8.24586 13.705843,25.02253 5.49811,36.45048 -9.476152,13.19401 -28.461631,15.32586 -41.337687,5.90537 -14.630593,-10.70415 -16.947384,-31.90193 -6.312644,-46.2249 11.930572,-16.06821 35.343106,-18.56999 51.112116,-6.71991 17.506588,13.15584 20.193418,38.78494 7.127178,55.99933">
      <desc
         id="desc6528">a new test shape to play with! :)</desc>
    </path>
    <path
       d="m 205.26299,520.81738 c 1.59274,1.34771 -1.03088,2.8119 -2.23998,2.64724 -3.27658,-0.44619 -4.13713,-4.52374 -3.05451,-7.12718 1.93656,-4.65695 7.8879,-5.67955 12.01441,-3.46178 6.05581,3.25466 7.26302,11.296 3.86904,16.90162 -4.52365,7.4714 -14.71949,8.86373 -21.78883,4.27631 -8.89604,-5.77281 -10.47329,-18.15027 -4.68358,-26.67605 7.01212,-10.32586 21.58512,-12.08796 31.56326,-5.09084 11.75889,8.24586 13.70584,25.02252 5.49811,36.45047 -9.47615,13.19402 -28.46163,15.32587 -41.33769,5.90538 -14.63059,-10.70416 -16.94738,-31.90193 -6.31264,-46.2249 11.93057,-16.06821 35.3431,-18.57 51.11211,-6.71991 17.50659,13.15583 20.19342,38.78493 7.12718,55.99933"
       sodipodi:t0="0"
       sodipodi:argument="-18.147299"
       sodipodi:radius="41.613129"
       sodipodi:revolution="3"
       sodipodi:expansion="1"
       sodipodi:cy="520.81738"
       sodipodi:cx="205.26299"
       id="path6530eg"
       style="fill:#800000;fill-rule:evenodd;stroke:#000000;stroke-width:0.6047619px;stroke-linecap:butt;stroke-linejoin:miter;stroke-opacity:1"
       sodipodi:type="spiral">
      <desc
         id="desc6532">a new test shape to play with! :)</desc>
    </path>
  </g>
  <rect
     height="448"
     id="Border"
     style="fill:none;stroke:#800080;stroke-width:0.60342091"
     width="448"
     x="1"
     y="1" />
	 
	 
	 <!-- creatures from original versions! :) -->
	 
			<a style="fill-opacity:0.75" xlink:href="http://life.worldsowisdom.com/flow/"> <rect height="90" id="YellowRect" onmouseout="setAttribute('fill-opacity','0.5')" onmouseover="setAttribute('fill-opacity','1.0')" style="fill:yellow;stroke:#000000" width="90" x="150" y="90"> <desc id="desc3364">A clickable square!</desc>
			<title id="title3362"></title>
			</rect> </a> <a style="fill-opacity:0.75" xlink:href="http://life.worldsowisdom.com/flow/">
			<rect height="90" id="OrangeRect" onmouseout="setAttribute('fill-opacity','0.75')" onmouseover="setAttribute('fill-opacity','1.0')" style="fill:orange;stroke:#000000" width="90" x="60" y="300"> <desc id="desc3364">A clickable square!</desc>
			<title id="title3362"></title>
			</rect> </a>

<path xmlns="http://www.w3.org/2000/svg" sodipodi:type="spiral" xmlns:sodipodi="http://sodipodi.sourceforge.net/DTD/sodipodi-0.dtd" style="fill:#00ffff;fill-rule:evenodd;stroke:#000000;stroke-width:0.6047619px;stroke-linecap:butt;stroke-linejoin:miter;stroke-opacity:1" id="eaglynew" sodipodi:cx="73.308212" sodipodi:cy="393.74982" sodipodi:expansion="1" sodipodi:revolution="3" sodipodi:radius="41.613129" sodipodi:argument="-18.147299" sodipodi:t0="0" d="m 73.308212,393.74982 c 1.592741,1.3477 -1.030876,2.81189 -2.239973,2.64724 -3.276579,-0.4462 -4.137127,-4.52375 -3.054508,-7.12719 1.936552,-4.65694 7.887895,-5.67954 12.014402,-3.46177 6.055815,3.25466 7.263028,11.296 3.869042,16.90161 -4.52365,7.4714 -14.719492,8.86373 -21.788831,4.27631 -8.896041,-5.77281 -10.473289,-18.15026 -4.683575,-26.67604 7.01212,-10.32587 21.585119,-12.08797 31.563258,-5.09085 11.758893,8.24586 13.705843,25.02253 5.49811,36.45048 -9.476152,13.19401 -28.461631,15.32586 -41.337687,5.90537 -14.630593,-10.70415 -16.947384,-31.90193 -6.312644,-46.2249 11.930572,-16.06821 35.343106,-18.56999 51.112116,-6.71991 17.506588,13.15584 20.193418,38.78494 7.127178,55.99933" transform="translate(25, 25 )">
    <desc id="desc36">a new test shape to play with! :)</desc>
  </path><rect xmlns="http://www.w3.org/2000/svg" height="10" id="AvrilNiblet1" onmouseout="setAttribute('fill-opacity','0.5')" onmouseover="setAttribute('fill-opacity','1.0')" style="fill:yellow;stroke:black" width="10" x="225" y="225" transform="translate(25, 25 )">
    <desc id="desc71">Avril's first little niblet! :)</desc>
    <title id="title73"/>
  </rect><path xmlns="http://www.w3.org/2000/svg" fill-opacity="0.43046721000000016" onmousedown="Reverse(PurpleSpiral)" id="PurpleSpiral" d="m 282.09113,269.50729 c 1.52075,1.52076 -1.29967,2.80025 -2.52761,2.52761 -3.32763,-0.73884 -3.86257,-5.00113 -2.5276,-7.58281 2.38796,-4.61803 8.58895,-5.15902 12.63801,-2.5276 5.94217,3.86172 6.4939,12.22544 2.5276,17.69322 -5.28645,7.28768 -15.87921,7.84514 -22.74842,2.52759 -8.6442,-6.69159 -9.20486,-19.54122 -2.5276,-27.80363 8.08706,-10.00688 23.20787,-10.56947 32.85884,-2.52759 11.37333,9.47708 11.93717,26.8774 2.52759,37.91404 -10.86373,12.74223 -30.54887,13.30692 -42.96924,2.52759 -14.11282,-12.24817 -14.67812,-34.22169 -2.52759,-48.02445 13.63105,-15.4846 37.8955,-16.05034 53.07965,-2.52759 16.85728,15.01283 17.42336,41.57006 2.52759,58.13486" inkscape:tile-cx="185.6451" xmlns:inkscape="http://www.inkscape.org/namespaces/inkscape" inkscape:tile-cy="265.9547" inkscape:tile-h="68.00056" inkscape:tile-w="75.106916" inkscape:tile-x0="148.09164" inkscape:tile-y0="231.95443" sodipodi:argument="-18.064157" xmlns:sodipodi="http://sodipodi.sourceforge.net/DTD/sodipodi-0.dtd" sodipodi:cx="182.09113" sodipodi:cy="269.50729" sodipodi:expansion="1" sodipodi:radius="42.894836" sodipodi:revolution="3" sodipodi:t0="0" sodipodi:type="spiral" style="fill:#800080;fill-rule:evenodd;stroke:#000000;stroke-width:0.2081555px;stroke-linecap:butt;stroke-linejoin:miter;stroke-opacity:1" transform="translate(25, 25)"/><image xmlns="http://www.w3.org/2000/svg" id="back3" width="448" height="448" x="1" y="1" xlink:href="creatures/png/back3.png" xmlns:xlink="http://www.w3.org/1999/xlink"/><image xmlns="http://www.w3.org/2000/svg" id="galaxy3" width="294" height="150" x="150" y="100" style="opacity:0.5" onmousedown="tool(eg_newy)" xlink:href="creatures/png/galaxy3.png" xmlns:xlink="http://www.w3.org/1999/xlink" transform="translate(25, 25 )"/><image xmlns="http://www.w3.org/2000/svg" id="galaxy4" width="306" height="150" x="50" y="250" style="opacity:0.25" onmousedown="tool(eg_newy2)" xlink:href="creatures/png/galaxy4.png" xmlns:xlink="http://www.w3.org/1999/xlink" transform="translate(25, 12.5 )"/><image xmlns="http://www.w3.org/2000/svg" id="planet3" width="157" height="150" x="100" y="250" style="opacity:0.5" onmousedown="tool(eg_niblet)" xlink:href="creatures/png/planet3.png" xmlns:xlink="http://www.w3.org/1999/xlink" transform="translate(25, 0.0 )"/><image xmlns="http://www.w3.org/2000/svg" id="planet4" width="150" height="150" x="300" y="150" style="opacity:0.9" onmousedown="tool(eg_medy)" xlink:href="creatures/png/planet4.png" xmlns:xlink="http://www.w3.org/1999/xlink" transform="translate(25, 0.0 )"/><image xmlns="http://www.w3.org/2000/svg" id="satellite3" width="79" height="150" x="200" y="250" onmousedown="tool(satellite3)" xlink:href="creatures/png/satellite3.png" xmlns:xlink="http://www.w3.org/1999/xlink" transform="translate(25, 25 )"/><image xmlns="http://www.w3.org/2000/svg" id="satellite4" width="109" height="75" x="50" y="50" onmousedown="tool(satellite4)" xlink:href="creatures/png/satellite4.png" xmlns:xlink="http://www.w3.org/1999/xlink" transform="translate(25, 25 )"/><image xmlns="http://www.w3.org/2000/svg" id="mediumcreature3" width="38" height="50" x="300" y="175" onmousedown="tool(the_rect)" xlink:href="creatures/png/mediumcreature3.png" xmlns:xlink="http://www.w3.org/1999/xlink" transform="translate( 0.0 , 25 )"/><image xmlns="http://www.w3.org/2000/svg" id="niblet3" width="21" height="32" x="400" y="350" onmousedown="tool(pink_rect)" xlink:href="creatures/png/niblet3.png" xmlns:xlink="http://www.w3.org/1999/xlink" transform="translate( 0.0 , 25 )"/><image xmlns="http://www.w3.org/2000/svg" id="bigbeauty3" width="92" height="110" x="100" y="150" onmousedown="tool(eg_biggo)" xlink:href="creatures/png/bigbeauty3.png" xmlns:xlink="http://www.w3.org/1999/xlink" transform="translate(25, 0.0 )"/><path xmlns="http://www.w3.org/2000/svg" id="Creature-0.2465734863381679" d="M 99.8527881628962 119.23859467303467, 153.52869187495554 21.785101845712802, 135.1043380957556 29.147910213848686, 39.854263731027636 21.254056083188072, 72.22635131017951 123.99081861734655, 22.68230464711106 77.56311699984256, 146.90302731640153 11.755546270699664 z" style="fill:black;stroke:yellow" stroke-width="0.5700439515496636" transform="translate(257.5360450785292, 148.87827616170748) rotate(0.40038014292812396 351.6333465576172 316.78331756591797)" onmousedown="tool('Creature-0.2465734863381679')" class="creatureClass"><title>Creature-0.2465734863381679</title><desc>moveLifePathCreature("Creature-0.2465734863381679", 1, 1)</desc></path><path xmlns="http://www.w3.org/2000/svg" id="Creature-0.7316795024183746" d="M 60.76454172752729 110.55860276177945, 26.581880181613986 57.89012819177086, 127.13660966423025 74.97353889231992, 234.08740824153043 72.96175540367601, 112.54103788448732 3.007397965730991, 48.81447226332722 33.12831616077626, 79.87982507195349 85.77472125783417 z" style="fill:black;stroke:yellow" stroke-width="0.44696676066392493" transform="translate(109.9637273564641, 165.95288799541908) rotate(-0.20700594398967895 249.7916717529297 320.63333892822266)" onmousedown="tool('Creature-0.7316795024183746')" class="creatureClass"><title>Creature-0.7316795024183746</title><desc>moveLifePathCreature("Creature-0.7316795024183746", 1, 1)</desc></path><path xmlns="http://www.w3.org/2000/svg" id="Creature-0.8868028164421075" d="M 401.96327019808024 91.15637815339147, 173.39746264342014 356.8614689976349, 417.8285632731457 116.54534542812307, 297.13392833388104 326.1058936249731, 232.69955450969582 305.183621396276, 405.56031216393325 368.527155381024, 361.4380514409766 329.0367693354254 z" style="fill:black;stroke:yellow" stroke-width="14.554883571787238" transform="translate(-142.11203360021807, -106.08903969659731) rotate(0.2356983667093766 161.7583465576172 224.69168090820312)" onmousedown="tool('Creature-0.8868028164421075')" class="creatureClass"><title>Creature-0.8868028164421075</title><desc>moveLifePathCreature("Creature-0.8868028164421075", 1, 1)</desc></path><path xmlns="http://www.w3.org/2000/svg" id="Creature-0.8383141532105066" d="M 33.375021569709126 149.3999711521525, 241.91008875146508 48.64406890940888, 185.57698898876694 297.1812451896559, 151.50384245846885 271.51661923397415, 20.238375886383903 102.76361086889388, 224.43492136805344 188.04951807745175, 129.54099309090273 289.92884633520094 z" style="fill:black;stroke:yellow" stroke-width="4.20070041283693" transform="translate(-11.594332366600506, -39.02864403852057) rotate(0.13767701137920055 130.81666564941406 233.93333435058594)" onmousedown="tool('Creature-0.8383141532105066')" class="creatureClass"><title>Creature-0.8383141532105066</title><desc>moveLifePathCreature("Creature-0.8383141532105066", 1, 1)</desc></path><path xmlns="http://www.w3.org/2000/svg" id="Creature-0.7930290874264125" d="M 6.07853568452786 10.870328373115946, 5.02759083731861 20.5186580268693, 14.026276029261075 86.7312811381127, 8.98445616050952 68.65535775564292, 11.44239403919763 22.23031165177366, 7.44263930460827 80.03334638540646, 2.5065044355116473 17.033490682390063 z" style="fill:black;stroke:yellow" stroke-width="8.487591173467235" transform="translate(290.74522358505544, 174.25414546874032) rotate(-0.335784422451525 304.3249969482422 323.59998321533203)" onmousedown="tool('Creature-0.7930290874264125')" class="creatureClass"><title>Creature-0.7930290874264125</title><desc>moveLifePathCreature("Creature-0.7930290874264125", 1, 1)</desc></path><path xmlns="http://www.w3.org/2000/svg" id="Creature-0.18600189276980073" d="M 184.52724106269795 141.28641921144336, 126.92638704956265 2.9652326759636978, 200.75359768733463 226.54937864103593, 145.9817014695215 130.08315536707696, 182.59954842501028 88.174751563964, 16.098847456052102 88.25554097865131, 230.99032895283398 257.1979577330196 z" style="fill:black;stroke:yellow" stroke-width="10.114241051563367" transform="translate(102.75500483480374, -99.4419245928038) rotate(-0.009293239127778937 235.5916748046875 126.32501220703125)" onmousedown="tool('Creature-0.18600189276980073')" class="creatureClass"><title>Creature-0.18600189276980073</title><desc>moveLifePathCreature("Creature-0.18600189276980073", 1, 1)</desc></path><path xmlns="http://www.w3.org/2000/svg" id="Creature-0.14652119794823903" d="M 262.0428696658505 186.07244018909836, 243.1502465967914 94.64856731470122, 54.27094103891243 230.66532996002167, 85.4280994234702 115.23164332744341, 299.3828831161496 42.405333615009276, 132.3063641479911 48.72713197792979, 79.72856473985595 238.01223745557562 z" style="fill:black;stroke:yellow" stroke-width="7.635677739180418" transform="translate(61.32589428296587, -38.99691909132696) rotate(-0.2929829985888553 246.30833435058594 196.35833740234375)" onmousedown="tool('Creature-0.14652119794823903')" class="creatureClass"><title>Creature-0.14652119794823903</title><desc>moveLifePathCreature("Creature-0.14652119794823903", 1, 1)</desc></path><path xmlns="http://www.w3.org/2000/svg" id="Creature-0.8309180846748823" d="M 118.43313172984593 42.1350714578024, 154.4434322942031 40.61077289039091, 150.47793847979318 14.466849077041104, 113.2275546617753 68.514339532878, 90.39124081513181 14.748096376495718, 90.58392193368064 53.72818395665744, 18.987788345999554 67.66446866266365 z" style="fill:black;stroke:yellow" stroke-width="17.363441369259576" transform="translate(151.40558457544847, 244.32822384714473) rotate(-0.14947402062951562 247.05833435058594 382.60831451416016)" onmousedown="tool('Creature-0.8309180846748823')" class="creatureClass"><title>Creature-0.8309180846748823</title><desc>moveLifePathCreature("Creature-0.8309180846748823", 1, 1)</desc></path><path xmlns="http://www.w3.org/2000/svg" id="Creature-0.09550634322471185" d="T 12.573580984225213 5.009842900419895, 14.368268768564324 55.92514596964692, 5.066127028333999 19.680549275959756, 0.9460515231280606 5.514086550741351, 4.621951484212212 17.443214046535196, 10.782725774881852 76.36123397490789, 10.89409755618626 64.62031537802285 z" style="fill:black;stroke:yellow" stroke-width="1.1827747502728703" transform="translate(19.61726439469241, -91.18743635740503) rotate(0.006763553042321002 10 98.5)" onmousedown="tool('Creature-0.09550634322471185')" class="creatureClass"><title>Creature-0.09550634322471185</title><desc>moveLifePathCreature("Creature-0.09550634322471185", 1, 1)</desc></path><path xmlns="http://www.w3.org/2000/svg" id="Creature-0.23672716837138308" d="T 111.50995389985827 43.38408189372407, 280.1929250788703 20.335489991581163, 31.99017725583696 67.45087663281524, 325.1828071122525 21.248203972076418, 347.96965552976366 57.98929983297111, 282.26597293891507 27.626026042064495, 283.4939217858857 49.5199873762741 z" style="fill:black;stroke:yellow" stroke-width="13.246679971925053" transform="translate(73.27406576001255, -24.853014983391308) rotate(0.938056671124248 10 98.5)" onmousedown="tool('Creature-0.23672716837138308')" class="creatureClass"><title>Creature-0.23672716837138308</title><desc>moveLifePathCreature("Creature-0.23672716837138308", 1, 1)</desc></path><path xmlns="http://www.w3.org/2000/svg" id="Creature-0.3809805914375327" d="T 29.85541133913556 181.16120771091738, 144.6418193772699 186.94278331821585, 30.734392604253674 228.01297479881907, 17.109189885116322 228.2759826525874, 145.95538073045267 101.61799476234127, 221.77859982380204 205.43171603610563, 213.20776318421215 167.9956031000914 z" style="fill:black;stroke:yellow" stroke-width="4.6601019312289775" transform="translate(-82.52617689357263, -6.306449890827914) rotate(-4.266365144947306 10 98.5)" onmousedown="tool('Creature-0.3809805914375327')" class="creatureClass"><title>Creature-0.3809805914375327</title><desc>moveLifePathCreature("Creature-0.3809805914375327", 1, 1)</desc></path><path xmlns="http://www.w3.org/2000/svg" id="Creature-0.8340943488401636" d="T 9.40495058419604 272.20167119286145, 34.87375401177259 267.23126377155836, 15.008562491643204 165.6134443383931, 51.372187730146614 346.8426729920476, 33.89141434131296 217.91925780542235, 41.320537895151666 131.83432141840328, 20.954360319593654 281.1897119261821 z" style="fill:black;stroke:yellow" stroke-width="11.870193297211095" transform="translate(-19.3994600576586, -0.8331496074245495) rotate(-11.090130750911776 10 98.5)" onmousedown="tool('Creature-0.8340943488401636')" class="creatureClass"><title>Creature-0.8340943488401636</title><desc>moveLifePathCreature("Creature-0.8340943488401636", 1, 1)</desc></path><path xmlns="http://www.w3.org/2000/svg" id="Creature-0.33903512520198054" d="T 41.967901205193826 305.38623939397513, 134.49905375456296 204.17664979308444, 75.55040223796071 139.24588381033013, 93.52382614926854 282.9484342647117, 123.99654396057073 10.898042649364935, 104.20201050553875 352.6102897178529, 100.05317190048426 160.40767089550218 z" style="fill:black;stroke:yellow" stroke-width="1.5566091666418758" transform="translate(10.159507719794652, 19.446786244646226) rotate(-0.043070007531449815 10 98.5)" onmousedown="tool('Creature-0.33903512520198054')" class="creatureClass"><title>Creature-0.33903512520198054</title><desc>moveLifePathCreature("Creature-0.33903512520198054", 1, 1)</desc></path><path xmlns="http://www.w3.org/2000/svg" id="Creature-0.26729894971663026" d="T 71.23739145401021 125.41872075209437, 45.36214350233701 6.132839293918181, 9.465332318325958 5.267301759414598, 75.35335239579263 68.94769379304259, 62.06064883130582 36.1383312071842, 41.02379499868408 127.40819302055509, 28.34501829827011 7.316646149909772 z" style="fill:black;stroke:yellow" stroke-width="16.192070219173644" transform="translate(24.817785190250046, -45.4242601273515) rotate(0.08297759120491538 10 98.5)" onmousedown="tool('Creature-0.26729894971663026')" class="creatureClass"><title>Creature-0.26729894971663026</title><desc>moveLifePathCreature("Creature-0.26729894971663026", 1, 1)</desc></path><path xmlns="http://www.w3.org/2000/svg" id="Creature-0.2410007810481033" d="T 136.5560225343002 23.169067412454396, 235.55596950969246 254.05304638920944, 242.36014920335217 134.01684505029752, 260.05956275264566 97.26214448247808, 223.23754755221628 104.41340301647763, 161.69537776994116 103.62407045275243, 230.77307414921046 276.0781282689364 z" style="fill:black;stroke:yellow" stroke-width="4.986978881529325" transform="translate(3.9627036577711876, -3.856190504957545) rotate(0.2564089501535322 10 98.5)" onmousedown="tool('Creature-0.2410007810481033')" class="creatureClass"><title>Creature-0.2410007810481033</title><desc>moveLifePathCreature("Creature-0.2410007810481033", 1, 1)</desc></path><path xmlns="http://www.w3.org/2000/svg" id="Creature-0.7689213226093966" d="T 39.26639327027487 76.35323485948534, 71.03988689866651 154.60464619999146, 5.3975538838856565 48.0780946364046, 22.296541059185323 355.02002182019373, 16.09994791765558 317.6455892371563, 43.92379956947645 171.68400907767582, 11.095288198950689 138.30349263885716 z" style="fill:black;stroke:yellow" stroke-width="10.55404576443177" transform="translate(78.39921384845603, 58.67569664146847) rotate(-0.5717200034682324 10 98.5)" onmousedown="tool('Creature-0.7689213226093966')" class="creatureClass"><title>Creature-0.7689213226093966</title><desc>moveLifePathCreature("Creature-0.7689213226093966", 1, 1)</desc></path><path xmlns="http://www.w3.org/2000/svg" id="Creature-0.2293481287664535" d="T 186.29466563024803 102.72197879576221, 175.390376788337 122.53208028668782, 128.21673991877978 274.1688183872026, 203.88142625341854 61.478278270163834, 185.57036358480823 194.30624567640885, 143.97407342021376 147.40725258213152, 97.39890019361968 102.50102731532358 z" style="fill:black;stroke:yellow" stroke-width="14.087530002138253" transform="translate(72.53206909934757, -37.58614233161285) rotate(0.2591069544200408 10 98.5)" onmousedown="tool('Creature-0.2293481287664535')" class="creatureClass"><title>Creature-0.2293481287664535</title><desc>moveLifePathCreature("Creature-0.2293481287664535", 1, 1)</desc></path><path xmlns="http://www.w3.org/2000/svg" id="Creature-0.00950763232447649" d="T 8.13068898536624 66.69127450570649, 40.64157778471332 188.92005992095412, 140.41585288950955 19.629566650106852, 267.08469732010536 258.134117113181, 175.4478013947811 30.89351946230108, 135.5171538458447 148.44555788245992, 146.3246328883989 94.11359351105646 z" style="fill:black;stroke:yellow" stroke-width="16.50551897968665" transform="translate(-63.33801011399219, 10.633501157069889) rotate(-2.0235534611499375 10 98.5)" onmousedown="tool('Creature-0.00950763232447649')" class="creatureClass"><title>Creature-0.00950763232447649</title><desc>moveLifePathCreature("Creature-0.00950763232447649", 1, 1)</desc></path><path xmlns="http://www.w3.org/2000/svg" id="Creature-0.5697301134337558" d="T 121.73198341851202 46.26312906066357, 256.0765668640486 107.93574244900412, 37.5642709346402 86.13276480594203, 152.50435867184586 9.933990908072353, 117.91761650872361 15.038115365139895, 125.34568678249961 62.43595735177802, 51.92409157938916 38.74607799646087 z" style="fill:black;stroke:yellow" stroke-width="16.809364583900717" transform="translate(15.814982848945597, -16.91759479550036) rotate(-0.3621767562510147 10 98.5)" onmousedown="tool('Creature-0.5697301134337558')" class="creatureClass"><title>Creature-0.5697301134337558</title><desc>moveLifePathCreature("Creature-0.5697301134337558", 1, 1)</desc></path><path xmlns="http://www.w3.org/2000/svg" id="Creature-0.029804037304061337" d="T 89.09360789480529 10.936241619860086, 157.99547139683082 1.8095512963636307, 11.39067181507617 93.02924254332697, 24.80423931992131 88.63015307451569, 5.177114866070083 30.965818613213237, 24.209082297882162 80.4601640252015, 97.85524187739703 90.92940656930384 z" style="fill:black;stroke:yellow" stroke-width="14.11669620428873" transform="translate(-40.524449390621065, -36.497844779162065) rotate(-0.29168032328234406 10 98.5)" onmousedown="tool('Creature-0.029804037304061337')" class="creatureClass"><title>Creature-0.029804037304061337</title><desc>moveLifePathCreature("Creature-0.029804037304061337", 1, 1)</desc></path><path xmlns="http://www.w3.org/2000/svg" id="Creature-0.972276354292923" d="T 263.01279023496613 326.39533849937135, 262.2417823609212 100.46318958722574, 111.3666308016547 59.53100970626652, 231.51693718495878 88.12247391669025, 124.72081328719884 279.02270258619734, 183.27412515803695 198.13964446254204, 255.62400861313225 188.6638847469974 z" style="fill:black;stroke:yellow" stroke-width="9.883631000216912" transform="translate(-126.29508921611142, -72.50063969552575) rotate(-0.6090347545688349 10 98.5)" onmousedown="tool('Creature-0.972276354292923')" class="creatureClass"><title>Creature-0.972276354292923</title><desc>moveLifePathCreature("Creature-0.972276354292923", 1, 1)</desc></path><path xmlns="http://www.w3.org/2000/svg" id="Creature-0.9414332103134738" d="T 321.7070093898392 257.83618987289185, 317.8673201958763 396.16442690787517, 20.820889462051685 331.32994484436864, 20.021612950735744 423.79589967149775, 70.29901225518796 431.35946406568115, 76.59600134577889 92.21348299272266, 148.36715874440628 426.32793020436486 z" style="fill:black;stroke:yellow" stroke-width="0.5831244657702217" transform="translate(21.808636187200054, 39.006031328637164) rotate(0.14146223876031205 10 98.5)" onmousedown="tool('Creature-0.9414332103134738')" class="creatureClass"><title>Creature-0.9414332103134738</title><desc>moveLifePathCreature("Creature-0.9414332103134738", 1, 1)</desc></path><path xmlns="http://www.w3.org/2000/svg" id="Creature-0.6076728409603337" d="T 31.521635451995163 113.9682107620413, 32.68889113058863 203.83870498232383, 16.196371343402035 143.45698924163486, 7.62711876548253 135.07175017355576, 24.836926659086508 171.57754611808753, 20.05439685666382 185.87681268245206, 17.779089306253905 224.27482706818657 z" style="fill:black;stroke:yellow" stroke-width="3.059417412169736" transform="translate(-22.74463992172328, 28.791521798251722) rotate(0.012207134912253552 10 98.5)" onmousedown="tool('Creature-0.6076728409603337')" class="creatureClass"><title>Creature-0.6076728409603337</title><desc>moveLifePathCreature("Creature-0.6076728409603337", 1, 1)</desc></path><path xmlns="http://www.w3.org/2000/svg" id="Creature-0.4215422683783011" d="M 6.786937055140274 110.31139685001119, 6.283369052867012 159.41815211435218, 3.137648038848447 248.789840309353, 6.937111410584756 96.41135599721272, 10.494939418582064 55.87242680261511, 7.700840977397279 174.23868481219495, 1.6296780172062981 32.27714006667768 z" style="fill:black;stroke:yellow" stroke-width="18.77770512594787" transform="translate(252.72809047657654, -73.5033099047477) rotate(1.360436320174083 271.125 160.8000030517578)" onmousedown="tool('Creature-0.4215422683783011')" class="creatureClass"><title>Creature-0.4215422683783011</title><desc>moveLifePathCreature2("Creature-0.4215422683783011", 1, 1)</desc></path><path xmlns="http://www.w3.org/2000/svg" id="Creature-0.1500836443169521" d="M 64.47860084252223 182.39072439858643, 34.16351058007882 174.344488878896, 62.039528508549765 364.1654026539793, 14.183179829936453 166.77336817625613, 57.37535039617946 371.4332105408966, 1.9638637886769605 272.1664000699193, 57.5506379385035 312.9099567075701 z" style="fill:black;stroke:yellow" stroke-width="6.867978116645787" transform="translate(204.10735428488013, -42.80132139476079) rotate(-0.5754718128028714 251.96666717529297 320.6083297729492)" onmousedown="tool('Creature-0.1500836443169521')" class="creatureClass"><title>Creature-0.1500836443169521</title><desc>moveLifePathCreature2("Creature-0.1500836443169521", 1, 1)</desc></path><path xmlns="http://www.w3.org/2000/svg" id="Creature-0.6851612985812287" d="M 52.80517137549861 20.85373590174245, 58.7317692711178 239.30273703297266, 39.5596312467008 70.77267905978147, 69.9221552823993 255.1903294588531, 225.0622541168807 133.45102390440888, 176.21425828205122 94.68926748065196, 249.14524650432432 99.42820536534062 z" style="fill:black;stroke:yellow" stroke-width="16.56094794547059" transform="translate(-4.227920311794335, 60.50877288970354) rotate(0.03237815741035717 148.1666717529297 295.23333740234375)" onmousedown="tool('Creature-0.6851612985812287')" class="creatureClass"><title>Creature-0.6851612985812287</title><desc>moveLifePathCreature2("Creature-0.6851612985812287", 1, 1)</desc></path><path xmlns="http://www.w3.org/2000/svg" id="Creature-0.9800569104942141" d="M 129.31940159475874 0.21369678249242713, 76.44409118074519 29.496192326318326, 46.12023215754328 62.826074767083256, 58.72240152160622 60.603491057148965, 164.7756481252143 1.0870943958575003, 49.66370563473127 56.809571267929094, 70.59754751001924 29.49177013439071 z" style="fill:black;stroke:yellow" stroke-width="12.993792010713198" transform="translate(171.0614684713952, 169.45407379434909) rotate(-0.008862947742670891 287.90833282470703 301.5166702270508)" onmousedown="tool('Creature-0.9800569104942141')" class="creatureClass"><title>Creature-0.9800569104942141</title><desc>moveLifePathCreature2("Creature-0.9800569104942141", 1, 1)</desc></path></svg>