<?xml version="1.0" encoding="UTF-8" standalone="no"?>
<!-- Created with LifeFLOW (http://life.worldsowisdom.com/flow/) -->

<svg
   xmlns:osb="http://www.openswatchbook.org/uri/2009/osb"
   xmlns:dc="http://purl.org/dc/elements/1.1/"
   xmlns:cc="http://creativecommons.org/ns#"
   xmlns:rdf="http://www.w3.org/1999/02/22-rdf-syntax-ns#"
   xmlns:svg="http://www.w3.org/2000/svg"
   xmlns="http://www.w3.org/2000/svg"
   xmlns:xlink="http://www.w3.org/1999/xlink"
   xmlns:sodipodi="http://sodipodi.sourceforge.net/DTD/sodipodi-0.dtd"
   xmlns:inkscape="http://www.inkscape.org/namespaces/inkscape"
   width="450"
   height="450"
   viewBox="0 0 450 450"
   id="svg2"
   version="1.1"
   inkscape:version="0.91 r13725"
   sodipodi:docname="newcreatures-plain.svg">
  <defs
     id="defs4">
    <linearGradient
       inkscape:collect="always"
       id="linearGradient6501">
      <stop
         style="stop-color:#0000ff;stop-opacity:1;"
         offset="0"
         id="stop6503" />
      <stop
         style="stop-color:#0000ff;stop-opacity:0;"
         offset="1"
         id="stop6505" />
    </linearGradient>
    <linearGradient
       id="linearGradient6455"
       osb:paint="solid">
      <stop
         style="stop-color:#0000ff;stop-opacity:1;"
         offset="0"
         id="stop6457" />
    </linearGradient>
    <filter
       inkscape:collect="always"
       style="color-interpolation-filters:sRGB"
       id="filter5001"
       x="-0.37912726"
       width="1.7582545"
       y="-0.65848422"
       height="2.3169684">
      <feGaussianBlur
         inkscape:collect="always"
         stdDeviation="6.3692616"
         id="feGaussianBlur5003" />
    </filter>
    <linearGradient
       inkscape:collect="always"
       xlink:href="#linearGradient6501"
       id="linearGradient6507"
       x1="242.51431"
       y1="178.50594"
       x2="313.40628"
       y2="178.50594"
       gradientUnits="userSpaceOnUse"
       gradientTransform="translate(-215.03742,319.7082)" />
  </defs>
  <sodipodi:namedview
     id="base"
     pagecolor="#ffffff"
     bordercolor="#666666"
     borderopacity="1.0"
     inkscape:pageopacity="0.0"
     inkscape:pageshadow="2"
     inkscape:zoom="0.24748738"
     inkscape:cx="463.57331"
     inkscape:cy="265.90363"
     inkscape:document-units="px"
     inkscape:current-layer="layer1"
     showgrid="false"
     inkscape:window-width="1366"
     inkscape:window-height="706"
     inkscape:window-x="-8"
     inkscape:window-y="-8"
     inkscape:window-maximized="1"
     units="px" />
  <metadata
     id="metadata7">
    <rdf:RDF>
      <cc:Work
         rdf:about="">
        <dc:format>image/svg+xml</dc:format>
        <dc:type
           rdf:resource="http://purl.org/dc/dcmitype/StillImage" />
        <dc:title></dc:title>
      </cc:Work>
    </rdf:RDF>
  </metadata>
  <g
     inkscape:label="Layer 1"
     inkscape:groupmode="layer"
     id="layer1"
     transform="translate(0,-364.28567)">
    <path
       sodipodi:type="star"
       style="opacity:0.28999999;fill:#00ffff;stroke:#800080"
       id="path4136eg"
       sodipodi:sides="5"
       sodipodi:cx="149.96248"
       sodipodi:cy="470.92843"
       sodipodi:r1="84.03109"
       sodipodi:r2="42.015545"
       sodipodi:arg1="0.31099828"
       sodipodi:arg2="0.93931681"
       inkscape:flatsided="false"
       inkscape:rounded="0"
       inkscape:randomized="0"
       d="m 229.96248,496.64272 -55.19656,8.19877 -24.53782,50.11762 -24.85417,-49.96149 -55.247286,-7.84966 39.835836,-39.07667 -9.60688,-54.96897 49.47407,25.81078 49.30991,-26.12303 -9.25918,55.0286 z"
       inkscape:transform-center-x="-0.082081267"
       inkscape:transform-center-y="7.9461513" />
    <path
       inkscape:transform-center-y="2.4320959"
       inkscape:transform-center-x="-0.025122895"
       d="m 68.791599,427.6385 -16.894071,2.5094 -7.510317,15.33956 -7.607143,-15.29177 -16.909598,-2.40255 12.192598,-11.96024 -2.940388,-16.82442 15.142583,7.89994 15.092337,-7.99551 -2.833967,16.84267 z"
       inkscape:randomized="0"
       inkscape:rounded="0"
       inkscape:flatsided="false"
       sodipodi:arg2="0.93931681"
       sodipodi:arg1="0.31099828"
       sodipodi:r2="12.859744"
       sodipodi:r1="25.719488"
       sodipodi:cy="419.76809"
       sodipodi:cx="44.305912"
       sodipodi:sides="5"
       id="path4138eg"
       style="opacity:0.28999999;fill:#00ffff;stroke:#800080;stroke-width:0.3060711"
       sodipodi:type="star" />
    <g
       id="BiggoEGbg"
       transform="translate(-109.96232,143.76849)">
      <desc
         id="desc4151">A big creature for LifeFLOW! :)</desc>
      <circle
         r="29.934187"
         cy="259.14496"
         cx="302.39636"
         id="path4137eg"
         style="opacity:0.28999999;fill:#ffff00;stroke:#800080;stroke-width:0.6047619" />
      <circle
         r="7.3308215"
         cy="265.86487"
         cx="307.8945"
         id="path4139eg"
         style="opacity:0.28999999;fill:#ffff00;stroke:#800080;stroke-width:0.6047619" />
      <ellipse
         ry="10.996231"
         rx="3.6654108"
         cy="251.20323"
         cx="292.01105"
         id="path4141eg"
         style="opacity:0.28999999;fill:#0000ff;stroke:#800080;stroke-width:0.6047619" />
      <ellipse
         ry="3.6654108"
         rx="9.7744284"
         cy="253.64687"
         cx="317.66891"
         id="path4143eg"
         style="opacity:0.28999999;fill:#0000ff;stroke:#800080;stroke-width:0.6047619" />
    </g>
    <rect
       style="opacity:0.87000002;fill:url(#linearGradient6507);fill-opacity:1;stroke:#0000ff;stroke-width:0.6047619;stroke-miterlimit:4;stroke-dasharray:none;filter:url(#filter5001)"
       id="MedyEGbg"
       width="40.319515"
       height="23.214266"
       x="42.763119"
       y="486.60684" />
    <g
       id="g6519eg"
       inkscape:label="#MedyEG"
       transform="translate(0,53.355016)">
      <rect
         y="281.74832"
         x="59.868374"
         height="31.766891"
         width="63.533783"
         id="rect6509eg"
         style="opacity:0.87000002;fill:#0000ff;fill-opacity:1;stroke:#0000ff;stroke-width:0.6047619;stroke-miterlimit:4;stroke-dasharray:none" />
      <path
         inkscape:transform-center-y="-0.19571458"
         inkscape:transform-center-x="0.72308977"
         d="m 81.860835,300.07539 -6.160837,-1.4834 -4.714657,4.23419 -0.493011,-6.31769 -5.483865,-3.17547 5.856139,-2.42116 1.325442,-6.19674 4.112304,4.82134 6.303033,-0.65433 -3.314595,5.40091 z"
         inkscape:randomized="0"
         inkscape:rounded="0"
         inkscape:flatsided="false"
         sodipodi:arg2="1.3230568"
         sodipodi:arg1="0.69473828"
         sodipodi:r2="4.7712951"
         sodipodi:r1="9.5425901"
         sodipodi:cy="293.96637"
         sodipodi:cx="74.530014"
         sodipodi:sides="5"
         id="path6511eg"
         style="opacity:0.87000002;fill:#ff8080;fill-opacity:1;stroke:#0000ff;stroke-width:0.6047619;stroke-miterlimit:4;stroke-dasharray:none"
         sodipodi:type="star" />
      <path
         inkscape:transform-center-y="0.22428177"
         inkscape:transform-center-x="0.37755769"
         d="m 108.74051,312.2934 -1.06782,-3.99694 -3.89796,-1.38629 3.47135,-2.25068 0.1139,-4.13556 3.21323,2.60595 3.96835,-1.16963 -1.48546,3.86124 2.33867,3.41269 -4.13129,-0.21956 z"
         inkscape:randomized="0"
         inkscape:rounded="0"
         inkscape:flatsided="false"
         sodipodi:arg2="2.3965104"
         sodipodi:arg1="1.7681919"
         sodipodi:r2="3.115"
         sodipodi:r1="6.23"
         sodipodi:cy="306.18439"
         sodipodi:cx="109.96231"
         sodipodi:sides="5"
         id="path6513eg"
         style="opacity:0.87000002;fill:#ff8080;fill-opacity:1;stroke:#0000ff;stroke-width:0.6047619;stroke-miterlimit:4;stroke-dasharray:none"
         sodipodi:type="star" />
      <path
         inkscape:transform-center-y="-0.16705416"
         inkscape:transform-center-x="0.16705535"
         d="m 92.857067,295.18814 -2.173306,-0.73698 -1.839194,1.3725 0.02933,-2.29468 -1.873674,-1.32505 2.191432,-0.6812 0.6812,-2.19143 1.32505,1.87368 2.294678,-0.0293 -1.372506,1.8392 z"
         inkscape:randomized="0"
         inkscape:rounded="0"
         inkscape:flatsided="false"
         sodipodi:arg2="1.4137167"
         sodipodi:arg1="0.78539816"
         sodipodi:r2="1.727891"
         sodipodi:r1="3.4557824"
         sodipodi:cy="292.74454"
         sodipodi:cx="90.41346"
         sodipodi:sides="5"
         id="path6515eg"
         style="opacity:0.87000002;fill:#ff8080;fill-opacity:1;stroke:#0000ff;stroke-width:0.6047619;stroke-miterlimit:4;stroke-dasharray:none"
         sodipodi:type="star" />
      <path
         inkscape:transform-center-y="-0.1121867"
         inkscape:transform-center-x="-0.63956251"
         d="m 84.736419,309.55335 2.201552,-4.70569 -2.628342,-4.48131 5.155694,0.63966 3.44978,-3.8845 0.984842,5.10102 4.760422,2.08056 -4.547027,2.51294 -0.507677,5.17036 -3.79506,-3.54794 z"
         inkscape:randomized="0"
         inkscape:rounded="0"
         inkscape:flatsided="false"
         sodipodi:arg2="3.0951702"
         sodipodi:arg1="2.4668517"
         sodipodi:r2="3.9116797"
         sodipodi:r1="7.8233595"
         sodipodi:cy="304.66614"
         sodipodi:cx="90.845436"
         sodipodi:sides="5"
         id="path6517eg"
         style="opacity:0.87000002;fill:#ff8080;fill-opacity:1;stroke:#0000ff;stroke-width:0.6047619;stroke-miterlimit:4;stroke-dasharray:none"
         sodipodi:type="star" />
    </g>
    <path
       sodipodi:type="spiral"
       style="fill:#00ffff;fill-rule:evenodd;stroke:#000000;stroke-width:0.6047619px;stroke-linecap:butt;stroke-linejoin:miter;stroke-opacity:1"
       id="eaglynew2"
       sodipodi:cx="73.308212"
       sodipodi:cy="393.74982"
       sodipodi:expansion="1"
       sodipodi:revolution="3"
       sodipodi:radius="41.613129"
       sodipodi:argument="-18.147299"
       sodipodi:t0="0"
       d="m 73.308212,393.74982 c 1.592741,1.3477 -1.030876,2.81189 -2.239973,2.64724 -3.276579,-0.4462 -4.137127,-4.52375 -3.054508,-7.12719 1.936552,-4.65694 7.887895,-5.67954 12.014402,-3.46177 6.055815,3.25466 7.263028,11.296 3.869042,16.90161 -4.52365,7.4714 -14.719492,8.86373 -21.788831,4.27631 -8.896041,-5.77281 -10.473289,-18.15026 -4.683575,-26.67604 7.01212,-10.32587 21.585119,-12.08797 31.563258,-5.09085 11.758893,8.24586 13.705843,25.02253 5.49811,36.45048 -9.476152,13.19401 -28.461631,15.32586 -41.337687,5.90537 -14.630593,-10.70415 -16.947384,-31.90193 -6.312644,-46.2249 11.930572,-16.06821 35.343106,-18.56999 51.112116,-6.71991 17.506588,13.15584 20.193418,38.78494 7.127178,55.99933">
      <desc
         id="desc6528">a new test shape to play with! :)</desc>
    </path>
    <path
       d="m 205.26299,520.81738 c 1.59274,1.34771 -1.03088,2.8119 -2.23998,2.64724 -3.27658,-0.44619 -4.13713,-4.52374 -3.05451,-7.12718 1.93656,-4.65695 7.8879,-5.67955 12.01441,-3.46178 6.05581,3.25466 7.26302,11.296 3.86904,16.90162 -4.52365,7.4714 -14.71949,8.86373 -21.78883,4.27631 -8.89604,-5.77281 -10.47329,-18.15027 -4.68358,-26.67605 7.01212,-10.32586 21.58512,-12.08796 31.56326,-5.09084 11.75889,8.24586 13.70584,25.02252 5.49811,36.45047 -9.47615,13.19402 -28.46163,15.32587 -41.33769,5.90538 -14.63059,-10.70416 -16.94738,-31.90193 -6.31264,-46.2249 11.93057,-16.06821 35.3431,-18.57 51.11211,-6.71991 17.50659,13.15583 20.19342,38.78493 7.12718,55.99933"
       sodipodi:t0="0"
       sodipodi:argument="-18.147299"
       sodipodi:radius="41.613129"
       sodipodi:revolution="3"
       sodipodi:expansion="1"
       sodipodi:cy="520.81738"
       sodipodi:cx="205.26299"
       id="path6530eg"
       style="fill:#800000;fill-rule:evenodd;stroke:#000000;stroke-width:0.6047619px;stroke-linecap:butt;stroke-linejoin:miter;stroke-opacity:1"
       sodipodi:type="spiral">
      <desc
         id="desc6532">a new test shape to play with! :)</desc>
    </path>
  </g>
  <rect
     height="448"
     id="Border"
     style="fill:none;stroke:#800080;stroke-width:0.60342091"
     width="448"
     x="1"
     y="1" />
	 
	 
	 <!-- creatures from original versions! :) -->
	 
			<a style="fill-opacity:0.75" xlink:href="http://life.worldsowisdom.com/flow/"> <rect height="90" id="YellowRect" onmouseout="setAttribute('fill-opacity','0.5')" onmouseover="setAttribute('fill-opacity','1.0')" style="fill:yellow;stroke:#000000" width="90" x="150" y="90"> <desc id="desc3364">A clickable square!</desc>
			<title id="title3362"></title>
			</rect> </a> <a style="fill-opacity:0.75" xlink:href="http://life.worldsowisdom.com/flow/">
			<rect height="90" id="OrangeRect" onmouseout="setAttribute('fill-opacity','0.75')" onmouseover="setAttribute('fill-opacity','1.0')" style="fill:orange;stroke:#000000" width="90" x="60" y="300"> <desc id="desc3364">A clickable square!</desc>
			<title id="title3362"></title>
			</rect> </a>

<path xmlns="http://www.w3.org/2000/svg" sodipodi:type="spiral" xmlns:sodipodi="http://sodipodi.sourceforge.net/DTD/sodipodi-0.dtd" style="fill:#00ffff;fill-rule:evenodd;stroke:#000000;stroke-width:0.6047619px;stroke-linecap:butt;stroke-linejoin:miter;stroke-opacity:1" id="eaglynew" sodipodi:cx="73.308212" sodipodi:cy="393.74982" sodipodi:expansion="1" sodipodi:revolution="3" sodipodi:radius="41.613129" sodipodi:argument="-18.147299" sodipodi:t0="0" d="m 73.308212,393.74982 c 1.592741,1.3477 -1.030876,2.81189 -2.239973,2.64724 -3.276579,-0.4462 -4.137127,-4.52375 -3.054508,-7.12719 1.936552,-4.65694 7.887895,-5.67954 12.014402,-3.46177 6.055815,3.25466 7.263028,11.296 3.869042,16.90161 -4.52365,7.4714 -14.719492,8.86373 -21.788831,4.27631 -8.896041,-5.77281 -10.473289,-18.15026 -4.683575,-26.67604 7.01212,-10.32587 21.585119,-12.08797 31.563258,-5.09085 11.758893,8.24586 13.705843,25.02253 5.49811,36.45048 -9.476152,13.19401 -28.461631,15.32586 -41.337687,5.90537 -14.630593,-10.70415 -16.947384,-31.90193 -6.312644,-46.2249 11.930572,-16.06821 35.343106,-18.56999 51.112116,-6.71991 17.506588,13.15584 20.193418,38.78494 7.127178,55.99933" transform="translate(25, 25 )">
    <desc id="desc36">a new test shape to play with! :)</desc>
  </path><rect xmlns="http://www.w3.org/2000/svg" height="10" id="AvrilNiblet1" onmouseout="setAttribute('fill-opacity','0.5')" onmouseover="setAttribute('fill-opacity','1.0')" style="fill:yellow;stroke:black" width="10" x="225" y="225" transform="translate(25, 25 )">
    <desc id="desc71">Avril's first little niblet! :)</desc>
    <title id="title73"/>
  </rect><path xmlns="http://www.w3.org/2000/svg" fill-opacity="0.43046721000000016" onmousedown="Reverse(PurpleSpiral)" id="PurpleSpiral" d="m 282.09113,269.50729 c 1.52075,1.52076 -1.29967,2.80025 -2.52761,2.52761 -3.32763,-0.73884 -3.86257,-5.00113 -2.5276,-7.58281 2.38796,-4.61803 8.58895,-5.15902 12.63801,-2.5276 5.94217,3.86172 6.4939,12.22544 2.5276,17.69322 -5.28645,7.28768 -15.87921,7.84514 -22.74842,2.52759 -8.6442,-6.69159 -9.20486,-19.54122 -2.5276,-27.80363 8.08706,-10.00688 23.20787,-10.56947 32.85884,-2.52759 11.37333,9.47708 11.93717,26.8774 2.52759,37.91404 -10.86373,12.74223 -30.54887,13.30692 -42.96924,2.52759 -14.11282,-12.24817 -14.67812,-34.22169 -2.52759,-48.02445 13.63105,-15.4846 37.8955,-16.05034 53.07965,-2.52759 16.85728,15.01283 17.42336,41.57006 2.52759,58.13486" inkscape:tile-cx="185.6451" xmlns:inkscape="http://www.inkscape.org/namespaces/inkscape" inkscape:tile-cy="265.9547" inkscape:tile-h="68.00056" inkscape:tile-w="75.106916" inkscape:tile-x0="148.09164" inkscape:tile-y0="231.95443" sodipodi:argument="-18.064157" xmlns:sodipodi="http://sodipodi.sourceforge.net/DTD/sodipodi-0.dtd" sodipodi:cx="182.09113" sodipodi:cy="269.50729" sodipodi:expansion="1" sodipodi:radius="42.894836" sodipodi:revolution="3" sodipodi:t0="0" sodipodi:type="spiral" style="fill:#800080;fill-rule:evenodd;stroke:#000000;stroke-width:0.2081555px;stroke-linecap:butt;stroke-linejoin:miter;stroke-opacity:1" transform="translate(25, 25)"/><image xmlns="http://www.w3.org/2000/svg" id="back3" width="448" height="448" x="1" y="1" xlink:href="creatures/png/back3.png" xmlns:xlink="http://www.w3.org/1999/xlink"/><image xmlns="http://www.w3.org/2000/svg" id="galaxy3" width="294" height="150" x="150" y="100" style="opacity:0.5" onmousedown="tool(eg_newy)" xlink:href="creatures/png/galaxy3.png" xmlns:xlink="http://www.w3.org/1999/xlink" transform="translate(25, 25 )"/><image xmlns="http://www.w3.org/2000/svg" id="galaxy4" width="306" height="150" x="50" y="250" style="opacity:0.25" onmousedown="tool(eg_newy2)" xlink:href="creatures/png/galaxy4.png" xmlns:xlink="http://www.w3.org/1999/xlink" transform="translate(25, 12.5 )"/><image xmlns="http://www.w3.org/2000/svg" id="planet3" width="157" height="150" x="100" y="250" style="opacity:0.5" onmousedown="tool(eg_niblet)" xlink:href="creatures/png/planet3.png" xmlns:xlink="http://www.w3.org/1999/xlink" transform="translate(25, 0.0 )"/><image xmlns="http://www.w3.org/2000/svg" id="planet4" width="150" height="150" x="300" y="150" style="opacity:0.9" onmousedown="tool(eg_medy)" xlink:href="creatures/png/planet4.png" xmlns:xlink="http://www.w3.org/1999/xlink" transform="translate(25, 0.0 )"/><image xmlns="http://www.w3.org/2000/svg" id="satellite3" width="79" height="150" x="200" y="250" onmousedown="tool(satellite3)" xlink:href="creatures/png/satellite3.png" xmlns:xlink="http://www.w3.org/1999/xlink" transform="translate(25, 25 )"/><image xmlns="http://www.w3.org/2000/svg" id="satellite4" width="109" height="75" x="50" y="50" onmousedown="tool(satellite4)" xlink:href="creatures/png/satellite4.png" xmlns:xlink="http://www.w3.org/1999/xlink" transform="translate(25, 25 )"/><image xmlns="http://www.w3.org/2000/svg" id="mediumcreature3" width="38" height="50" x="300" y="175" onmousedown="tool(the_rect)" xlink:href="creatures/png/mediumcreature3.png" xmlns:xlink="http://www.w3.org/1999/xlink" transform="translate( 0.0 , 25 )"/><image xmlns="http://www.w3.org/2000/svg" id="niblet3" width="21" height="32" x="400" y="350" onmousedown="tool(pink_rect)" xlink:href="creatures/png/niblet3.png" xmlns:xlink="http://www.w3.org/1999/xlink" transform="translate( 0.0 , 25 )"/><image xmlns="http://www.w3.org/2000/svg" id="bigbeauty3" width="92" height="110" x="100" y="150" onmousedown="tool(eg_biggo)" xlink:href="creatures/png/bigbeauty3.png" xmlns:xlink="http://www.w3.org/1999/xlink" transform="translate(25, 0.0 )"/><image xmlns="http://www.w3.org/2000/svg" id="Creature-0.9610602130581211" a0:href="creatures/png/bicho1.png" xmlns:a0="http://www.w3.org/1999/xlink" opacity="0.8856028875686167" transform="translate(-104.87671038900612, -149) rotate(20.455796691395452 8.691665649414062 153.65834045410156)" x="200" y="200" height="120" width="120" onmousedown="tool('Creature-0.9610602130581211')" class="creatureClass"><title>Creature-0.9610602130581211</title><desc>movePsyCreat("Creature-0.9610602130581211", 1, 1)</desc></image><image xmlns="http://www.w3.org/2000/svg" id="Creature-0.43235099934723364" a0:href="creatures/png/bicho1.png" xmlns:a0="http://www.w3.org/1999/xlink" opacity="0.8396871896089472" transform="translate(293.1190336298208, -149) rotate(234.4244884061249 -147.99166870117188 211.3249969482422)" x="200" y="200" height="120" width="120" onmousedown="tool('Creature-0.43235099934723364')" class="creatureClass"><title>Creature-0.43235099934723364</title><desc>movePsyCreat("Creature-0.43235099934723364", 1, 1)</desc></image><image xmlns="http://www.w3.org/2000/svg" id="Creature-0.8133036929500166" a0:href="creatures/png/bicho1.png" xmlns:a0="http://www.w3.org/1999/xlink" opacity="0.5437759670682686" transform="translate(216.32017123735864, 8.056230788904514) rotate(0.4997470707425066 520.6416473388672 541.5833206176758)" x="200" y="200" height="120" width="120" onmousedown="tool('Creature-0.8133036929500166')" class="creatureClass"><title>Creature-0.8133036929500166</title><desc>movePsyCreat("Creature-0.8133036929500166", 1, 1)</desc></image><image xmlns="http://www.w3.org/2000/svg" id="Creature-0.9898518874643609" a0:href="creatures/png/flower1.png" xmlns:a0="http://www.w3.org/1999/xlink" opacity="0.9726613555937439" transform="translate(-77.76884339510399, 68.3754193158401) rotate(-0.3036308004944222 342.9833297729492 486.9416732788086)" x="200" y="200" height="120" width="120" onmousedown="tool('Creature-0.9898518874643609')" class="creatureClass"><title>Creature-0.9898518874643609</title><desc>movePsyCreat("Creature-0.9898518874643609", 1, 1)</desc></image><g xmlns="http://www.w3.org/2000/svg" id="Creature-0.2618014941347392" style="fill:#da1e8;stroke:#892a13" stroke-width="36.20262569237772" opacity="0.9419441347037497" transform="translate(-1820, -1820) rotate(-0.266237592360263 -1759.5500030517578 -1570.9083862304688)" onmousedown="tool('Creature-0.2618014941347392')" class="creatureClass"><title>Creature-0.2618014941347392</title><desc>moveLifePathCreatureEvo("Creature-0.2618014941347392", 1, 1)</desc><path id="Creature-0.2618014941347392-part-0" d="M 6.714477123306057, 176.06150029282725 Q 39.97975474941674, 175.7421253755571 43.39544415536419, 249.38037665156781 T 84.41494360922164, 395.55514322989427, 67.26032215424931 192.15291626548233, 81.48528920630949 138.1629231965845, 13.161139830038449 121.10477654919532, 43.16997615310012 214.70013331991203 z" stroke-width="21.465274368873327" opacity="0.9560951182816813" class="creaturePartClass"/><path id="Creature-0.2618014941347392-part-1" d="M 57.328292344826636, 187.21260971508565 Q 75.28434540735444, 240.03621825776958 85.60932059993507, 243.5693856613625 T 26.44733178149981, 420.7041390232372, 55.22295530090432 54.950068021240284, 75.4863383528688 28.85167990466931, 15.633247319587491 347.4411892398304, 31.45232248264105 274.1284405533984 z" stroke-width="38.12043249345216" opacity="0.9444487554350152" class="creaturePartClass"/><path id="Creature-0.2618014941347392-part-2" d="M 23.959883859380895, 80.09276961045737 Q 43.70042841193527, 10.042868552877614 88.46084240342118, 246.52022374127316 T 77.1431637875206, 309.5873625326785, 10.223422921600413 176.96033594162526, 11.869023623672271 202.43106413261222, 35.907126473308914 306.33694353732653, 20.068400520678622 222.21005519797797 z" stroke-width="5.9373896729161" opacity="0.865126364108588" class="creaturePartClass"/><path id="Creature-0.2618014941347392-part-3" d="M 20.208013114900766, 161.3698641952623 Q 72.29337160863216, 270.9487307327504 3.700090416778412, 43.433097324017275 T 44.69947774174265, 164.21243417043814, 36.122964504497716 88.904138079681, 74.09336575805176 218.17605646006854, 78.37541411353493 247.6824534083471, 28.61997706709673 126.44367102928783 z" stroke-width="21.02713214359985" opacity="0.4524766819738332" class="creaturePartClass"/></g><line xmlns="http://www.w3.org/2000/svg" id="Creature-0.7150735273169982" x1="455.78438365589955" x2="431.1033535332369" y1="313.31642695329845" y2="294.9057967734022" style="fill:orange;stroke:pink" stroke-width="6.281048844262223" transform="translate(-189.75178196268493, -98.20269131315017) rotate(-0.9189617600642935 265 306.3083190917969)" onmousedown="tool('Creature-0.7150735273169982')" class="creatureClass"><title>Creature-0.7150735273169982</title><desc>moveSpikyCreature("Creature-0.7150735273169982", 1, 1)</desc></line><line xmlns="http://www.w3.org/2000/svg" id="Creature-0.7361187070791977" x1="272.39726794058265" x2="240.80267050851202" y1="196.18862752198075" y2="183.26502250061495" style="fill:orange;stroke:pink" stroke-width="3.461822347176804" transform="translate(0,0)" onmousedown="tool('Creature-0.7361187070791977')" class="creatureClass"><title>Creature-0.7361187070791977</title><desc>moveStaticCreature("Creature-0.7361187070791977", 1, 1)</desc></line><rect xmlns="http://www.w3.org/2000/svg" id="Creature-0.9938592171262233" x="24.509152393470284" y="376.5989508829898" width="17.729614447039623" height="5.101763581673671" style="fill:pink;stroke:yellow" transform="translate(22.096473024591457, 41.04645846139354)" onmousedown="tool('Creature-0.9938592171262233')" class="creatureClass"><title>Creature-0.9938592171262233</title><desc>document.getElementById("Creature-0.9938592171262233").setAttribute("transform", "translate("+33*Math.random()+", "+50*Math.random()+")");</desc></rect><g xmlns="http://www.w3.org/2000/svg" id="Creature-0.6266749195334461" style="fill:#ac572a;stroke:#947435" stroke-width="1.9769090510884224" opacity="0.6312370369335971" transform="translate(-31172.6953125, -31240.90625) rotate(0.2064898870443006 -30936.60846710205 -31239.79165649414)" onmousedown="tool('Creature-0.6266749195334461')" class="creatureClass"><title>Creature-0.6266749195334461</title><desc>moveLifePathCreatureEvo("Creature-0.6266749195334461", 1, 1)</desc><path id="Creature-0.6266749195334461-part-0" d="M 41.75922056534313, 19.94202016608846 Q 0.7491461969347695, 148.02416734699077 37.84004774322133, 192.42867674020584 T 9.096451213108304, 78.61179228559864, 9.376244544469788 56.66979015157848, 32.39406476898968 60.961594800495554, 11.67527500057573 135.04096063233453, 22.84964058903291 6.457001984821923 z" stroke-width="22.6772936766118" opacity="0.8406463904632061" class="creaturePartClass"/><path id="Creature-0.6266749195334461-part-1" d="M 31.892912383974274, 176.76795012320252 Q 34.12504722304688, 48.354853069846314 21.982653055218982, 100.04926100184657 T 33.06339218917079, 175.52774667285541, 9.398973730834209 109.46982596691394, 10.326378711176863 100.82554284345609, 28.19404741658261 135.97334927018, 35.15716941475053 47.14802765205448 z" stroke-width="26.43130763569489" opacity="0.980104688102712" class="creaturePartClass"/><path id="Creature-0.6266749195334461-part-2" d="M 12.563379496353582, 50.80710857255842 Q 21.76598684493385, 118.33561415603816 23.769303427875396, 183.65162092177704 T 34.705951297433494, 125.29912011268172, 7.937603655460434 67.97523939527882, 16.383751738011703 97.56177713651608, 15.51055422084974 92.09217109127941, 19.495439868233778 140.8427844137746 z" stroke-width="37.914598539922075" opacity="0.7638210676525876" class="creaturePartClass"/><path id="Creature-0.6266749195334461-part-3" d="M 0.08473185710962289, 165.41984982640648 Q 31.03304544562711, 146.82303616974767 34.18402496645326, 70.74161889139043 T 40.39625949061919, 51.797174177559846, 13.01885380402451 149.00204510632815, 1.2741052854665382 23.535512779359536, 2.38163275432696 84.7161758078808, 23.222008199789585 90.23712045389554 z" stroke-width="30.135222200917777" opacity="0.7495844560698285" class="creaturePartClass"/></g><image xmlns="http://www.w3.org/2000/svg" id="Creature-0.8593502365018924" a0:href="creatures/png/flower1.png" xmlns:a0="http://www.w3.org/1999/xlink" opacity="0.9774136341049079" transform="translate(-97.7236118399434, -149) rotate(-28.92967828706848 524.691650390625 308.4500045776367)" x="200" y="200" height="120" width="120" onmousedown="tool('Creature-0.8593502365018924')" class="creatureClass"><title>Creature-0.8593502365018924</title><desc>movePsyCreat("Creature-0.8593502365018924", 1, 1)</desc></image><image xmlns="http://www.w3.org/2000/svg" id="Creature-0.1141466535441743" a0:href="creatures/png/flower1.png" xmlns:a0="http://www.w3.org/1999/xlink" opacity="0.8255088803179701" transform="translate(-149.58922580704058, 135.25572992413777) rotate(-0.0013616302903071559 400.4166564941406 -185.25)" x="200" y="200" height="120" width="120" onmousedown="tool('Creature-0.1141466535441743')" class="creatureClass"><title>Creature-0.1141466535441743</title><desc>movePsyCreat("Creature-0.1141466535441743", 1, 1)</desc></image><image xmlns="http://www.w3.org/2000/svg" id="Creature-0.5303835164039652" a0:href="creatures/png/flower1.png" xmlns:a0="http://www.w3.org/1999/xlink" opacity="0.9678644607782135" transform="translate(-232.7921281225279, 23.585545246079647) rotate(0.21593573320305745 186.93333435058594 482.9000015258789)" x="200" y="200" height="120" width="120" onmousedown="tool('Creature-0.5303835164039652')" class="creatureClass"><title>Creature-0.5303835164039652</title><desc>movePsyCreat("Creature-0.5303835164039652", 1, 1)</desc></image><image xmlns="http://www.w3.org/2000/svg" id="Creature-0.30064877529058776" a0:href="creatures/png/flower1.png" xmlns:a0="http://www.w3.org/1999/xlink" opacity="0.6267079452743418" transform="translate(128.8164955072396, -100.7047661255996) rotate(3.427671202632533 28.008338928222656 648.816650390625)" x="200" y="200" height="120" width="120" onmousedown="tool('Creature-0.30064877529058776')" class="creatureClass"><title>Creature-0.30064877529058776</title><desc>movePsyCreat("Creature-0.30064877529058776", 1, 1)</desc></image><image xmlns="http://www.w3.org/2000/svg" id="Creature-0.6563631302077104" a0:href="creatures/png/flower1.png" xmlns:a0="http://www.w3.org/1999/xlink" opacity="0.7595798767722537" transform="translate(273.3710994271285, -149) rotate(-15.55505205056769 10.399993896484375 242.96665954589844)" x="200" y="200" height="120" width="120" onmousedown="tool('Creature-0.6563631302077104')" class="creatureClass"><title>Creature-0.6563631302077104</title><desc>movePsyCreat("Creature-0.6563631302077104", 1, 1)</desc></image><image xmlns="http://www.w3.org/2000/svg" id="Creature-0.7975408655247044" a0:href="creatures/png/flower1.png" xmlns:a0="http://www.w3.org/1999/xlink" opacity="0.7844942199727717" transform="translate(48.86613301665105, -149) rotate(-144.2098364271463 -10.383331298828125 307.875)" x="200" y="200" height="120" width="120" onmousedown="tool('Creature-0.7975408655247044')" class="creatureClass"><title>Creature-0.7975408655247044</title><desc>movePsyCreat("Creature-0.7975408655247044", 1, 1)</desc></image></svg>