<?xml version="1.0" encoding="UTF-8" standalone="no"?>
<!-- Created with LifeFLOW (http://life.worldsowisdom.com/flow/) -->

<svg
   xmlns:osb="http://www.openswatchbook.org/uri/2009/osb"
   xmlns:dc="http://purl.org/dc/elements/1.1/"
   xmlns:cc="http://creativecommons.org/ns#"
   xmlns:rdf="http://www.w3.org/1999/02/22-rdf-syntax-ns#"
   xmlns:svg="http://www.w3.org/2000/svg"
   xmlns="http://www.w3.org/2000/svg"
   xmlns:xlink="http://www.w3.org/1999/xlink"
   xmlns:sodipodi="http://sodipodi.sourceforge.net/DTD/sodipodi-0.dtd"
   xmlns:inkscape="http://www.inkscape.org/namespaces/inkscape"
   width="450"
   height="450"
   viewBox="0 0 450 450"
   id="svg2"
   version="1.1"
   inkscape:version="0.91 r13725"
   sodipodi:docname="newcreatures-plain.svg">
  <defs
     id="defs4">
    <linearGradient
       inkscape:collect="always"
       id="linearGradient6501">
      <stop
         style="stop-color:#0000ff;stop-opacity:1;"
         offset="0"
         id="stop6503" />
      <stop
         style="stop-color:#0000ff;stop-opacity:0;"
         offset="1"
         id="stop6505" />
    </linearGradient>
    <linearGradient
       id="linearGradient6455"
       osb:paint="solid">
      <stop
         style="stop-color:#0000ff;stop-opacity:1;"
         offset="0"
         id="stop6457" />
    </linearGradient>
    <filter
       inkscape:collect="always"
       style="color-interpolation-filters:sRGB"
       id="filter5001"
       x="-0.37912726"
       width="1.7582545"
       y="-0.65848422"
       height="2.3169684">
      <feGaussianBlur
         inkscape:collect="always"
         stdDeviation="6.3692616"
         id="feGaussianBlur5003" />
    </filter>
    <linearGradient
       inkscape:collect="always"
       xlink:href="#linearGradient6501"
       id="linearGradient6507"
       x1="242.51431"
       y1="178.50594"
       x2="313.40628"
       y2="178.50594"
       gradientUnits="userSpaceOnUse"
       gradientTransform="translate(-215.03742,319.7082)" />
  </defs>
  <sodipodi:namedview
     id="base"
     pagecolor="#ffffff"
     bordercolor="#666666"
     borderopacity="1.0"
     inkscape:pageopacity="0.0"
     inkscape:pageshadow="2"
     inkscape:zoom="0.24748738"
     inkscape:cx="463.57331"
     inkscape:cy="265.90363"
     inkscape:document-units="px"
     inkscape:current-layer="layer1"
     showgrid="false"
     inkscape:window-width="1366"
     inkscape:window-height="706"
     inkscape:window-x="-8"
     inkscape:window-y="-8"
     inkscape:window-maximized="1"
     units="px" />
  <metadata
     id="metadata7">
    <rdf:RDF>
      <cc:Work
         rdf:about="">
        <dc:format>image/svg+xml</dc:format>
        <dc:type
           rdf:resource="http://purl.org/dc/dcmitype/StillImage" />
        <dc:title></dc:title>
      </cc:Work>
    </rdf:RDF>
  </metadata>
  <g
     inkscape:label="Layer 1"
     inkscape:groupmode="layer"
     id="layer1"
     transform="translate(0,-364.28567)">
    <path
       sodipodi:type="star"
       style="opacity:0.28999999;fill:#00ffff;stroke:#800080"
       id="path4136eg"
       sodipodi:sides="5"
       sodipodi:cx="149.96248"
       sodipodi:cy="470.92843"
       sodipodi:r1="84.03109"
       sodipodi:r2="42.015545"
       sodipodi:arg1="0.31099828"
       sodipodi:arg2="0.93931681"
       inkscape:flatsided="false"
       inkscape:rounded="0"
       inkscape:randomized="0"
       d="m 229.96248,496.64272 -55.19656,8.19877 -24.53782,50.11762 -24.85417,-49.96149 -55.247286,-7.84966 39.835836,-39.07667 -9.60688,-54.96897 49.47407,25.81078 49.30991,-26.12303 -9.25918,55.0286 z"
       inkscape:transform-center-x="-0.082081267"
       inkscape:transform-center-y="7.9461513" />
    <path
       inkscape:transform-center-y="2.4320959"
       inkscape:transform-center-x="-0.025122895"
       d="m 68.791599,427.6385 -16.894071,2.5094 -7.510317,15.33956 -7.607143,-15.29177 -16.909598,-2.40255 12.192598,-11.96024 -2.940388,-16.82442 15.142583,7.89994 15.092337,-7.99551 -2.833967,16.84267 z"
       inkscape:randomized="0"
       inkscape:rounded="0"
       inkscape:flatsided="false"
       sodipodi:arg2="0.93931681"
       sodipodi:arg1="0.31099828"
       sodipodi:r2="12.859744"
       sodipodi:r1="25.719488"
       sodipodi:cy="419.76809"
       sodipodi:cx="44.305912"
       sodipodi:sides="5"
       id="path4138eg"
       style="opacity:0.28999999;fill:#00ffff;stroke:#800080;stroke-width:0.3060711"
       sodipodi:type="star" />
    <g
       id="BiggoEGbg"
       transform="translate(-109.96232,143.76849)">
      <desc
         id="desc4151">A big creature for LifeFLOW! :)</desc>
      <circle
         r="29.934187"
         cy="259.14496"
         cx="302.39636"
         id="path4137eg"
         style="opacity:0.28999999;fill:#ffff00;stroke:#800080;stroke-width:0.6047619" />
      <circle
         r="7.3308215"
         cy="265.86487"
         cx="307.8945"
         id="path4139eg"
         style="opacity:0.28999999;fill:#ffff00;stroke:#800080;stroke-width:0.6047619" />
      <ellipse
         ry="10.996231"
         rx="3.6654108"
         cy="251.20323"
         cx="292.01105"
         id="path4141eg"
         style="opacity:0.28999999;fill:#0000ff;stroke:#800080;stroke-width:0.6047619" />
      <ellipse
         ry="3.6654108"
         rx="9.7744284"
         cy="253.64687"
         cx="317.66891"
         id="path4143eg"
         style="opacity:0.28999999;fill:#0000ff;stroke:#800080;stroke-width:0.6047619" />
    </g>
    <rect
       style="opacity:0.87000002;fill:url(#linearGradient6507);fill-opacity:1;stroke:#0000ff;stroke-width:0.6047619;stroke-miterlimit:4;stroke-dasharray:none;filter:url(#filter5001)"
       id="MedyEGbg"
       width="40.319515"
       height="23.214266"
       x="42.763119"
       y="486.60684" />
    <g
       id="g6519eg"
       inkscape:label="#MedyEG"
       transform="translate(0,53.355016)">
      <rect
         y="281.74832"
         x="59.868374"
         height="31.766891"
         width="63.533783"
         id="rect6509eg"
         style="opacity:0.87000002;fill:#0000ff;fill-opacity:1;stroke:#0000ff;stroke-width:0.6047619;stroke-miterlimit:4;stroke-dasharray:none" />
      <path
         inkscape:transform-center-y="-0.19571458"
         inkscape:transform-center-x="0.72308977"
         d="m 81.860835,300.07539 -6.160837,-1.4834 -4.714657,4.23419 -0.493011,-6.31769 -5.483865,-3.17547 5.856139,-2.42116 1.325442,-6.19674 4.112304,4.82134 6.303033,-0.65433 -3.314595,5.40091 z"
         inkscape:randomized="0"
         inkscape:rounded="0"
         inkscape:flatsided="false"
         sodipodi:arg2="1.3230568"
         sodipodi:arg1="0.69473828"
         sodipodi:r2="4.7712951"
         sodipodi:r1="9.5425901"
         sodipodi:cy="293.96637"
         sodipodi:cx="74.530014"
         sodipodi:sides="5"
         id="path6511eg"
         style="opacity:0.87000002;fill:#ff8080;fill-opacity:1;stroke:#0000ff;stroke-width:0.6047619;stroke-miterlimit:4;stroke-dasharray:none"
         sodipodi:type="star" />
      <path
         inkscape:transform-center-y="0.22428177"
         inkscape:transform-center-x="0.37755769"
         d="m 108.74051,312.2934 -1.06782,-3.99694 -3.89796,-1.38629 3.47135,-2.25068 0.1139,-4.13556 3.21323,2.60595 3.96835,-1.16963 -1.48546,3.86124 2.33867,3.41269 -4.13129,-0.21956 z"
         inkscape:randomized="0"
         inkscape:rounded="0"
         inkscape:flatsided="false"
         sodipodi:arg2="2.3965104"
         sodipodi:arg1="1.7681919"
         sodipodi:r2="3.115"
         sodipodi:r1="6.23"
         sodipodi:cy="306.18439"
         sodipodi:cx="109.96231"
         sodipodi:sides="5"
         id="path6513eg"
         style="opacity:0.87000002;fill:#ff8080;fill-opacity:1;stroke:#0000ff;stroke-width:0.6047619;stroke-miterlimit:4;stroke-dasharray:none"
         sodipodi:type="star" />
      <path
         inkscape:transform-center-y="-0.16705416"
         inkscape:transform-center-x="0.16705535"
         d="m 92.857067,295.18814 -2.173306,-0.73698 -1.839194,1.3725 0.02933,-2.29468 -1.873674,-1.32505 2.191432,-0.6812 0.6812,-2.19143 1.32505,1.87368 2.294678,-0.0293 -1.372506,1.8392 z"
         inkscape:randomized="0"
         inkscape:rounded="0"
         inkscape:flatsided="false"
         sodipodi:arg2="1.4137167"
         sodipodi:arg1="0.78539816"
         sodipodi:r2="1.727891"
         sodipodi:r1="3.4557824"
         sodipodi:cy="292.74454"
         sodipodi:cx="90.41346"
         sodipodi:sides="5"
         id="path6515eg"
         style="opacity:0.87000002;fill:#ff8080;fill-opacity:1;stroke:#0000ff;stroke-width:0.6047619;stroke-miterlimit:4;stroke-dasharray:none"
         sodipodi:type="star" />
      <path
         inkscape:transform-center-y="-0.1121867"
         inkscape:transform-center-x="-0.63956251"
         d="m 84.736419,309.55335 2.201552,-4.70569 -2.628342,-4.48131 5.155694,0.63966 3.44978,-3.8845 0.984842,5.10102 4.760422,2.08056 -4.547027,2.51294 -0.507677,5.17036 -3.79506,-3.54794 z"
         inkscape:randomized="0"
         inkscape:rounded="0"
         inkscape:flatsided="false"
         sodipodi:arg2="3.0951702"
         sodipodi:arg1="2.4668517"
         sodipodi:r2="3.9116797"
         sodipodi:r1="7.8233595"
         sodipodi:cy="304.66614"
         sodipodi:cx="90.845436"
         sodipodi:sides="5"
         id="path6517eg"
         style="opacity:0.87000002;fill:#ff8080;fill-opacity:1;stroke:#0000ff;stroke-width:0.6047619;stroke-miterlimit:4;stroke-dasharray:none"
         sodipodi:type="star" />
    </g>
    <path
       sodipodi:type="spiral"
       style="fill:#00ffff;fill-rule:evenodd;stroke:#000000;stroke-width:0.6047619px;stroke-linecap:butt;stroke-linejoin:miter;stroke-opacity:1"
       id="eaglynew2"
       sodipodi:cx="73.308212"
       sodipodi:cy="393.74982"
       sodipodi:expansion="1"
       sodipodi:revolution="3"
       sodipodi:radius="41.613129"
       sodipodi:argument="-18.147299"
       sodipodi:t0="0"
       d="m 73.308212,393.74982 c 1.592741,1.3477 -1.030876,2.81189 -2.239973,2.64724 -3.276579,-0.4462 -4.137127,-4.52375 -3.054508,-7.12719 1.936552,-4.65694 7.887895,-5.67954 12.014402,-3.46177 6.055815,3.25466 7.263028,11.296 3.869042,16.90161 -4.52365,7.4714 -14.719492,8.86373 -21.788831,4.27631 -8.896041,-5.77281 -10.473289,-18.15026 -4.683575,-26.67604 7.01212,-10.32587 21.585119,-12.08797 31.563258,-5.09085 11.758893,8.24586 13.705843,25.02253 5.49811,36.45048 -9.476152,13.19401 -28.461631,15.32586 -41.337687,5.90537 -14.630593,-10.70415 -16.947384,-31.90193 -6.312644,-46.2249 11.930572,-16.06821 35.343106,-18.56999 51.112116,-6.71991 17.506588,13.15584 20.193418,38.78494 7.127178,55.99933">
      <desc
         id="desc6528">a new test shape to play with! :)</desc>
    </path>
    <path
       d="m 205.26299,520.81738 c 1.59274,1.34771 -1.03088,2.8119 -2.23998,2.64724 -3.27658,-0.44619 -4.13713,-4.52374 -3.05451,-7.12718 1.93656,-4.65695 7.8879,-5.67955 12.01441,-3.46178 6.05581,3.25466 7.26302,11.296 3.86904,16.90162 -4.52365,7.4714 -14.71949,8.86373 -21.78883,4.27631 -8.89604,-5.77281 -10.47329,-18.15027 -4.68358,-26.67605 7.01212,-10.32586 21.58512,-12.08796 31.56326,-5.09084 11.75889,8.24586 13.70584,25.02252 5.49811,36.45047 -9.47615,13.19402 -28.46163,15.32587 -41.33769,5.90538 -14.63059,-10.70416 -16.94738,-31.90193 -6.31264,-46.2249 11.93057,-16.06821 35.3431,-18.57 51.11211,-6.71991 17.50659,13.15583 20.19342,38.78493 7.12718,55.99933"
       sodipodi:t0="0"
       sodipodi:argument="-18.147299"
       sodipodi:radius="41.613129"
       sodipodi:revolution="3"
       sodipodi:expansion="1"
       sodipodi:cy="520.81738"
       sodipodi:cx="205.26299"
       id="path6530eg"
       style="fill:#800000;fill-rule:evenodd;stroke:#000000;stroke-width:0.6047619px;stroke-linecap:butt;stroke-linejoin:miter;stroke-opacity:1"
       sodipodi:type="spiral">
      <desc
         id="desc6532">a new test shape to play with! :)</desc>
    </path>
  </g>
  <rect
     height="448"
     id="Border"
     style="fill:none;stroke:#800080;stroke-width:0.60342091"
     width="448"
     x="1"
     y="1" />
	 
	 
	 <!-- creatures from original versions! :) -->
	 
			<a style="fill-opacity:0.75" xlink:href="http://life.worldsowisdom.com/flow/"> <rect height="90" id="YellowRect" onmouseout="setAttribute('fill-opacity','0.5')" onmouseover="setAttribute('fill-opacity','1.0')" style="fill:yellow;stroke:#000000" width="90" x="150" y="90"> <desc id="desc3364">A clickable square!</desc>
			<title id="title3362"></title>
			</rect> </a> <a style="fill-opacity:0.75" xlink:href="http://life.worldsowisdom.com/flow/">
			<rect height="90" id="OrangeRect" onmouseout="setAttribute('fill-opacity','0.75')" onmouseover="setAttribute('fill-opacity','1.0')" style="fill:orange;stroke:#000000" width="90" x="60" y="300"> <desc id="desc3364">A clickable square!</desc>
			<title id="title3362"></title>
			</rect> </a>

<path xmlns="http://www.w3.org/2000/svg" sodipodi:type="spiral" xmlns:sodipodi="http://sodipodi.sourceforge.net/DTD/sodipodi-0.dtd" style="fill:#00ffff;fill-rule:evenodd;stroke:#000000;stroke-width:0.6047619px;stroke-linecap:butt;stroke-linejoin:miter;stroke-opacity:1" id="eaglynew" sodipodi:cx="73.308212" sodipodi:cy="393.74982" sodipodi:expansion="1" sodipodi:revolution="3" sodipodi:radius="41.613129" sodipodi:argument="-18.147299" sodipodi:t0="0" d="m 73.308212,393.74982 c 1.592741,1.3477 -1.030876,2.81189 -2.239973,2.64724 -3.276579,-0.4462 -4.137127,-4.52375 -3.054508,-7.12719 1.936552,-4.65694 7.887895,-5.67954 12.014402,-3.46177 6.055815,3.25466 7.263028,11.296 3.869042,16.90161 -4.52365,7.4714 -14.719492,8.86373 -21.788831,4.27631 -8.896041,-5.77281 -10.473289,-18.15026 -4.683575,-26.67604 7.01212,-10.32587 21.585119,-12.08797 31.563258,-5.09085 11.758893,8.24586 13.705843,25.02253 5.49811,36.45048 -9.476152,13.19401 -28.461631,15.32586 -41.337687,5.90537 -14.630593,-10.70415 -16.947384,-31.90193 -6.312644,-46.2249 11.930572,-16.06821 35.343106,-18.56999 51.112116,-6.71991 17.506588,13.15584 20.193418,38.78494 7.127178,55.99933" transform="translate(25, 25 )">
    <desc id="desc36">a new test shape to play with! :)</desc>
  </path><rect xmlns="http://www.w3.org/2000/svg" height="10" id="AvrilNiblet1" onmouseout="setAttribute('fill-opacity','0.5')" onmouseover="setAttribute('fill-opacity','1.0')" style="fill:yellow;stroke:black" width="10" x="225" y="225" transform="translate(25, 25 )">
    <desc id="desc71">Avril's first little niblet! :)</desc>
    <title id="title73"/>
  </rect><path xmlns="http://www.w3.org/2000/svg" fill-opacity="0.43046721000000016" onmousedown="Reverse(PurpleSpiral)" id="PurpleSpiral" d="m 282.09113,269.50729 c 1.52075,1.52076 -1.29967,2.80025 -2.52761,2.52761 -3.32763,-0.73884 -3.86257,-5.00113 -2.5276,-7.58281 2.38796,-4.61803 8.58895,-5.15902 12.63801,-2.5276 5.94217,3.86172 6.4939,12.22544 2.5276,17.69322 -5.28645,7.28768 -15.87921,7.84514 -22.74842,2.52759 -8.6442,-6.69159 -9.20486,-19.54122 -2.5276,-27.80363 8.08706,-10.00688 23.20787,-10.56947 32.85884,-2.52759 11.37333,9.47708 11.93717,26.8774 2.52759,37.91404 -10.86373,12.74223 -30.54887,13.30692 -42.96924,2.52759 -14.11282,-12.24817 -14.67812,-34.22169 -2.52759,-48.02445 13.63105,-15.4846 37.8955,-16.05034 53.07965,-2.52759 16.85728,15.01283 17.42336,41.57006 2.52759,58.13486" inkscape:tile-cx="185.6451" xmlns:inkscape="http://www.inkscape.org/namespaces/inkscape" inkscape:tile-cy="265.9547" inkscape:tile-h="68.00056" inkscape:tile-w="75.106916" inkscape:tile-x0="148.09164" inkscape:tile-y0="231.95443" sodipodi:argument="-18.064157" xmlns:sodipodi="http://sodipodi.sourceforge.net/DTD/sodipodi-0.dtd" sodipodi:cx="182.09113" sodipodi:cy="269.50729" sodipodi:expansion="1" sodipodi:radius="42.894836" sodipodi:revolution="3" sodipodi:t0="0" sodipodi:type="spiral" style="fill:#800080;fill-rule:evenodd;stroke:#000000;stroke-width:0.2081555px;stroke-linecap:butt;stroke-linejoin:miter;stroke-opacity:1" transform="translate(25, 25)"/><image xmlns="http://www.w3.org/2000/svg" id="back3" width="448" height="448" x="1" y="1" xlink:href="creatures/png/back3.png" xmlns:xlink="http://www.w3.org/1999/xlink"/><image xmlns="http://www.w3.org/2000/svg" id="galaxy3" width="294" height="150" x="150" y="100" style="opacity:0.5" onmousedown="tool(eg_newy)" xlink:href="creatures/png/galaxy3.png" xmlns:xlink="http://www.w3.org/1999/xlink" transform="translate(25, 25 )"/><image xmlns="http://www.w3.org/2000/svg" id="galaxy4" width="306" height="150" x="50" y="250" style="opacity:0.25" onmousedown="tool(eg_newy2)" xlink:href="creatures/png/galaxy4.png" xmlns:xlink="http://www.w3.org/1999/xlink" transform="translate(25, 12.5 )"/><image xmlns="http://www.w3.org/2000/svg" id="planet3" width="157" height="150" x="100" y="250" style="opacity:0.5" onmousedown="tool(eg_niblet)" xlink:href="creatures/png/planet3.png" xmlns:xlink="http://www.w3.org/1999/xlink" transform="translate(25, 0.0 )"/><image xmlns="http://www.w3.org/2000/svg" id="planet4" width="150" height="150" x="300" y="150" style="opacity:0.9" onmousedown="tool(eg_medy)" xlink:href="creatures/png/planet4.png" xmlns:xlink="http://www.w3.org/1999/xlink" transform="translate(25, 0.0 )"/><image xmlns="http://www.w3.org/2000/svg" id="satellite3" width="79" height="150" x="200" y="250" onmousedown="tool(satellite3)" xlink:href="creatures/png/satellite3.png" xmlns:xlink="http://www.w3.org/1999/xlink" transform="translate(25, 25 )"/><image xmlns="http://www.w3.org/2000/svg" id="satellite4" width="109" height="75" x="50" y="50" onmousedown="tool(satellite4)" xlink:href="creatures/png/satellite4.png" xmlns:xlink="http://www.w3.org/1999/xlink" transform="translate(25, 25 )"/><image xmlns="http://www.w3.org/2000/svg" id="mediumcreature3" width="38" height="50" x="300" y="175" onmousedown="tool(the_rect)" xlink:href="creatures/png/mediumcreature3.png" xmlns:xlink="http://www.w3.org/1999/xlink" transform="translate( 0.0 , 25 )"/><image xmlns="http://www.w3.org/2000/svg" id="niblet3" width="21" height="32" x="400" y="350" onmousedown="tool(pink_rect)" xlink:href="creatures/png/niblet3.png" xmlns:xlink="http://www.w3.org/1999/xlink" transform="translate( 0.0 , 25 )"/><image xmlns="http://www.w3.org/2000/svg" id="bigbeauty3" width="92" height="110" x="100" y="150" onmousedown="tool(eg_biggo)" xlink:href="creatures/png/bigbeauty3.png" xmlns:xlink="http://www.w3.org/1999/xlink" transform="translate(25, 0.0 )"/><g xmlns="http://www.w3.org/2000/svg" id="Creature-0.8799094619504702" style="fill:#866b37;stroke:#7f504d" stroke-width="31.097817511041768" opacity="0.7728918869986822" transform="translate(105.0598908806155, -59.862758335088614) rotate(0.5254295435245477 256.4083251953125 55.39166259765625)" onmousedown="tool('Creature-0.8799094619504702')" class="creatureClass"><title>Creature-0.8799094619504702</title><desc>moveLifePathCreatureNext("Creature-0.8799094619504702", 1, 1)</desc><path id="Creature-0.8799094619504702-part" d="M 111.33131404909348, 7.081175121068549 Q 109.18455765603404, 27.072483868107383 68.9982462387527, 2.246435533594052 T 98.65499194516137, 31.174733000244753, 159.1758659430248 25.654830219192224, 48.37412649327224 10.218536051317525, 130.16993300772796 10.358683076786248, 118.83788714750074 9.673192715735237 z" stroke-width="9.000757755119654" opacity="0.9796629176299333" class="creaturePartClass"/><path id="Creature-0.8799094619504702-part" d="M 178.6291537983647, 34.83414943734229 Q 87.9348455870217, 3.6939860896304766 77.78508456312959, 32.524858041345084 T 6.930027153480933, 26.899753131888364, 91.0096584809966 8.103821437946992, 15.372466280168512 18.716492303728938, 156.8278134130301 20.58121878799049, 72.47561952628257 28.45971057136444 z" stroke-width="4.677516948800768" opacity="0.6953699256929241" class="creaturePartClass"/><path id="Creature-0.8799094619504702-part" d="M 96.02979874364416, 17.684208006605804 Q 65.24683806139367, 8.973017230369322 133.4338964440983, 10.285892238020294 T 129.03263928934408, 3.840087069299529, 8.754367389057762 14.935524674434523, 159.1038824255292 16.892254323005613, 7.460100272828109 5.116195743807542, 32.58387606133036 32.39268771730915 z" stroke-width="6.93697726901688" opacity="0.8978609162034967" class="creaturePartClass"/><path id="Creature-0.8799094619504702-part" d="M 6.135061613161623, 2.3528469927187343 Q 44.71969713281485, 0.5047334215370302 64.36060486827327, 6.298600138585082 T 38.09247427668594, 22.48002067993644, 65.98968984821451 30.90587023034471, 50.64366081037019 2.679374228632161, 38.12333758515907 16.24240971749982, 97.50428756414003 13.094326530378627 z" stroke-width="12.053387172764198" opacity="0.9267853637866476" class="creaturePartClass"/></g><g xmlns="http://www.w3.org/2000/svg" id="Creature-0.9680193569458035" style="fill:#bc1d24;stroke:#8f3de6" stroke-width="0.6669548048408958" opacity="0.6862846363034624" transform="translate(241.34814453125, -236.0784149169922) rotate(-0.14124934352536292 289.625 270.375)" onmousedown="tool('Creature-0.9680193569458035')" class="creatureClass"><title>Creature-0.9680193569458035</title><desc>moveLifePathCreatureNext("Creature-0.9680193569458035", 1, 1)</desc><path id="Creature-0.9680193569458035-part" d="M 13.411473328027915, 390.69853940950395 Q 17.676645202363627, 145.0144264132569 21.85054708681004, 221.60657692696836 T 1.3832890102948985, 0.6704574483108965, 23.547797081517018 551.2441155836887, 0.1394316663849967 524.6267355062632, 7.9858265917606435 5.6435277404538455, 5.875396741969728 20.14206636495035 z" stroke-width="10.293543823983185" opacity="0.988392627916091" class="creaturePartClass"/><path id="Creature-0.9680193569458035-part" d="M 3.026964179855501, 487.264213739603 Q 25.94046176227705, 282.6204588402418 18.331453028337563, 310.9836910167988 T 49.22735452372329, 381.8050909576183, 47.92821928973017 499.40916861206415, 23.06849865668107 138.22778581823098, 17.567888184707048 523.0591628755504, 14.176820216093766 242.24106111123785 z" stroke-width="35.136017478754276" opacity="0.8005315730838735" class="creaturePartClass"/><path id="Creature-0.9680193569458035-part" d="M 17.244781487453775, 428.7541155355534 Q 48.993526057134986, 237.7500423125248 20.35104850531458, 563.3444458404979 T 36.528056474340715, 278.4358152116105, 3.4586520316210767 18.4564894103023, 6.223000279522302 477.4320376683212, 4.725414471339281 295.09508719135044, 50.46760679514732 219.63409713310307 z" stroke-width="26.92878203242806" opacity="0.7570596861332989" class="creaturePartClass"/><path id="Creature-0.9680193569458035-part" d="M 29.00217020320493, 505.3867778315116 Q 45.53774417781409, 161.97927653451507 41.0072233027661, 559.0423821656386 T 33.326467250672614, 257.7670267961675, 8.990133396947169 0.5931393671184391, 50.61556235463907 310.1350787654333, 19.621907004181246 505.10700052046343, 39.498525376744006 88.00582080479394 z" stroke-width="15.738439774439122" opacity="0.9310628731890629" class="creaturePartClass"/></g><g xmlns="http://www.w3.org/2000/svg" id="Creature-0.8769243908475614" style="fill:#c1b519;stroke:#e217f3" stroke-width="38.73926047792298" opacity="0.5215533779661621" transform="translate(124.75995379575191, -361.41799731158386) rotate(-0.0029368539075321247 167.19166564941406 102.64166259765625)" onmousedown="tool('Creature-0.8769243908475614')" class="creatureClass"><title>Creature-0.8769243908475614</title><desc>moveLifePathCreatureNext("Creature-0.8769243908475614", 1, 1)</desc><path id="Creature-0.8769243908475614-part" d="M 36.1827494770366, 390.74364881482353 Q 29.673023446862558, 91.81770874046569 87.11926628803933, 208.4645413934694 T 69.65347522344948, 353.2330685726583, 72.65190257545669 518.7893384257984, 40.39094437020303 85.64037358942905, 63.425528643488065 494.7143234435722, 34.0329947678652 269.07424434969397 z" stroke-width="19.343471155033967" opacity="0.8979692143815308" class="creaturePartClass"/><path id="Creature-0.8769243908475614-part" d="M 13.002818721357675, 421.86653509583243 Q 93.02297358356584, 244.1711988050163 92.99161056402427, 527.3000961213262 T 32.85302231829563, 222.48243446706985, 85.2670254350546 411.55925633487647, 28.365529704410083 197.2110507088176, 10.158854011639571 331.7201951836944, 47.89909744755376 402.7378517017803 z" stroke-width="29.09102267992647" opacity="0.8881968008997594" class="creaturePartClass"/><path id="Creature-0.8769243908475614-part" d="M 3.146632312791, 329.3498169263146 Q 29.586273552493644, 284.4309554343868 45.107891034180035, 407.2914492388558 T 88.73507708383208, 324.2933479658935, 91.43831738414967 360.57236728917076, 13.219916450427514 396.50998986409235, 37.88642814820043 369.25103232416893, 40.50959506998261 517.3382492827769 z" stroke-width="29.65541244511965" opacity="0.8384620061731903" class="creaturePartClass"/><path id="Creature-0.8769243908475614-part" d="M 99.97253927462337, 162.62866714071473 Q 49.389360827359745, 353.6819797985615 59.469767781030995, 382.47818848772715 T 43.57890967693962, 97.48165471300112, 53.9947922875214 493.91562146659925, 20.85004229405332 230.37120419339843, 13.504418036044893 288.7563252446607, 39.82942369493308 451.41816709647765 z" stroke-width="6.36053546490126" opacity="0.9818474009992785" class="creaturePartClass"/></g><g xmlns="http://www.w3.org/2000/svg" id="Creature-0.25541038640402536" style="fill:#188b1f;stroke:#655882" stroke-width="16.4147450458385" opacity="0.9210153859662191" transform="translate(-44.0528621673584, -127.61732482910156) rotate(0.1040754359104004 76.05000305175781 370.3999938964844)" onmousedown="tool('Creature-0.25541038640402536')" class="creatureClass"><title>Creature-0.25541038640402536</title><desc>moveLifePathCreatureNext("Creature-0.25541038640402536", 1, 1)</desc><path id="Creature-0.25541038640402536-part" d="M 144.47518275428553, 438.971116190071 Q 108.88689323809109, 498.66787644589795 23.40093929963921, 305.45090823552243 T 39.88437803133404, 236.9086478005228, 196.20834779349917 458.31964213542085, 42.15238374920775 239.75417811162785, 115.48098449908967 302.31175469959015, 155.20517199498403 26.347518519413093 z" stroke-width="14.995315882099542" opacity="0.4773580226852353" class="creaturePartClass"/><path id="Creature-0.25541038640402536-part" d="M 83.75618501210072, 116.39712499460737 Q 77.50904008153252, 446.7941721269961 128.41156368206896, 47.881156951795255 T 50.243138631289014, 454.1424022602067, 183.83170116693057 457.0480942882907, 182.41944944704903 217.91897176268014, 20.01471828172396 374.4712474441967, 21.113592648179242 365.73056034086954 z" stroke-width="25.583141482699144" opacity="0.8785656416730833" class="creaturePartClass"/><path id="Creature-0.25541038640402536-part" d="M 120.16192966504767, 356.19241885927744 Q 125.28410713363512, 471.4632870333703 84.7545410956059, 187.1963823902871 T 61.83765254353146, 24.204462387241556, 135.8986176696413 188.01724912091098, 198.45313615452554 58.5229613330279, 117.82023466426512 1.97042468639969, 60.10201028078578 121.93205018680385 z" stroke-width="25.57448175456878" opacity="0.8265532852214348" class="creaturePartClass"/><path id="Creature-0.25541038640402536-part" d="M 69.8153253177238, 267.2537459592005 Q 132.68496024996512, 310.85383391946584 159.37365094880246, 491.6772020788061 T 162.07489169109303, 171.60069299189024, 1.7014526218337482 180.7016191313742, 187.04504283903273 249.33105690903196, 78.85080416220688 111.95095417619454, 29.312225630922303 281.16233323404396 z" stroke-width="11.34927239587289" opacity="0.6139002542388308" class="creaturePartClass"/></g><g xmlns="http://www.w3.org/2000/svg" id="Creature-0.9952937478484829" style="fill:#a3f4a4;stroke:#c78267" stroke-width="12.63662789985923" opacity="0.7696630249310413" transform="translate(138.46157901051708, -477.1707800130721) rotate(-0.01068331928277198 265.5166778564453 -96.04998779296875)" onmousedown="tool('Creature-0.9952937478484829')" class="creatureClass"><title>Creature-0.9952937478484829</title><desc>moveLifePathCreatureNext("Creature-0.9952937478484829", 1, 1)</desc><path id="Creature-0.9952937478484829-part" d="M 180.49314602366746, 337.23661646567217 Q 40.53207872079711, 86.08872658953771 153.1369441158162, 360.2731274789084 T 24.161839274658597, 89.53707217124814, 146.76887840281927 357.0832325641655, 172.3862906568583 263.933582549104, 67.22303391520356 304.92623313299293, 34.59521695606891 439.05741382736693 z" stroke-width="33.005275511848" opacity="0.974279559533727" class="creaturePartClass"/><path id="Creature-0.9952937478484829-part" d="M 28.1957330347244, 331.180625509808 Q 158.55832339357175, 423.66102845630996 139.04848392934733, 172.49546147235134 T 161.14130455350275, 425.66907877420124, 54.53227053273309 420.6907829032297, 21.980256733335647 328.1617646089273, 34.04376249567851 197.50666723306207, 45.17145272895934 450.68565808611265 z" stroke-width="27.49525489741227" opacity="0.546364599250648" class="creaturePartClass"/><path id="Creature-0.9952937478484829-part" d="M 54.99402835760388, 212.6076006906374 Q 41.51286729368351, 57.640652534627634 24.812085304065114, 239.82699112829857 T 88.63322762536582, 22.6810478644099, 144.2785795881486 351.8480828181483, 190.8576770455478 398.17956365333885, 130.65363787860352 214.85267795908578, 126.84227903320406 465.8007340195694 z" stroke-width="23.19024033126989" opacity="0.4503048393680106" class="creaturePartClass"/><path id="Creature-0.9952937478484829-part" d="M 123.02516098541469, 115.85683777677404 Q 184.82332938970256, 514.8132191007177 201.5855664526848, 501.2574374278356 T 145.09028717712903, 197.6385461202917, 91.3345627800973 450.0104857549276, 76.284195745123 12.586634352742626, 170.72645168270438 119.59965297384137, 108.18413409714383 532.4351921227922 z" stroke-width="31.879090542832" opacity="0.9634882226636151" class="creaturePartClass"/></g><g xmlns="http://www.w3.org/2000/svg" id="Creature-0.08102674019261791" style="fill:#2058e8;stroke:#8529bb" stroke-width="33.460327543607264" opacity="0.7488407030826232" transform="translate(123.695068359375, 85.72077178955078) rotate(0.254286342720334 275.0833282470703 279.98333740234375)" onmousedown="tool('Creature-0.08102674019261791')" class="creatureClass"><title>Creature-0.08102674019261791</title><desc>moveLifePathCreatureNext("Creature-0.08102674019261791", 1, 1)</desc><path id="Creature-0.08102674019261791-part" d="M 222.53170752592231, 137.49165463863812 Q 83.30545385853111, 111.07889467472093 207.57743538574198, 155.24203504781636 T 4.460938375103774, 62.44823882998679, 143.5469496837129 124.43027414306435, 185.38765699126765 69.9193337281236, 123.45918108055446 51.22411813250525, 129.6786626023124 138.451245431486 z" stroke-width="9.563713003340574" opacity="0.5206118116222419" class="creaturePartClass"/><path id="Creature-0.08102674019261791-part" d="M 220.0669921755021, 25.883184932306634 Q 256.2922839660986, 35.9041911566211 131.11833691248117, 61.43185090661177 T 31.040181127385992, 70.82661164998626, 189.75697446888026 24.194389088290475, 193.5915837691104 84.84686574186794, 51.864732041349015 70.94584682495592, 251.82414826046673 94.90425741544907 z" stroke-width="2.2047134169530613" opacity="0.848393852028838" class="creaturePartClass"/><path id="Creature-0.08102674019261791-part" d="M 139.1143341129842, 118.2386581247578 Q 51.85559718668894, 150.49022568872593 28.827413785844268, 9.391677879799857 T 182.43566538933808, 57.63858505758043, 180.7317058600324 87.58713517487995, 61.686733978195655 126.52694445079673, 174.0014501346534 139.6148464587657, 118.98330031901179 97.13173154859838 z" stroke-width="8.422984483615066" opacity="0.8849662385385989" class="creaturePartClass"/><path id="Creature-0.08102674019261791-part" d="M 73.15103270840986, 141.69447576624253 Q 229.2874801764289, 107.42255517433682 114.93360287175065, 132.64022188579054 T 65.33592830669923, 32.47798253861074, 267.1006507097709 31.39275269654352, 199.47425190972353 105.58230923300871, 159.5791261478571 108.39401973699538, 81.50095925557086 90.32704162669856 z" stroke-width="23.45823192075366" opacity="0.9084706854706307" class="creaturePartClass"/></g><g xmlns="http://www.w3.org/2000/svg" id="Creature-0.5622317974870047" style="fill:#d6a4b2;stroke:#c7c9dd" stroke-width="24.860967047462776" opacity="0.6273558417375558" transform="translate(224.61472262725746, -30.56108197440045) rotate(-1.7936058453494776 112.18333435058594 85.44999694824219)" onmousedown="tool('Creature-0.5622317974870047')" class="creatureClass"><title>Creature-0.5622317974870047</title><desc>moveLifePathCreatureNext("Creature-0.5622317974870047", 1, 1)</desc><path id="Creature-0.5622317974870047-part" d="M 71.89516905975522, 8.35182847810863 Q 33.82125481997977, 29.168200843889014 21.091449922306843, 36.333638615408134 T 78.51847402891028, 1.466683383491763, 22.064155908530843 19.715467595219742, 47.422260749774786 23.54133120371664, 78.40927609044611 29.197458702095915, 3.7512296933610405 17.033840750202863 z" stroke-width="1.5469276540336674" opacity="0.9812440641180804" class="creaturePartClass"/><path id="Creature-0.5622317974870047-part" d="M 50.52159904243516, 20.33187928854865 Q 32.963683852577354, 34.46752932288884 27.87057395605916, 39.029687677584576 T 41.184069536244685, 23.46069766150608, 66.48517033944952 1.2149767581295094, 3.9928157002181255 20.761830427627814, 73.40746476540589 11.857879593971022, 66.25302306072597 30.893735027937215 z" stroke-width="29.503071232389985" opacity="0.8624234827549331" class="creaturePartClass"/><path id="Creature-0.5622317974870047-part" d="M 23.359724283055456, 0.08737213346639348 Q 6.170258841090191, 24.536901662575186 31.335028621070084, 33.61611024822699 T 3.82424092735009, 19.58287966961816, 64.0095575932895 8.914937251434266, 17.21255160171935 12.243870783472007, 16.79197788160394 32.91343894172496, 58.80236330533731 32.56436052427271 z" stroke-width="5.612702164089595" opacity="0.7874565190420183" class="creaturePartClass"/><path id="Creature-0.5622317974870047-part" d="M 22.697119370405208, 35.79273324512919 Q 43.217882693250196, 15.067053804152165 58.12384285249582, 38.743507713404945 T 60.1204501889564, 32.19762910082098, 75.53819442640538 34.973249028199014, 3.3764169340704515 13.0266341714075, 23.74312790680087 31.083413789449363, 56.7396788292064 9.68021039733793 z" stroke-width="15.858962433744773" opacity="0.6065649826369913" class="creaturePartClass"/></g><g xmlns="http://www.w3.org/2000/svg" id="Creature-0.6456494674344143" style="fill:#cb6b8c;stroke:#f956cc" stroke-width="13.578216865504814" opacity="0.5613330536412429" transform="translate(145.2415421272578, 148.79508825674074) rotate(0.1078125148930786 208.50833129882812 198.9166717529297)" onmousedown="tool('Creature-0.6456494674344143')" class="creatureClass"><title>Creature-0.6456494674344143</title><desc>moveLifePathCreatureNext("Creature-0.6456494674344143", 1, 1)</desc><path id="Creature-0.6456494674344143-part" d="M 60.85111327825091, 87.26367717091071 Q 177.09456513972358, 13.949399213086053 151.23391512266195, 157.35333559391665 T 253.84364835983612, 19.858840575298768, 169.22886285011884 145.55107277991445, 197.7899543633141 158.53401244900422, 174.82388899701542 69.91675433036117, 42.33055362501418 72.50049846688083 z" stroke-width="1.783080457797177" opacity="0.7799371233867282" class="creaturePartClass"/><path id="Creature-0.6456494674344143-part" d="M 131.98782274323997, 50.776501312434256 Q 1.1479674494425158, 5.632454203314193 96.47108952148163, 110.7172008170997 T 48.70543808759983, 180.82492799790052, 156.84402031524172 27.461552130262195, 230.08622996509487 16.417430351170978, 36.75260325196679 39.77917466526369, 229.88816292900677 63.138867572006944 z" stroke-width="16.08375867905781" opacity="0.9435103090315982" class="creaturePartClass"/><path id="Creature-0.6456494674344143-part" d="M 217.11891523488023, 124.17484525978183 Q 27.960079862430145, 77.24428984559827 89.97834795614251, 69.95882024056478 T 103.10224498177703, 91.9980847314627, 262.13472851251584 93.30185237262327, 252.42015311089685 84.07429007413124, 246.801464648004 23.129594086121443, 35.23207143501764 190.39403269155477 z" stroke-width="6.60261946451159" opacity="0.8152261553535861" class="creaturePartClass"/><path id="Creature-0.6456494674344143-part" d="M 230.80107188316177, 164.1183652712796 Q 53.504128002524524, 9.916008442954208 183.91534989938626, 170.70453061843065 T 1.5405619130285853, 56.73466071320578, 136.81874287914997 54.982851263837595, 148.52799143829935 170.9149124031195, 45.63008894048922 39.828840781874895, 90.55902293802735 190.8134258948254 z" stroke-width="29.440963748255726" opacity="0.8898994638173696" class="creaturePartClass"/></g><g xmlns="http://www.w3.org/2000/svg" id="Creature-0.6004407999863004" style="fill:#28cc81;stroke:#c6e7bf" stroke-width="32.74283167935743" opacity="0.9183544730108504" transform="translate(-170.15960693359375, -181.8923797607422) rotate(-0.265218595605698 -144.4000015258789 30.433319091796875)" onmousedown="tool('Creature-0.6004407999863004')" class="creatureClass"><title>Creature-0.6004407999863004</title><desc>moveLifePathCreatureNext("Creature-0.6004407999863004", 1, 1)</desc><path id="Creature-0.6004407999863004-part" d="M 2.805716188081428, 283.4568086270311 Q 6.76055394147375, 270.88930603176243 6.074640375954691, 309.71125499014806 T 3.420402785350947, 336.61525918566076, 0.0844979661885185 16.109644508474084, 2.479241737442555 280.6356813266399, 4.902402909409069 44.36997005603329, 1.4633508161643982 251.4783456828839 z" stroke-width="31.289999117853185" opacity="0.980167355763288" class="creaturePartClass"/><path id="Creature-0.6004407999863004-part" d="M 3.0173932087859523, 321.597041838889 Q 2.783317068168545, 276.43492735224305 2.997289242353501, 25.58303627593773 T 2.3689321299035195, 91.89547959228996, 0.5992843024902121 293.98595367835935, 0.2620762925891603 30.585702396382775, 1.025548815289261 342.84007123940074, 4.118591105928427 329.1752169375736 z" stroke-width="4.279230827883134" opacity="0.9894022961482" class="creaturePartClass"/><path id="Creature-0.6004407999863004-part" d="M 0.6922914362126412, 98.67249645650554 Q 5.908164708739473, 334.30754099832535 4.605034048259753, 158.80493637388946 T 5.6557768148477745, 27.100028730617023, 0.33916590886099296 326.8672242887405, 0.5085837078055311 56.10849742645012, 0.5567953679219534 58.75792543353667, 6.004183717102463 46.28617223439091 z" stroke-width="35.08554954646571" opacity="0.8233461693186783" class="creaturePartClass"/><path id="Creature-0.6004407999863004-part" d="M 4.408971132979298, 101.54557968801515 Q 5.641466564924674, 303.2082763743334 6.775206820110862, 307.41670357808954 T 2.48972657215776, 92.07192843503655, 3.0822830619244344 198.9901054742542, 1.5920577520317518 120.90712018750234, 1.6852215701762114 238.20111393307164, 3.4362162737264117 228.27262854695962 z" stroke-width="10.454063647736106" opacity="0.4136149455595227" class="creaturePartClass"/></g><path xmlns="http://www.w3.org/2000/svg" id="Creature-0.515148950040452" d="M 3.3711891640590133, 206.20322530017964 Q 278.1615004852849, 156.11931344540292 2.035109510161468, 102.95970101415904 T 71.43269304246165, 214.3970991600213, 270.92024960209915 199.6023296804933, 276.91163377060656 82.59773957207292, 80.27350544696604 0.8797260436529302, 275.54507651640006 175.83884904925486 z" style="fill:#223f73;stroke:#4917b8" stroke-width="8.546843950791542" opacity="0.8367134104381813" transform="translate(186.78946858529739, 125.73161146026658) rotate(0.571496196182486 148.18333435058594 378.4916687011719)" onmousedown="tool('Creature-0.515148950040452')" class="creatureClass"><title>Creature-0.515148950040452</title><desc>moveLifePathCreature2("Creature-0.515148950040452", 1, 1)</desc></path><path xmlns="http://www.w3.org/2000/svg" id="Creature-0.8512297124387695" d="M 1691.6677626690384, 145.1727670926692 Q 913.1734755814389, 208.76821850834776 2523.8973172889896, 6.388723523993563 T 191.40787872781982, 470.68732885508246, 1097.653795713396 451.83999580238213, 3127.8381757143325 218.26590843247786, 1068.5781744509309 307.4890792589559, 2074.027470088564 476.9763652001463 z" style="fill:#9b5184;stroke:#a1fad5" stroke-width="9.541978337183163" opacity="0.8190760054317852" transform="translate(-284.67462158203125, -413.8490905761719) rotate(-0.32238906210850465 1031.875 76.85833740234375)" onmousedown="tool('Creature-0.8512297124387695')" class="creatureClass"><title>Creature-0.8512297124387695</title><desc>moveLifePathCreatureNext("Creature-0.8512297124387695", 1, 1)</desc></path></svg>