<?xml version="1.0" encoding="UTF-8" standalone="no"?>
<!-- Created with LifeFLOW (http://life.worldsowisdom.com/flow/) -->

<svg
   xmlns:osb="http://www.openswatchbook.org/uri/2009/osb"
   xmlns:dc="http://purl.org/dc/elements/1.1/"
   xmlns:cc="http://creativecommons.org/ns#"
   xmlns:rdf="http://www.w3.org/1999/02/22-rdf-syntax-ns#"
   xmlns:svg="http://www.w3.org/2000/svg"
   xmlns="http://www.w3.org/2000/svg"
   xmlns:xlink="http://www.w3.org/1999/xlink"
   xmlns:sodipodi="http://sodipodi.sourceforge.net/DTD/sodipodi-0.dtd"
   xmlns:inkscape="http://www.inkscape.org/namespaces/inkscape"
   width="450"
   height="450"
   viewBox="0 0 450 450"
   id="svg2"
   version="1.1"
   inkscape:version="0.91 r13725"
   sodipodi:docname="newcreatures-plain.svg">
  <defs
     id="defs4">
    <linearGradient
       inkscape:collect="always"
       id="linearGradient6501">
      <stop
         style="stop-color:#0000ff;stop-opacity:1;"
         offset="0"
         id="stop6503" />
      <stop
         style="stop-color:#0000ff;stop-opacity:0;"
         offset="1"
         id="stop6505" />
    </linearGradient>
    <linearGradient
       id="linearGradient6455"
       osb:paint="solid">
      <stop
         style="stop-color:#0000ff;stop-opacity:1;"
         offset="0"
         id="stop6457" />
    </linearGradient>
    <filter
       inkscape:collect="always"
       style="color-interpolation-filters:sRGB"
       id="filter5001"
       x="-0.37912726"
       width="1.7582545"
       y="-0.65848422"
       height="2.3169684">
      <feGaussianBlur
         inkscape:collect="always"
         stdDeviation="6.3692616"
         id="feGaussianBlur5003" />
    </filter>
    <linearGradient
       inkscape:collect="always"
       xlink:href="#linearGradient6501"
       id="linearGradient6507"
       x1="242.51431"
       y1="178.50594"
       x2="313.40628"
       y2="178.50594"
       gradientUnits="userSpaceOnUse"
       gradientTransform="translate(-215.03742,319.7082)" />
  </defs>
  <sodipodi:namedview
     id="base"
     pagecolor="#ffffff"
     bordercolor="#666666"
     borderopacity="1.0"
     inkscape:pageopacity="0.0"
     inkscape:pageshadow="2"
     inkscape:zoom="0.24748738"
     inkscape:cx="463.57331"
     inkscape:cy="265.90363"
     inkscape:document-units="px"
     inkscape:current-layer="layer1"
     showgrid="false"
     inkscape:window-width="1366"
     inkscape:window-height="706"
     inkscape:window-x="-8"
     inkscape:window-y="-8"
     inkscape:window-maximized="1"
     units="px" />
  <metadata
     id="metadata7">
    <rdf:RDF>
      <cc:Work
         rdf:about="">
        <dc:format>image/svg+xml</dc:format>
        <dc:type
           rdf:resource="http://purl.org/dc/dcmitype/StillImage" />
        <dc:title></dc:title>
      </cc:Work>
    </rdf:RDF>
  </metadata>
  <g
     inkscape:label="Layer 1"
     inkscape:groupmode="layer"
     id="layer1"
     transform="translate(0,-364.28567)">
    <path
       sodipodi:type="star"
       style="opacity:0.28999999;fill:#00ffff;stroke:#800080"
       id="path4136eg"
       sodipodi:sides="5"
       sodipodi:cx="149.96248"
       sodipodi:cy="470.92843"
       sodipodi:r1="84.03109"
       sodipodi:r2="42.015545"
       sodipodi:arg1="0.31099828"
       sodipodi:arg2="0.93931681"
       inkscape:flatsided="false"
       inkscape:rounded="0"
       inkscape:randomized="0"
       d="m 229.96248,496.64272 -55.19656,8.19877 -24.53782,50.11762 -24.85417,-49.96149 -55.247286,-7.84966 39.835836,-39.07667 -9.60688,-54.96897 49.47407,25.81078 49.30991,-26.12303 -9.25918,55.0286 z"
       inkscape:transform-center-x="-0.082081267"
       inkscape:transform-center-y="7.9461513" />
    <path
       inkscape:transform-center-y="2.4320959"
       inkscape:transform-center-x="-0.025122895"
       d="m 68.791599,427.6385 -16.894071,2.5094 -7.510317,15.33956 -7.607143,-15.29177 -16.909598,-2.40255 12.192598,-11.96024 -2.940388,-16.82442 15.142583,7.89994 15.092337,-7.99551 -2.833967,16.84267 z"
       inkscape:randomized="0"
       inkscape:rounded="0"
       inkscape:flatsided="false"
       sodipodi:arg2="0.93931681"
       sodipodi:arg1="0.31099828"
       sodipodi:r2="12.859744"
       sodipodi:r1="25.719488"
       sodipodi:cy="419.76809"
       sodipodi:cx="44.305912"
       sodipodi:sides="5"
       id="path4138eg"
       style="opacity:0.28999999;fill:#00ffff;stroke:#800080;stroke-width:0.3060711"
       sodipodi:type="star" />
    <g
       id="BiggoEGbg"
       transform="translate(-109.96232,143.76849)">
      <desc
         id="desc4151">A big creature for LifeFLOW! :)</desc>
      <circle
         r="29.934187"
         cy="259.14496"
         cx="302.39636"
         id="path4137eg"
         style="opacity:0.28999999;fill:#ffff00;stroke:#800080;stroke-width:0.6047619" />
      <circle
         r="7.3308215"
         cy="265.86487"
         cx="307.8945"
         id="path4139eg"
         style="opacity:0.28999999;fill:#ffff00;stroke:#800080;stroke-width:0.6047619" />
      <ellipse
         ry="10.996231"
         rx="3.6654108"
         cy="251.20323"
         cx="292.01105"
         id="path4141eg"
         style="opacity:0.28999999;fill:#0000ff;stroke:#800080;stroke-width:0.6047619" />
      <ellipse
         ry="3.6654108"
         rx="9.7744284"
         cy="253.64687"
         cx="317.66891"
         id="path4143eg"
         style="opacity:0.28999999;fill:#0000ff;stroke:#800080;stroke-width:0.6047619" />
    </g>
    <rect
       style="opacity:0.87000002;fill:url(#linearGradient6507);fill-opacity:1;stroke:#0000ff;stroke-width:0.6047619;stroke-miterlimit:4;stroke-dasharray:none;filter:url(#filter5001)"
       id="MedyEGbg"
       width="40.319515"
       height="23.214266"
       x="42.763119"
       y="486.60684" />
    <g
       id="g6519eg"
       inkscape:label="#MedyEG"
       transform="translate(0,53.355016)">
      <rect
         y="281.74832"
         x="59.868374"
         height="31.766891"
         width="63.533783"
         id="rect6509eg"
         style="opacity:0.87000002;fill:#0000ff;fill-opacity:1;stroke:#0000ff;stroke-width:0.6047619;stroke-miterlimit:4;stroke-dasharray:none" />
      <path
         inkscape:transform-center-y="-0.19571458"
         inkscape:transform-center-x="0.72308977"
         d="m 81.860835,300.07539 -6.160837,-1.4834 -4.714657,4.23419 -0.493011,-6.31769 -5.483865,-3.17547 5.856139,-2.42116 1.325442,-6.19674 4.112304,4.82134 6.303033,-0.65433 -3.314595,5.40091 z"
         inkscape:randomized="0"
         inkscape:rounded="0"
         inkscape:flatsided="false"
         sodipodi:arg2="1.3230568"
         sodipodi:arg1="0.69473828"
         sodipodi:r2="4.7712951"
         sodipodi:r1="9.5425901"
         sodipodi:cy="293.96637"
         sodipodi:cx="74.530014"
         sodipodi:sides="5"
         id="path6511eg"
         style="opacity:0.87000002;fill:#ff8080;fill-opacity:1;stroke:#0000ff;stroke-width:0.6047619;stroke-miterlimit:4;stroke-dasharray:none"
         sodipodi:type="star" />
      <path
         inkscape:transform-center-y="0.22428177"
         inkscape:transform-center-x="0.37755769"
         d="m 108.74051,312.2934 -1.06782,-3.99694 -3.89796,-1.38629 3.47135,-2.25068 0.1139,-4.13556 3.21323,2.60595 3.96835,-1.16963 -1.48546,3.86124 2.33867,3.41269 -4.13129,-0.21956 z"
         inkscape:randomized="0"
         inkscape:rounded="0"
         inkscape:flatsided="false"
         sodipodi:arg2="2.3965104"
         sodipodi:arg1="1.7681919"
         sodipodi:r2="3.115"
         sodipodi:r1="6.23"
         sodipodi:cy="306.18439"
         sodipodi:cx="109.96231"
         sodipodi:sides="5"
         id="path6513eg"
         style="opacity:0.87000002;fill:#ff8080;fill-opacity:1;stroke:#0000ff;stroke-width:0.6047619;stroke-miterlimit:4;stroke-dasharray:none"
         sodipodi:type="star" />
      <path
         inkscape:transform-center-y="-0.16705416"
         inkscape:transform-center-x="0.16705535"
         d="m 92.857067,295.18814 -2.173306,-0.73698 -1.839194,1.3725 0.02933,-2.29468 -1.873674,-1.32505 2.191432,-0.6812 0.6812,-2.19143 1.32505,1.87368 2.294678,-0.0293 -1.372506,1.8392 z"
         inkscape:randomized="0"
         inkscape:rounded="0"
         inkscape:flatsided="false"
         sodipodi:arg2="1.4137167"
         sodipodi:arg1="0.78539816"
         sodipodi:r2="1.727891"
         sodipodi:r1="3.4557824"
         sodipodi:cy="292.74454"
         sodipodi:cx="90.41346"
         sodipodi:sides="5"
         id="path6515eg"
         style="opacity:0.87000002;fill:#ff8080;fill-opacity:1;stroke:#0000ff;stroke-width:0.6047619;stroke-miterlimit:4;stroke-dasharray:none"
         sodipodi:type="star" />
      <path
         inkscape:transform-center-y="-0.1121867"
         inkscape:transform-center-x="-0.63956251"
         d="m 84.736419,309.55335 2.201552,-4.70569 -2.628342,-4.48131 5.155694,0.63966 3.44978,-3.8845 0.984842,5.10102 4.760422,2.08056 -4.547027,2.51294 -0.507677,5.17036 -3.79506,-3.54794 z"
         inkscape:randomized="0"
         inkscape:rounded="0"
         inkscape:flatsided="false"
         sodipodi:arg2="3.0951702"
         sodipodi:arg1="2.4668517"
         sodipodi:r2="3.9116797"
         sodipodi:r1="7.8233595"
         sodipodi:cy="304.66614"
         sodipodi:cx="90.845436"
         sodipodi:sides="5"
         id="path6517eg"
         style="opacity:0.87000002;fill:#ff8080;fill-opacity:1;stroke:#0000ff;stroke-width:0.6047619;stroke-miterlimit:4;stroke-dasharray:none"
         sodipodi:type="star" />
    </g>
    <path
       sodipodi:type="spiral"
       style="fill:#00ffff;fill-rule:evenodd;stroke:#000000;stroke-width:0.6047619px;stroke-linecap:butt;stroke-linejoin:miter;stroke-opacity:1"
       id="eaglynew2"
       sodipodi:cx="73.308212"
       sodipodi:cy="393.74982"
       sodipodi:expansion="1"
       sodipodi:revolution="3"
       sodipodi:radius="41.613129"
       sodipodi:argument="-18.147299"
       sodipodi:t0="0"
       d="m 73.308212,393.74982 c 1.592741,1.3477 -1.030876,2.81189 -2.239973,2.64724 -3.276579,-0.4462 -4.137127,-4.52375 -3.054508,-7.12719 1.936552,-4.65694 7.887895,-5.67954 12.014402,-3.46177 6.055815,3.25466 7.263028,11.296 3.869042,16.90161 -4.52365,7.4714 -14.719492,8.86373 -21.788831,4.27631 -8.896041,-5.77281 -10.473289,-18.15026 -4.683575,-26.67604 7.01212,-10.32587 21.585119,-12.08797 31.563258,-5.09085 11.758893,8.24586 13.705843,25.02253 5.49811,36.45048 -9.476152,13.19401 -28.461631,15.32586 -41.337687,5.90537 -14.630593,-10.70415 -16.947384,-31.90193 -6.312644,-46.2249 11.930572,-16.06821 35.343106,-18.56999 51.112116,-6.71991 17.506588,13.15584 20.193418,38.78494 7.127178,55.99933">
      <desc
         id="desc6528">a new test shape to play with! :)</desc>
    </path>
    <path
       d="m 205.26299,520.81738 c 1.59274,1.34771 -1.03088,2.8119 -2.23998,2.64724 -3.27658,-0.44619 -4.13713,-4.52374 -3.05451,-7.12718 1.93656,-4.65695 7.8879,-5.67955 12.01441,-3.46178 6.05581,3.25466 7.26302,11.296 3.86904,16.90162 -4.52365,7.4714 -14.71949,8.86373 -21.78883,4.27631 -8.89604,-5.77281 -10.47329,-18.15027 -4.68358,-26.67605 7.01212,-10.32586 21.58512,-12.08796 31.56326,-5.09084 11.75889,8.24586 13.70584,25.02252 5.49811,36.45047 -9.47615,13.19402 -28.46163,15.32587 -41.33769,5.90538 -14.63059,-10.70416 -16.94738,-31.90193 -6.31264,-46.2249 11.93057,-16.06821 35.3431,-18.57 51.11211,-6.71991 17.50659,13.15583 20.19342,38.78493 7.12718,55.99933"
       sodipodi:t0="0"
       sodipodi:argument="-18.147299"
       sodipodi:radius="41.613129"
       sodipodi:revolution="3"
       sodipodi:expansion="1"
       sodipodi:cy="520.81738"
       sodipodi:cx="205.26299"
       id="path6530eg"
       style="fill:#800000;fill-rule:evenodd;stroke:#000000;stroke-width:0.6047619px;stroke-linecap:butt;stroke-linejoin:miter;stroke-opacity:1"
       sodipodi:type="spiral">
      <desc
         id="desc6532">a new test shape to play with! :)</desc>
    </path>
  </g>
  <rect
     height="448"
     id="Border"
     style="fill:none;stroke:#800080;stroke-width:0.60342091"
     width="448"
     x="1"
     y="1" />
	 
	 
	 <!-- creatures from original versions! :) -->
	 
			<a style="fill-opacity:0.75" xlink:href="http://life.worldsowisdom.com/flow/"> <rect height="90" id="YellowRect" onmouseout="setAttribute('fill-opacity','0.5')" onmouseover="setAttribute('fill-opacity','1.0')" style="fill:yellow;stroke:#000000" width="90" x="150" y="90"> <desc id="desc3364">A clickable square!</desc>
			<title id="title3362"></title>
			</rect> </a> <a style="fill-opacity:0.75" xlink:href="http://life.worldsowisdom.com/flow/">
			<rect height="90" id="OrangeRect" onmouseout="setAttribute('fill-opacity','0.75')" onmouseover="setAttribute('fill-opacity','1.0')" style="fill:orange;stroke:#000000" width="90" x="60" y="300"> <desc id="desc3364">A clickable square!</desc>
			<title id="title3362"></title>
			</rect> </a>

<path xmlns="http://www.w3.org/2000/svg" sodipodi:type="spiral" xmlns:sodipodi="http://sodipodi.sourceforge.net/DTD/sodipodi-0.dtd" style="fill:#00ffff;fill-rule:evenodd;stroke:#000000;stroke-width:0.6047619px;stroke-linecap:butt;stroke-linejoin:miter;stroke-opacity:1" id="eaglynew" sodipodi:cx="73.308212" sodipodi:cy="393.74982" sodipodi:expansion="1" sodipodi:revolution="3" sodipodi:radius="41.613129" sodipodi:argument="-18.147299" sodipodi:t0="0" d="m 73.308212,393.74982 c 1.592741,1.3477 -1.030876,2.81189 -2.239973,2.64724 -3.276579,-0.4462 -4.137127,-4.52375 -3.054508,-7.12719 1.936552,-4.65694 7.887895,-5.67954 12.014402,-3.46177 6.055815,3.25466 7.263028,11.296 3.869042,16.90161 -4.52365,7.4714 -14.719492,8.86373 -21.788831,4.27631 -8.896041,-5.77281 -10.473289,-18.15026 -4.683575,-26.67604 7.01212,-10.32587 21.585119,-12.08797 31.563258,-5.09085 11.758893,8.24586 13.705843,25.02253 5.49811,36.45048 -9.476152,13.19401 -28.461631,15.32586 -41.337687,5.90537 -14.630593,-10.70415 -16.947384,-31.90193 -6.312644,-46.2249 11.930572,-16.06821 35.343106,-18.56999 51.112116,-6.71991 17.506588,13.15584 20.193418,38.78494 7.127178,55.99933" transform="translate(25, 25 )">
    <desc id="desc36">a new test shape to play with! :)</desc>
  </path><rect xmlns="http://www.w3.org/2000/svg" height="10" id="AvrilNiblet1" onmouseout="setAttribute('fill-opacity','0.5')" onmouseover="setAttribute('fill-opacity','1.0')" style="fill:yellow;stroke:black" width="10" x="225" y="225" transform="translate(25, 25 )">
    <desc id="desc71">Avril's first little niblet! :)</desc>
    <title id="title73"/>
  </rect><path xmlns="http://www.w3.org/2000/svg" fill-opacity="0.43046721000000016" onmousedown="Reverse(PurpleSpiral)" id="PurpleSpiral" d="m 282.09113,269.50729 c 1.52075,1.52076 -1.29967,2.80025 -2.52761,2.52761 -3.32763,-0.73884 -3.86257,-5.00113 -2.5276,-7.58281 2.38796,-4.61803 8.58895,-5.15902 12.63801,-2.5276 5.94217,3.86172 6.4939,12.22544 2.5276,17.69322 -5.28645,7.28768 -15.87921,7.84514 -22.74842,2.52759 -8.6442,-6.69159 -9.20486,-19.54122 -2.5276,-27.80363 8.08706,-10.00688 23.20787,-10.56947 32.85884,-2.52759 11.37333,9.47708 11.93717,26.8774 2.52759,37.91404 -10.86373,12.74223 -30.54887,13.30692 -42.96924,2.52759 -14.11282,-12.24817 -14.67812,-34.22169 -2.52759,-48.02445 13.63105,-15.4846 37.8955,-16.05034 53.07965,-2.52759 16.85728,15.01283 17.42336,41.57006 2.52759,58.13486" inkscape:tile-cx="185.6451" xmlns:inkscape="http://www.inkscape.org/namespaces/inkscape" inkscape:tile-cy="265.9547" inkscape:tile-h="68.00056" inkscape:tile-w="75.106916" inkscape:tile-x0="148.09164" inkscape:tile-y0="231.95443" sodipodi:argument="-18.064157" xmlns:sodipodi="http://sodipodi.sourceforge.net/DTD/sodipodi-0.dtd" sodipodi:cx="182.09113" sodipodi:cy="269.50729" sodipodi:expansion="1" sodipodi:radius="42.894836" sodipodi:revolution="3" sodipodi:t0="0" sodipodi:type="spiral" style="fill:#800080;fill-rule:evenodd;stroke:#000000;stroke-width:0.2081555px;stroke-linecap:butt;stroke-linejoin:miter;stroke-opacity:1" transform="translate(25, 25)"/><image xmlns="http://www.w3.org/2000/svg" id="back3" width="448" height="448" x="1" y="1" xlink:href="creatures/png/back3.png" xmlns:xlink="http://www.w3.org/1999/xlink"/><image xmlns="http://www.w3.org/2000/svg" id="galaxy3" width="294" height="150" x="150" y="100" style="opacity:0.5" onmousedown="tool(eg_newy)" xlink:href="creatures/png/galaxy3.png" xmlns:xlink="http://www.w3.org/1999/xlink" transform="translate(25, 25 )"/><image xmlns="http://www.w3.org/2000/svg" id="galaxy4" width="306" height="150" x="50" y="250" style="opacity:0.25" onmousedown="tool(eg_newy2)" xlink:href="creatures/png/galaxy4.png" xmlns:xlink="http://www.w3.org/1999/xlink" transform="translate(25, 12.5 )"/><image xmlns="http://www.w3.org/2000/svg" id="planet3" width="157" height="150" x="100" y="250" style="opacity:0.5" onmousedown="tool(eg_niblet)" xlink:href="creatures/png/planet3.png" xmlns:xlink="http://www.w3.org/1999/xlink" transform="translate(25, 0.0 )"/><image xmlns="http://www.w3.org/2000/svg" id="planet4" width="150" height="150" x="300" y="150" style="opacity:0.9" onmousedown="tool(eg_medy)" xlink:href="creatures/png/planet4.png" xmlns:xlink="http://www.w3.org/1999/xlink" transform="translate(25, 0.0 )"/><image xmlns="http://www.w3.org/2000/svg" id="satellite3" width="79" height="150" x="200" y="250" onmousedown="tool(satellite3)" xlink:href="creatures/png/satellite3.png" xmlns:xlink="http://www.w3.org/1999/xlink" transform="translate(25, 25 )"/><image xmlns="http://www.w3.org/2000/svg" id="satellite4" width="109" height="75" x="50" y="50" onmousedown="tool(satellite4)" xlink:href="creatures/png/satellite4.png" xmlns:xlink="http://www.w3.org/1999/xlink" transform="translate(25, 25 )"/><image xmlns="http://www.w3.org/2000/svg" id="mediumcreature3" width="38" height="50" x="300" y="175" onmousedown="tool(the_rect)" xlink:href="creatures/png/mediumcreature3.png" xmlns:xlink="http://www.w3.org/1999/xlink" transform="translate( 0.0 , 25 )"/><image xmlns="http://www.w3.org/2000/svg" id="niblet3" width="21" height="32" x="400" y="350" onmousedown="tool(pink_rect)" xlink:href="creatures/png/niblet3.png" xmlns:xlink="http://www.w3.org/1999/xlink" transform="translate( 0.0 , 25 )"/><image xmlns="http://www.w3.org/2000/svg" id="bigbeauty3" width="92" height="110" x="100" y="150" onmousedown="tool(eg_biggo)" xlink:href="creatures/png/bigbeauty3.png" xmlns:xlink="http://www.w3.org/1999/xlink" transform="translate(25, 0.0 )"/><image xmlns="http://www.w3.org/2000/svg" id="Creature-0.14448305272375817" a0:href="creatures/png/flower1.png" xmlns:a0="http://www.w3.org/1999/xlink" opacity="0.7121762299047136" transform="translate(-149, -149) rotate(0.5154913119929401 122.19166564941406 94.49166870117188)" x="200" y="200" height="120" width="120" onmousedown="tool('Creature-0.14448305272375817')" class="creatureClass"><title>Creature-0.14448305272375817</title><desc>movePsyCreat("Creature-0.14448305272375817", 1, 1)</desc></image><image xmlns="http://www.w3.org/2000/svg" id="Creature-0.5319333499205116" a0:href="creatures/png/flower1.png" xmlns:a0="http://www.w3.org/1999/xlink" opacity="0.4922763430981912" transform="translate(-149, -149) rotate(-0.3624448225885599 121.5999984741211 94.99166107177734)" x="200" y="200" height="120" width="120" onmousedown="tool('Creature-0.5319333499205116')" class="creatureClass"><title>Creature-0.5319333499205116</title><desc>movePsyCreat("Creature-0.5319333499205116", 1, 1)</desc></image><image xmlns="http://www.w3.org/2000/svg" id="Creature-0.7039385036415011" a0:href="creatures/png/bact4.png" xmlns:a0="http://www.w3.org/1999/xlink" opacity="0.6993848123813211" transform="translate(-149, -149) rotate(0.5740152213526855 118.4749984741211 97.54166412353516)" x="200" y="200" height="120" width="120" onmousedown="tool('Creature-0.7039385036415011')" class="creatureClass"><title>Creature-0.7039385036415011</title><desc>movePsyCreat("Creature-0.7039385036415011", 1, 1)</desc></image><g xmlns="http://www.w3.org/2000/svg" id="Creature-0.18469265807291857" style="fill:#86cc25;stroke:#a765d" stroke-width="7.881034837131415" opacity="0.8661367719351833" transform="translate(-3480.26806640625, -3365.5302734375) rotate(0.1942004052439029 -3402.149932861328 -3120.0750732421875)" onmousedown="tool('Creature-0.18469265807291857')" class="creatureClass"><title>Creature-0.18469265807291857</title><desc>moveLifePathCreatureEvo("Creature-0.18469265807291857", 1, 1)</desc><path id="Creature-0.18469265807291857-part-0" d="M 24.65246993105001, 190.8465732592489 Q 64.44276102032812, 132.93866214001045 129.25980515480074, 387.6238270976376 T 36.82266384374796, 490.98844831474787, 112.38275906600342 525.1726120476275, 88.07370322563108 256.67267592933246, 79.6851890478997 280.5343478898913, 46.54865176421944 210.56884570409827 z" stroke-width="30.9898060366351" opacity="0.945369707182024" class="creaturePartClass"/><path id="Creature-0.18469265807291857-part-1" d="M 88.39908334736887, 39.582621821273115 Q 42.538739251259294, 537.6174687820811 124.79071095673675, 116.8857256958049 T 116.079846901041, 300.7344682963193, 65.75238432823356 240.40222052200463, 33.349301333033075 363.4179485345666, 109.08436679929281 139.25387869926635, 16.66412738381828 38.70850403167814 z" stroke-width="16.67738678887133" opacity="0.8638382945282106" class="creaturePartClass"/><path id="Creature-0.18469265807291857-part-2" d="M 86.9955085432572, 549.7086814944629 Q 34.13613490504269, 255.53136790791953 21.338004122331345, 562.834519984856 T 48.27346189681184, 410.3271412816598, 133.47651140711397 565.5011996847858, 6.2883677638107685 439.82446282932113, 56.8551303722338 245.57200952637436, 124.6187157924565 549.4819986008825 z" stroke-width="25.060371142823225" opacity="0.9071914074249025" class="creaturePartClass"/><path id="Creature-0.18469265807291857-part-3" d="M 108.05894893673639, 318.3776323575441 Q 63.060744502329165, 353.202511844306 132.74376365744277, 442.80062003099044 T 39.88970574018798, 359.3607634342375, 84.91199714755045 193.11570640536817, 108.85045402108474 290.5718592762561, 82.17786164963758 101.09538742765675, 116.2563440969284 125.75074574440767 z" stroke-width="38.69152823916824" opacity="0.8421394334558145" class="creaturePartClass"/></g><line xmlns="http://www.w3.org/2000/svg" id="Creature-0.6049173016589896" x1="442.48883703626194" x2="410.2992522408022" y1="55.10884550761171" y2="29.099103788727298" style="fill:orange;stroke:pink" stroke-width="5.898695781478002" transform="translate(-361.24155314025126, 169.98932393803753) rotate(0.681218455978741 77.80833435058594 202.2249984741211)" onmousedown="tool('Creature-0.6049173016589896')" class="creatureClass"><title>Creature-0.6049173016589896</title><desc>moveSpikyCreature("Creature-0.6049173016589896", 1, 1)</desc></line><g xmlns="http://www.w3.org/2000/svg" id="Creature-0.4858975835187427" style="fill:#487120;stroke:#fc2250" stroke-width="21.948704837992835" opacity="0.9075492018919618" transform="translate(-513.0619825133645, -294.7623665712899) rotate(0.3663424445244712 -110.50836181640625 -30.23333740234375)" onmousedown="tool('Creature-0.4858975835187427')" class="creatureClass"><title>Creature-0.4858975835187427</title><desc>moveLifePathCreatureEvo("Creature-0.4858975835187427", 1, 1)</desc><path id="Creature-0.4858975835187427-part-0" d="M 100.15569334488976, 753.2770681142189 Q 131.97161081699747, 728.9379532799389 534.1379719119227, 65.58691144883255 T 677.7188969184629, 2.2387518892673133, 141.43637555331333 798.0523371702457, 498.10864387100133 325.68221468670004, 466.0979159215569 450.8378420165171, 451.35703811552077 804.0986936473404 z" stroke-width="14.447848693104497" opacity="0.6661210087188261" class="creaturePartClass"/><path id="Creature-0.4858975835187427-part-1" d="M 272.9590682795335, 642.141590000042 Q 526.1255685555622, 479.32943175935225 498.92243489652986, 42.42638504318574 T 174.86195606046957, 113.94872206728704, 359.7227168545016 658.9780059463055, 599.6595017479974 543.4035294298114, 843.3017259751936 45.40509518502612, 467.2919675319759 394.2194898473867 z" stroke-width="1.8000673113938184" opacity="0.9520505269597072" class="creaturePartClass"/><path id="Creature-0.4858975835187427-part-2" d="M 718.0188143986726, 780.5016415600267 Q 569.5008614474667, 440.6795841203042 212.4420669626964, 626.4977039158739 T 607.3436227140968, 797.652018812853, 113.60683163368803 475.3190246054938, 254.96043397091262 169.03577070247457, 652.6347925396785 794.9221117672054, 544.7224813438285 606.4000504630392 z" stroke-width="12.109234599026184" opacity="0.7354749612709647" class="creaturePartClass"/><path id="Creature-0.4858975835187427-part-3" d="M 602.9633929778531, 388.29563299945085 Q 435.9053219829147, 599.3637255401229 770.4908984158949, 551.9189370749415 T 289.51827193989647, 523.4338083486057, 564.633513444985 340.9653349760432, 831.0427857975249 443.17246000532896, 60.95689222489972 129.3665868635736, 50.55929955991383 77.55943334956956 z" stroke-width="13.502458424914712" opacity="0.12785395668880467" class="creaturePartClass"/></g><rect xmlns="http://www.w3.org/2000/svg" id="Creature-0.7408446950607609" x="415.2710103597433" y="397.8185166304381" width="0.262576083972641" height="11.541578684089098" style="fill:pink;stroke:yellow" transform="translate(23.61950650808233, 10.232543277355061)" onmousedown="tool('Creature-0.7408446950607609')" class="creatureClass"><title>Creature-0.7408446950607609</title><desc>document.getElementById("Creature-0.7408446950607609").setAttribute("transform", "translate("+33*Math.random()+", "+50*Math.random()+")");</desc></rect></svg>