<?xml version="1.0" encoding="UTF-8" standalone="no"?>
<!-- Created with LifeFLOW (http://life.worldsowisdom.com/flow/) -->

<svg
   xmlns:osb="http://www.openswatchbook.org/uri/2009/osb"
   xmlns:dc="http://purl.org/dc/elements/1.1/"
   xmlns:cc="http://creativecommons.org/ns#"
   xmlns:rdf="http://www.w3.org/1999/02/22-rdf-syntax-ns#"
   xmlns:svg="http://www.w3.org/2000/svg"
   xmlns="http://www.w3.org/2000/svg"
   xmlns:xlink="http://www.w3.org/1999/xlink"
   xmlns:sodipodi="http://sodipodi.sourceforge.net/DTD/sodipodi-0.dtd"
   xmlns:inkscape="http://www.inkscape.org/namespaces/inkscape"
   width="450"
   height="450"
   viewBox="0 0 450 450"
   id="svg2"
   version="1.1"
   inkscape:version="0.91 r13725"
   sodipodi:docname="newcreatures-plain.svg">
  <defs
     id="defs4">
    <linearGradient
       inkscape:collect="always"
       id="linearGradient6501">
      <stop
         style="stop-color:#0000ff;stop-opacity:1;"
         offset="0"
         id="stop6503" />
      <stop
         style="stop-color:#0000ff;stop-opacity:0;"
         offset="1"
         id="stop6505" />
    </linearGradient>
    <linearGradient
       id="linearGradient6455"
       osb:paint="solid">
      <stop
         style="stop-color:#0000ff;stop-opacity:1;"
         offset="0"
         id="stop6457" />
    </linearGradient>
    <filter
       inkscape:collect="always"
       style="color-interpolation-filters:sRGB"
       id="filter5001"
       x="-0.37912726"
       width="1.7582545"
       y="-0.65848422"
       height="2.3169684">
      <feGaussianBlur
         inkscape:collect="always"
         stdDeviation="6.3692616"
         id="feGaussianBlur5003" />
    </filter>
    <linearGradient
       inkscape:collect="always"
       xlink:href="#linearGradient6501"
       id="linearGradient6507"
       x1="242.51431"
       y1="178.50594"
       x2="313.40628"
       y2="178.50594"
       gradientUnits="userSpaceOnUse"
       gradientTransform="translate(-215.03742,319.7082)" />
  </defs>
  <sodipodi:namedview
     id="base"
     pagecolor="#ffffff"
     bordercolor="#666666"
     borderopacity="1.0"
     inkscape:pageopacity="0.0"
     inkscape:pageshadow="2"
     inkscape:zoom="0.24748738"
     inkscape:cx="463.57331"
     inkscape:cy="265.90363"
     inkscape:document-units="px"
     inkscape:current-layer="layer1"
     showgrid="false"
     inkscape:window-width="1366"
     inkscape:window-height="706"
     inkscape:window-x="-8"
     inkscape:window-y="-8"
     inkscape:window-maximized="1"
     units="px" />
  <metadata
     id="metadata7">
    <rdf:RDF>
      <cc:Work
         rdf:about="">
        <dc:format>image/svg+xml</dc:format>
        <dc:type
           rdf:resource="http://purl.org/dc/dcmitype/StillImage" />
        <dc:title></dc:title>
      </cc:Work>
    </rdf:RDF>
  </metadata>
  <g
     inkscape:label="Layer 1"
     inkscape:groupmode="layer"
     id="layer1"
     transform="translate(0,-364.28567)">
    <path
       sodipodi:type="star"
       style="opacity:0.28999999;fill:#00ffff;stroke:#800080"
       id="path4136eg"
       sodipodi:sides="5"
       sodipodi:cx="149.96248"
       sodipodi:cy="470.92843"
       sodipodi:r1="84.03109"
       sodipodi:r2="42.015545"
       sodipodi:arg1="0.31099828"
       sodipodi:arg2="0.93931681"
       inkscape:flatsided="false"
       inkscape:rounded="0"
       inkscape:randomized="0"
       d="m 229.96248,496.64272 -55.19656,8.19877 -24.53782,50.11762 -24.85417,-49.96149 -55.247286,-7.84966 39.835836,-39.07667 -9.60688,-54.96897 49.47407,25.81078 49.30991,-26.12303 -9.25918,55.0286 z"
       inkscape:transform-center-x="-0.082081267"
       inkscape:transform-center-y="7.9461513" />
    <path
       inkscape:transform-center-y="2.4320959"
       inkscape:transform-center-x="-0.025122895"
       d="m 68.791599,427.6385 -16.894071,2.5094 -7.510317,15.33956 -7.607143,-15.29177 -16.909598,-2.40255 12.192598,-11.96024 -2.940388,-16.82442 15.142583,7.89994 15.092337,-7.99551 -2.833967,16.84267 z"
       inkscape:randomized="0"
       inkscape:rounded="0"
       inkscape:flatsided="false"
       sodipodi:arg2="0.93931681"
       sodipodi:arg1="0.31099828"
       sodipodi:r2="12.859744"
       sodipodi:r1="25.719488"
       sodipodi:cy="419.76809"
       sodipodi:cx="44.305912"
       sodipodi:sides="5"
       id="path4138eg"
       style="opacity:0.28999999;fill:#00ffff;stroke:#800080;stroke-width:0.3060711"
       sodipodi:type="star" />
    <g
       id="BiggoEGbg"
       transform="translate(-109.96232,143.76849)">
      <desc
         id="desc4151">A big creature for LifeFLOW! :)</desc>
      <circle
         r="29.934187"
         cy="259.14496"
         cx="302.39636"
         id="path4137eg"
         style="opacity:0.28999999;fill:#ffff00;stroke:#800080;stroke-width:0.6047619" />
      <circle
         r="7.3308215"
         cy="265.86487"
         cx="307.8945"
         id="path4139eg"
         style="opacity:0.28999999;fill:#ffff00;stroke:#800080;stroke-width:0.6047619" />
      <ellipse
         ry="10.996231"
         rx="3.6654108"
         cy="251.20323"
         cx="292.01105"
         id="path4141eg"
         style="opacity:0.28999999;fill:#0000ff;stroke:#800080;stroke-width:0.6047619" />
      <ellipse
         ry="3.6654108"
         rx="9.7744284"
         cy="253.64687"
         cx="317.66891"
         id="path4143eg"
         style="opacity:0.28999999;fill:#0000ff;stroke:#800080;stroke-width:0.6047619" />
    </g>
    <rect
       style="opacity:0.87000002;fill:url(#linearGradient6507);fill-opacity:1;stroke:#0000ff;stroke-width:0.6047619;stroke-miterlimit:4;stroke-dasharray:none;filter:url(#filter5001)"
       id="MedyEGbg"
       width="40.319515"
       height="23.214266"
       x="42.763119"
       y="486.60684" />
    <g
       id="g6519eg"
       inkscape:label="#MedyEG"
       transform="translate(0,53.355016)">
      <rect
         y="281.74832"
         x="59.868374"
         height="31.766891"
         width="63.533783"
         id="rect6509eg"
         style="opacity:0.87000002;fill:#0000ff;fill-opacity:1;stroke:#0000ff;stroke-width:0.6047619;stroke-miterlimit:4;stroke-dasharray:none" />
      <path
         inkscape:transform-center-y="-0.19571458"
         inkscape:transform-center-x="0.72308977"
         d="m 81.860835,300.07539 -6.160837,-1.4834 -4.714657,4.23419 -0.493011,-6.31769 -5.483865,-3.17547 5.856139,-2.42116 1.325442,-6.19674 4.112304,4.82134 6.303033,-0.65433 -3.314595,5.40091 z"
         inkscape:randomized="0"
         inkscape:rounded="0"
         inkscape:flatsided="false"
         sodipodi:arg2="1.3230568"
         sodipodi:arg1="0.69473828"
         sodipodi:r2="4.7712951"
         sodipodi:r1="9.5425901"
         sodipodi:cy="293.96637"
         sodipodi:cx="74.530014"
         sodipodi:sides="5"
         id="path6511eg"
         style="opacity:0.87000002;fill:#ff8080;fill-opacity:1;stroke:#0000ff;stroke-width:0.6047619;stroke-miterlimit:4;stroke-dasharray:none"
         sodipodi:type="star" />
      <path
         inkscape:transform-center-y="0.22428177"
         inkscape:transform-center-x="0.37755769"
         d="m 108.74051,312.2934 -1.06782,-3.99694 -3.89796,-1.38629 3.47135,-2.25068 0.1139,-4.13556 3.21323,2.60595 3.96835,-1.16963 -1.48546,3.86124 2.33867,3.41269 -4.13129,-0.21956 z"
         inkscape:randomized="0"
         inkscape:rounded="0"
         inkscape:flatsided="false"
         sodipodi:arg2="2.3965104"
         sodipodi:arg1="1.7681919"
         sodipodi:r2="3.115"
         sodipodi:r1="6.23"
         sodipodi:cy="306.18439"
         sodipodi:cx="109.96231"
         sodipodi:sides="5"
         id="path6513eg"
         style="opacity:0.87000002;fill:#ff8080;fill-opacity:1;stroke:#0000ff;stroke-width:0.6047619;stroke-miterlimit:4;stroke-dasharray:none"
         sodipodi:type="star" />
      <path
         inkscape:transform-center-y="-0.16705416"
         inkscape:transform-center-x="0.16705535"
         d="m 92.857067,295.18814 -2.173306,-0.73698 -1.839194,1.3725 0.02933,-2.29468 -1.873674,-1.32505 2.191432,-0.6812 0.6812,-2.19143 1.32505,1.87368 2.294678,-0.0293 -1.372506,1.8392 z"
         inkscape:randomized="0"
         inkscape:rounded="0"
         inkscape:flatsided="false"
         sodipodi:arg2="1.4137167"
         sodipodi:arg1="0.78539816"
         sodipodi:r2="1.727891"
         sodipodi:r1="3.4557824"
         sodipodi:cy="292.74454"
         sodipodi:cx="90.41346"
         sodipodi:sides="5"
         id="path6515eg"
         style="opacity:0.87000002;fill:#ff8080;fill-opacity:1;stroke:#0000ff;stroke-width:0.6047619;stroke-miterlimit:4;stroke-dasharray:none"
         sodipodi:type="star" />
      <path
         inkscape:transform-center-y="-0.1121867"
         inkscape:transform-center-x="-0.63956251"
         d="m 84.736419,309.55335 2.201552,-4.70569 -2.628342,-4.48131 5.155694,0.63966 3.44978,-3.8845 0.984842,5.10102 4.760422,2.08056 -4.547027,2.51294 -0.507677,5.17036 -3.79506,-3.54794 z"
         inkscape:randomized="0"
         inkscape:rounded="0"
         inkscape:flatsided="false"
         sodipodi:arg2="3.0951702"
         sodipodi:arg1="2.4668517"
         sodipodi:r2="3.9116797"
         sodipodi:r1="7.8233595"
         sodipodi:cy="304.66614"
         sodipodi:cx="90.845436"
         sodipodi:sides="5"
         id="path6517eg"
         style="opacity:0.87000002;fill:#ff8080;fill-opacity:1;stroke:#0000ff;stroke-width:0.6047619;stroke-miterlimit:4;stroke-dasharray:none"
         sodipodi:type="star" />
    </g>
    <path
       sodipodi:type="spiral"
       style="fill:#00ffff;fill-rule:evenodd;stroke:#000000;stroke-width:0.6047619px;stroke-linecap:butt;stroke-linejoin:miter;stroke-opacity:1"
       id="eaglynew2"
       sodipodi:cx="73.308212"
       sodipodi:cy="393.74982"
       sodipodi:expansion="1"
       sodipodi:revolution="3"
       sodipodi:radius="41.613129"
       sodipodi:argument="-18.147299"
       sodipodi:t0="0"
       d="m 73.308212,393.74982 c 1.592741,1.3477 -1.030876,2.81189 -2.239973,2.64724 -3.276579,-0.4462 -4.137127,-4.52375 -3.054508,-7.12719 1.936552,-4.65694 7.887895,-5.67954 12.014402,-3.46177 6.055815,3.25466 7.263028,11.296 3.869042,16.90161 -4.52365,7.4714 -14.719492,8.86373 -21.788831,4.27631 -8.896041,-5.77281 -10.473289,-18.15026 -4.683575,-26.67604 7.01212,-10.32587 21.585119,-12.08797 31.563258,-5.09085 11.758893,8.24586 13.705843,25.02253 5.49811,36.45048 -9.476152,13.19401 -28.461631,15.32586 -41.337687,5.90537 -14.630593,-10.70415 -16.947384,-31.90193 -6.312644,-46.2249 11.930572,-16.06821 35.343106,-18.56999 51.112116,-6.71991 17.506588,13.15584 20.193418,38.78494 7.127178,55.99933">
      <desc
         id="desc6528">a new test shape to play with! :)</desc>
    </path>
    <path
       d="m 205.26299,520.81738 c 1.59274,1.34771 -1.03088,2.8119 -2.23998,2.64724 -3.27658,-0.44619 -4.13713,-4.52374 -3.05451,-7.12718 1.93656,-4.65695 7.8879,-5.67955 12.01441,-3.46178 6.05581,3.25466 7.26302,11.296 3.86904,16.90162 -4.52365,7.4714 -14.71949,8.86373 -21.78883,4.27631 -8.89604,-5.77281 -10.47329,-18.15027 -4.68358,-26.67605 7.01212,-10.32586 21.58512,-12.08796 31.56326,-5.09084 11.75889,8.24586 13.70584,25.02252 5.49811,36.45047 -9.47615,13.19402 -28.46163,15.32587 -41.33769,5.90538 -14.63059,-10.70416 -16.94738,-31.90193 -6.31264,-46.2249 11.93057,-16.06821 35.3431,-18.57 51.11211,-6.71991 17.50659,13.15583 20.19342,38.78493 7.12718,55.99933"
       sodipodi:t0="0"
       sodipodi:argument="-18.147299"
       sodipodi:radius="41.613129"
       sodipodi:revolution="3"
       sodipodi:expansion="1"
       sodipodi:cy="520.81738"
       sodipodi:cx="205.26299"
       id="path6530eg"
       style="fill:#800000;fill-rule:evenodd;stroke:#000000;stroke-width:0.6047619px;stroke-linecap:butt;stroke-linejoin:miter;stroke-opacity:1"
       sodipodi:type="spiral">
      <desc
         id="desc6532">a new test shape to play with! :)</desc>
    </path>
  </g>
  <rect
     height="448"
     id="Border"
     style="fill:none;stroke:#800080;stroke-width:0.60342091"
     width="448"
     x="1"
     y="1" />
	 
	 
	 <!-- creatures from original versions! :) -->
	 
			<a style="fill-opacity:0.75" xlink:href="http://life.worldsowisdom.com/flow/"> <rect height="90" id="YellowRect" onmouseout="setAttribute('fill-opacity','0.5')" onmouseover="setAttribute('fill-opacity','1.0')" style="fill:yellow;stroke:#000000" width="90" x="150" y="90"> <desc id="desc3364">A clickable square!</desc>
			<title id="title3362"></title>
			</rect> </a> <a style="fill-opacity:0.75" xlink:href="http://life.worldsowisdom.com/flow/">
			<rect height="90" id="OrangeRect" onmouseout="setAttribute('fill-opacity','0.75')" onmouseover="setAttribute('fill-opacity','1.0')" style="fill:orange;stroke:#000000" width="90" x="60" y="300"> <desc id="desc3364">A clickable square!</desc>
			<title id="title3362"></title>
			</rect> </a>

<path xmlns="http://www.w3.org/2000/svg" id="eaglynew" style="fill: #00ffff; fill-rule: evenodd; stroke: #000000; stroke-linecap: butt; stroke-linejoin: miter; stroke-opacity: 1; stroke-width: 0.604762px;" transform="translate(25, 25 )" d="m 73.3082 393.75 c 1.59274 1.3477 -1.03088 2.81189 -2.23997 2.64724 c -3.27658 -0.4462 -4.13713 -4.52375 -3.05451 -7.12719 c 1.93655 -4.65694 7.8879 -5.67954 12.0144 -3.46177 c 6.05582 3.25466 7.26303 11.296 3.86904 16.9016 c -4.52365 7.4714 -14.7195 8.86373 -21.7888 4.27631 c -8.89604 -5.77281 -10.4733 -18.1503 -4.68358 -26.676 c 7.01212 -10.3259 21.5851 -12.088 31.5633 -5.09085 c 11.7589 8.24586 13.7058 25.0225 5.49811 36.4505 c -9.47615 13.194 -28.4616 15.3259 -41.3377 5.90537 c -14.6306 -10.7042 -16.9474 -31.9019 -6.31264 -46.2249 c 11.9306 -16.0682 35.3431 -18.57 51.1121 -6.71991 c 17.5066 13.1558 20.1934 38.7849 7.12718 55.9993" xmlns:sodipodi="http://sodipodi.sourceforge.net/DTD/sodipodi-0.dtd" sodipodi:cy="393.74982" sodipodi:cx="73.308212" sodipodi:type="spiral" sodipodi:t0="0" sodipodi:argument="-18.147299" sodipodi:radius="41.613129" sodipodi:revolution="3" sodipodi:expansion="1">
    <desc id="desc36">a new test shape to play with! :)</desc>
  </path><rect xmlns="http://www.w3.org/2000/svg" id="AvrilNiblet1" style="fill: yellow; stroke: black;" onmouseover="setAttribute('fill-opacity','1.0')" onmouseout="setAttribute('fill-opacity','0.5')" transform="translate(25, 25 )" x="225" y="225" width="10" height="10">
    <desc id="desc71">Avril's first little niblet! :)</desc>
    <title id="title73"/>
  </rect><path xmlns="http://www.w3.org/2000/svg" id="PurpleSpiral" style="fill: #800080; fill-rule: evenodd; stroke: #000000; stroke-linecap: butt; stroke-linejoin: miter; stroke-opacity: 1; stroke-width: 0.208155px;" fill-opacity="0.430467" onmousedown="Reverse(PurpleSpiral)" transform="translate(25, 25)" d="m 282.091 269.507 c 1.52075 1.52076 -1.29967 2.80025 -2.52761 2.52761 c -3.32763 -0.73884 -3.86257 -5.00113 -2.5276 -7.58281 c 2.38796 -4.61803 8.58895 -5.15902 12.638 -2.5276 c 5.94217 3.86172 6.4939 12.2254 2.5276 17.6932 c -5.28645 7.28768 -15.8792 7.84514 -22.7484 2.52759 c -8.6442 -6.69159 -9.20486 -19.5412 -2.5276 -27.8036 c 8.08706 -10.0069 23.2079 -10.5695 32.8588 -2.52759 c 11.3733 9.47708 11.9372 26.8774 2.52759 37.914 c -10.8637 12.7422 -30.5489 13.3069 -42.9692 2.52759 c -14.1128 -12.2482 -14.6781 -34.2217 -2.52759 -48.0244 c 13.6311 -15.4846 37.8955 -16.0503 53.0797 -2.52759 c 16.8573 15.0128 17.4234 41.5701 2.52759 58.1349" xmlns:sodipodi="http://sodipodi.sourceforge.net/DTD/sodipodi-0.dtd" sodipodi:cy="269.50729" sodipodi:cx="182.09113" sodipodi:type="spiral" sodipodi:t0="0" sodipodi:argument="-18.064157" sodipodi:radius="42.894836" sodipodi:revolution="3" sodipodi:expansion="1" xmlns:inkscape="http://www.inkscape.org/namespaces/inkscape" inkscape:tile-cx="185.6451" inkscape:tile-cy="265.9547" inkscape:tile-h="68.00056" inkscape:tile-w="75.106916" inkscape:tile-x0="148.09164" inkscape:tile-y0="231.95443"/><image xmlns="http://www.w3.org/2000/svg" id="back3" x="1" y="1" width="448" height="448" xmlns:xlink="http://www.w3.org/1999/xlink" xlink:href="creatures/png/back3.png"/><image xmlns="http://www.w3.org/2000/svg" id="galaxy3" style="opacity: 0.5;" onmousedown="tool(eg_newy)" transform="translate(25, 25 )" x="150" y="100" width="294" height="150" xmlns:xlink="http://www.w3.org/1999/xlink" xlink:href="creatures/png/galaxy3.png"/><image xmlns="http://www.w3.org/2000/svg" id="galaxy4" style="opacity: 0.25;" onmousedown="tool(eg_newy2)" transform="translate(25, 12.5 )" x="50" y="250" width="306" height="150" xmlns:xlink="http://www.w3.org/1999/xlink" xlink:href="creatures/png/galaxy4.png"/><image xmlns="http://www.w3.org/2000/svg" id="planet3" style="opacity: 0.5;" onmousedown="tool(eg_niblet)" transform="translate(25, 0.0 )" x="100" y="250" width="157" height="150" xmlns:xlink="http://www.w3.org/1999/xlink" xlink:href="creatures/png/planet3.png"/><image xmlns="http://www.w3.org/2000/svg" id="planet4" style="opacity: 0.9;" onmousedown="tool(eg_medy)" transform="translate(25, 0.0 )" x="300" y="150" width="150" height="150" xmlns:xlink="http://www.w3.org/1999/xlink" xlink:href="creatures/png/planet4.png"/><image xmlns="http://www.w3.org/2000/svg" id="satellite3" onmousedown="tool(satellite3)" transform="translate(25, 25 )" x="200" y="250" width="79" height="150" xmlns:xlink="http://www.w3.org/1999/xlink" xlink:href="creatures/png/satellite3.png"/><image xmlns="http://www.w3.org/2000/svg" id="satellite4" onmousedown="tool(satellite4)" transform="translate(25, 25 )" x="50" y="50" width="109" height="75" xmlns:xlink="http://www.w3.org/1999/xlink" xlink:href="creatures/png/satellite4.png"/><image xmlns="http://www.w3.org/2000/svg" id="mediumcreature3" onmousedown="tool(the_rect)" transform="translate( 0.0 , 25 )" x="300" y="175" width="38" height="50" xmlns:xlink="http://www.w3.org/1999/xlink" xlink:href="creatures/png/mediumcreature3.png"/><image xmlns="http://www.w3.org/2000/svg" id="niblet3" onmousedown="tool(pink_rect)" transform="translate( 0.0 , 25 )" x="400" y="350" width="21" height="32" xmlns:xlink="http://www.w3.org/1999/xlink" xlink:href="creatures/png/niblet3.png"/><image xmlns="http://www.w3.org/2000/svg" id="bigbeauty3" onmousedown="tool(eg_biggo)" transform="translate(25, 0.0 )" x="100" y="150" width="92" height="110" xmlns:xlink="http://www.w3.org/1999/xlink" xlink:href="creatures/png/bigbeauty3.png"/><rect xmlns="http://www.w3.org/2000/svg" id="Creature-0.18597269996478738" x="148.74038701813345" y="77.50904139973757" width="61.78371529319078" height="39.14378685760705" style="fill:orange;stroke:yellow" transform="translate(9.796197238389, -44.19401717226013)" onmousedown="deleteCreature('Creature-0.18597269996478738')" class="creatureClass"><title>Creature-0.18597269996478738</title><desc>moveExtralCreature("Creature-0.18597269996478738", -120, -30)</desc></rect><rect xmlns="http://www.w3.org/2000/svg" id="Creature-0.438574548520274" x="385.19141274347953" y="414.2977804787585" width="20.01138656324141" height="33.20985011941902" style="fill:orange;stroke:yellow" transform="translate(9.786781574876262, 81.56098436516464)" onmousedown="deleteCreature('Creature-0.438574548520274')" class="creatureClass"><title>Creature-0.438574548520274</title><desc>moveExtralCreature("Creature-0.438574548520274", -120, -30)</desc></rect><rect xmlns="http://www.w3.org/2000/svg" id="Creature-0.2340528976962959" x="74.31727438099118" y="303.1513584145482" width="52.697452210393905" height="16.281366509889295" style="fill:orange;stroke:yellow" transform="translate(-10.32249126697987, 40.60948443998145)" onmousedown="deleteCreature('Creature-0.2340528976962959')" class="creatureClass"><title>Creature-0.2340528976962959</title><desc>moveExtralCreature("Creature-0.2340528976962959", -120, -30)</desc></rect><rect xmlns="http://www.w3.org/2000/svg" id="Creature-0.2965662706773866" x="409.35646521791045" y="52.72567639782319" width="22.37809101550645" height="17.087587358462457" style="fill:orange;stroke:yellow" transform="translate(61.17348773460556, -0.5419745872918614)" onmousedown="deleteCreature('Creature-0.2965662706773866')" class="creatureClass"><title>Creature-0.2965662706773866</title><desc>moveExtralCreature("Creature-0.2965662706773866", -120, -30)</desc></rect><rect xmlns="http://www.w3.org/2000/svg" id="Creature-0.9838545935504501" x="296.50428364154544" y="87.22647785480981" width="29.520668741016838" height="34.94010566376257" style="fill:orange;stroke:yellow" transform="translate(-20.846003273859708, 20.010691697607623)" onmousedown="deleteCreature('Creature-0.9838545935504501')" class="creatureClass"><title>Creature-0.9838545935504501</title><desc>moveExtralCreature("Creature-0.9838545935504501", -120, -30)</desc></rect><circle xmlns="http://www.w3.org/2000/svg" id="Creature-0.9485526613452101" r="20" cx="94.76081971221039" cy="166.59929017663012" style="fill:blue;stroke:purple" transform="translate(19.9819633627531, 39.27891560230059)" onmousedown="deleteCreature('Creature-0.9485526613452101')" class="creatureClass"><title>Creature-0.9485526613452101</title><desc>document.getElementById("Creature-0.9485526613452101").setAttribute("transform", "translate("+33*Math.random()+", "+50*Math.random()+")");</desc></circle><rect xmlns="http://www.w3.org/2000/svg" id="Creature-0.7429663404172044" x="447.6204139700941" y="194.1138575539318" width="18.44397946949534" height="5.007359551413848" style="fill:yellow;stroke:black" transform="translate(2238.1020698504703, 11.196796344744218)" onmousedown="deleteCreature('Creature-0.7429663404172044')" class="creatureClass"><title>Creature-0.7429663404172044</title><desc>document.getElementById("Creature-0.7429663404172044").setAttribute("transform", "translate("+document.getElementById("Creature-0.7429663404172044").getAttribute("x")*time/max_time*5+", "+document.getElementById("Creature-0.7429663404172044").getAttribute("height")*time/max_time*Math.sqrt(5)+")");</desc></rect><rect xmlns="http://www.w3.org/2000/svg" id="Creature-0.7868074817924928" x="406.2152311447935" y="200.01610573026633" width="18.955627247692988" height="36.65388520874941" style="fill:yellow;stroke:black" transform="translate(2031.0761557239675, 81.96057896623775)" onmousedown="deleteCreature('Creature-0.7868074817924928')" class="creatureClass"><title>Creature-0.7868074817924928</title><desc>document.getElementById("Creature-0.7868074817924928").setAttribute("transform", "translate("+document.getElementById("Creature-0.7868074817924928").getAttribute("x")*time/max_time*5+", "+document.getElementById("Creature-0.7868074817924928").getAttribute("height")*time/max_time*Math.sqrt(5)+")");</desc></rect><rect xmlns="http://www.w3.org/2000/svg" id="Creature-0.15562718376853046" x="348.19075465060416" y="371.27177335980156" width="52.19874444514491" height="32.052355528289205" style="fill:yellow;stroke:black" transform="translate(1740.9537732530207, 71.67124580024584)" onmousedown="deleteCreature('Creature-0.15562718376853046')" class="creatureClass"><title>Creature-0.15562718376853046</title><desc>document.getElementById("Creature-0.15562718376853046").setAttribute("transform", "translate("+document.getElementById("Creature-0.15562718376853046").getAttribute("x")*time/max_time*5+", "+document.getElementById("Creature-0.15562718376853046").getAttribute("height")*time/max_time*Math.sqrt(5)+")");</desc></rect></svg>