<?xml version="1.0" encoding="UTF-8" standalone="no"?>
<!-- Created with LifeFLOW (http://life.worldsowisdom.com/flow/) -->

<svg
   xmlns:osb="http://www.openswatchbook.org/uri/2009/osb"
   xmlns:dc="http://purl.org/dc/elements/1.1/"
   xmlns:cc="http://creativecommons.org/ns#"
   xmlns:rdf="http://www.w3.org/1999/02/22-rdf-syntax-ns#"
   xmlns:svg="http://www.w3.org/2000/svg"
   xmlns="http://www.w3.org/2000/svg"
   xmlns:xlink="http://www.w3.org/1999/xlink"
   xmlns:sodipodi="http://sodipodi.sourceforge.net/DTD/sodipodi-0.dtd"
   xmlns:inkscape="http://www.inkscape.org/namespaces/inkscape"
   width="450"
   height="450"
   viewBox="0 0 450 450"
   id="svg2"
   version="1.1"
   inkscape:version="0.91 r13725"
   sodipodi:docname="newcreatures-plain.svg">
  <defs
     id="defs4">
    <linearGradient
       inkscape:collect="always"
       id="linearGradient6501">
      <stop
         style="stop-color:#0000ff;stop-opacity:1;"
         offset="0"
         id="stop6503" />
      <stop
         style="stop-color:#0000ff;stop-opacity:0;"
         offset="1"
         id="stop6505" />
    </linearGradient>
    <linearGradient
       id="linearGradient6455"
       osb:paint="solid">
      <stop
         style="stop-color:#0000ff;stop-opacity:1;"
         offset="0"
         id="stop6457" />
    </linearGradient>
    <filter
       inkscape:collect="always"
       style="color-interpolation-filters:sRGB"
       id="filter5001"
       x="-0.37912726"
       width="1.7582545"
       y="-0.65848422"
       height="2.3169684">
      <feGaussianBlur
         inkscape:collect="always"
         stdDeviation="6.3692616"
         id="feGaussianBlur5003" />
    </filter>
    <linearGradient
       inkscape:collect="always"
       xlink:href="#linearGradient6501"
       id="linearGradient6507"
       x1="242.51431"
       y1="178.50594"
       x2="313.40628"
       y2="178.50594"
       gradientUnits="userSpaceOnUse"
       gradientTransform="translate(-215.03742,319.7082)" />
  </defs>
  <sodipodi:namedview
     id="base"
     pagecolor="#ffffff"
     bordercolor="#666666"
     borderopacity="1.0"
     inkscape:pageopacity="0.0"
     inkscape:pageshadow="2"
     inkscape:zoom="0.24748738"
     inkscape:cx="463.57331"
     inkscape:cy="265.90363"
     inkscape:document-units="px"
     inkscape:current-layer="layer1"
     showgrid="false"
     inkscape:window-width="1366"
     inkscape:window-height="706"
     inkscape:window-x="-8"
     inkscape:window-y="-8"
     inkscape:window-maximized="1"
     units="px" />
  <metadata
     id="metadata7">
    <rdf:RDF>
      <cc:Work
         rdf:about="">
        <dc:format>image/svg+xml</dc:format>
        <dc:type
           rdf:resource="http://purl.org/dc/dcmitype/StillImage" />
        <dc:title></dc:title>
      </cc:Work>
    </rdf:RDF>
  </metadata>
  <g
     inkscape:label="Layer 1"
     inkscape:groupmode="layer"
     id="layer1"
     transform="translate(0,-364.28567)">
    <path
       sodipodi:type="star"
       style="opacity:0.28999999;fill:#00ffff;stroke:#800080"
       id="path4136eg"
       sodipodi:sides="5"
       sodipodi:cx="149.96248"
       sodipodi:cy="470.92843"
       sodipodi:r1="84.03109"
       sodipodi:r2="42.015545"
       sodipodi:arg1="0.31099828"
       sodipodi:arg2="0.93931681"
       inkscape:flatsided="false"
       inkscape:rounded="0"
       inkscape:randomized="0"
       d="m 229.96248,496.64272 -55.19656,8.19877 -24.53782,50.11762 -24.85417,-49.96149 -55.247286,-7.84966 39.835836,-39.07667 -9.60688,-54.96897 49.47407,25.81078 49.30991,-26.12303 -9.25918,55.0286 z"
       inkscape:transform-center-x="-0.082081267"
       inkscape:transform-center-y="7.9461513" />
    <path
       inkscape:transform-center-y="2.4320959"
       inkscape:transform-center-x="-0.025122895"
       d="m 68.791599,427.6385 -16.894071,2.5094 -7.510317,15.33956 -7.607143,-15.29177 -16.909598,-2.40255 12.192598,-11.96024 -2.940388,-16.82442 15.142583,7.89994 15.092337,-7.99551 -2.833967,16.84267 z"
       inkscape:randomized="0"
       inkscape:rounded="0"
       inkscape:flatsided="false"
       sodipodi:arg2="0.93931681"
       sodipodi:arg1="0.31099828"
       sodipodi:r2="12.859744"
       sodipodi:r1="25.719488"
       sodipodi:cy="419.76809"
       sodipodi:cx="44.305912"
       sodipodi:sides="5"
       id="path4138eg"
       style="opacity:0.28999999;fill:#00ffff;stroke:#800080;stroke-width:0.3060711"
       sodipodi:type="star" />
    <g
       id="BiggoEGbg"
       transform="translate(-109.96232,143.76849)">
      <desc
         id="desc4151">A big creature for LifeFLOW! :)</desc>
      <circle
         r="29.934187"
         cy="259.14496"
         cx="302.39636"
         id="path4137eg"
         style="opacity:0.28999999;fill:#ffff00;stroke:#800080;stroke-width:0.6047619" />
      <circle
         r="7.3308215"
         cy="265.86487"
         cx="307.8945"
         id="path4139eg"
         style="opacity:0.28999999;fill:#ffff00;stroke:#800080;stroke-width:0.6047619" />
      <ellipse
         ry="10.996231"
         rx="3.6654108"
         cy="251.20323"
         cx="292.01105"
         id="path4141eg"
         style="opacity:0.28999999;fill:#0000ff;stroke:#800080;stroke-width:0.6047619" />
      <ellipse
         ry="3.6654108"
         rx="9.7744284"
         cy="253.64687"
         cx="317.66891"
         id="path4143eg"
         style="opacity:0.28999999;fill:#0000ff;stroke:#800080;stroke-width:0.6047619" />
    </g>
    <rect
       style="opacity:0.87000002;fill:url(#linearGradient6507);fill-opacity:1;stroke:#0000ff;stroke-width:0.6047619;stroke-miterlimit:4;stroke-dasharray:none;filter:url(#filter5001)"
       id="MedyEGbg"
       width="40.319515"
       height="23.214266"
       x="42.763119"
       y="486.60684" />
    <g
       id="g6519eg"
       inkscape:label="#MedyEG"
       transform="translate(0,53.355016)">
      <rect
         y="281.74832"
         x="59.868374"
         height="31.766891"
         width="63.533783"
         id="rect6509eg"
         style="opacity:0.87000002;fill:#0000ff;fill-opacity:1;stroke:#0000ff;stroke-width:0.6047619;stroke-miterlimit:4;stroke-dasharray:none" />
      <path
         inkscape:transform-center-y="-0.19571458"
         inkscape:transform-center-x="0.72308977"
         d="m 81.860835,300.07539 -6.160837,-1.4834 -4.714657,4.23419 -0.493011,-6.31769 -5.483865,-3.17547 5.856139,-2.42116 1.325442,-6.19674 4.112304,4.82134 6.303033,-0.65433 -3.314595,5.40091 z"
         inkscape:randomized="0"
         inkscape:rounded="0"
         inkscape:flatsided="false"
         sodipodi:arg2="1.3230568"
         sodipodi:arg1="0.69473828"
         sodipodi:r2="4.7712951"
         sodipodi:r1="9.5425901"
         sodipodi:cy="293.96637"
         sodipodi:cx="74.530014"
         sodipodi:sides="5"
         id="path6511eg"
         style="opacity:0.87000002;fill:#ff8080;fill-opacity:1;stroke:#0000ff;stroke-width:0.6047619;stroke-miterlimit:4;stroke-dasharray:none"
         sodipodi:type="star" />
      <path
         inkscape:transform-center-y="0.22428177"
         inkscape:transform-center-x="0.37755769"
         d="m 108.74051,312.2934 -1.06782,-3.99694 -3.89796,-1.38629 3.47135,-2.25068 0.1139,-4.13556 3.21323,2.60595 3.96835,-1.16963 -1.48546,3.86124 2.33867,3.41269 -4.13129,-0.21956 z"
         inkscape:randomized="0"
         inkscape:rounded="0"
         inkscape:flatsided="false"
         sodipodi:arg2="2.3965104"
         sodipodi:arg1="1.7681919"
         sodipodi:r2="3.115"
         sodipodi:r1="6.23"
         sodipodi:cy="306.18439"
         sodipodi:cx="109.96231"
         sodipodi:sides="5"
         id="path6513eg"
         style="opacity:0.87000002;fill:#ff8080;fill-opacity:1;stroke:#0000ff;stroke-width:0.6047619;stroke-miterlimit:4;stroke-dasharray:none"
         sodipodi:type="star" />
      <path
         inkscape:transform-center-y="-0.16705416"
         inkscape:transform-center-x="0.16705535"
         d="m 92.857067,295.18814 -2.173306,-0.73698 -1.839194,1.3725 0.02933,-2.29468 -1.873674,-1.32505 2.191432,-0.6812 0.6812,-2.19143 1.32505,1.87368 2.294678,-0.0293 -1.372506,1.8392 z"
         inkscape:randomized="0"
         inkscape:rounded="0"
         inkscape:flatsided="false"
         sodipodi:arg2="1.4137167"
         sodipodi:arg1="0.78539816"
         sodipodi:r2="1.727891"
         sodipodi:r1="3.4557824"
         sodipodi:cy="292.74454"
         sodipodi:cx="90.41346"
         sodipodi:sides="5"
         id="path6515eg"
         style="opacity:0.87000002;fill:#ff8080;fill-opacity:1;stroke:#0000ff;stroke-width:0.6047619;stroke-miterlimit:4;stroke-dasharray:none"
         sodipodi:type="star" />
      <path
         inkscape:transform-center-y="-0.1121867"
         inkscape:transform-center-x="-0.63956251"
         d="m 84.736419,309.55335 2.201552,-4.70569 -2.628342,-4.48131 5.155694,0.63966 3.44978,-3.8845 0.984842,5.10102 4.760422,2.08056 -4.547027,2.51294 -0.507677,5.17036 -3.79506,-3.54794 z"
         inkscape:randomized="0"
         inkscape:rounded="0"
         inkscape:flatsided="false"
         sodipodi:arg2="3.0951702"
         sodipodi:arg1="2.4668517"
         sodipodi:r2="3.9116797"
         sodipodi:r1="7.8233595"
         sodipodi:cy="304.66614"
         sodipodi:cx="90.845436"
         sodipodi:sides="5"
         id="path6517eg"
         style="opacity:0.87000002;fill:#ff8080;fill-opacity:1;stroke:#0000ff;stroke-width:0.6047619;stroke-miterlimit:4;stroke-dasharray:none"
         sodipodi:type="star" />
    </g>
    <path
       sodipodi:type="spiral"
       style="fill:#00ffff;fill-rule:evenodd;stroke:#000000;stroke-width:0.6047619px;stroke-linecap:butt;stroke-linejoin:miter;stroke-opacity:1"
       id="eaglynew2"
       sodipodi:cx="73.308212"
       sodipodi:cy="393.74982"
       sodipodi:expansion="1"
       sodipodi:revolution="3"
       sodipodi:radius="41.613129"
       sodipodi:argument="-18.147299"
       sodipodi:t0="0"
       d="m 73.308212,393.74982 c 1.592741,1.3477 -1.030876,2.81189 -2.239973,2.64724 -3.276579,-0.4462 -4.137127,-4.52375 -3.054508,-7.12719 1.936552,-4.65694 7.887895,-5.67954 12.014402,-3.46177 6.055815,3.25466 7.263028,11.296 3.869042,16.90161 -4.52365,7.4714 -14.719492,8.86373 -21.788831,4.27631 -8.896041,-5.77281 -10.473289,-18.15026 -4.683575,-26.67604 7.01212,-10.32587 21.585119,-12.08797 31.563258,-5.09085 11.758893,8.24586 13.705843,25.02253 5.49811,36.45048 -9.476152,13.19401 -28.461631,15.32586 -41.337687,5.90537 -14.630593,-10.70415 -16.947384,-31.90193 -6.312644,-46.2249 11.930572,-16.06821 35.343106,-18.56999 51.112116,-6.71991 17.506588,13.15584 20.193418,38.78494 7.127178,55.99933">
      <desc
         id="desc6528">a new test shape to play with! :)</desc>
    </path>
    <path
       d="m 205.26299,520.81738 c 1.59274,1.34771 -1.03088,2.8119 -2.23998,2.64724 -3.27658,-0.44619 -4.13713,-4.52374 -3.05451,-7.12718 1.93656,-4.65695 7.8879,-5.67955 12.01441,-3.46178 6.05581,3.25466 7.26302,11.296 3.86904,16.90162 -4.52365,7.4714 -14.71949,8.86373 -21.78883,4.27631 -8.89604,-5.77281 -10.47329,-18.15027 -4.68358,-26.67605 7.01212,-10.32586 21.58512,-12.08796 31.56326,-5.09084 11.75889,8.24586 13.70584,25.02252 5.49811,36.45047 -9.47615,13.19402 -28.46163,15.32587 -41.33769,5.90538 -14.63059,-10.70416 -16.94738,-31.90193 -6.31264,-46.2249 11.93057,-16.06821 35.3431,-18.57 51.11211,-6.71991 17.50659,13.15583 20.19342,38.78493 7.12718,55.99933"
       sodipodi:t0="0"
       sodipodi:argument="-18.147299"
       sodipodi:radius="41.613129"
       sodipodi:revolution="3"
       sodipodi:expansion="1"
       sodipodi:cy="520.81738"
       sodipodi:cx="205.26299"
       id="path6530eg"
       style="fill:#800000;fill-rule:evenodd;stroke:#000000;stroke-width:0.6047619px;stroke-linecap:butt;stroke-linejoin:miter;stroke-opacity:1"
       sodipodi:type="spiral">
      <desc
         id="desc6532">a new test shape to play with! :)</desc>
    </path>
  </g>
  <rect
     height="448"
     id="Border"
     style="fill:none;stroke:#800080;stroke-width:0.60342091"
     width="448"
     x="1"
     y="1" />
	 
	 
	 <!-- creatures from original versions! :) -->
	 
			<a style="fill-opacity:0.75" xlink:href="http://life.worldsowisdom.com/flow/"> <rect height="90" id="YellowRect" onmouseout="setAttribute('fill-opacity','0.5')" onmouseover="setAttribute('fill-opacity','1.0')" style="fill:yellow;stroke:#000000" width="90" x="150" y="90"> <desc id="desc3364">A clickable square!</desc>
			<title id="title3362"></title>
			</rect> </a> <a style="fill-opacity:0.75" xlink:href="http://life.worldsowisdom.com/flow/">
			<rect height="90" id="OrangeRect" onmouseout="setAttribute('fill-opacity','0.75')" onmouseover="setAttribute('fill-opacity','1.0')" style="fill:orange;stroke:#000000" width="90" x="60" y="300"> <desc id="desc3364">A clickable square!</desc>
			<title id="title3362"></title>
			</rect> </a>

<path xmlns="http://www.w3.org/2000/svg" sodipodi:type="spiral" xmlns:sodipodi="http://sodipodi.sourceforge.net/DTD/sodipodi-0.dtd" style="fill:#00ffff;fill-rule:evenodd;stroke:#000000;stroke-width:0.6047619px;stroke-linecap:butt;stroke-linejoin:miter;stroke-opacity:1" id="eaglynew" sodipodi:cx="73.308212" sodipodi:cy="393.74982" sodipodi:expansion="1" sodipodi:revolution="3" sodipodi:radius="41.613129" sodipodi:argument="-18.147299" sodipodi:t0="0" d="m 73.308212,393.74982 c 1.592741,1.3477 -1.030876,2.81189 -2.239973,2.64724 -3.276579,-0.4462 -4.137127,-4.52375 -3.054508,-7.12719 1.936552,-4.65694 7.887895,-5.67954 12.014402,-3.46177 6.055815,3.25466 7.263028,11.296 3.869042,16.90161 -4.52365,7.4714 -14.719492,8.86373 -21.788831,4.27631 -8.896041,-5.77281 -10.473289,-18.15026 -4.683575,-26.67604 7.01212,-10.32587 21.585119,-12.08797 31.563258,-5.09085 11.758893,8.24586 13.705843,25.02253 5.49811,36.45048 -9.476152,13.19401 -28.461631,15.32586 -41.337687,5.90537 -14.630593,-10.70415 -16.947384,-31.90193 -6.312644,-46.2249 11.930572,-16.06821 35.343106,-18.56999 51.112116,-6.71991 17.506588,13.15584 20.193418,38.78494 7.127178,55.99933" transform="translate(25, 25 )">
    <desc id="desc36">a new test shape to play with! :)</desc>
  </path><rect xmlns="http://www.w3.org/2000/svg" height="10" id="AvrilNiblet1" onmouseout="setAttribute('fill-opacity','0.5')" onmouseover="setAttribute('fill-opacity','1.0')" style="fill:yellow;stroke:black" width="10" x="225" y="225" transform="translate(25, 25 )">
    <desc id="desc71">Avril's first little niblet! :)</desc>
    <title id="title73"/>
  </rect><path xmlns="http://www.w3.org/2000/svg" fill-opacity="0.43046721000000016" onmousedown="Reverse(PurpleSpiral)" id="PurpleSpiral" d="m 282.09113,269.50729 c 1.52075,1.52076 -1.29967,2.80025 -2.52761,2.52761 -3.32763,-0.73884 -3.86257,-5.00113 -2.5276,-7.58281 2.38796,-4.61803 8.58895,-5.15902 12.63801,-2.5276 5.94217,3.86172 6.4939,12.22544 2.5276,17.69322 -5.28645,7.28768 -15.87921,7.84514 -22.74842,2.52759 -8.6442,-6.69159 -9.20486,-19.54122 -2.5276,-27.80363 8.08706,-10.00688 23.20787,-10.56947 32.85884,-2.52759 11.37333,9.47708 11.93717,26.8774 2.52759,37.91404 -10.86373,12.74223 -30.54887,13.30692 -42.96924,2.52759 -14.11282,-12.24817 -14.67812,-34.22169 -2.52759,-48.02445 13.63105,-15.4846 37.8955,-16.05034 53.07965,-2.52759 16.85728,15.01283 17.42336,41.57006 2.52759,58.13486" inkscape:tile-cx="185.6451" xmlns:inkscape="http://www.inkscape.org/namespaces/inkscape" inkscape:tile-cy="265.9547" inkscape:tile-h="68.00056" inkscape:tile-w="75.106916" inkscape:tile-x0="148.09164" inkscape:tile-y0="231.95443" sodipodi:argument="-18.064157" xmlns:sodipodi="http://sodipodi.sourceforge.net/DTD/sodipodi-0.dtd" sodipodi:cx="182.09113" sodipodi:cy="269.50729" sodipodi:expansion="1" sodipodi:radius="42.894836" sodipodi:revolution="3" sodipodi:t0="0" sodipodi:type="spiral" style="fill:#800080;fill-rule:evenodd;stroke:#000000;stroke-width:0.2081555px;stroke-linecap:butt;stroke-linejoin:miter;stroke-opacity:1" transform="translate(25, 25)"/><image xmlns="http://www.w3.org/2000/svg" id="back3" width="448" height="448" x="1" y="1" xlink:href="creatures/png/back3.png" xmlns:xlink="http://www.w3.org/1999/xlink"/><image xmlns="http://www.w3.org/2000/svg" id="galaxy3" width="294" height="150" x="150" y="100" style="opacity:0.5" onmousedown="tool(eg_newy)" xlink:href="creatures/png/galaxy3.png" xmlns:xlink="http://www.w3.org/1999/xlink" transform="translate(25, 25 )"/><image xmlns="http://www.w3.org/2000/svg" id="galaxy4" width="306" height="150" x="50" y="250" style="opacity:0.25" onmousedown="tool(eg_newy2)" xlink:href="creatures/png/galaxy4.png" xmlns:xlink="http://www.w3.org/1999/xlink" transform="translate(25, 12.5 )"/><image xmlns="http://www.w3.org/2000/svg" id="planet3" width="157" height="150" x="100" y="250" style="opacity:0.5" onmousedown="tool(eg_niblet)" xlink:href="creatures/png/planet3.png" xmlns:xlink="http://www.w3.org/1999/xlink" transform="translate(25, 0.0 )"/><image xmlns="http://www.w3.org/2000/svg" id="planet4" width="150" height="150" x="300" y="150" style="opacity:0.9" onmousedown="tool(eg_medy)" xlink:href="creatures/png/planet4.png" xmlns:xlink="http://www.w3.org/1999/xlink" transform="translate(25, 0.0 )"/><image xmlns="http://www.w3.org/2000/svg" id="satellite3" width="79" height="150" x="200" y="250" onmousedown="tool(satellite3)" xlink:href="creatures/png/satellite3.png" xmlns:xlink="http://www.w3.org/1999/xlink" transform="translate(25, 25 )"/><image xmlns="http://www.w3.org/2000/svg" id="satellite4" width="109" height="75" x="50" y="50" onmousedown="tool(satellite4)" xlink:href="creatures/png/satellite4.png" xmlns:xlink="http://www.w3.org/1999/xlink" transform="translate(25, 25 )"/><image xmlns="http://www.w3.org/2000/svg" id="mediumcreature3" width="38" height="50" x="300" y="175" onmousedown="tool(the_rect)" xlink:href="creatures/png/mediumcreature3.png" xmlns:xlink="http://www.w3.org/1999/xlink" transform="translate( 0.0 , 25 )"/><image xmlns="http://www.w3.org/2000/svg" id="niblet3" width="21" height="32" x="400" y="350" onmousedown="tool(pink_rect)" xlink:href="creatures/png/niblet3.png" xmlns:xlink="http://www.w3.org/1999/xlink" transform="translate( 0.0 , 25 )"/><image xmlns="http://www.w3.org/2000/svg" id="bigbeauty3" width="92" height="110" x="100" y="150" onmousedown="tool(eg_biggo)" xlink:href="creatures/png/bigbeauty3.png" xmlns:xlink="http://www.w3.org/1999/xlink" transform="translate(25, 0.0 )"/><path xmlns="http://www.w3.org/2000/svg" id="Creature-0.14323764596786703" d="M 102.32114296488926, 3.6570387862710203 Q 56.702396909926804, 14.688691480344012 43.533416618722654, 8.260982490755083 T 13.756581122075108, 7.622821374266724, 87.02348679568733 5.598705779921447, 79.89699323535488 12.07165867675216, 46.44994865645025 2.3530768607339723, 54.58686035429263 6.970247009823219 z" style="fill:yellow;stroke:orange" stroke-width="2.5317646121294235" transform="translate(-10.737092719816326, 87.27157402819883) rotate(0.04427592266427984 69.15833282470703 64.50833129882812)" onmousedown="tool('Creature-0.14323764596786703')" class="creatureClass"><title>Creature-0.14323764596786703</title><desc>moveLifePathCreature2("Creature-0.14323764596786703", 1, 1)</desc></path><path xmlns="http://www.w3.org/2000/svg" id="Creature-0.783776540002037" d="M 44.60087501445814, 237.8040160138304 Q 176.1617421740435, 42.203203103037275 41.6205284909626, 330.7142311843356 T 340.50603252137205, 201.9116701474926, 327.00264226031436 47.440764477438606, 237.4631605742845 76.35079447778548, 274.0561965529279 9.54344450781435, 237.58653907304654 168.6400531846316 z" style="fill:yellow;stroke:orange" stroke-width="7.727024969528198" transform="translate(-3.7980308348874416, 50.59676581871186) rotate(-0.0060358325305840885 209.57501220703125 66.14997863769531)" onmousedown="tool('Creature-0.783776540002037')" class="creatureClass"><title>Creature-0.783776540002037</title><desc>moveLifePathCreature2("Creature-0.783776540002037", 1, 1)</desc></path><path xmlns="http://www.w3.org/2000/svg" id="Creature-0.7194635279939458" d="M 68.31230392266315, 30.69225005097017 Q 84.05235582499198, 78.17165384147404 113.61962996236541, 98.4250297821439 T 14.285105969172813, 2.080872476086362, 112.14657102552813 44.18000883910124, 120.59865940038911 37.05508253460686, 43.74556458341201 74.28764201509745, 91.50433561082994 15.177629635567923 z" style="fill:yellow;stroke:orange" stroke-width="17.277926090024263" transform="translate(-247, -247) rotate(-0.3229644234805462 -125.00833129882812 -201.66665649414062)" onmousedown="tool('Creature-0.7194635279939458')" class="creatureClass"><title>Creature-0.7194635279939458</title><desc>moveLifePathCreature2("Creature-0.7194635279939458", 1, 1)</desc></path><path xmlns="http://www.w3.org/2000/svg" id="Creature-0.01669555066491446" d="M 20.446119085140133, 63.44296849234994 Q 181.52754924293265, 117.91244648396324 97.40515032947059, 60.53623941573065 T 182.25632558236765, 90.8161616363662, 64.51847474472729 38.599670290997516, 90.54439634253028 38.42699212531542, 8.020890015337173 83.2457164479578, 115.17879624829118 49.38999040179685 z" style="fill:yellow;stroke:orange" stroke-width="17.171637035149917" transform="translate(13.170675992761545, 107.1194306181668) rotate(-0.008558678077579825 259.6750030517578 129.7249984741211)" onmousedown="tool('Creature-0.01669555066491446')" class="creatureClass"><title>Creature-0.01669555066491446</title><desc>moveLifePathCreature2("Creature-0.01669555066491446", 1, 1)</desc></path><path xmlns="http://www.w3.org/2000/svg" id="Creature-0.5152310193902898" d="M 7.6387947522242685, 21.64945190066012 Q 2.7218599823520546, 96.8757590489685 3.488106770643126, 28.979415788137267 T 4.500794853251278, 7.711598802674996, 5.227360389823953 45.37271116129772, 3.1657859719473733 45.642299646425165, 4.523419241011146 96.83985648350667, 11.020532678301057 101.10146052213082 z" style="fill:yellow;stroke:orange" stroke-width="17.871610654498703" transform="translate(61.19355010986328, 172.07357788085938) rotate(-0.08580128335519617 90.875 214.3499984741211)" onmousedown="tool('Creature-0.5152310193902898')" class="creatureClass"><title>Creature-0.5152310193902898</title><desc>moveLifePathCreature2("Creature-0.5152310193902898", 1, 1)</desc></path><path xmlns="http://www.w3.org/2000/svg" id="Creature-0.9745928667491368-0.07832121425011929" d="M 11.12248200026208, 7.64192402917531 Q 22.466420899600223, 2.5572091930067695 2.936961972628665, 3.6608663441555174 T 32.02687269660418, 4.3317882128949385, 1.6133852029008264 7.67491362673732, 4.255520934137865 5.587449888807775, 11.955568544501386 5.449663892657334, 7.749235607394605 0.10259899659428492 z" style="fill:yellow;stroke:orange" stroke-width="16.906313210279848" transform="translate(32.28154129825329, 38.87468911593732 )" onmousedown="deleteClone('Creature-0.9745928667491368-0.07832121425011929')" class="creatureClass"><title>Creature-0.9745928667491368</title><desc>moveLifePathCreature2("Creature-0.9745928667491368", 1, 1)</desc></path><path xmlns="http://www.w3.org/2000/svg" id="Creature-0.9745928667491368" d="M 11.12248200026208, 7.64192402917531 Q 22.466420899600223, 2.5572091930067695 2.936961972628665, 3.6608663441555174 T 32.02687269660418, 4.3317882128949385, 1.6133852029008264 7.67491362673732, 4.255520934137865 5.587449888807775, 11.955568544501386 5.449663892657334, 7.749235607394605 0.10259899659428492 z" style="fill:yellow;stroke:orange" stroke-width="16.906313210279848" transform="translate(117.38987250895326, 100.31510124431988) rotate(0.24836543791987672 132.4000015258789 80.38333892822266)" onmousedown="tool('Creature-0.9745928667491368')" class="creatureClass"><title>Creature-0.9745928667491368</title><desc>moveLifePathCreature2("Creature-0.9745928667491368", 1, 1)</desc></path><rect xmlns="http://www.w3.org/2000/svg" id="Creature-0.04687537452535129" x="0" y="0" width="5.095513308602024" height="5.22263136054991" style="fill:yellow;stroke:black" transform="translate(59.7933349609375, 25.06750030517578) rotate(623.008612340607)" onmousedown="tool('Creature-0.04687537452535129')" class="creatureClass"><title>Creature-0.04687537452535129</title><desc>moveCoolCreature("Creature-0.04687537452535129", 1, 1)</desc></rect><rect xmlns="http://www.w3.org/2000/svg" id="Creature-0.2611704594565889" x="0" y="0" width="32.07922437516676" height="29.440242852067655" style="fill:yellow;stroke:black" transform="translate(82.41583099365235, 25.139998626708984) rotate(570.2034716797966)" onmousedown="tool('Creature-0.2611704594565889')" class="creatureClass"><title>Creature-0.2611704594565889</title><desc>moveCoolCreature("Creature-0.2611704594565889", 1, 1)</desc></rect><rect xmlns="http://www.w3.org/2000/svg" id="Creature-0.5447833116321802" x="0" y="0" width="68.82392971512226" height="38.30015304050704" style="fill:yellow;stroke:black" transform="translate(136.3375015258789, 122.78500137329101) rotate(433.3277490671568)" onmousedown="tool('Creature-0.5447833116321802')" class="creatureClass"><title>Creature-0.5447833116321802</title><desc>moveCoolCreature("Creature-0.5447833116321802", 1, 1)</desc></rect><rect xmlns="http://www.w3.org/2000/svg" id="Creature-0.07445274787217793" x="0" y="0" width="69.37658462178652" height="37.465378679019196" style="fill:yellow;stroke:black" transform="translate(176.66000366210938, 90.43250122070313) rotate(859.2082518547121)" onmousedown="tool('Creature-0.07445274787217793')" class="creatureClass"><title>Creature-0.07445274787217793</title><desc>moveCoolCreature("Creature-0.07445274787217793", 1, 1)</desc></rect><rect xmlns="http://www.w3.org/2000/svg" id="Creature-0.07303221350789468" x="0" y="0" width="32.87661573427976" height="37.73487840870154" style="fill:yellow;stroke:black" transform="translate(211.10000228881836, 83.24999923706055) rotate(47.010846205834625)" onmousedown="tool('Creature-0.07303221350789468')" class="creatureClass"><title>Creature-0.07303221350789468</title><desc>moveCoolCreature("Creature-0.07303221350789468", 1, 1)</desc></rect><rect xmlns="http://www.w3.org/2000/svg" id="Creature-0.0273485946964509" x="0" y="0" width="16.07010314311813" height="4.8705469597923345" style="fill:yellow;stroke:black" transform="translate(161.6500015258789, 95.29499969482421) rotate(312.90717628636065)" onmousedown="tool('Creature-0.0273485946964509')" class="creatureClass"><title>Creature-0.0273485946964509</title><desc>moveCoolCreature("Creature-0.0273485946964509", 1, 1)</desc></rect><rect xmlns="http://www.w3.org/2000/svg" id="Creature-0.39978133062702004" x="0" y="0" width="1.8250588056997152" height="29.924580239313208" style="fill:yellow;stroke:black" transform="translate(196.16000366210938, 77.19499893188477) rotate(214.67497260948642)" onmousedown="tool('Creature-0.39978133062702004')" class="creatureClass"><title>Creature-0.39978133062702004</title><desc>moveCoolCreature("Creature-0.39978133062702004", 1, 1)</desc></rect><rect xmlns="http://www.w3.org/2000/svg" id="Creature-0.171901156238089" x="0" y="0" width="73.3610523734821" height="6.531685842345003" style="fill:yellow;stroke:black" transform="translate(157.78249588012696, 110.85750198364258) rotate(961.2259686333219)" onmousedown="tool('Creature-0.171901156238089')" class="creatureClass"><title>Creature-0.171901156238089</title><desc>moveCoolCreature("Creature-0.171901156238089", 1, 1)</desc></rect><rect xmlns="http://www.w3.org/2000/svg" id="Creature-0.637631422807059" x="0" y="0" width="55.63775518544486" height="1.8256749201953681" style="fill:yellow;stroke:black" transform="translate(3.146666717529297, -20.152500915527344) rotate(5.748330947162095)" onmousedown="tool('Creature-0.637631422807059')" class="creatureClass"><title>Creature-0.637631422807059</title><desc>moveCoolCreature("Creature-0.637631422807059", 1, 1)</desc></rect><rect xmlns="http://www.w3.org/2000/svg" id="Creature-0.30328792862157483" x="0" y="0" width="12.83165683281438" height="10.7291062485637" style="fill:yellow;stroke:black" transform="translate(184.87999725341797, 86.44500198364258) rotate(639.1313132656413)" onmousedown="tool('Creature-0.30328792862157483')" class="creatureClass"><title>Creature-0.30328792862157483</title><desc>moveCoolCreature("Creature-0.30328792862157483", 1, 1)</desc></rect><circle xmlns="http://www.w3.org/2000/svg" id="Creature-0.22755303162773088" r="20" cx="213.9416354757735" cy="279.05258057746494" style="fill:blue;stroke:purple" transform="translate(169.8979457543111, 35.94824851017633)" onmousedown="deleteCreature('Creature-0.22755303162773088')" class="creatureClass"><title>Creature-0.22755303162773088</title><desc>moveSmoothyCreature("Creature-0.22755303162773088", 1, 1)</desc></circle><line xmlns="http://www.w3.org/2000/svg" id="Creature-0.9047822417392273" x1="48.37295467588881" x2="7.829947356764267" y1="103.10498479570364" y2="71.66372545272709" style="fill:orange;stroke:pink" stroke-width="9.005348960692732" transform="translate(0,0)" onmousedown="tool('Creature-0.9047822417392273')" class="creatureClass"><title>Creature-0.9047822417392273</title><desc>moveStaticCreature("Creature-0.9047822417392273", 1, 1)</desc></line><line xmlns="http://www.w3.org/2000/svg" id="Creature-0.7239305508297211" x1="30.19798595886637" x2="3.407153847685729" y1="383.30696354746993" y2="355.4614011150296" style="fill:orange;stroke:pink" stroke-width="16.57957602823487" transform="translate(0,0)" onmousedown="tool('Creature-0.7239305508297211')" class="creatureClass"><title>Creature-0.7239305508297211</title><desc>moveStaticCreature("Creature-0.7239305508297211", 1, 1)</desc></line><line xmlns="http://www.w3.org/2000/svg" id="Creature-0.9284057537112721" x1="282.35800850821323" x2="253.8285947667755" y1="276.1522733013078" y2="233.72745990124" style="fill:orange;stroke:pink" stroke-width="9.044788622303557" transform="translate(0,0)" onmousedown="tool('Creature-0.9284057537112721')" class="creatureClass"><title>Creature-0.9284057537112721</title><desc>moveStaticCreature("Creature-0.9284057537112721", 1, 1)</desc></line><line xmlns="http://www.w3.org/2000/svg" id="Creature-0.8069128093657677" x1="211.93448692817006" x2="210.3556046621669" y1="204.12991232092693" y2="149.91239299355604" style="fill:orange;stroke:pink" stroke-width="18.77589372209793" transform="translate(0,0)" onmousedown="tool('Creature-0.8069128093657677')" class="creatureClass"><title>Creature-0.8069128093657677</title><desc>moveStaticCreature("Creature-0.8069128093657677", 1, 1)</desc></line><line xmlns="http://www.w3.org/2000/svg" id="Creature-0.8723722666544379" x1="71.28297480385808" x2="64.96155611016484" y1="379.74615376411333" y2="367.0412023809473" style="fill:orange;stroke:pink" stroke-width="3.9118686906724354" transform="translate(0,0)" onmousedown="tool('Creature-0.8723722666544379')" class="creatureClass"><title>Creature-0.8723722666544379</title><desc>moveStaticCreature("Creature-0.8723722666544379", 1, 1)</desc></line><path xmlns="http://www.w3.org/2000/svg" id="Creature-0.4226479287880027" d="M 108.82487961712526, 79.65287548716347 Q 72.356423067818, 145.57596339499264 206.3960833121201, 263.76639985942955 T 51.151749553682826, 175.74930273488596, 116.69577650182177 91.9487379015812, 92.46768645079987 51.64562038042691, 187.91159366844008 109.95372805994937, 0.74118562657706 143.34011996328198 z" style="fill:yellow;stroke:orange" stroke-width="15.045658431879918" transform="translate(-942.2212812710941, -308.35058801852836) rotate(0.5997093582271765 -845.4999694824219 -182.2833251953125)" onmousedown="tool('Creature-0.4226479287880027')" class="creatureClass"><title>Creature-0.4226479287880027</title><desc>moveLifePathCreature2("Creature-0.4226479287880027", 1, 1)</desc></path><rect xmlns="http://www.w3.org/2000/svg" id="Creature-0.759866993018282" x="0" y="0" width="31.140378401222524" height="33.014119656908576" style="fill:yellow;stroke:black" transform="translate(50.73250198364258, 21.355000305175782) rotate(602.4307089340122)" onmousedown="tool('Creature-0.759866993018282')" class="creatureClass"><title>Creature-0.759866993018282</title><desc>moveCoolCreature("Creature-0.759866993018282", 1, 1)</desc></rect><rect xmlns="http://www.w3.org/2000/svg" id="Creature-0.32753375479018576" x="0" y="0" width="23.53966846534176" height="7.802709234418761" style="fill:yellow;stroke:black" transform="translate(46.245001220703124, 19.35750045776367) rotate(527.0796890755079)" onmousedown="tool('Creature-0.32753375479018576')" class="creatureClass"><title>Creature-0.32753375479018576</title><desc>moveCoolCreature("Creature-0.32753375479018576", 1, 1)</desc></rect><rect xmlns="http://www.w3.org/2000/svg" id="Creature-0.9231148747511051" x="0" y="0" width="19.329903084332464" height="20.20729100008274" style="fill:yellow;stroke:black" transform="translate(16.017499542236326, -2.332500457763672) rotate(896.015841950193)" onmousedown="tool('Creature-0.9231148747511051')" class="creatureClass"><title>Creature-0.9231148747511051</title><desc>moveCoolCreature("Creature-0.9231148747511051", 1, 1)</desc></rect><path xmlns="http://www.w3.org/2000/svg" id="Creature-0.512668090742113" d="M 112.11821636870465 177.8629971428865, 106.37408625011366 223.54361242830876, 264.11827028903934 242.95196737992916, 47.96277484279397 307.1210732715407, 105.97239004130611 315.08707474089175, 259.2890658086077 112.73579730521477, 52.16098108807075 86.34027286176114 z" style="fill:black;stroke:yellow" stroke-width="17.581568750165225" transform="translate(-9.149030578348512, 57.224629606181175) rotate(0.02819131630578036 156.5 230.9083251953125)" onmousedown="tool('Creature-0.512668090742113')" class="creatureClass"><title>Creature-0.512668090742113</title><desc>moveLifePathCreature("Creature-0.512668090742113", 1, 1)</desc></path><path xmlns="http://www.w3.org/2000/svg" id="Creature-0.27969386418389064" d="M 107.59693189316657, 2.9679956612921594 Q 82.50315222106069, 30.316798386900015 111.08935623051586, 50.27611501178887 T 133.28679849140153, 47.036015462147304, 5.349273286465396 20.331332113120936, 76.9696832637612 39.49066206616322, 142.5609429575659 33.325504863313654, 111.66642733017497 40.617824727806166 z" style="fill:yellow;stroke:orange" stroke-width="1.790959202804534" transform="translate(141.065467568268, 91.36568254504174) rotate(0.25944361065881727 226.21666717529297 96.3166732788086)" onmousedown="tool('Creature-0.27969386418389064')" class="creatureClass"><title>Creature-0.27969386418389064</title><desc>moveLifePathCreature2("Creature-0.27969386418389064", 1, 1)</desc></path><path xmlns="http://www.w3.org/2000/svg" id="Creature-0.08308504598824928" d="M 261.0019044385971, 85.66453889075443 Q 31.911619912727915, 99.97280163096158 267.9880790173405, 75.66914021184905 T 264.5421170633175, 56.56126930374102, 125.50041124234299 102.13882695744832, 246.58745952242438 36.49934357126551, 288.67999360889644 6.939196398224626, 131.39660051148564 81.79456864881057 z" style="fill:yellow;stroke:orange" stroke-width="15.818061340417273" transform="translate(4.581256725496131, 202.6125452450474) rotate(-0.0008384600850473409 254.83334350585938 221.01667022705078)" onmousedown="tool('Creature-0.08308504598824928')" class="creatureClass"><title>Creature-0.08308504598824928</title><desc>moveLifePathCreature2("Creature-0.08308504598824928", 1, 1)</desc></path><path xmlns="http://www.w3.org/2000/svg" id="Creature-0.3654962764262133" d="M 100.35886132595098, 9.31537851472268 Q 15.491626629809437, 78.19583362947002 23.84483507731629, 34.149195536660926 T 88.04657700771492, 48.395143554037666, 89.55169465691264 27.02029050382208, 73.58980265285177 11.160174682269433, 100.30403743224294 86.88508359812138, 7.5686175378756 6.915718258426665 z" style="fill:yellow;stroke:orange" stroke-width="8.761151886496696" transform="translate(174.92603300873654, 223.03349471984254) rotate(-0.3554503358232729 246.53333282470703 230.60832977294922)" onmousedown="tool('Creature-0.3654962764262133')" class="creatureClass"><title>Creature-0.3654962764262133</title><desc>moveLifePathCreature2("Creature-0.3654962764262133", 1, 1)</desc></path><path xmlns="http://www.w3.org/2000/svg" id="Creature-0.3630208603817021" d="M 17.80089507478363, 21.540718043622018 Q 5.410191406073902, 54.64751439323521 42.07772119893059, 23.723290247701446 T 71.90678637594499, 69.12305782691989, 46.16464612329449 42.777982224330565, 31.2665325097347 38.76306778751103, 33.11134036275111 28.076095774980733, 14.768478340521071 1.7975645168232686 z" style="fill:yellow;stroke:orange" stroke-width="1.4540851696636103" transform="translate(-4.4462984645440145, 111.32599418870028) rotate(-0.009374299605641487 49.474998474121094 120.71666717529297)" onmousedown="tool('Creature-0.3630208603817021')" class="creatureClass"><title>Creature-0.3630208603817021</title><desc>moveLifePathCreature2("Creature-0.3630208603817021", 1, 1)</desc></path><path xmlns="http://www.w3.org/2000/svg" id="Creature-0.5552710658895823" d="M 99.97991154879173, 2.7901241916826818 Q 217.48376954146434, 12.52770476100983 107.38656956098625, 19.083526006519616 T 34.75003166413462, 22.563673274550183, 103.75842336722539 2.3164040806154746, 16.039394525165665 22.79017606180858, 292.72795909786265 7.251708385154788, 72.80190107249551 7.1724561862937355 z" style="fill:yellow;stroke:orange" stroke-width="7.554830754508551" transform="translate(-4.177428504026523, 136.09942495241597) rotate(0.012947513374225833 113.83332824707031 119.59165954589844)" onmousedown="tool('Creature-0.5552710658895823')" class="creatureClass"><title>Creature-0.5552710658895823</title><desc>moveLifePathCreature2("Creature-0.5552710658895823", 1, 1)</desc></path><path xmlns="http://www.w3.org/2000/svg" id="Creature-0.4523186763219921" d="M 271.5298982149052, 13.921654756303058 Q 346.7415768158882, 21.938488780312255 284.66738730334134, 44.6005481598608 T 396.65247023598414, 24.538802174575064, 406.4712972248946 10.956372912734027, 88.3337602687658 91.49820060145564, 195.7156470489413 35.01609274164317, 245.38220884004076 65.36054087192092 z" style="fill:yellow;stroke:orange" stroke-width="18.880828396749855" transform="translate(-79.92447151887995, 120.94457091049459) rotate(-0.11778293572889803 151.8416748046875 146.83333587646484)" onmousedown="tool('Creature-0.4523186763219921')" class="creatureClass"><title>Creature-0.4523186763219921</title><desc>moveLifePathCreature2("Creature-0.4523186763219921", 1, 1)</desc></path><path xmlns="http://www.w3.org/2000/svg" id="Creature-0.8268320913719558" d="M 28.268591933534104, 99.44748354970288 Q 58.16073362609954, 0.34201449582445065 23.565348171030323, 21.262261802243167 T 41.55029334945864, 210.23279079531773, 8.098577369489142 65.79791081408415, 18.129890624814145 42.39544477634261, 1.311007312061477 159.4015205733524, 29.02059340208136 48.193739727484726 z" style="fill:yellow;stroke:orange" stroke-width="16.527169034971898" transform="translate(145.28078649536096, 181.83126897171928) rotate(-0.3700877679933234 165.7916717529297 142.6333465576172)" onmousedown="tool('Creature-0.8268320913719558')" class="creatureClass"><title>Creature-0.8268320913719558</title><desc>moveLifePathCreature2("Creature-0.8268320913719558", 1, 1)</desc></path><path xmlns="http://www.w3.org/2000/svg" id="Creature-0.32320526193631094" d="M 35.63167353455841, 272.4484599656373 Q 94.1303834048577, 277.47189350666247 34.09802738624293, 261.9820633495698 T 14.798694963399377, 273.2406748763776, 14.19641844342412 101.57452803845425, 28.093082865946407 201.4662606540121, 19.861414241002954 48.743314582411465, 58.35579287846438 62.8160398478883 z" style="fill:yellow;stroke:orange" stroke-width="13.943205334381519" transform="translate(91.14980230143088, 159.7574901693772) rotate(0.212074937589204 132.40833282470703 182.3666534423828)" onmousedown="tool('Creature-0.32320526193631094')" class="creatureClass"><title>Creature-0.32320526193631094</title><desc>moveLifePathCreature2("Creature-0.32320526193631094", 1, 1)</desc></path></svg>