<?xml version="1.0" encoding="UTF-8" standalone="no"?>
<!-- Created with LifeFLOW (http://life.worldsowisdom.com/flow/) -->

<svg
   xmlns:osb="http://www.openswatchbook.org/uri/2009/osb"
   xmlns:dc="http://purl.org/dc/elements/1.1/"
   xmlns:cc="http://creativecommons.org/ns#"
   xmlns:rdf="http://www.w3.org/1999/02/22-rdf-syntax-ns#"
   xmlns:svg="http://www.w3.org/2000/svg"
   xmlns="http://www.w3.org/2000/svg"
   xmlns:xlink="http://www.w3.org/1999/xlink"
   xmlns:sodipodi="http://sodipodi.sourceforge.net/DTD/sodipodi-0.dtd"
   xmlns:inkscape="http://www.inkscape.org/namespaces/inkscape"
   width="450"
   height="450"
   viewBox="0 0 450 450"
   id="svg2"
   version="1.1"
   inkscape:version="0.91 r13725"
   sodipodi:docname="newcreatures-plain.svg">
  <defs
     id="defs4">
    <linearGradient
       inkscape:collect="always"
       id="linearGradient6501">
      <stop
         style="stop-color:#0000ff;stop-opacity:1;"
         offset="0"
         id="stop6503" />
      <stop
         style="stop-color:#0000ff;stop-opacity:0;"
         offset="1"
         id="stop6505" />
    </linearGradient>
    <linearGradient
       id="linearGradient6455"
       osb:paint="solid">
      <stop
         style="stop-color:#0000ff;stop-opacity:1;"
         offset="0"
         id="stop6457" />
    </linearGradient>
    <filter
       inkscape:collect="always"
       style="color-interpolation-filters:sRGB"
       id="filter5001"
       x="-0.37912726"
       width="1.7582545"
       y="-0.65848422"
       height="2.3169684">
      <feGaussianBlur
         inkscape:collect="always"
         stdDeviation="6.3692616"
         id="feGaussianBlur5003" />
    </filter>
    <linearGradient
       inkscape:collect="always"
       xlink:href="#linearGradient6501"
       id="linearGradient6507"
       x1="242.51431"
       y1="178.50594"
       x2="313.40628"
       y2="178.50594"
       gradientUnits="userSpaceOnUse"
       gradientTransform="translate(-215.03742,319.7082)" />
  </defs>
  <sodipodi:namedview
     id="base"
     pagecolor="#ffffff"
     bordercolor="#666666"
     borderopacity="1.0"
     inkscape:pageopacity="0.0"
     inkscape:pageshadow="2"
     inkscape:zoom="0.24748738"
     inkscape:cx="463.57331"
     inkscape:cy="265.90363"
     inkscape:document-units="px"
     inkscape:current-layer="layer1"
     showgrid="false"
     inkscape:window-width="1366"
     inkscape:window-height="706"
     inkscape:window-x="-8"
     inkscape:window-y="-8"
     inkscape:window-maximized="1"
     units="px" />
  <metadata
     id="metadata7">
    <rdf:RDF>
      <cc:Work
         rdf:about="">
        <dc:format>image/svg+xml</dc:format>
        <dc:type
           rdf:resource="http://purl.org/dc/dcmitype/StillImage" />
        <dc:title></dc:title>
      </cc:Work>
    </rdf:RDF>
  </metadata>
  <g
     inkscape:label="Layer 1"
     inkscape:groupmode="layer"
     id="layer1"
     transform="translate(0,-364.28567)">
    <path
       sodipodi:type="star"
       style="opacity:0.28999999;fill:#00ffff;stroke:#800080"
       id="path4136eg"
       sodipodi:sides="5"
       sodipodi:cx="149.96248"
       sodipodi:cy="470.92843"
       sodipodi:r1="84.03109"
       sodipodi:r2="42.015545"
       sodipodi:arg1="0.31099828"
       sodipodi:arg2="0.93931681"
       inkscape:flatsided="false"
       inkscape:rounded="0"
       inkscape:randomized="0"
       d="m 229.96248,496.64272 -55.19656,8.19877 -24.53782,50.11762 -24.85417,-49.96149 -55.247286,-7.84966 39.835836,-39.07667 -9.60688,-54.96897 49.47407,25.81078 49.30991,-26.12303 -9.25918,55.0286 z"
       inkscape:transform-center-x="-0.082081267"
       inkscape:transform-center-y="7.9461513" />
    <path
       inkscape:transform-center-y="2.4320959"
       inkscape:transform-center-x="-0.025122895"
       d="m 68.791599,427.6385 -16.894071,2.5094 -7.510317,15.33956 -7.607143,-15.29177 -16.909598,-2.40255 12.192598,-11.96024 -2.940388,-16.82442 15.142583,7.89994 15.092337,-7.99551 -2.833967,16.84267 z"
       inkscape:randomized="0"
       inkscape:rounded="0"
       inkscape:flatsided="false"
       sodipodi:arg2="0.93931681"
       sodipodi:arg1="0.31099828"
       sodipodi:r2="12.859744"
       sodipodi:r1="25.719488"
       sodipodi:cy="419.76809"
       sodipodi:cx="44.305912"
       sodipodi:sides="5"
       id="path4138eg"
       style="opacity:0.28999999;fill:#00ffff;stroke:#800080;stroke-width:0.3060711"
       sodipodi:type="star" />
    <g
       id="BiggoEGbg"
       transform="translate(-109.96232,143.76849)">
      <desc
         id="desc4151">A big creature for LifeFLOW! :)</desc>
      <circle
         r="29.934187"
         cy="259.14496"
         cx="302.39636"
         id="path4137eg"
         style="opacity:0.28999999;fill:#ffff00;stroke:#800080;stroke-width:0.6047619" />
      <circle
         r="7.3308215"
         cy="265.86487"
         cx="307.8945"
         id="path4139eg"
         style="opacity:0.28999999;fill:#ffff00;stroke:#800080;stroke-width:0.6047619" />
      <ellipse
         ry="10.996231"
         rx="3.6654108"
         cy="251.20323"
         cx="292.01105"
         id="path4141eg"
         style="opacity:0.28999999;fill:#0000ff;stroke:#800080;stroke-width:0.6047619" />
      <ellipse
         ry="3.6654108"
         rx="9.7744284"
         cy="253.64687"
         cx="317.66891"
         id="path4143eg"
         style="opacity:0.28999999;fill:#0000ff;stroke:#800080;stroke-width:0.6047619" />
    </g>
    <rect
       style="opacity:0.87000002;fill:url(#linearGradient6507);fill-opacity:1;stroke:#0000ff;stroke-width:0.6047619;stroke-miterlimit:4;stroke-dasharray:none;filter:url(#filter5001)"
       id="MedyEGbg"
       width="40.319515"
       height="23.214266"
       x="42.763119"
       y="486.60684" />
    <g
       id="g6519eg"
       inkscape:label="#MedyEG"
       transform="translate(0,53.355016)">
      <rect
         y="281.74832"
         x="59.868374"
         height="31.766891"
         width="63.533783"
         id="rect6509eg"
         style="opacity:0.87000002;fill:#0000ff;fill-opacity:1;stroke:#0000ff;stroke-width:0.6047619;stroke-miterlimit:4;stroke-dasharray:none" />
      <path
         inkscape:transform-center-y="-0.19571458"
         inkscape:transform-center-x="0.72308977"
         d="m 81.860835,300.07539 -6.160837,-1.4834 -4.714657,4.23419 -0.493011,-6.31769 -5.483865,-3.17547 5.856139,-2.42116 1.325442,-6.19674 4.112304,4.82134 6.303033,-0.65433 -3.314595,5.40091 z"
         inkscape:randomized="0"
         inkscape:rounded="0"
         inkscape:flatsided="false"
         sodipodi:arg2="1.3230568"
         sodipodi:arg1="0.69473828"
         sodipodi:r2="4.7712951"
         sodipodi:r1="9.5425901"
         sodipodi:cy="293.96637"
         sodipodi:cx="74.530014"
         sodipodi:sides="5"
         id="path6511eg"
         style="opacity:0.87000002;fill:#ff8080;fill-opacity:1;stroke:#0000ff;stroke-width:0.6047619;stroke-miterlimit:4;stroke-dasharray:none"
         sodipodi:type="star" />
      <path
         inkscape:transform-center-y="0.22428177"
         inkscape:transform-center-x="0.37755769"
         d="m 108.74051,312.2934 -1.06782,-3.99694 -3.89796,-1.38629 3.47135,-2.25068 0.1139,-4.13556 3.21323,2.60595 3.96835,-1.16963 -1.48546,3.86124 2.33867,3.41269 -4.13129,-0.21956 z"
         inkscape:randomized="0"
         inkscape:rounded="0"
         inkscape:flatsided="false"
         sodipodi:arg2="2.3965104"
         sodipodi:arg1="1.7681919"
         sodipodi:r2="3.115"
         sodipodi:r1="6.23"
         sodipodi:cy="306.18439"
         sodipodi:cx="109.96231"
         sodipodi:sides="5"
         id="path6513eg"
         style="opacity:0.87000002;fill:#ff8080;fill-opacity:1;stroke:#0000ff;stroke-width:0.6047619;stroke-miterlimit:4;stroke-dasharray:none"
         sodipodi:type="star" />
      <path
         inkscape:transform-center-y="-0.16705416"
         inkscape:transform-center-x="0.16705535"
         d="m 92.857067,295.18814 -2.173306,-0.73698 -1.839194,1.3725 0.02933,-2.29468 -1.873674,-1.32505 2.191432,-0.6812 0.6812,-2.19143 1.32505,1.87368 2.294678,-0.0293 -1.372506,1.8392 z"
         inkscape:randomized="0"
         inkscape:rounded="0"
         inkscape:flatsided="false"
         sodipodi:arg2="1.4137167"
         sodipodi:arg1="0.78539816"
         sodipodi:r2="1.727891"
         sodipodi:r1="3.4557824"
         sodipodi:cy="292.74454"
         sodipodi:cx="90.41346"
         sodipodi:sides="5"
         id="path6515eg"
         style="opacity:0.87000002;fill:#ff8080;fill-opacity:1;stroke:#0000ff;stroke-width:0.6047619;stroke-miterlimit:4;stroke-dasharray:none"
         sodipodi:type="star" />
      <path
         inkscape:transform-center-y="-0.1121867"
         inkscape:transform-center-x="-0.63956251"
         d="m 84.736419,309.55335 2.201552,-4.70569 -2.628342,-4.48131 5.155694,0.63966 3.44978,-3.8845 0.984842,5.10102 4.760422,2.08056 -4.547027,2.51294 -0.507677,5.17036 -3.79506,-3.54794 z"
         inkscape:randomized="0"
         inkscape:rounded="0"
         inkscape:flatsided="false"
         sodipodi:arg2="3.0951702"
         sodipodi:arg1="2.4668517"
         sodipodi:r2="3.9116797"
         sodipodi:r1="7.8233595"
         sodipodi:cy="304.66614"
         sodipodi:cx="90.845436"
         sodipodi:sides="5"
         id="path6517eg"
         style="opacity:0.87000002;fill:#ff8080;fill-opacity:1;stroke:#0000ff;stroke-width:0.6047619;stroke-miterlimit:4;stroke-dasharray:none"
         sodipodi:type="star" />
    </g>
    <path
       sodipodi:type="spiral"
       style="fill:#00ffff;fill-rule:evenodd;stroke:#000000;stroke-width:0.6047619px;stroke-linecap:butt;stroke-linejoin:miter;stroke-opacity:1"
       id="eaglynew2"
       sodipodi:cx="73.308212"
       sodipodi:cy="393.74982"
       sodipodi:expansion="1"
       sodipodi:revolution="3"
       sodipodi:radius="41.613129"
       sodipodi:argument="-18.147299"
       sodipodi:t0="0"
       d="m 73.308212,393.74982 c 1.592741,1.3477 -1.030876,2.81189 -2.239973,2.64724 -3.276579,-0.4462 -4.137127,-4.52375 -3.054508,-7.12719 1.936552,-4.65694 7.887895,-5.67954 12.014402,-3.46177 6.055815,3.25466 7.263028,11.296 3.869042,16.90161 -4.52365,7.4714 -14.719492,8.86373 -21.788831,4.27631 -8.896041,-5.77281 -10.473289,-18.15026 -4.683575,-26.67604 7.01212,-10.32587 21.585119,-12.08797 31.563258,-5.09085 11.758893,8.24586 13.705843,25.02253 5.49811,36.45048 -9.476152,13.19401 -28.461631,15.32586 -41.337687,5.90537 -14.630593,-10.70415 -16.947384,-31.90193 -6.312644,-46.2249 11.930572,-16.06821 35.343106,-18.56999 51.112116,-6.71991 17.506588,13.15584 20.193418,38.78494 7.127178,55.99933">
      <desc
         id="desc6528">a new test shape to play with! :)</desc>
    </path>
    <path
       d="m 205.26299,520.81738 c 1.59274,1.34771 -1.03088,2.8119 -2.23998,2.64724 -3.27658,-0.44619 -4.13713,-4.52374 -3.05451,-7.12718 1.93656,-4.65695 7.8879,-5.67955 12.01441,-3.46178 6.05581,3.25466 7.26302,11.296 3.86904,16.90162 -4.52365,7.4714 -14.71949,8.86373 -21.78883,4.27631 -8.89604,-5.77281 -10.47329,-18.15027 -4.68358,-26.67605 7.01212,-10.32586 21.58512,-12.08796 31.56326,-5.09084 11.75889,8.24586 13.70584,25.02252 5.49811,36.45047 -9.47615,13.19402 -28.46163,15.32587 -41.33769,5.90538 -14.63059,-10.70416 -16.94738,-31.90193 -6.31264,-46.2249 11.93057,-16.06821 35.3431,-18.57 51.11211,-6.71991 17.50659,13.15583 20.19342,38.78493 7.12718,55.99933"
       sodipodi:t0="0"
       sodipodi:argument="-18.147299"
       sodipodi:radius="41.613129"
       sodipodi:revolution="3"
       sodipodi:expansion="1"
       sodipodi:cy="520.81738"
       sodipodi:cx="205.26299"
       id="path6530eg"
       style="fill:#800000;fill-rule:evenodd;stroke:#000000;stroke-width:0.6047619px;stroke-linecap:butt;stroke-linejoin:miter;stroke-opacity:1"
       sodipodi:type="spiral">
      <desc
         id="desc6532">a new test shape to play with! :)</desc>
    </path>
  </g>
  <rect
     height="448"
     id="Border"
     style="fill:none;stroke:#800080;stroke-width:0.60342091"
     width="448"
     x="1"
     y="1" />
	 
	 
	 <!-- creatures from original versions! :) -->
	 
			<a style="fill-opacity:0.75" xlink:href="http://life.worldsowisdom.com/flow/"> <rect height="90" id="YellowRect" onmouseout="setAttribute('fill-opacity','0.5')" onmouseover="setAttribute('fill-opacity','1.0')" style="fill:yellow;stroke:#000000" width="90" x="150" y="90"> <desc id="desc3364">A clickable square!</desc>
			<title id="title3362"></title>
			</rect> </a> <a style="fill-opacity:0.75" xlink:href="http://life.worldsowisdom.com/flow/">
			<rect height="90" id="OrangeRect" onmouseout="setAttribute('fill-opacity','0.75')" onmouseover="setAttribute('fill-opacity','1.0')" style="fill:orange;stroke:#000000" width="90" x="60" y="300"> <desc id="desc3364">A clickable square!</desc>
			<title id="title3362"></title>
			</rect> </a>

<path xmlns="http://www.w3.org/2000/svg" sodipodi:type="spiral" xmlns:sodipodi="http://sodipodi.sourceforge.net/DTD/sodipodi-0.dtd" style="fill:#00ffff;fill-rule:evenodd;stroke:#000000;stroke-width:0.6047619px;stroke-linecap:butt;stroke-linejoin:miter;stroke-opacity:1" id="eaglynew" sodipodi:cx="73.308212" sodipodi:cy="393.74982" sodipodi:expansion="1" sodipodi:revolution="3" sodipodi:radius="41.613129" sodipodi:argument="-18.147299" sodipodi:t0="0" d="m 73.308212,393.74982 c 1.592741,1.3477 -1.030876,2.81189 -2.239973,2.64724 -3.276579,-0.4462 -4.137127,-4.52375 -3.054508,-7.12719 1.936552,-4.65694 7.887895,-5.67954 12.014402,-3.46177 6.055815,3.25466 7.263028,11.296 3.869042,16.90161 -4.52365,7.4714 -14.719492,8.86373 -21.788831,4.27631 -8.896041,-5.77281 -10.473289,-18.15026 -4.683575,-26.67604 7.01212,-10.32587 21.585119,-12.08797 31.563258,-5.09085 11.758893,8.24586 13.705843,25.02253 5.49811,36.45048 -9.476152,13.19401 -28.461631,15.32586 -41.337687,5.90537 -14.630593,-10.70415 -16.947384,-31.90193 -6.312644,-46.2249 11.930572,-16.06821 35.343106,-18.56999 51.112116,-6.71991 17.506588,13.15584 20.193418,38.78494 7.127178,55.99933" transform="translate(25, 25 )">
    <desc id="desc36">a new test shape to play with! :)</desc>
  </path><rect xmlns="http://www.w3.org/2000/svg" height="10" id="AvrilNiblet1" onmouseout="setAttribute('fill-opacity','0.5')" onmouseover="setAttribute('fill-opacity','1.0')" style="fill:yellow;stroke:black" width="10" x="225" y="225" transform="translate(25, 25 )">
    <desc id="desc71">Avril's first little niblet! :)</desc>
    <title id="title73"/>
  </rect><path xmlns="http://www.w3.org/2000/svg" fill-opacity="0.43046721000000016" onmousedown="Reverse(PurpleSpiral)" id="PurpleSpiral" d="m 282.09113,269.50729 c 1.52075,1.52076 -1.29967,2.80025 -2.52761,2.52761 -3.32763,-0.73884 -3.86257,-5.00113 -2.5276,-7.58281 2.38796,-4.61803 8.58895,-5.15902 12.63801,-2.5276 5.94217,3.86172 6.4939,12.22544 2.5276,17.69322 -5.28645,7.28768 -15.87921,7.84514 -22.74842,2.52759 -8.6442,-6.69159 -9.20486,-19.54122 -2.5276,-27.80363 8.08706,-10.00688 23.20787,-10.56947 32.85884,-2.52759 11.37333,9.47708 11.93717,26.8774 2.52759,37.91404 -10.86373,12.74223 -30.54887,13.30692 -42.96924,2.52759 -14.11282,-12.24817 -14.67812,-34.22169 -2.52759,-48.02445 13.63105,-15.4846 37.8955,-16.05034 53.07965,-2.52759 16.85728,15.01283 17.42336,41.57006 2.52759,58.13486" inkscape:tile-cx="185.6451" xmlns:inkscape="http://www.inkscape.org/namespaces/inkscape" inkscape:tile-cy="265.9547" inkscape:tile-h="68.00056" inkscape:tile-w="75.106916" inkscape:tile-x0="148.09164" inkscape:tile-y0="231.95443" sodipodi:argument="-18.064157" xmlns:sodipodi="http://sodipodi.sourceforge.net/DTD/sodipodi-0.dtd" sodipodi:cx="182.09113" sodipodi:cy="269.50729" sodipodi:expansion="1" sodipodi:radius="42.894836" sodipodi:revolution="3" sodipodi:t0="0" sodipodi:type="spiral" style="fill:#800080;fill-rule:evenodd;stroke:#000000;stroke-width:0.2081555px;stroke-linecap:butt;stroke-linejoin:miter;stroke-opacity:1" transform="translate(25, 25)"/><image xmlns="http://www.w3.org/2000/svg" id="back3" width="448" height="448" x="1" y="1" xlink:href="creatures/png/back3.png" xmlns:xlink="http://www.w3.org/1999/xlink"/><image xmlns="http://www.w3.org/2000/svg" id="galaxy3" width="294" height="150" x="150" y="100" style="opacity:0.5" onmousedown="tool(eg_newy)" xlink:href="creatures/png/galaxy3.png" xmlns:xlink="http://www.w3.org/1999/xlink" transform="translate(25, 25 )"/><image xmlns="http://www.w3.org/2000/svg" id="galaxy4" width="306" height="150" x="50" y="250" style="opacity:0.25" onmousedown="tool(eg_newy2)" xlink:href="creatures/png/galaxy4.png" xmlns:xlink="http://www.w3.org/1999/xlink" transform="translate(25, 12.5 )"/><image xmlns="http://www.w3.org/2000/svg" id="planet3" width="157" height="150" x="100" y="250" style="opacity:0.5" onmousedown="tool(eg_niblet)" xlink:href="creatures/png/planet3.png" xmlns:xlink="http://www.w3.org/1999/xlink" transform="translate(25, 0.0 )"/><image xmlns="http://www.w3.org/2000/svg" id="planet4" width="150" height="150" x="300" y="150" style="opacity:0.9" onmousedown="tool(eg_medy)" xlink:href="creatures/png/planet4.png" xmlns:xlink="http://www.w3.org/1999/xlink" transform="translate(25, 0.0 )"/><image xmlns="http://www.w3.org/2000/svg" id="satellite3" width="79" height="150" x="200" y="250" onmousedown="tool(satellite3)" xlink:href="creatures/png/satellite3.png" xmlns:xlink="http://www.w3.org/1999/xlink" transform="translate(25, 25 )"/><image xmlns="http://www.w3.org/2000/svg" id="satellite4" width="109" height="75" x="50" y="50" onmousedown="tool(satellite4)" xlink:href="creatures/png/satellite4.png" xmlns:xlink="http://www.w3.org/1999/xlink" transform="translate(25, 25 )"/><image xmlns="http://www.w3.org/2000/svg" id="mediumcreature3" width="38" height="50" x="300" y="175" onmousedown="tool(the_rect)" xlink:href="creatures/png/mediumcreature3.png" xmlns:xlink="http://www.w3.org/1999/xlink" transform="translate( 0.0 , 25 )"/><image xmlns="http://www.w3.org/2000/svg" id="niblet3" width="21" height="32" x="400" y="350" onmousedown="tool(pink_rect)" xlink:href="creatures/png/niblet3.png" xmlns:xlink="http://www.w3.org/1999/xlink" transform="translate( 0.0 , 25 )"/><image xmlns="http://www.w3.org/2000/svg" id="bigbeauty3" width="92" height="110" x="100" y="150" onmousedown="tool(eg_biggo)" xlink:href="creatures/png/bigbeauty3.png" xmlns:xlink="http://www.w3.org/1999/xlink" transform="translate(25, 0.0 )"/><g xmlns="http://www.w3.org/2000/svg" id="Creature-0.7524808140497842" style="fill:#4721e5;stroke:#4ddde4" stroke-width="0.0696385158889446" opacity="0.9255100944641961" transform="translate(46.351874476596436, 388.4090514669431) rotate(0.03432832976450374 1407.5 230.5001220703125)" onmousedown="tool('Creature-0.7524808140497842')" class="creatureClass"><title>Creature-0.7524808140497842</title><desc>moveLifePathCreatureEvo3("Creature-0.7524808140497842", 0.7, 1.2)</desc><path id="Creature-0.7524808140497842-part-0" d="M 1968.2918767632716, 82.53680595036138 Q 515.4960313408777, 75.90534879653613 2005.7572797523871, 24.27474106038974 T 244.05630748262797, 85.68188965492799, 904.2093948025632 47.354828417077364, 1230.9125232790573 14.118298618374087, 1331.8903063803696 38.94783893645765, 1823.444514026691 24.487247431514376 z" stroke-width="0.3542563479510817" opacity="0.8446172280509643" class="creaturePartClass"/><path id="Creature-0.7524808140497842-part-1" d="M 748.6106389073352, 109.23846713455609 Q 743.4413690130231, 38.33304298914123 1340.5066624908288, 57.79120396845751 T 1018.8752613709727, 82.38026152204732, 1058.8698351693095 25.18683796443777, 731.95401278479 98.12508909666163, 1514.2944506400954 105.28790531831548, 1894.9406299562586 22.552078512505627 z" stroke-width="0.13963787573334496" opacity="0.7402966574009829" class="creaturePartClass"/><path id="Creature-0.7524808140497842-part-2" d="M 2186.925133191179, 38.33886792819613 Q 1158.963515289479, 46.50530900602044 2031.2703207856139, 107.99967552620087 T 775.4648251118695, 98.79393978535981, 80.08957915811395 99.08369079330042, 15.460763484393322 13.459970613344442, 422.8147658473209 83.73291127315352, 1804.7837391985977 0.5223382328881347 z" stroke-width="0.7263112505212248" opacity="0.7881784033405624" class="creaturePartClass"/><path id="Creature-0.7524808140497842-part-3" d="M 638.8689298923414, 81.26657640806039 Q 1186.4550416423485, 61.82830685793746 1154.0039389547148, 62.30327111144616 T 848.614758160375, 114.40370184642151, 165.59836704667418 14.971852921547113, 1053.2426831115295 42.9996700934227, 674.9069361678368 101.34103501606496, 1481.009118617939 91.90484624818744 z" stroke-width="0.3205700210178128" opacity="0.557781092176403" class="creaturePartClass"/></g><g xmlns="http://www.w3.org/2000/svg" id="Creature-0.9782822857789222" style="fill:#afeb83;stroke:#ff66b7" stroke-width="3.58694411508522" opacity="0.640037732749359" transform="translate(22.830754171206568, 247.77085249557453) rotate(-0.013641360216530538 405.45001220703125 497)" onmousedown="tool('Creature-0.9782822857789222')" class="creatureClass"><title>Creature-0.9782822857789222</title><desc>moveLifePathCreatureEvo3("Creature-0.9782822857789222", 0.7, 1.2)</desc><path id="Creature-0.9782822857789222-part-0" d="M 520.152634026847, 77.78781341306086 Q 279.4491402492646, 140.7924330518249 44.41483103143967, 17.275186468760168 T 459.82030102056467, 135.9148174766038, 353.85708982469305 85.14858257548438, 61.06388513381616 148.04973286155035, 197.82013332165985 21.14865432610524, 299.0211250380118 6.458772639617561 z" stroke-width="0.9903531566203965" opacity="0.7693256252597234" class="creaturePartClass"/><path id="Creature-0.9782822857789222-part-1" d="M 406.6045171306917, 9.814703551612265 Q 371.6375098180629, 174.284361576126 133.8543545854213, 64.50122058269022 T 481.447966467612, 99.38609084598725, 271.69939602577915 72.71855596704474, 531.9180479397536 6.80298925577853, 558.7840375004765 90.7097735180716, 371.68172931431627 139.7796181343739 z" stroke-width="1.535053873023312" opacity="0.6658026842666537" class="creaturePartClass"/><path id="Creature-0.9782822857789222-part-2" d="M 171.89375807347398, 51.515676992062744 Q 560.150588814877, 163.57270461607575 275.36161169374833, 41.02775572087252 T 522.0125565259755, 76.84528838878349, 45.04241792594219 35.10423454369443, 257.3256133807671 34.89423645848898, 388.61061328881664 81.43072975601578, 167.08903481628616 132.29911469179345 z" stroke-width="5.446532637762563" opacity="0.4950197838957565" class="creaturePartClass"/><path id="Creature-0.9782822857789222-part-3" d="M 236.64522081074801, 149.5602369465543 Q 467.05988873216313, 22.743072657690266 40.80422235086292, 106.5146997234877 T 465.6049525165719, 57.914051960237934, 198.1980730166594 19.976206047316666, 82.95456287824722 171.09769766713188, 260.4719920922756 44.023247005312065, 267.58413473630844 35.36586830092867 z" stroke-width="3.1184350798022042" opacity="0.9727400395165556" class="creaturePartClass"/></g><g xmlns="http://www.w3.org/2000/svg" id="Creature-0.3553955327417381" style="fill:#6e7e6f;stroke:#ea745c" stroke-width="1.047584767784661" opacity="0.9553474352293874" transform="translate(0,0)" onmousedown="tool('Creature-0.3553955327417381')" class="creatureClass"><title>Creature-0.3553955327417381</title><desc>moveLifePathCreatureEvo3("Creature-0.3553955327417381", 0.7, 1.2)</desc><path id="Creature-0.3553955327417381-part-0" d="M 1579.5983723848242, 32.516692924754715 Q 1124.39301333164, 13.78261855183994 1581.9594762866723, 16.510606590900643 T 2017.8106539159196, 3.9529436382037826, 867.1810679332966 21.891414745883424, 1326.2793314285334 43.33103564779732, 1292.565224904632 6.864825771555497, 1180.2243513716382 107.20311068438218 z" stroke-width="0.4409326609264962" opacity="0.9051649040923289" class="creaturePartClass"/><path id="Creature-0.3553955327417381-part-1" d="M 1953.352404891325, 12.44906507150428 Q 1695.8692156033408, 9.183108956995332 1436.0254870453105, 5.581376607056305 T 1801.6282186164294, 41.298169103791075, 231.30711178636938 108.03256064251306, 580.790732396993 52.757921086027544, 1423.8351763001124 39.583540294340985, 310.0638071243102 6.248562769766116 z" stroke-width="0.479378147236934" opacity="0.8052943944401718" class="creaturePartClass"/><path id="Creature-0.3553955327417381-part-2" d="M 671.914442134497, 72.13890039247165 Q 1261.8079526819022, 72.72316778525577 1568.4717689715114, 57.965976974136176 T 562.2027063284179, 85.99800134477161, 795.4618901389803 77.8384450996063, 373.8008631994596 11.508742355810558, 1968.6127945188218 80.4985268814556, 1874.274969195837 16.3010396080756 z" stroke-width="0.6253051295460397" opacity="0.8694229021021753" class="creaturePartClass"/><path id="Creature-0.3553955327417381-part-3" d="M 1258.721124739885, 82.99095724241681 Q 1267.533348559783, 79.52721772581839 1925.6041539104292, 78.91086766467104 T 201.88131463277006, 89.08392224198296, 389.52629842182944 88.42424795885925, 827.2787642563934 23.086575747171594, 1376.9205308784592 22.42797812339733, 216.7161575169717 79.0358509170295 z" stroke-width="0.4566274233153751" opacity="0.855165489191343" class="creaturePartClass"/><image xmlns="http://www.w3.org/2000/svg" id="Creature-0.8768540249712324" a0:href="creatures/png/bact5.png" xmlns:a0="http://www.w3.org/1999/xlink" opacity="0.39905500511980035" transform="translate(45.397872504010024, 59.925697459083636) rotate(0.8784143749609822 403.7166519165039 513.6500015258789)" x="200" y="200" height="120" width="120" onmousedown="tool('Creature-0.8768540249712324')" class="creatureClass"><title>Creature-0.8768540249712324</title><desc>movePsyCreat("Creature-0.8768540249712324", 1, 1)</desc></image></g><image xmlns="http://www.w3.org/2000/svg" id="Creature-0.8768540249712324" a0:href="creatures/png/bact5.png" xmlns:a0="http://www.w3.org/1999/xlink" opacity="0.39905500511980035" transform="translate(45.397872504010024, 59.925697459083636) rotate(0.8784143749609822 403.7166519165039 513.6500015258789)" x="200" y="200" height="120" width="120" onmousedown="tool('Creature-0.8768540249712324')" class="creatureClass"><title>Creature-0.8768540249712324</title><desc>movePsyCreat("Creature-0.8768540249712324", 1, 1)</desc></image><g xmlns="http://www.w3.org/2000/svg" id="Creature-0.13267366829601257" style="fill:#1a11ac;stroke:#e0ea25" stroke-width="8.712239099316713" opacity="0.9877460398162194" transform="translate(0,0)" onmousedown="tool('Creature-0.13267366829601257')" class="creatureClass"><title>Creature-0.13267366829601257</title><desc>moveLifePathCreatureEvo3("Creature-0.13267366829601257", 0.7, 1.2)</desc><path id="Creature-0.13267366829601257-part-0" d="M 306.3766316291082, 195.844988843539 Q 100.98237983553246, 204.31528995759015 214.4715293237997, 194.6693768440236 T 68.06682508226615, 24.344874243895458, 275.5160342231717 161.84034782291405, 44.836860545617384 161.79270624499455, 23.06061346916154 20.02115501216233, 364.5245112095313 166.3071775552792 z" stroke-width="7.624964296430672" opacity="0.9995725180412086" class="creaturePartClass"/><path id="Creature-0.13267366829601257-part-1" d="M 261.4058554122846, 431.18127218955595 Q 226.18194169575392, 229.12258673478337 175.87740436690095, 233.46226109474117 T 210.87086337699668, 162.8244948916763, 323.07953932637577 338.18535974624956, 356.61438547081946 137.7716915429014, 189.21641069457306 351.1345048465333, 66.00782852019726 64.76772680363166 z" stroke-width="6.681242247428121" opacity="0.7582394190894947" class="creaturePartClass"/><path id="Creature-0.13267366829601257-part-2" d="M 197.35658348217456, 326.5813648149405 Q 168.6660006832926, 269.6110648255462 123.77361148231527, 193.00618002440967 T 112.26083767787621, 40.35310329655343, 77.43810404970502 337.1468821223443, 353.9826745823937 414.13469458103475, 81.4711970448795 201.4740336136842, 26.900875005725656 268.9130759115925 z" stroke-width="0.7271065938625256" opacity="0.7998254729809531" class="creaturePartClass"/><path id="Creature-0.13267366829601257-part-3" d="M 49.521913959861166, 313.93033899943373 Q 219.30978070005844, 78.39374913186357 142.20358410715318, 424.3272815727963 T 378.35980715388774, 178.41005711941057, 9.769213305367865 0.6683928707154202, 380.5419854765911 280.9818263768336, 52.424156057491786 446.8726556470703, 356.05440262724636 77.20148985006897 z" stroke-width="2.127832974447411" opacity="0.9128114277976207" class="creaturePartClass"/></g><g xmlns="http://www.w3.org/2000/svg" id="Creature-0.6150190743638646" style="fill:#8db9ac;stroke:#8ad343" stroke-width="0.3518132822155857" opacity="0.8529696447934564" transform="translate(0,0)" onmousedown="tool('Creature-0.6150190743638646')" class="creatureClass"><title>Creature-0.6150190743638646</title><desc>moveLifePathCreatureEvo3("Creature-0.6150190743638646", 0.7, 1.2)</desc><path id="Creature-0.6150190743638646-part-0" d="M 3015.643284869442, 34.65531644562843 Q 3286.1876969739365, 2.009435039898637 4134.776769662593, 46.57729097694141 T 1586.8612477543663, 48.57049983730641, 1793.595370892622 3.007296901414163, 3736.382476526823 29.308734171647224, 968.5533945075643 19.626709328578023, 3968.74754292672 53.69193021721526 z" stroke-width="0.48541886447617105" opacity="0.959363858295709" class="creaturePartClass"/><path id="Creature-0.6150190743638646-part-1" d="M 1414.9403150760634, 38.472059814668334 Q 2247.9889194052066, 43.68341058260494 3332.870402804162, 53.55067741657176 T 421.1832367566816, 7.622361451545712, 3135.8407145494716 0.5582399706450357, 616.7242618162758 20.642005887301238, 1960.7096026285767 35.82243524612936, 213.5836767499085 49.88371966129665 z" stroke-width="0.5231842662621121" opacity="0.9121358951382545" class="creaturePartClass"/><path id="Creature-0.6150190743638646-part-2" d="M 2672.712375398786, 2.5710863763993768 Q 2178.0672540172773, 57.38311586545245 1934.82510755895, 43.36004081542015 T 3882.164164614558, 2.6097118088367672, 2811.4632000088673 50.2419441392909, 141.04153638301338 27.685746715206363, 2756.973209180959 56.3578880923444, 927.7788340535463 18.340263251560835 z" stroke-width="0.25697573230909115" opacity="0.8629493530192889" class="creaturePartClass"/><path id="Creature-0.6150190743638646-part-3" d="M 226.19962363309054, 23.736270514397134 Q 1419.3058442929764, 56.89538697990997 1295.6020937669, 24.683725319250286 T 3057.5096812187157, 38.35698593455992, 267.78539323514934 65.45374952273217, 3773.151854452778 66.19237443982581, 1297.6119985128214 61.26299188614652, 2241.6579180501367 55.00643494967832 z" stroke-width="0.40936211195457173" opacity="0.8496644191096279" class="creaturePartClass"/></g><g xmlns="http://www.w3.org/2000/svg" id="Creature-0.21337499389079584" style="fill:#ad5378;stroke:#5af43a" stroke-width="16.301889816660463" opacity="0.8967460192319124" transform="translate(162.5141544352027, 416.5943576075045) rotate(0.018483734816135477 351 377.3333435058594)" onmousedown="tool('Creature-0.21337499389079584')" class="creatureClass"><title>Creature-0.21337499389079584</title><desc>moveLifePathCreatureEvo3("Creature-0.21337499389079584", 0.7, 1.2)</desc><path id="Creature-0.21337499389079584-part-0" d="M 380.8605833723725, 30.575440546182698 Q 571.8379809581953, 126.71303389503991 512.9974295840602, 418.30112940206624 T 314.777434934651, 189.4762132506458, 110.16933760531755 220.19983960663265, 614.1194710852546 103.15146196068704, 8.065557368909543 21.94094929209689, 240.07724765306497 398.69815088121686 z" stroke-width="6.283885244039853" opacity="0.9967671704159772" class="creaturePartClass"/><path id="Creature-0.21337499389079584-part-1" d="M 384.69292491922545, 395.33929372893897 Q 190.22117808634366, 305.76261505423037 593.5810077970815, 125.30277597862833 T 10.684363632923692, 82.16708485090543, 81.41770203502858 415.5973787042276, 69.40852846921486 433.5841000164972, 536.159938984289 216.0594582658551, 140.769145120275 214.02861091553171 z" stroke-width="2.4377119192100705" opacity="0.7548867870170434" class="creaturePartClass"/><path id="Creature-0.21337499389079584-part-2" d="M 475.2365391521395, 266.19111141403926 Q 387.24843974297676, 138.73347605310445 123.53728105203798, 320.12800240838965 T 50.98282356545297, 45.233340524655624, 71.56377316024658 393.227259006423, 156.46947250383596 363.7226745670392, 488.08032769034475 370.86739492537737, 89.94188665320719 202.7979197104641 z" stroke-width="17.330712428859975" opacity="0.9018948963829484" class="creaturePartClass"/><path id="Creature-0.21337499389079584-part-3" d="M 517.2213545569723, 250.4984902003674 Q 95.59007559771918, 92.49548964028365 23.509676637417716, 240.28140261698738 T 407.8063729329303, 191.80054332408685, 268.70113413998183 142.31267779423575, 478.7560142662005 50.86989575419507, 504.27743845892144 406.22507410195, 228.57966827524112 144.38925271032016 z" stroke-width="4.949657135116088" opacity="0.8402757836369223" class="creaturePartClass"/></g><g xmlns="http://www.w3.org/2000/svg" id="Creature-0.17557378706244775" style="fill:#8a685c;stroke:#cdd5a1" stroke-width="0.7068520517603302" opacity="0.7056592760600756" transform="translate(2.2173358856261984, 351.95099794902075) rotate(0.0007708849587623927 915.3333282470703 1313.3583374023438)" onmousedown="tool('Creature-0.17557378706244775')" class="creatureClass"><title>Creature-0.17557378706244775</title><desc>moveLifePathCreatureEvo3("Creature-0.17557378706244775", 0.7, 1.2)</desc><path id="Creature-0.17557378706244775-part-0" d="M 95.62567076747001, 35.45215323150664 Q 38.59820551279141, 88.39688205723947 42.323486227773124, 93.42512531215483 T 50.62328857338427, 40.33993989868698, 90.30822788536031 130.08822337288993, 63.47293683280039 68.45641533684838, 22.855097648341467 109.55981672281264, 32.042434056705616 22.55323340655307 z" stroke-width="1.9512208066457803" opacity="0.9545931640563866" class="creaturePartClass"/><path id="Creature-0.17557378706244775-part-1" d="M 20.38188715391202, 152.36828351464058 Q 31.014740650200654, 42.85732028591987 22.279975341795378, 179.9404463020733 T 93.74908554461533, 113.43438387581169, 29.594885885614648 34.67534642565616, 46.93228055913108 84.13967555582055, 10.338653225002462 34.51050573590609, 21.594616762979808 118.51634005773607 z" stroke-width="1.0487580557080207" opacity="0.957490501781076" class="creaturePartClass"/><path id="Creature-0.17557378706244775-part-2" d="M 46.26233492806777, 152.44056272972927 Q 23.35329895559688, 113.58703951762428 39.9005844052096, 99.72702162721302 T 90.22939653890828, 118.0147277303875, 93.08438070210975 144.6774624879786, 32.23880022982526 138.52551046654287, 37.7157495075792 169.37040229601934, 29.97949516589828 190.8857787103773 z" stroke-width="5.838374175634556" opacity="0.855808787470811" class="creaturePartClass"/><path id="Creature-0.17557378706244775-part-3" d="M 46.336382187718655, 2.771296324349698 Q 53.78239557649261, 48.899045468694 9.879959301894555, 2.0520363647096556 T 75.49725805879767, 157.61412478246226, 51.45888979034471 182.167517558147, 53.1764990947378 158.09753887099163, 26.612324567437952 165.2258361532337, 27.74047037048188 170.11290030628905 z" stroke-width="1.0829403204874042" opacity="0.9460526518918174" class="creaturePartClass"/><g id="Creature-0.6596042854356887" style="fill:#5fb80e;stroke:#9ad573" stroke-width="1.2613469203321375" opacity="0.7809629499515004" transform="translate(185.29382282474475, 399.5429100267334) rotate(-0.10571379190087321 421.7249755859375 709.1750183105469)" onmousedown="tool('Creature-0.6596042854356887')" class="creatureClass"><title>Creature-0.6596042854356887</title><desc>moveLifePathCreatureEvo3("Creature-0.6596042854356887", 0.7, 1.2)</desc><path id="Creature-0.6596042854356887-part-0" d="M 300.8857485197869, 14.675242504083228 Q 53.22309322362408, 4.226199251945663 371.460527737584, 41.61067493476676 T 455.6147259795752, 6.1318076086814335, 563.5475148800525 2.3357786941341585, 96.74053291268429 3.6562482249815464, 228.5269758408705 4.571875623165081, 175.81927731506417 5.460127054476449 z" stroke-width="0.050483851511192356" opacity="0.8394053418309485" class="creaturePartClass"/><path id="Creature-0.6596042854356887-part-1" d="M 465.66874000641303, 46.044428468260925 Q 118.56841839182452, 46.02476573464496 624.3743299245912, 41.63432626496719 T 185.4667654649552, 17.58550469113312, 377.441309059374 22.261705265456538, 383.28213007696473 42.35835169559843, 281.91641888466626 1.1399262308097318, 411.33035818762454 7.905020360414382 z" stroke-width="1.333292751296769" opacity="0.8687726429127303" class="creaturePartClass"/><path id="Creature-0.6596042854356887-part-2" d="M 119.20866956137507, 5.557408836931268 Q 296.12567909144457, 18.748878506617913 320.8650525648805, 23.563087308780638 T 309.1921589388228, 9.721981439708363, 357.73914539524606 28.49501910995177, 41.50259054809224 34.56056042892895, 400.6395239996862 36.57494550337529, 450.5463228684635 24.1363087005762 z" stroke-width="1.0817937463680338" opacity="0.9142243300087829" class="creaturePartClass"/><path id="Creature-0.6596042854356887-part-3" d="M 62.86992772138834, 38.55267256346763 Q 155.40084524072162, 32.19716689183715 589.5139134847841, 29.611049815877355 T 71.27017253188347, 43.00055101624084, 360.14628337239697 46.116626132682406, 620.9323800563722 26.690273782312644, 457.208237940466 34.99481642506411, 306.6613897085668 15.564882488504596 z" stroke-width="1.247135300570627" opacity="0.9506890410604225" class="creaturePartClass"/><image xmlns="http://www.w3.org/2000/svg" id="Creature-0.760783103801657" a0:href="creatures/png/bact4.png" xmlns:a0="http://www.w3.org/1999/xlink" opacity="0.8505934954223333" transform="translate(31.92369053062464, 434.5159098843885) rotate(0.06567516149832191 830.1916961669922 1505.066665649414)" x="200" y="200" height="120" width="120" onmousedown="tool('Creature-0.760783103801657')" class="creatureClass"><title>Creature-0.760783103801657</title><desc>movePsyCreat("Creature-0.760783103801657", 1, 1)</desc></image></g></g><g xmlns="http://www.w3.org/2000/svg" id="Creature-0.6596042854356887" style="fill:#5fb80e;stroke:#9ad573" stroke-width="1.2613469203321375" opacity="0.7809629499515004" transform="translate(185.29382282474475, 399.5429100267334) rotate(-0.10571379190087321 421.7249755859375 709.1750183105469)" onmousedown="tool('Creature-0.6596042854356887')" class="creatureClass"><title>Creature-0.6596042854356887</title><desc>moveLifePathCreatureEvo3("Creature-0.6596042854356887", 0.7, 1.2)</desc><path id="Creature-0.6596042854356887-part-0" d="M 300.8857485197869, 14.675242504083228 Q 53.22309322362408, 4.226199251945663 371.460527737584, 41.61067493476676 T 455.6147259795752, 6.1318076086814335, 563.5475148800525 2.3357786941341585, 96.74053291268429 3.6562482249815464, 228.5269758408705 4.571875623165081, 175.81927731506417 5.460127054476449 z" stroke-width="0.050483851511192356" opacity="0.8394053418309485" class="creaturePartClass"/><path id="Creature-0.6596042854356887-part-1" d="M 465.66874000641303, 46.044428468260925 Q 118.56841839182452, 46.02476573464496 624.3743299245912, 41.63432626496719 T 185.4667654649552, 17.58550469113312, 377.441309059374 22.261705265456538, 383.28213007696473 42.35835169559843, 281.91641888466626 1.1399262308097318, 411.33035818762454 7.905020360414382 z" stroke-width="1.333292751296769" opacity="0.8687726429127303" class="creaturePartClass"/><path id="Creature-0.6596042854356887-part-2" d="M 119.20866956137507, 5.557408836931268 Q 296.12567909144457, 18.748878506617913 320.8650525648805, 23.563087308780638 T 309.1921589388228, 9.721981439708363, 357.73914539524606 28.49501910995177, 41.50259054809224 34.56056042892895, 400.6395239996862 36.57494550337529, 450.5463228684635 24.1363087005762 z" stroke-width="1.0817937463680338" opacity="0.9142243300087829" class="creaturePartClass"/><path id="Creature-0.6596042854356887-part-3" d="M 62.86992772138834, 38.55267256346763 Q 155.40084524072162, 32.19716689183715 589.5139134847841, 29.611049815877355 T 71.27017253188347, 43.00055101624084, 360.14628337239697 46.116626132682406, 620.9323800563722 26.690273782312644, 457.208237940466 34.99481642506411, 306.6613897085668 15.564882488504596 z" stroke-width="1.247135300570627" opacity="0.9506890410604225" class="creaturePartClass"/><image xmlns="http://www.w3.org/2000/svg" id="Creature-0.760783103801657" a0:href="creatures/png/bact4.png" xmlns:a0="http://www.w3.org/1999/xlink" opacity="0.8505934954223333" transform="translate(31.92369053062464, 434.5159098843885) rotate(0.06567516149832191 830.1916961669922 1505.066665649414)" x="200" y="200" height="120" width="120" onmousedown="tool('Creature-0.760783103801657')" class="creatureClass"><title>Creature-0.760783103801657</title><desc>movePsyCreat("Creature-0.760783103801657", 1, 1)</desc></image></g><image xmlns="http://www.w3.org/2000/svg" id="Creature-0.760783103801657" a0:href="creatures/png/bact4.png" xmlns:a0="http://www.w3.org/1999/xlink" opacity="0.8505934954223333" transform="translate(31.92369053062464, 434.5159098843885) rotate(0.06567516149832191 830.1916961669922 1505.066665649414)" x="200" y="200" height="120" width="120" onmousedown="tool('Creature-0.760783103801657')" class="creatureClass"><title>Creature-0.760783103801657</title><desc>movePsyCreat("Creature-0.760783103801657", 1, 1)</desc></image><image xmlns="http://www.w3.org/2000/svg" id="Creature-0.11153359452761169" a0:href="creatures/png/bact4.png" xmlns:a0="http://www.w3.org/1999/xlink" opacity="0.8463127870899771" transform="translate(209.9114410036441, 383.1478997916877) rotate(0.027036785761087503 426.4166488647461 455.3666534423828)" x="200" y="200" height="120" width="120" onmousedown="tool('Creature-0.11153359452761169')" class="creatureClass"><title>Creature-0.11153359452761169</title><desc>movePsyCreat("Creature-0.11153359452761169", 1, 1)</desc></image><image xmlns="http://www.w3.org/2000/svg" id="Creature-0.11153359452761169" a0:href="creatures/png/bact4.png" xmlns:a0="http://www.w3.org/1999/xlink" opacity="0.8463127870899771" transform="translate(105.16038418320713, 354.5663844668566) rotate(-0.2737790436003422 506.1916809082031 711.5083312988281)" x="200" y="200" height="120" width="120" onmousedown="tool('Creature-0.11153359452761169')" class="creatureClass"><title>Creature-0.11153359452761169</title><desc>movePsyCreat("Creature-0.11153359452761169", 1, 1)</desc></image><image xmlns="http://www.w3.org/2000/svg" id="Creature-0.17499117594906377" a0:href="creatures/png/bact4.png" xmlns:a0="http://www.w3.org/1999/xlink" opacity="0.7646568330895218" transform="translate(39.064105692643295, 229.67996801744744) rotate(0.18617747878896326 448.37498474121094 617.6083221435547)" x="200" y="200" height="120" width="120" onmousedown="tool('Creature-0.17499117594906377')" class="creatureClass"><title>Creature-0.17499117594906377</title><desc>movePsyCreat("Creature-0.17499117594906377", 1, 1)</desc></image><image xmlns="http://www.w3.org/2000/svg" id="Creature-0.008378969103373657" a0:href="creatures/png/bact4.png" xmlns:a0="http://www.w3.org/1999/xlink" opacity="0.9803048722724692" transform="translate(-92.17279849756547, 280.9842605620631) rotate(-0.09956153686641141 323.9916458129883 500.04166412353516)" x="200" y="200" height="120" width="120" onmousedown="tool('Creature-0.008378969103373657')" class="creatureClass"><title>Creature-0.008378969103373657</title><desc>movePsyCreat("Creature-0.008378969103373657", 1, 1)</desc></image><image xmlns="http://www.w3.org/2000/svg" id="Creature-0.35793907186630347" a0:href="creatures/png/bact4.png" xmlns:a0="http://www.w3.org/1999/xlink" opacity="0.87593255287419" transform="translate(199.5665234793443, 441.3173363752112) rotate(0.4167402712385439 468.18333435058594 594.3916473388672)" x="200" y="200" height="120" width="120" onmousedown="tool('Creature-0.35793907186630347')" class="creatureClass"><title>Creature-0.35793907186630347</title><desc>movePsyCreat("Creature-0.35793907186630347", 1, 1)</desc></image><image xmlns="http://www.w3.org/2000/svg" id="Creature-0.778274728258389" a0:href="creatures/png/bact5.png" xmlns:a0="http://www.w3.org/1999/xlink" opacity="0.48631190184178696" transform="translate(13.367523737018757, -149) rotate(11.045264560341582 533.7166519165039 368.558349609375)" x="200" y="200" height="120" width="120" onmousedown="tool('Creature-0.778274728258389')" class="creatureClass"><title>Creature-0.778274728258389</title><desc>movePsyCreat("Creature-0.778274728258389", 1, 1)</desc></image></svg>