<?xml version="1.0" encoding="UTF-8" standalone="no"?>
<!-- Created with LifeFLOW (http://life.worldsowisdom.com/flow/) -->

<svg
   xmlns:osb="http://www.openswatchbook.org/uri/2009/osb"
   xmlns:dc="http://purl.org/dc/elements/1.1/"
   xmlns:cc="http://creativecommons.org/ns#"
   xmlns:rdf="http://www.w3.org/1999/02/22-rdf-syntax-ns#"
   xmlns:svg="http://www.w3.org/2000/svg"
   xmlns="http://www.w3.org/2000/svg"
   xmlns:xlink="http://www.w3.org/1999/xlink"
   xmlns:sodipodi="http://sodipodi.sourceforge.net/DTD/sodipodi-0.dtd"
   xmlns:inkscape="http://www.inkscape.org/namespaces/inkscape"
   width="450"
   height="450"
   viewBox="0 0 450 450"
   id="svg2"
   version="1.1"
   inkscape:version="0.91 r13725"
   sodipodi:docname="newcreatures-plain.svg">
  <defs
     id="defs4">
    <linearGradient
       inkscape:collect="always"
       id="linearGradient6501">
      <stop
         style="stop-color:#0000ff;stop-opacity:1;"
         offset="0"
         id="stop6503" />
      <stop
         style="stop-color:#0000ff;stop-opacity:0;"
         offset="1"
         id="stop6505" />
    </linearGradient>
    <linearGradient
       id="linearGradient6455"
       osb:paint="solid">
      <stop
         style="stop-color:#0000ff;stop-opacity:1;"
         offset="0"
         id="stop6457" />
    </linearGradient>
    <filter
       inkscape:collect="always"
       style="color-interpolation-filters:sRGB"
       id="filter5001"
       x="-0.37912726"
       width="1.7582545"
       y="-0.65848422"
       height="2.3169684">
      <feGaussianBlur
         inkscape:collect="always"
         stdDeviation="6.3692616"
         id="feGaussianBlur5003" />
    </filter>
    <linearGradient
       inkscape:collect="always"
       xlink:href="#linearGradient6501"
       id="linearGradient6507"
       x1="242.51431"
       y1="178.50594"
       x2="313.40628"
       y2="178.50594"
       gradientUnits="userSpaceOnUse"
       gradientTransform="translate(-215.03742,319.7082)" />
  </defs>
  <sodipodi:namedview
     id="base"
     pagecolor="#ffffff"
     bordercolor="#666666"
     borderopacity="1.0"
     inkscape:pageopacity="0.0"
     inkscape:pageshadow="2"
     inkscape:zoom="0.24748738"
     inkscape:cx="463.57331"
     inkscape:cy="265.90363"
     inkscape:document-units="px"
     inkscape:current-layer="layer1"
     showgrid="false"
     inkscape:window-width="1366"
     inkscape:window-height="706"
     inkscape:window-x="-8"
     inkscape:window-y="-8"
     inkscape:window-maximized="1"
     units="px" />
  <metadata
     id="metadata7">
    <rdf:RDF>
      <cc:Work
         rdf:about="">
        <dc:format>image/svg+xml</dc:format>
        <dc:type
           rdf:resource="http://purl.org/dc/dcmitype/StillImage" />
        <dc:title></dc:title>
      </cc:Work>
    </rdf:RDF>
  </metadata>
  <g
     inkscape:label="Layer 1"
     inkscape:groupmode="layer"
     id="layer1"
     transform="translate(0,-364.28567)">
    <path
       sodipodi:type="star"
       style="opacity:0.28999999;fill:#00ffff;stroke:#800080"
       id="path4136eg"
       sodipodi:sides="5"
       sodipodi:cx="149.96248"
       sodipodi:cy="470.92843"
       sodipodi:r1="84.03109"
       sodipodi:r2="42.015545"
       sodipodi:arg1="0.31099828"
       sodipodi:arg2="0.93931681"
       inkscape:flatsided="false"
       inkscape:rounded="0"
       inkscape:randomized="0"
       d="m 229.96248,496.64272 -55.19656,8.19877 -24.53782,50.11762 -24.85417,-49.96149 -55.247286,-7.84966 39.835836,-39.07667 -9.60688,-54.96897 49.47407,25.81078 49.30991,-26.12303 -9.25918,55.0286 z"
       inkscape:transform-center-x="-0.082081267"
       inkscape:transform-center-y="7.9461513" />
    <path
       inkscape:transform-center-y="2.4320959"
       inkscape:transform-center-x="-0.025122895"
       d="m 68.791599,427.6385 -16.894071,2.5094 -7.510317,15.33956 -7.607143,-15.29177 -16.909598,-2.40255 12.192598,-11.96024 -2.940388,-16.82442 15.142583,7.89994 15.092337,-7.99551 -2.833967,16.84267 z"
       inkscape:randomized="0"
       inkscape:rounded="0"
       inkscape:flatsided="false"
       sodipodi:arg2="0.93931681"
       sodipodi:arg1="0.31099828"
       sodipodi:r2="12.859744"
       sodipodi:r1="25.719488"
       sodipodi:cy="419.76809"
       sodipodi:cx="44.305912"
       sodipodi:sides="5"
       id="path4138eg"
       style="opacity:0.28999999;fill:#00ffff;stroke:#800080;stroke-width:0.3060711"
       sodipodi:type="star" />
    <g
       id="BiggoEGbg"
       transform="translate(-109.96232,143.76849)">
      <desc
         id="desc4151">A big creature for LifeFLOW! :)</desc>
      <circle
         r="29.934187"
         cy="259.14496"
         cx="302.39636"
         id="path4137eg"
         style="opacity:0.28999999;fill:#ffff00;stroke:#800080;stroke-width:0.6047619" />
      <circle
         r="7.3308215"
         cy="265.86487"
         cx="307.8945"
         id="path4139eg"
         style="opacity:0.28999999;fill:#ffff00;stroke:#800080;stroke-width:0.6047619" />
      <ellipse
         ry="10.996231"
         rx="3.6654108"
         cy="251.20323"
         cx="292.01105"
         id="path4141eg"
         style="opacity:0.28999999;fill:#0000ff;stroke:#800080;stroke-width:0.6047619" />
      <ellipse
         ry="3.6654108"
         rx="9.7744284"
         cy="253.64687"
         cx="317.66891"
         id="path4143eg"
         style="opacity:0.28999999;fill:#0000ff;stroke:#800080;stroke-width:0.6047619" />
    </g>
    <rect
       style="opacity:0.87000002;fill:url(#linearGradient6507);fill-opacity:1;stroke:#0000ff;stroke-width:0.6047619;stroke-miterlimit:4;stroke-dasharray:none;filter:url(#filter5001)"
       id="MedyEGbg"
       width="40.319515"
       height="23.214266"
       x="42.763119"
       y="486.60684" />
    <g
       id="g6519eg"
       inkscape:label="#MedyEG"
       transform="translate(0,53.355016)">
      <rect
         y="281.74832"
         x="59.868374"
         height="31.766891"
         width="63.533783"
         id="rect6509eg"
         style="opacity:0.87000002;fill:#0000ff;fill-opacity:1;stroke:#0000ff;stroke-width:0.6047619;stroke-miterlimit:4;stroke-dasharray:none" />
      <path
         inkscape:transform-center-y="-0.19571458"
         inkscape:transform-center-x="0.72308977"
         d="m 81.860835,300.07539 -6.160837,-1.4834 -4.714657,4.23419 -0.493011,-6.31769 -5.483865,-3.17547 5.856139,-2.42116 1.325442,-6.19674 4.112304,4.82134 6.303033,-0.65433 -3.314595,5.40091 z"
         inkscape:randomized="0"
         inkscape:rounded="0"
         inkscape:flatsided="false"
         sodipodi:arg2="1.3230568"
         sodipodi:arg1="0.69473828"
         sodipodi:r2="4.7712951"
         sodipodi:r1="9.5425901"
         sodipodi:cy="293.96637"
         sodipodi:cx="74.530014"
         sodipodi:sides="5"
         id="path6511eg"
         style="opacity:0.87000002;fill:#ff8080;fill-opacity:1;stroke:#0000ff;stroke-width:0.6047619;stroke-miterlimit:4;stroke-dasharray:none"
         sodipodi:type="star" />
      <path
         inkscape:transform-center-y="0.22428177"
         inkscape:transform-center-x="0.37755769"
         d="m 108.74051,312.2934 -1.06782,-3.99694 -3.89796,-1.38629 3.47135,-2.25068 0.1139,-4.13556 3.21323,2.60595 3.96835,-1.16963 -1.48546,3.86124 2.33867,3.41269 -4.13129,-0.21956 z"
         inkscape:randomized="0"
         inkscape:rounded="0"
         inkscape:flatsided="false"
         sodipodi:arg2="2.3965104"
         sodipodi:arg1="1.7681919"
         sodipodi:r2="3.115"
         sodipodi:r1="6.23"
         sodipodi:cy="306.18439"
         sodipodi:cx="109.96231"
         sodipodi:sides="5"
         id="path6513eg"
         style="opacity:0.87000002;fill:#ff8080;fill-opacity:1;stroke:#0000ff;stroke-width:0.6047619;stroke-miterlimit:4;stroke-dasharray:none"
         sodipodi:type="star" />
      <path
         inkscape:transform-center-y="-0.16705416"
         inkscape:transform-center-x="0.16705535"
         d="m 92.857067,295.18814 -2.173306,-0.73698 -1.839194,1.3725 0.02933,-2.29468 -1.873674,-1.32505 2.191432,-0.6812 0.6812,-2.19143 1.32505,1.87368 2.294678,-0.0293 -1.372506,1.8392 z"
         inkscape:randomized="0"
         inkscape:rounded="0"
         inkscape:flatsided="false"
         sodipodi:arg2="1.4137167"
         sodipodi:arg1="0.78539816"
         sodipodi:r2="1.727891"
         sodipodi:r1="3.4557824"
         sodipodi:cy="292.74454"
         sodipodi:cx="90.41346"
         sodipodi:sides="5"
         id="path6515eg"
         style="opacity:0.87000002;fill:#ff8080;fill-opacity:1;stroke:#0000ff;stroke-width:0.6047619;stroke-miterlimit:4;stroke-dasharray:none"
         sodipodi:type="star" />
      <path
         inkscape:transform-center-y="-0.1121867"
         inkscape:transform-center-x="-0.63956251"
         d="m 84.736419,309.55335 2.201552,-4.70569 -2.628342,-4.48131 5.155694,0.63966 3.44978,-3.8845 0.984842,5.10102 4.760422,2.08056 -4.547027,2.51294 -0.507677,5.17036 -3.79506,-3.54794 z"
         inkscape:randomized="0"
         inkscape:rounded="0"
         inkscape:flatsided="false"
         sodipodi:arg2="3.0951702"
         sodipodi:arg1="2.4668517"
         sodipodi:r2="3.9116797"
         sodipodi:r1="7.8233595"
         sodipodi:cy="304.66614"
         sodipodi:cx="90.845436"
         sodipodi:sides="5"
         id="path6517eg"
         style="opacity:0.87000002;fill:#ff8080;fill-opacity:1;stroke:#0000ff;stroke-width:0.6047619;stroke-miterlimit:4;stroke-dasharray:none"
         sodipodi:type="star" />
    </g>
    <path
       sodipodi:type="spiral"
       style="fill:#00ffff;fill-rule:evenodd;stroke:#000000;stroke-width:0.6047619px;stroke-linecap:butt;stroke-linejoin:miter;stroke-opacity:1"
       id="eaglynew2"
       sodipodi:cx="73.308212"
       sodipodi:cy="393.74982"
       sodipodi:expansion="1"
       sodipodi:revolution="3"
       sodipodi:radius="41.613129"
       sodipodi:argument="-18.147299"
       sodipodi:t0="0"
       d="m 73.308212,393.74982 c 1.592741,1.3477 -1.030876,2.81189 -2.239973,2.64724 -3.276579,-0.4462 -4.137127,-4.52375 -3.054508,-7.12719 1.936552,-4.65694 7.887895,-5.67954 12.014402,-3.46177 6.055815,3.25466 7.263028,11.296 3.869042,16.90161 -4.52365,7.4714 -14.719492,8.86373 -21.788831,4.27631 -8.896041,-5.77281 -10.473289,-18.15026 -4.683575,-26.67604 7.01212,-10.32587 21.585119,-12.08797 31.563258,-5.09085 11.758893,8.24586 13.705843,25.02253 5.49811,36.45048 -9.476152,13.19401 -28.461631,15.32586 -41.337687,5.90537 -14.630593,-10.70415 -16.947384,-31.90193 -6.312644,-46.2249 11.930572,-16.06821 35.343106,-18.56999 51.112116,-6.71991 17.506588,13.15584 20.193418,38.78494 7.127178,55.99933">
      <desc
         id="desc6528">a new test shape to play with! :)</desc>
    </path>
    <path
       d="m 205.26299,520.81738 c 1.59274,1.34771 -1.03088,2.8119 -2.23998,2.64724 -3.27658,-0.44619 -4.13713,-4.52374 -3.05451,-7.12718 1.93656,-4.65695 7.8879,-5.67955 12.01441,-3.46178 6.05581,3.25466 7.26302,11.296 3.86904,16.90162 -4.52365,7.4714 -14.71949,8.86373 -21.78883,4.27631 -8.89604,-5.77281 -10.47329,-18.15027 -4.68358,-26.67605 7.01212,-10.32586 21.58512,-12.08796 31.56326,-5.09084 11.75889,8.24586 13.70584,25.02252 5.49811,36.45047 -9.47615,13.19402 -28.46163,15.32587 -41.33769,5.90538 -14.63059,-10.70416 -16.94738,-31.90193 -6.31264,-46.2249 11.93057,-16.06821 35.3431,-18.57 51.11211,-6.71991 17.50659,13.15583 20.19342,38.78493 7.12718,55.99933"
       sodipodi:t0="0"
       sodipodi:argument="-18.147299"
       sodipodi:radius="41.613129"
       sodipodi:revolution="3"
       sodipodi:expansion="1"
       sodipodi:cy="520.81738"
       sodipodi:cx="205.26299"
       id="path6530eg"
       style="fill:#800000;fill-rule:evenodd;stroke:#000000;stroke-width:0.6047619px;stroke-linecap:butt;stroke-linejoin:miter;stroke-opacity:1"
       sodipodi:type="spiral">
      <desc
         id="desc6532">a new test shape to play with! :)</desc>
    </path>
  </g>
  <rect
     height="448"
     id="Border"
     style="fill:none;stroke:#800080;stroke-width:0.60342091"
     width="448"
     x="1"
     y="1" />
	 
	 
	 <!-- creatures from original versions! :) -->
	 
			<a style="fill-opacity:0.75" xlink:href="http://life.worldsowisdom.com/flow/"> <rect height="90" id="YellowRect" onmouseout="setAttribute('fill-opacity','0.5')" onmouseover="setAttribute('fill-opacity','1.0')" style="fill:yellow;stroke:#000000" width="90" x="150" y="90"> <desc id="desc3364">A clickable square!</desc>
			<title id="title3362"></title>
			</rect> </a> <a style="fill-opacity:0.75" xlink:href="http://life.worldsowisdom.com/flow/">
			<rect height="90" id="OrangeRect" onmouseout="setAttribute('fill-opacity','0.75')" onmouseover="setAttribute('fill-opacity','1.0')" style="fill:orange;stroke:#000000" width="90" x="60" y="300"> <desc id="desc3364">A clickable square!</desc>
			<title id="title3362"></title>
			</rect> </a>

<path xmlns="http://www.w3.org/2000/svg" sodipodi:type="spiral" xmlns:sodipodi="http://sodipodi.sourceforge.net/DTD/sodipodi-0.dtd" style="fill:#00ffff;fill-rule:evenodd;stroke:#000000;stroke-width:0.6047619px;stroke-linecap:butt;stroke-linejoin:miter;stroke-opacity:1" id="eaglynew" sodipodi:cx="73.308212" sodipodi:cy="393.74982" sodipodi:expansion="1" sodipodi:revolution="3" sodipodi:radius="41.613129" sodipodi:argument="-18.147299" sodipodi:t0="0" d="m 73.308212,393.74982 c 1.592741,1.3477 -1.030876,2.81189 -2.239973,2.64724 -3.276579,-0.4462 -4.137127,-4.52375 -3.054508,-7.12719 1.936552,-4.65694 7.887895,-5.67954 12.014402,-3.46177 6.055815,3.25466 7.263028,11.296 3.869042,16.90161 -4.52365,7.4714 -14.719492,8.86373 -21.788831,4.27631 -8.896041,-5.77281 -10.473289,-18.15026 -4.683575,-26.67604 7.01212,-10.32587 21.585119,-12.08797 31.563258,-5.09085 11.758893,8.24586 13.705843,25.02253 5.49811,36.45048 -9.476152,13.19401 -28.461631,15.32586 -41.337687,5.90537 -14.630593,-10.70415 -16.947384,-31.90193 -6.312644,-46.2249 11.930572,-16.06821 35.343106,-18.56999 51.112116,-6.71991 17.506588,13.15584 20.193418,38.78494 7.127178,55.99933" transform="translate(25, 25 )">
    <desc id="desc36">a new test shape to play with! :)</desc>
  </path><rect xmlns="http://www.w3.org/2000/svg" height="10" id="AvrilNiblet1" onmouseout="setAttribute('fill-opacity','0.5')" onmouseover="setAttribute('fill-opacity','1.0')" style="fill:yellow;stroke:black" width="10" x="225" y="225" transform="translate(25, 25 )">
    <desc id="desc71">Avril's first little niblet! :)</desc>
    <title id="title73"/>
  </rect><path xmlns="http://www.w3.org/2000/svg" fill-opacity="0.43046721000000016" onmousedown="Reverse(PurpleSpiral)" id="PurpleSpiral" d="m 282.09113,269.50729 c 1.52075,1.52076 -1.29967,2.80025 -2.52761,2.52761 -3.32763,-0.73884 -3.86257,-5.00113 -2.5276,-7.58281 2.38796,-4.61803 8.58895,-5.15902 12.63801,-2.5276 5.94217,3.86172 6.4939,12.22544 2.5276,17.69322 -5.28645,7.28768 -15.87921,7.84514 -22.74842,2.52759 -8.6442,-6.69159 -9.20486,-19.54122 -2.5276,-27.80363 8.08706,-10.00688 23.20787,-10.56947 32.85884,-2.52759 11.37333,9.47708 11.93717,26.8774 2.52759,37.91404 -10.86373,12.74223 -30.54887,13.30692 -42.96924,2.52759 -14.11282,-12.24817 -14.67812,-34.22169 -2.52759,-48.02445 13.63105,-15.4846 37.8955,-16.05034 53.07965,-2.52759 16.85728,15.01283 17.42336,41.57006 2.52759,58.13486" inkscape:tile-cx="185.6451" xmlns:inkscape="http://www.inkscape.org/namespaces/inkscape" inkscape:tile-cy="265.9547" inkscape:tile-h="68.00056" inkscape:tile-w="75.106916" inkscape:tile-x0="148.09164" inkscape:tile-y0="231.95443" sodipodi:argument="-18.064157" xmlns:sodipodi="http://sodipodi.sourceforge.net/DTD/sodipodi-0.dtd" sodipodi:cx="182.09113" sodipodi:cy="269.50729" sodipodi:expansion="1" sodipodi:radius="42.894836" sodipodi:revolution="3" sodipodi:t0="0" sodipodi:type="spiral" style="fill:#800080;fill-rule:evenodd;stroke:#000000;stroke-width:0.2081555px;stroke-linecap:butt;stroke-linejoin:miter;stroke-opacity:1" transform="translate(25, 25)"/><image xmlns="http://www.w3.org/2000/svg" id="back3" width="448" height="448" x="1" y="1" xlink:href="creatures/png/back3.png" xmlns:xlink="http://www.w3.org/1999/xlink"/><image xmlns="http://www.w3.org/2000/svg" id="galaxy3" width="294" height="150" x="150" y="100" style="opacity:0.5" onmousedown="tool(eg_newy)" xlink:href="creatures/png/galaxy3.png" xmlns:xlink="http://www.w3.org/1999/xlink" transform="translate(25, 25 )"/><image xmlns="http://www.w3.org/2000/svg" id="galaxy4" width="306" height="150" x="50" y="250" style="opacity:0.25" onmousedown="tool(eg_newy2)" xlink:href="creatures/png/galaxy4.png" xmlns:xlink="http://www.w3.org/1999/xlink" transform="translate(25, 12.5 )"/><image xmlns="http://www.w3.org/2000/svg" id="planet3" width="157" height="150" x="100" y="250" style="opacity:0.5" onmousedown="tool(eg_niblet)" xlink:href="creatures/png/planet3.png" xmlns:xlink="http://www.w3.org/1999/xlink" transform="translate(25, 0.0 )"/><image xmlns="http://www.w3.org/2000/svg" id="planet4" width="150" height="150" x="300" y="150" style="opacity:0.9" onmousedown="tool(eg_medy)" xlink:href="creatures/png/planet4.png" xmlns:xlink="http://www.w3.org/1999/xlink" transform="translate(25, 0.0 )"/><image xmlns="http://www.w3.org/2000/svg" id="satellite3" width="79" height="150" x="200" y="250" onmousedown="tool(satellite3)" xlink:href="creatures/png/satellite3.png" xmlns:xlink="http://www.w3.org/1999/xlink" transform="translate(25, 25 )"/><image xmlns="http://www.w3.org/2000/svg" id="satellite4" width="109" height="75" x="50" y="50" onmousedown="tool(satellite4)" xlink:href="creatures/png/satellite4.png" xmlns:xlink="http://www.w3.org/1999/xlink" transform="translate(25, 25 )"/><image xmlns="http://www.w3.org/2000/svg" id="mediumcreature3" width="38" height="50" x="300" y="175" onmousedown="tool(the_rect)" xlink:href="creatures/png/mediumcreature3.png" xmlns:xlink="http://www.w3.org/1999/xlink" transform="translate( 0.0 , 25 )"/><image xmlns="http://www.w3.org/2000/svg" id="niblet3" width="21" height="32" x="400" y="350" onmousedown="tool(pink_rect)" xlink:href="creatures/png/niblet3.png" xmlns:xlink="http://www.w3.org/1999/xlink" transform="translate( 0.0 , 25 )"/><image xmlns="http://www.w3.org/2000/svg" id="bigbeauty3" width="92" height="110" x="100" y="150" onmousedown="tool(eg_biggo)" xlink:href="creatures/png/bigbeauty3.png" xmlns:xlink="http://www.w3.org/1999/xlink" transform="translate(25, 0.0 )"/><g xmlns="http://www.w3.org/2000/svg" id="Creature-0.9630081151385409" style="fill:#1fc8f;stroke:#d319d5" stroke-width="0.4949536820470035" opacity="0.9032245013822419" transform="translate(11.33560371029662, 333.0018788363645) rotate(0.007992440882444524 667.6333618164062 561.6833190917969)" onmousedown="tool('Creature-0.9630081151385409')" class="creatureClass"><title>Creature-0.9630081151385409</title><desc>moveLifePathCreatureEvo("Creature-0.9630081151385409", 1, 1)</desc><path id="Creature-0.9630081151385409-part-0" d="M 547.1002217154049, 10.117935251715721 Q 88.90674641875466, 182.1694116316377 454.1258279731346, 187.3454975084542 T 215.56895004635783, 167.8127478808863, 361.04698134954594 133.82859314557797, 348.22931806002305 152.41012001137938, 291.36214391333135 103.08513516563723, 207.14146646634433 77.59916702602308 z" stroke-width="4.296398552347459" opacity="0.549579099919282" class="creaturePartClass"/><path id="Creature-0.9630081151385409-part-1" d="M 563.3913957553409, 164.88960784213893 Q 144.17689399342024, 108.64679595128635 343.09609750284113, 3.622232812656508 T 137.15470105386632, 125.21284677243153, 469.20692464546386 21.69324703153773, 87.46354013592335 163.13647154561676, 154.6006402293244 191.84185989651846, 187.67940442104344 111.1825333844678 z" stroke-width="4.051643766257379" opacity="0.5231092754785011" class="creaturePartClass"/><path id="Creature-0.9630081151385409-part-2" d="M 450.5881182816206, 93.50456140313764 Q 134.68572088680833, 82.77202847011445 454.2792329990752, 121.15869462717913 T 249.9860061361617, 3.5464560032253005, 474.0475475803824 170.40034697650157, 375.2047547024654 163.5153442301012, 52.71928360778818 141.25010377630352, 343.6372503464429 127.06301576306826 z" stroke-width="0.8573137669570833" opacity="0.8270649930559563" class="creaturePartClass"/><path id="Creature-0.9630081151385409-part-3" d="M 569.7558444096871, 190.0575063768518 Q 190.67007660354676, 85.38526229088833 392.56067008495165, 41.77802995051612 T 192.83653894956208, 69.87290253389719, 584.0261445726678 130.9257100796664, 211.1765140497085 24.52373240288003, 546.1393905624593 127.37805322341848, 418.0837099261594 172.79475481209886 z" stroke-width="0.18816438103387143" opacity="0.5614905948205029" class="creaturePartClass"/></g><g xmlns="http://www.w3.org/2000/svg" id="Creature-0.3141866878232348" style="fill:#21fdfe;stroke:#f9b419" stroke-width="4.002578633325034" opacity="0.7966024105078794" transform="translate(58.520612080501714, 152.80129924446015) rotate(0.19096412107945268 1447.5583038330078 447.85833740234375)" onmousedown="tool('Creature-0.3141866878232348')" class="creatureClass"><title>Creature-0.3141866878232348</title><desc>moveLifePathCreatureEvo("Creature-0.3141866878232348", 1, 1)</desc><path id="Creature-0.3141866878232348-part-0" d="M 231.42561089190772, 82.22865573820917 Q 296.2626448824343, 149.16475528442533 116.75809634084428, 19.32093348875399 T 592.5012750986016, 26.177197666700124, 485.4424274620206 2.406085143607569, 161.22570774042134 166.27754878835304, 176.9421172790171 141.87629483125514, 639.0922086059436 82.93452425248371 z" stroke-width="3.83170006717159" opacity="0.6282324961954436" class="creaturePartClass"/><path id="Creature-0.3141866878232348-part-1" d="M 282.53512021185986, 222.47621970735426 Q 180.03778056240213, 109.62617348228605 568.7451180408582, 121.25503706168416 T 131.15902685764075, 49.139695326285114, 396.41006874584673 57.182328296433774, 149.51666306515293 84.6793804155527, 162.53683425161012 195.54264257277, 510.09708354193674 126.23578565932446 z" stroke-width="3.884814821795819" opacity="0.2763830912925196" class="creaturePartClass"/><path id="Creature-0.3141866878232348-part-2" d="M 76.2844156192374, 1.2351777142844016 Q 526.5095499542994, 205.66979501673063 40.66029626887382, 42.54856300594535 T 595.860195917558, 45.90886430844127, 228.96563875379644 185.68807401210375, 62.807392926044066 1.7653641175368815, 673.4940899181695 18.75369910871347, 220.6985119675112 215.79033652402603 z" stroke-width="1.5442431606396474" opacity="0.8394962393102103" class="creaturePartClass"/><path id="Creature-0.3141866878232348-part-3" d="M 473.9128154874608, 193.91717704554347 Q 38.267641105130565, 59.03036603448278 116.43686523784713, 116.7910443898489 T 186.9141314356848, 68.09614350619249, 670.0900256841995 93.75417572100189, 360.73670082079025 147.83794422555243, 36.80505845905194 206.55046379186567, 514.6780398208841 82.30918174334545 z" stroke-width="6.255414166389716" opacity="0.8798474449734287" class="creaturePartClass"/></g><path xmlns="http://www.w3.org/2000/svg" id="Creature-0.9466917727198605" d="M 123.70969242433185, 139.4199059518266 Q 97.81215382739887, 266.53520728512325 23.6361073775871, 25.81490031218313 T 106.41677365051522, 394.3143433863477, 110.89366257816971 279.4460359233957, 48.945823643421335 323.9642709472921, 107.49970370410915 274.1115317551585, 44.43841368545499 292.6678804526961 z" style="fill:yellow;stroke:orange" stroke-width="7.453743344011652" opacity="0.5695694853853958" transform="translate(364.36657104921494, 311.7091135424743) rotate(0.09475546716020979 213.82500457763672 643.4833221435547)" onmousedown="tool('Creature-0.9466917727198605')" class="creatureClass"><title>Creature-0.9466917727198605</title><desc>moveLifePathCreature2("Creature-0.9466917727198605", 1, 1)</desc></path><g xmlns="http://www.w3.org/2000/svg" id="Creature-0.34477451429493433" style="fill:#48309a;stroke:#6063a" stroke-width="3.688992257362237" opacity="0.9908576026951" transform="translate(138.95503086568812, 169.0053936885761) rotate(-0.25684862228422495 386.60003662109375 286.7916564941406)" onmousedown="tool('Creature-0.34477451429493433')" class="creatureClass"><title>Creature-0.34477451429493433</title><desc>moveLifePathCreatureEvo("Creature-0.34477451429493433", 1, 1)</desc><path id="Creature-0.34477451429493433-part-0" d="M 506.686932274367, 96.53163798466807 Q 166.62535434076275, 88.83378276130153 356.57785379759224, 59.03836610520651 T 70.02459361138295, 90.03791102367535, 125.66884313823519 7.4459288196701845, 510.40505083392975 59.59858073169389, 468.14082713916025 58.04704699889088, 487.3079680864846 10.627451051906982 z" stroke-width="0.8248405104765536" opacity="0.8162856168160267" class="creaturePartClass"/><path id="Creature-0.34477451429493433-part-1" d="M 219.9561076486051, 53.02016918799636 Q 465.3775300402734, 94.58402161658279 215.75103499153616, 42.72569089547288 T 528.3297836603061, 25.364416008163712, 384.4856131335796 53.465804998950695, 157.05933428867277 8.669861316248724, 225.91842347391585 105.88839940935527, 420.71980310681397 93.8164064658651 z" stroke-width="1.5785730530517892" opacity="0.987131974161957" class="creaturePartClass"/><path id="Creature-0.34477451429493433-part-2" d="M 122.02778113284488, 20.396202278236416 Q 201.3811711076698, 111.94271039942815 39.07742472320677, 113.84734314426986 T 60.31468265212642, 67.60280095530999, 553.7638184654343 2.3233004236662778, 448.22250454495145 53.25113927293116, 73.99512609931307 77.95882215555731, 175.66700415416358 54.101296736712996 z" stroke-width="4.895065163378203" opacity="0.926141935520749" class="creaturePartClass"/><path id="Creature-0.34477451429493433-part-3" d="M 25.831950330452806, 53.08722759827263 Q 391.9539476816117, 115.84037057541293 44.96138520455377, 17.73582787940648 T 524.7319721111686, 112.50891539355597, 49.55608652143635 114.35114798764829, 56.36169424074868 67.0487819731564, 239.3273221081531 87.29994279353389, 65.57702927357337 10.459128753708352 z" stroke-width="2.278520836771573" opacity="0.9307048847517402" class="creaturePartClass"/></g><path xmlns="http://www.w3.org/2000/svg" id="Creature-0.6138593975496378" d="M 58.46919445066286, 108.60731823467403 Q 37.22188453372957, 164.0903892672032 12.070307414409502, 204.39192213470855 T 203.9669022170749, 98.33909699621381, 295.2701233755125 138.2531917493707, 119.59761310422876 94.50099831409607, 240.57422955861554 63.07939949347245, 262.717550382098 141.11983560920635 z" style="fill:yellow;stroke:orange" stroke-width="5.970760669000265" opacity="0.6083414372184738" transform="translate(442.59514896616844, 230.3347049298749) rotate(0.8929575554282027 226.64999389648438 427.0249938964844)" onmousedown="tool('Creature-0.6138593975496378')" class="creatureClass"><title>Creature-0.6138593975496378</title><desc>moveLifePathCreature2("Creature-0.6138593975496378", 1, 1)</desc></path><path xmlns="http://www.w3.org/2000/svg" id="Creature-0.9935151653124411" d="M 881.1773051829076, 250.07904024473254 Q 414.42083537975776, 253.47719173975196 1401.1472873883934, 55.893737952957565 T 7.585712709979111, 234.3340182676154, 1950.322649265765 352.608731311269, 52.46553980397329 268.26585114903884, 479.97105997290976 346.13204031917417, 1036.3990563802606 127.62741016373295 z" style="fill:#34b43d;stroke:#e93d86" stroke-width="6.243900462349538" opacity="0.7924538592883217" transform="translate(152.6430533467757, 285.1774284133765) rotate(-0.24869733513277645 774.533203125 502.74168395996094)" onmousedown="tool('Creature-0.9935151653124411')" class="creatureClass"><title>Creature-0.9935151653124411</title><desc>moveLifePathCreatureNext("Creature-0.9935151653124411", 1, 1)</desc></path><g xmlns="http://www.w3.org/2000/svg" id="Creature-0.257891236310979" style="fill:#57d25b;stroke:#98e7d8" stroke-width="3.6425648543765345" opacity="0.9368845123803626" transform="translate(0,0)" onmousedown="tool('Creature-0.257891236310979')" class="creatureClass"><title>Creature-0.257891236310979</title><desc>moveLifePathCreatureEvo("Creature-0.257891236310979", 1, 1)</desc><path id="Creature-0.257891236310979-part-0" d="M 343.6456989568199, 158.45358636350562 Q 110.6623792170479, 59.82975912532872 641.7396264530191, 112.46161208092344 T 302.44008798379065, 114.40712514821024, 411.9130150741107 70.15485843639269, 456.2217684449957 45.540197361819594, 642.2234190089782 123.07054168683649, 255.77947769424492 114.57953045653954 z" stroke-width="3.8383374056348103" opacity="0.91845946793669" class="creaturePartClass"/><path id="Creature-0.257891236310979-part-1" d="M 249.1543423739433, 106.90137108399387 Q 198.38553881513727, 116.80664323980818 134.47069303173816, 69.10171286654783 T 335.32571245916637, 12.169606701594367, 257.1801657455703 145.04436213656328, 746.952301495065 5.622080830515112, 236.37157735771615 14.457359750934064, 488.3685811704616 124.50088816639803 z" stroke-width="2.4729753469008267" opacity="0.897648001341293" class="creaturePartClass"/><path id="Creature-0.257891236310979-part-2" d="M 310.47524426849753, 52.59851058272884 Q 185.17953883950926, 98.91443086413831 208.39693764034922, 36.000063808225015 T 635.8007975457508, 129.36591930839415, 700.3164677889946 84.07127103654709, 469.85297453319134 76.57873568101192, 167.70537640254932 110.25614481888388, 635.888602031073 118.35577289109736 z" stroke-width="5.838869861527019" opacity="0.6878772567834582" class="creaturePartClass"/><path id="Creature-0.257891236310979-part-3" d="M 587.0741200256765, 147.0622959090242 Q 65.04664225048249, 70.33464330459282 576.3338316432561, 109.43073054159245 T 209.84848094645395, 72.28769053948483, 727.4084352237193 149.0708181592913, 668.6970406470285 58.1812694660553, 235.97606364346643 101.48843763141764, 147.32275116870073 76.44676427876112 z" stroke-width="0.3730801884419706" opacity="0.8418932556492695" class="creaturePartClass"/><g id="Creature-0.09792243869491801" style="fill:#9679b5;stroke:#941e95" stroke-width="4.6360578143346896" opacity="0.8525875617143015" transform="translate(28.76938132084637, 257.5779711408739) rotate(-0.0019274667054514816 715.2833557128906 1233.4833374023438)" onmousedown="tool('Creature-0.09792243869491801')" class="creatureClass"><title>Creature-0.09792243869491801</title><desc>moveLifePathCreatureEvo("Creature-0.09792243869491801", 1, 1)</desc><path id="Creature-0.09792243869491801-part-0" d="M 52.70112867198501, 217.1274631826073 Q 533.8766432259122, 40.5803179428546 291.06884463538455, 156.02459447955175 T 466.95199326836115, 191.00520469982905, 91.0782051662092 214.38131240719548, 328.00728497374655 89.58168019999995, 193.14455418430887 5.135533078539501, 355.96314796311026 127.05140259767498 z" stroke-width="6.422213152704309" opacity="0.7535821437465908" class="creaturePartClass"/><path id="Creature-0.09792243869491801-part-1" d="M 388.96505358397604, 49.57990155351397 Q 462.84552084419744, 121.67130511033795 230.18050182096633, 277.09636765082524 T 138.77469049903627, 80.67654456525077, 13.890618175421261 181.15759891749155, 366.6885627912993 167.9152039572823, 170.94541560792615 202.36287426370208, 368.7290472858623 148.19937079069098 z" stroke-width="2.7482313617643364" opacity="0.8776206959559304" class="creaturePartClass"/><path id="Creature-0.09792243869491801-part-2" d="M 574.8003101031057, 287.40012136941874 Q 454.6782585000359, 287.48805897409767 252.16571312788125, 82.26356573009775 T 319.3768082509376, 204.93353344980656, 101.42550426306737 142.15978367274, 404.95024076162673 96.90008012208926, 588.7572409724972 292.7643242741109, 285.7768932354419 75.95248416875833 z" stroke-width="2.6776687275576716" opacity="0.6058833267933155" class="creaturePartClass"/><path id="Creature-0.09792243869491801-part-3" d="M 494.7087732504926, 134.05567180757743 Q 445.7146092856212, 34.84856267592939 515.4112965595478, 283.1268967961339 T 111.41542243504534, 91.0715759353688, 570.4145467108642 262.31018748622614, 200.3654911346128 212.1041274016474, 329.50118770987723 152.4994479792865, 237.79660712164576 106.48197426095267 z" stroke-width="1.484604115512056" opacity="0.923668337636647" class="creaturePartClass"/></g></g><g xmlns="http://www.w3.org/2000/svg" id="Creature-0.09792243869491801" style="fill:#9679b5;stroke:#941e95" stroke-width="4.6360578143346896" opacity="0.8525875617143015" transform="translate(28.76938132084637, 257.5779711408739) rotate(-0.0019274667054514816 715.2833557128906 1233.4833374023438)" onmousedown="tool('Creature-0.09792243869491801')" class="creatureClass"><title>Creature-0.09792243869491801</title><desc>moveLifePathCreatureEvo("Creature-0.09792243869491801", 1, 1)</desc><path id="Creature-0.09792243869491801-part-0" d="M 52.70112867198501, 217.1274631826073 Q 533.8766432259122, 40.5803179428546 291.06884463538455, 156.02459447955175 T 466.95199326836115, 191.00520469982905, 91.0782051662092 214.38131240719548, 328.00728497374655 89.58168019999995, 193.14455418430887 5.135533078539501, 355.96314796311026 127.05140259767498 z" stroke-width="6.422213152704309" opacity="0.7535821437465908" class="creaturePartClass"/><path id="Creature-0.09792243869491801-part-1" d="M 388.96505358397604, 49.57990155351397 Q 462.84552084419744, 121.67130511033795 230.18050182096633, 277.09636765082524 T 138.77469049903627, 80.67654456525077, 13.890618175421261 181.15759891749155, 366.6885627912993 167.9152039572823, 170.94541560792615 202.36287426370208, 368.7290472858623 148.19937079069098 z" stroke-width="2.7482313617643364" opacity="0.8776206959559304" class="creaturePartClass"/><path id="Creature-0.09792243869491801-part-2" d="M 574.8003101031057, 287.40012136941874 Q 454.6782585000359, 287.48805897409767 252.16571312788125, 82.26356573009775 T 319.3768082509376, 204.93353344980656, 101.42550426306737 142.15978367274, 404.95024076162673 96.90008012208926, 588.7572409724972 292.7643242741109, 285.7768932354419 75.95248416875833 z" stroke-width="2.6776687275576716" opacity="0.6058833267933155" class="creaturePartClass"/><path id="Creature-0.09792243869491801-part-3" d="M 494.7087732504926, 134.05567180757743 Q 445.7146092856212, 34.84856267592939 515.4112965595478, 283.1268967961339 T 111.41542243504534, 91.0715759353688, 570.4145467108642 262.31018748622614, 200.3654911346128 212.1041274016474, 329.50118770987723 152.4994479792865, 237.79660712164576 106.48197426095267 z" stroke-width="1.484604115512056" opacity="0.923668337636647" class="creaturePartClass"/></g><path xmlns="http://www.w3.org/2000/svg" id="Creature-0.6261836468985352" d="M 16.321458301911886, 338.21743423640265 Q 14.211577515862208, 52.6666068936511 0.667977213644878, 390.8535775844395 T 44.14318990604198, 384.822756009911, 34.584482464613636 255.64444099452683, 50.92705524300812 70.31178529675711, 23.403715793972786 301.65171603622724, 30.23371122960683 139.04909716671796 z" style="fill:yellow;stroke:orange" stroke-width="16.826872861606304" opacity="0.13404793360078648" transform="translate(387.0352206345486, 22.212095042386093) rotate(4.593262939757647 231.59166717529297 383.4250183105469)" onmousedown="tool('Creature-0.6261836468985352')" class="creatureClass"><title>Creature-0.6261836468985352</title><desc>moveLifePathCreature2("Creature-0.6261836468985352", 1, 1)</desc></path><g xmlns="http://www.w3.org/2000/svg" id="Creature-0.4561028259426442" style="fill:#dec35f;stroke:#7eb6cd" stroke-width="6.542851735957285" opacity="0.9146992720429044" transform="translate(0,0)" onmousedown="tool('Creature-0.4561028259426442')" class="creatureClass"><title>Creature-0.4561028259426442</title><desc>moveLifePathCreatureEvo("Creature-0.4561028259426442", 1, 1)</desc><path id="Creature-0.4561028259426442-part-0" d="M 364.3845279162527, 50.79610630447719 Q 23.711824752078897, 62.19004844047238 492.05278518023044, 39.31325108002676 T 468.54154055598326, 118.18230065676804, 412.2751448808477 105.51798126712974, 24.26063450716475 70.61597463475094, 149.753658340635 16.531775580424, 341.6365130702558 38.19131617168941 z" stroke-width="1.843979586486994" opacity="0.4888114563188994" class="creaturePartClass"/><path id="Creature-0.4561028259426442-part-1" d="M 746.8518367462568, 34.29680724898845 Q 593.9031748151823, 99.90570800803192 398.6647128142117, 93.84623602910978 T 728.0806696433064, 79.3929642108354, 731.5475875901004 77.24240094011786, 395.5395034140048 46.234033703341815, 683.8999314571831 42.12339577199101, 579.8042058632927 110.14512443018847 z" stroke-width="4.368401557214741" opacity="0.3817881376652736" class="creaturePartClass"/><path id="Creature-0.4561028259426442-part-2" d="M 77.77349356962543, 44.211722333360704 Q 543.7738595876872, 37.37873657330371 283.5683425734046, 84.52676664206112 T 567.945557211019, 7.941026730135826, 575.617889437713 3.2825383434927695, 712.2011740032337 2.2675651855677996, 485.56090519098433 77.56173831997923, 657.3950873061904 50.959809621982984 z" stroke-width="2.669471761119023" opacity="0.7609094053143767" class="creaturePartClass"/><path id="Creature-0.4561028259426442-part-3" d="M 356.34768674179, 90.79321095735965 Q 620.5547285997733, 30.112617081836532 339.7439982263704, 57.95513298216486 T 500.7454624639319, 0.14445520196419004, 262.64272523157564 40.308233174155504, 7.225445624315991 98.39903634296496, 147.69959818941314 106.65472178030444, 649.2479247256106 74.4891783759153 z" stroke-width="4.216215424205174" opacity="0.8131522429768118" class="creaturePartClass"/></g><path xmlns="http://www.w3.org/2000/svg" id="Creature-0.5394575921004331" d="M 188.75082847922843, 335.66021481250175 Q 344.54416768778054, 403.81137877345685 76.66179453612223, 87.02211372970275 T 12.491239129700453, 330.9284940234378, 401.54454102382726 79.73823236332008, 315.6357790658502 278.0921807128234, 247.96734175023246 428.2634139881229, 143.08368401001715 92.62059510417708 z" style="fill:yellow;stroke:orange" stroke-width="1.1451620474708313" opacity="0.5857050895180862" transform="translate(111.90746043863483, 164.0527926605512) rotate(0.2605640405456057 388.2166748046875 376.4750213623047)" onmousedown="tool('Creature-0.5394575921004331')" class="creatureClass"><title>Creature-0.5394575921004331</title><desc>moveLifePathCreature2("Creature-0.5394575921004331", 1, 1)</desc></path></svg>