<?xml version="1.0" encoding="UTF-8" standalone="no"?>
<!-- Created with LifeFLOW (http://life.worldsowisdom.com/flow/) -->

<svg
   xmlns:osb="http://www.openswatchbook.org/uri/2009/osb"
   xmlns:dc="http://purl.org/dc/elements/1.1/"
   xmlns:cc="http://creativecommons.org/ns#"
   xmlns:rdf="http://www.w3.org/1999/02/22-rdf-syntax-ns#"
   xmlns:svg="http://www.w3.org/2000/svg"
   xmlns="http://www.w3.org/2000/svg"
   xmlns:xlink="http://www.w3.org/1999/xlink"
   xmlns:sodipodi="http://sodipodi.sourceforge.net/DTD/sodipodi-0.dtd"
   xmlns:inkscape="http://www.inkscape.org/namespaces/inkscape"
   width="450"
   height="450"
   viewBox="0 0 450 450"
   id="svg2"
   version="1.1"
   inkscape:version="0.91 r13725"
   sodipodi:docname="newcreatures-plain.svg">
  <defs
     id="defs4">
    <linearGradient
       inkscape:collect="always"
       id="linearGradient6501">
      <stop
         style="stop-color:#0000ff;stop-opacity:1;"
         offset="0"
         id="stop6503" />
      <stop
         style="stop-color:#0000ff;stop-opacity:0;"
         offset="1"
         id="stop6505" />
    </linearGradient>
    <linearGradient
       id="linearGradient6455"
       osb:paint="solid">
      <stop
         style="stop-color:#0000ff;stop-opacity:1;"
         offset="0"
         id="stop6457" />
    </linearGradient>
    <filter
       inkscape:collect="always"
       style="color-interpolation-filters:sRGB"
       id="filter5001"
       x="-0.37912726"
       width="1.7582545"
       y="-0.65848422"
       height="2.3169684">
      <feGaussianBlur
         inkscape:collect="always"
         stdDeviation="6.3692616"
         id="feGaussianBlur5003" />
    </filter>
    <linearGradient
       inkscape:collect="always"
       xlink:href="#linearGradient6501"
       id="linearGradient6507"
       x1="242.51431"
       y1="178.50594"
       x2="313.40628"
       y2="178.50594"
       gradientUnits="userSpaceOnUse"
       gradientTransform="translate(-215.03742,319.7082)" />
  </defs>
  <sodipodi:namedview
     id="base"
     pagecolor="#ffffff"
     bordercolor="#666666"
     borderopacity="1.0"
     inkscape:pageopacity="0.0"
     inkscape:pageshadow="2"
     inkscape:zoom="0.24748738"
     inkscape:cx="463.57331"
     inkscape:cy="265.90363"
     inkscape:document-units="px"
     inkscape:current-layer="layer1"
     showgrid="false"
     inkscape:window-width="1366"
     inkscape:window-height="706"
     inkscape:window-x="-8"
     inkscape:window-y="-8"
     inkscape:window-maximized="1"
     units="px" />
  <metadata
     id="metadata7">
    <rdf:RDF>
      <cc:Work
         rdf:about="">
        <dc:format>image/svg+xml</dc:format>
        <dc:type
           rdf:resource="http://purl.org/dc/dcmitype/StillImage" />
        <dc:title></dc:title>
      </cc:Work>
    </rdf:RDF>
  </metadata>
  <g
     inkscape:label="Layer 1"
     inkscape:groupmode="layer"
     id="layer1"
     transform="translate(0,-364.28567)">
    <path
       sodipodi:type="star"
       style="opacity:0.28999999;fill:#00ffff;stroke:#800080"
       id="path4136eg"
       sodipodi:sides="5"
       sodipodi:cx="149.96248"
       sodipodi:cy="470.92843"
       sodipodi:r1="84.03109"
       sodipodi:r2="42.015545"
       sodipodi:arg1="0.31099828"
       sodipodi:arg2="0.93931681"
       inkscape:flatsided="false"
       inkscape:rounded="0"
       inkscape:randomized="0"
       d="m 229.96248,496.64272 -55.19656,8.19877 -24.53782,50.11762 -24.85417,-49.96149 -55.247286,-7.84966 39.835836,-39.07667 -9.60688,-54.96897 49.47407,25.81078 49.30991,-26.12303 -9.25918,55.0286 z"
       inkscape:transform-center-x="-0.082081267"
       inkscape:transform-center-y="7.9461513" />
    <path
       inkscape:transform-center-y="2.4320959"
       inkscape:transform-center-x="-0.025122895"
       d="m 68.791599,427.6385 -16.894071,2.5094 -7.510317,15.33956 -7.607143,-15.29177 -16.909598,-2.40255 12.192598,-11.96024 -2.940388,-16.82442 15.142583,7.89994 15.092337,-7.99551 -2.833967,16.84267 z"
       inkscape:randomized="0"
       inkscape:rounded="0"
       inkscape:flatsided="false"
       sodipodi:arg2="0.93931681"
       sodipodi:arg1="0.31099828"
       sodipodi:r2="12.859744"
       sodipodi:r1="25.719488"
       sodipodi:cy="419.76809"
       sodipodi:cx="44.305912"
       sodipodi:sides="5"
       id="path4138eg"
       style="opacity:0.28999999;fill:#00ffff;stroke:#800080;stroke-width:0.3060711"
       sodipodi:type="star" />
    <g
       id="BiggoEGbg"
       transform="translate(-109.96232,143.76849)">
      <desc
         id="desc4151">A big creature for LifeFLOW! :)</desc>
      <circle
         r="29.934187"
         cy="259.14496"
         cx="302.39636"
         id="path4137eg"
         style="opacity:0.28999999;fill:#ffff00;stroke:#800080;stroke-width:0.6047619" />
      <circle
         r="7.3308215"
         cy="265.86487"
         cx="307.8945"
         id="path4139eg"
         style="opacity:0.28999999;fill:#ffff00;stroke:#800080;stroke-width:0.6047619" />
      <ellipse
         ry="10.996231"
         rx="3.6654108"
         cy="251.20323"
         cx="292.01105"
         id="path4141eg"
         style="opacity:0.28999999;fill:#0000ff;stroke:#800080;stroke-width:0.6047619" />
      <ellipse
         ry="3.6654108"
         rx="9.7744284"
         cy="253.64687"
         cx="317.66891"
         id="path4143eg"
         style="opacity:0.28999999;fill:#0000ff;stroke:#800080;stroke-width:0.6047619" />
    </g>
    <rect
       style="opacity:0.87000002;fill:url(#linearGradient6507);fill-opacity:1;stroke:#0000ff;stroke-width:0.6047619;stroke-miterlimit:4;stroke-dasharray:none;filter:url(#filter5001)"
       id="MedyEGbg"
       width="40.319515"
       height="23.214266"
       x="42.763119"
       y="486.60684" />
    <g
       id="g6519eg"
       inkscape:label="#MedyEG"
       transform="translate(0,53.355016)">
      <rect
         y="281.74832"
         x="59.868374"
         height="31.766891"
         width="63.533783"
         id="rect6509eg"
         style="opacity:0.87000002;fill:#0000ff;fill-opacity:1;stroke:#0000ff;stroke-width:0.6047619;stroke-miterlimit:4;stroke-dasharray:none" />
      <path
         inkscape:transform-center-y="-0.19571458"
         inkscape:transform-center-x="0.72308977"
         d="m 81.860835,300.07539 -6.160837,-1.4834 -4.714657,4.23419 -0.493011,-6.31769 -5.483865,-3.17547 5.856139,-2.42116 1.325442,-6.19674 4.112304,4.82134 6.303033,-0.65433 -3.314595,5.40091 z"
         inkscape:randomized="0"
         inkscape:rounded="0"
         inkscape:flatsided="false"
         sodipodi:arg2="1.3230568"
         sodipodi:arg1="0.69473828"
         sodipodi:r2="4.7712951"
         sodipodi:r1="9.5425901"
         sodipodi:cy="293.96637"
         sodipodi:cx="74.530014"
         sodipodi:sides="5"
         id="path6511eg"
         style="opacity:0.87000002;fill:#ff8080;fill-opacity:1;stroke:#0000ff;stroke-width:0.6047619;stroke-miterlimit:4;stroke-dasharray:none"
         sodipodi:type="star" />
      <path
         inkscape:transform-center-y="0.22428177"
         inkscape:transform-center-x="0.37755769"
         d="m 108.74051,312.2934 -1.06782,-3.99694 -3.89796,-1.38629 3.47135,-2.25068 0.1139,-4.13556 3.21323,2.60595 3.96835,-1.16963 -1.48546,3.86124 2.33867,3.41269 -4.13129,-0.21956 z"
         inkscape:randomized="0"
         inkscape:rounded="0"
         inkscape:flatsided="false"
         sodipodi:arg2="2.3965104"
         sodipodi:arg1="1.7681919"
         sodipodi:r2="3.115"
         sodipodi:r1="6.23"
         sodipodi:cy="306.18439"
         sodipodi:cx="109.96231"
         sodipodi:sides="5"
         id="path6513eg"
         style="opacity:0.87000002;fill:#ff8080;fill-opacity:1;stroke:#0000ff;stroke-width:0.6047619;stroke-miterlimit:4;stroke-dasharray:none"
         sodipodi:type="star" />
      <path
         inkscape:transform-center-y="-0.16705416"
         inkscape:transform-center-x="0.16705535"
         d="m 92.857067,295.18814 -2.173306,-0.73698 -1.839194,1.3725 0.02933,-2.29468 -1.873674,-1.32505 2.191432,-0.6812 0.6812,-2.19143 1.32505,1.87368 2.294678,-0.0293 -1.372506,1.8392 z"
         inkscape:randomized="0"
         inkscape:rounded="0"
         inkscape:flatsided="false"
         sodipodi:arg2="1.4137167"
         sodipodi:arg1="0.78539816"
         sodipodi:r2="1.727891"
         sodipodi:r1="3.4557824"
         sodipodi:cy="292.74454"
         sodipodi:cx="90.41346"
         sodipodi:sides="5"
         id="path6515eg"
         style="opacity:0.87000002;fill:#ff8080;fill-opacity:1;stroke:#0000ff;stroke-width:0.6047619;stroke-miterlimit:4;stroke-dasharray:none"
         sodipodi:type="star" />
      <path
         inkscape:transform-center-y="-0.1121867"
         inkscape:transform-center-x="-0.63956251"
         d="m 84.736419,309.55335 2.201552,-4.70569 -2.628342,-4.48131 5.155694,0.63966 3.44978,-3.8845 0.984842,5.10102 4.760422,2.08056 -4.547027,2.51294 -0.507677,5.17036 -3.79506,-3.54794 z"
         inkscape:randomized="0"
         inkscape:rounded="0"
         inkscape:flatsided="false"
         sodipodi:arg2="3.0951702"
         sodipodi:arg1="2.4668517"
         sodipodi:r2="3.9116797"
         sodipodi:r1="7.8233595"
         sodipodi:cy="304.66614"
         sodipodi:cx="90.845436"
         sodipodi:sides="5"
         id="path6517eg"
         style="opacity:0.87000002;fill:#ff8080;fill-opacity:1;stroke:#0000ff;stroke-width:0.6047619;stroke-miterlimit:4;stroke-dasharray:none"
         sodipodi:type="star" />
    </g>
    <path
       sodipodi:type="spiral"
       style="fill:#00ffff;fill-rule:evenodd;stroke:#000000;stroke-width:0.6047619px;stroke-linecap:butt;stroke-linejoin:miter;stroke-opacity:1"
       id="eaglynew2"
       sodipodi:cx="73.308212"
       sodipodi:cy="393.74982"
       sodipodi:expansion="1"
       sodipodi:revolution="3"
       sodipodi:radius="41.613129"
       sodipodi:argument="-18.147299"
       sodipodi:t0="0"
       d="m 73.308212,393.74982 c 1.592741,1.3477 -1.030876,2.81189 -2.239973,2.64724 -3.276579,-0.4462 -4.137127,-4.52375 -3.054508,-7.12719 1.936552,-4.65694 7.887895,-5.67954 12.014402,-3.46177 6.055815,3.25466 7.263028,11.296 3.869042,16.90161 -4.52365,7.4714 -14.719492,8.86373 -21.788831,4.27631 -8.896041,-5.77281 -10.473289,-18.15026 -4.683575,-26.67604 7.01212,-10.32587 21.585119,-12.08797 31.563258,-5.09085 11.758893,8.24586 13.705843,25.02253 5.49811,36.45048 -9.476152,13.19401 -28.461631,15.32586 -41.337687,5.90537 -14.630593,-10.70415 -16.947384,-31.90193 -6.312644,-46.2249 11.930572,-16.06821 35.343106,-18.56999 51.112116,-6.71991 17.506588,13.15584 20.193418,38.78494 7.127178,55.99933">
      <desc
         id="desc6528">a new test shape to play with! :)</desc>
    </path>
    <path
       d="m 205.26299,520.81738 c 1.59274,1.34771 -1.03088,2.8119 -2.23998,2.64724 -3.27658,-0.44619 -4.13713,-4.52374 -3.05451,-7.12718 1.93656,-4.65695 7.8879,-5.67955 12.01441,-3.46178 6.05581,3.25466 7.26302,11.296 3.86904,16.90162 -4.52365,7.4714 -14.71949,8.86373 -21.78883,4.27631 -8.89604,-5.77281 -10.47329,-18.15027 -4.68358,-26.67605 7.01212,-10.32586 21.58512,-12.08796 31.56326,-5.09084 11.75889,8.24586 13.70584,25.02252 5.49811,36.45047 -9.47615,13.19402 -28.46163,15.32587 -41.33769,5.90538 -14.63059,-10.70416 -16.94738,-31.90193 -6.31264,-46.2249 11.93057,-16.06821 35.3431,-18.57 51.11211,-6.71991 17.50659,13.15583 20.19342,38.78493 7.12718,55.99933"
       sodipodi:t0="0"
       sodipodi:argument="-18.147299"
       sodipodi:radius="41.613129"
       sodipodi:revolution="3"
       sodipodi:expansion="1"
       sodipodi:cy="520.81738"
       sodipodi:cx="205.26299"
       id="path6530eg"
       style="fill:#800000;fill-rule:evenodd;stroke:#000000;stroke-width:0.6047619px;stroke-linecap:butt;stroke-linejoin:miter;stroke-opacity:1"
       sodipodi:type="spiral">
      <desc
         id="desc6532">a new test shape to play with! :)</desc>
    </path>
  </g>
  <rect
     height="448"
     id="Border"
     style="fill:none;stroke:#800080;stroke-width:0.60342091"
     width="448"
     x="1"
     y="1" />
	 
	 
	 <!-- creatures from original versions! :) -->
	 
			<a style="fill-opacity:0.75" xlink:href="http://life.worldsowisdom.com/flow/"> <rect height="90" id="YellowRect" onmouseout="setAttribute('fill-opacity','0.5')" onmouseover="setAttribute('fill-opacity','1.0')" style="fill:yellow;stroke:#000000" width="90" x="150" y="90"> <desc id="desc3364">A clickable square!</desc>
			<title id="title3362"></title>
			</rect> </a> <a style="fill-opacity:0.75" xlink:href="http://life.worldsowisdom.com/flow/">
			<rect height="90" id="OrangeRect" onmouseout="setAttribute('fill-opacity','0.75')" onmouseover="setAttribute('fill-opacity','1.0')" style="fill:orange;stroke:#000000" width="90" x="60" y="300"> <desc id="desc3364">A clickable square!</desc>
			<title id="title3362"></title>
			</rect> </a>

<path xmlns="http://www.w3.org/2000/svg" sodipodi:type="spiral" xmlns:sodipodi="http://sodipodi.sourceforge.net/DTD/sodipodi-0.dtd" style="fill:#00ffff;fill-rule:evenodd;stroke:#000000;stroke-width:0.6047619px;stroke-linecap:butt;stroke-linejoin:miter;stroke-opacity:1" id="eaglynew" sodipodi:cx="73.308212" sodipodi:cy="393.74982" sodipodi:expansion="1" sodipodi:revolution="3" sodipodi:radius="41.613129" sodipodi:argument="-18.147299" sodipodi:t0="0" d="m 73.308212,393.74982 c 1.592741,1.3477 -1.030876,2.81189 -2.239973,2.64724 -3.276579,-0.4462 -4.137127,-4.52375 -3.054508,-7.12719 1.936552,-4.65694 7.887895,-5.67954 12.014402,-3.46177 6.055815,3.25466 7.263028,11.296 3.869042,16.90161 -4.52365,7.4714 -14.719492,8.86373 -21.788831,4.27631 -8.896041,-5.77281 -10.473289,-18.15026 -4.683575,-26.67604 7.01212,-10.32587 21.585119,-12.08797 31.563258,-5.09085 11.758893,8.24586 13.705843,25.02253 5.49811,36.45048 -9.476152,13.19401 -28.461631,15.32586 -41.337687,5.90537 -14.630593,-10.70415 -16.947384,-31.90193 -6.312644,-46.2249 11.930572,-16.06821 35.343106,-18.56999 51.112116,-6.71991 17.506588,13.15584 20.193418,38.78494 7.127178,55.99933" transform="translate(25, 25 )">
    <desc id="desc36">a new test shape to play with! :)</desc>
  </path><rect xmlns="http://www.w3.org/2000/svg" height="10" id="AvrilNiblet1" onmouseout="setAttribute('fill-opacity','0.5')" onmouseover="setAttribute('fill-opacity','1.0')" style="fill:yellow;stroke:black" width="10" x="225" y="225" transform="translate(25, 25 )">
    <desc id="desc71">Avril's first little niblet! :)</desc>
    <title id="title73"/>
  </rect><path xmlns="http://www.w3.org/2000/svg" fill-opacity="0.43046721000000016" onmousedown="Reverse(PurpleSpiral)" id="PurpleSpiral" d="m 282.09113,269.50729 c 1.52075,1.52076 -1.29967,2.80025 -2.52761,2.52761 -3.32763,-0.73884 -3.86257,-5.00113 -2.5276,-7.58281 2.38796,-4.61803 8.58895,-5.15902 12.63801,-2.5276 5.94217,3.86172 6.4939,12.22544 2.5276,17.69322 -5.28645,7.28768 -15.87921,7.84514 -22.74842,2.52759 -8.6442,-6.69159 -9.20486,-19.54122 -2.5276,-27.80363 8.08706,-10.00688 23.20787,-10.56947 32.85884,-2.52759 11.37333,9.47708 11.93717,26.8774 2.52759,37.91404 -10.86373,12.74223 -30.54887,13.30692 -42.96924,2.52759 -14.11282,-12.24817 -14.67812,-34.22169 -2.52759,-48.02445 13.63105,-15.4846 37.8955,-16.05034 53.07965,-2.52759 16.85728,15.01283 17.42336,41.57006 2.52759,58.13486" inkscape:tile-cx="185.6451" xmlns:inkscape="http://www.inkscape.org/namespaces/inkscape" inkscape:tile-cy="265.9547" inkscape:tile-h="68.00056" inkscape:tile-w="75.106916" inkscape:tile-x0="148.09164" inkscape:tile-y0="231.95443" sodipodi:argument="-18.064157" xmlns:sodipodi="http://sodipodi.sourceforge.net/DTD/sodipodi-0.dtd" sodipodi:cx="182.09113" sodipodi:cy="269.50729" sodipodi:expansion="1" sodipodi:radius="42.894836" sodipodi:revolution="3" sodipodi:t0="0" sodipodi:type="spiral" style="fill:#800080;fill-rule:evenodd;stroke:#000000;stroke-width:0.2081555px;stroke-linecap:butt;stroke-linejoin:miter;stroke-opacity:1" transform="translate(25, 25)"/><image xmlns="http://www.w3.org/2000/svg" id="back3" width="448" height="448" x="1" y="1" xlink:href="creatures/png/back3.png" xmlns:xlink="http://www.w3.org/1999/xlink"/><image xmlns="http://www.w3.org/2000/svg" id="galaxy3" width="294" height="150" x="150" y="100" style="opacity:0.5" onmousedown="tool(eg_newy)" xlink:href="creatures/png/galaxy3.png" xmlns:xlink="http://www.w3.org/1999/xlink" transform="translate(25, 25 )"/><image xmlns="http://www.w3.org/2000/svg" id="galaxy4" width="306" height="150" x="50" y="250" style="opacity:0.25" onmousedown="tool(eg_newy2)" xlink:href="creatures/png/galaxy4.png" xmlns:xlink="http://www.w3.org/1999/xlink" transform="translate(25, 12.5 )"/><image xmlns="http://www.w3.org/2000/svg" id="planet3" width="157" height="150" x="100" y="250" style="opacity:0.5" onmousedown="tool(eg_niblet)" xlink:href="creatures/png/planet3.png" xmlns:xlink="http://www.w3.org/1999/xlink" transform="translate(25, 0.0 )"/><image xmlns="http://www.w3.org/2000/svg" id="planet4" width="150" height="150" x="300" y="150" style="opacity:0.9" onmousedown="tool(eg_medy)" xlink:href="creatures/png/planet4.png" xmlns:xlink="http://www.w3.org/1999/xlink" transform="translate(25, 0.0 )"/><image xmlns="http://www.w3.org/2000/svg" id="satellite3" width="79" height="150" x="200" y="250" onmousedown="tool(satellite3)" xlink:href="creatures/png/satellite3.png" xmlns:xlink="http://www.w3.org/1999/xlink" transform="translate(25, 25 )"/><image xmlns="http://www.w3.org/2000/svg" id="satellite4" width="109" height="75" x="50" y="50" onmousedown="tool(satellite4)" xlink:href="creatures/png/satellite4.png" xmlns:xlink="http://www.w3.org/1999/xlink" transform="translate(25, 25 )"/><image xmlns="http://www.w3.org/2000/svg" id="mediumcreature3" width="38" height="50" x="300" y="175" onmousedown="tool(the_rect)" xlink:href="creatures/png/mediumcreature3.png" xmlns:xlink="http://www.w3.org/1999/xlink" transform="translate( 0.0 , 25 )"/><image xmlns="http://www.w3.org/2000/svg" id="niblet3" width="21" height="32" x="400" y="350" onmousedown="tool(pink_rect)" xlink:href="creatures/png/niblet3.png" xmlns:xlink="http://www.w3.org/1999/xlink" transform="translate( 0.0 , 25 )"/><image xmlns="http://www.w3.org/2000/svg" id="bigbeauty3" width="92" height="110" x="100" y="150" onmousedown="tool(eg_biggo)" xlink:href="creatures/png/bigbeauty3.png" xmlns:xlink="http://www.w3.org/1999/xlink" transform="translate(25, 0.0 )"/><g xmlns="http://www.w3.org/2000/svg" id="Creature-0.07603924247230254" style="fill:#299505;stroke:#74d3c" stroke-width="165.29584404215282" opacity="0.9987477753861316" transform="translate(347.94490109023405, 168.4240000265035) rotate(0.7304709088915452 442.691650390625 785.4583129882812)" onmousedown="tool('Creature-0.07603924247230254')" class="creatureClass"><title>Creature-0.07603924247230254</title><desc>moveLifePathCreatureEvo3("Creature-0.07603924247230254", 0.7, 1.2)</desc><path id="Creature-0.07603924247230254-part-0" d="M 87.53778509866217, 482.9881210261624 Q 179.87001565480003, 586.1300297032129 38.83384731424886, 158.5035468414358 T 93.48258988218879, 737.5864642992115, 68.92190590623855 677.973029473759, 74.81531157686824 642.594689326594, 81.22128360158938 157.87102085668533, 60.15349745768582 202.09873940699526 z" stroke-width="127.48146558441692" opacity="0.6862663249921148" class="creaturePartClass"/><path id="Creature-0.07603924247230254-part-1" d="M 45.61460500825168, 597.2602574548023 Q 127.80566573264159, 362.8014688937839 33.241256706647256, 226.83470605683286 T 78.69115608446194, 645.7246279090073, 4.511397279409389 299.5154808592557, 182.06334430630113 492.4003797880316, 165.24906339412746 416.56970734512254, 74.24553229928112 330.546826815997 z" stroke-width="139.60000790710325" opacity="0.8571549832780311" class="creaturePartClass"/><path id="Creature-0.07603924247230254-part-2" d="M 113.5026537720635, 688.5168179581303 Q 80.83495672454701, 577.8011547986379 167.21114679805052, 373.4927709442229 T 56.23060884362951, 719.5678657765982, 181.9763313468326 183.7421910723691, 70.77681813266152 454.87329997296075, 58.89678904622666 496.28056135053487, 123.01160993572242 226.542707154969 z" stroke-width="184.43347923979059" opacity="0.8875701100967229" class="creaturePartClass"/><path id="Creature-0.07603924247230254-part-3" d="M 102.59961297398281, 630.2489566583454 Q 24.948080387525934, 602.455982942856 126.09576481139912, 422.2675299083015 T 58.04482373587911, 536.4883877263319, 27.568197369398423 709.7232671300686, 79.15185683294916 634.25726524827, 90.80701683601437 174.47066957468616, 96.3061036172426 628.7139156589344 z" stroke-width="190.60272677001728" opacity="0.7498278798753871" class="creaturePartClass"/></g><g xmlns="http://www.w3.org/2000/svg" id="Creature-0.4949374650240502" style="fill:#ca1814;stroke:#8b5827" stroke-width="40.552288969928355" opacity="0.6822816782977191" transform="translate(209.46879053109225, 237.33525363571292) rotate(0.2738056146827138 223.6666717529297 734.6500244140625)" onmousedown="tool('Creature-0.4949374650240502')" class="creatureClass"><title>Creature-0.4949374650240502</title><desc>moveLifePathCreatureEvo3("Creature-0.4949374650240502", 0.7, 1.2)</desc><path id="Creature-0.4949374650240502-part-0" d="M 31.73642818944125, 315.60364472262705 Q 100.79333531262257, 508.31177395857856 106.30602913131366, 912.2067651235044 T 88.22306582970018, 1016.2267879972566, 9.031331221938983 1127.819379024612, 6.0084720944214025 827.9659564446004, 115.32698350554355 1125.8183079172904, 0.5281823306266616 891.5629090296177 z" stroke-width="174.15207253399643" opacity="0.8072783246777173" class="creaturePartClass"/><path id="Creature-0.4949374650240502-part-1" d="M 131.9407889166428, 1059.3594359705492 Q 100.07315552210136, 170.11168189089454 2.660040465497822, 988.6056228273557 T 18.884074954790783, 882.7805718080813, 72.46890581800652 1207.8304741997156, 55.208191633866164 474.3319895456614, 124.96274030975736 419.73489857174496, 67.81263134426757 1142.863287578709 z" stroke-width="172.4086280229816" opacity="0.4032098645594336" class="creaturePartClass"/><path id="Creature-0.4949374650240502-part-2" d="M 14.197279557299236, 1228.0263037502518 Q 6.66778995796264, 702.6874209399051 25.5012032555952, 185.56511902788787 T 36.29652998475744, 80.67116719587804, 64.0609992665286 1156.001859503604, 101.80661158371493 104.16156042211357, 123.07255990568166 275.3912163976991, 129.59103815996625 58.369404351442796 z" stroke-width="159.76242827299018" opacity="0.3956512290981278" class="creaturePartClass"/><path id="Creature-0.4949374650240502-part-3" d="M 84.18768798546174, 1115.7718372730756 Q 92.24191860486575, 1174.9455732252115 14.729770984765869, 1263.2537225054875 T 62.46893823797258, 549.4609588803253, 30.606030580742985 472.0664572378748, 25.970003777459176 24.597518467109374, 91.23298593520032 520.3056248885176, 74.26257111517614 1297.699427300519 z" stroke-width="172.76862395468098" opacity="0.8203440289498253" class="creaturePartClass"/></g><g xmlns="http://www.w3.org/2000/svg" id="Creature-0.826341893629313" style="fill:#652bb7;stroke:#364d7a" stroke-width="198.45370197058614" opacity="0.8166746396812521" transform="translate(215.39707036598162, 281.61887343669747) rotate(-0.29254675553366705 106.24165344238281 3216.1666259765625)" onmousedown="tool('Creature-0.826341893629313')" class="creatureClass"><title>Creature-0.826341893629313</title><desc>moveLifePathCreatureEvo3("Creature-0.826341893629313", 0.7, 1.2)</desc><path id="Creature-0.826341893629313-part-0" d="M 41.74563164192331, 953.6168950031629 Q 132.4617811573847, 2857.6882760373073 170.76108761692998, 1481.064892942454 T 168.20374680676971, 1097.9321160867923, 48.58816769568279 3175.8951960877025, 87.01578316833633 2699.3292942131548, 121.05133418733348 2112.14517149839, 152.72007775207564 868.0832899380213 z" stroke-width="114.36069801029173" opacity="0.9743908638478768" class="creaturePartClass"/><path id="Creature-0.826341893629313-part-1" d="M 145.00782564854975, 3358.882156223621 Q 53.15210091429132, 1466.545730903786 39.38806626556413, 922.3402105043257 T 177.18183601782263, 408.0869241158864, 15.581785788499577 3144.5591412764916, 11.592272190476251 3306.3876467781465, 66.33850000160562 2243.794345554181, 145.7784718872913 596.995876693096 z" stroke-width="46.58741514388618" opacity="0.8266608990323233" class="creaturePartClass"/><path id="Creature-0.826341893629313-part-2" d="M 79.10549621214886, 295.2284207323498 Q 56.804298000742556, 28.080293707984776 113.69592698991153, 1028.7906778869187 T 29.25745848344987, 606.9842742871499, 32.858480239192396 2906.7328048969284, 50.43754882425541 1658.5159096520724, 133.39634944034208 1371.8615111053746, 128.7333825787467 1571.9917457603096 z" stroke-width="90.65500427050942" opacity="0.5001694174888764" class="creaturePartClass"/><path id="Creature-0.826341893629313-part-3" d="M 87.7125368896486, 1577.4736001524202 Q 166.7217535877491, 247.5401400024854 47.299637790037124, 462.0840523213582 T 55.471611523423334, 2879.820114129826, 146.51426108514266 831.4175056287336, 142.2661341038132 3117.7657065333046, 167.68712803062868 3480.60817562858, 2.385170248395692 1796.9450609069197 z" stroke-width="60.941302604915016" opacity="0.735184010488663" class="creaturePartClass"/></g><image xmlns="http://www.w3.org/2000/svg" id="Creature-0.4679279388243205" a0:href="creatures/png/bact4.png" xmlns:a0="http://www.w3.org/1999/xlink" opacity="0.9784424281178172" transform="translate(256.2240629056013, 384.20239226922195) rotate(0.757656379054682 559.433349609375 467.26666259765625)" x="200" y="200" height="120" width="120" onmousedown="tool('Creature-0.4679279388243205')" class="creatureClass"><title>Creature-0.4679279388243205</title><desc>movePsyCreat("Creature-0.4679279388243205", 1, 1)</desc></image><image xmlns="http://www.w3.org/2000/svg" id="Creature-0.5504239421169437" a0:href="creatures/png/flower1.png" xmlns:a0="http://www.w3.org/1999/xlink" opacity="0.9983983835418795" transform="translate(242.17657071136955, 234.077651902294) rotate(0.1888456489114773 506.14998626708984 404.33333587646484)" x="200" y="200" height="120" width="120" onmousedown="tool('Creature-0.5504239421169437')" class="creatureClass"><title>Creature-0.5504239421169437</title><desc>movePsyCreat("Creature-0.5504239421169437", 1, 1)</desc></image><g xmlns="http://www.w3.org/2000/svg" id="Creature-0.42197118196845274" style="fill:#a18f5f;stroke:#8dde8" stroke-width="264.4974174511207" opacity="0.8574908585453653" transform="translate(121.87940807589396, 405.84244926403403) rotate(0.12864260499461927 218.1666717529297 2641.9835205078125)" onmousedown="tool('Creature-0.42197118196845274')" class="creatureClass"><title>Creature-0.42197118196845274</title><desc>moveLifePathCreatureEvo3("Creature-0.42197118196845274", 0.7, 1.2)</desc><path id="Creature-0.42197118196845274-part-0" d="M 0.1393176974308685, 3219.534502503097 Q 90.72239427760289, 1046.0408371251137 13.056513301197919, 1237.8125292415218 T 152.9482241553557, 3252.092639842005, 190.08988802789162 451.5152201207254, 179.36040728301555 2757.849799841913, 29.90324336434737 3017.585445160905, 167.68826619750064 3440.2522414882583 z" stroke-width="174.82381602263786" opacity="0.8956082999239334" class="creaturePartClass"/><path id="Creature-0.42197118196845274-part-1" d="M 40.87324978062279, 2855.531003367983 Q 175.01719114782176, 521.2251478481551 144.54562995413423, 236.43742822392775 T 114.74485185826428, 3417.528475332141, 135.87849602035095 3254.932862776141, 104.14257087341647 2774.133429274167, 61.47350112690204 713.6709378804267, 64.9146672719418 216.75893218477438 z" stroke-width="151.19276636368787" opacity="0.862429138703498" class="creaturePartClass"/><path id="Creature-0.42197118196845274-part-2" d="M 107.04026681565162, 3621.574786784555 Q 83.49256190717192, 1904.1925840053618 97.1071627451033, 2012.4911503782305 T 102.45674898779352, 1146.9259896402548, 0.6467896697856031 1412.4858644147173, 3.247691420554601 1902.9997685347328, 36.17915801199916 2136.2739152737404, 124.83957074682533 215.76346350141262 z" stroke-width="398.8193431383237" opacity="0.6993282940866745" class="creaturePartClass"/><path id="Creature-0.42197118196845274-part-3" d="M 85.86592203802996, 1188.5828745017734 Q 100.65513380132069, 1540.4291456406934 105.9546269033942, 564.2296590801235 T 158.8305375256928, 1464.300781718792, 118.19544613198325 1063.9033571684904, 133.3577095518228 592.2419795043172, 193.9838690039255 1344.996362315681, 142.0548056278136 3172.1543287472628 z" stroke-width="199.87282970460762" opacity="0.8213698193067707" class="creaturePartClass"/></g><g xmlns="http://www.w3.org/2000/svg" id="Creature-0.22058727723145422" style="fill:#6821c7;stroke:#e29f67" stroke-width="202.56677424452477" opacity="0.8363227156465978" transform="translate(310.8194908620152, 22.92906673633534) rotate(-0.7112064263862687 275.48333740234375 2669.80810546875)" onmousedown="tool('Creature-0.22058727723145422')" class="creatureClass"><title>Creature-0.22058727723145422</title><desc>moveLifePathCreatureEvo3("Creature-0.22058727723145422", 0.7, 1.2)</desc><path id="Creature-0.22058727723145422-part-0" d="M 219.30282435847568, 2936.3565775545976 Q 240.88058348224232, 5009.993387056876 14.22212616355238, 1444.0829176411762 T 141.5542545235334, 4893.74578160783, 186.3366428929148 2999.6769042232963, 29.88120440614131 4532.323131962818, 254.07858973222477 2025.3445951858905, 218.64841617646465 1941.6791216203264 z" stroke-width="193.37527290151598" opacity="0.9568569974522528" class="creaturePartClass"/><path id="Creature-0.22058727723145422-part-1" d="M 182.58583940896173, 957.2977125612576 Q 237.79647553877248, 265.8546488340241 110.9261081966565, 4167.866968041984 T 173.2587389422424, 1254.22695296553, 150.45767876978988 2467.866275839989, 239.89678558103887 2722.210343228651, 23.815538959485533 1163.9092202710578, 180.60190462360043 1661.5828331330858 z" stroke-width="0.9314952204872551" opacity="0.9520840265480973" class="creaturePartClass"/><path id="Creature-0.22058727723145422-part-2" d="M 13.947945415185488, 1103.814736992352 Q 110.23130383537412, 4381.555394103072 237.67031875660828, 1136.455504211895 T 61.019766242687695, 828.4998394718941, 117.39271070652639 1954.3293451803272, 225.86789816028477 4.660295141772281, 264.4312612070509 941.1479437617406, 25.360152598184293 2759.325193550375 z" stroke-width="72.56119945026343" opacity="0.6551542190327722" class="creaturePartClass"/><path id="Creature-0.22058727723145422-part-3" d="M 229.90165517416827, 352.12395258733375 Q 118.22396570416, 3684.743116432146 51.130304054141696, 1741.251652385214 T 202.07108670590824, 2011.7694543380576, 135.2620611764473 4200.200731025391, 201.24640205955583 4523.2971870413885, 20.088174907575898 361.80292463578786, 248.4057610572431 132.77835141130842 z" stroke-width="82.19837472102562" opacity="0.9853193660604085" class="creaturePartClass"/></g><g xmlns="http://www.w3.org/2000/svg" id="Creature-0.33036045022427873" style="fill:#1f6b3d;stroke:#69a371" stroke-width="72.63362734191513" opacity="0.9805650796752171" transform="translate(377.13168290174934, 73.95501372364595) rotate(0.02129445268256191 350.70001220703125 1763.39990234375)" onmousedown="tool('Creature-0.33036045022427873')" class="creatureClass"><title>Creature-0.33036045022427873</title><desc>moveLifePathCreatureEvo3("Creature-0.33036045022427873", 0.7, 1.2)</desc><path id="Creature-0.33036045022427873-part-0" d="M 14.688124755682159, 1476.5736147356968 Q 106.54450697938746, 492.8001782082844 11.332532852360847, 1637.5212039762987 T 158.37929497893484, 3310.0604796045322, 12.929521258632072 1366.2577407490182, 83.24504163583113 3677.965026061646, 51.20938538418411 2064.7915520831866, 93.38974958987467 2330.6846498684954 z" stroke-width="102.61935261641206" opacity="0.7643864978737408" class="creaturePartClass"/><path id="Creature-0.33036045022427873-part-1" d="M 100.49100925908381, 475.30372609578205 Q 98.23012300456212, 289.0350466215305 156.22740306957857, 3166.9973444399716 T 92.92578012415962, 3457.205103248957, 80.9412711600512 1094.7882448683001, 189.6358618086781 2845.0974745387584, 157.86687585853346 2607.0535244217226, 137.2293152862223 1730.64968074947 z" stroke-width="47.999927277096596" opacity="0.8899119508795841" class="creaturePartClass"/><path id="Creature-0.33036045022427873-part-2" d="M 56.73987932086965, 245.0731033609757 Q 40.82332231465343, 643.9964092515129 103.46045620426868, 1336.7458254611272 T 68.41606894127757, 1061.8445163302094, 49.52771135630903 1229.1961962250582, 52.035109971980134 804.1628802637896, 171.10683655043528 1165.9360862252572, 75.44061043077878 3.416113561928651 z" stroke-width="391.20705468555104" opacity="0.9576404852450897" class="creaturePartClass"/><path id="Creature-0.33036045022427873-part-3" d="M 100.23656145488832, 3236.22584362065 Q 184.26600250455135, 3028.1887543972784 123.61089863259998, 1732.5722796032796 T 75.95457286821556, 3439.158410276492, 208.77939740705335 1782.216977809418, 139.88025240345593 3231.735009160165, 168.76299319988217 1389.4152911474396, 50.999343140121915 1140.3323272637858 z" stroke-width="100.68053352273839" opacity="0.9934664496494828" class="creaturePartClass"/></g></svg>