<?xml version="1.0" encoding="UTF-8" standalone="no"?>
<!-- Created with LifeFLOW (http://life.worldsowisdom.com/flow/) -->

<svg
   xmlns:osb="http://www.openswatchbook.org/uri/2009/osb"
   xmlns:dc="http://purl.org/dc/elements/1.1/"
   xmlns:cc="http://creativecommons.org/ns#"
   xmlns:rdf="http://www.w3.org/1999/02/22-rdf-syntax-ns#"
   xmlns:svg="http://www.w3.org/2000/svg"
   xmlns="http://www.w3.org/2000/svg"
   xmlns:xlink="http://www.w3.org/1999/xlink"
   xmlns:sodipodi="http://sodipodi.sourceforge.net/DTD/sodipodi-0.dtd"
   xmlns:inkscape="http://www.inkscape.org/namespaces/inkscape"
   width="450"
   height="450"
   viewBox="0 0 450 450"
   id="svg2"
   version="1.1"
   inkscape:version="0.91 r13725"
   sodipodi:docname="newcreatures-plain.svg">
  <defs
     id="defs4">
    <linearGradient
       inkscape:collect="always"
       id="linearGradient6501">
      <stop
         style="stop-color:#0000ff;stop-opacity:1;"
         offset="0"
         id="stop6503" />
      <stop
         style="stop-color:#0000ff;stop-opacity:0;"
         offset="1"
         id="stop6505" />
    </linearGradient>
    <linearGradient
       id="linearGradient6455"
       osb:paint="solid">
      <stop
         style="stop-color:#0000ff;stop-opacity:1;"
         offset="0"
         id="stop6457" />
    </linearGradient>
    <filter
       inkscape:collect="always"
       style="color-interpolation-filters:sRGB"
       id="filter5001"
       x="-0.37912726"
       width="1.7582545"
       y="-0.65848422"
       height="2.3169684">
      <feGaussianBlur
         inkscape:collect="always"
         stdDeviation="6.3692616"
         id="feGaussianBlur5003" />
    </filter>
    <linearGradient
       inkscape:collect="always"
       xlink:href="#linearGradient6501"
       id="linearGradient6507"
       x1="242.51431"
       y1="178.50594"
       x2="313.40628"
       y2="178.50594"
       gradientUnits="userSpaceOnUse"
       gradientTransform="translate(-215.03742,319.7082)" />
  </defs>
  <sodipodi:namedview
     id="base"
     pagecolor="#ffffff"
     bordercolor="#666666"
     borderopacity="1.0"
     inkscape:pageopacity="0.0"
     inkscape:pageshadow="2"
     inkscape:zoom="0.24748738"
     inkscape:cx="463.57331"
     inkscape:cy="265.90363"
     inkscape:document-units="px"
     inkscape:current-layer="layer1"
     showgrid="false"
     inkscape:window-width="1366"
     inkscape:window-height="706"
     inkscape:window-x="-8"
     inkscape:window-y="-8"
     inkscape:window-maximized="1"
     units="px" />
  <metadata
     id="metadata7">
    <rdf:RDF>
      <cc:Work
         rdf:about="">
        <dc:format>image/svg+xml</dc:format>
        <dc:type
           rdf:resource="http://purl.org/dc/dcmitype/StillImage" />
        <dc:title></dc:title>
      </cc:Work>
    </rdf:RDF>
  </metadata>
  <g
     inkscape:label="Layer 1"
     inkscape:groupmode="layer"
     id="layer1"
     transform="translate(0,-364.28567)">
    <path
       sodipodi:type="star"
       style="opacity:0.28999999;fill:#00ffff;stroke:#800080"
       id="path4136eg"
       sodipodi:sides="5"
       sodipodi:cx="149.96248"
       sodipodi:cy="470.92843"
       sodipodi:r1="84.03109"
       sodipodi:r2="42.015545"
       sodipodi:arg1="0.31099828"
       sodipodi:arg2="0.93931681"
       inkscape:flatsided="false"
       inkscape:rounded="0"
       inkscape:randomized="0"
       d="m 229.96248,496.64272 -55.19656,8.19877 -24.53782,50.11762 -24.85417,-49.96149 -55.247286,-7.84966 39.835836,-39.07667 -9.60688,-54.96897 49.47407,25.81078 49.30991,-26.12303 -9.25918,55.0286 z"
       inkscape:transform-center-x="-0.082081267"
       inkscape:transform-center-y="7.9461513" />
    <path
       inkscape:transform-center-y="2.4320959"
       inkscape:transform-center-x="-0.025122895"
       d="m 68.791599,427.6385 -16.894071,2.5094 -7.510317,15.33956 -7.607143,-15.29177 -16.909598,-2.40255 12.192598,-11.96024 -2.940388,-16.82442 15.142583,7.89994 15.092337,-7.99551 -2.833967,16.84267 z"
       inkscape:randomized="0"
       inkscape:rounded="0"
       inkscape:flatsided="false"
       sodipodi:arg2="0.93931681"
       sodipodi:arg1="0.31099828"
       sodipodi:r2="12.859744"
       sodipodi:r1="25.719488"
       sodipodi:cy="419.76809"
       sodipodi:cx="44.305912"
       sodipodi:sides="5"
       id="path4138eg"
       style="opacity:0.28999999;fill:#00ffff;stroke:#800080;stroke-width:0.3060711"
       sodipodi:type="star" />
    <g
       id="BiggoEGbg"
       transform="translate(-109.96232,143.76849)">
      <desc
         id="desc4151">A big creature for LifeFLOW! :)</desc>
      <circle
         r="29.934187"
         cy="259.14496"
         cx="302.39636"
         id="path4137eg"
         style="opacity:0.28999999;fill:#ffff00;stroke:#800080;stroke-width:0.6047619" />
      <circle
         r="7.3308215"
         cy="265.86487"
         cx="307.8945"
         id="path4139eg"
         style="opacity:0.28999999;fill:#ffff00;stroke:#800080;stroke-width:0.6047619" />
      <ellipse
         ry="10.996231"
         rx="3.6654108"
         cy="251.20323"
         cx="292.01105"
         id="path4141eg"
         style="opacity:0.28999999;fill:#0000ff;stroke:#800080;stroke-width:0.6047619" />
      <ellipse
         ry="3.6654108"
         rx="9.7744284"
         cy="253.64687"
         cx="317.66891"
         id="path4143eg"
         style="opacity:0.28999999;fill:#0000ff;stroke:#800080;stroke-width:0.6047619" />
    </g>
    <rect
       style="opacity:0.87000002;fill:url(#linearGradient6507);fill-opacity:1;stroke:#0000ff;stroke-width:0.6047619;stroke-miterlimit:4;stroke-dasharray:none;filter:url(#filter5001)"
       id="MedyEGbg"
       width="40.319515"
       height="23.214266"
       x="42.763119"
       y="486.60684" />
    <g
       id="g6519eg"
       inkscape:label="#MedyEG"
       transform="translate(0,53.355016)">
      <rect
         y="281.74832"
         x="59.868374"
         height="31.766891"
         width="63.533783"
         id="rect6509eg"
         style="opacity:0.87000002;fill:#0000ff;fill-opacity:1;stroke:#0000ff;stroke-width:0.6047619;stroke-miterlimit:4;stroke-dasharray:none" />
      <path
         inkscape:transform-center-y="-0.19571458"
         inkscape:transform-center-x="0.72308977"
         d="m 81.860835,300.07539 -6.160837,-1.4834 -4.714657,4.23419 -0.493011,-6.31769 -5.483865,-3.17547 5.856139,-2.42116 1.325442,-6.19674 4.112304,4.82134 6.303033,-0.65433 -3.314595,5.40091 z"
         inkscape:randomized="0"
         inkscape:rounded="0"
         inkscape:flatsided="false"
         sodipodi:arg2="1.3230568"
         sodipodi:arg1="0.69473828"
         sodipodi:r2="4.7712951"
         sodipodi:r1="9.5425901"
         sodipodi:cy="293.96637"
         sodipodi:cx="74.530014"
         sodipodi:sides="5"
         id="path6511eg"
         style="opacity:0.87000002;fill:#ff8080;fill-opacity:1;stroke:#0000ff;stroke-width:0.6047619;stroke-miterlimit:4;stroke-dasharray:none"
         sodipodi:type="star" />
      <path
         inkscape:transform-center-y="0.22428177"
         inkscape:transform-center-x="0.37755769"
         d="m 108.74051,312.2934 -1.06782,-3.99694 -3.89796,-1.38629 3.47135,-2.25068 0.1139,-4.13556 3.21323,2.60595 3.96835,-1.16963 -1.48546,3.86124 2.33867,3.41269 -4.13129,-0.21956 z"
         inkscape:randomized="0"
         inkscape:rounded="0"
         inkscape:flatsided="false"
         sodipodi:arg2="2.3965104"
         sodipodi:arg1="1.7681919"
         sodipodi:r2="3.115"
         sodipodi:r1="6.23"
         sodipodi:cy="306.18439"
         sodipodi:cx="109.96231"
         sodipodi:sides="5"
         id="path6513eg"
         style="opacity:0.87000002;fill:#ff8080;fill-opacity:1;stroke:#0000ff;stroke-width:0.6047619;stroke-miterlimit:4;stroke-dasharray:none"
         sodipodi:type="star" />
      <path
         inkscape:transform-center-y="-0.16705416"
         inkscape:transform-center-x="0.16705535"
         d="m 92.857067,295.18814 -2.173306,-0.73698 -1.839194,1.3725 0.02933,-2.29468 -1.873674,-1.32505 2.191432,-0.6812 0.6812,-2.19143 1.32505,1.87368 2.294678,-0.0293 -1.372506,1.8392 z"
         inkscape:randomized="0"
         inkscape:rounded="0"
         inkscape:flatsided="false"
         sodipodi:arg2="1.4137167"
         sodipodi:arg1="0.78539816"
         sodipodi:r2="1.727891"
         sodipodi:r1="3.4557824"
         sodipodi:cy="292.74454"
         sodipodi:cx="90.41346"
         sodipodi:sides="5"
         id="path6515eg"
         style="opacity:0.87000002;fill:#ff8080;fill-opacity:1;stroke:#0000ff;stroke-width:0.6047619;stroke-miterlimit:4;stroke-dasharray:none"
         sodipodi:type="star" />
      <path
         inkscape:transform-center-y="-0.1121867"
         inkscape:transform-center-x="-0.63956251"
         d="m 84.736419,309.55335 2.201552,-4.70569 -2.628342,-4.48131 5.155694,0.63966 3.44978,-3.8845 0.984842,5.10102 4.760422,2.08056 -4.547027,2.51294 -0.507677,5.17036 -3.79506,-3.54794 z"
         inkscape:randomized="0"
         inkscape:rounded="0"
         inkscape:flatsided="false"
         sodipodi:arg2="3.0951702"
         sodipodi:arg1="2.4668517"
         sodipodi:r2="3.9116797"
         sodipodi:r1="7.8233595"
         sodipodi:cy="304.66614"
         sodipodi:cx="90.845436"
         sodipodi:sides="5"
         id="path6517eg"
         style="opacity:0.87000002;fill:#ff8080;fill-opacity:1;stroke:#0000ff;stroke-width:0.6047619;stroke-miterlimit:4;stroke-dasharray:none"
         sodipodi:type="star" />
    </g>
    <path
       sodipodi:type="spiral"
       style="fill:#00ffff;fill-rule:evenodd;stroke:#000000;stroke-width:0.6047619px;stroke-linecap:butt;stroke-linejoin:miter;stroke-opacity:1"
       id="eaglynew2"
       sodipodi:cx="73.308212"
       sodipodi:cy="393.74982"
       sodipodi:expansion="1"
       sodipodi:revolution="3"
       sodipodi:radius="41.613129"
       sodipodi:argument="-18.147299"
       sodipodi:t0="0"
       d="m 73.308212,393.74982 c 1.592741,1.3477 -1.030876,2.81189 -2.239973,2.64724 -3.276579,-0.4462 -4.137127,-4.52375 -3.054508,-7.12719 1.936552,-4.65694 7.887895,-5.67954 12.014402,-3.46177 6.055815,3.25466 7.263028,11.296 3.869042,16.90161 -4.52365,7.4714 -14.719492,8.86373 -21.788831,4.27631 -8.896041,-5.77281 -10.473289,-18.15026 -4.683575,-26.67604 7.01212,-10.32587 21.585119,-12.08797 31.563258,-5.09085 11.758893,8.24586 13.705843,25.02253 5.49811,36.45048 -9.476152,13.19401 -28.461631,15.32586 -41.337687,5.90537 -14.630593,-10.70415 -16.947384,-31.90193 -6.312644,-46.2249 11.930572,-16.06821 35.343106,-18.56999 51.112116,-6.71991 17.506588,13.15584 20.193418,38.78494 7.127178,55.99933">
      <desc
         id="desc6528">a new test shape to play with! :)</desc>
    </path>
    <path
       d="m 205.26299,520.81738 c 1.59274,1.34771 -1.03088,2.8119 -2.23998,2.64724 -3.27658,-0.44619 -4.13713,-4.52374 -3.05451,-7.12718 1.93656,-4.65695 7.8879,-5.67955 12.01441,-3.46178 6.05581,3.25466 7.26302,11.296 3.86904,16.90162 -4.52365,7.4714 -14.71949,8.86373 -21.78883,4.27631 -8.89604,-5.77281 -10.47329,-18.15027 -4.68358,-26.67605 7.01212,-10.32586 21.58512,-12.08796 31.56326,-5.09084 11.75889,8.24586 13.70584,25.02252 5.49811,36.45047 -9.47615,13.19402 -28.46163,15.32587 -41.33769,5.90538 -14.63059,-10.70416 -16.94738,-31.90193 -6.31264,-46.2249 11.93057,-16.06821 35.3431,-18.57 51.11211,-6.71991 17.50659,13.15583 20.19342,38.78493 7.12718,55.99933"
       sodipodi:t0="0"
       sodipodi:argument="-18.147299"
       sodipodi:radius="41.613129"
       sodipodi:revolution="3"
       sodipodi:expansion="1"
       sodipodi:cy="520.81738"
       sodipodi:cx="205.26299"
       id="path6530eg"
       style="fill:#800000;fill-rule:evenodd;stroke:#000000;stroke-width:0.6047619px;stroke-linecap:butt;stroke-linejoin:miter;stroke-opacity:1"
       sodipodi:type="spiral">
      <desc
         id="desc6532">a new test shape to play with! :)</desc>
    </path>
  </g>
  <rect
     height="448"
     id="Border"
     style="fill:none;stroke:#800080;stroke-width:0.60342091"
     width="448"
     x="1"
     y="1" />
	 
	 
	 <!-- creatures from original versions! :) -->
	 
			<a style="fill-opacity:0.75" xlink:href="http://life.worldsowisdom.com/flow/"> <rect height="90" id="YellowRect" onmouseout="setAttribute('fill-opacity','0.5')" onmouseover="setAttribute('fill-opacity','1.0')" style="fill:yellow;stroke:#000000" width="90" x="150" y="90"> <desc id="desc3364">A clickable square!</desc>
			<title id="title3362"></title>
			</rect> </a> <a style="fill-opacity:0.75" xlink:href="http://life.worldsowisdom.com/flow/">
			<rect height="90" id="OrangeRect" onmouseout="setAttribute('fill-opacity','0.75')" onmouseover="setAttribute('fill-opacity','1.0')" style="fill:orange;stroke:#000000" width="90" x="60" y="300"> <desc id="desc3364">A clickable square!</desc>
			<title id="title3362"></title>
			</rect> </a>

<path xmlns="http://www.w3.org/2000/svg" sodipodi:type="spiral" xmlns:sodipodi="http://sodipodi.sourceforge.net/DTD/sodipodi-0.dtd" style="fill:#00ffff;fill-rule:evenodd;stroke:#000000;stroke-width:0.6047619px;stroke-linecap:butt;stroke-linejoin:miter;stroke-opacity:1" id="eaglynew" sodipodi:cx="73.308212" sodipodi:cy="393.74982" sodipodi:expansion="1" sodipodi:revolution="3" sodipodi:radius="41.613129" sodipodi:argument="-18.147299" sodipodi:t0="0" d="m 73.308212,393.74982 c 1.592741,1.3477 -1.030876,2.81189 -2.239973,2.64724 -3.276579,-0.4462 -4.137127,-4.52375 -3.054508,-7.12719 1.936552,-4.65694 7.887895,-5.67954 12.014402,-3.46177 6.055815,3.25466 7.263028,11.296 3.869042,16.90161 -4.52365,7.4714 -14.719492,8.86373 -21.788831,4.27631 -8.896041,-5.77281 -10.473289,-18.15026 -4.683575,-26.67604 7.01212,-10.32587 21.585119,-12.08797 31.563258,-5.09085 11.758893,8.24586 13.705843,25.02253 5.49811,36.45048 -9.476152,13.19401 -28.461631,15.32586 -41.337687,5.90537 -14.630593,-10.70415 -16.947384,-31.90193 -6.312644,-46.2249 11.930572,-16.06821 35.343106,-18.56999 51.112116,-6.71991 17.506588,13.15584 20.193418,38.78494 7.127178,55.99933" transform="translate(25, 25 )">
    <desc id="desc36">a new test shape to play with! :)</desc>
  </path><rect xmlns="http://www.w3.org/2000/svg" height="10" id="AvrilNiblet1" onmouseout="setAttribute('fill-opacity','0.5')" onmouseover="setAttribute('fill-opacity','1.0')" style="fill:yellow;stroke:black" width="10" x="225" y="225" transform="translate(25, 25 )">
    <desc id="desc71">Avril's first little niblet! :)</desc>
    <title id="title73"/>
  </rect><path xmlns="http://www.w3.org/2000/svg" fill-opacity="0.43046721000000016" onmousedown="Reverse(PurpleSpiral)" id="PurpleSpiral" d="m 282.09113,269.50729 c 1.52075,1.52076 -1.29967,2.80025 -2.52761,2.52761 -3.32763,-0.73884 -3.86257,-5.00113 -2.5276,-7.58281 2.38796,-4.61803 8.58895,-5.15902 12.63801,-2.5276 5.94217,3.86172 6.4939,12.22544 2.5276,17.69322 -5.28645,7.28768 -15.87921,7.84514 -22.74842,2.52759 -8.6442,-6.69159 -9.20486,-19.54122 -2.5276,-27.80363 8.08706,-10.00688 23.20787,-10.56947 32.85884,-2.52759 11.37333,9.47708 11.93717,26.8774 2.52759,37.91404 -10.86373,12.74223 -30.54887,13.30692 -42.96924,2.52759 -14.11282,-12.24817 -14.67812,-34.22169 -2.52759,-48.02445 13.63105,-15.4846 37.8955,-16.05034 53.07965,-2.52759 16.85728,15.01283 17.42336,41.57006 2.52759,58.13486" inkscape:tile-cx="185.6451" xmlns:inkscape="http://www.inkscape.org/namespaces/inkscape" inkscape:tile-cy="265.9547" inkscape:tile-h="68.00056" inkscape:tile-w="75.106916" inkscape:tile-x0="148.09164" inkscape:tile-y0="231.95443" sodipodi:argument="-18.064157" xmlns:sodipodi="http://sodipodi.sourceforge.net/DTD/sodipodi-0.dtd" sodipodi:cx="182.09113" sodipodi:cy="269.50729" sodipodi:expansion="1" sodipodi:radius="42.894836" sodipodi:revolution="3" sodipodi:t0="0" sodipodi:type="spiral" style="fill:#800080;fill-rule:evenodd;stroke:#000000;stroke-width:0.2081555px;stroke-linecap:butt;stroke-linejoin:miter;stroke-opacity:1" transform="translate(25, 25)"/><image xmlns="http://www.w3.org/2000/svg" id="back3" width="448" height="448" x="1" y="1" xlink:href="creatures/png/back3.png" xmlns:xlink="http://www.w3.org/1999/xlink"/><image xmlns="http://www.w3.org/2000/svg" id="galaxy3" width="294" height="150" x="150" y="100" style="opacity:0.5" onmousedown="tool(eg_newy)" xlink:href="creatures/png/galaxy3.png" xmlns:xlink="http://www.w3.org/1999/xlink" transform="translate(25, 25 )"/><image xmlns="http://www.w3.org/2000/svg" id="galaxy4" width="306" height="150" x="50" y="250" style="opacity:0.25" onmousedown="tool(eg_newy2)" xlink:href="creatures/png/galaxy4.png" xmlns:xlink="http://www.w3.org/1999/xlink" transform="translate(25, 12.5 )"/><image xmlns="http://www.w3.org/2000/svg" id="planet3" width="157" height="150" x="100" y="250" style="opacity:0.5" onmousedown="tool(eg_niblet)" xlink:href="creatures/png/planet3.png" xmlns:xlink="http://www.w3.org/1999/xlink" transform="translate(25, 0.0 )"/><image xmlns="http://www.w3.org/2000/svg" id="planet4" width="150" height="150" x="300" y="150" style="opacity:0.9" onmousedown="tool(eg_medy)" xlink:href="creatures/png/planet4.png" xmlns:xlink="http://www.w3.org/1999/xlink" transform="translate(25, 0.0 )"/><image xmlns="http://www.w3.org/2000/svg" id="satellite3" width="79" height="150" x="200" y="250" onmousedown="tool(satellite3)" xlink:href="creatures/png/satellite3.png" xmlns:xlink="http://www.w3.org/1999/xlink" transform="translate(25, 25 )"/><image xmlns="http://www.w3.org/2000/svg" id="satellite4" width="109" height="75" x="50" y="50" onmousedown="tool(satellite4)" xlink:href="creatures/png/satellite4.png" xmlns:xlink="http://www.w3.org/1999/xlink" transform="translate(25, 25 )"/><image xmlns="http://www.w3.org/2000/svg" id="mediumcreature3" width="38" height="50" x="300" y="175" onmousedown="tool(the_rect)" xlink:href="creatures/png/mediumcreature3.png" xmlns:xlink="http://www.w3.org/1999/xlink" transform="translate( 0.0 , 25 )"/><image xmlns="http://www.w3.org/2000/svg" id="niblet3" width="21" height="32" x="400" y="350" onmousedown="tool(pink_rect)" xlink:href="creatures/png/niblet3.png" xmlns:xlink="http://www.w3.org/1999/xlink" transform="translate( 0.0 , 25 )"/><image xmlns="http://www.w3.org/2000/svg" id="bigbeauty3" width="92" height="110" x="100" y="150" onmousedown="tool(eg_biggo)" xlink:href="creatures/png/bigbeauty3.png" xmlns:xlink="http://www.w3.org/1999/xlink" transform="translate(25, 0.0 )"/><circle xmlns="http://www.w3.org/2000/svg" id="Creature-0.1409434751872224" r="20" cx="46.92243030973823" cy="334.72633689661654" style="fill:blue;stroke:purple" transform="translate(73.73017948021028, 271.4684421427096)" onmousedown="deleteCreature('Creature-0.1409434751872224')" class="creatureClass"><title>Creature-0.1409434751872224</title><desc>moveSmoothyCreature("Creature-0.1409434751872224", 1, 1)</desc></circle><image xmlns="http://www.w3.org/2000/svg" id="Creature-0.6343713025132317" a0:href="creatures/png/bact5.png" xmlns:a0="http://www.w3.org/1999/xlink" opacity="0.7811317175713001" transform="translate(-55.49078642988013, 287.88780305873973) rotate(-0.099283902037572 364.30833435058594 597.3666839599609)" x="200" y="200" height="120" width="120" onmousedown="tool('Creature-0.6343713025132317')" class="creatureClass"><title>Creature-0.6343713025132317</title><desc>movePsyCreat("Creature-0.6343713025132317", 1, 1)</desc></image><g xmlns="http://www.w3.org/2000/svg" id="Creature-0.5072962741983106" style="fill:#39b434;stroke:#63dd63" stroke-width="55.521261757265094" opacity="0.9920313690381453" transform="translate(117.02521210887194, 425.93184843493094) rotate(-0.052245641334368806 288.0416564941406 1807.408447265625)" onmousedown="tool('Creature-0.5072962741983106')" class="creatureClass"><title>Creature-0.5072962741983106</title><desc>moveLifePathCreatureEvo3("Creature-0.5072962741983106", 0.7, 1.2)</desc><path id="Creature-0.5072962741983106-part-0" d="M 138.90005901205495, 1089.0184696107588 Q 66.68312839943212, 3591.0974761712496 124.46259877766795, 654.1361662861314 T 191.09013626589774, 1353.6384957737507, 166.49155011785885 1519.6772405339516, 88.0586452337175 2679.827678984126, 71.30062455884502 2653.720358212035, 6.36980356286825 2172.708501527585 z" stroke-width="93.6221592471153" opacity="0.4393846467619356" class="creaturePartClass"/><path id="Creature-0.5072962741983106-part-1" d="M 158.4941652152874, 2031.7635862173704 Q 151.73864919248908, 1488.9694939762592 134.33657403502008, 2944.9007167458276 T 152.42409084254567, 1939.0815680485516, 198.20359095374496 863.3441303088047, 223.86291739549938 3733.022727952467, 172.72835821497858 649.2982246941002, 88.32832287416376 671.4599536675596 z" stroke-width="165.33169929820374" opacity="0.934270754534124" class="creaturePartClass"/><path id="Creature-0.5072962741983106-part-2" d="M 213.82942829794385, 1210.1675166928926 Q 175.98222955136893, 1899.7784451552882 198.9393818117002, 2276.867334334476 T 238.73089569809613, 1749.4239375573745, 120.29495699853213 1647.3115854337461, 221.52728720902817 164.60251958928856, 104.70959283642898 2129.209718672126, 180.18887311908213 1169.879933799971 z" stroke-width="140.39674966850063" opacity="0.7192552637758535" class="creaturePartClass"/><path id="Creature-0.5072962741983106-part-3" d="M 34.95613320394848, 2302.366124756403 Q 199.97305069062307, 3027.855835646681 56.934429464662934, 3413.294301331636 T 181.3707561629098, 564.459114500142, 18.800577798813183 2277.768322848799, 52.87012628196967 657.2260061961632, 27.662426799745973 1868.1077107489896, 100.33655175605438 895.376497058239 z" stroke-width="74.21713107268637" opacity="0.7162883860605185" class="creaturePartClass"/></g><g xmlns="http://www.w3.org/2000/svg" id="Creature-0.5312995029452339" style="fill:#a33506;stroke:#ae5ec0" stroke-width="172.08351487765762" opacity="0.8985375208840459" transform="translate(421.5684149528339, 264.89113710674695) rotate(0.7491016227077755 279.3083190917969 4156.7000732421875)" onmousedown="tool('Creature-0.5312995029452339')" class="creatureClass"><title>Creature-0.5312995029452339</title><desc>moveLifePathCreatureEvo3("Creature-0.5312995029452339", 0.7, 1.2)</desc><path id="Creature-0.5312995029452339-part-0" d="M 148.56347980847266, 2716.5637859282647 Q 51.428024539792816, 3194.8152512092092 35.417659839851474, 3675.9127621593993 T 17.743228904106097, 753.9719256322368, 69.94357863117988 3368.8404225575623, 99.95705537839328 3436.325599944781, 118.92393082874167 626.0280824616906, 102.65204065472614 5073.991960383168 z" stroke-width="32.56370918418179" opacity="0.846782294677478" class="creaturePartClass"/><path id="Creature-0.5312995029452339-part-1" d="M 52.98030838866573, 3620.094519577606 Q 135.3502611961511, 3865.59134823403 166.08074543019436, 5287.4529533614095 T 106.10985303345969, 388.54103667140043, 58.7403147948378 4608.7466636810395, 123.19090552687685 4590.2663577491885, 137.55603257343765 4898.3873743084205, 92.52118560474027 2732.733796973773 z" stroke-width="22.433278848998686" opacity="0.8134663419844053" class="creaturePartClass"/><path id="Creature-0.5312995029452339-part-2" d="M 47.48807842852157, 3623.8685559804844 Q 150.4298378128092, 2766.63611626801 148.94686536147978, 4046.004117963914 T 46.13567559175575, 1348.803649313811, 23.17246354832879 1391.689284433377, 140.22887928524946 688.9707163374055, 164.97858812943122 1418.9230709322253, 14.380178493995874 2096.0817369907345 z" stroke-width="234.64567235396854" opacity="0.8003744198592212" class="creaturePartClass"/><path id="Creature-0.5312995029452339-part-3" d="M 70.85575225774353, 5128.63955555696 Q 160.15795731081988, 4302.659118648175 170.65276652510536, 871.8650903812477 T 158.6089969320239, 3320.180827305815, 130.42737324885792 1997.4251484025863, 158.3744212479082 1020.1088265095731, 53.10590413024045 846.4043028769045, 40.93656474878598 3508.5032848462347 z" stroke-width="15.872580174117656" opacity="0.6105306119950239" class="creaturePartClass"/></g><g xmlns="http://www.w3.org/2000/svg" id="Creature-0.25590404631339625" style="fill:#9cbcd5;stroke:#9ad26" stroke-width="67.96587474555622" opacity="0.7886678989180387" transform="translate(213.95206380653568, 136.3264388945557) rotate(-0.6412911609145399 238 3722.558349609375)" onmousedown="tool('Creature-0.25590404631339625')" class="creatureClass"><title>Creature-0.25590404631339625</title><desc>moveLifePathCreatureEvo3("Creature-0.25590404631339625", 0.7, 1.2)</desc><path id="Creature-0.25590404631339625-part-0" d="M 36.14766578185946, 4825.7883919915075 Q 39.752781857462864, 1641.9903949659886 4.269834458643452, 2680.1602235577034 T 20.78495288649428, 1879.3297831758243, 25.063788638889974 3298.2399111109817, 26.88761170251015 1238.5525989702073, 40.025741964122055 4125.041350576613, 11.503242888754269 173.10599389916672 z" stroke-width="86.5295544870499" opacity="0.6521439290389158" class="creaturePartClass"/><path id="Creature-0.25590404631339625-part-1" d="M 2.9089743672693094, 4978.133031385682 Q 34.25179844396706, 2705.732259657921 36.669536582530796, 753.9472997263579 T 36.947739039341215, 1090.6692495216616, 13.159898025229333 2408.497376937264, 25.54171807351787 2680.341898070187, 18.497306359836706 383.9344677043156, 21.07856230222957 3549.568010413268 z" stroke-width="91.71911546312214" opacity="0.9762583516552505" class="creaturePartClass"/><path id="Creature-0.25590404631339625-part-2" d="M 45.37862814967457, 3567.079081684145 Q 45.68323999065683, 4778.942370167275 2.1804381881233126, 409.49005597298293 T 33.03812362289756, 491.2976146615691, 29.071342836876397 1804.0439257768483, 22.489893403631733 3016.2456666451476, 16.472240417712097 3339.0767639672154, 4.821415547314604 3680.2370846909885 z" stroke-width="98.18133694841094" opacity="0.8335475511612133" class="creaturePartClass"/><path id="Creature-0.25590404631339625-part-3" d="M 16.387633063365715, 1163.4976445584903 Q 15.192779298738877, 3919.584949330991 30.927074719670586, 4751.511318863222 T 29.90592999780225, 1318.1313091414404, 9.011877796185363 4569.026161382911, 6.121583946388363 4587.589181363055, 37.7484791934604 1748.562418703868, 33.23729533062494 4804.47222068044 z" stroke-width="113.59513821242544" opacity="0.6675659025437227" class="creaturePartClass"/></g><g xmlns="http://www.w3.org/2000/svg" id="Creature-0.5685583870103249" style="fill:#73fa6c;stroke:#a147b3" stroke-width="248.6888404686484" opacity="0.8896943744440513" transform="translate(40.90135416264198, 132.60117108382678) rotate(0.06295257753115276 419.441650390625 620.50830078125)" onmousedown="tool('Creature-0.5685583870103249')" class="creatureClass"><title>Creature-0.5685583870103249</title><desc>moveLifePathCreatureEvo3("Creature-0.5685583870103249", 0.7, 1.2)</desc><path id="Creature-0.5685583870103249-part-0" d="M 1.5464584999378697, 140.24787582273274 Q 18.092078162705167, 68.54903800630451 59.23562224871047, 49.03491444824741 T 7.052102478699872, 141.76820487304096, 35.297013635658544 147.75037959210218, 21.93116364109567 191.5418739420377, 41.764249361584675 56.406745763068365, 64.60656141913442 152.99203722555245 z" stroke-width="19.60147762129205" opacity="0.8673592623681757" class="creaturePartClass"/><path id="Creature-0.5685583870103249-part-1" d="M 51.25845628579512, 0.5428609118111021 Q 18.138783786940284, 51.96537403401929 63.11035608834967, 18.671894102503334 T 66.05832441828309, 218.41411900871248, 31.804503247386922 12.093315352772109, 49.66026979110236 107.97460097476936, 22.527313847338114 236.2513587802347, 18.899340241241863 174.1491661415075 z" stroke-width="38.1221938844589" opacity="0.5874929206859976" class="creaturePartClass"/><path id="Creature-0.5685583870103249-part-2" d="M 48.720750318403724, 29.767259987980207 Q 54.20265775720759, 45.67562675404352 48.5431482867482, 42.0838413688086 T 41.79305108736311, 17.99272500403794, 21.68361917200476 24.62916438594409, 6.014670800479736 31.040274246579994, 18.51967261483273 172.06768385462846, 37.56574138089294 226.07853041265957 z" stroke-width="193.44471782637632" opacity="0.5132403526420415" class="creaturePartClass"/><path id="Creature-0.5685583870103249-part-3" d="M 54.1274901382485, 154.70373816796535 Q 22.137520959660655, 12.878883685827427 52.2239462107058, 231.51755836850577 T 38.01542447784595, 235.76555835568257, 59.01133676255112 24.32116612549619, 41.93261683368975 35.13607523598757, 40.40363552488577 27.48834238061644, 31.408609414525294 218.5752783482787 z" stroke-width="12.098487522520541" opacity="0.943409742101535" class="creaturePartClass"/></g><g xmlns="http://www.w3.org/2000/svg" id="Creature-0.05047303551514004" style="fill:#2483fc;stroke:#5d0c2e" stroke-width="193.75245357201115" opacity="0.9827161705237303" transform="translate(198.24647887535087, 242.9923018376365) rotate(0.3798454039297966 197.50833129882812 371.6083984375)" onmousedown="tool('Creature-0.05047303551514004')" class="creatureClass"><title>Creature-0.05047303551514004</title><desc>moveLifePathCreatureEvo3("Creature-0.05047303551514004", 0.7, 1.2)</desc><path id="Creature-0.05047303551514004-part-0" d="M 3.1281935585713967, 42.49724223061984 Q 59.792818380027285, 290.2229644110133 63.69562861229454, 532.5401932286768 T 7.539051769166631, 547.9522193602223, 19.375785148984424 415.28667600581963, 6.870385340160971 143.05628347049904, 29.768504675802923 409.57222196318185, 97.06770230265006 119.53048546167604 z" stroke-width="103.47999836593878" opacity="0.9791392348409784" class="creaturePartClass"/><path id="Creature-0.05047303551514004-part-1" d="M 188.89023732152458, 553.2260084905826 Q 161.10039220011168, 468.8393185921077 89.09193394974125, 746.4104003480896 T 127.01948320835014, 285.33392668114635, 182.81361793462673 102.15639691386654, 171.97955664086155 140.67054846667867, 151.10131585976308 672.3504365785279, 181.3481045338932 450.45547884955835 z" stroke-width="55.5117813112626" opacity="0.43444278495615485" class="creaturePartClass"/><path id="Creature-0.05047303551514004-part-2" d="M 212.122470877788, 166.90195836866988 Q 15.226273304623637, 432.8117825705462 72.90528913940915, 701.5441143863628 T 213.5289331576862, 244.55903047452972, 140.36819742820697 769.7516277371346, 214.1231488067986 162.70741075162638, 201.00876549244336 233.47302951317337, 162.8027299603702 150.51258363980511 z" stroke-width="92.89154093008825" opacity="0.9624275827815285" class="creaturePartClass"/><path id="Creature-0.05047303551514004-part-3" d="M 13.813213683300537, 658.4880640558968 Q 113.50100621449265, 395.95103996631815 112.4548993034742, 546.5002265201445 T 157.21739467393783, 290.5736954727102, 61.41891662615355 36.46310033566296, 65.01839571653542 135.4146849215955, 50.096212993813886 81.71652095733424, 37.66733765763655 344.5261300313493 z" stroke-width="115.63127564120211" opacity="0.9509931376598447" class="creaturePartClass"/></g><g xmlns="http://www.w3.org/2000/svg" id="Creature-0.39210680183964086" style="fill:#9a1fdc;stroke:#8acd1b" stroke-width="358.6130880503899" opacity="0.7066595669080944" transform="translate(178.69092269695986, 257.0185582377298) rotate(-0.16070597039772488 293.2249755859375 2105.158203125)" onmousedown="tool('Creature-0.39210680183964086')" class="creatureClass"><title>Creature-0.39210680183964086</title><desc>moveLifePathCreatureEvo3("Creature-0.39210680183964086", 0.7, 1.2)</desc><path id="Creature-0.39210680183964086-part-0" d="M 6.162030024315349, 4371.088508167911 Q 2.6805280585154763, 3272.6930802734855 6.888226419144267, 609.6548640061939 T 4.309887772117715, 3782.9793039274527, 7.08046448938601 2099.130932745796, 4.3083242454724395 2926.721197943342, 6.75214562819903 4731.535713691524, 0.8820623041887862 1978.4465845200757 z" stroke-width="55.728930193731756" opacity="0.7239551843534053" class="creaturePartClass"/><path id="Creature-0.39210680183964086-part-1" d="M 1.8764409948069858, 724.0870653365251 Q 4.988605160745498, 1516.697506701684 2.3800722726435297, 2934.5708975146217 T 3.811927788023106, 2550.79576803822, 1.0583867822583726 2849.5913091800508, 0.14595546203172793 2266.4358599762327, 3.840095970197393 927.5691242998635, 6.5364529559195095 3432.8671566112034 z" stroke-width="36.57588710741522" opacity="0.9666901381987744" class="creaturePartClass"/><path id="Creature-0.39210680183964086-part-2" d="M 4.364846691742654, 3315.6844367502863 Q 5.364024611072174, 4603.063945130011 2.4886000440374625, 2503.760145093232 T 6.467925453973247, 3559.015138950258, 6.908348719363706 2864.8181922815443, 0.26882980124446465 4695.635557651017, 4.54072025664022 1206.1628484300982, 3.1336990896311376 9.372172584718166 z" stroke-width="392.1688814909147" opacity="0.9393860880311752" class="creaturePartClass"/><path id="Creature-0.39210680183964086-part-3" d="M 2.426745649768536, 622.699046189848 Q 0.6725375316822069, 2566.1557029917867 2.067315981279272, 1677.2181290284695 T 5.640958248304602, 3334.699313658118, 2.211151522791975 1534.6557938203946, 4.339415720225716 740.6808967893794, 4.604273054997718 4297.510787641682, 2.484429025828976 988.4329905402203 z" stroke-width="78.61866008065408" opacity="0.4813754451429325" class="creaturePartClass"/></g><g xmlns="http://www.w3.org/2000/svg" id="Creature-0.5619470687983115" style="fill:#b9cba9;stroke:#936951" stroke-width="5.2199517891624865" opacity="0.7831235181368813" transform="translate(153.93639376571235, 15.146825540740577) rotate(1.1794144117998309 156.25833129882812 129.7750015258789)" onmousedown="tool('Creature-0.5619470687983115')" class="creatureClass"><title>Creature-0.5619470687983115</title><desc>moveLifePathCreatureEvo3("Creature-0.5619470687983115", 0.7, 1.2)</desc><path id="Creature-0.5619470687983115-part-0" d="M 0.2527026472234875, 0.9790133832625076 Q 0.05076327236568209, 1.4382292336153504 0.008007299741113631, 0.06917160156946547 T 0.9785231398803601, 1.2851271379808002, 0.06686895247810856 1.2643733952336884, 0.6680481928570962 0.41712584313171175, 1.1151298599943005 1.198890693824636, 1.0779564444296403 0.3425539075694063 z" stroke-width="8.424307977182657" opacity="0.9909786040212731" class="creaturePartClass"/><path id="Creature-0.5619470687983115-part-1" d="M 0.012802890089502557, 0.31104094062660576 Q 0.28033481615304295, 0.9221254015224867 0.5091319916102178, 1.7680749819713881 T 0.4511436610679512, 0.3628319684601499, 0.4656764269566637 1.1521787051466272, 0.6718569999809806 1.600365637919993, 0.5011691049955983 1.397469299011303, 0.16877263460612504 0.9558716546278128 z" stroke-width="6.15124354563007" opacity="0.9651975466946279" class="creaturePartClass"/><path id="Creature-0.5619470687983115-part-2" d="M 0.34932320270628614, 0.3911781906799347 Q 0.9182503778229469, 0.49349430202353406 1.3171527819735405, 0.5320580174272997 T 0.34894707227568866, 0.25982501834223964, 0.43011892822280823 0.7131499260227184, 1.2435606517072557 0.6373297775765189, 0.5760287560489252 0.8186810047971375, 0.05140632969170644 0.10530889883220747 z" stroke-width="5.128770106387635" opacity="0.9198784641721551" class="creaturePartClass"/><path id="Creature-0.5619470687983115-part-3" d="M 0.41380517774535164, 0.764839144595657 Q 0.6675982370005811, 0.9060990668414634 0.659365253112572, 1.7196001101711023 T 0.45695384445446263, 1.0713973604646343, 1.0502841123581697 0.8983093916350545, 0.3740360313694951 0.2931607493343893, 0.41671092673899834 1.3557323041238767, 0.7184028066956624 1.8540076060870319 z" stroke-width="2.851936928783921" opacity="0.621284806729792" class="creaturePartClass"/></g><g xmlns="http://www.w3.org/2000/svg" id="Creature-0.6125730577011178" style="fill:#d433c0;stroke:#587841" stroke-width="5.276768908137839" opacity="0.3462414996096386" transform="translate(358.7539899321941, 162.4718651160271) rotate(0.944312650450716 374.86668395996094 268.89166259765625)" onmousedown="tool('Creature-0.6125730577011178')" class="creatureClass"><title>Creature-0.6125730577011178</title><desc>moveLifePathCreatureEvo3("Creature-0.6125730577011178", 0.7, 1.2)</desc><path id="Creature-0.6125730577011178-part-0" d="M 6.26086005208182, 4.202546771156099 Q 6.119738753498751, 9.997708542588608 2.974815344699773, 5.0286051471698014 T 4.520134032146726, 7.864134112724188, 6.012888008933171 3.751421748009117, 5.791062275639736 2.838389282933409, 2.8561271626316174 9.779031203648898, 6.383139944292945 0.6915901844397073 z" stroke-width="2.8975881828049377" opacity="0.9963322077514791" class="creaturePartClass"/><path id="Creature-0.6125730577011178-part-1" d="M 3.679528028088437, 8.183080656427418 Q 6.84446650949715, 10.024588403429298 0.4423910864595772, 0.5652661150986932 T 4.73375116253088, 3.7668691613995966, 4.238059307838839 0.44248012390966085, 1.8297803030013542 2.4696008601501007, 1.225480183114879 2.3358222644922053, 5.127437780366848 3.5082585068539864 z" stroke-width="2.2649328114656258" opacity="0.9982945085813318" class="creaturePartClass"/><path id="Creature-0.6125730577011178-part-2" d="M 2.3602926911992874, 9.920528875755679 Q 5.834100255083316, 5.626570448171787 7.316952361699716, 6.645757836340909 T 5.055736013763358, 5.319233283121782, 6.741247016470524 1.4295644916541073, 3.69443496496216 0.20301971708396693, 4.822140374660677 5.747849636793188, 0.7960392510364197 3.2645002369075216 z" stroke-width="4.901406460236853" opacity="0.5234681477610426" class="creaturePartClass"/><path id="Creature-0.6125730577011178-part-3" d="M 5.653501897899476, 10.942675847000949 Q 0.125070932088718, 3.701050946245542 3.172006341859655, 9.377593405279873 T 4.611457199520466, 10.773499040640507, 2.4854302768775964 9.787201362284174, 6.96894218064913 10.547111617719029, 4.852037123576619 11.03177912573952, 2.3589288772397743 2.739509775733061 z" stroke-width="2.105214622111692" opacity="0.7887687052460881" class="creaturePartClass"/></g><g xmlns="http://www.w3.org/2000/svg" id="Creature-0.7931660302347316" style="fill:#f0e1db;stroke:#961b12" stroke-width="57.80377429640983" opacity="0.9752397779425925" transform="translate(197.55185751289596, 421.0253682763737) rotate(0.21211224418856345 215.21665954589844 313.3666687011719)" onmousedown="tool('Creature-0.7931660302347316')" class="creatureClass"><title>Creature-0.7931660302347316</title><desc>moveLifePathCreatureEvo3("Creature-0.7931660302347316", 0.7, 1.2)</desc><path id="Creature-0.7931660302347316-part-0" d="M 1.113253602613862, 12.766052873927812 Q 1.6434231983553236, 26.80594168046279 0.3783610652588677, 24.370891586051226 T 1.4417528351405988, 39.865173367806364, 0.21760562549550858 18.318413486134748, 1.6859481204847826 0.7488632315894197, 1.683671951579381 33.54174909988308, 0.33451979163974427 40.18213064965836 z" stroke-width="1.6031929349589145" opacity="0.5930431281705318" class="creaturePartClass"/><path id="Creature-0.7931660302347316-part-1" d="M 0.5208206705584699, 26.696772941782314 Q 0.14968040653959236, 13.66978501738754 0.7445069259088809, 21.871329766108783 T 1.2776897255645103, 13.21180035288995, 1.9641061510910658 32.50430298822842, 1.1667865035191718 46.276944670492405, 0.3826973313787623 40.91642406689831, 0.21503967041939512 18.663816959402215 z" stroke-width="34.84291410828445" opacity="0.6799118129858276" class="creaturePartClass"/><path id="Creature-0.7931660302347316-part-2" d="M 0.37600268267390036, 35.90801940691724 Q 0.6849143819602048, 40.74777082294885 1.5648214200160835, 45.82194828856647 T 0.9375598060873189, 4.513453958517806, 0.5908670732228584 17.830798181852288, 0.5435773138349573 28.720244702989085, 0.9616806516060689 33.781848806868126, 0.5117943506326219 10.390668029031486 z" stroke-width="75.4623803035028" opacity="0.8808266618504286" class="creaturePartClass"/><path id="Creature-0.7931660302347316-part-3" d="M 1.4114039790295438, 40.30188212766652 Q 0.33368553020960984, 5.883011731188377 1.257503641658839, 37.37297305086642 T 0.12096842907730533, 23.170112891582228, 0.4944347870177687 13.38706530950752, 0.6191583619276219 24.315616738838987, 1.2599159264121045 6.795267462701043, 0.7817868687316432 9.742664480149799 z" stroke-width="31.330361978775063" opacity="0.7160166175450715" class="creaturePartClass"/></g><g xmlns="http://www.w3.org/2000/svg" id="Creature-0.2692715478491906" style="fill:#d6aef8;stroke:#aa96a2" stroke-width="53.835585676352224" opacity="0.9803860982792271" transform="translate(207.65347086720243, 165.72621906393675) rotate(0.235451299145138 220.00833129882812 269.7166748046875)" onmousedown="tool('Creature-0.2692715478491906')" class="creatureClass"><title>Creature-0.2692715478491906</title><desc>moveLifePathCreatureEvo3("Creature-0.2692715478491906", 0.7, 1.2)</desc><path id="Creature-0.2692715478491906-part-0" d="M 1.237063595571113, 21.0127947041214 Q 0.7315906678464233, 5.007134400341046 2.593760249795567, 1.8466470103901942 T 1.2426095290289676, 18.37418572454624, 2.885089642143971 12.8133175780719, 1.045567713233637 13.585878021092407, 1.353257209009449 17.410550615845686, 1.0234789715669061 5.291844958110105 z" stroke-width="53.13390721680632" opacity="0.8779376986133922" class="creaturePartClass"/><path id="Creature-0.2692715478491906-part-1" d="M 2.6984344801564992, 13.54821233382876 Q 2.179062633746744, 11.735172005186401 1.2389730217079538, 20.189359063317614 T 1.6864238235474551, 1.2105343860587725, 2.9080789788279966 8.06580815674761, 2.5366726363298726 15.74618928354584, 3.100008774325479 3.9643248363875454, 3.2735849160909867 19.499004611254776 z" stroke-width="0.24167356611295726" opacity="0.9716987102100486" class="creaturePartClass"/><path id="Creature-0.2692715478491906-part-2" d="M 1.0594958079635939, 4.7402752733035465 Q 2.776462013629075, 2.942525283507647 2.8152731357612275, 13.259683435438044 T 2.059729430918599, 4.140647215626858, 2.2971028636411535 6.889280340229264, 2.3495324362839067 9.020823659743323, 1.916822412326372 7.365881842348223, 0.1059708113928236 3.994826514458137 z" stroke-width="80.87093965849508" opacity="0.5031395482288652" class="creaturePartClass"/><path id="Creature-0.2692715478491906-part-3" d="M 3.1712364415317915, 3.171109199458514 Q 0.9182566369240949, 20.363537572041338 1.9191157121568096, 20.663788452257545 T 2.410936852600664, 8.200284232342026, 0.1878601354173227 3.6965181843576627, 0.991369334950636 20.747120348427927, 0.5170670425794618 1.438944436349778, 0.2689518327038526 15.31898884324325 z" stroke-width="10.304325008813473" opacity="0.7533812499657179" class="creaturePartClass"/></g><g xmlns="http://www.w3.org/2000/svg" id="Creature-0.15134964927550487" style="fill:#af65e0;stroke:#5f9fee" stroke-width="8.446341332984279" opacity="0.9740490539443856" transform="translate(340.85922661849366, 158.0126152878339) rotate(-0.08173556392651256 352.59168243408203 275.20833587646484)" onmousedown="tool('Creature-0.15134964927550487')" class="creatureClass"><title>Creature-0.15134964927550487</title><desc>moveLifePathCreatureEvo3("Creature-0.15134964927550487", 0.7, 1.2)</desc><path id="Creature-0.15134964927550487-part-0" d="M 4.95109247241888, 11.343289718005392 Q 5.70953166690948, 15.074080851445137 5.7088040765197325, 13.512422213739836 T 0.8705601417916279, 13.303688976831536, 3.5938414873081017 14.893149960753306, 0.0561077262673169 10.94839590133047, 0.6631614122055912 19.6798555226553, 1.0093669250719355 18.52454886371767 z" stroke-width="20.021966717858696" opacity="0.9305464121824608" class="creaturePartClass"/><path id="Creature-0.15134964927550487-part-1" d="M 3.4211234839097227, 17.136790617072624 Q 5.082742589051109, 0.4798669840867002 4.212820025376579, 15.918970550741118 T 0.5372590899093498, 17.842925998596744, 4.213789550038206 17.20739451665325, 0.17535518432239222 16.861759640793302, 3.6566506531674428 15.754700274356129, 9.474992478004019 16.91222707611486 z" stroke-width="5.07194166835405" opacity="0.869535774896272" class="creaturePartClass"/><path id="Creature-0.15134964927550487-part-2" d="M 8.898277772554819, 9.129540434488204 Q 7.475867009401375, 10.669788597783672 1.0711393360981323, 6.335658508161988 T 0.11482742871922354, 12.011737489477936, 11.693524465867828 6.215260001346258, 5.419895812196746 10.866268048091653, 9.015299262482719 18.413216135301663, 1.1321220900093407 15.062618273775497 z" stroke-width="26.45448375857747" opacity="0.9385882369916776" class="creaturePartClass"/><path id="Creature-0.15134964927550487-part-3" d="M 8.51398929907283, 18.510897013883046 Q 1.0876546629174986, 16.92134092702829 9.881963207012886, 8.78208276330629 T 6.215012485571771, 1.8043804570958124, 3.643776315472498 6.9926180505177316, 8.404867298276764 7.186416346504365, 10.715243816331895 5.8726414933259425, 1.3733928234032453 14.698220180573523 z" stroke-width="3.910487992633784" opacity="0.7049045845431011" class="creaturePartClass"/></g><g xmlns="http://www.w3.org/2000/svg" id="Creature-0.08575158258607962" style="fill:#8b6704;stroke:#3efdd0" stroke-width="0.2773830048157293" opacity="0.7661696944515538" transform="translate(440.8232732703934, 432.42078767911437) rotate(0.13145801246731037 523.1083145141602 17.724998474121094)" onmousedown="tool('Creature-0.08575158258607962')" class="creatureClass"><title>Creature-0.08575158258607962</title><desc>moveLifePathCreatureEvo3("Creature-0.08575158258607962", 0.7, 1.2)</desc><path id="Creature-0.08575158258607962-part-0" d="M 19.52574733255611, 0.2616102461989946 Q 7.458993709229667, 0.9083057751287594 10.878248630709821, 0.5671560458999934 T 11.832485740566423, 0.7008659918810229, 0.9955793632119863 0.20487367366121298, 11.588780971844832 0.6824064140469909, 11.496498253058425 0.4094424850880133, 20.301366824851176 0.616635658524941 z" stroke-width="0.03214629305859032" opacity="0.7844874289013604" class="creaturePartClass"/><path id="Creature-0.08575158258607962-part-1" d="M 15.728458571561566, 0.4721228335873806 Q 5.605080182342769, 0.14072974971789784 2.9119759446015157, 1.1053497063122635 T 5.836504882332408, 0.26476119583046465, 2.9966483152097 0.4283698513934823, 20.291756893309238 1.0628535989414858, 24.129052616218367 0.19822972519633622, 14.642900192095466 0.6107139611662826 z" stroke-width="0.4698101181875094" opacity="0.8285839088786242" class="creaturePartClass"/><path id="Creature-0.08575158258607962-part-2" d="M 20.027793893649, 0.4928310237059852 Q 5.945881733478883, 0.6257273896801044 26.48921010036267, 0.8518069323593789 T 6.936157968473408, 0.534143824613036, 22.596206534766615 0.021094755562167992, 9.88537677369211 0.6096796059350554, 7.716092134507943 0.638766449584817, 11.736262455484736 0.4002310067525979 z" stroke-width="0.9670676738017028" opacity="0.9061379380256879" class="creaturePartClass"/><path id="Creature-0.08575158258607962-part-3" d="M 24.590410791430738, 0.18537672547373146 Q 12.309981381483611, 0.6073465989108406 24.729820568259637, 0.07140374949563755 T 20.646183181196164, 1.0928016384563335, 18.92977038132529 1.148616715625914, 19.958685688137162 1.0529715917456777, 14.640216481354964 0.0824727699309915, 23.795152753639407 0.08171886581811048 z" stroke-width="0.3320203224407003" opacity="0.7109294220161573" class="creaturePartClass"/></g><g xmlns="http://www.w3.org/2000/svg" id="Creature-0.12382828127843071" style="fill:#de4de3;stroke:#b3863b" stroke-width="10.507366249685898" opacity="0.760376569121954" transform="translate(155.65751495353243, 24.493411999849354) rotate(0.54535554950065 170.5583267211914 120.5)" onmousedown="tool('Creature-0.12382828127843071')" class="creatureClass"><title>Creature-0.12382828127843071</title><desc>moveLifePathCreatureEvo3("Creature-0.12382828127843071", 0.7, 1.2)</desc><path id="Creature-0.12382828127843071-part-0" d="M 0.6600489513853686, 3.8994510139224516 Q 0.7753048850350621, 3.561661069895265 3.722229935474929, 2.9362604897818247 T 3.563025486451544, 1.2244040915576455, 4.890731619727566 2.782257204672041, 2.741187927917897 1.6692664919705662, 4.5965580278245275 3.0470255193455387, 0.29282881793425586 0.9434490837234081 z" stroke-width="2.1701184597505097" opacity="0.9060503049467903" class="creaturePartClass"/><path id="Creature-0.12382828127843071-part-1" d="M 2.5635384475945804, 2.1756864468482493 Q 3.5939764229928626, 1.7277766291707182 0.7861199699358499, 1.8471921135048393 T 1.472749259476148, 3.4632374026987454, 2.248234389766949 1.0317829598101003, 2.795976257509301 2.837302017918332, 4.191384294784993 3.870222765369199, 2.7781653916625366 1.829098560418234 z" stroke-width="1.5135129699616463" opacity="0.8305411270028866" class="creaturePartClass"/><path id="Creature-0.12382828127843071-part-2" d="M 4.644183585282767, 3.0636372180991915 Q 1.4933884333723602, 3.5033561634141632 1.4903827635592495, 2.2395983367884233 T 1.8709126527638564, 2.115366915539095, 4.225036006636747 2.8310946595929978, 3.830653816315532 1.197644334743321, 2.867738571495733 0.6877244165748757, 0.34686554273403797 2.385593984372797 z" stroke-width="13.35140958901274" opacity="0.7678182028324816" class="creaturePartClass"/><path id="Creature-0.12382828127843071-part-3" d="M 3.7178531566523456, 3.062201504961766 Q 0.2605486176579568, 4.251642489782291 1.7320183167687975, 1.974086948815067 T 4.373149906438546, 1.43865076862333, 0.25903399360722495 2.455815021273949, 0.7426116514779489 1.2987528072872003, 0.4874019069917166 2.5326538023250524, 3.9813350556671105 2.7418832821218975 z" stroke-width="6.746412983802277" opacity="0.7760100396821209" class="creaturePartClass"/></g><g xmlns="http://www.w3.org/2000/svg" id="Creature-0.18152244232623727" style="fill:#70b53e;stroke:#32d542" stroke-width="0.16295826984926462" opacity="0.8636875039507195" transform="translate(255.989280880555, 105.04571854086203) rotate(-0.18459364321078103 268.7999954223633 201.04166412353516)" onmousedown="tool('Creature-0.18152244232623727')" class="creatureClass"><title>Creature-0.18152244232623727</title><desc>moveLifePathCreatureEvo3("Creature-0.18152244232623727", 0.7, 1.2)</desc><path id="Creature-0.18152244232623727-part-0" d="M 9.319240102218307, 0.13293615473711204 Q 0.2792919096229183, 0.17184904780352653 1.4470492523093483, 0.1802056466381124 T 5.7708636303513705, 0.18569436117251267, 11.931735580896364 0.00016048245534071371, 3.4453030857111377 0.03228650103796149, 1.9102428091437105 0.00178108909159843, 13.108804127259807 0.13822386849565257 z" stroke-width="0.3447675837358012" opacity="0.7288450020295375" class="creaturePartClass"/><path id="Creature-0.18152244232623727-part-1" d="M 7.841636922599672, 0.1455788121325178 Q 13.771602308453584, 0.16510788260100626 1.6606798088627779, 0.07880627994686842 T 13.76665659598187, 0.0831262066841397, 2.692094776156341 0.06118705363314277, 0.6205786780926491 0.16368126135220698, 1.5814058769088826 0.12316928484770931, 3.6814978476665385 0.016626607973727316 z" stroke-width="0.3940404799467467" opacity="0.8397279104024663" class="creaturePartClass"/><path id="Creature-0.18152244232623727-part-2" d="M 2.1940811937398768, 0.1321642396242798 Q 2.3210152291069326, 0.1087941974057943 10.0588617081817, 0.039198974696893374 T 5.1653226508853995, 0.051712059414123906, 4.6319077462792 0.027103062783611045, 10.281188390645578 0.09642863040735118, 11.70271513189424 0.12623100459608796, 8.23435836473345 0.020531059949542522 z" stroke-width="0.853802228681849" opacity="0.8996378183008585" class="creaturePartClass"/><path id="Creature-0.18152244232623727-part-3" d="M 7.199558835424241, 0.06313211312947144 Q 10.463977635578628, 0.11875816556046957 12.119280452978574, 0.08416515088218006 T 8.880200734900601, 0.008451971822600678, 0.04108595637090493 0.06547364506774954, 2.0689691197525004 0.13655343563908398, 4.524261850136701 0.1319849689331717, 6.212520047956748 0.0035491502292928547 z" stroke-width="0.5507392727653379" opacity="0.8790987609706001" class="creaturePartClass"/></g><g xmlns="http://www.w3.org/2000/svg" id="Creature-0.36757386254543645" style="fill:#701c59;stroke:#9d385f" stroke-width="15.688553177798907" opacity="0.6253238355604861" transform="translate(323.46695457236285, 145.02124527780705) rotate(0.157534599116571 338.34166717529297 237.54999542236328)" onmousedown="tool('Creature-0.36757386254543645')" class="creatureClass"><title>Creature-0.36757386254543645</title><desc>moveLifePathCreatureEvo3("Creature-0.36757386254543645", 0.7, 1.2)</desc><path id="Creature-0.36757386254543645-part-0" d="M 0.9494967766767508, 0.01458343017676081 Q 0.5083977849863336, 0.002652755008614157 0.6651199188301854, 0.01682336314512569 T 0.9993213661163761, 0.008666875184434082, 1.2215158278218987 0.011295181671447626, 0.05130299538820558 0.021385522844183772, 0.6744279602930223 0.030046958417589992, 0.021929227653367966 0.02731913893100372 z" stroke-width="8.464214807260939" opacity="0.8070763044425082" class="creaturePartClass"/><path id="Creature-0.36757386254543645-part-1" d="M 0.7722540872202734, 0.027806229339742323 Q 0.3826311922895363, 0.0009070803229861868 0.5912963623147108, 0.019744798738600734 T 0.42919697794597045, 0.017381058080351713, 0.9142956597875286 0.01591101731734099, 0.6464896006429799 0.020388350764868272, 1.2198182632730745 0.0029171399726086564, 0.5864415197604228 0.016629322142103345 z" stroke-width="4.531433725893146" opacity="0.8939736449522081" class="creaturePartClass"/><path id="Creature-0.36757386254543645-part-2" d="M 0.8326440518909984, 0.0248935403420053 Q 1.347510062550869, 0.007872407884535821 0.2981812735402184, 0.004254934779058943 T 0.7766853962346832, 0.022727283523333676, 1.1304515637162036 0.012987773796188262, 0.21286383595580188 0.030486901086343027, 0.980792022547036 0.01848360891862943, 0.4660986273237817 0.026938615806102285 z" stroke-width="18.7915241331431" opacity="0.7078656488753541" class="creaturePartClass"/><path id="Creature-0.36757386254543645-part-3" d="M 0.037450239583179924, 0.019840886648214665 Q 0.2768388508675863, 0.028538165983326667 1.23122796375656, 0.00284835036760979 T 0.8101223807157754, 0.02892973547637001, 0.3705463363028938 0.022243188663766626, 0.9670710908035802 0.031142311372116302, 1.129132853981128 0.009005662946060098, 0.3751273866008883 0.016789283933223893 z" stroke-width="0.06457847763841175" opacity="0.6232759199576514" class="creaturePartClass"/></g><g xmlns="http://www.w3.org/2000/svg" id="Creature-0.29031591512971566" style="fill:#d1b53e;stroke:#9d5e7" stroke-width="0.2791129310330754" opacity="0.7867655469790256" transform="translate(24.086382988226394, -0.07428350643975035) rotate(120.79251661860643 42.741661071777344 96.9749984741211)" onmousedown="tool('Creature-0.29031591512971566')" class="creatureClass"><title>Creature-0.29031591512971566</title><desc>moveLifePathCreatureEvo3("Creature-0.29031591512971566", 0.7, 1.2)</desc><path id="Creature-0.29031591512971566-part-0" d="M 1.2383351423327766, 1.2519097861437873 Q 1.1122661131295974, 0.9283238555893416 0.2729211189537503, 0.7955380420982613 T 1.0910820424704406, 0.1256480708592788, 0.8019194323609656 0.36103437882163963, 1.0947156391493462 0.9882444705387045, 0.02706060871432291 1.1353123269227692, 0.832303872541596 1.0102900621483037 z" stroke-width="3.720426957843484" opacity="0.6009652055909374" class="creaturePartClass"/><path id="Creature-0.29031591512971566-part-1" d="M 0.6145916237060112, 0.5977886100253501 Q 0.7312721974594389, 0.36190647873764953 0.03879748651747783, 0.3198818712061418 T 0.6400653320052484, 0.9087798760618357, 0.16148882923390132 0.22400380913992504, 0.6671352881536766 0.38333475377009, 0.42231901365411895 0.1996219321749236, 1.3468763068954974 0.3737374443428559 z" stroke-width="2.4576159375008735" opacity="0.9141988278993658" class="creaturePartClass"/><path id="Creature-0.29031591512971566-part-2" d="M 0.437230186229242, 0.27677479654551823 Q 0.44673121529996557, 0.6013728064729803 0.7079477799534388, 1.1937183983812032 T 0.08148634494144029, 0.16263677095276038, 1.3921779024367622 0.0311094813216136, 0.39547679703551664 1.4288015773312976, 1.3461764791906143 1.5502629585254704, 0.7175164784207491 0.9381448164951175 z" stroke-width="0.046818763297869215" opacity="0.9500997641008289" class="creaturePartClass"/><path id="Creature-0.29031591512971566-part-3" d="M 1.1807648161895157, 1.1091886667606787 Q 0.2539597090845473, 1.526422662758591 1.402187484809758, 1.2594578343867677 T 1.0427826861960576, 1.1431205928395858, 0.06557159686280023 0.37237220731619325, 1.0875315460044772 0.9991561436898181, 0.7555907989321502 0.8787203466506678, 0.5507289728347949 0.1582387300658331 z" stroke-width="0.8417437879514751" opacity="0.5709336879555434" class="creaturePartClass"/></g><g xmlns="http://www.w3.org/2000/svg" id="Creature-0.8209138298838817" style="fill:#a21771;stroke:#5f1879" stroke-width="-0.8672109190068473" opacity="0.9834027260840944" transform="translate(320.5823286095918, 86.96212671081061) rotate(0.819196721096733 467.8416442871094 -253.8416748046875)" onmousedown="tool('Creature-0.8209138298838817')" class="creatureClass"><title>Creature-0.8209138298838817</title><desc>moveLifePathCreatureEvo3("Creature-0.8209138298838817", 0.7, 1.2)</desc><path id="Creature-0.8209138298838817-part-0" d="M 543.4726175268603, -553.4741420148982 Q 133.27894223512845, -57.20969928808364 521.7544171501335, -367.3050204829019 T 79.89410606567132, -159.45216553326637, 206.69905340463455 -547.1178644593338, 294.33473231078324 -334.6727830229141, 268.3697790892562 -458.8092675917548, 148.5271165667021 -167.90392940100662 z" stroke-width="-0.3591318722934372" opacity="0.8221657342772721" class="creaturePartClass"/><path id="Creature-0.8209138298838817-part-1" d="M 514.0754495792108, -344.1843904834062 Q 583.272875198514, -16.401671126255522 338.4293567755577, -585.445594727279 T 534.495553948136, -280.3624008261536, 104.05524599237447 -83.33417362435327, 423.4278230576114 -259.3089522404777, 143.40129041739263 -183.0391003785575, 456.37295124637325 -450.7229783660402 z" stroke-width="-2.0694253624949464" opacity="0.8347638583111606" class="creaturePartClass"/><path id="Creature-0.8209138298838817-part-2" d="M 513.2315103598656, -396.3505555433636 Q 557.5515719660161, -607.0496300693658 499.1037843452954, -100.03457744741895 T 313.9863960307163, -234.30467866646416, 136.78582605424555 -623.7548376946671, 278.6980171548159 -590.4146976869058, 427.4377224435524 -602.8769196213614, 283.15211496079615 -381.0492364246504 z" stroke-width="-2.373223456285117" opacity="0.7129072792099639" class="creaturePartClass"/><path id="Creature-0.8209138298838817-part-3" d="M 571.3462455607705, -275.4926872543386 Q 337.70032838529096, -161.88407691326694 168.88781641562576, -45.22241969103336 T 134.79522117821912, -307.53288871312526, 318.69986814793515 -365.7334042328596, 355.3180721812046 -408.2888015585012, 19.92850759951163 -106.66120650947755, 54.91541524772826 -198.2591030975399 z" stroke-width="-1.754578454586057" opacity="0.9994199542692632" class="creaturePartClass"/></g><g xmlns="http://www.w3.org/2000/svg" id="Creature-0.7874764492601428" style="fill:#124b9f;stroke:#4419a7" stroke-width="-32.33868601160337" opacity="0.8011329374968298" transform="translate(422.5914609308719, 368.44516833462745) rotate(-0.41950015280299485 510.8333435058594 -676.39990234375)" onmousedown="tool('Creature-0.7874764492601428')" class="creatureClass"><title>Creature-0.7874764492601428</title><desc>moveLifePathCreatureEvo3("Creature-0.7874764492601428", 0.7, 1.2)</desc><path id="Creature-0.7874764492601428-part-0" d="M 256.1267853306596, -551.3287683711472 Q 205.67719207380046, -1306.983611026055 171.4233015603334, -652.2066110718987 T 80.49948753646007, -348.50972597159824, 72.53606267932439 -324.2661374060612, 138.06066164815522 -438.1666473242559, 107.68023069953199 -34.47460360220638, 279.13340943129947 -617.8698799415397 z" stroke-width="-7.810387960280372" opacity="0.5462796465927192" class="creaturePartClass"/><path id="Creature-0.7874764492601428-part-1" d="M 141.42411864481608, -1194.9681086436403 Q 87.37238350061965, -1233.6757596386367 307.00162776719156, -1058.3525133793632 T 132.94102637591948, -730.366457744764, 21.260399887044446 -523.8976090589898, 254.83010440199718 -286.8471596568175, 300.1329096523118 -379.39301974392447, 222.16040387588558 -861.2470376754839 z" stroke-width="-13.474323447543755" opacity="0.7669525232990806" class="creaturePartClass"/><path id="Creature-0.7874764492601428-part-2" d="M 263.83097841493304, -145.9387657860689 Q 122.7554710045772, -278.8919486726006 20.49973813666692, -1267.6593114589514 T 27.480519832264964, -346.168878801683, 58.053658466717714 -1295.1420647083728, 196.22462371699007 -640.5664491441361, 287.52368574268723 -1344.6268676726152, 263.60557209209173 -710.0216671112769 z" stroke-width="-13.262576269032953" opacity="0.9764783927128212" class="creaturePartClass"/><path id="Creature-0.7874764492601428-part-3" d="M 104.68007298918933, -1297.3803203885407 Q 148.73467892438396, -1008.2496169043263 144.61858505635772, -592.2641304708645 T 63.0497667357708, -1399.199847433252, 150.81754428687242 -937.261718611236, 271.83088550016964 -319.1656653641207, 161.47963990081507 -466.8440252429182, 69.75116758069333 -674.323290921535 z" stroke-width="-5.151902756128201" opacity="0.9389637102112611" class="creaturePartClass"/></g><g xmlns="http://www.w3.org/2000/svg" id="Creature-0.8615601184395745" style="fill:#5d03ef;stroke:#591d4d" stroke-width="-8.048988648834499" opacity="0.9410274910628194" transform="translate(88.36506496437818, 392.9082662937599) rotate(-0.019910241272824897 239.4250030517578 -549.0750122070312)" onmousedown="tool('Creature-0.8615601184395745')" class="creatureClass"><title>Creature-0.8615601184395745</title><desc>moveLifePathCreatureEvo3("Creature-0.8615601184395745", 0.7, 1.2)</desc><path id="Creature-0.8615601184395745-part-0" d="M 231.07820874119437, -113.44057217828353 Q 180.9695516288211, -334.0554414754642 104.84560945393264, -285.1903658273836 T 66.59124080285807, -403.6349175077245, 34.566267255780375 -875.6426733612699, 38.90276304760572 -1016.1809276567367, 155.30222519805054 -1040.3566800287072, 115.12806496829467 -266.34531272493257 z" stroke-width="-0.7778596944838098" opacity="0.7120675482778319" class="creaturePartClass"/><path id="Creature-0.8615601184395745-part-1" d="M 154.07631336987262, -239.63953323965606 Q 172.326730581594, -847.4344903802763 138.7940101801425, -479.1578658826446 T 216.80995351674972, -769.755075162171, 177.97182766616646 -573.7445281740183, 46.667801288572015 -1047.679660126803, 61.4955940640053 -1020.9153027486943, 60.85010551171629 -837.2003458448262 z" stroke-width="-2.09768718924174" opacity="0.9225910266410718" class="creaturePartClass"/><path id="Creature-0.8615601184395745-part-2" d="M 34.119753764941414, -157.42035787180905 Q 120.03877672985057, -1038.4801845297554 145.48326327121458, -695.1016711772418 T 26.52336298743268, -710.3028988653956, 60.71044862667444 -491.6270919042498, 156.79172265888846 -107.11050026076862, 28.27657474120686 -933.8302455505928, 234.91433065905576 -928.2045152929624 z" stroke-width="-7.576595352036383" opacity="0.8250524210171071" class="creaturePartClass"/><path id="Creature-0.8615601184395745-part-3" d="M 45.32558377497816, -444.7320369569821 Q 5.61809219516135, -629.495818541889 236.32225123353552, -98.67356856125402 T 147.42469252487166, -232.38658261502277, 19.64575767932691 -607.608510172339, 165.34987141542723 -524.2621332104159, 207.483413466164 -613.5698176809942, 127.10932238416578 -863.5685659773951 z" stroke-width="-6.932852616501565" opacity="0.8578340239624681" class="creaturePartClass"/></g><g xmlns="http://www.w3.org/2000/svg" id="Creature-0.7257957492216446" style="fill:#330e00;stroke:#93fb1c" stroke-width="1.1202662080216388" opacity="0.4762118511534289" transform="translate(69.39475240990248, 1.519434050907737) rotate(15.047517457510121 74.79166412353516 107.83332824707031)" onmousedown="tool('Creature-0.7257957492216446')" class="creatureClass"><title>Creature-0.7257957492216446</title><desc>moveLifePathCreatureEvo3("Creature-0.7257957492216446", 0.7, 1.2)</desc><path id="Creature-0.7257957492216446-part-0" d="M 10.286747990551753, 0.14078311293108217 Q 3.1597814021726087, 0.37282361750677406 2.6681896748404705, 0.8164380550429973 T 0.7121655762178283, 0.17161518626290787, 12.654177991455375 0.5417459403114613, 3.137510887427118 0.709787800642153, 3.918466272256149 0.13532802796631183, 8.869939934881863 0.18132317721007674 z" stroke-width="0.688227540197543" opacity="0.8418615095370786" class="creaturePartClass"/><path id="Creature-0.7257957492216446-part-1" d="M 3.795224840646576, 0.3901448929400704 Q 11.076498972893479, 0.7947877831167726 1.1241351674670519, 0.5670894078625134 T 10.63537446410053, 0.6073539878933085, 12.187254752580396 0.5717582761392219, 14.427124218406208 0.6799177628429055, 3.424445464697352 0.9506013619737093, 1.6677214014747699 0.7471233887868888 z" stroke-width="0.5048168335660068" opacity="0.9234973110306967" class="creaturePartClass"/><path id="Creature-0.7257957492216446-part-2" d="M 2.5928289409605525, 0.4680448764241503 Q 6.683366275949666, 0.9371981710757934 6.271472292179223, 1.011104059234346 T 7.796584051670659, 0.8829309536060393, 10.442056344117523 1.02046723656317, 5.094070899998577 0.500182372670973, 6.556515799440872 0.21645783642211883, 12.837827125433959 0.6790932110101829 z" stroke-width="1.3235326300119221" opacity="0.8277420907765867" class="creaturePartClass"/><path id="Creature-0.7257957492216446-part-3" d="M 1.9410511311238476, 0.45341347419464617 Q 14.367318055399425, 0.1813393465655746 2.842411900913108, 0.10665708636352104 T 5.869147611822649, 0.4023714098578626, 9.853009351781408 0.4855167765030174, 10.307986735192866 0.1956955411732213, 5.491420569866088 0.5290878080684445, 11.050863040764888 0.5863353744678992 z" stroke-width="0.6806450690483485" opacity="0.6750298710333509" class="creaturePartClass"/></g><g xmlns="http://www.w3.org/2000/svg" id="Creature-0.9582546119235266" style="fill:#8c1e3f;stroke:#835777" stroke-width="14.480888986666677" opacity="0.961252584606177" transform="translate(190.73897540941235, 160.80427089873615) rotate(-0.25589239353017473 199.06666564941406 261.86666107177734)" onmousedown="tool('Creature-0.9582546119235266')" class="creatureClass"><title>Creature-0.9582546119235266</title><desc>moveLifePathCreatureEvo3("Creature-0.9582546119235266", 0.7, 1.2)</desc><path id="Creature-0.9582546119235266-part-0" d="M 0.7550708499719082, 0.14532324219719012 Q 1.4703624471948504, 0.9423393031316054 1.7817038376480665, 0.7317651252834587 T 1.5914063948706092, 1.8073731226018266, 0.49406754800305747 1.5494731757003921, 1.3115041537804193 0.38044416909965106, 1.8984337046092303 0.1543597915327938, 0.10682686603827898 1.6088531326099953 z" stroke-width="10.446877520134025" opacity="0.8043233187457516" class="creaturePartClass"/><path id="Creature-0.9582546119235266-part-1" d="M 1.6079284745251978, 0.4131624048798433 Q 0.5662182909366237, 0.5031860024225547 1.2521545804607743, 0.36826970320931596 T 1.6875484896918094, 0.6974458638293649, 1.1642424769967858 0.8817825507859304, 1.7909089166760288 0.8433352268142459, 0.2186602481307279 0.5639647161305836, 1.3362415369519094 0.03927002334113701 z" stroke-width="1.1096716486771712" opacity="0.7956136334174168" class="creaturePartClass"/><path id="Creature-0.9582546119235266-part-2" d="M 1.407874118697824, 0.8610020583657195 Q 1.969340946226475, 0.1476771227172979 0.44971553932542246, 1.1384744373523625 T 1.8062887149239084, 1.5320583391578475, 1.0117849624481903 0.49569307472703583, 0.06159188672368827 0.09544767368879567, 1.403151429663807 0.05125762140517368, 0.26754649646870504 0.20225903187502262 z" stroke-width="2.5920366387530662" opacity="0.40375320949139604" class="creaturePartClass"/><path id="Creature-0.9582546119235266-part-3" d="M 0.4347260682667516, 0.771201446657764 Q 1.2258529766825212, 1.4279540475049943 0.4396086185226843, 0.33874033358255184 T 0.22432024833505157, 0.9124908087501374, 0.09022005696713394 0.33651385307927095, 1.3696976691920828 0.1432495378162155, 0.005973200742574913 1.3750918906405327, 1.8257638911774507 1.4289244930648821 z" stroke-width="1.629318365663895" opacity="0.9610224446992306" class="creaturePartClass"/></g><g xmlns="http://www.w3.org/2000/svg" id="Creature-0.8559951995954739" style="fill:#540bb4;stroke:#7908b8" stroke-width="1.1732878125417219" opacity="0.7920345420290705" transform="translate(90.17141573392917, 8.793721152085245) rotate(-1.7541710874871812 94.40833282470703 114.28333282470703)" onmousedown="tool('Creature-0.8559951995954739')" class="creatureClass"><title>Creature-0.8559951995954739</title><desc>moveLifePathCreatureEvo3("Creature-0.8559951995954739", 0.7, 1.2)</desc><path id="Creature-0.8559951995954739-part-0" d="M 2.8304374305057354, 0.16665455490172118 Q 3.627495367291503, 0.01694898568077007 2.2608635526563776, 0.019105179432987784 T 3.585100409036187, 0.1704584599257447, 3.89896259615603 0.09742265804299918, 2.3051074034468018 0.03271201221816594, 0.6005966649221859 0.14149863597215323, 1.2241017344097738 0.1499772134449927 z" stroke-width="0.48186743109806457" opacity="0.9175109194489671" class="creaturePartClass"/><path id="Creature-0.8559951995954739-part-1" d="M 2.9632974210283467, 0.031400130258188726 Q 3.7657191396648755, 0.09191557078754425 1.3664356071876915, 0.07359772558534096 T 3.992741932585462, 0.14669148644588564, 2.1973222315282226 0.015353490024250925, 3.397348671556722 0.1794825279379849, 1.7274012531186331 0.06505001012425767, 0.1875775258073427 0.0877036730233255 z" stroke-width="1.3080238610451698" opacity="0.942560952057147" class="creaturePartClass"/><path id="Creature-0.8559951995954739-part-2" d="M 2.7135887300536403, 0.06934734541552846 Q 2.999569930998977, 0.05974797838655603 3.622641984132992, 0.1329176290528305 T 1.3325070791060578, 0.0889346838959809, 0.7405184685784666 0.02457269325144236, 3.2498324994663346 0.18974780312135303, 0.5825870397022512 0.14214914085159924, 3.781728741509151 0.10910908075364505 z" stroke-width="8.29621941640814" opacity="0.9129888529341873" class="creaturePartClass"/><path id="Creature-0.8559951995954739-part-3" d="M 4.0450736559465446, 0.0711581165272825 Q 3.670931768235342, 0.07574888792151097 1.2119093573037756, 0.021754040707199253 T 1.8691292055793942, 0.1766685269290109, 2.3719655110141904 0.12172196004043619, 3.7876612614212632 0.06486528671062168, 1.5866467415237433 0.11506168682317143, 2.7935705919018647 0.09527395925529487 z" stroke-width="3.1853317958321465" opacity="0.8506657057156777" class="creaturePartClass"/></g><g xmlns="http://www.w3.org/2000/svg" id="Creature-0.07633594671280097" style="fill:#293a07;stroke:#fbc21d" stroke-width="0.3829059435016653" opacity="0.9786648793366965" transform="translate(57.7171200372153, -1.126414786000071) rotate(-20.874190362189733 47.724998474121094 145.4499969482422)" onmousedown="tool('Creature-0.07633594671280097')" class="creatureClass"><title>Creature-0.07633594671280097</title><desc>moveLifePathCreatureEvo3("Creature-0.07633594671280097", 0.7, 1.2)</desc><path id="Creature-0.07633594671280097-part-0" d="M 5.8461666132955985, 0.12533417998855612 Q 0.13760422825577825, 0.36600092959243746 2.36819750490064, 0.038110028260046336 T 0.8614245840197405, 0.03624876006744921, 3.643126326024625 0.1408493942421049, 3.5533064412307254 0.0689828274626739, 1.3797616515835467 0.23519602778808155, 4.912161568991696 0.1973586688582503 z" stroke-width="0.07148998626884825" opacity="0.9591572435041512" class="creaturePartClass"/><path id="Creature-0.07633594671280097-part-1" d="M 4.801874475128522, 0.18450821038423124 Q 3.7006028639833706, 0.3873561964930814 0.8351833655311164, 0.2620073789111098 T 0.05137626770033563, 0.3068779743973414, 1.7555274624255717 0.05413416112296216, 1.7280385517741195 0.18618238805335477, 5.475827590792418 0.4145738441317238, 4.174872790431275 0.337814331151102 z" stroke-width="0.9353893574024509" opacity="0.9048441719787015" class="creaturePartClass"/><path id="Creature-0.07633594671280097-part-2" d="M 6.11193201488858, 0.1267274867758457 Q 3.852830273345077, 0.2487973784851409 1.5845845921814243, 0.033303510453305644 T 2.352423904204428, 0.19296922411972556, 1.5049753155527572 0.07644283693157529, 3.0610037324660735 0.414000214011851, 2.3313468473552015 0.24546976461891493, 1.2084819565850422 0.33536437339897196 z" stroke-width="0.09602436787011753" opacity="0.5982940192436675" class="creaturePartClass"/><path id="Creature-0.07633594671280097-part-3" d="M 5.15963653323668, 0.17062359393146992 Q 0.5886520230867622, 0.2823168252091288 2.5155840974030874, 0.3850141164244991 T 0.8179984319333188, 0.1610020437557307, 0.3123669623335438 0.21542503192339282, 2.481960324214442 0.3532490180905736, 5.510184516656145 0.10374426285385226, 1.6252956295243473 0.18007644752398222 z" stroke-width="0.6567665510361101" opacity="0.9311483956640226" class="creaturePartClass"/></g><g xmlns="http://www.w3.org/2000/svg" id="Creature-0.27664114283155683" style="fill:#73bfd0;stroke:#fbec" stroke-width="3.9424916908421768" opacity="0.9960444607095774" transform="translate(207.6393430660405, 22.04853007978126) rotate(-0.33859244430292 212.64167022705078 137.3249969482422)" onmousedown="tool('Creature-0.27664114283155683')" class="creatureClass"><title>Creature-0.27664114283155683</title><desc>moveLifePathCreatureEvo3("Creature-0.27664114283155683", 0.7, 1.2)</desc><path id="Creature-0.27664114283155683-part-0" d="M 0.21243181884628498, 3.1008736170928857 Q 0.2744882047684944, 3.1944978442615493 0.3336707010937407, 3.1799549526891338 T 0.11093040944845908, 2.862833253163152, 0.34287674526562245 2.861815054751157, 0.012725721562425981 2.642536802151279, 0.1947635764862521 3.151127403049732, 0.31144835721485625 1.7669368247137969 z" stroke-width="12.360645502777205" opacity="0.7345929634396807" class="creaturePartClass"/><path id="Creature-0.27664114283155683-part-1" d="M 0.10751485333298741, 0.5539581029660501 Q 0.1389836154255189, 2.4975153683480715 0.01673860444499606, 1.3007354720340214 T 0.31886279239621085, 1.3024292433657823, 0.006966655144665706 1.660864151305648, 0.2414943344326873 2.6250154919458994, 0.34569052446340215 1.0041628179012063, 0.1092171307939099 3.3746343746242475 z" stroke-width="3.9011145647499887" opacity="0.8008195509691618" class="creaturePartClass"/><path id="Creature-0.27664114283155683-part-2" d="M 0.15649818776587654, 1.969427779090883 Q 0.17032709319134476, 2.8944201137751193 0.13255688235410618, 2.335265472612547 T 0.19958698775390102, 2.822850819274044, 0.21672816391344155 1.691298349287524, 0.08458467588244596 1.3565422108744871, 0.12446696690276421 2.5259190380739645, 0.25524446296177483 1.7990571087611735 z" stroke-width="19.292641305434223" opacity="0.9408791738991068" class="creaturePartClass"/><path id="Creature-0.27664114283155683-part-3" d="M 0.30951046476544797, 2.4308323274008505 Q 0.35982547969906714, 0.7355624016138709 0.22763428832361368, 1.2509517224309217 T 0.19281343904696008, 2.0299294018552496, 0.3272364799363929 1.6145437815547814, 0.04195363894716957 3.123391443433244, 0.27554903715766504 1.9227190789619701, 0.21255891643874364 1.6873792738125497 z" stroke-width="8.655421526166105" opacity="0.573346392263257" class="creaturePartClass"/></g><g xmlns="http://www.w3.org/2000/svg" id="Creature-0.37355850619410336" style="fill:#11bf5e;stroke:#a9719f" stroke-width="1.2924087120361811" opacity="0.8346179640632779" transform="translate(117.00100868617791, 282.53788886024364) rotate(-0.1294974393835016 133.6999969482422 383.24168395996094)" onmousedown="tool('Creature-0.37355850619410336')" class="creatureClass"><title>Creature-0.37355850619410336</title><desc>moveLifePathCreatureEvo3("Creature-0.37355850619410336", 0.7, 1.2)</desc><path id="Creature-0.37355850619410336-part-0" d="M 5.424648926488147, 0.169615285683163 Q 11.005945530315532, 0.23253434426595584 13.633366091278134, 0.20536154409519147 T 12.187011094787437, 0.17844946348224358, 6.047318748012175 0.01542120983065564, 15.892129441068938 0.36886672373799745, 9.134592053188616 0.2151649609453238, 11.346655848666783 0.2730882913022307 z" stroke-width="0.645987976429389" opacity="0.8650641030396831" class="creaturePartClass"/><path id="Creature-0.37355850619410336-part-1" d="M 0.5245383979827413, 0.17374912049525407 Q 6.623667551505228, 0.07729563735218349 3.4715766170037794, 0.45934659246035225 T 21.914987124101007, 0.17342035885071252, 10.000203361854817 0.29224367562917547, 9.48310974912447 0.2910923040966876, 4.632236731844328 0.2025411333847266, 19.582892172361547 0.22289106733306757 z" stroke-width="0.072608565273753" opacity="0.8606451611750853" class="creaturePartClass"/><path id="Creature-0.37355850619410336-part-2" d="M 8.342289885109922, 0.33893068637942925 Q 19.978595081282332, 0.38983871347478727 1.9717295590687371, 0.4101362006571322 T 14.648945317223893, 0.031104214194489183, 12.55365203001429 0.07528622522409359, 14.30511965327651 0.4762370596522604, 5.287632713781444 0.3721461066419018, 17.667007961435935 0.3617853122913935 z" stroke-width="1.3445750628049546" opacity="0.4927242740961961" class="creaturePartClass"/><path id="Creature-0.37355850619410336-part-3" d="M 3.23467133463426, 0.07890176198053372 Q 16.034377529244793, 0.22031671539788963 18.37893827484032, 0.1362282139537365 T 10.119914810029268, 0.14418490765403003, 20.186035203865487 0.4201898763313648, 9.585902279076763 0.23077281353059415, 2.9229341431828617 0.3917262317821899, 16.55675216979859 0.4219314376581911 z" stroke-width="0.6564877707232826" opacity="0.7834543405859393" class="creaturePartClass"/></g><g xmlns="http://www.w3.org/2000/svg" id="Creature-0.8560461062426931" style="fill:#eb60bc;stroke:#80abcd" stroke-width="15.35097961486724" opacity="0.7850370808586622" transform="translate(181.05873399981277, 12.32484451511393) rotate(-3.29705649463989 189.0999984741211 132.99166870117188)" onmousedown="tool('Creature-0.8560461062426931')" class="creatureClass"><title>Creature-0.8560461062426931</title><desc>moveLifePathCreatureEvo3("Creature-0.8560461062426931", 0.7, 1.2)</desc><path id="Creature-0.8560461062426931-part-0" d="M 1.246182066271944, 0.7653547041256741 Q 3.3828389939224577, 1.5561183802294298 0.5334277066999692, 1.0515329999002436 T 0.5372658737085914, 2.4205006188122278, 0.3788047200150043 0.3200317872510037, 4.9105089467934215 0.4297156945353716, 0.5091386031079432 3.254311727282225, 3.571463063353808 1.8126564613786993 z" stroke-width="5.906807295172688" opacity="0.8154585337259741" class="creaturePartClass"/><path id="Creature-0.8560461062426931-part-1" d="M 3.5776590656324725, 4.015453273746912 Q 4.2137224132005455, 3.194440096932418 2.554689425564359, 2.3810311383623466 T 0.2804379712386721, 3.548595226874392, 0.023238673869406833 2.6542839853337896, 4.8569254254912435 2.873984905742189, 4.327545646776968 1.9781371685812237, 4.978141997548029 4.199155715554308 z" stroke-width="5.360002654877197" opacity="0.40147450778926597" class="creaturePartClass"/><path id="Creature-0.8560461062426931-part-2" d="M 1.493305757096347, 3.463002003003203 Q 5.042651278519167, 3.9254900218301656 2.7678627986757167, 0.7230268781964836 T 1.3392857569213832, 2.267415389642764, 4.535314710752015 3.9205157521890612, 2.4141695833806027 2.3725018929968376, 3.9530604755774394 3.5932781581367976, 4.467481892242115 2.4327187477276366 z" stroke-width="20.43259762877386" opacity="0.7442087691159908" class="creaturePartClass"/><path id="Creature-0.8560461062426931-part-3" d="M 4.251687324839326, 3.2214877111965814 Q 3.206987714958979, 0.6249699290952978 4.163217986615252, 1.5684749079999327 T 4.718040711154838, 2.790206193048997, 3.5947872608936158 3.287264507033419, 2.606594371742336 4.025702999261628, 5.173185387540573 1.277784657899657, 0.821000604917343 1.4539272540268662 z" stroke-width="1.1076491494833307" opacity="0.9561016755785336" class="creaturePartClass"/></g><g xmlns="http://www.w3.org/2000/svg" id="Creature-0.8661715324396488" style="fill:#4d7fe0;stroke:#8df752" stroke-width="7.560187129790447" opacity="0.7133426478276433" transform="translate(82.67024010944986, 9.00538433091618) rotate(-0.22737062662766133 103.20833587646484 102.3166732788086)" onmousedown="tool('Creature-0.8661715324396488')" class="creatureClass"><title>Creature-0.8661715324396488</title><desc>moveLifePathCreatureEvo3("Creature-0.8661715324396488", 0.7, 1.2)</desc><path id="Creature-0.8661715324396488-part-0" d="M 1.3354027580527423, 0.298105547408995 Q 1.591183298769458, 0.08871177717223519 3.0871996773897843, 0.3138016634843138 T 2.1374199428906437, 0.1474833298959994, 0.979119136115212 0.2492142790452735, 3.1939619385284312 0.15556745321673654, 0.07590459819891182 0.30948625012777425, 1.2126397384547207 0.025139879623818227 z" stroke-width="1.9426340899552095" opacity="0.7326253766436762" class="creaturePartClass"/><path id="Creature-0.8661715324396488-part-1" d="M 2.395713800220726, 0.17067229367843825 Q 3.7981634467505336, 0.23358206702434034 2.200507803532347, 0.3589422907359057 T 3.653230984773349, 0.12325898374668741, 2.8210406173979465 0.22473476076671317, 3.4426023744780565 0.35467945573997695, 3.8145322132918973 0.26358619864838456, 0.419560174732063 0.33312282424448514 z" stroke-width="3.1952313355739235" opacity="0.6367069954777894" class="creaturePartClass"/><path id="Creature-0.8661715324396488-part-2" d="M 0.4781588169948106, 0.04330199263326651 Q 0.8823048454051637, 0.2354090398190766 2.2988001684539547, 0.0345177903059234 T 2.0217865982945025, 0.21067876895621043, 3.6892273598406873 0.23997545715148907, 0.3393711862963642 0.25870165679102464, 1.3441043253232343 0.23447225450951267, 1.8218153021782264 0.09657578137646443 z" stroke-width="0.7752120781547566" opacity="0.9434592442936641" class="creaturePartClass"/><path id="Creature-0.8661715324396488-part-3" d="M 1.9742447569598318, 0.33045169072008523 Q 1.5034663939064912, 0.3240867256824959 1.1867260947213838, 0.06733011294944588 T 2.296456721503938, 0.24868640877260337, 2.4113295616010615 0.019623558140714124, 1.182357115555375 0.3557786901906722, 1.6617585200693654 0.3482794076639535, 3.2998413413021788 0.3043053611259918 z" stroke-width="3.9315581058889033" opacity="0.9297603659441813" class="creaturePartClass"/></g><g xmlns="http://www.w3.org/2000/svg" id="Creature-0.7205426734791189" style="fill:#2e044a;stroke:#517fff" stroke-width="1.3930769391785083" opacity="0.8503248411542658" transform="translate(76.20682515727549, -5.5501526411889) rotate(0.027573178587764913 82.75 107.65833282470703)" onmousedown="tool('Creature-0.7205426734791189')" class="creatureClass"><title>Creature-0.7205426734791189</title><desc>moveLifePathCreatureEvo3("Creature-0.7205426734791189", 0.7, 1.2)</desc><path id="Creature-0.7205426734791189-part-0" d="M 7.858411563834673, 0.36363767365208244 Q 11.953305483161229, 0.08399776463601459 1.249813540952123, 0.5230102681463247 T 12.204339398364848, 0.31422058835956573, 4.165287029656552 0.24015539927106486, 1.7297507676910027 0.3346142845432474, 1.4433895037413604 0.46554496783259175, 2.5059924865644407 0.567753277438144 z" stroke-width="0.8299785952313131" opacity="0.85022129581683" class="creaturePartClass"/><path id="Creature-0.7205426734791189-part-1" d="M 11.452850315338809, 0.07127134036902029 Q 9.740941947393805, 0.29552167351239195 0.10651892809731764, 0.16511395281664382 T 10.40417605122041, 0.2106231046966323, 0.729684199155456 0.6529823366641818, 7.296177926607094 0.21839982482918308, 12.334782990235576 0.3024497655983105, 12.618002086475549 0.04735724265507788 z" stroke-width="0.2931654395347638" opacity="0.8582906400804792" class="creaturePartClass"/><path id="Creature-0.7205426734791189-part-2" d="M 8.786404775555305, 0.5192431522823034 Q 9.389041389014013, 0.48491810849873584 11.559872854435971, 0.03380703273974406 T 12.353910077221862, 0.0744080125198031, 5.836195763131955 0.6354323866855675, 10.86297781564647 0.1157935249219317, 9.109176495682581 0.10698625171758615, 4.264002609742873 0.3697573961100687 z" stroke-width="0.5424956023247715" opacity="0.8724224810914123" class="creaturePartClass"/><path id="Creature-0.7205426734791189-part-3" d="M 7.681883395255684, 0.23070196348142705 Q 10.502840328535434, 0.15357684206212496 2.7030850130329953, 0.16606263722257789 T 10.137678753987087, 0.5168627351678708, 7.943893210062943 0.6029763666166063, 4.422530556117548 0.5026951008645568, 10.679980421110526 0.4688351884603164, 2.742508455128882 0.06762704471159704 z" stroke-width="0.4640057403676682" opacity="0.9849361225773" class="creaturePartClass"/></g><g xmlns="http://www.w3.org/2000/svg" id="Creature-0.9344157367251464" style="fill:#d920a2;stroke:#d7746c" stroke-width="21.183370179814542" opacity="0.8019232310649957" transform="translate(112.79755284301696, 38.66471663619774) rotate(-1.1369488063657212 124.96666717529297 133.10833740234375)" onmousedown="tool('Creature-0.9344157367251464')" class="creatureClass"><title>Creature-0.9344157367251464</title><desc>moveLifePathCreatureEvo3("Creature-0.9344157367251464", 0.7, 1.2)</desc><path id="Creature-0.9344157367251464-part-0" d="M 1.4018475749146588, 0.28467010456044217 Q 0.8271799507798153, 0.06359853178434252 0.9660566479527611, 0.18267171545255767 T 0.051858178745242865, 0.25085340269628753, 1.062305788480312 0.4271790298777469, 1.051006122681467 0.4336876178004464, 0.09926046728214229 0.5473561547961691, 1.131373570308966 0.24177214921840243 z" stroke-width="6.963066632209363" opacity="0.9538161140145784" class="creaturePartClass"/><path id="Creature-0.9344157367251464-part-1" d="M 0.8582788972626766, 0.035620478075504655 Q 1.1126422189422573, 0.4920239755039541 0.6152459609223839, 0.323436318482396 T 1.299489298669358, 0.36773945173023315, 1.1971266143929524 0.1799041197097671, 1.3409289642437046 0.3302826340727345, 1.2587494574858755 0.3954377860023877, 0.3876466544025379 0.5120506429645219 z" stroke-width="8.092920148871336" opacity="0.7552167169782366" class="creaturePartClass"/><path id="Creature-0.9344157367251464-part-2" d="M 0.7623968475212456, 0.23499300469556933 Q 0.36557275788431454, 0.5052065111504067 1.2945547472673904, 0.09041350120979606 T 0.5571661334398365, 0.23502574117421218, 1.1049514563305896 0.19606132326743386, 0.6977886123832469 0.38171442459023314, 0.7531458575552653 0.4967277317440292, 0.5093883657510998 0.27525806752112186 z" stroke-width="18.96093558088902" opacity="0.9387909197658181" class="creaturePartClass"/><path id="Creature-0.9344157367251464-part-3" d="M 0.8864631609161745, 0.26025345281053686 Q 0.11628086567081809, 0.05583799415140998 0.1157240573437497, 0.42897443125393275 T 0.17313638033619788, 0.08951546752864993, 0.49264650209541505 0.48518535501424864, 0.05852392276547003 0.4811520644641362, 0.39357556564351154 0.374702638969847, 0.3282427598575622 0.48582557238116547 z" stroke-width="10.53366306826098" opacity="0.8988022554941995" class="creaturePartClass"/></g><g xmlns="http://www.w3.org/2000/svg" id="Creature-0.9178484820814635" style="fill:#5f0c39;stroke:#6e08ef" stroke-width="3.437561137855278" opacity="0.8564375859676187" transform="translate(28.278003736380253, 1.5332893606685594) rotate(-4.172829305109717 54.974998474121094 99.86666107177734)" onmousedown="tool('Creature-0.9178484820814635')" class="creatureClass"><title>Creature-0.9178484820814635</title><desc>moveLifePathCreatureEvo3("Creature-0.9178484820814635", 0.7, 1.2)</desc><path id="Creature-0.9178484820814635-part-0" d="M 0.2425114524537669, 1.5322062477483387 Q 2.2374457919295994, 1.3351949198564563 1.3391022042806553, 1.2918946763648675 T 0.8905797699769498, 1.3290710293665349, 2.492350011101415 2.0037927495987127, 0.9032529732774073 2.8429481397323144, 2.1410889575801684 2.4559852053845783, 0.16263731332388115 0.8792334861092743 z" stroke-width="2.66998009316677" opacity="0.6616171621834289" class="creaturePartClass"/><path id="Creature-0.9178484820814635-part-1" d="M 1.4592730708146044, 3.504995858937325 Q 1.6388705324426527, 0.5330986145017041 0.2126149224552421, 0.6090209073933944 T 0.1992520696466572, 0.9347315879690494, 1.5303561075326564 0.49279800380261046, 1.850371615127097 2.195722913639141, 1.5548636820530721 2.9490876920301936, 0.11845946330317565 3.5966749168765046 z" stroke-width="5.34306151524144" opacity="0.7889704457640152" class="creaturePartClass"/><path id="Creature-0.9178484820814635-part-2" d="M 2.0235771038947816, 2.088753416516615 Q 0.6711658857084348, 1.5108315176679352 1.826797641833624, 3.1733897244255416 T 1.6659211303805683, 1.6284853226873939, 0.4344342865144537 3.4821537042918314, 1.9252384369507511 0.821463608930829, 1.6956329218956263 0.9964201558435952, 1.9295931966373272 0.7521620828830364 z" stroke-width="6.993393525529828" opacity="0.9509137269409844" class="creaturePartClass"/><path id="Creature-0.9178484820814635-part-3" d="M 0.6062482946510572, 2.8131491766090404 Q 2.159147007386129, 1.2153622322326798 1.2215117263444393, 0.9065203508197072 T 1.9442592088868773, 0.3539275852767906, 1.0647079371258898 0.5735081819140234, 2.6019417517151733 2.4766101547217065, 1.5595562360958513 0.043975063219431905, 0.2587751175570072 3.0089199561391693 z" stroke-width="1.5946046417689923" opacity="0.9020772301561171" class="creaturePartClass"/></g><g xmlns="http://www.w3.org/2000/svg" id="Creature-0.47888440248173103" style="fill:#81efdd;stroke:#e190a3" stroke-width="43.83136197346282" opacity="0.7103085437597577" transform="translate(241.7504322472629, 310.30638657540305) rotate(-0.027265497501852507 255.81666564941406 505.8416748046875)" onmousedown="tool('Creature-0.47888440248173103')" class="creatureClass"><title>Creature-0.47888440248173103</title><desc>moveLifePathCreatureEvo3("Creature-0.47888440248173103", 0.7, 1.2)</desc><path id="Creature-0.47888440248173103-part-0" d="M 0.7443580087806664, 4.176602797941226 Q 0.0257227404426386, 15.878621893424583 1.9640032374923566, 16.76451517535849 T 0.5931338582685735, 13.410320786111459, 0.8200726560550434 3.524111623185625, 1.6539535258491287 12.613085014425023, 1.4563233941908822 4.058883185175351, 1.3746925444794817 18.09774909092162 z" stroke-width="32.34962048657737" opacity="0.9962395090339781" class="creaturePartClass"/><path id="Creature-0.47888440248173103-part-1" d="M 0.6888255485660427, 3.207778529975308 Q 1.7084012207312038, 5.4527433553792015 0.5014711743080491, 4.288009029998491 T 0.6209137809651121, 5.619195210603657, 1.7691479886156407 4.615892043813831, 1.508328482102411 3.1530739458272157, 1.9881357799323665 10.571170841289607, 0.6672775681895872 10.244090407711475 z" stroke-width="53.34602197851179" opacity="0.875856376075125" class="creaturePartClass"/><path id="Creature-0.47888440248173103-part-2" d="M 0.535363017398502, 9.754324557626058 Q 1.8239125313383135, 13.865801649596083 1.101602624700151, 1.644745415572443 T 0.657867031857057, 18.19297084155071, 1.3887101239109148 7.4292949506203625, 0.1117230593770385 16.99552121640169, 1.7144947921208338 11.264189826260735, 0.698276769187669 4.716842778260283 z" stroke-width="93.02457763568728" opacity="0.8615995617098796" class="creaturePartClass"/><path id="Creature-0.47888440248173103-part-3" d="M 0.5403337224156141, 12.405857059805232 Q 1.0748203792647544, 10.157609432244323 1.8071455010307198, 0.6340973844757848 T 0.015491384473728751, 10.023425353240802, 0.9022280659781671 1.0840236283163553, 1.1571305923736712 11.96873295372114, 1.4322815211222526 11.425416244941495, 1.080584825858645 14.806922982701819 z" stroke-width="36.769542744810494" opacity="0.5121931031704947" class="creaturePartClass"/></g><g xmlns="http://www.w3.org/2000/svg" id="Creature-0.6946032696179666" style="fill:#da73b3;stroke:#8ede6c" stroke-width="64.94840740588775" opacity="0.9421601555593885" transform="translate(297.2898474908439, 241.50080256548435) rotate(0.02400644206515271 61.4666748046875 105.51666259765625)" onmousedown="tool('Creature-0.6946032696179666')" class="creatureClass"><title>Creature-0.6946032696179666</title><desc>moveLifePathCreatureEvo3("Creature-0.6946032696179666", 0.7, 1.2)</desc><path id="Creature-0.6946032696179666-part-0" d="M 0.4443458805383111, 0.21260415241928424 Q 1.0863631404878162, 0.277909511472182 0.5499229991039631, 0.023020586609472284 T 1.2938835195795038, 0.27742617309979256, 1.496209425712312 0.19108086321317125, 0.22454227579782143 0.23808485808487415, 1.111378175100656 0.14463926989212358, 0.775399122836978 0.009758428047673216 z" stroke-width="14.883033898064047" opacity="0.69893971470964" class="creaturePartClass"/><path id="Creature-0.6946032696179666-part-1" d="M 0.3231134474378341, 0.19385413854022548 Q 0.33366981137395907, 0.04807865678358354 0.22709005445361521, 0.34725716488441943 T 1.576522241166471, 0.26306672103957845, 1.5687059247067505 0.3168529755571833, 1.2016304846028265 0.349080624827148, 0.39399695300687276 0.18606900856042718, 0.18162508659648488 0.05725313364943339 z" stroke-width="19.14694227160822" opacity="0.9784817009920799" class="creaturePartClass"/><path id="Creature-0.6946032696179666-part-2" d="M 1.8357549433435527, 0.1796102439814834 Q 1.1004465154756642, 0.2691434243647327 1.1712502305976247, 0.06469082212780783 T 0.6577789024221681, 0.008819481434999929, 1.1524872690300891 0.358412281467245, 0.6321302627559237 0.1574637339793146, 1.6071447758473663 0.26311075921680543, 1.1632933902699574 0.12177150346103223 z" stroke-width="66.15210566877533" opacity="0.7539313875405436" class="creaturePartClass"/><path id="Creature-0.6946032696179666-part-3" d="M 0.20306438193793958, 0.2679442032715979 Q 0.342115184536785, 0.3031448387213893 0.3953390095445017, 0.32710897642642833 T 0.4798981748766589, 0.2737287388305072, 1.2272826821990035 0.006124028166762484, 0.5098274487931131 0.16077894342292753, 1.830458733069938 0.1067293115497428, 0.9996313635570953 0.307631267714299 z" stroke-width="26.122078775776128" opacity="0.9010271005444023" class="creaturePartClass"/></g></svg>