<?xml version="1.0" encoding="UTF-8" standalone="no"?>
<!-- Created with LifeFLOW (http://life.worldsowisdom.com/flow/) -->

<svg
   xmlns:osb="http://www.openswatchbook.org/uri/2009/osb"
   xmlns:dc="http://purl.org/dc/elements/1.1/"
   xmlns:cc="http://creativecommons.org/ns#"
   xmlns:rdf="http://www.w3.org/1999/02/22-rdf-syntax-ns#"
   xmlns:svg="http://www.w3.org/2000/svg"
   xmlns="http://www.w3.org/2000/svg"
   xmlns:xlink="http://www.w3.org/1999/xlink"
   xmlns:sodipodi="http://sodipodi.sourceforge.net/DTD/sodipodi-0.dtd"
   xmlns:inkscape="http://www.inkscape.org/namespaces/inkscape"
   width="450"
   height="450"
   viewBox="0 0 450 450"
   id="svg2"
   version="1.1"
   inkscape:version="0.91 r13725"
   sodipodi:docname="newcreatures-plain.svg">
  <defs
     id="defs4">
    <linearGradient
       inkscape:collect="always"
       id="linearGradient6501">
      <stop
         style="stop-color:#0000ff;stop-opacity:1;"
         offset="0"
         id="stop6503" />
      <stop
         style="stop-color:#0000ff;stop-opacity:0;"
         offset="1"
         id="stop6505" />
    </linearGradient>
    <linearGradient
       id="linearGradient6455"
       osb:paint="solid">
      <stop
         style="stop-color:#0000ff;stop-opacity:1;"
         offset="0"
         id="stop6457" />
    </linearGradient>
    <filter
       inkscape:collect="always"
       style="color-interpolation-filters:sRGB"
       id="filter5001"
       x="-0.37912726"
       width="1.7582545"
       y="-0.65848422"
       height="2.3169684">
      <feGaussianBlur
         inkscape:collect="always"
         stdDeviation="6.3692616"
         id="feGaussianBlur5003" />
    </filter>
    <linearGradient
       inkscape:collect="always"
       xlink:href="#linearGradient6501"
       id="linearGradient6507"
       x1="242.51431"
       y1="178.50594"
       x2="313.40628"
       y2="178.50594"
       gradientUnits="userSpaceOnUse"
       gradientTransform="translate(-215.03742,319.7082)" />
  </defs>
  <sodipodi:namedview
     id="base"
     pagecolor="#ffffff"
     bordercolor="#666666"
     borderopacity="1.0"
     inkscape:pageopacity="0.0"
     inkscape:pageshadow="2"
     inkscape:zoom="0.24748738"
     inkscape:cx="463.57331"
     inkscape:cy="265.90363"
     inkscape:document-units="px"
     inkscape:current-layer="layer1"
     showgrid="false"
     inkscape:window-width="1366"
     inkscape:window-height="706"
     inkscape:window-x="-8"
     inkscape:window-y="-8"
     inkscape:window-maximized="1"
     units="px" />
  <metadata
     id="metadata7">
    <rdf:RDF>
      <cc:Work
         rdf:about="">
        <dc:format>image/svg+xml</dc:format>
        <dc:type
           rdf:resource="http://purl.org/dc/dcmitype/StillImage" />
        <dc:title></dc:title>
      </cc:Work>
    </rdf:RDF>
  </metadata>
  <g
     inkscape:label="Layer 1"
     inkscape:groupmode="layer"
     id="layer1"
     transform="translate(0,-364.28567)">
    <path
       sodipodi:type="star"
       style="opacity:0.28999999;fill:#00ffff;stroke:#800080"
       id="path4136eg"
       sodipodi:sides="5"
       sodipodi:cx="149.96248"
       sodipodi:cy="470.92843"
       sodipodi:r1="84.03109"
       sodipodi:r2="42.015545"
       sodipodi:arg1="0.31099828"
       sodipodi:arg2="0.93931681"
       inkscape:flatsided="false"
       inkscape:rounded="0"
       inkscape:randomized="0"
       d="m 229.96248,496.64272 -55.19656,8.19877 -24.53782,50.11762 -24.85417,-49.96149 -55.247286,-7.84966 39.835836,-39.07667 -9.60688,-54.96897 49.47407,25.81078 49.30991,-26.12303 -9.25918,55.0286 z"
       inkscape:transform-center-x="-0.082081267"
       inkscape:transform-center-y="7.9461513" />
    <path
       inkscape:transform-center-y="2.4320959"
       inkscape:transform-center-x="-0.025122895"
       d="m 68.791599,427.6385 -16.894071,2.5094 -7.510317,15.33956 -7.607143,-15.29177 -16.909598,-2.40255 12.192598,-11.96024 -2.940388,-16.82442 15.142583,7.89994 15.092337,-7.99551 -2.833967,16.84267 z"
       inkscape:randomized="0"
       inkscape:rounded="0"
       inkscape:flatsided="false"
       sodipodi:arg2="0.93931681"
       sodipodi:arg1="0.31099828"
       sodipodi:r2="12.859744"
       sodipodi:r1="25.719488"
       sodipodi:cy="419.76809"
       sodipodi:cx="44.305912"
       sodipodi:sides="5"
       id="path4138eg"
       style="opacity:0.28999999;fill:#00ffff;stroke:#800080;stroke-width:0.3060711"
       sodipodi:type="star" />
    <g
       id="BiggoEGbg"
       transform="translate(-109.96232,143.76849)">
      <desc
         id="desc4151">A big creature for LifeFLOW! :)</desc>
      <circle
         r="29.934187"
         cy="259.14496"
         cx="302.39636"
         id="path4137eg"
         style="opacity:0.28999999;fill:#ffff00;stroke:#800080;stroke-width:0.6047619" />
      <circle
         r="7.3308215"
         cy="265.86487"
         cx="307.8945"
         id="path4139eg"
         style="opacity:0.28999999;fill:#ffff00;stroke:#800080;stroke-width:0.6047619" />
      <ellipse
         ry="10.996231"
         rx="3.6654108"
         cy="251.20323"
         cx="292.01105"
         id="path4141eg"
         style="opacity:0.28999999;fill:#0000ff;stroke:#800080;stroke-width:0.6047619" />
      <ellipse
         ry="3.6654108"
         rx="9.7744284"
         cy="253.64687"
         cx="317.66891"
         id="path4143eg"
         style="opacity:0.28999999;fill:#0000ff;stroke:#800080;stroke-width:0.6047619" />
    </g>
    <rect
       style="opacity:0.87000002;fill:url(#linearGradient6507);fill-opacity:1;stroke:#0000ff;stroke-width:0.6047619;stroke-miterlimit:4;stroke-dasharray:none;filter:url(#filter5001)"
       id="MedyEGbg"
       width="40.319515"
       height="23.214266"
       x="42.763119"
       y="486.60684" />
    <g
       id="g6519eg"
       inkscape:label="#MedyEG"
       transform="translate(0,53.355016)">
      <rect
         y="281.74832"
         x="59.868374"
         height="31.766891"
         width="63.533783"
         id="rect6509eg"
         style="opacity:0.87000002;fill:#0000ff;fill-opacity:1;stroke:#0000ff;stroke-width:0.6047619;stroke-miterlimit:4;stroke-dasharray:none" />
      <path
         inkscape:transform-center-y="-0.19571458"
         inkscape:transform-center-x="0.72308977"
         d="m 81.860835,300.07539 -6.160837,-1.4834 -4.714657,4.23419 -0.493011,-6.31769 -5.483865,-3.17547 5.856139,-2.42116 1.325442,-6.19674 4.112304,4.82134 6.303033,-0.65433 -3.314595,5.40091 z"
         inkscape:randomized="0"
         inkscape:rounded="0"
         inkscape:flatsided="false"
         sodipodi:arg2="1.3230568"
         sodipodi:arg1="0.69473828"
         sodipodi:r2="4.7712951"
         sodipodi:r1="9.5425901"
         sodipodi:cy="293.96637"
         sodipodi:cx="74.530014"
         sodipodi:sides="5"
         id="path6511eg"
         style="opacity:0.87000002;fill:#ff8080;fill-opacity:1;stroke:#0000ff;stroke-width:0.6047619;stroke-miterlimit:4;stroke-dasharray:none"
         sodipodi:type="star" />
      <path
         inkscape:transform-center-y="0.22428177"
         inkscape:transform-center-x="0.37755769"
         d="m 108.74051,312.2934 -1.06782,-3.99694 -3.89796,-1.38629 3.47135,-2.25068 0.1139,-4.13556 3.21323,2.60595 3.96835,-1.16963 -1.48546,3.86124 2.33867,3.41269 -4.13129,-0.21956 z"
         inkscape:randomized="0"
         inkscape:rounded="0"
         inkscape:flatsided="false"
         sodipodi:arg2="2.3965104"
         sodipodi:arg1="1.7681919"
         sodipodi:r2="3.115"
         sodipodi:r1="6.23"
         sodipodi:cy="306.18439"
         sodipodi:cx="109.96231"
         sodipodi:sides="5"
         id="path6513eg"
         style="opacity:0.87000002;fill:#ff8080;fill-opacity:1;stroke:#0000ff;stroke-width:0.6047619;stroke-miterlimit:4;stroke-dasharray:none"
         sodipodi:type="star" />
      <path
         inkscape:transform-center-y="-0.16705416"
         inkscape:transform-center-x="0.16705535"
         d="m 92.857067,295.18814 -2.173306,-0.73698 -1.839194,1.3725 0.02933,-2.29468 -1.873674,-1.32505 2.191432,-0.6812 0.6812,-2.19143 1.32505,1.87368 2.294678,-0.0293 -1.372506,1.8392 z"
         inkscape:randomized="0"
         inkscape:rounded="0"
         inkscape:flatsided="false"
         sodipodi:arg2="1.4137167"
         sodipodi:arg1="0.78539816"
         sodipodi:r2="1.727891"
         sodipodi:r1="3.4557824"
         sodipodi:cy="292.74454"
         sodipodi:cx="90.41346"
         sodipodi:sides="5"
         id="path6515eg"
         style="opacity:0.87000002;fill:#ff8080;fill-opacity:1;stroke:#0000ff;stroke-width:0.6047619;stroke-miterlimit:4;stroke-dasharray:none"
         sodipodi:type="star" />
      <path
         inkscape:transform-center-y="-0.1121867"
         inkscape:transform-center-x="-0.63956251"
         d="m 84.736419,309.55335 2.201552,-4.70569 -2.628342,-4.48131 5.155694,0.63966 3.44978,-3.8845 0.984842,5.10102 4.760422,2.08056 -4.547027,2.51294 -0.507677,5.17036 -3.79506,-3.54794 z"
         inkscape:randomized="0"
         inkscape:rounded="0"
         inkscape:flatsided="false"
         sodipodi:arg2="3.0951702"
         sodipodi:arg1="2.4668517"
         sodipodi:r2="3.9116797"
         sodipodi:r1="7.8233595"
         sodipodi:cy="304.66614"
         sodipodi:cx="90.845436"
         sodipodi:sides="5"
         id="path6517eg"
         style="opacity:0.87000002;fill:#ff8080;fill-opacity:1;stroke:#0000ff;stroke-width:0.6047619;stroke-miterlimit:4;stroke-dasharray:none"
         sodipodi:type="star" />
    </g>
    <path
       sodipodi:type="spiral"
       style="fill:#00ffff;fill-rule:evenodd;stroke:#000000;stroke-width:0.6047619px;stroke-linecap:butt;stroke-linejoin:miter;stroke-opacity:1"
       id="eaglynew2"
       sodipodi:cx="73.308212"
       sodipodi:cy="393.74982"
       sodipodi:expansion="1"
       sodipodi:revolution="3"
       sodipodi:radius="41.613129"
       sodipodi:argument="-18.147299"
       sodipodi:t0="0"
       d="m 73.308212,393.74982 c 1.592741,1.3477 -1.030876,2.81189 -2.239973,2.64724 -3.276579,-0.4462 -4.137127,-4.52375 -3.054508,-7.12719 1.936552,-4.65694 7.887895,-5.67954 12.014402,-3.46177 6.055815,3.25466 7.263028,11.296 3.869042,16.90161 -4.52365,7.4714 -14.719492,8.86373 -21.788831,4.27631 -8.896041,-5.77281 -10.473289,-18.15026 -4.683575,-26.67604 7.01212,-10.32587 21.585119,-12.08797 31.563258,-5.09085 11.758893,8.24586 13.705843,25.02253 5.49811,36.45048 -9.476152,13.19401 -28.461631,15.32586 -41.337687,5.90537 -14.630593,-10.70415 -16.947384,-31.90193 -6.312644,-46.2249 11.930572,-16.06821 35.343106,-18.56999 51.112116,-6.71991 17.506588,13.15584 20.193418,38.78494 7.127178,55.99933">
      <desc
         id="desc6528">a new test shape to play with! :)</desc>
    </path>
    <path
       d="m 205.26299,520.81738 c 1.59274,1.34771 -1.03088,2.8119 -2.23998,2.64724 -3.27658,-0.44619 -4.13713,-4.52374 -3.05451,-7.12718 1.93656,-4.65695 7.8879,-5.67955 12.01441,-3.46178 6.05581,3.25466 7.26302,11.296 3.86904,16.90162 -4.52365,7.4714 -14.71949,8.86373 -21.78883,4.27631 -8.89604,-5.77281 -10.47329,-18.15027 -4.68358,-26.67605 7.01212,-10.32586 21.58512,-12.08796 31.56326,-5.09084 11.75889,8.24586 13.70584,25.02252 5.49811,36.45047 -9.47615,13.19402 -28.46163,15.32587 -41.33769,5.90538 -14.63059,-10.70416 -16.94738,-31.90193 -6.31264,-46.2249 11.93057,-16.06821 35.3431,-18.57 51.11211,-6.71991 17.50659,13.15583 20.19342,38.78493 7.12718,55.99933"
       sodipodi:t0="0"
       sodipodi:argument="-18.147299"
       sodipodi:radius="41.613129"
       sodipodi:revolution="3"
       sodipodi:expansion="1"
       sodipodi:cy="520.81738"
       sodipodi:cx="205.26299"
       id="path6530eg"
       style="fill:#800000;fill-rule:evenodd;stroke:#000000;stroke-width:0.6047619px;stroke-linecap:butt;stroke-linejoin:miter;stroke-opacity:1"
       sodipodi:type="spiral">
      <desc
         id="desc6532">a new test shape to play with! :)</desc>
    </path>
  </g>
  <rect
     height="448"
     id="Border"
     style="fill:none;stroke:#800080;stroke-width:0.60342091"
     width="448"
     x="1"
     y="1" />
	 
	 
	 <!-- creatures from original versions! :) -->
	 
			<a style="fill-opacity:0.75" xlink:href="http://life.worldsowisdom.com/flow/"> <rect height="90" id="YellowRect" onmouseout="setAttribute('fill-opacity','0.5')" onmouseover="setAttribute('fill-opacity','1.0')" style="fill:yellow;stroke:#000000" width="90" x="150" y="90"> <desc id="desc3364">A clickable square!</desc>
			<title id="title3362"></title>
			</rect> </a> <a style="fill-opacity:0.75" xlink:href="http://life.worldsowisdom.com/flow/">
			<rect height="90" id="OrangeRect" onmouseout="setAttribute('fill-opacity','0.75')" onmouseover="setAttribute('fill-opacity','1.0')" style="fill:orange;stroke:#000000" width="90" x="60" y="300"> <desc id="desc3364">A clickable square!</desc>
			<title id="title3362"></title>
			</rect> </a>

<path xmlns="http://www.w3.org/2000/svg" id="eaglynew" style="fill: #00ffff; fill-rule: evenodd; stroke: #000000; stroke-linecap: butt; stroke-linejoin: miter; stroke-opacity: 1; stroke-width: 0.604762px;" transform="translate(25, 25 )" d="m 73.3082 393.75 c 1.59274 1.3477 -1.03088 2.81189 -2.23997 2.64724 c -3.27658 -0.4462 -4.13713 -4.52375 -3.05451 -7.12719 c 1.93655 -4.65694 7.8879 -5.67954 12.0144 -3.46177 c 6.05582 3.25466 7.26303 11.296 3.86904 16.9016 c -4.52365 7.4714 -14.7195 8.86373 -21.7888 4.27631 c -8.89604 -5.77281 -10.4733 -18.1503 -4.68358 -26.676 c 7.01212 -10.3259 21.5851 -12.088 31.5633 -5.09085 c 11.7589 8.24586 13.7058 25.0225 5.49811 36.4505 c -9.47615 13.194 -28.4616 15.3259 -41.3377 5.90537 c -14.6306 -10.7042 -16.9474 -31.9019 -6.31264 -46.2249 c 11.9306 -16.0682 35.3431 -18.57 51.1121 -6.71991 c 17.5066 13.1558 20.1934 38.7849 7.12718 55.9993" xmlns:sodipodi="http://sodipodi.sourceforge.net/DTD/sodipodi-0.dtd" sodipodi:cy="393.74982" sodipodi:cx="73.308212" sodipodi:type="spiral" sodipodi:t0="0" sodipodi:argument="-18.147299" sodipodi:radius="41.613129" sodipodi:revolution="3" sodipodi:expansion="1">
    <desc id="desc36">a new test shape to play with! :)</desc>
  </path><rect xmlns="http://www.w3.org/2000/svg" id="AvrilNiblet1" style="fill: yellow; stroke: black;" onmouseover="setAttribute('fill-opacity','1.0')" onmouseout="setAttribute('fill-opacity','0.5')" transform="translate(25, 25 )" x="225" y="225" width="10" height="10">
    <desc id="desc71">Avril's first little niblet! :)</desc>
    <title id="title73"/>
  </rect><path xmlns="http://www.w3.org/2000/svg" id="PurpleSpiral" style="fill: #800080; fill-rule: evenodd; stroke: #000000; stroke-linecap: butt; stroke-linejoin: miter; stroke-opacity: 1; stroke-width: 0.208155px;" fill-opacity="0.430467" onmousedown="Reverse(PurpleSpiral)" transform="translate(25, 25)" d="m 282.091 269.507 c 1.52075 1.52076 -1.29967 2.80025 -2.52761 2.52761 c -3.32763 -0.73884 -3.86257 -5.00113 -2.5276 -7.58281 c 2.38796 -4.61803 8.58895 -5.15902 12.638 -2.5276 c 5.94217 3.86172 6.4939 12.2254 2.5276 17.6932 c -5.28645 7.28768 -15.8792 7.84514 -22.7484 2.52759 c -8.6442 -6.69159 -9.20486 -19.5412 -2.5276 -27.8036 c 8.08706 -10.0069 23.2079 -10.5695 32.8588 -2.52759 c 11.3733 9.47708 11.9372 26.8774 2.52759 37.914 c -10.8637 12.7422 -30.5489 13.3069 -42.9692 2.52759 c -14.1128 -12.2482 -14.6781 -34.2217 -2.52759 -48.0244 c 13.6311 -15.4846 37.8955 -16.0503 53.0797 -2.52759 c 16.8573 15.0128 17.4234 41.5701 2.52759 58.1349" xmlns:sodipodi="http://sodipodi.sourceforge.net/DTD/sodipodi-0.dtd" sodipodi:cy="269.50729" sodipodi:cx="182.09113" sodipodi:type="spiral" sodipodi:t0="0" sodipodi:argument="-18.064157" sodipodi:radius="42.894836" sodipodi:revolution="3" sodipodi:expansion="1" xmlns:inkscape="http://www.inkscape.org/namespaces/inkscape" inkscape:tile-y0="231.95443" inkscape:tile-x0="148.09164" inkscape:tile-w="75.106916" inkscape:tile-h="68.00056" inkscape:tile-cy="265.9547" inkscape:tile-cx="185.6451"/><image xmlns="http://www.w3.org/2000/svg" id="back3" x="1" y="1" width="448" height="448" xmlns:xlink="http://www.w3.org/1999/xlink" xlink:href="creatures/png/back3.png"/><image xmlns="http://www.w3.org/2000/svg" id="galaxy3" style="opacity: 0.5;" onmousedown="tool(eg_newy)" transform="translate(25, 25 )" x="150" y="100" width="294" height="150" xmlns:xlink="http://www.w3.org/1999/xlink" xlink:href="creatures/png/galaxy3.png"/><image xmlns="http://www.w3.org/2000/svg" id="galaxy4" style="opacity: 0.25;" onmousedown="tool(eg_newy2)" transform="translate(25, 12.5 )" x="50" y="250" width="306" height="150" xmlns:xlink="http://www.w3.org/1999/xlink" xlink:href="creatures/png/galaxy4.png"/><image xmlns="http://www.w3.org/2000/svg" id="planet3" style="opacity: 0.5;" onmousedown="tool(eg_niblet)" transform="translate(25, 0.0 )" x="100" y="250" width="157" height="150" xmlns:xlink="http://www.w3.org/1999/xlink" xlink:href="creatures/png/planet3.png"/><image xmlns="http://www.w3.org/2000/svg" id="planet4" style="opacity: 0.9;" onmousedown="tool(eg_medy)" transform="translate(25, 0.0 )" x="300" y="150" width="150" height="150" xmlns:xlink="http://www.w3.org/1999/xlink" xlink:href="creatures/png/planet4.png"/><image xmlns="http://www.w3.org/2000/svg" id="satellite3" onmousedown="tool(satellite3)" transform="translate(25, 25 )" x="200" y="250" width="79" height="150" xmlns:xlink="http://www.w3.org/1999/xlink" xlink:href="creatures/png/satellite3.png"/><image xmlns="http://www.w3.org/2000/svg" id="satellite4" onmousedown="tool(satellite4)" transform="translate(25, 25 )" x="50" y="50" width="109" height="75" xmlns:xlink="http://www.w3.org/1999/xlink" xlink:href="creatures/png/satellite4.png"/><image xmlns="http://www.w3.org/2000/svg" id="mediumcreature3" onmousedown="tool(the_rect)" transform="translate( 0.0 , 25 )" x="300" y="175" width="38" height="50" xmlns:xlink="http://www.w3.org/1999/xlink" xlink:href="creatures/png/mediumcreature3.png"/><image xmlns="http://www.w3.org/2000/svg" id="niblet3" onmousedown="tool(pink_rect)" transform="translate( 0.0 , 25 )" x="400" y="350" width="21" height="32" xmlns:xlink="http://www.w3.org/1999/xlink" xlink:href="creatures/png/niblet3.png"/><image xmlns="http://www.w3.org/2000/svg" id="bigbeauty3" onmousedown="tool(eg_biggo)" transform="translate(25, 0.0 )" x="100" y="150" width="92" height="110" xmlns:xlink="http://www.w3.org/1999/xlink" xlink:href="creatures/png/bigbeauty3.png"/><g xmlns="http://www.w3.org/2000/svg" id="Creature-0.5001561051879404" style="fill:#d819;stroke:#37437" stroke-width="266.5937257674243" opacity="0.9044553806022666" transform="translate(171.2919098220685, 66.44613668841679) rotate(0.40859192319015436 229.75 1672.949951171875)" onmousedown="tool('Creature-0.5001561051879404')" class="creatureClass"><title>Creature-0.5001561051879404</title><desc>moveLifePathCreatureEvo3("Creature-0.5001561051879404", 0.7, 1.2)</desc><path id="Creature-0.5001561051879404-part-0" d="M 103.68806818424069, 1352.0135098694732 Q 158.76089680381963, 2038.5987460260885 63.223844932333996, 2012.4578653329684 T 17.090985830344792, 2512.6089327886584, 78.46789508661081 624.2399374127784, 48.40161764191702 2311.667042063635, 99.51799236954946 1217.498519758731, 96.99069662141387 915.785405164994 z" stroke-width="49.152067775174565" opacity="0.798117106917528" class="creaturePartClass"/><path id="Creature-0.5001561051879404-part-1" d="M 3.3511250720157326, 1596.9116161624863 Q 144.41528660461333, 564.4998503874758 140.2134602575815, 1108.5187254467342 T 88.65158095206867, 1555.1693321841065, 23.628066533210944 1993.9049535076, 138.03801607403224 858.015532228442, 55.27893372835474 892.8540530499645, 113.67033686624976 396.51606376058317 z" stroke-width="76.37835513705744" opacity="0.7358529756883795" class="creaturePartClass"/><path id="Creature-0.5001561051879404-part-2" d="M 49.047425235436116, 526.5940837696166 Q 11.998889917722595, 863.8045887611454 87.39429499042123, 469.7279116907024 T 110.25327199234644, 1559.5495962459765, 9.73781451027505 42.40960422069365, 101.35174362600463 2106.0328644474603, 25.12869708385413 1095.9937531482387, 61.951652616638626 2528.9863185631666 z" stroke-width="97.95606543698483" opacity="0.710498275903821" class="creaturePartClass"/><path id="Creature-0.5001561051879404-part-3" d="M 67.48110913886376, 1457.3071076637414 Q 97.14394191146287, 1622.6071737998543 23.720853002422068, 1035.3515890816777 T 8.205672780346983, 2409.059087907316, 7.344117785851003 1248.0793715267707, 101.75239477314848 2276.5943777754455, 96.24975126379307 1018.1091859482868, 71.51314359964093 2078.5886859835846 z" stroke-width="99.44412401354121" opacity="0.9841452877296959" class="creaturePartClass"/></g><g xmlns="http://www.w3.org/2000/svg" id="Creature-0.9773115653663146" style="fill:#d5e8ff;stroke:#7595b" stroke-width="29.56808397539615" opacity="0.8976288276844874" transform="translate(222.5788011768348, 388.69896224256115) rotate(0.11464361715847378 33.57500457763672 328.47499084472656)" onmousedown="tool('Creature-0.9773115653663146')" class="creatureClass"><title>Creature-0.9773115653663146</title><desc>moveLifePathCreatureEvo("Creature-0.9773115653663146", 1.1, 1.1)</desc><path id="Creature-0.9773115653663146-part-0" d="M 63.69719843951929, 324.071053603642 Q 58.23446071980195, 200.1087177899629 35.189368489787626, 262.2375278139133 T 6.013574708966634, 142.56905889830037, 33.27458750255762 282.7966325303419, 29.026972891620776 165.76999784164062, 36.564524084593955 270.9013053659564, 53.32764642105563 266.50776234801054 z" stroke-width="32.016298443230205" opacity="0.8870896068686865" class="creaturePartClass"/><path id="Creature-0.9773115653663146-part-1" d="M 30.063031356060183, 180.18750590328932 Q 66.57258645409402, 291.8920087817699 58.22461074933389, 87.04835396822946 T 2.366794061763744, 117.38515973857325, 23.316649647249804 231.4560922006988, 34.93667671373547 81.17057020313152, 13.078349780789289 294.9315397556109, 65.67278256403866 344.9746613433714 z" stroke-width="18.78322888710486" opacity="0.6991089086310562" class="creaturePartClass"/><path id="Creature-0.9773115653663146-part-2" d="M 13.734314608674447, 197.6274403691808 Q 31.507582026956825, 295.15315071555364 37.71728266007847, 127.7792686755769 T 20.587231032981446, 41.53717906438936, 54.28546936909399 320.7258407801001, 18.004753583159086 206.47829365960536, 14.169725124901035 114.6012459228525, 50.73072377903054 217.24944548368478 z" stroke-width="37.64474783136946" opacity="0.9809373163553229" class="creaturePartClass"/><path id="Creature-0.9773115653663146-part-3" d="M 1.909846549509263, 21.242361077296575 Q 44.07458786598698, 89.85133632713938 63.17548964548409, 226.32162682986677 T 7.933731753922778, 53.566912946022995, 8.400519894748939 140.7749351876192, 46.973881807717206 235.15668288177864, 58.14401911636006 223.09146996433105, 32.33208193933672 166.2254540679475 z" stroke-width="39.99919499552975" opacity="0.9683957351504534" class="creaturePartClass"/></g></svg>