<?xml version="1.0" encoding="UTF-8" standalone="no"?>
<!-- Created with LifeFLOW (http://life.worldsowisdom.com/flow/) -->

<svg
   xmlns:osb="http://www.openswatchbook.org/uri/2009/osb"
   xmlns:dc="http://purl.org/dc/elements/1.1/"
   xmlns:cc="http://creativecommons.org/ns#"
   xmlns:rdf="http://www.w3.org/1999/02/22-rdf-syntax-ns#"
   xmlns:svg="http://www.w3.org/2000/svg"
   xmlns="http://www.w3.org/2000/svg"
   xmlns:xlink="http://www.w3.org/1999/xlink"
   xmlns:sodipodi="http://sodipodi.sourceforge.net/DTD/sodipodi-0.dtd"
   xmlns:inkscape="http://www.inkscape.org/namespaces/inkscape"
   width="450"
   height="450"
   viewBox="0 0 450 450"
   id="svg2"
   version="1.1"
   inkscape:version="0.91 r13725"
   sodipodi:docname="newcreatures-plain.svg">
  <defs
     id="defs4">
    <linearGradient
       inkscape:collect="always"
       id="linearGradient6501">
      <stop
         style="stop-color:#0000ff;stop-opacity:1;"
         offset="0"
         id="stop6503" />
      <stop
         style="stop-color:#0000ff;stop-opacity:0;"
         offset="1"
         id="stop6505" />
    </linearGradient>
    <linearGradient
       id="linearGradient6455"
       osb:paint="solid">
      <stop
         style="stop-color:#0000ff;stop-opacity:1;"
         offset="0"
         id="stop6457" />
    </linearGradient>
    <filter
       inkscape:collect="always"
       style="color-interpolation-filters:sRGB"
       id="filter5001"
       x="-0.37912726"
       width="1.7582545"
       y="-0.65848422"
       height="2.3169684">
      <feGaussianBlur
         inkscape:collect="always"
         stdDeviation="6.3692616"
         id="feGaussianBlur5003" />
    </filter>
    <linearGradient
       inkscape:collect="always"
       xlink:href="#linearGradient6501"
       id="linearGradient6507"
       x1="242.51431"
       y1="178.50594"
       x2="313.40628"
       y2="178.50594"
       gradientUnits="userSpaceOnUse"
       gradientTransform="translate(-215.03742,319.7082)" />
  </defs>
  <sodipodi:namedview
     id="base"
     pagecolor="#ffffff"
     bordercolor="#666666"
     borderopacity="1.0"
     inkscape:pageopacity="0.0"
     inkscape:pageshadow="2"
     inkscape:zoom="0.24748738"
     inkscape:cx="463.57331"
     inkscape:cy="265.90363"
     inkscape:document-units="px"
     inkscape:current-layer="layer1"
     showgrid="false"
     inkscape:window-width="1366"
     inkscape:window-height="706"
     inkscape:window-x="-8"
     inkscape:window-y="-8"
     inkscape:window-maximized="1"
     units="px" />
  <metadata
     id="metadata7">
    <rdf:RDF>
      <cc:Work
         rdf:about="">
        <dc:format>image/svg+xml</dc:format>
        <dc:type
           rdf:resource="http://purl.org/dc/dcmitype/StillImage" />
        <dc:title></dc:title>
      </cc:Work>
    </rdf:RDF>
  </metadata>
  <g
     inkscape:label="Layer 1"
     inkscape:groupmode="layer"
     id="layer1"
     transform="translate(0,-364.28567)">
    <path
       sodipodi:type="star"
       style="opacity:0.28999999;fill:#00ffff;stroke:#800080"
       id="path4136eg"
       sodipodi:sides="5"
       sodipodi:cx="149.96248"
       sodipodi:cy="470.92843"
       sodipodi:r1="84.03109"
       sodipodi:r2="42.015545"
       sodipodi:arg1="0.31099828"
       sodipodi:arg2="0.93931681"
       inkscape:flatsided="false"
       inkscape:rounded="0"
       inkscape:randomized="0"
       d="m 229.96248,496.64272 -55.19656,8.19877 -24.53782,50.11762 -24.85417,-49.96149 -55.247286,-7.84966 39.835836,-39.07667 -9.60688,-54.96897 49.47407,25.81078 49.30991,-26.12303 -9.25918,55.0286 z"
       inkscape:transform-center-x="-0.082081267"
       inkscape:transform-center-y="7.9461513" />
    <path
       inkscape:transform-center-y="2.4320959"
       inkscape:transform-center-x="-0.025122895"
       d="m 68.791599,427.6385 -16.894071,2.5094 -7.510317,15.33956 -7.607143,-15.29177 -16.909598,-2.40255 12.192598,-11.96024 -2.940388,-16.82442 15.142583,7.89994 15.092337,-7.99551 -2.833967,16.84267 z"
       inkscape:randomized="0"
       inkscape:rounded="0"
       inkscape:flatsided="false"
       sodipodi:arg2="0.93931681"
       sodipodi:arg1="0.31099828"
       sodipodi:r2="12.859744"
       sodipodi:r1="25.719488"
       sodipodi:cy="419.76809"
       sodipodi:cx="44.305912"
       sodipodi:sides="5"
       id="path4138eg"
       style="opacity:0.28999999;fill:#00ffff;stroke:#800080;stroke-width:0.3060711"
       sodipodi:type="star" />
    <g
       id="BiggoEGbg"
       transform="translate(-109.96232,143.76849)">
      <desc
         id="desc4151">A big creature for LifeFLOW! :)</desc>
      <circle
         r="29.934187"
         cy="259.14496"
         cx="302.39636"
         id="path4137eg"
         style="opacity:0.28999999;fill:#ffff00;stroke:#800080;stroke-width:0.6047619" />
      <circle
         r="7.3308215"
         cy="265.86487"
         cx="307.8945"
         id="path4139eg"
         style="opacity:0.28999999;fill:#ffff00;stroke:#800080;stroke-width:0.6047619" />
      <ellipse
         ry="10.996231"
         rx="3.6654108"
         cy="251.20323"
         cx="292.01105"
         id="path4141eg"
         style="opacity:0.28999999;fill:#0000ff;stroke:#800080;stroke-width:0.6047619" />
      <ellipse
         ry="3.6654108"
         rx="9.7744284"
         cy="253.64687"
         cx="317.66891"
         id="path4143eg"
         style="opacity:0.28999999;fill:#0000ff;stroke:#800080;stroke-width:0.6047619" />
    </g>
    <rect
       style="opacity:0.87000002;fill:url(#linearGradient6507);fill-opacity:1;stroke:#0000ff;stroke-width:0.6047619;stroke-miterlimit:4;stroke-dasharray:none;filter:url(#filter5001)"
       id="MedyEGbg"
       width="40.319515"
       height="23.214266"
       x="42.763119"
       y="486.60684" />
    <g
       id="g6519eg"
       inkscape:label="#MedyEG"
       transform="translate(0,53.355016)">
      <rect
         y="281.74832"
         x="59.868374"
         height="31.766891"
         width="63.533783"
         id="rect6509eg"
         style="opacity:0.87000002;fill:#0000ff;fill-opacity:1;stroke:#0000ff;stroke-width:0.6047619;stroke-miterlimit:4;stroke-dasharray:none" />
      <path
         inkscape:transform-center-y="-0.19571458"
         inkscape:transform-center-x="0.72308977"
         d="m 81.860835,300.07539 -6.160837,-1.4834 -4.714657,4.23419 -0.493011,-6.31769 -5.483865,-3.17547 5.856139,-2.42116 1.325442,-6.19674 4.112304,4.82134 6.303033,-0.65433 -3.314595,5.40091 z"
         inkscape:randomized="0"
         inkscape:rounded="0"
         inkscape:flatsided="false"
         sodipodi:arg2="1.3230568"
         sodipodi:arg1="0.69473828"
         sodipodi:r2="4.7712951"
         sodipodi:r1="9.5425901"
         sodipodi:cy="293.96637"
         sodipodi:cx="74.530014"
         sodipodi:sides="5"
         id="path6511eg"
         style="opacity:0.87000002;fill:#ff8080;fill-opacity:1;stroke:#0000ff;stroke-width:0.6047619;stroke-miterlimit:4;stroke-dasharray:none"
         sodipodi:type="star" />
      <path
         inkscape:transform-center-y="0.22428177"
         inkscape:transform-center-x="0.37755769"
         d="m 108.74051,312.2934 -1.06782,-3.99694 -3.89796,-1.38629 3.47135,-2.25068 0.1139,-4.13556 3.21323,2.60595 3.96835,-1.16963 -1.48546,3.86124 2.33867,3.41269 -4.13129,-0.21956 z"
         inkscape:randomized="0"
         inkscape:rounded="0"
         inkscape:flatsided="false"
         sodipodi:arg2="2.3965104"
         sodipodi:arg1="1.7681919"
         sodipodi:r2="3.115"
         sodipodi:r1="6.23"
         sodipodi:cy="306.18439"
         sodipodi:cx="109.96231"
         sodipodi:sides="5"
         id="path6513eg"
         style="opacity:0.87000002;fill:#ff8080;fill-opacity:1;stroke:#0000ff;stroke-width:0.6047619;stroke-miterlimit:4;stroke-dasharray:none"
         sodipodi:type="star" />
      <path
         inkscape:transform-center-y="-0.16705416"
         inkscape:transform-center-x="0.16705535"
         d="m 92.857067,295.18814 -2.173306,-0.73698 -1.839194,1.3725 0.02933,-2.29468 -1.873674,-1.32505 2.191432,-0.6812 0.6812,-2.19143 1.32505,1.87368 2.294678,-0.0293 -1.372506,1.8392 z"
         inkscape:randomized="0"
         inkscape:rounded="0"
         inkscape:flatsided="false"
         sodipodi:arg2="1.4137167"
         sodipodi:arg1="0.78539816"
         sodipodi:r2="1.727891"
         sodipodi:r1="3.4557824"
         sodipodi:cy="292.74454"
         sodipodi:cx="90.41346"
         sodipodi:sides="5"
         id="path6515eg"
         style="opacity:0.87000002;fill:#ff8080;fill-opacity:1;stroke:#0000ff;stroke-width:0.6047619;stroke-miterlimit:4;stroke-dasharray:none"
         sodipodi:type="star" />
      <path
         inkscape:transform-center-y="-0.1121867"
         inkscape:transform-center-x="-0.63956251"
         d="m 84.736419,309.55335 2.201552,-4.70569 -2.628342,-4.48131 5.155694,0.63966 3.44978,-3.8845 0.984842,5.10102 4.760422,2.08056 -4.547027,2.51294 -0.507677,5.17036 -3.79506,-3.54794 z"
         inkscape:randomized="0"
         inkscape:rounded="0"
         inkscape:flatsided="false"
         sodipodi:arg2="3.0951702"
         sodipodi:arg1="2.4668517"
         sodipodi:r2="3.9116797"
         sodipodi:r1="7.8233595"
         sodipodi:cy="304.66614"
         sodipodi:cx="90.845436"
         sodipodi:sides="5"
         id="path6517eg"
         style="opacity:0.87000002;fill:#ff8080;fill-opacity:1;stroke:#0000ff;stroke-width:0.6047619;stroke-miterlimit:4;stroke-dasharray:none"
         sodipodi:type="star" />
    </g>
    <path
       sodipodi:type="spiral"
       style="fill:#00ffff;fill-rule:evenodd;stroke:#000000;stroke-width:0.6047619px;stroke-linecap:butt;stroke-linejoin:miter;stroke-opacity:1"
       id="eaglynew2"
       sodipodi:cx="73.308212"
       sodipodi:cy="393.74982"
       sodipodi:expansion="1"
       sodipodi:revolution="3"
       sodipodi:radius="41.613129"
       sodipodi:argument="-18.147299"
       sodipodi:t0="0"
       d="m 73.308212,393.74982 c 1.592741,1.3477 -1.030876,2.81189 -2.239973,2.64724 -3.276579,-0.4462 -4.137127,-4.52375 -3.054508,-7.12719 1.936552,-4.65694 7.887895,-5.67954 12.014402,-3.46177 6.055815,3.25466 7.263028,11.296 3.869042,16.90161 -4.52365,7.4714 -14.719492,8.86373 -21.788831,4.27631 -8.896041,-5.77281 -10.473289,-18.15026 -4.683575,-26.67604 7.01212,-10.32587 21.585119,-12.08797 31.563258,-5.09085 11.758893,8.24586 13.705843,25.02253 5.49811,36.45048 -9.476152,13.19401 -28.461631,15.32586 -41.337687,5.90537 -14.630593,-10.70415 -16.947384,-31.90193 -6.312644,-46.2249 11.930572,-16.06821 35.343106,-18.56999 51.112116,-6.71991 17.506588,13.15584 20.193418,38.78494 7.127178,55.99933">
      <desc
         id="desc6528">a new test shape to play with! :)</desc>
    </path>
    <path
       d="m 205.26299,520.81738 c 1.59274,1.34771 -1.03088,2.8119 -2.23998,2.64724 -3.27658,-0.44619 -4.13713,-4.52374 -3.05451,-7.12718 1.93656,-4.65695 7.8879,-5.67955 12.01441,-3.46178 6.05581,3.25466 7.26302,11.296 3.86904,16.90162 -4.52365,7.4714 -14.71949,8.86373 -21.78883,4.27631 -8.89604,-5.77281 -10.47329,-18.15027 -4.68358,-26.67605 7.01212,-10.32586 21.58512,-12.08796 31.56326,-5.09084 11.75889,8.24586 13.70584,25.02252 5.49811,36.45047 -9.47615,13.19402 -28.46163,15.32587 -41.33769,5.90538 -14.63059,-10.70416 -16.94738,-31.90193 -6.31264,-46.2249 11.93057,-16.06821 35.3431,-18.57 51.11211,-6.71991 17.50659,13.15583 20.19342,38.78493 7.12718,55.99933"
       sodipodi:t0="0"
       sodipodi:argument="-18.147299"
       sodipodi:radius="41.613129"
       sodipodi:revolution="3"
       sodipodi:expansion="1"
       sodipodi:cy="520.81738"
       sodipodi:cx="205.26299"
       id="path6530eg"
       style="fill:#800000;fill-rule:evenodd;stroke:#000000;stroke-width:0.6047619px;stroke-linecap:butt;stroke-linejoin:miter;stroke-opacity:1"
       sodipodi:type="spiral">
      <desc
         id="desc6532">a new test shape to play with! :)</desc>
    </path>
  </g>
  <rect
     height="448"
     id="Border"
     style="fill:none;stroke:#800080;stroke-width:0.60342091"
     width="448"
     x="1"
     y="1" />
	 
	 
	 <!-- creatures from original versions! :) -->
	 
			<a style="fill-opacity:0.75" xlink:href="http://life.worldsowisdom.com/flow/"> <rect height="90" id="YellowRect" onmouseout="setAttribute('fill-opacity','0.5')" onmouseover="setAttribute('fill-opacity','1.0')" style="fill:yellow;stroke:#000000" width="90" x="150" y="90"> <desc id="desc3364">A clickable square!</desc>
			<title id="title3362"></title>
			</rect> </a> <a style="fill-opacity:0.75" xlink:href="http://life.worldsowisdom.com/flow/">
			<rect height="90" id="OrangeRect" onmouseout="setAttribute('fill-opacity','0.75')" onmouseover="setAttribute('fill-opacity','1.0')" style="fill:orange;stroke:#000000" width="90" x="60" y="300"> <desc id="desc3364">A clickable square!</desc>
			<title id="title3362"></title>
			</rect> </a>

<path xmlns="http://www.w3.org/2000/svg" sodipodi:type="spiral" xmlns:sodipodi="http://sodipodi.sourceforge.net/DTD/sodipodi-0.dtd" style="fill:#00ffff;fill-rule:evenodd;stroke:#000000;stroke-width:0.6047619px;stroke-linecap:butt;stroke-linejoin:miter;stroke-opacity:1" id="eaglynew" sodipodi:cx="73.308212" sodipodi:cy="393.74982" sodipodi:expansion="1" sodipodi:revolution="3" sodipodi:radius="41.613129" sodipodi:argument="-18.147299" sodipodi:t0="0" d="m 73.308212,393.74982 c 1.592741,1.3477 -1.030876,2.81189 -2.239973,2.64724 -3.276579,-0.4462 -4.137127,-4.52375 -3.054508,-7.12719 1.936552,-4.65694 7.887895,-5.67954 12.014402,-3.46177 6.055815,3.25466 7.263028,11.296 3.869042,16.90161 -4.52365,7.4714 -14.719492,8.86373 -21.788831,4.27631 -8.896041,-5.77281 -10.473289,-18.15026 -4.683575,-26.67604 7.01212,-10.32587 21.585119,-12.08797 31.563258,-5.09085 11.758893,8.24586 13.705843,25.02253 5.49811,36.45048 -9.476152,13.19401 -28.461631,15.32586 -41.337687,5.90537 -14.630593,-10.70415 -16.947384,-31.90193 -6.312644,-46.2249 11.930572,-16.06821 35.343106,-18.56999 51.112116,-6.71991 17.506588,13.15584 20.193418,38.78494 7.127178,55.99933" transform="translate(25, 25 )">
    <desc id="desc36">a new test shape to play with! :)</desc>
  </path><rect xmlns="http://www.w3.org/2000/svg" height="10" id="AvrilNiblet1" onmouseout="setAttribute('fill-opacity','0.5')" onmouseover="setAttribute('fill-opacity','1.0')" style="fill:yellow;stroke:black" width="10" x="225" y="225" transform="translate(25, 25 )">
    <desc id="desc71">Avril's first little niblet! :)</desc>
    <title id="title73"/>
  </rect><path xmlns="http://www.w3.org/2000/svg" fill-opacity="0.43046721000000016" onmousedown="Reverse(PurpleSpiral)" id="PurpleSpiral" d="m 282.09113,269.50729 c 1.52075,1.52076 -1.29967,2.80025 -2.52761,2.52761 -3.32763,-0.73884 -3.86257,-5.00113 -2.5276,-7.58281 2.38796,-4.61803 8.58895,-5.15902 12.63801,-2.5276 5.94217,3.86172 6.4939,12.22544 2.5276,17.69322 -5.28645,7.28768 -15.87921,7.84514 -22.74842,2.52759 -8.6442,-6.69159 -9.20486,-19.54122 -2.5276,-27.80363 8.08706,-10.00688 23.20787,-10.56947 32.85884,-2.52759 11.37333,9.47708 11.93717,26.8774 2.52759,37.91404 -10.86373,12.74223 -30.54887,13.30692 -42.96924,2.52759 -14.11282,-12.24817 -14.67812,-34.22169 -2.52759,-48.02445 13.63105,-15.4846 37.8955,-16.05034 53.07965,-2.52759 16.85728,15.01283 17.42336,41.57006 2.52759,58.13486" inkscape:tile-cx="185.6451" xmlns:inkscape="http://www.inkscape.org/namespaces/inkscape" inkscape:tile-cy="265.9547" inkscape:tile-h="68.00056" inkscape:tile-w="75.106916" inkscape:tile-x0="148.09164" inkscape:tile-y0="231.95443" sodipodi:argument="-18.064157" xmlns:sodipodi="http://sodipodi.sourceforge.net/DTD/sodipodi-0.dtd" sodipodi:cx="182.09113" sodipodi:cy="269.50729" sodipodi:expansion="1" sodipodi:radius="42.894836" sodipodi:revolution="3" sodipodi:t0="0" sodipodi:type="spiral" style="fill:#800080;fill-rule:evenodd;stroke:#000000;stroke-width:0.2081555px;stroke-linecap:butt;stroke-linejoin:miter;stroke-opacity:1" transform="translate(25, 25)"/><image xmlns="http://www.w3.org/2000/svg" id="back3" width="448" height="448" x="1" y="1" xlink:href="creatures/png/back3.png" xmlns:xlink="http://www.w3.org/1999/xlink"/><image xmlns="http://www.w3.org/2000/svg" id="galaxy3" width="294" height="150" x="150" y="100" style="opacity:0.5" onmousedown="tool(eg_newy)" xlink:href="creatures/png/galaxy3.png" xmlns:xlink="http://www.w3.org/1999/xlink" transform="translate(25, 25 )"/><image xmlns="http://www.w3.org/2000/svg" id="galaxy4" width="306" height="150" x="50" y="250" style="opacity:0.25" onmousedown="tool(eg_newy2)" xlink:href="creatures/png/galaxy4.png" xmlns:xlink="http://www.w3.org/1999/xlink" transform="translate(25, 12.5 )"/><image xmlns="http://www.w3.org/2000/svg" id="planet3" width="157" height="150" x="100" y="250" style="opacity:0.5" onmousedown="tool(eg_niblet)" xlink:href="creatures/png/planet3.png" xmlns:xlink="http://www.w3.org/1999/xlink" transform="translate(25, 0.0 )"/><image xmlns="http://www.w3.org/2000/svg" id="planet4" width="150" height="150" x="300" y="150" style="opacity:0.9" onmousedown="tool(eg_medy)" xlink:href="creatures/png/planet4.png" xmlns:xlink="http://www.w3.org/1999/xlink" transform="translate(25, 0.0 )"/><image xmlns="http://www.w3.org/2000/svg" id="satellite3" width="79" height="150" x="200" y="250" onmousedown="tool(satellite3)" xlink:href="creatures/png/satellite3.png" xmlns:xlink="http://www.w3.org/1999/xlink" transform="translate(25, 25 )"/><image xmlns="http://www.w3.org/2000/svg" id="satellite4" width="109" height="75" x="50" y="50" onmousedown="tool(satellite4)" xlink:href="creatures/png/satellite4.png" xmlns:xlink="http://www.w3.org/1999/xlink" transform="translate(25, 25 )"/><image xmlns="http://www.w3.org/2000/svg" id="mediumcreature3" width="38" height="50" x="300" y="175" onmousedown="tool(the_rect)" xlink:href="creatures/png/mediumcreature3.png" xmlns:xlink="http://www.w3.org/1999/xlink" transform="translate( 0.0 , 25 )"/><image xmlns="http://www.w3.org/2000/svg" id="niblet3" width="21" height="32" x="400" y="350" onmousedown="tool(pink_rect)" xlink:href="creatures/png/niblet3.png" xmlns:xlink="http://www.w3.org/1999/xlink" transform="translate( 0.0 , 25 )"/><image xmlns="http://www.w3.org/2000/svg" id="bigbeauty3" width="92" height="110" x="100" y="150" onmousedown="tool(eg_biggo)" xlink:href="creatures/png/bigbeauty3.png" xmlns:xlink="http://www.w3.org/1999/xlink" transform="translate(25, 0.0 )"/><g xmlns="http://www.w3.org/2000/svg" id="Creature-0.8455191642892359" style="fill:#b78ab0;stroke:#15544f" stroke-width="39.582486586125555" opacity="0.812913470934963" transform="translate(285.24506850390117, 448.5226362545492) rotate(0.24426564487579397 348.3833312988281 657.4416961669922)" onmousedown="tool('Creature-0.8455191642892359')" class="creatureClass"><title>Creature-0.8455191642892359</title><desc>moveLifePathCreatureEvo2("Creature-0.8455191642892359", 0.7, 1.2)</desc><path id="Creature-0.8455191642892359-part-0" d="M 48.4623618596213, 10.012790187386349 Q 6.558912190172213, 310.544708950978 51.73415557692506, 255.16306426501868 T 40.27346982523947, 148.55967346845932, 37.48013437719698 106.53544716291125, 0.037142519276077306 356.486159208643, 2.3004262337447736 402.7126868147631, 2.148472969777602 304.32086376331193 z" stroke-width="43.08844883089434" opacity="0.550143596438472" class="creaturePartClass"/><path id="Creature-0.8455191642892359-part-1" d="M 22.020185784090792, 119.3924860886797 Q 5.454147190728123, 296.4515828804587 5.203288101096557, 458.9692525859658 T 47.33862648866164, 97.31052878762257, 43.30603903033586 329.12050572595484, 37.74409407513873 340.3491905258415, 27.77601784349208 333.40791621686145, 60.874094625042815 349.99733970472266 z" stroke-width="7.649823711598663" opacity="0.9632260217145071" class="creaturePartClass"/><path id="Creature-0.8455191642892359-part-2" d="M 13.916850749703187, 403.3547186389251 Q 39.47831993669676, 244.98490249265797 55.75911030665085, 209.3960266875184 T 35.37662299901327, 205.5778809836616, 55.20518058196628 382.2251075274454, 52.852615908488886 285.8101471844882, 48.73679503992959 423.9299521911767, 55.49251564639131 20.692253194032855 z" stroke-width="21.504726024438092" opacity="0.29024998664169704" class="creaturePartClass"/><path id="Creature-0.8455191642892359-part-3" d="M 39.429111739062684, 237.92692344715888 Q 45.76416173990951, 118.7013957229522 52.63503561709989, 422.5577030218346 T 35.78810515131522, 124.15745480491708, 48.36720774526475 92.42228755517638, 4.641375061761459 59.846051647701984, 58.69133033712759 305.2422565733436, 47.20320958517534 259.7077680199509 z" stroke-width="34.380079922228205" opacity="0.6521897762573466" class="creaturePartClass"/><g id="Creature-0.33516930465919337" style="fill:#28ffa6;stroke:#3ce93d" stroke-width="42.55932619081128" opacity="0.6590302758262433" transform="translate(9.260935208860216, 384.60836217006647) rotate(0.004325992130192247 434.9500045776367 176.99166870117188)" onmousedown="tool('Creature-0.33516930465919337')" class="creatureClass"><title>Creature-0.33516930465919337</title><desc>moveLifePathCreatureEvo2("Creature-0.33516930465919337", 0.7, 1.2)</desc><path id="Creature-0.33516930465919337-part-0" d="M 14.487442660464685, 60.711410559319674 Q 2.0466815281565793, 38.662072940667706 19.35610128630383, 23.18155780300093 T 0.5539586858140417, 26.30108400649332, 5.781319802918608 3.4361323718611008, 13.524874784882732 64.1607975178534, 12.181912788432538 54.476125297259514, 16.15653612726029 8.355119334289348 z" stroke-width="29.080308166923984" opacity="0.5117012057475844" class="creaturePartClass"/><path id="Creature-0.33516930465919337-part-1" d="M 7.559584144971151, 51.99083152118631 Q 17.1188134685104, 60.179240126373045 6.85194205223239, 6.0143866543435145 T 5.08783727262081, 27.46427397014407, 4.752456904105508 9.457446831649085, 4.613926805142667 62.29267002919326, 0.4037627980954005 8.158155802362808, 16.351114136361055 49.74328019524757 z" stroke-width="8.817836925619032" opacity="0.981789620800685" class="creaturePartClass"/><path id="Creature-0.33516930465919337-part-2" d="M 1.686569433173024, 61.04869767036078 Q 16.24892800532204, 61.040455159833655 14.418984375075581, 18.546311780955346 T 8.643357547019294, 45.19777187924204, 13.390403126355068 49.79258668135192, 16.83408490584158 18.294102251644773, 12.251929817396181 46.02848782458656, 8.609912294223637 46.74014547507317 z" stroke-width="53.196040210962174" opacity="0.6018197579942459" class="creaturePartClass"/><path id="Creature-0.33516930465919337-part-3" d="M 16.323611543359725, 38.09858850089228 Q 14.152292569100732, 6.81578763442029 19.22990566181534, 65.22866281893704 T 0.5864295301467235, 47.54532333804696, 13.883960430682468 8.970999983601125, 9.667492036975442 45.917950132102405, 7.58292172395117 36.25790588764233, 7.919862671654212 23.19211870828493 z" stroke-width="20.6181105779186" opacity="0.8878746531444727" class="creaturePartClass"/></g></g><g xmlns="http://www.w3.org/2000/svg" id="Creature-0.33516930465919337" style="fill:#28ffa6;stroke:#3ce93d" stroke-width="42.55932619081128" opacity="0.6590302758262433" transform="translate(9.260935208860216, 384.60836217006647) rotate(0.004325992130192247 434.9500045776367 176.99166870117188)" onmousedown="tool('Creature-0.33516930465919337')" class="creatureClass"><title>Creature-0.33516930465919337</title><desc>moveLifePathCreatureEvo2("Creature-0.33516930465919337", 0.7, 1.2)</desc><path id="Creature-0.33516930465919337-part-0" d="M 14.487442660464685, 60.711410559319674 Q 2.0466815281565793, 38.662072940667706 19.35610128630383, 23.18155780300093 T 0.5539586858140417, 26.30108400649332, 5.781319802918608 3.4361323718611008, 13.524874784882732 64.1607975178534, 12.181912788432538 54.476125297259514, 16.15653612726029 8.355119334289348 z" stroke-width="29.080308166923984" opacity="0.5117012057475844" class="creaturePartClass"/><path id="Creature-0.33516930465919337-part-1" d="M 7.559584144971151, 51.99083152118631 Q 17.1188134685104, 60.179240126373045 6.85194205223239, 6.0143866543435145 T 5.08783727262081, 27.46427397014407, 4.752456904105508 9.457446831649085, 4.613926805142667 62.29267002919326, 0.4037627980954005 8.158155802362808, 16.351114136361055 49.74328019524757 z" stroke-width="8.817836925619032" opacity="0.981789620800685" class="creaturePartClass"/><path id="Creature-0.33516930465919337-part-2" d="M 1.686569433173024, 61.04869767036078 Q 16.24892800532204, 61.040455159833655 14.418984375075581, 18.546311780955346 T 8.643357547019294, 45.19777187924204, 13.390403126355068 49.79258668135192, 16.83408490584158 18.294102251644773, 12.251929817396181 46.02848782458656, 8.609912294223637 46.74014547507317 z" stroke-width="53.196040210962174" opacity="0.6018197579942459" class="creaturePartClass"/><path id="Creature-0.33516930465919337-part-3" d="M 16.323611543359725, 38.09858850089228 Q 14.152292569100732, 6.81578763442029 19.22990566181534, 65.22866281893704 T 0.5864295301467235, 47.54532333804696, 13.883960430682468 8.970999983601125, 9.667492036975442 45.917950132102405, 7.58292172395117 36.25790588764233, 7.919862671654212 23.19211870828493 z" stroke-width="20.6181105779186" opacity="0.8878746531444727" class="creaturePartClass"/></g><g xmlns="http://www.w3.org/2000/svg" id="Creature-0.16484066189239344" style="fill:#adf454;stroke:#2d3662" stroke-width="36.72636157075643" opacity="0.8471260793886726" transform="translate(0,0)" onmousedown="tool('Creature-0.16484066189239344')" class="creatureClass"><title>Creature-0.16484066189239344</title><desc>moveLifePathCreatureEvo2("Creature-0.16484066189239344", 0.7, 1.2)</desc><path id="Creature-0.16484066189239344-part-0" d="M 85.95953171949829, 50.76699685470352 Q 38.308767236890965, 19.500028127803777 62.38219312125602, 139.41514174307395 T 114.98910891263687, 183.2648156445481, 90.96761740561908 31.847192298459206, 83.3335403736487 239.34946306192438, 123.49182597017962 219.23796713423374, 15.49886993271357 60.384975968371066 z" stroke-width="15.553645516174065" opacity="0.8311482093516225" class="creaturePartClass"/><path id="Creature-0.16484066189239344-part-1" d="M 67.27865145219764, 56.44491728419388 Q 130.34729564749588, 48.929959969328316 9.52546771383051, 222.1278840572941 T 119.92590148135353, 241.89515748226805, 39.27327204030779 28.105986074219715, 15.856104302387147 239.5474268893521, 83.4975774982974 101.55544440984144, 28.24888447383997 36.38064262411355 z" stroke-width="34.44655103860942" opacity="0.46338033611471857" class="creaturePartClass"/><path id="Creature-0.16484066189239344-part-2" d="M 94.41995030871442, 139.64604473971696 Q 81.25675648056375, 95.1416098612445 38.49007965037412, 100.51149947405472 T 120.26458528407778, 245.04360180107852, 19.67316610553834 227.5163313385036, 100.46032440929613 77.57466619902044, 85.74854076312508 185.2893936468778, 1.7930990467662034 171.8969424633928 z" stroke-width="16.17533026117354" opacity="0.7321668639326172" class="creaturePartClass"/><path id="Creature-0.16484066189239344-part-3" d="M 19.70955232201146, 193.43348448370566 Q 109.23913675022419, 75.1804265268624 105.42442753049167, 42.02448771327216 T 33.53003651761671, 145.90729843951968, 19.818453070339228 222.8416313449795, 119.05557525820404 35.51413990462521, 59.197454113138186 233.51576351244194, 94.30731580259459 10.918136827922764 z" stroke-width="28.595344091380067" opacity="0.24702984924348687" class="creaturePartClass"/></g><g xmlns="http://www.w3.org/2000/svg" id="Creature-0.980488949744787" style="fill:#306711;stroke:#649c02" stroke-width="11.276160604195706" opacity="0.8745407122258324" transform="translate(0,0)" onmousedown="tool('Creature-0.980488949744787')" class="creatureClass"><title>Creature-0.980488949744787</title><desc>moveLifePathCreatureEvo2("Creature-0.980488949744787", 0.7, 1.2)</desc><path id="Creature-0.980488949744787-part-0" d="M 77.00817871416766, 8.887471370901919 Q 32.38251551737974, 8.407784216700163 37.8940208091778, 7.24461012737574 T 119.0142639831637, 5.972650094896354, 97.69838830705584 7.87333385871556, 58.17186321453471 5.517629903527248, 53.13435809712779 0.2970833416056302, 43.33337558297416 2.1373888764769524 z" stroke-width="2.349062017897119" opacity="0.695272947483525" class="creaturePartClass"/><path id="Creature-0.980488949744787-part-1" d="M 86.84002607295312, 2.966083556122899 Q 36.28441481910457, 0.9788357366750084 114.16489889602762, 4.746683163919973 T 45.33805093726915, 4.679584501809026, 6.255930060831762 3.651919501706109, 105.44110709624239 7.8478152685556415, 91.48020204812488 2.8199287248631206, 64.87511433433053 6.833249949987116 z" stroke-width="48.15520675645401" opacity="0.8523365268250863" class="creaturePartClass"/><path id="Creature-0.980488949744787-part-2" d="M 105.08704714816689, 4.4558501208625 Q 93.90492016963833, 2.071206213353763 92.28814042887694, 3.3133052052016727 T 46.80459090501365, 0.027442580585562353, 95.07348989432761 0.9458532891829406, 131.46931371015407 4.868407844672955, 143.92868531427035 6.952210338703494, 136.77810795651436 0.23584743418494858 z" stroke-width="91.94929184805443" opacity="0.973477424157479" class="creaturePartClass"/><path id="Creature-0.980488949744787-part-3" d="M 18.886579201703864, 0.07076935857513675 Q 11.948209246826115, 1.206849086776895 139.01829456046332, 2.5727547916794995 T 160.3501816053589, 1.6062565277473058, 65.94196242656672 0.6790961913906084, 28.978535398900938 4.7782687390937175, 121.94962158398309 3.834407814298504, 2.841495740131304 1.4854248863183517 z" stroke-width="21.629336539314806" opacity="0.8674744524179405" class="creaturePartClass"/></g><g xmlns="http://www.w3.org/2000/svg" id="Creature-0.21855108420058955" style="fill:#77032d;stroke:#33882b" stroke-width="69.48284280615967" opacity="0.7702664408465923" transform="translate(159.86791953039932, 181.97348229768693) rotate(0.20418639416537068 106.25 378.7833251953125)" onmousedown="tool('Creature-0.21855108420058955')" class="creatureClass"><title>Creature-0.21855108420058955</title><desc>moveLifePathCreatureEvo2("Creature-0.21855108420058955", 0.7, 1.2)</desc><path id="Creature-0.21855108420058955-part-0" d="M 5.176562799740677, 85.23402363826254 Q 17.489978612652546, 222.1125775052616 30.04898495733809, 356.84106547770705 T 46.82383876441216, 323.97705568177497, 0.3739212933474571 294.434435340484, 17.46143546992665 337.7329211378693, 52.54747113549516 232.53694354645216, 30.268616105805325 397.36332871599524 z" stroke-width="40.34861829165691" opacity="0.9572994526192373" class="creaturePartClass"/><path id="Creature-0.21855108420058955-part-1" d="M 51.233980351910326, 167.90632475360766 Q 48.3009263956413, 374.865428198278 36.1469318341257, 340.0976653027867 T 32.64665614602453, 62.31437874016694, 13.887837355922754 374.33310083258186, 31.88434032128427 301.89412826183604, 43.861243286108305 44.13139577208629, 30.73144164505059 31.39912730593498 z" stroke-width="22.489746192942405" opacity="0.17366869245890337" class="creaturePartClass"/><path id="Creature-0.21855108420058955-part-2" d="M 14.059040849191064, 136.80811636776744 Q 10.496219583821391, 276.1928483402809 34.648116464221324, 145.21343317822928 T 25.488263405134497, 338.20572616583644, 48.893952241564854 171.94300627413045, 28.896615020649048 260.9735291936359, 55.15897351480979 204.67454875757406, 17.843240043900334 309.26737195087196 z" stroke-width="84.87106782668563" opacity="0.938860731101986" class="creaturePartClass"/><path id="Creature-0.21855108420058955-part-3" d="M 43.40416328127736, 202.4212363200008 Q 24.148820593853156, 294.6270061368658 5.237247916799783, 107.81830927124831 T 39.19338139532566, 56.20235081578925, 13.117313691169864 136.1631398965475, 38.12335994819954 333.99480331524313, 11.648513880817898 223.0459326597368, 19.94623279940459 133.31558743871375 z" stroke-width="2.824744027451204" opacity="0.8042190555792802" class="creaturePartClass"/></g><g xmlns="http://www.w3.org/2000/svg" id="Creature-0.5202324895883611" style="fill:#d7937d;stroke:#490240" stroke-width="68.60405498199243" opacity="0.9633661959650083" transform="translate(0,0)" onmousedown="tool('Creature-0.5202324895883611')" class="creatureClass"><title>Creature-0.5202324895883611</title><desc>moveLifePathCreatureEvo2("Creature-0.5202324895883611", 0.7, 1.2)</desc><path id="Creature-0.5202324895883611-part-0" d="M 54.23670031592968, 67.86366076004917 Q 73.2675968473069, 137.83400574413233 72.44354364179037, 198.9658531968742 T 29.364584905866682, 52.34439133547024, 25.184960390792376 158.828987683556, 13.783463864670551 194.66790465911262, 75.59911251341808 55.607441933969874, 54.085252010751965 158.28887888392384 z" stroke-width="20.65787179959278" opacity="0.8248183688743159" class="creaturePartClass"/><path id="Creature-0.5202324895883611-part-1" d="M 27.83085920305645, 61.62663946744229 Q 48.320472359885116, 143.4488650701668 116.7865787846232, 105.63731455361636 T 27.69839489665254, 41.07674759129369, 89.3420016546038 193.5505984996855, 115.54838361620956 202.97943160309782, 107.7519282639135 169.39089673756766, 83.32520192898293 205.2244219128639 z" stroke-width="49.170696833952796" opacity="0.653807037202137" class="creaturePartClass"/><path id="Creature-0.5202324895883611-part-2" d="M 24.352632118940814, 149.39158373676764 Q 24.46851793084394, 107.90141152903512 105.27584226219085, 62.4860590605028 T 28.578435621165426, 87.36393461876638, 35.29396928742708 115.09264653159464, 24.88031178241361 98.36405160012553, 86.87737458244943 61.79541973058429, 37.01176083155602 135.86127664997412 z" stroke-width="83.85036072242839" opacity="0.9378865931468243" class="creaturePartClass"/><path id="Creature-0.5202324895883611-part-3" d="M 97.90127209173671, 171.85351267631032 Q 79.76830030616358, 205.183997901154 121.26498212270765, 125.76793577905524 T 127.7122303704216, 48.95129444092318, 101.53959642697957 33.299903859988355, 54.37053958943422 34.65978035757548, 73.29386901141814 17.030780232468505, 15.5030344477393 12.816828457630958 z" stroke-width="8.996866379675755" opacity="0.6366493806135716" class="creaturePartClass"/></g><g xmlns="http://www.w3.org/2000/svg" id="Creature-0.18763828409087124" style="fill:#c5296f;stroke:#d5b7b5" stroke-width="40.32316508841688" opacity="0.7165764171493321" transform="translate(350.47299583868084, 70.59748042187455) rotate(0.005757781505471216 26.166664123535156 314.15000915527344)" onmousedown="tool('Creature-0.18763828409087124')" class="creatureClass"><title>Creature-0.18763828409087124</title><desc>moveLifePathCreatureEvo2("Creature-0.18763828409087124", 0.7, 1.2)</desc><path id="Creature-0.18763828409087124-part-0" d="M 2.498349861112904, 382.8149865412035 Q 24.22516303599247, 392.7167371132111 19.14687331860385, 69.69812478289768 T 16.304287803131597, 108.4108219570028, 20.942064434308996 500.12061938785615, 12.952133899189514 121.16511282271088, 37.88597255792265 175.78792726674243, 24.806898204320564 467.5264506610666 z" stroke-width="28.014106756908337" opacity="0.8077905917312994" class="creaturePartClass"/><path id="Creature-0.18763828409087124-part-1" d="M 24.61743108034181, 82.24533114314006 Q 9.211101742420343, 37.095690048673504 12.701679750347859, 31.251729581506897 T 26.00628034991983, 208.7595284781247, 7.629667998338864 195.98654003247256, 1.5671803880403805 162.2337942540985, 36.678929231591226 60.18317456945144, 38.978716530692665 508.98533912279726 z" stroke-width="13.873739268756879" opacity="0.6826297824260683" class="creaturePartClass"/><path id="Creature-0.18763828409087124-part-2" d="M 10.308132526493955, 42.2807070388703 Q 35.95624883646401, 73.60244282978815 32.08382243544446, 115.97130292448999 T 14.932687202986513, 350.445094636429, 32.36665325813969 504.39426187946634, 1.3809253474264318 340.013646229512, 14.154210533161509 432.6548903930039, 39.146257695099585 171.54647706452278 z" stroke-width="28.259570266571686" opacity="0.9389816564344452" class="creaturePartClass"/><path id="Creature-0.18763828409087124-part-3" d="M 19.465953418490905, 380.12271908888266 Q 7.990425761834576, 368.59295157317786 16.32561716642252, 297.64145292150306 T 17.106860797066552, 213.91331835210374, 9.203431852690702 358.3032240783957, 23.099762729471326 383.7840590604853, 36.1965882599187 44.046819753219275, 15.870721571191604 447.08632868844524 z" stroke-width="12.285316244481841" opacity="0.3476146633241828" class="creaturePartClass"/><g id="Creature-0.839738529553879" style="fill:#6e2c9;stroke:#63cbd8" stroke-width="81.64015458964272" opacity="0.7801230069086216" transform="translate(202.1176459916204, 250.50727983616477) rotate(-0.1307885186436905 158.21665954589844 730.4583587646484)" onmousedown="tool('Creature-0.839738529553879')" class="creatureClass"><title>Creature-0.839738529553879</title><desc>moveLifePathCreatureEvo2("Creature-0.839738529553879", 0.7, 1.2)</desc><path id="Creature-0.839738529553879-part-0" d="M 0.5306966273050526, 349.97889772857246 Q 47.71443886581595, 69.99445295899893 72.53113546376518, 573.7524005225176 T 28.893210920954246, 453.9435730919661, 70.49957785922469 627.7914174901595, 59.059741686515466 255.5171717822477, 54.07183617456624 517.4280073868923, 32.21396748601031 21.250272159670708 z" stroke-width="21.610186642821247" opacity="0.9013350878692892" class="creaturePartClass"/><path id="Creature-0.839738529553879-part-1" d="M 92.12977046493859, 499.393689205715 Q 4.2600785340345855, 221.3161586878105 97.64761921463375, 12.20007548572982 T 49.223797955944484, 69.50676145212744, 50.835775235395204 213.61049954173652, 51.441472525937236 358.1055934055883, 14.658911363294608 121.49477385376551, 41.36850325772245 350.8210324203462 z" stroke-width="49.334799335684885" opacity="0.8969217036936601" class="creaturePartClass"/><path id="Creature-0.839738529553879-part-2" d="M 51.17887356933738, 305.745619447544 Q 37.08966469269961, 218.89236777070062 86.74682386493532, 21.59193056536908 T 34.761918930820435, 50.80107949584559, 42.29427576040105 448.1274373193159, 71.31018952408019 245.31578406464766, 36.21344160339962 229.3475203272845, 29.485885123938605 113.05325632129554 z" stroke-width="87.00056709013191" opacity="0.38086027561794833" class="creaturePartClass"/><path id="Creature-0.839738529553879-part-3" d="M 57.31473641178591, 144.107108040434 Q 40.842922026144926, 552.4503064004116 9.785105943035504, 166.78601852268432 T 54.2796579435178, 152.17961060792516, 4.4295358327187015 533.5518012218439, 33.44801169380406 141.28543863232397, 67.13041986027955 37.79270021588704, 24.575170761417098 589.9999841385994 z" stroke-width="19.884373914237493" opacity="0.9075261437840176" class="creaturePartClass"/></g></g><g xmlns="http://www.w3.org/2000/svg" id="Creature-0.839738529553879" style="fill:#6e2c9;stroke:#63cbd8" stroke-width="81.64015458964272" opacity="0.7801230069086216" transform="translate(202.1176459916204, 250.50727983616477) rotate(-0.1307885186436905 158.21665954589844 730.4583587646484)" onmousedown="tool('Creature-0.839738529553879')" class="creatureClass"><title>Creature-0.839738529553879</title><desc>moveLifePathCreatureEvo2("Creature-0.839738529553879", 0.7, 1.2)</desc><path id="Creature-0.839738529553879-part-0" d="M 0.5306966273050526, 349.97889772857246 Q 47.71443886581595, 69.99445295899893 72.53113546376518, 573.7524005225176 T 28.893210920954246, 453.9435730919661, 70.49957785922469 627.7914174901595, 59.059741686515466 255.5171717822477, 54.07183617456624 517.4280073868923, 32.21396748601031 21.250272159670708 z" stroke-width="21.610186642821247" opacity="0.9013350878692892" class="creaturePartClass"/><path id="Creature-0.839738529553879-part-1" d="M 92.12977046493859, 499.393689205715 Q 4.2600785340345855, 221.3161586878105 97.64761921463375, 12.20007548572982 T 49.223797955944484, 69.50676145212744, 50.835775235395204 213.61049954173652, 51.441472525937236 358.1055934055883, 14.658911363294608 121.49477385376551, 41.36850325772245 350.8210324203462 z" stroke-width="49.334799335684885" opacity="0.8969217036936601" class="creaturePartClass"/><path id="Creature-0.839738529553879-part-2" d="M 51.17887356933738, 305.745619447544 Q 37.08966469269961, 218.89236777070062 86.74682386493532, 21.59193056536908 T 34.761918930820435, 50.80107949584559, 42.29427576040105 448.1274373193159, 71.31018952408019 245.31578406464766, 36.21344160339962 229.3475203272845, 29.485885123938605 113.05325632129554 z" stroke-width="87.00056709013191" opacity="0.38086027561794833" class="creaturePartClass"/><path id="Creature-0.839738529553879-part-3" d="M 57.31473641178591, 144.107108040434 Q 40.842922026144926, 552.4503064004116 9.785105943035504, 166.78601852268432 T 54.2796579435178, 152.17961060792516, 4.4295358327187015 533.5518012218439, 33.44801169380406 141.28543863232397, 67.13041986027955 37.79270021588704, 24.575170761417098 589.9999841385994 z" stroke-width="19.884373914237493" opacity="0.9075261437840176" class="creaturePartClass"/></g><g xmlns="http://www.w3.org/2000/svg" id="Creature-0.6536045707306471" style="fill:#429bbb;stroke:#4fefd" stroke-width="20.517494303125062" opacity="0.5487906631169386" transform="translate(0,0)" onmousedown="tool('Creature-0.6536045707306471')" class="creatureClass"><title>Creature-0.6536045707306471</title><desc>moveLifePathCreatureEvo2("Creature-0.6536045707306471", 0.7, 1.2)</desc><path id="Creature-0.6536045707306471-part-0" d="M 33.99806460513932, 55.41425945746661 Q 7.07996889627165, 11.87499963532879 51.08392182801467, 18.665325899078724 T 51.153611531524895, 26.897813159738945, 3.3751678511152026 90.71096399202577, 42.60607139497448 51.90317955818744, 16.062639916568074 53.84093381460773, 56.945844210232075 16.869695085607 z" stroke-width="8.553757253078404" opacity="0.8120011387730796" class="creaturePartClass"/><path id="Creature-0.6536045707306471-part-1" d="M 35.49356521987982, 40.45789514003265 Q 40.385486640023146, 47.93286713139734 33.98582828143514, 6.451498951209766 T 40.674482097671856, 29.385180193719986, 53.162169258460494 69.23800298848862, 33.89343022629338 65.06784960891794, 18.377480934905993 37.5731979493588, 23.95231918186721 30.397188147634537 z" stroke-width="18.3915117511583" opacity="0.8594453664661361" class="creaturePartClass"/><path id="Creature-0.6536045707306471-part-2" d="M 56.10023166093527, 56.37368013855901 Q 57.17363283665381, 42.37138302526721 5.180160974269119, 86.18044052749224 T 52.483779727403714, 64.71022901616564, 57.15963294382097 55.03967988661315, 19.588690806433114 18.678282801591077, 17.86191629069988 63.999658468197055, 11.224348053604524 96.30077046026257 z" stroke-width="66.10986102836667" opacity="0.537338205541187" class="creaturePartClass"/><path id="Creature-0.6536045707306471-part-3" d="M 16.669797300290934, 97.0800608604809 Q 58.33276869519416, 84.97066615017663 32.523598309320285, 30.69627580348481 T 30.227013491222795, 48.97498478471093, 33.46756715440697 10.60788397594124, 59.57029299334445 41.465020981464654, 34.880547028180864 0.5193595229865767, 17.387678246886168 84.0264807443429 z" stroke-width="24.30067200960988" opacity="0.7741854108586325" class="creaturePartClass"/></g><g xmlns="http://www.w3.org/2000/svg" id="Creature-0.8363831185303943" style="fill:#2e7b3c;stroke:#e15414" stroke-width="66.00159605694864" opacity="0.9885114060392208" transform="translate(281.39625694617166, 408.6343406909078) rotate(0.3061286755025286 117.55000305175781 696.1916656494141)" onmousedown="tool('Creature-0.8363831185303943')" class="creatureClass"><title>Creature-0.8363831185303943</title><desc>moveLifePathCreatureEvo2("Creature-0.8363831185303943", 0.7, 1.2)</desc><path id="Creature-0.8363831185303943-part-0" d="M 15.479488328807872, 116.99391631593036 Q 4.901892038884457, 121.40646389917286 70.76205704701856, 66.98482001863246 T 64.40663879571464, 106.62086726890162, 30.940467658092203 247.41627300667497, 34.31225216333779 253.0636827811621, 26.275039105822252 256.0978005119616, 62.60968589190159 114.90536974643487 z" stroke-width="26.554933624644672" opacity="0.5501550949165467" class="creaturePartClass"/><path id="Creature-0.8363831185303943-part-1" d="M 62.35298154465544, 136.42595756959028 Q 43.0398473823008, 47.756016930184494 62.206382933298734, 168.8250513406821 T 66.24932468037197, 189.80828376947238, 49.95130586236438 78.11998718203292, 15.387359547281685 96.75781683321419, 43.89220620425529 176.73711115044162, 18.466510594145372 200.55391248589171 z" stroke-width="20.482173315351645" opacity="0.8982656191522889" class="creaturePartClass"/><path id="Creature-0.8363831185303943-part-2" d="M 49.06506842367879, 95.14953084733061 Q 13.859012988174442, 253.3327962806633 28.207539919296647, 230.57182021062044 T 62.03211487871676, 178.71904682491973, 56.79434519975547 12.376221472316606, 34.052438652200294 139.8475670901516, 38.65552874755532 24.605181730776984, 66.72939547929745 210.29114928624765 z" stroke-width="54.548320234494156" opacity="0.9968048653475311" class="creaturePartClass"/><path id="Creature-0.8363831185303943-part-3" d="M 14.4050062728994, 136.69479634094432 Q 63.75883333777402, 96.42686895418889 40.96282610746953, 211.22007440191467 T 45.28012191805829, 111.94130058123048, 53.40299556041962 19.44739192153262, 12.328032357374552 29.67655792079712, 1.5786494772003097 41.77047423661955, 6.025388644750884 117.62346067507917 z" stroke-width="35.26606168325018" opacity="0.5576487943262126" class="creaturePartClass"/><g id="Creature-0.2762244275486988" style="fill:#c6b524;stroke:#f29d72" stroke-width="27.19156116574364" opacity="0.8116849930787459" transform="translate(37.779647529160385, 299.525215525554) rotate(0.02479793773996107 79.65834045410156 432.61663818359375)" onmousedown="tool('Creature-0.2762244275486988')" class="creatureClass"><title>Creature-0.2762244275486988</title><desc>moveLifePathCreatureEvo2("Creature-0.2762244275486988", 0.7, 1.2)</desc><path id="Creature-0.2762244275486988-part-0" d="M 33.74564638159677, 234.8976097442233 Q 30.04825577161929, 24.56671534120501 42.999348840614445, 15.814379883498104 T 18.735026663541678, 281.8152246781065, 47.55162463079947 132.94396047495135, 54.67720594873123 95.91137145214861, 28.431764722768126 101.5142405263245, 47.891771692511604 240.0520418323628 z" stroke-width="38.03687075758101" opacity="0.9253333474807236" class="creaturePartClass"/><path id="Creature-0.2762244275486988-part-1" d="M 58.88854354092765, 26.07409050308351 Q 38.028615626890975, 119.38047370131686 1.362204939395308, 102.98491226115524 T 3.6983565402837395, 265.8823334417832, 29.243823221658428 159.45538019508828, 14.716632317615879 62.9718137523485, 6.561024706308014 186.143149302733, 15.906027972851813 14.053332576161328 z" stroke-width="31.95011572358939" opacity="0.2634349969932545" class="creaturePartClass"/><path id="Creature-0.2762244275486988-part-2" d="M 25.9219696597588, 97.76869966461226 Q 19.219465039551142, 192.2569854700765 13.845324354908534, 25.498717317872543 T 35.446038580967475, 218.4815622161219, 39.923897204738786 108.9634626175762, 33.49068084632022 161.22020913195922, 21.54919831253607 18.170405845781065, 32.49488600602856 50.33895315928297 z" stroke-width="79.22898282846099" opacity="0.8236054429210369" class="creaturePartClass"/><path id="Creature-0.2762244275486988-part-3" d="M 22.480442847435206, 5.741611360903534 Q 39.99493789499673, 175.78502620336258 49.597218195995836, 58.69328461084804 T 45.5866898086584, 282.80696259949076, 17.54099034255472 2.7165309711869288, 45.4754844055245 178.41679995043646, 23.454784502140665 159.75058356355873, 2.1502681584959347 249.1051923250598 z" stroke-width="18.98891783396413" opacity="0.6146187269073725" class="creaturePartClass"/><g id="Creature-0.6515343287361163" style="fill:#316c8d;stroke:#a37c22" stroke-width="27.674485684005088" opacity="0.861015723423283" transform="translate(0,0)" onmousedown="tool('Creature-0.6515343287361163')" class="creatureClass"><title>Creature-0.6515343287361163</title><desc>moveLifePathCreatureEvo2("Creature-0.6515343287361163", 0.7, 1.2)</desc><path id="Creature-0.6515343287361163-part-0" d="M 79.19514566118491, 163.95455506782008 Q 71.41458869683052, 306.554293949855 145.92043534372507, 397.24383845221047 T 147.43290723429647, 621.4297811365259, 89.28096258593484 292.2243369835772, 10.557873365051202 675.0539747846074, 29.12328635037853 262.5883266876686, 118.18739932979788 641.1817621568247 z" stroke-width="42.781225321150856" opacity="0.8671176543989215" class="creaturePartClass"/><path id="Creature-0.6515343287361163-part-1" d="M 55.09189184249611, 424.2649220063982 Q 14.05059907668699, 110.0598170612201 19.131207514298158, 18.31559423535935 T 20.04545297595616, 188.2981428394012, 148.35606072102405 226.1971677642613, 110.72444062961158 671.1292401571834, 179.61388628624942 196.26559983764594, 151.802358117026 367.8751216476318 z" stroke-width="5.4205385227740095" opacity="0.34844850904141167" class="creaturePartClass"/><path id="Creature-0.6515343287361163-part-2" d="M 83.65875211643166, 170.66721498155968 Q 127.77848130042166, 477.40205921717285 124.31862294370954, 87.46856688487983 T 86.41552847271075, 63.55687856595288, 20.084350222847313 566.8948854890817, 7.953517550535134 195.82892565439394, 40.55625513366824 582.2067926535094, 108.54013819852997 299.1992462803984 z" stroke-width="82.2351670057603" opacity="0.8316846198498102" class="creaturePartClass"/><path id="Creature-0.6515343287361163-part-3" d="M 155.4360254823596, 454.39108782650976 Q 21.86303312390264, 211.8791530257273 126.31249012920107, 528.5784620310902 T 28.961770036428316, 144.9932197840712, 80.26741246799993 509.92649825963935, 82.14982931285907 645.9627360810201, 46.41461406483344 111.88022165307724, 128.6847464202836 631.5311296504811 z" stroke-width="26.76754060441082" opacity="0.7993471649545778" class="creaturePartClass"/></g></g></g><g xmlns="http://www.w3.org/2000/svg" id="Creature-0.2762244275486988" style="fill:#c6b524;stroke:#f29d72" stroke-width="27.19156116574364" opacity="0.8116849930787459" transform="translate(37.779647529160385, 299.525215525554) rotate(0.02479793773996107 79.65834045410156 432.61663818359375)" onmousedown="tool('Creature-0.2762244275486988')" class="creatureClass"><title>Creature-0.2762244275486988</title><desc>moveLifePathCreatureEvo2("Creature-0.2762244275486988", 0.7, 1.2)</desc><path id="Creature-0.2762244275486988-part-0" d="M 33.74564638159677, 234.8976097442233 Q 30.04825577161929, 24.56671534120501 42.999348840614445, 15.814379883498104 T 18.735026663541678, 281.8152246781065, 47.55162463079947 132.94396047495135, 54.67720594873123 95.91137145214861, 28.431764722768126 101.5142405263245, 47.891771692511604 240.0520418323628 z" stroke-width="38.03687075758101" opacity="0.9253333474807236" class="creaturePartClass"/><path id="Creature-0.2762244275486988-part-1" d="M 58.88854354092765, 26.07409050308351 Q 38.028615626890975, 119.38047370131686 1.362204939395308, 102.98491226115524 T 3.6983565402837395, 265.8823334417832, 29.243823221658428 159.45538019508828, 14.716632317615879 62.9718137523485, 6.561024706308014 186.143149302733, 15.906027972851813 14.053332576161328 z" stroke-width="31.95011572358939" opacity="0.2634349969932545" class="creaturePartClass"/><path id="Creature-0.2762244275486988-part-2" d="M 25.9219696597588, 97.76869966461226 Q 19.219465039551142, 192.2569854700765 13.845324354908534, 25.498717317872543 T 35.446038580967475, 218.4815622161219, 39.923897204738786 108.9634626175762, 33.49068084632022 161.22020913195922, 21.54919831253607 18.170405845781065, 32.49488600602856 50.33895315928297 z" stroke-width="79.22898282846099" opacity="0.8236054429210369" class="creaturePartClass"/><path id="Creature-0.2762244275486988-part-3" d="M 22.480442847435206, 5.741611360903534 Q 39.99493789499673, 175.78502620336258 49.597218195995836, 58.69328461084804 T 45.5866898086584, 282.80696259949076, 17.54099034255472 2.7165309711869288, 45.4754844055245 178.41679995043646, 23.454784502140665 159.75058356355873, 2.1502681584959347 249.1051923250598 z" stroke-width="18.98891783396413" opacity="0.6146187269073725" class="creaturePartClass"/><g id="Creature-0.6515343287361163" style="fill:#316c8d;stroke:#a37c22" stroke-width="27.674485684005088" opacity="0.861015723423283" transform="translate(0,0)" onmousedown="tool('Creature-0.6515343287361163')" class="creatureClass"><title>Creature-0.6515343287361163</title><desc>moveLifePathCreatureEvo2("Creature-0.6515343287361163", 0.7, 1.2)</desc><path id="Creature-0.6515343287361163-part-0" d="M 79.19514566118491, 163.95455506782008 Q 71.41458869683052, 306.554293949855 145.92043534372507, 397.24383845221047 T 147.43290723429647, 621.4297811365259, 89.28096258593484 292.2243369835772, 10.557873365051202 675.0539747846074, 29.12328635037853 262.5883266876686, 118.18739932979788 641.1817621568247 z" stroke-width="42.781225321150856" opacity="0.8671176543989215" class="creaturePartClass"/><path id="Creature-0.6515343287361163-part-1" d="M 55.09189184249611, 424.2649220063982 Q 14.05059907668699, 110.0598170612201 19.131207514298158, 18.31559423535935 T 20.04545297595616, 188.2981428394012, 148.35606072102405 226.1971677642613, 110.72444062961158 671.1292401571834, 179.61388628624942 196.26559983764594, 151.802358117026 367.8751216476318 z" stroke-width="5.4205385227740095" opacity="0.34844850904141167" class="creaturePartClass"/><path id="Creature-0.6515343287361163-part-2" d="M 83.65875211643166, 170.66721498155968 Q 127.77848130042166, 477.40205921717285 124.31862294370954, 87.46856688487983 T 86.41552847271075, 63.55687856595288, 20.084350222847313 566.8948854890817, 7.953517550535134 195.82892565439394, 40.55625513366824 582.2067926535094, 108.54013819852997 299.1992462803984 z" stroke-width="82.2351670057603" opacity="0.8316846198498102" class="creaturePartClass"/><path id="Creature-0.6515343287361163-part-3" d="M 155.4360254823596, 454.39108782650976 Q 21.86303312390264, 211.8791530257273 126.31249012920107, 528.5784620310902 T 28.961770036428316, 144.9932197840712, 80.26741246799993 509.92649825963935, 82.14982931285907 645.9627360810201, 46.41461406483344 111.88022165307724, 128.6847464202836 631.5311296504811 z" stroke-width="26.76754060441082" opacity="0.7993471649545778" class="creaturePartClass"/></g></g><g xmlns="http://www.w3.org/2000/svg" id="Creature-0.6515343287361163" style="fill:#316c8d;stroke:#a37c22" stroke-width="27.674485684005088" opacity="0.861015723423283" transform="translate(0,0)" onmousedown="tool('Creature-0.6515343287361163')" class="creatureClass"><title>Creature-0.6515343287361163</title><desc>moveLifePathCreatureEvo2("Creature-0.6515343287361163", 0.7, 1.2)</desc><path id="Creature-0.6515343287361163-part-0" d="M 79.19514566118491, 163.95455506782008 Q 71.41458869683052, 306.554293949855 145.92043534372507, 397.24383845221047 T 147.43290723429647, 621.4297811365259, 89.28096258593484 292.2243369835772, 10.557873365051202 675.0539747846074, 29.12328635037853 262.5883266876686, 118.18739932979788 641.1817621568247 z" stroke-width="42.781225321150856" opacity="0.8671176543989215" class="creaturePartClass"/><path id="Creature-0.6515343287361163-part-1" d="M 55.09189184249611, 424.2649220063982 Q 14.05059907668699, 110.0598170612201 19.131207514298158, 18.31559423535935 T 20.04545297595616, 188.2981428394012, 148.35606072102405 226.1971677642613, 110.72444062961158 671.1292401571834, 179.61388628624942 196.26559983764594, 151.802358117026 367.8751216476318 z" stroke-width="5.4205385227740095" opacity="0.34844850904141167" class="creaturePartClass"/><path id="Creature-0.6515343287361163-part-2" d="M 83.65875211643166, 170.66721498155968 Q 127.77848130042166, 477.40205921717285 124.31862294370954, 87.46856688487983 T 86.41552847271075, 63.55687856595288, 20.084350222847313 566.8948854890817, 7.953517550535134 195.82892565439394, 40.55625513366824 582.2067926535094, 108.54013819852997 299.1992462803984 z" stroke-width="82.2351670057603" opacity="0.8316846198498102" class="creaturePartClass"/><path id="Creature-0.6515343287361163-part-3" d="M 155.4360254823596, 454.39108782650976 Q 21.86303312390264, 211.8791530257273 126.31249012920107, 528.5784620310902 T 28.961770036428316, 144.9932197840712, 80.26741246799993 509.92649825963935, 82.14982931285907 645.9627360810201, 46.41461406483344 111.88022165307724, 128.6847464202836 631.5311296504811 z" stroke-width="26.76754060441082" opacity="0.7993471649545778" class="creaturePartClass"/></g><g xmlns="http://www.w3.org/2000/svg" id="Creature-0.5865515145016643" style="fill:#71bea2;stroke:#41716b" stroke-width="31.045553268552837" opacity="0.7826323077821981" transform="translate(206.9994423861615, 445.02320178845684) rotate(0.0024384522296350955 79.49166870117188 427.6666564941406)" onmousedown="tool('Creature-0.5865515145016643')" class="creatureClass"><title>Creature-0.5865515145016643</title><desc>moveLifePathCreatureEvo2("Creature-0.5865515145016643", 0.7, 1.2)</desc><path id="Creature-0.5865515145016643-part-0" d="M 120.34191302293252, 74.81396781604182 Q 81.15175476689238, 197.2061430529402 12.021305370160654, 36.84624957326818 T 32.430658336933575, 503.06562251663365, 29.945505219568776 482.8069261980721, 118.14899931632121 486.7447555064056, 26.751049166056852 407.8678418565305, 147.18681402544988 507.9894662648957 z" stroke-width="19.920433392805524" opacity="0.5833291863831276" class="creaturePartClass"/><path id="Creature-0.5865515145016643-part-1" d="M 120.74002287768545, 448.10412969991506 Q 35.88948417837475, 360.1220227938781 139.15545467801437, 93.61065382045446 T 114.24195447712498, 200.47181071738353, 78.95810446041232 293.18340351254443, 130.03131542191818 271.9077040077078, 59.85635826032415 477.0852338129204, 44.31657458117592 396.7869793589886 z" stroke-width="21.660137017357837" opacity="0.5814482104624246" class="creaturePartClass"/><path id="Creature-0.5865515145016643-part-2" d="M 105.99606608247699, 493.0952544886298 Q 24.000940829898926, 320.0441243822365 87.3144292470363, 549.8261225912064 T 47.9229781691613, 147.55162218852627, 21.744546975640358 61.22145729767104, 25.729008883540626 426.7693920159243, 141.19409293904798 279.6394236959241, 149.58592385330513 139.75368549476715 z" stroke-width="0.6190888792988458" opacity="0.9691788819155222" class="creaturePartClass"/><path id="Creature-0.5865515145016643-part-3" d="M 30.51728021133567, 155.59818885838274 Q 40.73761511780003, 503.18237230015376 109.11826996182468, 260.815937452939 T 105.8966120862501, 328.60364758071466, 26.42804809270946 341.63301327962546, 117.46968990713971 326.3252132327862, 140.87152813961183 194.95722178036064, 114.39682300975447 90.38872130974133 z" stroke-width="44.8426774390337" opacity="0.8596510117109369" class="creaturePartClass"/></g><g xmlns="http://www.w3.org/2000/svg" id="Creature-0.019087312062571193" style="fill:#30eec;stroke:#96dcb0" stroke-width="58.48953787014832" opacity="0.8487234341872528" transform="translate(306.8644719255675, 94.14714904159354) rotate(-1.1765204978785786 41.22499084472656 430.80836486816406)" onmousedown="tool('Creature-0.019087312062571193')" class="creatureClass"><title>Creature-0.019087312062571193</title><desc>moveLifePathCreatureEvo2("Creature-0.019087312062571193", 0.7, 1.2)</desc><path id="Creature-0.019087312062571193-part-0" d="M 0.03924095467845071, 92.82054630457183 Q 35.8486578314834, 373.15881717093146 73.54134339020888, 567.6136021642124 T 12.815386688687875, 105.42025535640262, 12.318426057962967 278.4160441933372, 18.29951029461488 579.3763210070751, 22.346922635991216 339.2209874853225, 46.375444494262716 76.93224918011938 z" stroke-width="44.10705353260718" opacity="0.8061235911121724" class="creaturePartClass"/><path id="Creature-0.019087312062571193-part-1" d="M 59.83927996269154, 427.2835827828227 Q 58.15225007413953, 421.9272843784206 1.08553771608693, 527.9481754216087 T 20.176542716303885, 230.52096589188528, 13.492222784212137 492.4141758498269, 48.48759400468823 472.70642157313995, 22.5005682774627 207.74658305807463, 70.62633537558061 14.896495667818611 z" stroke-width="48.78162917096696" opacity="0.8748009827614283" class="creaturePartClass"/><path id="Creature-0.019087312062571193-part-2" d="M 79.09559335425497, 319.4699300136711 Q 73.4382000125314, 138.69919089024768 3.397767406200296, 483.53373858672103 T 13.520633977983596, 139.18672831414227, 39.85863423439989 421.0494195879938, 82.45933876882017 525.7265594632112, 5.035113854025038 282.8412067023459, 29.562802976455405 149.12792551776153 z" stroke-width="1.6546705066626255" opacity="0.7605729815253256" class="creaturePartClass"/><path id="Creature-0.019087312062571193-part-3" d="M 56.28146727776275, 484.31990676742424 Q 39.57307017327367, 404.3819824064999 38.12728537821176, 581.4499232436099 T 32.76214738727402, 356.77623005614095, 7.9341078043970015 58.39307545502998, 67.81492807762811 472.942712029942, 30.766221875582893 138.02909107203703, 55.06015710206746 73.90996831922689 z" stroke-width="26.233240633316388" opacity="0.9273154475747879" class="creaturePartClass"/></g><g xmlns="http://www.w3.org/2000/svg" id="Creature-0.7924727460387827" style="fill:#cd9938;stroke:#f71de8" stroke-width="26.813464533914043" opacity="0.8174645694726805" transform="translate(0,0)" onmousedown="tool('Creature-0.7924727460387827')" class="creatureClass"><title>Creature-0.7924727460387827</title><desc>moveLifePathCreatureEvo2("Creature-0.7924727460387827", 0.7, 1.2)</desc><path id="Creature-0.7924727460387827-part-0" d="M 1.5324111863803567, 199.99545012237473 Q 11.635765023281234, 102.57065083147639 12.822413926525678, 44.556553191807204 T 0.5224617290953473, 103.53676113997592, 12.334188085486666 147.43738563458348, 8.710571888818 181.59902804098957, 12.678872490464801 96.77304288991913, 6.880692720767052 5.916145988134721 z" stroke-width="35.3732252312023" opacity="0.7423833719276256" class="creaturePartClass"/><path id="Creature-0.7924727460387827-part-1" d="M 4.184691160750451, 90.53861759461282 Q 9.354397317290108, 50.84117991557609 4.558279855443592, 198.16373242062696 T 16.029606060891222, 72.71838927417127, 2.093278482678345 29.969133375180963, 2.0958377976115963 228.22753097278394, 6.8210705410579795 47.802592368930526, 5.402002985479375 118.97355189751431 z" stroke-width="23.15610852333492" opacity="0.7145769082855101" class="creaturePartClass"/><path id="Creature-0.7924727460387827-part-2" d="M 8.924072161635168, 199.01022839231393 Q 14.298367028674349, 161.08316852342 6.466798228596943, 50.72045846827043 T 8.203175730413054, 40.816632042518535, 2.0982477187710735 117.99935054688291, 4.135739355720691 159.36855240317027, 11.97491388427974 130.87770718398914, 1.1199824189244163 47.98761448095121 z" stroke-width="23.4201493576365" opacity="0.994627062017473" class="creaturePartClass"/><path id="Creature-0.7924727460387827-part-3" d="M 2.641780969450119, 29.969798307816617 Q 14.68260931691482, 148.26605693694293 5.467995227759184, 105.60872959281971 T 10.094239031780596, 125.01150362714128, 6.3325886791854735 5.124187344035268, 16.046660103035553 201.62557783619252, 10.194557144075237 173.45038006125068, 10.64973184025109 163.23379266477892 z" stroke-width="10.128269039110132" opacity="0.7344226895366506" class="creaturePartClass"/></g><g xmlns="http://www.w3.org/2000/svg" id="Creature-0.6531002905939044" style="fill:#342b25;stroke:#8c83fd" stroke-width="17.01310573104401" opacity="0.7671348742977862" transform="translate(0,0)" onmousedown="tool('Creature-0.6531002905939044')" class="creatureClass"><title>Creature-0.6531002905939044</title><desc>moveLifePathCreatureEvo2("Creature-0.6531002905939044", 0.7, 1.2)</desc><path id="Creature-0.6531002905939044-part-0" d="M 107.36122464545056, 249.36561299538639 Q 23.08116250350997, 137.69401205089636 57.02658524495375, 173.28555085853736 T 94.6907549289131, 8.168729340487708, 50.71532207065612 113.30526275908431, 114.09385889420933 58.49366913896997, 36.876112102735725 288.7005838749271, 61.75816508477608 474.73573341622046 z" stroke-width="37.81130906723399" opacity="0.4333208136855971" class="creaturePartClass"/><path id="Creature-0.6531002905939044-part-1" d="M 29.053759224177696, 213.54941474208002 Q 19.863830004040878, 467.49524358322685 95.5401926155731, 353.22015524466167 T 35.47970334658971, 18.777131431090947, 53.70959656707515 144.67405038225303, 22.017433466451696 565.7136956607276, 74.59317468738271 219.34732975909287, 46.942707139773255 82.36430351535505 z" stroke-width="6.676008120572058" opacity="0.9918806253854383" class="creaturePartClass"/><path id="Creature-0.6531002905939044-part-2" d="M 70.31105937981675, 467.58472918980766 Q 47.75457170759435, 88.86741103821068 31.232349191483433, 368.0129655025506 T 15.34083781643035, 364.56757624779146, 99.5330209837737 358.18429019094117, 114.10772410017059 392.1385165410766, 78.26048039331539 563.4045271942504, 24.55727884452612 154.8562222751874 z" stroke-width="35.65306529468697" opacity="0.2497920722536952" class="creaturePartClass"/><path id="Creature-0.6531002905939044-part-3" d="M 91.11302032255874, 87.60398726657088 Q 47.12970163742477, 57.029400373945776 87.05600893040582, 53.09513757311938 T 94.40789791736954, 247.932427377224, 14.011907191861187 72.99662032813714, 70.81102201416697 322.0782304937412, 84.79829824022492 572.0202706761801, 23.96577015927532 343.9444576896644 z" stroke-width="33.909106647746164" opacity="0.8893124499677619" class="creaturePartClass"/></g><g xmlns="http://www.w3.org/2000/svg" id="Creature-0.5940443960509816" style="fill:#5b3984;stroke:#2a7bae" stroke-width="88.02766875729994" opacity="0.9952198109420738" transform="translate(239.75815555217196, 423.431401595469) rotate(-0.23535634825562593 251.42498779296875 683.3416442871094)" onmousedown="tool('Creature-0.5940443960509816')" class="creatureClass"><title>Creature-0.5940443960509816</title><desc>moveLifePathCreatureEvo2("Creature-0.5940443960509816", 0.7, 1.2)</desc><path id="Creature-0.5940443960509816-part-0" d="M 1.0757496220070981, 645.8487809417111 Q 25.05168428856956, 223.24006375844272 22.045707684161933, 322.7195074694403 T 2.4065452049068665, 477.8312973255639, 7.972660394512593 135.05575188705012, 11.934702199492882 72.90981759104291, 24.353557717155535 613.4397905102358, 7.654302965902868 188.85148223372926 z" stroke-width="2.995637021976494" opacity="0.8269483759255821" class="creaturePartClass"/><path id="Creature-0.5940443960509816-part-1" d="M 24.319750568025075, 518.6989828903471 Q 13.834604702272783, 420.2047356668607 0.4957765400398817, 9.853646007048308 T 12.46724368700175, 309.5438841715995, 5.204102769229913 188.5482073837923, 21.211121897384025 501.11194737287184, 10.674395004733253 604.0171273455603, 19.78949308912915 550.0811059794514 z" stroke-width="28.423192506056758" opacity="0.6821871534068834" class="creaturePartClass"/><path id="Creature-0.5940443960509816-part-2" d="M 1.7232195083834694, 310.26211907356657 Q 16.3303186092744, 50.61263837959019 6.270707994095908, 25.04518973639086 T 24.538876479743053, 457.74458482886973, 10.110828955798063 178.00148187164007, 22.750505974651624 62.836665234765896, 17.79260596258306 216.80579740699542, 17.810951854054682 548.228485238901 z" stroke-width="84.08907074565988" opacity="0.72391580971747" class="creaturePartClass"/><path id="Creature-0.5940443960509816-part-3" d="M 25.34114799146607, 506.12948303484575 Q 7.927713703796219, 548.0972802217964 11.933556346212963, 491.7296211845619 T 3.223362054929739, 192.54122387798495, 3.3967808349339825 361.1881379218799, 1.1777974252822554 391.7902930112821, 6.290487285658568 197.36011352408914, 0.22936364721417965 114.2361722330155 z" stroke-width="25.663004204738527" opacity="0.8082324782138711" class="creaturePartClass"/><g id="Creature-0.03426547988458206" style="fill:#f3cfa7;stroke:#b0f2bd" stroke-width="26.810433416977865" opacity="0.48487125430135347" transform="translate(0,0)" onmousedown="tool('Creature-0.03426547988458206')" class="creatureClass"><title>Creature-0.03426547988458206</title><desc>moveLifePathCreatureEvo2("Creature-0.03426547988458206", 0.7, 1.2)</desc><path id="Creature-0.03426547988458206-part-0" d="M 59.14735037576587, 196.05595114885773 Q 50.029198539785305, 44.10750166484725 6.749611354295198, 72.16232603451203 T 108.30209256927412, 121.54220055715817, 120.12442902598995 37.8435199007297, 111.20886457054661 119.01065259951739, 114.70812841188537 91.94345981046763, 8.166683810016162 218.14941966728588 z" stroke-width="48.85707830434306" opacity="0.7785879538852372" class="creaturePartClass"/><path id="Creature-0.03426547988458206-part-1" d="M 106.62968098634155, 251.1619163314321 Q 69.68982132775703, 176.8122764729848 47.29998680314094, 103.92025241157363 T 110.93030810879617, 280.648515409178, 7.453375987247778 222.5812465205617, 62.62454643776825 8.049936178960373, 71.55710407709151 69.19915557131581, 125.33158213016615 269.12067822290703 z" stroke-width="30.022129421644685" opacity="0.8955867667519285" class="creaturePartClass"/><path id="Creature-0.03426547988458206-part-2" d="M 69.53777806735907, 42.80679676574562 Q 128.0271012314048, 270.9920116451554 65.12950077637788, 258.7036290930963 T 94.91381489423055, 224.41281067485156, 14.139622457421913 25.44242024011366, 70.6313243616831 112.88685525259952, 25.873754238614445 24.086558182786842, 78.17390934918352 223.21371864058307 z" stroke-width="63.493244153982985" opacity="0.8831967592599229" class="creaturePartClass"/><path id="Creature-0.03426547988458206-part-3" d="M 51.10127000616671, 219.83891210518073 Q 68.30068139034765, 272.6387515106435 109.73399955851869, 138.55241495406173 T 122.48832525556817, 124.49091637573362, 3.3721934134864924 277.8401330703677, 23.71663437801848 258.2233985506162, 48.87509817707351 116.8162799818484, 67.95721868285646 286.0893182967959 z" stroke-width="15.693585092522566" opacity="0.578768847026567" class="creaturePartClass"/></g></g><g xmlns="http://www.w3.org/2000/svg" id="Creature-0.03426547988458206" style="fill:#f3cfa7;stroke:#b0f2bd" stroke-width="26.810433416977865" opacity="0.48487125430135347" transform="translate(0,0)" onmousedown="tool('Creature-0.03426547988458206')" class="creatureClass"><title>Creature-0.03426547988458206</title><desc>moveLifePathCreatureEvo2("Creature-0.03426547988458206", 0.7, 1.2)</desc><path id="Creature-0.03426547988458206-part-0" d="M 59.14735037576587, 196.05595114885773 Q 50.029198539785305, 44.10750166484725 6.749611354295198, 72.16232603451203 T 108.30209256927412, 121.54220055715817, 120.12442902598995 37.8435199007297, 111.20886457054661 119.01065259951739, 114.70812841188537 91.94345981046763, 8.166683810016162 218.14941966728588 z" stroke-width="48.85707830434306" opacity="0.7785879538852372" class="creaturePartClass"/><path id="Creature-0.03426547988458206-part-1" d="M 106.62968098634155, 251.1619163314321 Q 69.68982132775703, 176.8122764729848 47.29998680314094, 103.92025241157363 T 110.93030810879617, 280.648515409178, 7.453375987247778 222.5812465205617, 62.62454643776825 8.049936178960373, 71.55710407709151 69.19915557131581, 125.33158213016615 269.12067822290703 z" stroke-width="30.022129421644685" opacity="0.8955867667519285" class="creaturePartClass"/><path id="Creature-0.03426547988458206-part-2" d="M 69.53777806735907, 42.80679676574562 Q 128.0271012314048, 270.9920116451554 65.12950077637788, 258.7036290930963 T 94.91381489423055, 224.41281067485156, 14.139622457421913 25.44242024011366, 70.6313243616831 112.88685525259952, 25.873754238614445 24.086558182786842, 78.17390934918352 223.21371864058307 z" stroke-width="63.493244153982985" opacity="0.8831967592599229" class="creaturePartClass"/><path id="Creature-0.03426547988458206-part-3" d="M 51.10127000616671, 219.83891210518073 Q 68.30068139034765, 272.6387515106435 109.73399955851869, 138.55241495406173 T 122.48832525556817, 124.49091637573362, 3.3721934134864924 277.8401330703677, 23.71663437801848 258.2233985506162, 48.87509817707351 116.8162799818484, 67.95721868285646 286.0893182967959 z" stroke-width="15.693585092522566" opacity="0.578768847026567" class="creaturePartClass"/></g><g xmlns="http://www.w3.org/2000/svg" id="Creature-0.9460623416598369" style="fill:#b11633;stroke:#7d8c3c" stroke-width="31.234886618282918" opacity="0.7032277727890713" transform="translate(0,0)" onmousedown="tool('Creature-0.9460623416598369')" class="creatureClass"><title>Creature-0.9460623416598369</title><desc>moveLifePathCreatureEvo2("Creature-0.9460623416598369", 0.7, 1.2)</desc><path id="Creature-0.9460623416598369-part-0" d="M 35.87962629258703, 344.0168524852798 Q 137.41114724905557, 312.03840576772933 13.612426766572879, 55.11898302230621 T 140.19439359662547, 182.90030987218066, 102.46614157011459 239.31651481486853, 45.10544358162878 307.96158002792384, 71.442277870661 566.8566791012636, 149.7469323654383 660.5250992928358 z" stroke-width="24.705642452988705" opacity="0.6330311295128644" class="creaturePartClass"/><path id="Creature-0.9460623416598369-part-1" d="M 102.08229012369543, 406.1018889591306 Q 47.519808191626126, 73.47202701170552 122.04418137746246, 136.01462608931197 T 67.89445146703791, 105.04004429016086, 56.6536985816274 429.4724777982381, 55.44097982449764 236.6186163771188, 39.17402533913891 27.934627500296216, 8.003329485674634 202.9865089280752 z" stroke-width="46.77953798500898" opacity="0.9917003998573398" class="creaturePartClass"/><path id="Creature-0.9460623416598369-part-2" d="M 138.33432998526197, 308.1963686814176 Q 94.81723309967819, 633.1650611766717 96.45393945813073, 661.8791470084768 T 40.49128610501692, 524.9058318130398, 78.06153315086492 321.46150492438085, 91.25762033519463 208.87079688269742, 82.91158247484667 329.44246324158644, 36.218888806712684 394.2940896606563 z" stroke-width="92.0106300778555" opacity="0.8372087153758695" class="creaturePartClass"/><path id="Creature-0.9460623416598369-part-3" d="M 69.03989644502596, 57.720793625271284 Q 1.722058463672805, 670.7181849098616 27.933174899632817, 497.1089278388994 T 30.18394149637141, 427.62285296013357, 53.04703682610528 550.2332935949526, 99.49220533777549 409.935187455989, 67.41782069495062 295.3554134419277, 100.41339884785256 122.21824691688708 z" stroke-width="31.46348256098816" opacity="0.7482171714875858" class="creaturePartClass"/></g><g xmlns="http://www.w3.org/2000/svg" id="Creature-0.869120807929954" style="fill:#2a51b6;stroke:#5d361d" stroke-width="18.049948589740005" opacity="0.465203300437893" transform="translate(162.20606034553936, 445.87743895244347) rotate(0.07742879987946603 513.4750061035156 461.15000915527344)" onmousedown="tool('Creature-0.869120807929954')" class="creatureClass"><title>Creature-0.869120807929954</title><desc>moveLifePathCreatureEvo2("Creature-0.869120807929954", 0.7, 1.2)</desc><path id="Creature-0.869120807929954-part-0" d="M 10.473376184860626, 105.15112520846797 Q 11.546880538273268, 159.15341567796278 14.043312203572457, 233.1160727560577 T 4.4983432381318815, 3.603906227878257, 22.028774789583625 136.22170873929488, 13.029860767714277 48.62471218086958, 12.826552983437148 77.4500319670723, 5.7659251828606255 5.343472005130998 z" stroke-width="17.27631653824773" opacity="0.9549601654060886" class="creaturePartClass"/><path id="Creature-0.869120807929954-part-1" d="M 9.525498068039305, 180.7991647971154 Q 13.667863188526633, 223.17456652736354 18.03067535296958, 159.75733154004072 T 9.46997550188442, 30.964573324035126, 6.735830286538577 160.6284418602409, 19.957628625532582 248.15949736098645, 19.058182176338082 203.24350670823492, 1.7498323941910214 180.57394163227082 z" stroke-width="26.112935614550633" opacity="0.7489659394790803" class="creaturePartClass"/><path id="Creature-0.869120807929954-part-2" d="M 4.249622398704052, 51.1148658568658 Q 20.099830835322123, 192.22057614329583 16.46523182870735, 109.38924852618706 T 10.472573061830309, 203.90338916140678, 14.209802897049158 80.2541129969924, 5.148927471414084 63.416693475185, 5.703100851285357 234.84676779994143, 2.210150570467759 48.27067460894656 z" stroke-width="39.83965278868084" opacity="0.9030864192351153" class="creaturePartClass"/><path id="Creature-0.869120807929954-part-3" d="M 16.57363091653126, 137.61375036313623 Q 1.9583616231051193, 59.706471075258385 2.7757874159900555, 192.28353750324916 T 17.494812949852975, 44.94849248562182, 21.85319062275721 186.93861513710738, 11.022721505378206 51.75792159084325, 5.893851133221289 174.31095789710096, 16.835905421825057 41.31797521696147 z" stroke-width="38.38267999257552" opacity="0.7265795175438984" class="creaturePartClass"/><g id="Creature-0.9460623416598369" style="fill:#b11633;stroke:#7d8c3c" stroke-width="31.234886618282918" opacity="0.7032277727890713" transform="translate(0,0)" onmousedown="tool('Creature-0.9460623416598369')" class="creatureClass"><title>Creature-0.9460623416598369</title><desc>moveLifePathCreatureEvo2("Creature-0.9460623416598369", 0.7, 1.2)</desc><path id="Creature-0.9460623416598369-part-0" d="M 35.87962629258703, 344.0168524852798 Q 137.41114724905557, 312.03840576772933 13.612426766572879, 55.11898302230621 T 140.19439359662547, 182.90030987218066, 102.46614157011459 239.31651481486853, 45.10544358162878 307.96158002792384, 71.442277870661 566.8566791012636, 149.7469323654383 660.5250992928358 z" stroke-width="24.705642452988705" opacity="0.6330311295128644" class="creaturePartClass"/><path id="Creature-0.9460623416598369-part-1" d="M 102.08229012369543, 406.1018889591306 Q 47.519808191626126, 73.47202701170552 122.04418137746246, 136.01462608931197 T 67.89445146703791, 105.04004429016086, 56.6536985816274 429.4724777982381, 55.44097982449764 236.6186163771188, 39.17402533913891 27.934627500296216, 8.003329485674634 202.9865089280752 z" stroke-width="46.77953798500898" opacity="0.9917003998573398" class="creaturePartClass"/><path id="Creature-0.9460623416598369-part-2" d="M 138.33432998526197, 308.1963686814176 Q 94.81723309967819, 633.1650611766717 96.45393945813073, 661.8791470084768 T 40.49128610501692, 524.9058318130398, 78.06153315086492 321.46150492438085, 91.25762033519463 208.87079688269742, 82.91158247484667 329.44246324158644, 36.218888806712684 394.2940896606563 z" stroke-width="92.0106300778555" opacity="0.8372087153758695" class="creaturePartClass"/><path id="Creature-0.9460623416598369-part-3" d="M 69.03989644502596, 57.720793625271284 Q 1.722058463672805, 670.7181849098616 27.933174899632817, 497.1089278388994 T 30.18394149637141, 427.62285296013357, 53.04703682610528 550.2332935949526, 99.49220533777549 409.935187455989, 67.41782069495062 295.3554134419277, 100.41339884785256 122.21824691688708 z" stroke-width="31.46348256098816" opacity="0.7482171714875858" class="creaturePartClass"/></g></g><g xmlns="http://www.w3.org/2000/svg" id="Creature-0.01397936801230626" style="fill:#414baa;stroke:#c040ed" stroke-width="28.722135760303658" opacity="0.8240710970585403" transform="translate(0,0)" onmousedown="tool('Creature-0.01397936801230626')" class="creatureClass"><title>Creature-0.01397936801230626</title><desc>moveLifePathCreatureEvo2("Creature-0.01397936801230626", 0.7, 1.2)</desc><path id="Creature-0.01397936801230626-part-0" d="M 7.166204528011531, 7.550315769324145 Q 52.934914238836754, 7.465170136659317 104.39135840741915, 5.222368174778476 T 45.812075001581846, 7.754344999343622, 127.8121673372899 4.784596577003202, 144.4637473326183 7.04992737056509, 137.85111793302676 0.27599309093203805, 127.58085351670017 1.4319675131216822 z" stroke-width="14.971433364904447" opacity="0.9112494126814675" class="creaturePartClass"/><path id="Creature-0.01397936801230626-part-1" d="M 104.64029131439898, 0.08993589867430171 Q 39.88404572276742, 6.180331550339664 73.9567167049484, 0.6400252616223515 T 15.953437841179904, 6.262602666379938, 37.04068046189708 3.394180649219973, 96.56603508567186 5.7465570076910115, 73.46694571442863 7.245343621184931, 134.55711014850303 5.834953606946156 z" stroke-width="20.64915633186612" opacity="0.9520182070065532" class="creaturePartClass"/><path id="Creature-0.01397936801230626-part-2" d="M 153.88342465557528, 8.107815804400639 Q 90.93239216977564, 7.3029338355335645 100.74290123555724, 2.510376536127332 T 46.53159958989298, 6.201605898025556, 29.256254149419732 2.1103389820241776, 111.35176148600054 0.8865917053030469, 119.09778184584228 6.316653031612016, 21.731183118676274 1.153723650769659 z" stroke-width="14.688698236052723" opacity="0.692244479223077" class="creaturePartClass"/><path id="Creature-0.01397936801230626-part-3" d="M 62.46797151891845, 6.218510653678854 Q 111.90115985369557, 0.4300047757216133 145.14274140218365, 7.022347475669565 T 29.824514122587985, 0.6554231524527334, 89.87041002127873 3.6192661158358392, 141.94504554261852 0.2873022732038154, 150.76619241533348 2.569006946181413, 26.794697441466056 8.182442265169787 z" stroke-width="11.392022533168662" opacity="0.7718293522308002" class="creaturePartClass"/></g><g xmlns="http://www.w3.org/2000/svg" id="Creature-0.41242254988432736" style="fill:#6c5bd4;stroke:#7ceb0f" stroke-width="86.48097204801306" opacity="0.5221943253486788" transform="translate(70.00210671549661, 357.8973207923199) rotate(-0.0648223536619958 20.42498779296875 449.5833282470703)" onmousedown="tool('Creature-0.41242254988432736')" class="creatureClass"><title>Creature-0.41242254988432736</title><desc>moveLifePathCreatureEvo2("Creature-0.41242254988432736", 0.7, 1.2)</desc><path id="Creature-0.41242254988432736-part-0" d="M 29.57942116565167, 178.32138459105758 Q 28.484025853850355, 341.6180849262122 21.660152323678233, 264.2063447594366 T 23.490370435680223, 191.70148138362632, 24.54812416365169 75.52848483472073, 24.167953753170497 328.4050862934516, 22.753175414651274 439.87628905093715, 0.9846924862621426 109.44750597936344 z" stroke-width="40.68644139960458" opacity="0.5674568466720107" class="creaturePartClass"/><path id="Creature-0.41242254988432736-part-1" d="M 4.106125527642575, 142.98291143180472 Q 10.535766115515967, 388.53195614088696 25.608288359056715, 433.35782738449 T 8.430428897425996, 261.7752065212361, 19.555064410232493 547.5072141267747, 18.516974446339876 324.29679388163413, 9.286050288385587 475.35794492358724, 20.0562192297809 536.5556219405148 z" stroke-width="25.971407194792878" opacity="0.9460688362089373" class="creaturePartClass"/><path id="Creature-0.41242254988432736-part-2" d="M 10.105349121295722, 222.46199427624643 Q 8.973148942776776, 150.79474232666797 11.885522631230721, 153.1052606431357 T 0.6997671905044806, 532.0483861100467, 5.467942737889392 284.749105374554, 17.4973516107425 406.81166057598335, 4.132317323642947 269.0712080029853, 26.18702770259967 571.8551699690145 z" stroke-width="85.51186671678121" opacity="0.7998921311858227" class="creaturePartClass"/><path id="Creature-0.41242254988432736-part-3" d="M 21.53711915611052, 221.47641066543932 Q 17.656635092285185, 215.52820732649155 13.567973081124627, 288.04169509290267 T 15.77518815735221, 2.218328099064785, 27.35630453519746 57.559946824133185, 4.0996272201535 226.50426252704162, 30.212786345883085 450.80814361090205, 22.892568933051017 197.56567292446465 z" stroke-width="34.02918711318654" opacity="0.6779404342770948" class="creaturePartClass"/></g><g xmlns="http://www.w3.org/2000/svg" id="Creature-0.7243946261319343" style="fill:#2859b2;stroke:#fe9086" stroke-width="77.66020173448484" opacity="0.8810590295817717" transform="translate(0,0)" onmousedown="tool('Creature-0.7243946261319343')" class="creatureClass"><title>Creature-0.7243946261319343</title><desc>moveLifePathCreatureEvo2("Creature-0.7243946261319343", 0.7, 1.2)</desc><path id="Creature-0.7243946261319343-part-0" d="M 13.943710303650011, 212.66393395634947 Q 58.06432862042704, 673.4995139762427 68.10699274528197, 472.14571100836895 T 1.3868037139011404, 364.7552921491662, 57.85864568242346 509.6426844040736, 11.229811398870517 348.81185225596835, 27.814655175440706 680.0414399529238, 48.897387422046705 187.18455608888883 z" stroke-width="43.39643302406842" opacity="0.9696097921395543" class="creaturePartClass"/><path id="Creature-0.7243946261319343-part-1" d="M 38.57979417201767, 203.80908639657537 Q 27.590327222887005, 403.3054555561949 37.95336832946634, 136.27056982090582 T 80.72140062278558, 193.42362636720625, 76.12064158658724 415.6710071408145, 6.4126452129563685 358.08187359652396, 77.98709515116555 662.8087875422367, 21.04784107314749 438.3179535009895 z" stroke-width="21.453652267184687" opacity="0.9349593349064843" class="creaturePartClass"/><path id="Creature-0.7243946261319343-part-2" d="M 73.84792431958586, 548.0373447571225 Q 71.06578632625198, 598.6344895098641 48.63272490185162, 378.099377065223 T 45.43427137430485, 176.90479752079642, 42.580218432831984 492.4307733977165, 16.169394689919287 267.6339408006235, 38.2845565718507 328.8565593701975, 47.70753598450777 230.31816133912642 z" stroke-width="66.67213156603877" opacity="0.2179711329961916" class="creaturePartClass"/><path id="Creature-0.7243946261319343-part-3" d="M 46.72608800056673, 491.2874254772453 Q 2.481247546580357, 325.0444086466836 68.18438355453753, 525.5391485103871 T 51.041453082882775, 60.76739472604401, 79.80736285015554 657.5105973393215, 42.96699674246727 281.3021097886181, 28.569681289707766 602.9893918953622, 47.79368361714023 106.08886390754259 z" stroke-width="27.150565800867504" opacity="0.9469553226769932" class="creaturePartClass"/></g><g xmlns="http://www.w3.org/2000/svg" id="Creature-0.011825763245662979" style="fill:#1e20a4;stroke:#523d0a" stroke-width="13.700359655314642" opacity="0.8210250523894479" transform="translate(148.9528973014248, 166.5365110657026) rotate(-0.4276285019249814 361.27500915527344 609.7999877929688)" onmousedown="tool('Creature-0.011825763245662979')" class="creatureClass"><title>Creature-0.011825763245662979</title><desc>moveLifePathCreatureEvo2("Creature-0.011825763245662979", 0.7, 1.2)</desc><path id="Creature-0.011825763245662979-part-0" d="M 49.53136160202596, 537.3667535433183 Q 1.4736090976334844, 200.37277322069792 30.859592133601858, 176.48568286767204 T 27.198821451749037, 59.173117570562, 16.081967864911082 191.53381649722147, 47.87333321465467 121.0010664745694, 5.992136227867403 340.5954818356613, 14.863242923061005 446.3836243530553 z" stroke-width="31.555832096333432" opacity="0.7085178222540917" class="creaturePartClass"/><path id="Creature-0.011825763245662979-part-1" d="M 31.28470041327425, 22.903312632126053 Q 12.538163713202263, 675.112493959614 50.52427916181244, 305.5145805818475 T 41.314471048893665, 683.5693815909483, 57.71110919801296 577.9589355450793, 14.281065514286915 543.2773261174569, 2.62333776770434 56.79458953840443, 28.940169332024443 120.54188047773631 z" stroke-width="4.568157504352227" opacity="0.3283326930228293" class="creaturePartClass"/><path id="Creature-0.011825763245662979-part-2" d="M 15.501845697865008, 221.93002268338552 Q 33.34524572433627, 306.04779321666996 21.877228086282788, 580.4423679412595 T 12.775521171373471, 462.89566885137555, 22.26754511054061 642.7993752315343, 2.887575782411643 417.2990083694391, 41.046652823586754 207.3112550920028, 37.491642467463116 516.8751908799896 z" stroke-width="51.14280609856553" opacity="0.9356229226790191" class="creaturePartClass"/><path id="Creature-0.011825763245662979-part-3" d="M 44.82349280542967, 198.68172502099057 Q 20.840880766661137, 53.71456155902515 25.094463814851327, 34.98842123996364 T 4.1033914672872305, 420.8985218938014, 4.5044756493686275 216.26418649032232, 36.03146755249816 648.6899030133736, 21.245544228133358 522.8164362092929, 3.0306084168408995 468.6267363357058 z" stroke-width="34.216047641703" opacity="0.6317822926784711" class="creaturePartClass"/></g></svg>