<?xml version="1.0" encoding="UTF-8" standalone="no"?>
<!-- Created with LifeFLOW (http://life.worldsowisdom.com/flow/) -->

<svg
   xmlns:osb="http://www.openswatchbook.org/uri/2009/osb"
   xmlns:dc="http://purl.org/dc/elements/1.1/"
   xmlns:cc="http://creativecommons.org/ns#"
   xmlns:rdf="http://www.w3.org/1999/02/22-rdf-syntax-ns#"
   xmlns:svg="http://www.w3.org/2000/svg"
   xmlns="http://www.w3.org/2000/svg"
   xmlns:xlink="http://www.w3.org/1999/xlink"
   xmlns:sodipodi="http://sodipodi.sourceforge.net/DTD/sodipodi-0.dtd"
   xmlns:inkscape="http://www.inkscape.org/namespaces/inkscape"
   width="450"
   height="450"
   viewBox="0 0 450 450"
   id="svg2"
   version="1.1"
   inkscape:version="0.91 r13725"
   sodipodi:docname="newcreatures-plain.svg">
  <defs
     id="defs4">
    <linearGradient
       inkscape:collect="always"
       id="linearGradient6501">
      <stop
         style="stop-color:#0000ff;stop-opacity:1;"
         offset="0"
         id="stop6503" />
      <stop
         style="stop-color:#0000ff;stop-opacity:0;"
         offset="1"
         id="stop6505" />
    </linearGradient>
    <linearGradient
       id="linearGradient6455"
       osb:paint="solid">
      <stop
         style="stop-color:#0000ff;stop-opacity:1;"
         offset="0"
         id="stop6457" />
    </linearGradient>
    <filter
       inkscape:collect="always"
       style="color-interpolation-filters:sRGB"
       id="filter5001"
       x="-0.37912726"
       width="1.7582545"
       y="-0.65848422"
       height="2.3169684">
      <feGaussianBlur
         inkscape:collect="always"
         stdDeviation="6.3692616"
         id="feGaussianBlur5003" />
    </filter>
    <linearGradient
       inkscape:collect="always"
       xlink:href="#linearGradient6501"
       id="linearGradient6507"
       x1="242.51431"
       y1="178.50594"
       x2="313.40628"
       y2="178.50594"
       gradientUnits="userSpaceOnUse"
       gradientTransform="translate(-215.03742,319.7082)" />
  </defs>
  <sodipodi:namedview
     id="base"
     pagecolor="#ffffff"
     bordercolor="#666666"
     borderopacity="1.0"
     inkscape:pageopacity="0.0"
     inkscape:pageshadow="2"
     inkscape:zoom="0.24748738"
     inkscape:cx="463.57331"
     inkscape:cy="265.90363"
     inkscape:document-units="px"
     inkscape:current-layer="layer1"
     showgrid="false"
     inkscape:window-width="1366"
     inkscape:window-height="706"
     inkscape:window-x="-8"
     inkscape:window-y="-8"
     inkscape:window-maximized="1"
     units="px" />
  <metadata
     id="metadata7">
    <rdf:RDF>
      <cc:Work
         rdf:about="">
        <dc:format>image/svg+xml</dc:format>
        <dc:type
           rdf:resource="http://purl.org/dc/dcmitype/StillImage" />
        <dc:title></dc:title>
      </cc:Work>
    </rdf:RDF>
  </metadata>
  <g
     inkscape:label="Layer 1"
     inkscape:groupmode="layer"
     id="layer1"
     transform="translate(0,-364.28567)">
    <path
       sodipodi:type="star"
       style="opacity:0.28999999;fill:#00ffff;stroke:#800080"
       id="path4136eg"
       sodipodi:sides="5"
       sodipodi:cx="149.96248"
       sodipodi:cy="470.92843"
       sodipodi:r1="84.03109"
       sodipodi:r2="42.015545"
       sodipodi:arg1="0.31099828"
       sodipodi:arg2="0.93931681"
       inkscape:flatsided="false"
       inkscape:rounded="0"
       inkscape:randomized="0"
       d="m 229.96248,496.64272 -55.19656,8.19877 -24.53782,50.11762 -24.85417,-49.96149 -55.247286,-7.84966 39.835836,-39.07667 -9.60688,-54.96897 49.47407,25.81078 49.30991,-26.12303 -9.25918,55.0286 z"
       inkscape:transform-center-x="-0.082081267"
       inkscape:transform-center-y="7.9461513" />
    <path
       inkscape:transform-center-y="2.4320959"
       inkscape:transform-center-x="-0.025122895"
       d="m 68.791599,427.6385 -16.894071,2.5094 -7.510317,15.33956 -7.607143,-15.29177 -16.909598,-2.40255 12.192598,-11.96024 -2.940388,-16.82442 15.142583,7.89994 15.092337,-7.99551 -2.833967,16.84267 z"
       inkscape:randomized="0"
       inkscape:rounded="0"
       inkscape:flatsided="false"
       sodipodi:arg2="0.93931681"
       sodipodi:arg1="0.31099828"
       sodipodi:r2="12.859744"
       sodipodi:r1="25.719488"
       sodipodi:cy="419.76809"
       sodipodi:cx="44.305912"
       sodipodi:sides="5"
       id="path4138eg"
       style="opacity:0.28999999;fill:#00ffff;stroke:#800080;stroke-width:0.3060711"
       sodipodi:type="star" />
    <g
       id="BiggoEGbg"
       transform="translate(-109.96232,143.76849)">
      <desc
         id="desc4151">A big creature for LifeFLOW! :)</desc>
      <circle
         r="29.934187"
         cy="259.14496"
         cx="302.39636"
         id="path4137eg"
         style="opacity:0.28999999;fill:#ffff00;stroke:#800080;stroke-width:0.6047619" />
      <circle
         r="7.3308215"
         cy="265.86487"
         cx="307.8945"
         id="path4139eg"
         style="opacity:0.28999999;fill:#ffff00;stroke:#800080;stroke-width:0.6047619" />
      <ellipse
         ry="10.996231"
         rx="3.6654108"
         cy="251.20323"
         cx="292.01105"
         id="path4141eg"
         style="opacity:0.28999999;fill:#0000ff;stroke:#800080;stroke-width:0.6047619" />
      <ellipse
         ry="3.6654108"
         rx="9.7744284"
         cy="253.64687"
         cx="317.66891"
         id="path4143eg"
         style="opacity:0.28999999;fill:#0000ff;stroke:#800080;stroke-width:0.6047619" />
    </g>
    <rect
       style="opacity:0.87000002;fill:url(#linearGradient6507);fill-opacity:1;stroke:#0000ff;stroke-width:0.6047619;stroke-miterlimit:4;stroke-dasharray:none;filter:url(#filter5001)"
       id="MedyEGbg"
       width="40.319515"
       height="23.214266"
       x="42.763119"
       y="486.60684" />
    <g
       id="g6519eg"
       inkscape:label="#MedyEG"
       transform="translate(0,53.355016)">
      <rect
         y="281.74832"
         x="59.868374"
         height="31.766891"
         width="63.533783"
         id="rect6509eg"
         style="opacity:0.87000002;fill:#0000ff;fill-opacity:1;stroke:#0000ff;stroke-width:0.6047619;stroke-miterlimit:4;stroke-dasharray:none" />
      <path
         inkscape:transform-center-y="-0.19571458"
         inkscape:transform-center-x="0.72308977"
         d="m 81.860835,300.07539 -6.160837,-1.4834 -4.714657,4.23419 -0.493011,-6.31769 -5.483865,-3.17547 5.856139,-2.42116 1.325442,-6.19674 4.112304,4.82134 6.303033,-0.65433 -3.314595,5.40091 z"
         inkscape:randomized="0"
         inkscape:rounded="0"
         inkscape:flatsided="false"
         sodipodi:arg2="1.3230568"
         sodipodi:arg1="0.69473828"
         sodipodi:r2="4.7712951"
         sodipodi:r1="9.5425901"
         sodipodi:cy="293.96637"
         sodipodi:cx="74.530014"
         sodipodi:sides="5"
         id="path6511eg"
         style="opacity:0.87000002;fill:#ff8080;fill-opacity:1;stroke:#0000ff;stroke-width:0.6047619;stroke-miterlimit:4;stroke-dasharray:none"
         sodipodi:type="star" />
      <path
         inkscape:transform-center-y="0.22428177"
         inkscape:transform-center-x="0.37755769"
         d="m 108.74051,312.2934 -1.06782,-3.99694 -3.89796,-1.38629 3.47135,-2.25068 0.1139,-4.13556 3.21323,2.60595 3.96835,-1.16963 -1.48546,3.86124 2.33867,3.41269 -4.13129,-0.21956 z"
         inkscape:randomized="0"
         inkscape:rounded="0"
         inkscape:flatsided="false"
         sodipodi:arg2="2.3965104"
         sodipodi:arg1="1.7681919"
         sodipodi:r2="3.115"
         sodipodi:r1="6.23"
         sodipodi:cy="306.18439"
         sodipodi:cx="109.96231"
         sodipodi:sides="5"
         id="path6513eg"
         style="opacity:0.87000002;fill:#ff8080;fill-opacity:1;stroke:#0000ff;stroke-width:0.6047619;stroke-miterlimit:4;stroke-dasharray:none"
         sodipodi:type="star" />
      <path
         inkscape:transform-center-y="-0.16705416"
         inkscape:transform-center-x="0.16705535"
         d="m 92.857067,295.18814 -2.173306,-0.73698 -1.839194,1.3725 0.02933,-2.29468 -1.873674,-1.32505 2.191432,-0.6812 0.6812,-2.19143 1.32505,1.87368 2.294678,-0.0293 -1.372506,1.8392 z"
         inkscape:randomized="0"
         inkscape:rounded="0"
         inkscape:flatsided="false"
         sodipodi:arg2="1.4137167"
         sodipodi:arg1="0.78539816"
         sodipodi:r2="1.727891"
         sodipodi:r1="3.4557824"
         sodipodi:cy="292.74454"
         sodipodi:cx="90.41346"
         sodipodi:sides="5"
         id="path6515eg"
         style="opacity:0.87000002;fill:#ff8080;fill-opacity:1;stroke:#0000ff;stroke-width:0.6047619;stroke-miterlimit:4;stroke-dasharray:none"
         sodipodi:type="star" />
      <path
         inkscape:transform-center-y="-0.1121867"
         inkscape:transform-center-x="-0.63956251"
         d="m 84.736419,309.55335 2.201552,-4.70569 -2.628342,-4.48131 5.155694,0.63966 3.44978,-3.8845 0.984842,5.10102 4.760422,2.08056 -4.547027,2.51294 -0.507677,5.17036 -3.79506,-3.54794 z"
         inkscape:randomized="0"
         inkscape:rounded="0"
         inkscape:flatsided="false"
         sodipodi:arg2="3.0951702"
         sodipodi:arg1="2.4668517"
         sodipodi:r2="3.9116797"
         sodipodi:r1="7.8233595"
         sodipodi:cy="304.66614"
         sodipodi:cx="90.845436"
         sodipodi:sides="5"
         id="path6517eg"
         style="opacity:0.87000002;fill:#ff8080;fill-opacity:1;stroke:#0000ff;stroke-width:0.6047619;stroke-miterlimit:4;stroke-dasharray:none"
         sodipodi:type="star" />
    </g>
    <path
       sodipodi:type="spiral"
       style="fill:#00ffff;fill-rule:evenodd;stroke:#000000;stroke-width:0.6047619px;stroke-linecap:butt;stroke-linejoin:miter;stroke-opacity:1"
       id="eaglynew2"
       sodipodi:cx="73.308212"
       sodipodi:cy="393.74982"
       sodipodi:expansion="1"
       sodipodi:revolution="3"
       sodipodi:radius="41.613129"
       sodipodi:argument="-18.147299"
       sodipodi:t0="0"
       d="m 73.308212,393.74982 c 1.592741,1.3477 -1.030876,2.81189 -2.239973,2.64724 -3.276579,-0.4462 -4.137127,-4.52375 -3.054508,-7.12719 1.936552,-4.65694 7.887895,-5.67954 12.014402,-3.46177 6.055815,3.25466 7.263028,11.296 3.869042,16.90161 -4.52365,7.4714 -14.719492,8.86373 -21.788831,4.27631 -8.896041,-5.77281 -10.473289,-18.15026 -4.683575,-26.67604 7.01212,-10.32587 21.585119,-12.08797 31.563258,-5.09085 11.758893,8.24586 13.705843,25.02253 5.49811,36.45048 -9.476152,13.19401 -28.461631,15.32586 -41.337687,5.90537 -14.630593,-10.70415 -16.947384,-31.90193 -6.312644,-46.2249 11.930572,-16.06821 35.343106,-18.56999 51.112116,-6.71991 17.506588,13.15584 20.193418,38.78494 7.127178,55.99933">
      <desc
         id="desc6528">a new test shape to play with! :)</desc>
    </path>
    <path
       d="m 205.26299,520.81738 c 1.59274,1.34771 -1.03088,2.8119 -2.23998,2.64724 -3.27658,-0.44619 -4.13713,-4.52374 -3.05451,-7.12718 1.93656,-4.65695 7.8879,-5.67955 12.01441,-3.46178 6.05581,3.25466 7.26302,11.296 3.86904,16.90162 -4.52365,7.4714 -14.71949,8.86373 -21.78883,4.27631 -8.89604,-5.77281 -10.47329,-18.15027 -4.68358,-26.67605 7.01212,-10.32586 21.58512,-12.08796 31.56326,-5.09084 11.75889,8.24586 13.70584,25.02252 5.49811,36.45047 -9.47615,13.19402 -28.46163,15.32587 -41.33769,5.90538 -14.63059,-10.70416 -16.94738,-31.90193 -6.31264,-46.2249 11.93057,-16.06821 35.3431,-18.57 51.11211,-6.71991 17.50659,13.15583 20.19342,38.78493 7.12718,55.99933"
       sodipodi:t0="0"
       sodipodi:argument="-18.147299"
       sodipodi:radius="41.613129"
       sodipodi:revolution="3"
       sodipodi:expansion="1"
       sodipodi:cy="520.81738"
       sodipodi:cx="205.26299"
       id="path6530eg"
       style="fill:#800000;fill-rule:evenodd;stroke:#000000;stroke-width:0.6047619px;stroke-linecap:butt;stroke-linejoin:miter;stroke-opacity:1"
       sodipodi:type="spiral">
      <desc
         id="desc6532">a new test shape to play with! :)</desc>
    </path>
  </g>
  <rect
     height="448"
     id="Border"
     style="fill:none;stroke:#800080;stroke-width:0.60342091"
     width="448"
     x="1"
     y="1" />
	 
	 
	 <!-- creatures from original versions! :) -->
	 
			<a style="fill-opacity:0.75" xlink:href="http://life.worldsowisdom.com/flow/"> <rect height="90" id="YellowRect" onmouseout="setAttribute('fill-opacity','0.5')" onmouseover="setAttribute('fill-opacity','1.0')" style="fill:yellow;stroke:#000000" width="90" x="150" y="90"> <desc id="desc3364">A clickable square!</desc>
			<title id="title3362"></title>
			</rect> </a> <a style="fill-opacity:0.75" xlink:href="http://life.worldsowisdom.com/flow/">
			<rect height="90" id="OrangeRect" onmouseout="setAttribute('fill-opacity','0.75')" onmouseover="setAttribute('fill-opacity','1.0')" style="fill:orange;stroke:#000000" width="90" x="60" y="300"> <desc id="desc3364">A clickable square!</desc>
			<title id="title3362"></title>
			</rect> </a>

<path xmlns="http://www.w3.org/2000/svg" sodipodi:type="spiral" xmlns:sodipodi="http://sodipodi.sourceforge.net/DTD/sodipodi-0.dtd" style="fill:#00ffff;fill-rule:evenodd;stroke:#000000;stroke-width:0.6047619px;stroke-linecap:butt;stroke-linejoin:miter;stroke-opacity:1" id="eaglynew" sodipodi:cx="73.308212" sodipodi:cy="393.74982" sodipodi:expansion="1" sodipodi:revolution="3" sodipodi:radius="41.613129" sodipodi:argument="-18.147299" sodipodi:t0="0" d="m 73.308212,393.74982 c 1.592741,1.3477 -1.030876,2.81189 -2.239973,2.64724 -3.276579,-0.4462 -4.137127,-4.52375 -3.054508,-7.12719 1.936552,-4.65694 7.887895,-5.67954 12.014402,-3.46177 6.055815,3.25466 7.263028,11.296 3.869042,16.90161 -4.52365,7.4714 -14.719492,8.86373 -21.788831,4.27631 -8.896041,-5.77281 -10.473289,-18.15026 -4.683575,-26.67604 7.01212,-10.32587 21.585119,-12.08797 31.563258,-5.09085 11.758893,8.24586 13.705843,25.02253 5.49811,36.45048 -9.476152,13.19401 -28.461631,15.32586 -41.337687,5.90537 -14.630593,-10.70415 -16.947384,-31.90193 -6.312644,-46.2249 11.930572,-16.06821 35.343106,-18.56999 51.112116,-6.71991 17.506588,13.15584 20.193418,38.78494 7.127178,55.99933" transform="translate(25, 25 )">
    <desc id="desc36">a new test shape to play with! :)</desc>
  </path><rect xmlns="http://www.w3.org/2000/svg" height="10" id="AvrilNiblet1" onmouseout="setAttribute('fill-opacity','0.5')" onmouseover="setAttribute('fill-opacity','1.0')" style="fill:yellow;stroke:black" width="10" x="225" y="225" transform="translate(25, 25 )">
    <desc id="desc71">Avril's first little niblet! :)</desc>
    <title id="title73"/>
  </rect><path xmlns="http://www.w3.org/2000/svg" fill-opacity="0.43046721000000016" onmousedown="Reverse(PurpleSpiral)" id="PurpleSpiral" d="m 282.09113,269.50729 c 1.52075,1.52076 -1.29967,2.80025 -2.52761,2.52761 -3.32763,-0.73884 -3.86257,-5.00113 -2.5276,-7.58281 2.38796,-4.61803 8.58895,-5.15902 12.63801,-2.5276 5.94217,3.86172 6.4939,12.22544 2.5276,17.69322 -5.28645,7.28768 -15.87921,7.84514 -22.74842,2.52759 -8.6442,-6.69159 -9.20486,-19.54122 -2.5276,-27.80363 8.08706,-10.00688 23.20787,-10.56947 32.85884,-2.52759 11.37333,9.47708 11.93717,26.8774 2.52759,37.91404 -10.86373,12.74223 -30.54887,13.30692 -42.96924,2.52759 -14.11282,-12.24817 -14.67812,-34.22169 -2.52759,-48.02445 13.63105,-15.4846 37.8955,-16.05034 53.07965,-2.52759 16.85728,15.01283 17.42336,41.57006 2.52759,58.13486" inkscape:tile-cx="185.6451" xmlns:inkscape="http://www.inkscape.org/namespaces/inkscape" inkscape:tile-cy="265.9547" inkscape:tile-h="68.00056" inkscape:tile-w="75.106916" inkscape:tile-x0="148.09164" inkscape:tile-y0="231.95443" sodipodi:argument="-18.064157" xmlns:sodipodi="http://sodipodi.sourceforge.net/DTD/sodipodi-0.dtd" sodipodi:cx="182.09113" sodipodi:cy="269.50729" sodipodi:expansion="1" sodipodi:radius="42.894836" sodipodi:revolution="3" sodipodi:t0="0" sodipodi:type="spiral" style="fill:#800080;fill-rule:evenodd;stroke:#000000;stroke-width:0.2081555px;stroke-linecap:butt;stroke-linejoin:miter;stroke-opacity:1" transform="translate(25, 25)"/><image xmlns="http://www.w3.org/2000/svg" id="back3" width="448" height="448" x="1" y="1" xlink:href="creatures/png/back3.png" xmlns:xlink="http://www.w3.org/1999/xlink"/><image xmlns="http://www.w3.org/2000/svg" id="galaxy3" width="294" height="150" x="150" y="100" style="opacity:0.5" onmousedown="tool(eg_newy)" xlink:href="creatures/png/galaxy3.png" xmlns:xlink="http://www.w3.org/1999/xlink" transform="translate(25, 25 )"/><image xmlns="http://www.w3.org/2000/svg" id="galaxy4" width="306" height="150" x="50" y="250" style="opacity:0.25" onmousedown="tool(eg_newy2)" xlink:href="creatures/png/galaxy4.png" xmlns:xlink="http://www.w3.org/1999/xlink" transform="translate(25, 12.5 )"/><image xmlns="http://www.w3.org/2000/svg" id="planet3" width="157" height="150" x="100" y="250" style="opacity:0.5" onmousedown="tool(eg_niblet)" xlink:href="creatures/png/planet3.png" xmlns:xlink="http://www.w3.org/1999/xlink" transform="translate(25, 0.0 )"/><image xmlns="http://www.w3.org/2000/svg" id="planet4" width="150" height="150" x="300" y="150" style="opacity:0.9" onmousedown="tool(eg_medy)" xlink:href="creatures/png/planet4.png" xmlns:xlink="http://www.w3.org/1999/xlink" transform="translate(25, 0.0 )"/><image xmlns="http://www.w3.org/2000/svg" id="satellite3" width="79" height="150" x="200" y="250" onmousedown="tool(satellite3)" xlink:href="creatures/png/satellite3.png" xmlns:xlink="http://www.w3.org/1999/xlink" transform="translate(25, 25 )"/><image xmlns="http://www.w3.org/2000/svg" id="satellite4" width="109" height="75" x="50" y="50" onmousedown="tool(satellite4)" xlink:href="creatures/png/satellite4.png" xmlns:xlink="http://www.w3.org/1999/xlink" transform="translate(25, 25 )"/><image xmlns="http://www.w3.org/2000/svg" id="mediumcreature3" width="38" height="50" x="300" y="175" onmousedown="tool(the_rect)" xlink:href="creatures/png/mediumcreature3.png" xmlns:xlink="http://www.w3.org/1999/xlink" transform="translate( 0.0 , 25 )"/><image xmlns="http://www.w3.org/2000/svg" id="niblet3" width="21" height="32" x="400" y="350" onmousedown="tool(pink_rect)" xlink:href="creatures/png/niblet3.png" xmlns:xlink="http://www.w3.org/1999/xlink" transform="translate( 0.0 , 25 )"/><image xmlns="http://www.w3.org/2000/svg" id="bigbeauty3" width="92" height="110" x="100" y="150" onmousedown="tool(eg_biggo)" xlink:href="creatures/png/bigbeauty3.png" xmlns:xlink="http://www.w3.org/1999/xlink" transform="translate(25, 0.0 )"/><path xmlns="http://www.w3.org/2000/svg" id="Creature-0.28673175812254414" d="M 95.63355566296909, 23.826560685835016 Q 30.70904185017695, 89.72006493009434 149.14738782559516, 193.67319691716116 T 113.66701048844051, 183.01164409900693, 154.15913501297544 62.57429685156624, 110.2749886003604 195.98630699323007, 47.06349011004135 86.13032949628189, 30.57812098394262 49.939806221252034 z" style="fill:yellow;stroke:orange" stroke-width="8.732566342228719" opacity="0.407284358745052" transform="translate(127.48650755452572, 88.36768673226797) rotate(0.25256382616578016 359.26666259765625 378.1583251953125)" onmousedown="tool('Creature-0.28673175812254414')" class="creatureClass"><title>Creature-0.28673175812254414</title><desc>moveLifePathCreature2("Creature-0.28673175812254414", 1, 1)</desc></path><image xmlns="http://www.w3.org/2000/svg" id="Creature-0.4679279388243205" a0:href="creatures/png/bact4.png" xmlns:a0="http://www.w3.org/1999/xlink" opacity="0.9784424281178172" transform="translate(315.9068317869352, 98.17507938017985) rotate(0.8221696543686458 492.2416687011719 391.15833282470703)" x="200" y="200" height="120" width="120" onmousedown="tool('Creature-0.4679279388243205')" class="creatureClass"><title>Creature-0.4679279388243205</title><desc>movePsyCreat("Creature-0.4679279388243205", 1, 1)</desc></image><g xmlns="http://www.w3.org/2000/svg" id="Creature-0.5608795469716997" style="fill:#243ff1;stroke:#793f44" stroke-width="241.2610225907613" opacity="0.81563147774189" transform="translate(0,0)" onmousedown="tool('Creature-0.5608795469716997')" class="creatureClass"><title>Creature-0.5608795469716997</title><desc>moveLifePathCreatureEvo3("Creature-0.5608795469716997", 0.7, 1.2)</desc><path id="Creature-0.5608795469716997-part-0" d="M 57.34384291193343, 43.342737062001405 Q 40.641088842104395, 34.727843160164966 12.92351790530626, 11.89416535130198 T 10.833288594561747, 3.684569550908692, 37.3628250068138 40.37744714659809, 48.701407153948296 39.94681630544841, 7.168461401043209 30.297509051281533, 44.673425453361965 2.6587218520863907 z" stroke-width="73.75504497727246" opacity="0.7738887489392383" class="creaturePartClass"/><path id="Creature-0.5608795469716997-part-1" d="M 14.408568345664033, 37.45213549769591 Q 3.966931639981555, 38.44437083939835 51.671440566314686, 48.334792162971056 T 40.49619703380688, 50.1116644431403, 41.428409385373385 14.585746531146487, 31.305306586139366 7.910630719799559, 60.88291323921088 36.62778218812636, 43.25774376266038 12.143674917158503 z" stroke-width="131.5731601890274" opacity="0.6049844121230714" class="creaturePartClass"/><path id="Creature-0.5608795469716997-part-2" d="M 3.8122202996266097, 24.45922586156121 Q 26.454898232909983, 38.40684538057433 26.158863648633048, 46.201201878264236 T 77.51243587465643, 33.899174364588355, 64.37526681458723 26.656376997585266, 29.59420246356568 11.01828110335657, 60.691379418114984 7.404337752658472, 78.34583701571525 22.777311363426975 z" stroke-width="78.23107964896239" opacity="0.6766950682934028" class="creaturePartClass"/><path id="Creature-0.5608795469716997-part-3" d="M 47.50060201838224, 38.12331001102251 Q 74.66593336649126, 38.35887576009386 52.30479293061278, 37.80850709458168 T 14.229103950666675, 38.8416131235998, 69.2199395900569 19.085757069833488, 24.624545047147535 21.080865057522704, 27.75650739652773 49.70023085605839, 51.06117881636945 7.805722645693504 z" stroke-width="77.7945352695517" opacity="0.8884805770356023" class="creaturePartClass"/></g><image xmlns="http://www.w3.org/2000/svg" id="Creature-0.22901491598971746" a0:href="creatures/png/flower1.png" xmlns:a0="http://www.w3.org/1999/xlink" opacity="0.9171476148538632" transform="translate(-146.97837740697364, 278.08037597254304) rotate(0.00008225694976985572 271.08333587646484 730.5000152587891)" x="200" y="200" height="120" width="120" onmousedown="tool('Creature-0.22901491598971746')" class="creatureClass"><title>Creature-0.22901491598971746</title><desc>movePsyCreat("Creature-0.22901491598971746", 1, 1)</desc></image><image xmlns="http://www.w3.org/2000/svg" id="Creature-0.5504239421169437" a0:href="creatures/png/flower1.png" xmlns:a0="http://www.w3.org/1999/xlink" opacity="0.9983983835418795" transform="translate(424.9659457258638, 205.1635878936509) rotate(-1.0919185792263941 1369.2417068481445 993.3750152587891)" x="200" y="200" height="120" width="120" onmousedown="tool('Creature-0.5504239421169437')" class="creatureClass"><title>Creature-0.5504239421169437</title><desc>movePsyCreat("Creature-0.5504239421169437", 1, 1)</desc></image><image xmlns="http://www.w3.org/2000/svg" id="Creature-0.26849861351356064" a0:href="creatures/png/flower1.png" xmlns:a0="http://www.w3.org/1999/xlink" opacity="0.5593587313346429" transform="translate(396.15486631370027, 134.19681803826484) rotate(-0.307047007949124 429.8249969482422 663.5083465576172)" x="200" y="200" height="120" width="120" onmousedown="tool('Creature-0.26849861351356064')" class="creatureClass"><title>Creature-0.26849861351356064</title><desc>movePsyCreat("Creature-0.26849861351356064", 1, 1)</desc></image><g xmlns="http://www.w3.org/2000/svg" id="Creature-0.255086052029732" style="fill:#83aac6;stroke:#7e01cd" stroke-width="292.7846837664543" opacity="0.8609787210325722" transform="translate(0,0)" onmousedown="tool('Creature-0.255086052029732')" class="creatureClass"><title>Creature-0.255086052029732</title><desc>moveLifePathCreatureEvo3("Creature-0.255086052029732", 0.7, 1.2)</desc><path id="Creature-0.255086052029732-part-0" d="M 186.15016051251922, 391.2453695228222 Q 199.68938649824167, 625.3998577763203 83.17065098108104, 460.19830158872986 T 59.6965030539275, 61.792763218000104, 73.38251220108208 225.08782443093358, 57.62678978848254 295.41840713538426, 31.610079629411505 141.54365638674417, 45.625085207571466 598.7539613713749 z" stroke-width="37.255633190679795" opacity="0.9076029267310491" class="creaturePartClass"/><path id="Creature-0.255086052029732-part-1" d="M 250.0304670352603, 87.08271914996547 Q 101.99893416105942, 171.39810927896667 166.1218039138677, 400.7564216535058 T 239.9971818516658, 762.1234484820596, 113.48558316621293 578.9841679573038, 157.5106850790916 5.477796579534146, 200.40100467622045 63.65007563440288, 65.89137982734755 345.5330862053819 z" stroke-width="25.27532132385495" opacity="0.8080579832426339" class="creaturePartClass"/><path id="Creature-0.255086052029732-part-2" d="M 27.96751766214095, 265.0399524483671 Q 229.71753886511908, 695.7704622146188 103.85627200210091, 204.67118764051895 T 151.46167154908028, 51.81921004574284, 246.47293507368786 427.1338211285287, 38.70981944035616 491.19879360799644, 24.41443048048354 445.93832391699596, 28.10930103772895 694.7559345918897 z" stroke-width="130.53027685406292" opacity="0.875248818245628" class="creaturePartClass"/><path id="Creature-0.255086052029732-part-3" d="M 18.28337648167434, 57.764124980835575 Q 20.643017288128934, 124.35144729976969 241.7410037565086, 734.7969212090796 T 146.4266019582729, 428.2872380847537, 57.44542917014809 478.24974035566055, 10.361612206636732 356.0704661144983, 220.13173892924686 668.4714310685009, 105.62645687494852 141.29408310935216 z" stroke-width="2.9268895349176427" opacity="0.30063281473270453" class="creaturePartClass"/></g><g xmlns="http://www.w3.org/2000/svg" id="Creature-0.745693150203005" style="fill:#ab690f;stroke:#8bfa24" stroke-width="92.05776732251776" opacity="0.3550413226815269" transform="translate(0,0)" onmousedown="tool('Creature-0.745693150203005')" class="creatureClass"><title>Creature-0.745693150203005</title><desc>moveLifePathCreatureEvo3("Creature-0.745693150203005", 0.7, 1.2)</desc><path id="Creature-0.745693150203005-part-0" d="M 77.00287721758934, 3478.950019702689 Q 56.34903791019805, 3263.7242393626602 118.8718554584869, 1699.555457456609 T 77.38171340488334, 1882.5406178755366, 81.08289466044194 3324.749220307218, 49.09594186068315 3692.666498322557, 105.60970281771283 3450.0990135577854, 17.27678207461613 1565.1060869746816 z" stroke-width="118.01024649405018" opacity="0.9305813419079808" class="creaturePartClass"/><path id="Creature-0.745693150203005-part-1" d="M 112.53294487356894, 3858.1293552018706 Q 6.8558753335935, 2372.7753925934094 61.22111237117702, 3738.5772530626678 T 126.34022482343278, 645.4043256579766, 119.22250049945143 1953.2746703089367, 34.08415100669427 774.5626001161082, 32.42139574034231 3867.2382285379927, 122.32689063625587 2734.6824771652095 z" stroke-width="166.04161411106907" opacity="0.7700917511723125" class="creaturePartClass"/><path id="Creature-0.745693150203005-part-2" d="M 74.2452382587187, 2522.5527612573956 Q 117.64875478682973, 1061.9788296154961 162.8252351231674, 678.6058172784984 T 67.82421793771584, 3218.3639736797086, 38.13819828117511 1940.2407960159753, 111.73081500295055 3599.354726029107, 137.41318803664657 543.6519004031992, 106.44712426232591 3411.533038975429 z" stroke-width="390.1613968673716" opacity="0.9500546437511997" class="creaturePartClass"/><path id="Creature-0.745693150203005-part-3" d="M 50.69898597592949, 1176.783901289826 Q 16.058965010013196, 3658.4750929529537 86.44829477064913, 2596.369507472536 T 12.050923926690686, 2392.968212278308, 137.2995620801496 2849.363955770985, 71.07889889313832 1883.5204105992154, 21.914369078894353 1825.4483169032058, 134.88737695460654 1020.9551802477943 z" stroke-width="12.148171319851686" opacity="0.8921140952744158" class="creaturePartClass"/></g><g xmlns="http://www.w3.org/2000/svg" id="Creature-0.026245746342354437" style="fill:#a9c23f;stroke:#c6ade8" stroke-width="351.0305660314495" opacity="0.8772423348966896" transform="translate(0,0)" onmousedown="tool('Creature-0.026245746342354437')" class="creatureClass"><title>Creature-0.026245746342354437</title><desc>moveLifePathCreatureEvo3("Creature-0.026245746342354437", 0.7, 1.2)</desc><path id="Creature-0.026245746342354437-part-0" d="M 27.371507405706183, 2324.7362448216118 Q 106.43720526336887, 3307.5357022838034 24.200655686850347, 2518.0670030706397 T 43.83029787538542, 25.615054071488576, 81.59819818738441 4288.4045122541065, 30.019078360591553 1951.6673005462098, 52.14027189085013 3360.6817358585604, 32.891221118169994 2873.6237966709127 z" stroke-width="103.70206020237856" opacity="0.784222333017851" class="creaturePartClass"/><path id="Creature-0.026245746342354437-part-1" d="M 43.11547433477793, 3593.7761913527092 Q 94.35530470706604, 774.1957328977595 13.807825370836039, 4685.025079585985 T 80.61081886144312, 4619.449273213355, 71.92118885121701 934.3978242865388, 71.01257337383095 4418.596110641061, 18.53535135270318 4123.797663128738, 84.25852079148149 1446.0977383851648 z" stroke-width="81.70037136472698" opacity="0.9401035105876187" class="creaturePartClass"/><path id="Creature-0.026245746342354437-part-2" d="M 37.54650259035536, 1140.658369289424 Q 48.59639509872416, 1490.874651056708 48.36641292582366, 2109.605896873098 T 32.55769871856055, 2061.621881931361, 32.44066628502235 4156.577528022275, 30.49928894295243 241.18822767735222, 54.812397675419184 413.61797560720964, 90.54595660794023 4091.991923483461 z" stroke-width="364.37203289139336" opacity="0.8099980363562205" class="creaturePartClass"/><path id="Creature-0.026245746342354437-part-3" d="M 95.29949024926344, 603.3597998027998 Q 23.9295356052665, 778.3338574104138 71.71087572143944, 3111.5644144768776 T 83.3626890796175, 301.0937771818964, 70.50461429622813 2278.088465073376, 25.550094421824138 3762.6665388083998, 36.355154923909375 217.95890834277466, 81.42717172177217 90.92367715863433 z" stroke-width="114.64956313980032" opacity="0.9510793081860927" class="creaturePartClass"/></g><g xmlns="http://www.w3.org/2000/svg" id="Creature-0.40110664917065664" style="fill:#325a43;stroke:#10fd1e" stroke-width="76.53171006453117" opacity="0.7678939640800773" transform="translate(0,0)" onmousedown="tool('Creature-0.40110664917065664')" class="creatureClass"><title>Creature-0.40110664917065664</title><desc>moveLifePathCreatureEvo3("Creature-0.40110664917065664", 0.7, 1.2)</desc><path id="Creature-0.40110664917065664-part-0" d="M 83.9773937013541, 44.60776624980953 Q 129.25788151305852, 193.38722898219146 114.25830527272578, 144.59373032532403 T 52.21392006261148, 222.52910733211908, 88.52865248259157 443.7660176356201, 52.54527805353492 317.4885532163292, 32.72754922387961 146.34307917800155, 121.45869030423756 18.003810642491693 z" stroke-width="58.991238829856535" opacity="0.9285602463257528" class="creaturePartClass"/><path id="Creature-0.40110664917065664-part-1" d="M 117.92706156212328, 22.892888511624022 Q 143.88619938030726, 204.30996732681047 20.377879327734, 32.27911027539477 T 31.97339665079893, 187.77628040412887, 154.02953816879116 388.6345105273013, 80.14902662084602 380.7030341933392, 104.31130393653079 139.67887949092275, 61.51579846011815 85.55381960444089 z" stroke-width="115.67464016977357" opacity="0.740367759265459" class="creaturePartClass"/><path id="Creature-0.40110664917065664-part-2" d="M 177.407536738615, 75.29383964049143 Q 107.24886835811512, 249.05685804839575 46.138408881734215, 202.05470956387552 T 125.69441502643667, 271.46409307262684, 110.9720405636113 363.99632451748323, 215.600029457873 149.93878933610347, 150.41994540153146 382.38747831590416, 1.4872964352037286 131.1986995334758 z" stroke-width="41.33578823480116" opacity="0.9042185243843776" class="creaturePartClass"/><path id="Creature-0.40110664917065664-part-3" d="M 225.39650178413098, 357.03559285746724 Q 160.6424203801778, 170.84373481526086 125.81924216126548, 310.9744325112639 T 198.3527107176834, 55.257864228747124, 17.398713278889844 203.32664951007564, 161.1359543144234 21.805881172415244, 143.1079540340737 166.6094503293477, 175.16892749020306 174.30094692394616 z" stroke-width="199.48653545290153" opacity="0.9817753515451098" class="creaturePartClass"/></g></svg>