<?xml version="1.0" encoding="UTF-8" standalone="no"?>
<!-- Created with LifeFLOW (http://life.worldsowisdom.com/flow/) -->

<svg
   xmlns:osb="http://www.openswatchbook.org/uri/2009/osb"
   xmlns:dc="http://purl.org/dc/elements/1.1/"
   xmlns:cc="http://creativecommons.org/ns#"
   xmlns:rdf="http://www.w3.org/1999/02/22-rdf-syntax-ns#"
   xmlns:svg="http://www.w3.org/2000/svg"
   xmlns="http://www.w3.org/2000/svg"
   xmlns:xlink="http://www.w3.org/1999/xlink"
   xmlns:sodipodi="http://sodipodi.sourceforge.net/DTD/sodipodi-0.dtd"
   xmlns:inkscape="http://www.inkscape.org/namespaces/inkscape"
   width="450"
   height="450"
   viewBox="0 0 450 450"
   id="svg2"
   version="1.1"
   inkscape:version="0.91 r13725"
   sodipodi:docname="newcreatures-plain.svg">
  <defs
     id="defs4">
    <linearGradient
       inkscape:collect="always"
       id="linearGradient6501">
      <stop
         style="stop-color:#0000ff;stop-opacity:1;"
         offset="0"
         id="stop6503" />
      <stop
         style="stop-color:#0000ff;stop-opacity:0;"
         offset="1"
         id="stop6505" />
    </linearGradient>
    <linearGradient
       id="linearGradient6455"
       osb:paint="solid">
      <stop
         style="stop-color:#0000ff;stop-opacity:1;"
         offset="0"
         id="stop6457" />
    </linearGradient>
    <filter
       inkscape:collect="always"
       style="color-interpolation-filters:sRGB"
       id="filter5001"
       x="-0.37912726"
       width="1.7582545"
       y="-0.65848422"
       height="2.3169684">
      <feGaussianBlur
         inkscape:collect="always"
         stdDeviation="6.3692616"
         id="feGaussianBlur5003" />
    </filter>
    <linearGradient
       inkscape:collect="always"
       xlink:href="#linearGradient6501"
       id="linearGradient6507"
       x1="242.51431"
       y1="178.50594"
       x2="313.40628"
       y2="178.50594"
       gradientUnits="userSpaceOnUse"
       gradientTransform="translate(-215.03742,319.7082)" />
  </defs>
  <sodipodi:namedview
     id="base"
     pagecolor="#ffffff"
     bordercolor="#666666"
     borderopacity="1.0"
     inkscape:pageopacity="0.0"
     inkscape:pageshadow="2"
     inkscape:zoom="0.24748738"
     inkscape:cx="463.57331"
     inkscape:cy="265.90363"
     inkscape:document-units="px"
     inkscape:current-layer="layer1"
     showgrid="false"
     inkscape:window-width="1366"
     inkscape:window-height="706"
     inkscape:window-x="-8"
     inkscape:window-y="-8"
     inkscape:window-maximized="1"
     units="px" />
  <metadata
     id="metadata7">
    <rdf:RDF>
      <cc:Work
         rdf:about="">
        <dc:format>image/svg+xml</dc:format>
        <dc:type
           rdf:resource="http://purl.org/dc/dcmitype/StillImage" />
        <dc:title></dc:title>
      </cc:Work>
    </rdf:RDF>
  </metadata>
  <g
     inkscape:label="Layer 1"
     inkscape:groupmode="layer"
     id="layer1"
     transform="translate(0,-364.28567)">
    <path
       sodipodi:type="star"
       style="opacity:0.28999999;fill:#00ffff;stroke:#800080"
       id="path4136eg"
       sodipodi:sides="5"
       sodipodi:cx="149.96248"
       sodipodi:cy="470.92843"
       sodipodi:r1="84.03109"
       sodipodi:r2="42.015545"
       sodipodi:arg1="0.31099828"
       sodipodi:arg2="0.93931681"
       inkscape:flatsided="false"
       inkscape:rounded="0"
       inkscape:randomized="0"
       d="m 229.96248,496.64272 -55.19656,8.19877 -24.53782,50.11762 -24.85417,-49.96149 -55.247286,-7.84966 39.835836,-39.07667 -9.60688,-54.96897 49.47407,25.81078 49.30991,-26.12303 -9.25918,55.0286 z"
       inkscape:transform-center-x="-0.082081267"
       inkscape:transform-center-y="7.9461513" />
    <path
       inkscape:transform-center-y="2.4320959"
       inkscape:transform-center-x="-0.025122895"
       d="m 68.791599,427.6385 -16.894071,2.5094 -7.510317,15.33956 -7.607143,-15.29177 -16.909598,-2.40255 12.192598,-11.96024 -2.940388,-16.82442 15.142583,7.89994 15.092337,-7.99551 -2.833967,16.84267 z"
       inkscape:randomized="0"
       inkscape:rounded="0"
       inkscape:flatsided="false"
       sodipodi:arg2="0.93931681"
       sodipodi:arg1="0.31099828"
       sodipodi:r2="12.859744"
       sodipodi:r1="25.719488"
       sodipodi:cy="419.76809"
       sodipodi:cx="44.305912"
       sodipodi:sides="5"
       id="path4138eg"
       style="opacity:0.28999999;fill:#00ffff;stroke:#800080;stroke-width:0.3060711"
       sodipodi:type="star" />
    <g
       id="BiggoEGbg"
       transform="translate(-109.96232,143.76849)">
      <desc
         id="desc4151">A big creature for LifeFLOW! :)</desc>
      <circle
         r="29.934187"
         cy="259.14496"
         cx="302.39636"
         id="path4137eg"
         style="opacity:0.28999999;fill:#ffff00;stroke:#800080;stroke-width:0.6047619" />
      <circle
         r="7.3308215"
         cy="265.86487"
         cx="307.8945"
         id="path4139eg"
         style="opacity:0.28999999;fill:#ffff00;stroke:#800080;stroke-width:0.6047619" />
      <ellipse
         ry="10.996231"
         rx="3.6654108"
         cy="251.20323"
         cx="292.01105"
         id="path4141eg"
         style="opacity:0.28999999;fill:#0000ff;stroke:#800080;stroke-width:0.6047619" />
      <ellipse
         ry="3.6654108"
         rx="9.7744284"
         cy="253.64687"
         cx="317.66891"
         id="path4143eg"
         style="opacity:0.28999999;fill:#0000ff;stroke:#800080;stroke-width:0.6047619" />
    </g>
    <rect
       style="opacity:0.87000002;fill:url(#linearGradient6507);fill-opacity:1;stroke:#0000ff;stroke-width:0.6047619;stroke-miterlimit:4;stroke-dasharray:none;filter:url(#filter5001)"
       id="MedyEGbg"
       width="40.319515"
       height="23.214266"
       x="42.763119"
       y="486.60684" />
    <g
       id="g6519eg"
       inkscape:label="#MedyEG"
       transform="translate(0,53.355016)">
      <rect
         y="281.74832"
         x="59.868374"
         height="31.766891"
         width="63.533783"
         id="rect6509eg"
         style="opacity:0.87000002;fill:#0000ff;fill-opacity:1;stroke:#0000ff;stroke-width:0.6047619;stroke-miterlimit:4;stroke-dasharray:none" />
      <path
         inkscape:transform-center-y="-0.19571458"
         inkscape:transform-center-x="0.72308977"
         d="m 81.860835,300.07539 -6.160837,-1.4834 -4.714657,4.23419 -0.493011,-6.31769 -5.483865,-3.17547 5.856139,-2.42116 1.325442,-6.19674 4.112304,4.82134 6.303033,-0.65433 -3.314595,5.40091 z"
         inkscape:randomized="0"
         inkscape:rounded="0"
         inkscape:flatsided="false"
         sodipodi:arg2="1.3230568"
         sodipodi:arg1="0.69473828"
         sodipodi:r2="4.7712951"
         sodipodi:r1="9.5425901"
         sodipodi:cy="293.96637"
         sodipodi:cx="74.530014"
         sodipodi:sides="5"
         id="path6511eg"
         style="opacity:0.87000002;fill:#ff8080;fill-opacity:1;stroke:#0000ff;stroke-width:0.6047619;stroke-miterlimit:4;stroke-dasharray:none"
         sodipodi:type="star" />
      <path
         inkscape:transform-center-y="0.22428177"
         inkscape:transform-center-x="0.37755769"
         d="m 108.74051,312.2934 -1.06782,-3.99694 -3.89796,-1.38629 3.47135,-2.25068 0.1139,-4.13556 3.21323,2.60595 3.96835,-1.16963 -1.48546,3.86124 2.33867,3.41269 -4.13129,-0.21956 z"
         inkscape:randomized="0"
         inkscape:rounded="0"
         inkscape:flatsided="false"
         sodipodi:arg2="2.3965104"
         sodipodi:arg1="1.7681919"
         sodipodi:r2="3.115"
         sodipodi:r1="6.23"
         sodipodi:cy="306.18439"
         sodipodi:cx="109.96231"
         sodipodi:sides="5"
         id="path6513eg"
         style="opacity:0.87000002;fill:#ff8080;fill-opacity:1;stroke:#0000ff;stroke-width:0.6047619;stroke-miterlimit:4;stroke-dasharray:none"
         sodipodi:type="star" />
      <path
         inkscape:transform-center-y="-0.16705416"
         inkscape:transform-center-x="0.16705535"
         d="m 92.857067,295.18814 -2.173306,-0.73698 -1.839194,1.3725 0.02933,-2.29468 -1.873674,-1.32505 2.191432,-0.6812 0.6812,-2.19143 1.32505,1.87368 2.294678,-0.0293 -1.372506,1.8392 z"
         inkscape:randomized="0"
         inkscape:rounded="0"
         inkscape:flatsided="false"
         sodipodi:arg2="1.4137167"
         sodipodi:arg1="0.78539816"
         sodipodi:r2="1.727891"
         sodipodi:r1="3.4557824"
         sodipodi:cy="292.74454"
         sodipodi:cx="90.41346"
         sodipodi:sides="5"
         id="path6515eg"
         style="opacity:0.87000002;fill:#ff8080;fill-opacity:1;stroke:#0000ff;stroke-width:0.6047619;stroke-miterlimit:4;stroke-dasharray:none"
         sodipodi:type="star" />
      <path
         inkscape:transform-center-y="-0.1121867"
         inkscape:transform-center-x="-0.63956251"
         d="m 84.736419,309.55335 2.201552,-4.70569 -2.628342,-4.48131 5.155694,0.63966 3.44978,-3.8845 0.984842,5.10102 4.760422,2.08056 -4.547027,2.51294 -0.507677,5.17036 -3.79506,-3.54794 z"
         inkscape:randomized="0"
         inkscape:rounded="0"
         inkscape:flatsided="false"
         sodipodi:arg2="3.0951702"
         sodipodi:arg1="2.4668517"
         sodipodi:r2="3.9116797"
         sodipodi:r1="7.8233595"
         sodipodi:cy="304.66614"
         sodipodi:cx="90.845436"
         sodipodi:sides="5"
         id="path6517eg"
         style="opacity:0.87000002;fill:#ff8080;fill-opacity:1;stroke:#0000ff;stroke-width:0.6047619;stroke-miterlimit:4;stroke-dasharray:none"
         sodipodi:type="star" />
    </g>
    <path
       sodipodi:type="spiral"
       style="fill:#00ffff;fill-rule:evenodd;stroke:#000000;stroke-width:0.6047619px;stroke-linecap:butt;stroke-linejoin:miter;stroke-opacity:1"
       id="eaglynew2"
       sodipodi:cx="73.308212"
       sodipodi:cy="393.74982"
       sodipodi:expansion="1"
       sodipodi:revolution="3"
       sodipodi:radius="41.613129"
       sodipodi:argument="-18.147299"
       sodipodi:t0="0"
       d="m 73.308212,393.74982 c 1.592741,1.3477 -1.030876,2.81189 -2.239973,2.64724 -3.276579,-0.4462 -4.137127,-4.52375 -3.054508,-7.12719 1.936552,-4.65694 7.887895,-5.67954 12.014402,-3.46177 6.055815,3.25466 7.263028,11.296 3.869042,16.90161 -4.52365,7.4714 -14.719492,8.86373 -21.788831,4.27631 -8.896041,-5.77281 -10.473289,-18.15026 -4.683575,-26.67604 7.01212,-10.32587 21.585119,-12.08797 31.563258,-5.09085 11.758893,8.24586 13.705843,25.02253 5.49811,36.45048 -9.476152,13.19401 -28.461631,15.32586 -41.337687,5.90537 -14.630593,-10.70415 -16.947384,-31.90193 -6.312644,-46.2249 11.930572,-16.06821 35.343106,-18.56999 51.112116,-6.71991 17.506588,13.15584 20.193418,38.78494 7.127178,55.99933">
      <desc
         id="desc6528">a new test shape to play with! :)</desc>
    </path>
    <path
       d="m 205.26299,520.81738 c 1.59274,1.34771 -1.03088,2.8119 -2.23998,2.64724 -3.27658,-0.44619 -4.13713,-4.52374 -3.05451,-7.12718 1.93656,-4.65695 7.8879,-5.67955 12.01441,-3.46178 6.05581,3.25466 7.26302,11.296 3.86904,16.90162 -4.52365,7.4714 -14.71949,8.86373 -21.78883,4.27631 -8.89604,-5.77281 -10.47329,-18.15027 -4.68358,-26.67605 7.01212,-10.32586 21.58512,-12.08796 31.56326,-5.09084 11.75889,8.24586 13.70584,25.02252 5.49811,36.45047 -9.47615,13.19402 -28.46163,15.32587 -41.33769,5.90538 -14.63059,-10.70416 -16.94738,-31.90193 -6.31264,-46.2249 11.93057,-16.06821 35.3431,-18.57 51.11211,-6.71991 17.50659,13.15583 20.19342,38.78493 7.12718,55.99933"
       sodipodi:t0="0"
       sodipodi:argument="-18.147299"
       sodipodi:radius="41.613129"
       sodipodi:revolution="3"
       sodipodi:expansion="1"
       sodipodi:cy="520.81738"
       sodipodi:cx="205.26299"
       id="path6530eg"
       style="fill:#800000;fill-rule:evenodd;stroke:#000000;stroke-width:0.6047619px;stroke-linecap:butt;stroke-linejoin:miter;stroke-opacity:1"
       sodipodi:type="spiral">
      <desc
         id="desc6532">a new test shape to play with! :)</desc>
    </path>
  </g>
  <rect
     height="448"
     id="Border"
     style="fill:none;stroke:#800080;stroke-width:0.60342091"
     width="448"
     x="1"
     y="1" />
	 
	 
	 <!-- creatures from original versions! :) -->
	 
			<a style="fill-opacity:0.75" xlink:href="http://life.worldsowisdom.com/flow/"> <rect height="90" id="YellowRect" onmouseout="setAttribute('fill-opacity','0.5')" onmouseover="setAttribute('fill-opacity','1.0')" style="fill:yellow;stroke:#000000" width="90" x="150" y="90"> <desc id="desc3364">A clickable square!</desc>
			<title id="title3362"></title>
			</rect> </a> <a style="fill-opacity:0.75" xlink:href="http://life.worldsowisdom.com/flow/">
			<rect height="90" id="OrangeRect" onmouseout="setAttribute('fill-opacity','0.75')" onmouseover="setAttribute('fill-opacity','1.0')" style="fill:orange;stroke:#000000" width="90" x="60" y="300"> <desc id="desc3364">A clickable square!</desc>
			<title id="title3362"></title>
			</rect> </a>

<path xmlns="http://www.w3.org/2000/svg" sodipodi:type="spiral" xmlns:sodipodi="http://sodipodi.sourceforge.net/DTD/sodipodi-0.dtd" style="fill:#00ffff;fill-rule:evenodd;stroke:#000000;stroke-width:0.6047619px;stroke-linecap:butt;stroke-linejoin:miter;stroke-opacity:1" id="eaglynew" sodipodi:cx="73.308212" sodipodi:cy="393.74982" sodipodi:expansion="1" sodipodi:revolution="3" sodipodi:radius="41.613129" sodipodi:argument="-18.147299" sodipodi:t0="0" d="m 73.308212,393.74982 c 1.592741,1.3477 -1.030876,2.81189 -2.239973,2.64724 -3.276579,-0.4462 -4.137127,-4.52375 -3.054508,-7.12719 1.936552,-4.65694 7.887895,-5.67954 12.014402,-3.46177 6.055815,3.25466 7.263028,11.296 3.869042,16.90161 -4.52365,7.4714 -14.719492,8.86373 -21.788831,4.27631 -8.896041,-5.77281 -10.473289,-18.15026 -4.683575,-26.67604 7.01212,-10.32587 21.585119,-12.08797 31.563258,-5.09085 11.758893,8.24586 13.705843,25.02253 5.49811,36.45048 -9.476152,13.19401 -28.461631,15.32586 -41.337687,5.90537 -14.630593,-10.70415 -16.947384,-31.90193 -6.312644,-46.2249 11.930572,-16.06821 35.343106,-18.56999 51.112116,-6.71991 17.506588,13.15584 20.193418,38.78494 7.127178,55.99933" transform="translate(25, 25 )">
    <desc id="desc36">a new test shape to play with! :)</desc>
  </path><rect xmlns="http://www.w3.org/2000/svg" height="10" id="AvrilNiblet1" onmouseout="setAttribute('fill-opacity','0.5')" onmouseover="setAttribute('fill-opacity','1.0')" style="fill:yellow;stroke:black" width="10" x="225" y="225" transform="translate(25, 25 )">
    <desc id="desc71">Avril's first little niblet! :)</desc>
    <title id="title73"/>
  </rect><path xmlns="http://www.w3.org/2000/svg" fill-opacity="0.43046721000000016" onmousedown="Reverse(PurpleSpiral)" id="PurpleSpiral" d="m 282.09113,269.50729 c 1.52075,1.52076 -1.29967,2.80025 -2.52761,2.52761 -3.32763,-0.73884 -3.86257,-5.00113 -2.5276,-7.58281 2.38796,-4.61803 8.58895,-5.15902 12.63801,-2.5276 5.94217,3.86172 6.4939,12.22544 2.5276,17.69322 -5.28645,7.28768 -15.87921,7.84514 -22.74842,2.52759 -8.6442,-6.69159 -9.20486,-19.54122 -2.5276,-27.80363 8.08706,-10.00688 23.20787,-10.56947 32.85884,-2.52759 11.37333,9.47708 11.93717,26.8774 2.52759,37.91404 -10.86373,12.74223 -30.54887,13.30692 -42.96924,2.52759 -14.11282,-12.24817 -14.67812,-34.22169 -2.52759,-48.02445 13.63105,-15.4846 37.8955,-16.05034 53.07965,-2.52759 16.85728,15.01283 17.42336,41.57006 2.52759,58.13486" inkscape:tile-cx="185.6451" xmlns:inkscape="http://www.inkscape.org/namespaces/inkscape" inkscape:tile-cy="265.9547" inkscape:tile-h="68.00056" inkscape:tile-w="75.106916" inkscape:tile-x0="148.09164" inkscape:tile-y0="231.95443" sodipodi:argument="-18.064157" xmlns:sodipodi="http://sodipodi.sourceforge.net/DTD/sodipodi-0.dtd" sodipodi:cx="182.09113" sodipodi:cy="269.50729" sodipodi:expansion="1" sodipodi:radius="42.894836" sodipodi:revolution="3" sodipodi:t0="0" sodipodi:type="spiral" style="fill:#800080;fill-rule:evenodd;stroke:#000000;stroke-width:0.2081555px;stroke-linecap:butt;stroke-linejoin:miter;stroke-opacity:1" transform="translate(25, 25)"/><image xmlns="http://www.w3.org/2000/svg" id="back3" width="448" height="448" x="1" y="1" xlink:href="creatures/png/back3.png" xmlns:xlink="http://www.w3.org/1999/xlink"/><image xmlns="http://www.w3.org/2000/svg" id="galaxy3" width="294" height="150" x="150" y="100" style="opacity:0.5" onmousedown="tool(eg_newy)" xlink:href="creatures/png/galaxy3.png" xmlns:xlink="http://www.w3.org/1999/xlink" transform="translate(25, 25 )"/><image xmlns="http://www.w3.org/2000/svg" id="galaxy4" width="306" height="150" x="50" y="250" style="opacity:0.25" onmousedown="tool(eg_newy2)" xlink:href="creatures/png/galaxy4.png" xmlns:xlink="http://www.w3.org/1999/xlink" transform="translate(25, 12.5 )"/><image xmlns="http://www.w3.org/2000/svg" id="planet3" width="157" height="150" x="100" y="250" style="opacity:0.5" onmousedown="tool(eg_niblet)" xlink:href="creatures/png/planet3.png" xmlns:xlink="http://www.w3.org/1999/xlink" transform="translate(25, 0.0 )"/><image xmlns="http://www.w3.org/2000/svg" id="planet4" width="150" height="150" x="300" y="150" style="opacity:0.9" onmousedown="tool(eg_medy)" xlink:href="creatures/png/planet4.png" xmlns:xlink="http://www.w3.org/1999/xlink" transform="translate(25, 0.0 )"/><image xmlns="http://www.w3.org/2000/svg" id="satellite3" width="79" height="150" x="200" y="250" onmousedown="tool(satellite3)" xlink:href="creatures/png/satellite3.png" xmlns:xlink="http://www.w3.org/1999/xlink" transform="translate(25, 25 )"/><image xmlns="http://www.w3.org/2000/svg" id="satellite4" width="109" height="75" x="50" y="50" onmousedown="tool(satellite4)" xlink:href="creatures/png/satellite4.png" xmlns:xlink="http://www.w3.org/1999/xlink" transform="translate(25, 25 )"/><image xmlns="http://www.w3.org/2000/svg" id="mediumcreature3" width="38" height="50" x="300" y="175" onmousedown="tool(the_rect)" xlink:href="creatures/png/mediumcreature3.png" xmlns:xlink="http://www.w3.org/1999/xlink" transform="translate( 0.0 , 25 )"/><image xmlns="http://www.w3.org/2000/svg" id="niblet3" width="21" height="32" x="400" y="350" onmousedown="tool(pink_rect)" xlink:href="creatures/png/niblet3.png" xmlns:xlink="http://www.w3.org/1999/xlink" transform="translate( 0.0 , 25 )"/><image xmlns="http://www.w3.org/2000/svg" id="bigbeauty3" width="92" height="110" x="100" y="150" onmousedown="tool(eg_biggo)" xlink:href="creatures/png/bigbeauty3.png" xmlns:xlink="http://www.w3.org/1999/xlink" transform="translate(25, 0.0 )"/><g xmlns="http://www.w3.org/2000/svg" id="Creature-0.7984154712438614" style="fill:#49b51f;stroke:#c88560" stroke-width="26.741839304496473" opacity="0.9684414446542418" transform="translate(166.54629463202727, 410.6016436039317) rotate(-0.10116338010016085 379.4583282470703 482.5833740234375)" onmousedown="tool('Creature-0.7984154712438614')" class="creatureClass"><title>Creature-0.7984154712438614</title><desc>moveLifePathCreatureEvo2("Creature-0.7984154712438614", 0.7, 1.2)</desc><path id="Creature-0.7984154712438614-part-0" d="M 56.99840580529915, 769.5762016126963 Q 15.865697484614781, 243.31393810886908 3.648358123167393, 130.93566856408586 T 49.28688691320408, 650.3528872173866, 26.042995199722895 272.0752118782957, 61.27327818283918 343.8974521565585, 5.745182551523247 166.8796858110046, 33.56325203783334 299.26646391777405 z" stroke-width="3.5818763719047353" opacity="0.8437980248835529" class="creaturePartClass"/><path id="Creature-0.7984154712438614-part-1" d="M 29.93244907855159, 731.2866913789713 Q 0.16451956595932093, 340.99093614777405 90.04385041567664, 764.7463825088876 T 39.659182163244544, 36.027942774144655, 98.74536255287056 248.83950987129703, 34.15029916311306 278.26346599708063, 62.95995802554504 285.73784600990706, 5.804124008700725 578.5989481075264 z" stroke-width="1.4154075312123982" opacity="0.8827125603975016" class="creaturePartClass"/><path id="Creature-0.7984154712438614-part-2" d="M 57.46363796524312, 548.6677611097093 Q 63.350452991199184, 484.5548351165649 29.77184850219844, 347.1790955596752 T 12.159242816442474, 798.6087517561233, 45.19007157828676 419.487065772056, 67.75132224082958 394.17336455743833, 41.454316763137 412.02300544905887, 100.7526396289863 374.45152058970376 z" stroke-width="91.97651201167288" opacity="0.7167628301080506" class="creaturePartClass"/><path id="Creature-0.7984154712438614-part-3" d="M 84.74977808845081, 113.62024661011714 Q 38.53761782517123, 660.0819309893091 34.02716954650071, 202.4643714087191 T 60.65515380976808, 790.1021292213584, 12.175362917645424 159.23012980578625, 69.61799407364855 310.9491591684224, 74.64574938526569 569.827951364672, 0.7474344047480189 398.58438247166 z" stroke-width="12.955581915681984" opacity="0.5685638555034247" class="creaturePartClass"/></g><g xmlns="http://www.w3.org/2000/svg" id="Creature-0.7078747523324328" style="fill:#21ece9;stroke:#c3cebe" stroke-width="58.680505894901806" opacity="0.648010472938567" transform="translate(0,0)" onmousedown="tool('Creature-0.7078747523324328')" class="creatureClass"><title>Creature-0.7078747523324328</title><desc>moveLifePathCreatureEvo2("Creature-0.7078747523324328", 0.7, 1.2)</desc><path id="Creature-0.7078747523324328-part-0" d="M 87.27313355390442, 255.52048046031337 Q 121.70930571205031, 496.9672724378111 106.5124951470931, 423.52482196982913 T 17.62272592501801, 621.9798673219856, 115.50958030493476 443.75619691400686, 58.19936534801987 664.3730603858552, 9.857861520612337 243.25080648837937, 76.22764814752968 256.7574814103981 z" stroke-width="27.14989526526488" opacity="0.911972500811503" class="creaturePartClass"/><path id="Creature-0.7078747523324328-part-1" d="M 89.86362331748106, 48.543749124451026 Q 5.544591004888387, 234.50038666725823 7.68786252270928, 144.03061348862346 T 49.61165794083161, 165.27132444580946, 13.428178798846247 190.8632062524221, 58.019330565497036 636.1684407780817, 51.46078999017207 674.9525911893707, 111.04584574807076 242.09088304606794 z" stroke-width="43.493045044152794" opacity="0.8580208693041482" class="creaturePartClass"/><path id="Creature-0.7078747523324328-part-2" d="M 94.56076161820586, 143.15134144042952 Q 50.41573988732246, 531.1120302138302 66.8483160911848, 52.3367015341659 T 44.11900513872201, 89.25957335048527, 46.31483180879809 1.7187364106922547, 85.92619810795004 586.1912614636784, 28.848603396454305 481.82027450547554, 16.03004178395959 402.89884662902153 z" stroke-width="37.227379814976715" opacity="0.997030424473475" class="creaturePartClass"/><path id="Creature-0.7078747523324328-part-3" d="M 75.10146939088426, 136.88136309283234 Q 53.52032308070468, 288.1006415163867 70.08397973003918, 198.7851598818886 T 119.2333505842467, 285.5211611142278, 35.82297520494834 188.01788177920164, 15.768387525970056 219.5266535500607, 37.77736192790206 408.6376740507703, 32.086103310248866 247.89528842993337 z" stroke-width="26.38430686266791" opacity="0.7708443322261782" class="creaturePartClass"/></g><g xmlns="http://www.w3.org/2000/svg" id="Creature-0.8672976890364842" style="fill:#92db91;stroke:#d1a602" stroke-width="69.17364164402882" opacity="0.5918281470824855" transform="translate(163.0031013285997, 262.6364050991974) rotate(0.10478394221832982 190.6666717529297 630.3000335693359)" onmousedown="tool('Creature-0.8672976890364842')" class="creatureClass"><title>Creature-0.8672976890364842</title><desc>moveLifePathCreatureEvo2("Creature-0.8672976890364842", 0.7, 1.2)</desc><path id="Creature-0.8672976890364842-part-0" d="M 28.010774800365986, 112.66362605378164 Q 38.90861384898598, 291.04118184636 2.774629407507992, 164.75113610501202 T 29.934230715179055, 511.72691239543866, 31.71231587619912 351.4030995723478, 49.998083536589434 521.1344173292381, 31.213208419621072 499.6612079284348, 22.87025071397013 477.85828097307564 z" stroke-width="0.6339387872421054" opacity="0.8928929705102979" class="creaturePartClass"/><path id="Creature-0.8672976890364842-part-1" d="M 43.832195277953836, 262.35234772078616 Q 19.195262833045618, 302.24934593367044 42.237583284638234, 528.7633691673426 T 32.68949224973033, 295.249383392521, 2.0289916007591042 47.38672491171647, 21.084133727636306 165.05859133565724, 37.270511483264904 233.07852088751667, 21.16924575109036 318.35190097829394 z" stroke-width="3.854696324631207" opacity="0.9578560992808441" class="creaturePartClass"/><path id="Creature-0.8672976890364842-part-2" d="M 28.05714648585001, 0.8837228702383751 Q 32.53637437599862, 62.15427049029958 3.399040447358267, 378.21500095289485 T 32.88469148050335, 136.5964316640714, 42.59446672895935 525.4299611541516, 36.06494477550686 484.22700960957667, 32.994424814095865 112.58120016131258, 26.112358193249033 80.91732557282883 z" stroke-width="28.468847197898818" opacity="0.9359427206104044" class="creaturePartClass"/><path id="Creature-0.8672976890364842-part-3" d="M 24.69938865774444, 110.13921169357812 Q 22.181146263606042, 227.51608288464544 42.050201999732224, 494.45659131543835 T 32.69176592663627, 31.152744612450437, 9.837790519264713 285.8074632063831, 30.119369467537613 141.33279388828703, 8.773977072284326 170.23157070238761, 3.6237277751232693 448.61218998076095 z" stroke-width="41.882745588742864" opacity="0.9855202652645406" class="creaturePartClass"/></g><g xmlns="http://www.w3.org/2000/svg" id="Creature-0.9718593934809026" style="fill:#fa35d4;stroke:#1b42bf" stroke-width="6.969110511335552" opacity="0.8877828908131384" transform="translate(0,0)" onmousedown="tool('Creature-0.9718593934809026')" class="creatureClass"><title>Creature-0.9718593934809026</title><desc>moveLifePathCreatureEvo2("Creature-0.9718593934809026", 0.7, 1.2)</desc><path id="Creature-0.9718593934809026-part-0" d="M 60.78667257333598, 104.94510388854104 Q 1.6893420386217057, 33.19001656515648 46.55190875308687, 324.12209253885857 T 44.554120992655754, 196.88606807833781, 64.69898235742232 619.4203195845378, 56.889590300832346 404.7265379709513, 15.553272277986197 591.3768746720517, 59.71308582149541 353.28594715375374 z" stroke-width="48.487261830903506" opacity="0.998811630929147" class="creaturePartClass"/><path id="Creature-0.9718593934809026-part-1" d="M 25.01645810683665, 255.7565881423087 Q 23.550996860395514, 365.72261740552227 10.065460811007988, 167.4887487528531 T 39.68586019035034, 129.79044139774436, 19.36674514235805 214.04147267905878, 26.244501886951618 494.79918619335155, 31.65342779865417 13.212847268558425, 36.64249683399926 601.20583281801 z" stroke-width="9.7493241670644" opacity="0.7259814834979419" class="creaturePartClass"/><path id="Creature-0.9718593934809026-part-2" d="M 60.51822576466343, 390.339316514948 Q 9.758037561233474, 82.03047142690757 65.71989335531838, 436.2367501926144 T 61.738963471131825, 339.6492232048601, 64.55658150093262 46.54764301978537, 8.418558351059778 394.2025289702522, 20.56735189119603 20.66688216043075, 17.10299253663519 559.8622940275636 z" stroke-width="25.755296532864094" opacity="0.7638037340549999" class="creaturePartClass"/><path id="Creature-0.9718593934809026-part-3" d="M 45.75320407428683, 621.4638953246183 Q 10.371344215102663, 339.7655829304152 13.979476831116417, 509.5116165965197 T 17.80619538530899, 41.434710506969786, 62.30651012409421 299.5085907664501, 54.12075616646882 351.6149625958225, 5.438986434438948 455.8202003462654, 6.40651546103998 132.24761365859638 z" stroke-width="39.92345450812919" opacity="0.8559243066326978" class="creaturePartClass"/></g><g xmlns="http://www.w3.org/2000/svg" id="Creature-0.910621489909326" style="fill:#d1a3c9;stroke:#bc9ba6" stroke-width="24.661636254422874" opacity="0.8060055776074403" transform="translate(380.8084647571868, 186.7126081980974) rotate(-0.6414027639468293 631.9749908447266 667.9166564941406)" onmousedown="tool('Creature-0.910621489909326')" class="creatureClass"><title>Creature-0.910621489909326</title><desc>moveLifePathCreatureEvo("Creature-0.910621489909326", 1.3,0.51)</desc><path id="Creature-0.910621489909326-part-0" d="M 178.69051281937692, 291.4476656129774 Q 44.36962790807217, 147.52952168332277 11.081205210222604, 73.97568845730639 T 208.28628341838302, 97.49302604771033, 159.58780328734275 57.80616925295747, 129.97133527261198 1.5454063831989209, 218.152668701218 147.13617894861974, 90.93094081694282 326.81793351261314 z" stroke-width="1.7477818506270149" opacity="0.6984460918288877" class="creaturePartClass"/><path id="Creature-0.910621489909326-part-1" d="M 216.5584728724725, 209.98216263822974 Q 46.327347503955714, 368.6399627162065 88.64499707204307, 90.11023651579023 T 205.60138805526464, 219.80789438208123, 185.41233512072904 4.693052649331718, 223.67677237733267 13.028981637784367, 96.64265330503042 19.628472918437744, 248.7946362970671 38.676306969214984 z" stroke-width="10.476396226757643" opacity="0.9943277615384886" class="creaturePartClass"/><path id="Creature-0.910621489909326-part-2" d="M 134.9560432541812, 391.74583810787084 Q 37.442136397418196, 386.28106611772455 38.236165413428346, 51.857238270256595 T 223.93338915242146, 225.42173482440066, 140.85199081584685 338.561753310741, 72.32449219080837 179.03265817592012, 267.00982136566114 262.75522725881484, 131.76822579800753 6.956141791308583 z" stroke-width="28.021361940480656" opacity="0.8581873032384093" class="creaturePartClass"/><path id="Creature-0.910621489909326-part-3" d="M 63.64074204690889, 208.15186162649618 Q 233.34656756373965, 284.81552837340297 237.7542201934983, 102.830255069164 T 187.15020531755232, 85.20934064704123, 209.3149194339408 136.2093411121198, 177.66567278806255 360.82729607464415, 162.46348767146102 152.49436526648233, 5.236227999746197 32.35677446808583 z" stroke-width="14.472766081250507" opacity="0.9958380849481808" class="creaturePartClass"/><path id="Creature-0.7804408523584909" d="M 129.5078674927082, 98.74894784292447 Q 66.98597359812975, 47.71313201678291 132.23617344799345, 67.85481235887369 T 54.45173023322018, 140.78022643674, 119.82075677140612 37.22806623071134, 83.27298731807757 143.54814330253325, 122.54074331812055 73.91344203179595, 133.5186456025878 99.56779888977412 z" style="fill:yellow;stroke:orange" stroke-width="4.215922231227303" opacity="0.7926550094139724" transform="translate(171.1045872760264, 66.89763148122407) rotate(0.21454651100578537 945.6000061035156 773.1500244140625)" onmousedown="tool('Creature-0.7804408523584909')" class="creatureClass"><title>Creature-0.7804408523584909</title><desc>moveLifePathCreature2("Creature-0.7804408523584909", 1, 1)</desc></path><image id="Creature-0.1394968052314589" a0:href="creatures/png/CIRC1.png" xmlns:a0="http://www.w3.org/1999/xlink" opacity="0.9886500696019087" transform="translate(262.2879648655537, 313.14600879873916) rotate(-0.17053212977242047 769.558349609375 857.1333236694336)" x="200" y="200" height="120" width="120" onmousedown="tool('Creature-0.1394968052314589')" class="creatureClass"><title>Creature-0.1394968052314589</title><desc>movePsyCreat("Creature-0.1394968052314589", 1, 1)</desc></image></g><g xmlns="http://www.w3.org/2000/svg" id="Creature-0.313456054872436" style="fill:#b36fb8;stroke:#af1469" stroke-width="0.9093005005004651" opacity="0.9235578097735758" transform="translate(0,0)" onmousedown="tool('Creature-0.313456054872436')" class="creatureClass"><title>Creature-0.313456054872436</title><desc>moveLifePathCreatureEvo2("Creature-0.313456054872436", 0.7, 1.2)</desc><path id="Creature-0.313456054872436-part-0" d="M 98.0327520099471, 371.3696667634362 Q 36.96349770375518, 7.951580163094754 44.28557031467046, 622.7965555467265 T 61.59767733445288, 424.00619290143845, 30.736444165178995 374.0445878442662, 94.38829669616503 238.8578693024713, 105.05181697583242 176.46842105910045, 27.560006136646415 293.18053103304 z" stroke-width="4.590368223321384" opacity="0.5651397072489467" class="creaturePartClass"/><path id="Creature-0.313456054872436-part-1" d="M 0.771170532462014, 223.41145722198476 Q 26.020553245216142, 79.60521513412964 20.472313655181058, 303.00654476103284 T 24.129398956719246, 620.8727293681046, 72.23747961627454 521.385390160979, 70.03260912502815 546.0688602764228, 85.058280905921 520.332165682938, 18.817524505541417 117.88413926411656 z" stroke-width="35.4916377770986" opacity="0.7490269404726619" class="creaturePartClass"/><path id="Creature-0.313456054872436-part-2" d="M 41.194854668817065, 621.6431014328979 Q 31.10232018549093, 629.4975928601752 98.08107725748633, 113.64731626160777 T 48.59133594323483, 126.37559425423247, 73.61117228834861 123.41132276631946, 103.73404490101099 271.70500799019595, 69.51178409844219 606.7484900659125, 2.7491277372903253 336.61568216204154 z" stroke-width="42.33990916819813" opacity="0.9787270080385567" class="creaturePartClass"/><path id="Creature-0.313456054872436-part-3" d="M 54.10919064065563, 622.706267436259 Q 9.781037562338632, 378.01454234549396 11.656761397775425, 473.11723759723503 T 51.22086105834581, 652.7898983219009, 78.45479117479977 500.346421706163, 9.270133884213775 517.835957168855, 71.36866486776037 280.0328908864071, 51.492897756393404 463.5483227903678 z" stroke-width="34.64476893989748" opacity="0.9403503433154733" class="creaturePartClass"/></g><g xmlns="http://www.w3.org/2000/svg" id="Creature-0.08905213101821863" style="fill:#397041;stroke:#950bb2" stroke-width="85.60167943418598" opacity="0.6514040993851878" transform="translate(0,0)" onmousedown="tool('Creature-0.08905213101821863')" class="creatureClass"><title>Creature-0.08905213101821863</title><desc>moveLifePathCreatureEvo2("Creature-0.08905213101821863", 0.7, 1.2)</desc><path id="Creature-0.08905213101821863-part-0" d="M 45.93146711351579, 17.955047553530413 Q 33.67634058039354, 79.87282389939912 12.074653167483783, 90.68559210338498 T 15.45233981807436, 22.20273378227951, 30.88285673527473 22.544950868893228, 44.04516996637122 12.957571224554796, 35.31721888822869 94.21049232771445, 56.16895634592707 3.9268488051960326 z" stroke-width="24.318845952200007" opacity="0.7383571104071306" class="creaturePartClass"/><path id="Creature-0.08905213101821863-part-1" d="M 42.79911862444858, 46.173637837403305 Q 55.61004907355775, 81.56748907787922 65.37893687844418, 3.065952798555425 T 26.385867383029076, 85.53655539822854, 48.23634740163335 26.490772841273937, 61.848111041674855 74.99565039505306, 27.06491593484433 0.7684669270146135, 1.9109025410876124 13.508765018754763 z" stroke-width="25.52440203632412" opacity="0.9557848739810514" class="creaturePartClass"/><path id="Creature-0.08905213101821863-part-2" d="M 26.050354390603204, 90.15295426526652 Q 53.61091844540093, 97.22990324850564 56.249777284034394, 64.52188061873505 T 23.412722000829866, 38.91830435814222, 21.613692185620543 41.92008843138094, 66.74126727950649 39.21006773338303, 44.108715033781316 8.309593161005331, 13.027862204003641 82.31241501680122 z" stroke-width="46.183759150685866" opacity="0.867985235076006" class="creaturePartClass"/><path id="Creature-0.08905213101821863-part-3" d="M 43.672445826205134, 84.1067049133692 Q 69.50190973878712, 73.13775929877102 2.239171838349418, 76.21011773643517 T 11.801329758788425, 91.87770548436804, 15.327960777383781 62.64661006491881, 10.957454291098447 42.963707083850075, 44.82303664489259 88.6203132243553, 34.62668297281194 49.88636926499982 z" stroke-width="2.0795806871942544" opacity="0.9692661208335007" class="creaturePartClass"/></g><g xmlns="http://www.w3.org/2000/svg" id="Creature-0.9471761317530952" style="fill:#a2cad9;stroke:#592b9" stroke-width="21.93192964764714" opacity="0.9457306233593382" transform="translate(0,0)" onmousedown="tool('Creature-0.9471761317530952')" class="creatureClass"><title>Creature-0.9471761317530952</title><desc>moveLifePathCreatureEvo2("Creature-0.9471761317530952", 0.7, 1.2)</desc><path id="Creature-0.9471761317530952-part-0" d="M 24.592590936605333, 282.19713703041964 Q 34.12215114228116, 224.78285595589796 105.43655713188717, 184.0510885108861 T 18.823359897451105, 97.82485259774805, 43.96386845364257 198.65668620960702, 79.80183962909318 261.8073363338836, 10.321726941850997 306.39745154567373, 35.13235611579166 155.94128656817318 z" stroke-width="9.903336114248201" opacity="0.9696324875351737" class="creaturePartClass"/><path id="Creature-0.9471761317530952-part-1" d="M 90.4170390392404, 295.12060088025504 Q 52.58526587627252, 308.90573101779563 53.26808908464837, 13.685910895924046 T 14.049331434546346, 130.2015442273441, 72.62646994609214 54.5497684835927, 86.91404538652404 109.40433051083988, 85.80017001608607 104.84500914631101, 55.73619426408988 282.2438457291257 z" stroke-width="49.22670790226679" opacity="0.9530307648842009" class="creaturePartClass"/><path id="Creature-0.9471761317530952-part-2" d="M 82.67014280936606, 291.23027206561574 Q 102.5410151072548, 269.8799660381478 15.589120793463175, 12.684225846410687 T 46.04817077101036, 214.93664570189333, 3.860402440553732 138.655230054843, 104.53902015053066 138.8174448388865, 9.890813280213942 179.26816915494243, 61.646023487093366 191.6098290924126 z" stroke-width="73.80530755880005" opacity="0.5872939792691202" class="creaturePartClass"/><path id="Creature-0.9471761317530952-part-3" d="M 33.93670486236552, 262.64887942631924 Q 52.2311802528707, 25.93255672067002 64.51123666136304, 271.0048229340178 T 33.27933586534525, 199.47217016202015, 31.416218209652925 94.32474589149948, 23.660830010638406 131.92886480928385, 104.0520062344332 80.94124662249335, 14.205009067861901 221.35216914403617 z" stroke-width="18.80819850058633" opacity="0.9502519855327302" class="creaturePartClass"/></g><g xmlns="http://www.w3.org/2000/svg" id="Creature-0.35513219235165494" style="fill:#5d7f6d;stroke:#82baac" stroke-width="42.849794201458366" opacity="0.7549982419246298" transform="translate(0,0)" onmousedown="tool('Creature-0.35513219235165494')" class="creatureClass"><title>Creature-0.35513219235165494</title><desc>moveLifePathCreatureEvo2("Creature-0.35513219235165494", 0.7, 1.2)</desc><path id="Creature-0.35513219235165494-part-0" d="M 21.5517339785698, 316.04162208936805 Q 32.99912428557392, 241.15645699394705 29.99897805399631, 284.6715924309447 T 123.27434429364399, 196.5260544906086, 84.17998961332792 275.254702100031, 37.07440485035799 303.0549899041526, 80.79097963634891 422.7407432386945, 108.1133823644531 338.9727936941885 z" stroke-width="39.61791181381699" opacity="0.8617600515857315" class="creaturePartClass"/><path id="Creature-0.35513219235165494-part-1" d="M 18.92022738283525, 479.22090725360465 Q 66.44722037126127, 428.32505916829774 84.5843305180822, 261.65512495715564 T 58.39687915793112, 362.14722884464, 67.4038835401881 313.32484284782515, 67.44163551678416 73.01839321275988, 17.589990453313515 270.0265924243821, 21.56743697871121 137.1838978652851 z" stroke-width="20.796702789393613" opacity="0.7464312074531375" class="creaturePartClass"/><path id="Creature-0.35513219235165494-part-2" d="M 84.48342924001841, 82.806696902888 Q 23.617372028778274, 237.51670326074552 26.589083046950915, 136.13063821908295 T 127.2178691716859, 28.053937923424787, 68.22440571663702 396.4174323677585, 69.33090997440176 215.35814836568122, 103.48691879812426 398.00832641455713, 48.83599746865927 182.62170825888816 z" stroke-width="81.9612757907607" opacity="0.9063730528089099" class="creaturePartClass"/><path id="Creature-0.35513219235165494-part-3" d="M 6.495964799732317, 80.9746168418027 Q 2.396465396771045, 196.74397167637028 56.44418864675409, 255.48736320865638 T 115.9878225545598, 261.4083690060195, 32.88168685044751 320.295621552442, 98.31012945204816 26.716635375693635, 51.685597320090096 224.81188269774051, 95.35221400705095 247.59189773073572 z" stroke-width="13.754078120199758" opacity="0.7902290212808656" class="creaturePartClass"/></g><image xmlns="http://www.w3.org/2000/svg" id="Creature-0.1394968052314589" a0:href="creatures/png/CIRC1.png" xmlns:a0="http://www.w3.org/1999/xlink" opacity="0.9886500696019087" transform="translate(262.2879648655537, 313.14600879873916) rotate(-0.17053212977242047 769.558349609375 857.1333236694336)" x="200" y="200" height="120" width="120" onmousedown="tool('Creature-0.1394968052314589')" class="creatureClass"><title>Creature-0.1394968052314589</title><desc>movePsyCreat("Creature-0.1394968052314589", 1, 1)</desc></image><g xmlns="http://www.w3.org/2000/svg" id="Creature-0.35181622696855375" style="fill:#f5d57e;stroke:#1b1388" stroke-width="2.4441008190281064" opacity="0.877222838046633" transform="translate(71.62448077327699, -1.995432652846063) rotate(-2.6490327529909794 153.22500610351562 124.46666717529297)" onmousedown="tool('Creature-0.35181622696855375')" class="creatureClass"><title>Creature-0.35181622696855375</title><desc>moveLifePathCreatureEvo("Creature-0.35181622696855375", 1, 1)</desc><path id="Creature-0.35181622696855375-part-0" d="M 413.8555713311013, 28.574914655694247 Q 141.53709714791816, 10.925144245214927 145.5705330839543, 3.5964995625718803 T 384.5949466791849, 27.692399782563726, 360.6893121175623 61.29838548737003, 369.90485258053997 65.79457604861143, 99.1164260578871 50.19105950552982, 55.105200602786944 40.97030456284378 z" stroke-width="0.24055187866516947" opacity="0.35796561398316423" class="creaturePartClass"/><path id="Creature-0.35181622696855375-part-1" d="M 300.67286964799246, 16.36217073899202 Q 312.0110037976943, 55.454105781802035 393.5933703237682, 3.660748688214717 T 135.62088497593996, 33.64566043112156, 8.534039438682681 28.429164305051028, 254.1886862469029 42.83918494564779, 260.0411979592356 37.61849343816592, 439.3768609499055 52.67672871878641 z" stroke-width="4.878048318179982" opacity="0.9684027089119894" class="creaturePartClass"/><path id="Creature-0.35181622696855375-part-2" d="M 404.20901150971923, 53.86638673940237 Q 125.57486234779105, 16.813400943720612 296.032464729635, 23.183001651397824 T 404.9308270532442, 66.66563782821409, 254.8282959988754 22.1114951540028, 131.92528378322953 44.163456893369336, 308.8020561028683 61.94424267886809, 278.6608165658202 54.883843533751815 z" stroke-width="3.5860213256464504" opacity="0.7715690556972032" class="creaturePartClass"/><path id="Creature-0.35181622696855375-part-3" d="M 424.72766820997475, 27.189545786854037 Q 68.63034154136608, 25.361712032483474 126.70224605622408, 41.27906268524775 T 370.5534550677458, 12.677113995504383, 160.24597101811122 50.984927286779936, 348.99996273099356 13.506157441521848, 81.25263026999986 0.166455531875837, 280.17738021859316 30.09266634390549 z" stroke-width="2.984227764053385" opacity="0.9487168460562952" class="creaturePartClass"/></g><path xmlns="http://www.w3.org/2000/svg" id="Creature-0.7804408523584909" d="M 129.5078674927082, 98.74894784292447 Q 66.98597359812975, 47.71313201678291 132.23617344799345, 67.85481235887369 T 54.45173023322018, 140.78022643674, 119.82075677140612 37.22806623071134, 83.27298731807757 143.54814330253325, 122.54074331812055 73.91344203179595, 133.5186456025878 99.56779888977412 z" style="fill:yellow;stroke:orange" stroke-width="4.215922231227303" opacity="0.7926550094139724" transform="translate(171.1045872760264, 66.89763148122407) rotate(0.21454651100578537 945.6000061035156 773.1500244140625)" onmousedown="tool('Creature-0.7804408523584909')" class="creatureClass"><title>Creature-0.7804408523584909</title><desc>moveLifePathCreature2("Creature-0.7804408523584909", 1, 1)</desc></path><g xmlns="http://www.w3.org/2000/svg" id="Creature-0.468776980129501" style="fill:#1a9884;stroke:#b56bfb" stroke-width="5.330889246630969" opacity="0.8532281353345453" transform="translate(0,0)" onmousedown="tool('Creature-0.468776980129501')" class="creatureClass"><title>Creature-0.468776980129501</title><desc>moveLifePathCreatureEvo("Creature-0.468776980129501", 1, 1)</desc><path id="Creature-0.468776980129501-part-0" d="M 629.7493316940859, 8.418192469767675 Q 723.9274504830368, 12.480228853641652 337.01167405257917, 41.18356206873174 T 557.1491080280638, 62.28693216139371, 487.14790003908104 22.547904735708492, 23.167800029819098 44.51749212414599, 730.7411620181406 12.368122517495525, 763.133964205167 12.968775490634131 z" stroke-width="3.541618389358057" opacity="0.904778229801921" class="creaturePartClass"/><path id="Creature-0.468776980129501-part-1" d="M 312.3546075653455, 33.05096589437782 Q 677.70098345709, 4.987522157032684 489.50803289250285, 52.297348072317384 T 20.15310029010769, 30.245900006842895, 634.0999947899347 28.789352751048277, 77.93133128483584 37.46464206809088, 354.6392073864224 13.032944808086283, 141.4861531110135 31.860414276577977 z" stroke-width="6.450584492603338" opacity="0.5762076410399144" class="creaturePartClass"/><path id="Creature-0.468776980129501-part-2" d="M 699.2831109376137, 37.65461481424177 Q 406.8230099270171, 26.057591232942126 629.6781429845214, 45.78607085981043 T 642.2696744565168, 22.259077020256395, 67.08332604348432 18.273730548350944, 90.56055019860133 9.784657787789575, 566.1920308835066 13.00862224969683, 689.9241386338856 63.58661274310205 z" stroke-width="5.29307162130443" opacity="0.7511799987002947" class="creaturePartClass"/><path id="Creature-0.468776980129501-part-3" d="M 795.7429053747811, 25.280702868866722 Q 492.42386666102135, 35.94317797472355 817.3239216382751, 2.320624561444811 T 677.7865215849979, 38.28878720127836, 58.763209766630425 5.22091493239194, 77.39383964131237 5.432918218765465, 425.32428185235307 23.996399739686215, 686.6504735019829 22.353910648883627 z" stroke-width="5.8883277086542885" opacity="0.5292950997154885" class="creaturePartClass"/></g></svg>