<?xml version="1.0" encoding="UTF-8" standalone="no"?>
<!-- Created with LifeFLOW (http://life.worldsowisdom.com/flow/) -->

<svg
   xmlns:osb="http://www.openswatchbook.org/uri/2009/osb"
   xmlns:dc="http://purl.org/dc/elements/1.1/"
   xmlns:cc="http://creativecommons.org/ns#"
   xmlns:rdf="http://www.w3.org/1999/02/22-rdf-syntax-ns#"
   xmlns:svg="http://www.w3.org/2000/svg"
   xmlns="http://www.w3.org/2000/svg"
   xmlns:xlink="http://www.w3.org/1999/xlink"
   xmlns:sodipodi="http://sodipodi.sourceforge.net/DTD/sodipodi-0.dtd"
   xmlns:inkscape="http://www.inkscape.org/namespaces/inkscape"
   width="450"
   height="450"
   viewBox="0 0 450 450"
   id="svg2"
   version="1.1"
   inkscape:version="0.91 r13725"
   sodipodi:docname="newcreatures-plain.svg">
  <defs
     id="defs4">
    <linearGradient
       inkscape:collect="always"
       id="linearGradient6501">
      <stop
         style="stop-color:#0000ff;stop-opacity:1;"
         offset="0"
         id="stop6503" />
      <stop
         style="stop-color:#0000ff;stop-opacity:0;"
         offset="1"
         id="stop6505" />
    </linearGradient>
    <linearGradient
       id="linearGradient6455"
       osb:paint="solid">
      <stop
         style="stop-color:#0000ff;stop-opacity:1;"
         offset="0"
         id="stop6457" />
    </linearGradient>
    <filter
       inkscape:collect="always"
       style="color-interpolation-filters:sRGB"
       id="filter5001"
       x="-0.37912726"
       width="1.7582545"
       y="-0.65848422"
       height="2.3169684">
      <feGaussianBlur
         inkscape:collect="always"
         stdDeviation="6.3692616"
         id="feGaussianBlur5003" />
    </filter>
    <linearGradient
       inkscape:collect="always"
       xlink:href="#linearGradient6501"
       id="linearGradient6507"
       x1="242.51431"
       y1="178.50594"
       x2="313.40628"
       y2="178.50594"
       gradientUnits="userSpaceOnUse"
       gradientTransform="translate(-215.03742,319.7082)" />
  </defs>
  <sodipodi:namedview
     id="base"
     pagecolor="#ffffff"
     bordercolor="#666666"
     borderopacity="1.0"
     inkscape:pageopacity="0.0"
     inkscape:pageshadow="2"
     inkscape:zoom="0.24748738"
     inkscape:cx="463.57331"
     inkscape:cy="265.90363"
     inkscape:document-units="px"
     inkscape:current-layer="layer1"
     showgrid="false"
     inkscape:window-width="1366"
     inkscape:window-height="706"
     inkscape:window-x="-8"
     inkscape:window-y="-8"
     inkscape:window-maximized="1"
     units="px" />
  <metadata
     id="metadata7">
    <rdf:RDF>
      <cc:Work
         rdf:about="">
        <dc:format>image/svg+xml</dc:format>
        <dc:type
           rdf:resource="http://purl.org/dc/dcmitype/StillImage" />
        <dc:title></dc:title>
      </cc:Work>
    </rdf:RDF>
  </metadata>
  <g
     inkscape:label="Layer 1"
     inkscape:groupmode="layer"
     id="layer1"
     transform="translate(0,-364.28567)">
    <path
       sodipodi:type="star"
       style="opacity:0.28999999;fill:#00ffff;stroke:#800080"
       id="path4136eg"
       sodipodi:sides="5"
       sodipodi:cx="149.96248"
       sodipodi:cy="470.92843"
       sodipodi:r1="84.03109"
       sodipodi:r2="42.015545"
       sodipodi:arg1="0.31099828"
       sodipodi:arg2="0.93931681"
       inkscape:flatsided="false"
       inkscape:rounded="0"
       inkscape:randomized="0"
       d="m 229.96248,496.64272 -55.19656,8.19877 -24.53782,50.11762 -24.85417,-49.96149 -55.247286,-7.84966 39.835836,-39.07667 -9.60688,-54.96897 49.47407,25.81078 49.30991,-26.12303 -9.25918,55.0286 z"
       inkscape:transform-center-x="-0.082081267"
       inkscape:transform-center-y="7.9461513" />
    <path
       inkscape:transform-center-y="2.4320959"
       inkscape:transform-center-x="-0.025122895"
       d="m 68.791599,427.6385 -16.894071,2.5094 -7.510317,15.33956 -7.607143,-15.29177 -16.909598,-2.40255 12.192598,-11.96024 -2.940388,-16.82442 15.142583,7.89994 15.092337,-7.99551 -2.833967,16.84267 z"
       inkscape:randomized="0"
       inkscape:rounded="0"
       inkscape:flatsided="false"
       sodipodi:arg2="0.93931681"
       sodipodi:arg1="0.31099828"
       sodipodi:r2="12.859744"
       sodipodi:r1="25.719488"
       sodipodi:cy="419.76809"
       sodipodi:cx="44.305912"
       sodipodi:sides="5"
       id="path4138eg"
       style="opacity:0.28999999;fill:#00ffff;stroke:#800080;stroke-width:0.3060711"
       sodipodi:type="star" />
    <g
       id="BiggoEGbg"
       transform="translate(-109.96232,143.76849)">
      <desc
         id="desc4151">A big creature for LifeFLOW! :)</desc>
      <circle
         r="29.934187"
         cy="259.14496"
         cx="302.39636"
         id="path4137eg"
         style="opacity:0.28999999;fill:#ffff00;stroke:#800080;stroke-width:0.6047619" />
      <circle
         r="7.3308215"
         cy="265.86487"
         cx="307.8945"
         id="path4139eg"
         style="opacity:0.28999999;fill:#ffff00;stroke:#800080;stroke-width:0.6047619" />
      <ellipse
         ry="10.996231"
         rx="3.6654108"
         cy="251.20323"
         cx="292.01105"
         id="path4141eg"
         style="opacity:0.28999999;fill:#0000ff;stroke:#800080;stroke-width:0.6047619" />
      <ellipse
         ry="3.6654108"
         rx="9.7744284"
         cy="253.64687"
         cx="317.66891"
         id="path4143eg"
         style="opacity:0.28999999;fill:#0000ff;stroke:#800080;stroke-width:0.6047619" />
    </g>
    <rect
       style="opacity:0.87000002;fill:url(#linearGradient6507);fill-opacity:1;stroke:#0000ff;stroke-width:0.6047619;stroke-miterlimit:4;stroke-dasharray:none;filter:url(#filter5001)"
       id="MedyEGbg"
       width="40.319515"
       height="23.214266"
       x="42.763119"
       y="486.60684" />
    <g
       id="g6519eg"
       inkscape:label="#MedyEG"
       transform="translate(0,53.355016)">
      <rect
         y="281.74832"
         x="59.868374"
         height="31.766891"
         width="63.533783"
         id="rect6509eg"
         style="opacity:0.87000002;fill:#0000ff;fill-opacity:1;stroke:#0000ff;stroke-width:0.6047619;stroke-miterlimit:4;stroke-dasharray:none" />
      <path
         inkscape:transform-center-y="-0.19571458"
         inkscape:transform-center-x="0.72308977"
         d="m 81.860835,300.07539 -6.160837,-1.4834 -4.714657,4.23419 -0.493011,-6.31769 -5.483865,-3.17547 5.856139,-2.42116 1.325442,-6.19674 4.112304,4.82134 6.303033,-0.65433 -3.314595,5.40091 z"
         inkscape:randomized="0"
         inkscape:rounded="0"
         inkscape:flatsided="false"
         sodipodi:arg2="1.3230568"
         sodipodi:arg1="0.69473828"
         sodipodi:r2="4.7712951"
         sodipodi:r1="9.5425901"
         sodipodi:cy="293.96637"
         sodipodi:cx="74.530014"
         sodipodi:sides="5"
         id="path6511eg"
         style="opacity:0.87000002;fill:#ff8080;fill-opacity:1;stroke:#0000ff;stroke-width:0.6047619;stroke-miterlimit:4;stroke-dasharray:none"
         sodipodi:type="star" />
      <path
         inkscape:transform-center-y="0.22428177"
         inkscape:transform-center-x="0.37755769"
         d="m 108.74051,312.2934 -1.06782,-3.99694 -3.89796,-1.38629 3.47135,-2.25068 0.1139,-4.13556 3.21323,2.60595 3.96835,-1.16963 -1.48546,3.86124 2.33867,3.41269 -4.13129,-0.21956 z"
         inkscape:randomized="0"
         inkscape:rounded="0"
         inkscape:flatsided="false"
         sodipodi:arg2="2.3965104"
         sodipodi:arg1="1.7681919"
         sodipodi:r2="3.115"
         sodipodi:r1="6.23"
         sodipodi:cy="306.18439"
         sodipodi:cx="109.96231"
         sodipodi:sides="5"
         id="path6513eg"
         style="opacity:0.87000002;fill:#ff8080;fill-opacity:1;stroke:#0000ff;stroke-width:0.6047619;stroke-miterlimit:4;stroke-dasharray:none"
         sodipodi:type="star" />
      <path
         inkscape:transform-center-y="-0.16705416"
         inkscape:transform-center-x="0.16705535"
         d="m 92.857067,295.18814 -2.173306,-0.73698 -1.839194,1.3725 0.02933,-2.29468 -1.873674,-1.32505 2.191432,-0.6812 0.6812,-2.19143 1.32505,1.87368 2.294678,-0.0293 -1.372506,1.8392 z"
         inkscape:randomized="0"
         inkscape:rounded="0"
         inkscape:flatsided="false"
         sodipodi:arg2="1.4137167"
         sodipodi:arg1="0.78539816"
         sodipodi:r2="1.727891"
         sodipodi:r1="3.4557824"
         sodipodi:cy="292.74454"
         sodipodi:cx="90.41346"
         sodipodi:sides="5"
         id="path6515eg"
         style="opacity:0.87000002;fill:#ff8080;fill-opacity:1;stroke:#0000ff;stroke-width:0.6047619;stroke-miterlimit:4;stroke-dasharray:none"
         sodipodi:type="star" />
      <path
         inkscape:transform-center-y="-0.1121867"
         inkscape:transform-center-x="-0.63956251"
         d="m 84.736419,309.55335 2.201552,-4.70569 -2.628342,-4.48131 5.155694,0.63966 3.44978,-3.8845 0.984842,5.10102 4.760422,2.08056 -4.547027,2.51294 -0.507677,5.17036 -3.79506,-3.54794 z"
         inkscape:randomized="0"
         inkscape:rounded="0"
         inkscape:flatsided="false"
         sodipodi:arg2="3.0951702"
         sodipodi:arg1="2.4668517"
         sodipodi:r2="3.9116797"
         sodipodi:r1="7.8233595"
         sodipodi:cy="304.66614"
         sodipodi:cx="90.845436"
         sodipodi:sides="5"
         id="path6517eg"
         style="opacity:0.87000002;fill:#ff8080;fill-opacity:1;stroke:#0000ff;stroke-width:0.6047619;stroke-miterlimit:4;stroke-dasharray:none"
         sodipodi:type="star" />
    </g>
    <path
       sodipodi:type="spiral"
       style="fill:#00ffff;fill-rule:evenodd;stroke:#000000;stroke-width:0.6047619px;stroke-linecap:butt;stroke-linejoin:miter;stroke-opacity:1"
       id="eaglynew2"
       sodipodi:cx="73.308212"
       sodipodi:cy="393.74982"
       sodipodi:expansion="1"
       sodipodi:revolution="3"
       sodipodi:radius="41.613129"
       sodipodi:argument="-18.147299"
       sodipodi:t0="0"
       d="m 73.308212,393.74982 c 1.592741,1.3477 -1.030876,2.81189 -2.239973,2.64724 -3.276579,-0.4462 -4.137127,-4.52375 -3.054508,-7.12719 1.936552,-4.65694 7.887895,-5.67954 12.014402,-3.46177 6.055815,3.25466 7.263028,11.296 3.869042,16.90161 -4.52365,7.4714 -14.719492,8.86373 -21.788831,4.27631 -8.896041,-5.77281 -10.473289,-18.15026 -4.683575,-26.67604 7.01212,-10.32587 21.585119,-12.08797 31.563258,-5.09085 11.758893,8.24586 13.705843,25.02253 5.49811,36.45048 -9.476152,13.19401 -28.461631,15.32586 -41.337687,5.90537 -14.630593,-10.70415 -16.947384,-31.90193 -6.312644,-46.2249 11.930572,-16.06821 35.343106,-18.56999 51.112116,-6.71991 17.506588,13.15584 20.193418,38.78494 7.127178,55.99933">
      <desc
         id="desc6528">a new test shape to play with! :)</desc>
    </path>
    <path
       d="m 205.26299,520.81738 c 1.59274,1.34771 -1.03088,2.8119 -2.23998,2.64724 -3.27658,-0.44619 -4.13713,-4.52374 -3.05451,-7.12718 1.93656,-4.65695 7.8879,-5.67955 12.01441,-3.46178 6.05581,3.25466 7.26302,11.296 3.86904,16.90162 -4.52365,7.4714 -14.71949,8.86373 -21.78883,4.27631 -8.89604,-5.77281 -10.47329,-18.15027 -4.68358,-26.67605 7.01212,-10.32586 21.58512,-12.08796 31.56326,-5.09084 11.75889,8.24586 13.70584,25.02252 5.49811,36.45047 -9.47615,13.19402 -28.46163,15.32587 -41.33769,5.90538 -14.63059,-10.70416 -16.94738,-31.90193 -6.31264,-46.2249 11.93057,-16.06821 35.3431,-18.57 51.11211,-6.71991 17.50659,13.15583 20.19342,38.78493 7.12718,55.99933"
       sodipodi:t0="0"
       sodipodi:argument="-18.147299"
       sodipodi:radius="41.613129"
       sodipodi:revolution="3"
       sodipodi:expansion="1"
       sodipodi:cy="520.81738"
       sodipodi:cx="205.26299"
       id="path6530eg"
       style="fill:#800000;fill-rule:evenodd;stroke:#000000;stroke-width:0.6047619px;stroke-linecap:butt;stroke-linejoin:miter;stroke-opacity:1"
       sodipodi:type="spiral">
      <desc
         id="desc6532">a new test shape to play with! :)</desc>
    </path>
  </g>
  <rect
     height="448"
     id="Border"
     style="fill:none;stroke:#800080;stroke-width:0.60342091"
     width="448"
     x="1"
     y="1" />
	 
	 
	 <!-- creatures from original versions! :) -->
	 
			<a style="fill-opacity:0.75" xlink:href="http://life.worldsowisdom.com/flow/"> <rect height="90" id="YellowRect" onmouseout="setAttribute('fill-opacity','0.5')" onmouseover="setAttribute('fill-opacity','1.0')" style="fill:yellow;stroke:#000000" width="90" x="150" y="90"> <desc id="desc3364">A clickable square!</desc>
			<title id="title3362"></title>
			</rect> </a> <a style="fill-opacity:0.75" xlink:href="http://life.worldsowisdom.com/flow/">
			<rect height="90" id="OrangeRect" onmouseout="setAttribute('fill-opacity','0.75')" onmouseover="setAttribute('fill-opacity','1.0')" style="fill:orange;stroke:#000000" width="90" x="60" y="300"> <desc id="desc3364">A clickable square!</desc>
			<title id="title3362"></title>
			</rect> </a>

<path xmlns="http://www.w3.org/2000/svg" sodipodi:type="spiral" xmlns:sodipodi="http://sodipodi.sourceforge.net/DTD/sodipodi-0.dtd" style="fill:#00ffff;fill-rule:evenodd;stroke:#000000;stroke-width:0.6047619px;stroke-linecap:butt;stroke-linejoin:miter;stroke-opacity:1" id="eaglynew" sodipodi:cx="73.308212" sodipodi:cy="393.74982" sodipodi:expansion="1" sodipodi:revolution="3" sodipodi:radius="41.613129" sodipodi:argument="-18.147299" sodipodi:t0="0" d="m 73.308212,393.74982 c 1.592741,1.3477 -1.030876,2.81189 -2.239973,2.64724 -3.276579,-0.4462 -4.137127,-4.52375 -3.054508,-7.12719 1.936552,-4.65694 7.887895,-5.67954 12.014402,-3.46177 6.055815,3.25466 7.263028,11.296 3.869042,16.90161 -4.52365,7.4714 -14.719492,8.86373 -21.788831,4.27631 -8.896041,-5.77281 -10.473289,-18.15026 -4.683575,-26.67604 7.01212,-10.32587 21.585119,-12.08797 31.563258,-5.09085 11.758893,8.24586 13.705843,25.02253 5.49811,36.45048 -9.476152,13.19401 -28.461631,15.32586 -41.337687,5.90537 -14.630593,-10.70415 -16.947384,-31.90193 -6.312644,-46.2249 11.930572,-16.06821 35.343106,-18.56999 51.112116,-6.71991 17.506588,13.15584 20.193418,38.78494 7.127178,55.99933" transform="translate(25, 25 )">
    <desc id="desc36">a new test shape to play with! :)</desc>
  </path><rect xmlns="http://www.w3.org/2000/svg" height="10" id="AvrilNiblet1" onmouseout="setAttribute('fill-opacity','0.5')" onmouseover="setAttribute('fill-opacity','1.0')" style="fill:yellow;stroke:black" width="10" x="225" y="225" transform="translate(25, 25 )">
    <desc id="desc71">Avril's first little niblet! :)</desc>
    <title id="title73"/>
  </rect><path xmlns="http://www.w3.org/2000/svg" fill-opacity="0.43046721000000016" onmousedown="Reverse(PurpleSpiral)" id="PurpleSpiral" d="m 282.09113,269.50729 c 1.52075,1.52076 -1.29967,2.80025 -2.52761,2.52761 -3.32763,-0.73884 -3.86257,-5.00113 -2.5276,-7.58281 2.38796,-4.61803 8.58895,-5.15902 12.63801,-2.5276 5.94217,3.86172 6.4939,12.22544 2.5276,17.69322 -5.28645,7.28768 -15.87921,7.84514 -22.74842,2.52759 -8.6442,-6.69159 -9.20486,-19.54122 -2.5276,-27.80363 8.08706,-10.00688 23.20787,-10.56947 32.85884,-2.52759 11.37333,9.47708 11.93717,26.8774 2.52759,37.91404 -10.86373,12.74223 -30.54887,13.30692 -42.96924,2.52759 -14.11282,-12.24817 -14.67812,-34.22169 -2.52759,-48.02445 13.63105,-15.4846 37.8955,-16.05034 53.07965,-2.52759 16.85728,15.01283 17.42336,41.57006 2.52759,58.13486" inkscape:tile-cx="185.6451" xmlns:inkscape="http://www.inkscape.org/namespaces/inkscape" inkscape:tile-cy="265.9547" inkscape:tile-h="68.00056" inkscape:tile-w="75.106916" inkscape:tile-x0="148.09164" inkscape:tile-y0="231.95443" sodipodi:argument="-18.064157" xmlns:sodipodi="http://sodipodi.sourceforge.net/DTD/sodipodi-0.dtd" sodipodi:cx="182.09113" sodipodi:cy="269.50729" sodipodi:expansion="1" sodipodi:radius="42.894836" sodipodi:revolution="3" sodipodi:t0="0" sodipodi:type="spiral" style="fill:#800080;fill-rule:evenodd;stroke:#000000;stroke-width:0.2081555px;stroke-linecap:butt;stroke-linejoin:miter;stroke-opacity:1" transform="translate(25, 25)"/><image xmlns="http://www.w3.org/2000/svg" id="back3" width="448" height="448" x="1" y="1" xlink:href="creatures/png/back3.png" xmlns:xlink="http://www.w3.org/1999/xlink"/><image xmlns="http://www.w3.org/2000/svg" id="galaxy3" width="294" height="150" x="150" y="100" style="opacity:0.5" onmousedown="tool(eg_newy)" xlink:href="creatures/png/galaxy3.png" xmlns:xlink="http://www.w3.org/1999/xlink" transform="translate(25, 25 )"/><image xmlns="http://www.w3.org/2000/svg" id="galaxy4" width="306" height="150" x="50" y="250" style="opacity:0.25" onmousedown="tool(eg_newy2)" xlink:href="creatures/png/galaxy4.png" xmlns:xlink="http://www.w3.org/1999/xlink" transform="translate(25, 12.5 )"/><image xmlns="http://www.w3.org/2000/svg" id="planet3" width="157" height="150" x="100" y="250" style="opacity:0.5" onmousedown="tool(eg_niblet)" xlink:href="creatures/png/planet3.png" xmlns:xlink="http://www.w3.org/1999/xlink" transform="translate(25, 0.0 )"/><image xmlns="http://www.w3.org/2000/svg" id="planet4" width="150" height="150" x="300" y="150" style="opacity:0.9" onmousedown="tool(eg_medy)" xlink:href="creatures/png/planet4.png" xmlns:xlink="http://www.w3.org/1999/xlink" transform="translate(25, 0.0 )"/><image xmlns="http://www.w3.org/2000/svg" id="satellite3" width="79" height="150" x="200" y="250" onmousedown="tool(satellite3)" xlink:href="creatures/png/satellite3.png" xmlns:xlink="http://www.w3.org/1999/xlink" transform="translate(25, 25 )"/><image xmlns="http://www.w3.org/2000/svg" id="satellite4" width="109" height="75" x="50" y="50" onmousedown="tool(satellite4)" xlink:href="creatures/png/satellite4.png" xmlns:xlink="http://www.w3.org/1999/xlink" transform="translate(25, 25 )"/><image xmlns="http://www.w3.org/2000/svg" id="mediumcreature3" width="38" height="50" x="300" y="175" onmousedown="tool(the_rect)" xlink:href="creatures/png/mediumcreature3.png" xmlns:xlink="http://www.w3.org/1999/xlink" transform="translate( 0.0 , 25 )"/><image xmlns="http://www.w3.org/2000/svg" id="niblet3" width="21" height="32" x="400" y="350" onmousedown="tool(pink_rect)" xlink:href="creatures/png/niblet3.png" xmlns:xlink="http://www.w3.org/1999/xlink" transform="translate( 0.0 , 25 )"/><image xmlns="http://www.w3.org/2000/svg" id="bigbeauty3" width="92" height="110" x="100" y="150" onmousedown="tool(eg_biggo)" xlink:href="creatures/png/bigbeauty3.png" xmlns:xlink="http://www.w3.org/1999/xlink" transform="translate(25, 0.0 )"/><g xmlns="http://www.w3.org/2000/svg" id="Creature-0.31919888928730344" style="fill:#a49c59;stroke:#398612" stroke-width="5.383165381324914" opacity="0.5944322864515411" transform="translate(0,0)" onmousedown="tool('Creature-0.31919888928730344')" class="creatureClass"><title>Creature-0.31919888928730344</title><desc>moveLifePathCreatureEvo("Creature-0.31919888928730344", 1.1, 1.1)</desc><path id="Creature-0.31919888928730344-part-0" d="M 377.59871672525225, 104.67090215764115 Q 583.0287776302908, 107.7724017387925 170.02152081337965, 41.37286105662444 T 259.3922324582017, 101.56757317735727, 751.7140599072288 16.49497105471627, 550.0070620602502 60.183963178179916, 814.6912469146463 72.58054736906786, 540.5989162925321 101.5354984427237 z" stroke-width="6.048082877562364" opacity="0.8885451819225083" class="creaturePartClass"/><path id="Creature-0.31919888928730344-part-1" d="M 211.0855347609188, 16.729586982833133 Q 190.41985852229155, 73.69892743384538 399.5231935636508, 52.29501072488027 T 16.811657036546364, 4.848399633072111, 580.1867956888035 16.474848420198775, 512.0009403294168 72.88291708717031, 688.8254315749037 33.0895596290176, 658.7414506548242 49.595480519435206 z" stroke-width="3.9065217993272427" opacity="0.7103478219344981" class="creaturePartClass"/><path id="Creature-0.31919888928730344-part-2" d="M 576.0986245666303, 1.0212236350559583 Q 65.03667537889034, 60.64128962066613 336.456782783622, 75.51260877976819 T 340.1236664948668, 76.55506423517116, 238.27780144518627 70.1300353111465, 206.23763943169587 71.87743552631008, 251.22574696192368 75.57078749724619, 368.65728984794686 110.45419770691849 z" stroke-width="0.3279354507384065" opacity="0.8129218775444016" class="creaturePartClass"/><path id="Creature-0.31919888928730344-part-3" d="M 789.4564936986128, 59.79070850764515 Q 693.3344386145085, 69.36530454413527 577.2220747963481, 20.02928056455635 T 477.02640243614974, 103.96448942271644, 773.3173350530997 16.268347109566857, 12.755429148747412 80.04967188192477, 726.0703994367358 65.30356877643212, 710.2384738753732 22.43620025878988 z" stroke-width="0.5010578135369189" opacity="0.845791446218329" class="creaturePartClass"/></g><g xmlns="http://www.w3.org/2000/svg" id="Creature-0.35314236918070596" style="fill:#298d0d;stroke:#9e7e39" stroke-width="0.37533342204419207" opacity="0.535368401686131" transform="translate(203.04861620039142, 150.83007665618257) rotate(-0.04129106872865627 1596.20849609375 398.80833435058594)" onmousedown="tool('Creature-0.35314236918070596')" class="creatureClass"><title>Creature-0.35314236918070596</title><desc>moveLifePathCreatureEvo3("Creature-0.35314236918070596", 0.7, 1.2)</desc><path id="Creature-0.35314236918070596-part-0" d="M 617.466212187083, 91.51038605920232 Q 1619.6747314959723, 122.24710374150084 1572.7954199680973, 112.93540607175814 T 205.97679702871287, 34.746742549156394, 1052.506443459089 19.787650946464225, 601.2793751718818 119.88462854921046, 836.5453258151464 91.3665334773872, 2456.9830878221933 93.24845800825584 z" stroke-width="0.1722909383075067" opacity="0.9350769922119037" class="creaturePartClass"/><path id="Creature-0.35314236918070596-part-1" d="M 242.71378110185472, 37.326254660945565 Q 802.779031048524, 18.19638305131309 2015.7529429065423, 16.021995869840552 T 542.8231918815715, 11.729021765833343, 2036.0204101444442 104.41626656151622, 587.5099218229899 20.364162822103207, 1564.8606825366323 58.64654662450253, 2379.9018674387553 55.82003815243755 z" stroke-width="0.28463326853025256" opacity="0.12735637456388044" class="creaturePartClass"/><path id="Creature-0.35314236918070596-part-2" d="M 671.7162079575306, 56.06170187846336 Q 2243.3646236203926, 120.4084194255664 1102.1621413730531, 37.66570778450536 T 105.0574389263062, 100.92647048997225, 958.1135295094658 117.02096263010276, 1819.5192535413933 97.9037530331478, 34.13055727448693 120.52520311480988, 1808.0375677921297 7.845654866632452 z" stroke-width="0.08986681169186198" opacity="0.6598423945859637" class="creaturePartClass"/><path id="Creature-0.35314236918070596-part-3" d="M 1866.0392805672575, 90.63448611919713 Q 147.20014081550303, 47.8374667724826 1183.4023167429823, 81.26419963501951 T 1928.1269699069649, 125.75928013400046, 1037.839376865515 114.88643588020666, 201.3774348018193 79.38036815957733, 1727.4414824759106 66.21129543095945, 2337.5755072829097 44.24808295134127 z" stroke-width="0.09617504500485922" opacity="0.9570541487418941" class="creaturePartClass"/></g><g xmlns="http://www.w3.org/2000/svg" id="Creature-0.6708340194027772" style="fill:#c3961e;stroke:#e520df" stroke-width="123.38874730920793" opacity="0.7431198442377571" transform="translate(207.84224874846893, 166.70721783112234) rotate(0.029287881121764656 216.40000915527344 274.6999969482422)" onmousedown="tool('Creature-0.6708340194027772')" class="creatureClass"><title>Creature-0.6708340194027772</title><desc>moveLifePathCreatureEvo3("Creature-0.6708340194027772", 0.7, 1.2)</desc><path id="Creature-0.6708340194027772-part-0" d="M 0.5232082512845488, 9.690689112916584 Q 0.10384645371553092, 7.305536238044049 1.0857737885092629, 4.199351890750825 T 1.0467677151317902, 1.8138113684636115, 0.30550509579695156 9.602431269213902, 0.9132125822323811 7.155776911402437, 0.6736822923355846 8.65584399410487, 0.8418384671280026 0.01850907032661498 z" stroke-width="12.695464186866095" opacity="0.21760201293716727" class="creaturePartClass"/><path id="Creature-0.6708340194027772-part-1" d="M 0.8533663679567226, 7.206697501676177 Q 1.2266424515292342, 0.6058748342544897 0.12251111278470055, 5.558400324363315 T 0.31754489658684937, 2.792788873026955, 0.6904830123818823 6.9498587909260845, 1.0037891704037052 6.403038251336092, 0.10360191595763033 7.553714606590092, 0.07920101643743725 9.109037409167543 z" stroke-width="46.27591170760658" opacity="0.3636341289931209" class="creaturePartClass"/><path id="Creature-0.6708340194027772-part-2" d="M 0.15218030156488868, 5.3488244500253845 Q 0.13541819245305817, 10.026196891391901 0.6717481302323819, 0.3294736204033894 T 1.3400704505734589, 4.948173533337428, 0.24879994344781575 3.3839789067015387, 0.26864733794637896 6.87416417969816, 0.16557920735413253 5.085251830238315, 0.3410501099178036 4.309307519563316 z" stroke-width="17.011744629701973" opacity="0.7581699646230328" class="creaturePartClass"/><path id="Creature-0.6708340194027772-part-3" d="M 0.8483482215219463, 0.695436230011888 Q 0.47113713421616393, 8.619070861185259 1.1669254548697998, 5.781818544662313 T 0.27721468060242355, 1.8760241089051948, 0.4037578617332061 4.948728620923182, 0.9277585468879946 4.264732799806434, 0.8964532137065349 9.089569891025137, 0.6686513491932423 10.095358080149518 z" stroke-width="68.07898494041312" opacity="0.9729176480833461" class="creaturePartClass"/></g><g xmlns="http://www.w3.org/2000/svg" id="Creature-0.9591843664985827" style="fill:#d7d298;stroke:#9a62a9" stroke-width="12.455497356889135" opacity="0.9854489286127935" transform="translate(75.02865136409997, 212.09756930394335) rotate(0.13041518034262206 404.2416534423828 416.1083221435547)" onmousedown="tool('Creature-0.9591843664985827')" class="creatureClass"><title>Creature-0.9591843664985827</title><desc>moveLifePathCreatureEvo3("Creature-0.9591843664985827", 0.7, 1.2)</desc><path id="Creature-0.9591843664985827-part-0" d="M 1.355015714145666, 4.473632660011383 Q 1.0271075327149621, 3.4503859000922583 2.017511068920211, 6.1346139997955 T 1.3594892501656952, 3.291359564396654, 0.6401557664701518 4.09203830131656, 0.26181169737942855 5.651224946513602, 1.103237734797264 6.468572095121038, 1.7294602173183544 5.970662960032362 z" stroke-width="22.123826948057943" opacity="0.9565131719720825" class="creaturePartClass"/><path id="Creature-0.9591843664985827-part-1" d="M 1.7218122095343045, 4.141815781815567 Q 0.15118505788641698, 2.0845388748503946 0.5198725918722273, 0.01858984414756978 T 1.8444690096614134, 6.43422803005352, 1.287460998370538 1.7233662150839861, 1.9594515225421392 5.966616150297331, 1.5598951670400025 3.9197356794863234, 0.9757866332048473 4.104741182447248 z" stroke-width="13.026070172857965" opacity="0.8950850849894897" class="creaturePartClass"/><path id="Creature-0.9591843664985827-part-2" d="M 0.2807342648346403, 2.488345275014288 Q 0.25782203853081537, 2.1325254530225783 1.485598934296818, 0.770261934275977 T 1.857476401166055, 5.213040218590396, 0.522399726205716 0.24511508858465755, 1.5521548341391185 5.740238695904151, 1.3443161607701228 0.6857854878496414, 1.9849566262063487 2.955143586681663 z" stroke-width="30.024952538977914" opacity="0.9795994420665037" class="creaturePartClass"/><path id="Creature-0.9591843664985827-part-3" d="M 0.7622235299560723, 0.7394010281534344 Q 0.8241664838022689, 0.08910069665639808 0.006944429077915551, 2.9459265244868096 T 1.4348607508588938, 1.264047808915732, 0.4077664212282281 1.6765553056926878, 1.9991841454084365 5.912986017808811, 0.08261180221318376 5.54766636708108, 1.861128910481244 0.34013206455843853 z" stroke-width="18.673619522967282" opacity="0.9063280333021891" class="creaturePartClass"/><g id="Creature-0.39309159173425423" style="fill:#37ad97;stroke:#b14a27" stroke-width="7.524496705362353" opacity="0.92056430329275" transform="translate(107.4476045944923, 316.41328266689374) rotate(-0.08715286548197096 195.00833129882812 715.3249816894531)" onmousedown="tool('Creature-0.39309159173425423')" class="creatureClass"><title>Creature-0.39309159173425423</title><desc>moveLifePathCreatureEvo3("Creature-0.39309159173425423", 0.7, 1.2)</desc><path id="Creature-0.39309159173425423-part-0" d="M 4.387146799420928, 0.3038560082365678 Q 6.354069060058796, 0.9042242912834906 5.5139468782500645, 1.2236689737754038 T 7.51957688934146, 1.2652956718671156, 0.3880100746748386 1.1614196400138057, 5.844989157747193 0.5882504825273343, 3.637429884434233 0.6551892139607011, 1.7805958919763716 0.7603409136501448 z" stroke-width="2.7734637013950953" opacity="0.4335072027709391" class="creaturePartClass"/><path id="Creature-0.39309159173425423-part-1" d="M 7.98651169425285, 0.5511860559675521 Q 7.602198996651044, 0.18576974239612004 0.7436891419691065, 0.6311330959469428 T 0.8597095456950675, 0.3600984605941, 6.7308245469271535 1.0186774707656283, 3.4997960386973173 0.6435598336048275, 6.390256629933979 1.0068319438463942, 3.3275325809986684 0.5546132461118796 z" stroke-width="2.261101063645593" opacity="0.5647079493706401" class="creaturePartClass"/><path id="Creature-0.39309159173425423-part-2" d="M 6.311493707568136, 0.04065307182150862 Q 4.173326439855248, 0.996465172727026 1.6949876569582927, 0.40771703014835864 T 5.651337731511899, 0.9956280903199283, 2.0448296762216795 0.5105748168551044, 5.370195504525484 1.1744922603085668, 2.864922943835107 0.928656748199494, 6.917375634425022 1.2819667562106316 z" stroke-width="8.46651109933099" opacity="0.9012716924684723" class="creaturePartClass"/><path id="Creature-0.39309159173425423-part-3" d="M 6.642678795616965, 1.307595423000403 Q 8.051433439769216, 0.41971663945529125 0.6581422304041336, 1.2738731594373898 T 6.046732866425415, 1.2927771062234306, 4.733785541067789 1.1176912905463148, 7.893279057591398 0.5039901153940576, 0.8045795493908846 0.7401901042501247, 3.1230167022021664 1.2488943907676304 z" stroke-width="2.3037481764914203" opacity="0.9478021315285393" class="creaturePartClass"/></g><path id="Creature-0.4375057028459034" d="M 40.26019960198191, 86.7083839295299 Q 41.64442532850823, 185.94442416908606 151.75270551445445, 148.92480160810157 T 95.03590734585732, 12.18585369933187, 207.39917135414285 180.38704535591629, 82.02373397335685 185.30424044064785, 150.45835591201353 232.37860885638165, 50.66013576054719 84.5689968006032 z" style="fill:yellow;stroke:orange" stroke-width="5.981595581042263" opacity="0.0006084619765156507" transform="translate(203.38342788734536, 178.52901531192438) rotate(-0.5109418734902483 472.9583282470703 705.4833068847656)" onmousedown="tool('Creature-0.4375057028459034')" class="creatureClass"><title>Creature-0.4375057028459034</title><desc>moveLifePathCreature2("Creature-0.4375057028459034", 1, 1)</desc></path></g><g xmlns="http://www.w3.org/2000/svg" id="Creature-0.39309159173425423" style="fill:#37ad97;stroke:#b14a27" stroke-width="7.524496705362353" opacity="0.92056430329275" transform="translate(107.4476045944923, 316.41328266689374) rotate(-0.08715286548197096 195.00833129882812 715.3249816894531)" onmousedown="tool('Creature-0.39309159173425423')" class="creatureClass"><title>Creature-0.39309159173425423</title><desc>moveLifePathCreatureEvo3("Creature-0.39309159173425423", 0.7, 1.2)</desc><path id="Creature-0.39309159173425423-part-0" d="M 4.387146799420928, 0.3038560082365678 Q 6.354069060058796, 0.9042242912834906 5.5139468782500645, 1.2236689737754038 T 7.51957688934146, 1.2652956718671156, 0.3880100746748386 1.1614196400138057, 5.844989157747193 0.5882504825273343, 3.637429884434233 0.6551892139607011, 1.7805958919763716 0.7603409136501448 z" stroke-width="2.7734637013950953" opacity="0.4335072027709391" class="creaturePartClass"/><path id="Creature-0.39309159173425423-part-1" d="M 7.98651169425285, 0.5511860559675521 Q 7.602198996651044, 0.18576974239612004 0.7436891419691065, 0.6311330959469428 T 0.8597095456950675, 0.3600984605941, 6.7308245469271535 1.0186774707656283, 3.4997960386973173 0.6435598336048275, 6.390256629933979 1.0068319438463942, 3.3275325809986684 0.5546132461118796 z" stroke-width="2.261101063645593" opacity="0.5647079493706401" class="creaturePartClass"/><path id="Creature-0.39309159173425423-part-2" d="M 6.311493707568136, 0.04065307182150862 Q 4.173326439855248, 0.996465172727026 1.6949876569582927, 0.40771703014835864 T 5.651337731511899, 0.9956280903199283, 2.0448296762216795 0.5105748168551044, 5.370195504525484 1.1744922603085668, 2.864922943835107 0.928656748199494, 6.917375634425022 1.2819667562106316 z" stroke-width="8.46651109933099" opacity="0.9012716924684723" class="creaturePartClass"/><path id="Creature-0.39309159173425423-part-3" d="M 6.642678795616965, 1.307595423000403 Q 8.051433439769216, 0.41971663945529125 0.6581422304041336, 1.2738731594373898 T 6.046732866425415, 1.2927771062234306, 4.733785541067789 1.1176912905463148, 7.893279057591398 0.5039901153940576, 0.8045795493908846 0.7401901042501247, 3.1230167022021664 1.2488943907676304 z" stroke-width="2.3037481764914203" opacity="0.9478021315285393" class="creaturePartClass"/></g><path xmlns="http://www.w3.org/2000/svg" id="Creature-0.4375057028459034" d="M 40.26019960198191, 86.7083839295299 Q 41.64442532850823, 185.94442416908606 151.75270551445445, 148.92480160810157 T 95.03590734585732, 12.18585369933187, 207.39917135414285 180.38704535591629, 82.02373397335685 185.30424044064785, 150.45835591201353 232.37860885638165, 50.66013576054719 84.5689968006032 z" style="fill:yellow;stroke:orange" stroke-width="5.981595581042263" opacity="0.0006084619765156507" transform="translate(203.38342788734536, 178.52901531192438) rotate(-0.5109418734902483 472.9583282470703 705.4833068847656)" onmousedown="tool('Creature-0.4375057028459034')" class="creatureClass"><title>Creature-0.4375057028459034</title><desc>moveLifePathCreature2("Creature-0.4375057028459034", 1, 1)</desc></path><g xmlns="http://www.w3.org/2000/svg" id="Creature-0.0645717860754983" style="fill:#79d2b2;stroke:#486e63" stroke-width="0.5058015395581564" opacity="0.9197839563281536" transform="translate(6.932113106888255, 96.24404271926385) rotate(-0.023321657600368466 367.0749969482422 605.9749984741211)" onmousedown="tool('Creature-0.0645717860754983')" class="creatureClass"><title>Creature-0.0645717860754983</title><desc>moveLifePathCreatureEvo("Creature-0.0645717860754983", 1.1, 1.1)</desc><path id="Creature-0.0645717860754983-part-0" d="M 141.94349516822305, 25.417208111575817 Q 71.63374350950762, 56.62894841114485 45.138368326698526, 84.60083623427076 T 25.410457310045842, 34.02183507226355, 61.41310580063539 28.326770211910784, 44.61562768031941 45.55103077444549, 99.67196482252639 89.43964597751769, 112.03997706331435 31.21670445670449 z" stroke-width="5.566275677011576" opacity="0.6978136974539235" class="creaturePartClass"/><path id="Creature-0.0645717860754983-part-1" d="M 40.66250728730739, 8.086758347665354 Q 176.6153206498551, 27.61752046035275 98.93622467989884, 3.3229009406876266 T 170.8661018572307, 96.0795718715904, 9.190269790272819 59.65139895007289, 36.58961184318831 43.45843565063784, 75.22500828330396 64.07383195381352, 36.456047575612956 6.1503059427354945 z" stroke-width="4.418465733934608" opacity="0.6065428166420231" class="creaturePartClass"/><path id="Creature-0.0645717860754983-part-2" d="M 4.311004490389307, 28.696706067746266 Q 111.64564241836158, 63.63332802649353 31.90585383115305, 62.9720967173861 T 76.7834076673881, 72.09912326367476, 22.58110988662096 51.53868827214776, 48.67226956713567 0.546210537953417, 173.91331730715584 81.14957566267022, 26.56379500220371 6.900309627570231 z" stroke-width="5.80235629552482" opacity="0.5177773902750018" class="creaturePartClass"/><path id="Creature-0.0645717860754983-part-3" d="M 64.99080825161178, 82.40839301654944 Q 39.17855387096345, 68.83196787676977 154.46949961258738, 2.4049472025606855 T 52.15910962342981, 91.2373651033314, 85.80801334094906 96.84199762344622, 70.14350145784806 18.871281082656903, 169.68098001923536 61.133459714779576, 99.64007665686067 36.88683780317911 z" stroke-width="6.647144173951222" opacity="0.855781385804216" class="creaturePartClass"/></g><path xmlns="http://www.w3.org/2000/svg" id="Creature-0.74100260421246" d="M 269.67136841554054, 42.715710290284356 Q 56.26073583717287, 87.12425329136157 171.88636063729498, 8.98653349793512 T 283.2680343924675, 4.697134574233754, 277.5017958570369 45.173128806525504, 281.98625865945854 34.66773963744865, 41.929698081181634 11.498414075411386, 81.29831760520077 57.152137634206284 z" style="fill:yellow;stroke:orange" stroke-width="19.843721824953015" opacity="0.034972212162393546" transform="translate(323.7060759594725, 48.262344893038005) rotate(0.005501127385960775 512.8833160400391 527.4499893188477)" onmousedown="tool('Creature-0.74100260421246')" class="creatureClass"><title>Creature-0.74100260421246</title><desc>moveLifePathCreature2("Creature-0.74100260421246", 1, 1)</desc></path><g xmlns="http://www.w3.org/2000/svg" id="Creature-0.016210728884309966" style="fill:#c70233;stroke:#e130b3" stroke-width="6.646171384271384" opacity="0.8558123854256076" transform="translate(0,0)" onmousedown="tool('Creature-0.016210728884309966')" class="creatureClass"><title>Creature-0.016210728884309966</title><desc>moveLifePathCreatureEvo("Creature-0.016210728884309966", 1.1, 1.1)</desc><path id="Creature-0.016210728884309966-part-0" d="M 342.68071070832394, 79.18308316265814 Q 124.04841861689096, 90.54416931182192 340.30084618509665, 0.14242664330404614 T 21.495643770578795, 141.18339242090613, 371.3885535443065 34.97369917122648, 28.357083424246373 134.86288674115872, 62.865154457807 61.57596607453117, 661.8109505562618 32.63996763781943 z" stroke-width="3.8627477133757626" opacity="0.6695522191691515" class="creaturePartClass"/><path id="Creature-0.016210728884309966-part-1" d="M 56.52748332775381, 151.4595571480802 Q 384.8022686613453, 157.95813617402786 642.6970542615566, 123.39775197569924 T 537.1638879548643, 1.8661340612352826, 245.70749847446544 18.281900072895755, 520.9559917148856 84.00067080176633, 272.74620337903895 38.47529554672288, 263.46894949385984 178.16287490133632 z" stroke-width="4.974143498052488" opacity="0.5802697938578728" class="creaturePartClass"/><path id="Creature-0.016210728884309966-part-2" d="M 243.79307471332953, 28.358696673628298 Q 204.46822112977384, 160.9440774225373 600.34438718518, 136.7783130921829 T 166.6699567898038, 14.71734871783098, 577.9210618954426 49.559978622140946, 364.17203116136443 104.2017306234326, 441.7085440355046 86.00588856136527, 362.9435012465217 20.83518802319961 z" stroke-width="1.540560047301503" opacity="0.9978842538937377" class="creaturePartClass"/><path id="Creature-0.016210728884309966-part-3" d="M 412.0210583118249, 7.334848178656418 Q 368.8296500004366, 121.57585320714853 186.09943072886773, 162.2434004431131 T 319.3020201503131, 135.29614867686115, 621.9940720329338 74.99251081671954, 81.61034460236574 47.86450355804086, 134.3138748580646 186.90087753753778, 373.97598309507396 30.51620520952606 z" stroke-width="1.3745397236545578" opacity="0.8023056078714065" class="creaturePartClass"/></g><g xmlns="http://www.w3.org/2000/svg" id="Creature-0.37208015782567505" style="fill:#c8b469;stroke:#b2423" stroke-width="0.9473389173497903" opacity="0.9452651604261545" transform="translate(377.15157657046547, 85.20205966557542) rotate(-1.6274900014221323 394.3083190917969 176.4749984741211)" onmousedown="tool('Creature-0.37208015782567505')" class="creatureClass"><title>Creature-0.37208015782567505</title><desc>moveLifePathCreatureEvo3("Creature-0.37208015782567505", 0.7, 1.2)</desc><path id="Creature-0.37208015782567505-part-0" d="M 8.470069537140766, 0.08942473315791197 Q 1.708888238254452, 0.12057890192506349 2.942946619653561, 0.055346342117786954 T 0.15783813468017244, 0.30244609862121713, 1.4723396457305622 0.17745979236427945, 7.590736209588828 0.30401220162967296, 0.592514041987221 0.20253436937129704, 2.7510910088905476 0.11081308659407808 z" stroke-width="0.18591834353218853" opacity="0.9566857533235521" class="creaturePartClass"/><path id="Creature-0.37208015782567505-part-1" d="M 8.051520694905204, 0.04340796347104384 Q 10.300281941631834, 0.22369997316336532 0.239437711369787, 0.28141669017806037 T 7.158452867407127, 0.1582458849952043, 0.4637882573367603 0.11685322420188195, 1.510350093441333 0.27992625263145104, 3.5452578370575853 0.25701881359989076, 2.106715418710468 0.14272046736523195 z" stroke-width="0.26772975189756343" opacity="0.7831143959212425" class="creaturePartClass"/><path id="Creature-0.37208015782567505-part-2" d="M 10.4590512014287, 0.10234738150858305 Q 6.475670454582277, 0.1853747676453812 0.30428122375326433, 0.03118019658317352 T 1.03754534034121, 0.2433179207522258, 4.204667028274573 0.05408908334448036, 10.141212379702493 0.25625070466065364, 2.2783808873483964 0.22017894244350972, 9.144830735849226 0.10066796416138207 z" stroke-width="1.1134164054631732" opacity="0.9857829216786446" class="creaturePartClass"/><path id="Creature-0.37208015782567505-part-3" d="M 1.9623992322224346, 0.12485909780234862 Q 6.166353307405588, 0.14124195322038471 8.383831903138013, 0.016866921218533247 T 5.880096347592374, 0.0838587898669336, 2.6034295754160515 0.2836577538677468, 2.984341430460239 0.21161000189156676, 5.032832497749161 0.2941623662842684, 7.349550180335924 0.0116116656985838 z" stroke-width="0.40753332926761454" opacity="0.3661472481473975" class="creaturePartClass"/></g><g xmlns="http://www.w3.org/2000/svg" id="Creature-0.2302623173795587" style="fill:#3ec249;stroke:#7869dd" stroke-width="0.8846419775999902" opacity="0.8907657811020958" transform="translate(135.8233619954335, 39.28950594505572) rotate(1.5654263448185783 146.5 139.04166412353516)" onmousedown="tool('Creature-0.2302623173795587')" class="creatureClass"><title>Creature-0.2302623173795587</title><desc>moveLifePathCreatureEvo3("Creature-0.2302623173795587", 0.7, 1.2)</desc><path id="Creature-0.2302623173795587-part-0" d="M 0.19150120437826626, 0.17484811525798488 Q 0.09925295855044158, 1.3658394581665319 0.4398574986416219, 1.004996661604224 T 0.22073438881090418, 0.7378858954105101, 0.5382830865446101 0.16693957626424283, 0.543682165109125 0.06264546599437992, 0.5978400843798813 0.3683076265123587, 0.697465562661087 0.006409529404701538 z" stroke-width="8.606051930966288" opacity="0.9863589800834554" class="creaturePartClass"/><path id="Creature-0.2302623173795587-part-1" d="M 0.37880045407081014, 0.9469005080439565 Q 0.011015240785373588, 0.7475764220036067 0.4050043812607726, 1.2270485235216981 T 0.37777116656671067, 0.9322340912517662, 0.02791537160725312 0.517806297517395, 0.41611642651429015 1.4764653466110957, 0.22282607909384547 1.44524241298452, 0.039852497219852324 0.6133325077228561 z" stroke-width="2.2617262426695612" opacity="0.8630062414166102" class="creaturePartClass"/><path id="Creature-0.2302623173795587-part-2" d="M 0.4591654001190029, 1.3376911493964594 Q 0.5646214977217862, 0.24786129103397753 0.6110568589501073, 1.468145405829187 T 0.4589886517045817, 1.387350147976215, 0.3741141009176285 0.5735244666231308, 0.417919533768508 0.9075955770185878, 0.6620979071889326 0.5688280010720158, 0.25899944489007415 1.2079772542988434 z" stroke-width="16.55797424430333" opacity="0.8072020996860129" class="creaturePartClass"/><path id="Creature-0.2302623173795587-part-3" d="M 0.018525049994342107, 1.0779461592468804 Q 0.14825834833884877, 0.9945216658261966 0.6070156018646742, 0.4756109048568164 T 0.12945526723231665, 1.2116159502082435, 0.4722418105685291 1.114871915732993, 0.4699041601826911 0.4078591884402151, 0.13298699051351254 0.569737681874423, 0.3591075538342766 1.4218665992904127 z" stroke-width="5.497893207081147" opacity="0.9143976824089383" class="creaturePartClass"/></g><g xmlns="http://www.w3.org/2000/svg" id="Creature-0.34191710949784826" style="fill:#d1cfd9;stroke:#8aab2a" stroke-width="0.7626122362790865" opacity="0.7690624241587454" transform="translate(198.11164956176253, 252.4604728064694) rotate(0.19781005870466245 209.04166412353516 349.24168395996094)" onmousedown="tool('Creature-0.34191710949784826')" class="creatureClass"><title>Creature-0.34191710949784826</title><desc>moveLifePathCreatureEvo3("Creature-0.34191710949784826", 0.7, 1.2)</desc><path id="Creature-0.34191710949784826-part-0" d="M 0.32521447897331995, 0.1273949545088445 Q 0.575315657408848, 0.1426518110989549 0.4826396593212421, 0.18682506446667255 T 0.34762868311169665, 0.03744127211080075, 0.08760797099268154 0.15083423236097357, 0.6548811511743786 0.049677187153501605, 0.03819444385459525 0.08123362415473756, 0.5304406752225498 0.025934682210389973 z" stroke-width="0.8272530877283317" opacity="0.9771054965199371" class="creaturePartClass"/><path id="Creature-0.34191710949784826-part-1" d="M 0.0059585661611131074, 0.1575988676365938 Q 0.4206376399167097, 0.024577152053563936 0.7947211057424821, 0.1632087843325312 T 0.029244193100855062, 0.04999018144129974, 0.41063816578807466 0.19345345109690407, 0.4248010996837297 0.051506011439598806, 0.09336869331294448 0.18568465145958193, 0.1799302293850298 0.050601886241932625 z" stroke-width="3.2087684539494945" opacity="0.4070426932812001" class="creaturePartClass"/><path id="Creature-0.34191710949784826-part-2" d="M 0.3785808377336189, 0.0002896480444266305 Q 0.3618329793613204, 0.02961261678513944 0.36658497697328307, 0.09602295451777543 T 0.6298288643283333, 0.11905017944155198, 0.6550011839063848 0.07733736276677879, 0.23403892675421728 0.022907760184959037, 0.03612807183233664 0.08756326253789566, 0.5620312696042274 0.07781455459046506 z" stroke-width="1.3532025395620755" opacity="0.6733069218360969" class="creaturePartClass"/><path id="Creature-0.34191710949784826-part-3" d="M 0.48392149946706325, 0.17458017575621995 Q 0.815274414923603, 0.16752267570114593 0.3487393996157664, 0.06000705441561553 T 0.1972429174728788, 0.001795997595916405, 0.3646429362267235 0.13322364995371969, 0.19645509444229284 0.19713342715966517, 0.7179352523548387 0.009599368417210794, 0.8119080220793957 0.1662755248398641 z" stroke-width="0.8586117756193751" opacity="0.8527510045234039" class="creaturePartClass"/></g></svg>