<?xml version="1.0" encoding="UTF-8" standalone="no"?>
<!-- Created with LifeFLOW (http://life.worldsowisdom.com/flow/) -->

<svg
   xmlns:osb="http://www.openswatchbook.org/uri/2009/osb"
   xmlns:dc="http://purl.org/dc/elements/1.1/"
   xmlns:cc="http://creativecommons.org/ns#"
   xmlns:rdf="http://www.w3.org/1999/02/22-rdf-syntax-ns#"
   xmlns:svg="http://www.w3.org/2000/svg"
   xmlns="http://www.w3.org/2000/svg"
   xmlns:xlink="http://www.w3.org/1999/xlink"
   xmlns:sodipodi="http://sodipodi.sourceforge.net/DTD/sodipodi-0.dtd"
   xmlns:inkscape="http://www.inkscape.org/namespaces/inkscape"
   width="450"
   height="450"
   viewBox="0 0 450 450"
   id="svg2"
   version="1.1"
   inkscape:version="0.91 r13725"
   sodipodi:docname="newcreatures-plain.svg">
  <defs
     id="defs4">
    <linearGradient
       inkscape:collect="always"
       id="linearGradient6501">
      <stop
         style="stop-color:#0000ff;stop-opacity:1;"
         offset="0"
         id="stop6503" />
      <stop
         style="stop-color:#0000ff;stop-opacity:0;"
         offset="1"
         id="stop6505" />
    </linearGradient>
    <linearGradient
       id="linearGradient6455"
       osb:paint="solid">
      <stop
         style="stop-color:#0000ff;stop-opacity:1;"
         offset="0"
         id="stop6457" />
    </linearGradient>
    <filter
       inkscape:collect="always"
       style="color-interpolation-filters:sRGB"
       id="filter5001"
       x="-0.37912726"
       width="1.7582545"
       y="-0.65848422"
       height="2.3169684">
      <feGaussianBlur
         inkscape:collect="always"
         stdDeviation="6.3692616"
         id="feGaussianBlur5003" />
    </filter>
    <linearGradient
       inkscape:collect="always"
       xlink:href="#linearGradient6501"
       id="linearGradient6507"
       x1="242.51431"
       y1="178.50594"
       x2="313.40628"
       y2="178.50594"
       gradientUnits="userSpaceOnUse"
       gradientTransform="translate(-215.03742,319.7082)" />
  </defs>
  <sodipodi:namedview
     id="base"
     pagecolor="#ffffff"
     bordercolor="#666666"
     borderopacity="1.0"
     inkscape:pageopacity="0.0"
     inkscape:pageshadow="2"
     inkscape:zoom="0.24748738"
     inkscape:cx="463.57331"
     inkscape:cy="265.90363"
     inkscape:document-units="px"
     inkscape:current-layer="layer1"
     showgrid="false"
     inkscape:window-width="1366"
     inkscape:window-height="706"
     inkscape:window-x="-8"
     inkscape:window-y="-8"
     inkscape:window-maximized="1"
     units="px" />
  <metadata
     id="metadata7">
    <rdf:RDF>
      <cc:Work
         rdf:about="">
        <dc:format>image/svg+xml</dc:format>
        <dc:type
           rdf:resource="http://purl.org/dc/dcmitype/StillImage" />
        <dc:title></dc:title>
      </cc:Work>
    </rdf:RDF>
  </metadata>
  <g
     inkscape:label="Layer 1"
     inkscape:groupmode="layer"
     id="layer1"
     transform="translate(0,-364.28567)">
    <path
       sodipodi:type="star"
       style="opacity:0.28999999;fill:#00ffff;stroke:#800080"
       id="path4136eg"
       sodipodi:sides="5"
       sodipodi:cx="149.96248"
       sodipodi:cy="470.92843"
       sodipodi:r1="84.03109"
       sodipodi:r2="42.015545"
       sodipodi:arg1="0.31099828"
       sodipodi:arg2="0.93931681"
       inkscape:flatsided="false"
       inkscape:rounded="0"
       inkscape:randomized="0"
       d="m 229.96248,496.64272 -55.19656,8.19877 -24.53782,50.11762 -24.85417,-49.96149 -55.247286,-7.84966 39.835836,-39.07667 -9.60688,-54.96897 49.47407,25.81078 49.30991,-26.12303 -9.25918,55.0286 z"
       inkscape:transform-center-x="-0.082081267"
       inkscape:transform-center-y="7.9461513" />
    <path
       inkscape:transform-center-y="2.4320959"
       inkscape:transform-center-x="-0.025122895"
       d="m 68.791599,427.6385 -16.894071,2.5094 -7.510317,15.33956 -7.607143,-15.29177 -16.909598,-2.40255 12.192598,-11.96024 -2.940388,-16.82442 15.142583,7.89994 15.092337,-7.99551 -2.833967,16.84267 z"
       inkscape:randomized="0"
       inkscape:rounded="0"
       inkscape:flatsided="false"
       sodipodi:arg2="0.93931681"
       sodipodi:arg1="0.31099828"
       sodipodi:r2="12.859744"
       sodipodi:r1="25.719488"
       sodipodi:cy="419.76809"
       sodipodi:cx="44.305912"
       sodipodi:sides="5"
       id="path4138eg"
       style="opacity:0.28999999;fill:#00ffff;stroke:#800080;stroke-width:0.3060711"
       sodipodi:type="star" />
    <g
       id="BiggoEGbg"
       transform="translate(-109.96232,143.76849)">
      <desc
         id="desc4151">A big creature for LifeFLOW! :)</desc>
      <circle
         r="29.934187"
         cy="259.14496"
         cx="302.39636"
         id="path4137eg"
         style="opacity:0.28999999;fill:#ffff00;stroke:#800080;stroke-width:0.6047619" />
      <circle
         r="7.3308215"
         cy="265.86487"
         cx="307.8945"
         id="path4139eg"
         style="opacity:0.28999999;fill:#ffff00;stroke:#800080;stroke-width:0.6047619" />
      <ellipse
         ry="10.996231"
         rx="3.6654108"
         cy="251.20323"
         cx="292.01105"
         id="path4141eg"
         style="opacity:0.28999999;fill:#0000ff;stroke:#800080;stroke-width:0.6047619" />
      <ellipse
         ry="3.6654108"
         rx="9.7744284"
         cy="253.64687"
         cx="317.66891"
         id="path4143eg"
         style="opacity:0.28999999;fill:#0000ff;stroke:#800080;stroke-width:0.6047619" />
    </g>
    <rect
       style="opacity:0.87000002;fill:url(#linearGradient6507);fill-opacity:1;stroke:#0000ff;stroke-width:0.6047619;stroke-miterlimit:4;stroke-dasharray:none;filter:url(#filter5001)"
       id="MedyEGbg"
       width="40.319515"
       height="23.214266"
       x="42.763119"
       y="486.60684" />
    <g
       id="g6519eg"
       inkscape:label="#MedyEG"
       transform="translate(0,53.355016)">
      <rect
         y="281.74832"
         x="59.868374"
         height="31.766891"
         width="63.533783"
         id="rect6509eg"
         style="opacity:0.87000002;fill:#0000ff;fill-opacity:1;stroke:#0000ff;stroke-width:0.6047619;stroke-miterlimit:4;stroke-dasharray:none" />
      <path
         inkscape:transform-center-y="-0.19571458"
         inkscape:transform-center-x="0.72308977"
         d="m 81.860835,300.07539 -6.160837,-1.4834 -4.714657,4.23419 -0.493011,-6.31769 -5.483865,-3.17547 5.856139,-2.42116 1.325442,-6.19674 4.112304,4.82134 6.303033,-0.65433 -3.314595,5.40091 z"
         inkscape:randomized="0"
         inkscape:rounded="0"
         inkscape:flatsided="false"
         sodipodi:arg2="1.3230568"
         sodipodi:arg1="0.69473828"
         sodipodi:r2="4.7712951"
         sodipodi:r1="9.5425901"
         sodipodi:cy="293.96637"
         sodipodi:cx="74.530014"
         sodipodi:sides="5"
         id="path6511eg"
         style="opacity:0.87000002;fill:#ff8080;fill-opacity:1;stroke:#0000ff;stroke-width:0.6047619;stroke-miterlimit:4;stroke-dasharray:none"
         sodipodi:type="star" />
      <path
         inkscape:transform-center-y="0.22428177"
         inkscape:transform-center-x="0.37755769"
         d="m 108.74051,312.2934 -1.06782,-3.99694 -3.89796,-1.38629 3.47135,-2.25068 0.1139,-4.13556 3.21323,2.60595 3.96835,-1.16963 -1.48546,3.86124 2.33867,3.41269 -4.13129,-0.21956 z"
         inkscape:randomized="0"
         inkscape:rounded="0"
         inkscape:flatsided="false"
         sodipodi:arg2="2.3965104"
         sodipodi:arg1="1.7681919"
         sodipodi:r2="3.115"
         sodipodi:r1="6.23"
         sodipodi:cy="306.18439"
         sodipodi:cx="109.96231"
         sodipodi:sides="5"
         id="path6513eg"
         style="opacity:0.87000002;fill:#ff8080;fill-opacity:1;stroke:#0000ff;stroke-width:0.6047619;stroke-miterlimit:4;stroke-dasharray:none"
         sodipodi:type="star" />
      <path
         inkscape:transform-center-y="-0.16705416"
         inkscape:transform-center-x="0.16705535"
         d="m 92.857067,295.18814 -2.173306,-0.73698 -1.839194,1.3725 0.02933,-2.29468 -1.873674,-1.32505 2.191432,-0.6812 0.6812,-2.19143 1.32505,1.87368 2.294678,-0.0293 -1.372506,1.8392 z"
         inkscape:randomized="0"
         inkscape:rounded="0"
         inkscape:flatsided="false"
         sodipodi:arg2="1.4137167"
         sodipodi:arg1="0.78539816"
         sodipodi:r2="1.727891"
         sodipodi:r1="3.4557824"
         sodipodi:cy="292.74454"
         sodipodi:cx="90.41346"
         sodipodi:sides="5"
         id="path6515eg"
         style="opacity:0.87000002;fill:#ff8080;fill-opacity:1;stroke:#0000ff;stroke-width:0.6047619;stroke-miterlimit:4;stroke-dasharray:none"
         sodipodi:type="star" />
      <path
         inkscape:transform-center-y="-0.1121867"
         inkscape:transform-center-x="-0.63956251"
         d="m 84.736419,309.55335 2.201552,-4.70569 -2.628342,-4.48131 5.155694,0.63966 3.44978,-3.8845 0.984842,5.10102 4.760422,2.08056 -4.547027,2.51294 -0.507677,5.17036 -3.79506,-3.54794 z"
         inkscape:randomized="0"
         inkscape:rounded="0"
         inkscape:flatsided="false"
         sodipodi:arg2="3.0951702"
         sodipodi:arg1="2.4668517"
         sodipodi:r2="3.9116797"
         sodipodi:r1="7.8233595"
         sodipodi:cy="304.66614"
         sodipodi:cx="90.845436"
         sodipodi:sides="5"
         id="path6517eg"
         style="opacity:0.87000002;fill:#ff8080;fill-opacity:1;stroke:#0000ff;stroke-width:0.6047619;stroke-miterlimit:4;stroke-dasharray:none"
         sodipodi:type="star" />
    </g>
    <path
       sodipodi:type="spiral"
       style="fill:#00ffff;fill-rule:evenodd;stroke:#000000;stroke-width:0.6047619px;stroke-linecap:butt;stroke-linejoin:miter;stroke-opacity:1"
       id="eaglynew2"
       sodipodi:cx="73.308212"
       sodipodi:cy="393.74982"
       sodipodi:expansion="1"
       sodipodi:revolution="3"
       sodipodi:radius="41.613129"
       sodipodi:argument="-18.147299"
       sodipodi:t0="0"
       d="m 73.308212,393.74982 c 1.592741,1.3477 -1.030876,2.81189 -2.239973,2.64724 -3.276579,-0.4462 -4.137127,-4.52375 -3.054508,-7.12719 1.936552,-4.65694 7.887895,-5.67954 12.014402,-3.46177 6.055815,3.25466 7.263028,11.296 3.869042,16.90161 -4.52365,7.4714 -14.719492,8.86373 -21.788831,4.27631 -8.896041,-5.77281 -10.473289,-18.15026 -4.683575,-26.67604 7.01212,-10.32587 21.585119,-12.08797 31.563258,-5.09085 11.758893,8.24586 13.705843,25.02253 5.49811,36.45048 -9.476152,13.19401 -28.461631,15.32586 -41.337687,5.90537 -14.630593,-10.70415 -16.947384,-31.90193 -6.312644,-46.2249 11.930572,-16.06821 35.343106,-18.56999 51.112116,-6.71991 17.506588,13.15584 20.193418,38.78494 7.127178,55.99933">
      <desc
         id="desc6528">a new test shape to play with! :)</desc>
    </path>
    <path
       d="m 205.26299,520.81738 c 1.59274,1.34771 -1.03088,2.8119 -2.23998,2.64724 -3.27658,-0.44619 -4.13713,-4.52374 -3.05451,-7.12718 1.93656,-4.65695 7.8879,-5.67955 12.01441,-3.46178 6.05581,3.25466 7.26302,11.296 3.86904,16.90162 -4.52365,7.4714 -14.71949,8.86373 -21.78883,4.27631 -8.89604,-5.77281 -10.47329,-18.15027 -4.68358,-26.67605 7.01212,-10.32586 21.58512,-12.08796 31.56326,-5.09084 11.75889,8.24586 13.70584,25.02252 5.49811,36.45047 -9.47615,13.19402 -28.46163,15.32587 -41.33769,5.90538 -14.63059,-10.70416 -16.94738,-31.90193 -6.31264,-46.2249 11.93057,-16.06821 35.3431,-18.57 51.11211,-6.71991 17.50659,13.15583 20.19342,38.78493 7.12718,55.99933"
       sodipodi:t0="0"
       sodipodi:argument="-18.147299"
       sodipodi:radius="41.613129"
       sodipodi:revolution="3"
       sodipodi:expansion="1"
       sodipodi:cy="520.81738"
       sodipodi:cx="205.26299"
       id="path6530eg"
       style="fill:#800000;fill-rule:evenodd;stroke:#000000;stroke-width:0.6047619px;stroke-linecap:butt;stroke-linejoin:miter;stroke-opacity:1"
       sodipodi:type="spiral">
      <desc
         id="desc6532">a new test shape to play with! :)</desc>
    </path>
  </g>
  <rect
     height="448"
     id="Border"
     style="fill:none;stroke:#800080;stroke-width:0.60342091"
     width="448"
     x="1"
     y="1" />
	 
	 
	 <!-- creatures from original versions! :) -->
	 
			<a style="fill-opacity:0.75" xlink:href="http://life.worldsowisdom.com/flow/"> <rect height="90" id="YellowRect" onmouseout="setAttribute('fill-opacity','0.5')" onmouseover="setAttribute('fill-opacity','1.0')" style="fill:yellow;stroke:#000000" width="90" x="150" y="90"> <desc id="desc3364">A clickable square!</desc>
			<title id="title3362"></title>
			</rect> </a> <a style="fill-opacity:0.75" xlink:href="http://life.worldsowisdom.com/flow/">
			<rect height="90" id="OrangeRect" onmouseout="setAttribute('fill-opacity','0.75')" onmouseover="setAttribute('fill-opacity','1.0')" style="fill:orange;stroke:#000000" width="90" x="60" y="300"> <desc id="desc3364">A clickable square!</desc>
			<title id="title3362"></title>
			</rect> </a>

<path xmlns="http://www.w3.org/2000/svg" sodipodi:type="spiral" xmlns:sodipodi="http://sodipodi.sourceforge.net/DTD/sodipodi-0.dtd" style="fill:#00ffff;fill-rule:evenodd;stroke:#000000;stroke-width:0.6047619px;stroke-linecap:butt;stroke-linejoin:miter;stroke-opacity:1" id="eaglynew" sodipodi:cx="73.308212" sodipodi:cy="393.74982" sodipodi:expansion="1" sodipodi:revolution="3" sodipodi:radius="41.613129" sodipodi:argument="-18.147299" sodipodi:t0="0" d="m 73.308212,393.74982 c 1.592741,1.3477 -1.030876,2.81189 -2.239973,2.64724 -3.276579,-0.4462 -4.137127,-4.52375 -3.054508,-7.12719 1.936552,-4.65694 7.887895,-5.67954 12.014402,-3.46177 6.055815,3.25466 7.263028,11.296 3.869042,16.90161 -4.52365,7.4714 -14.719492,8.86373 -21.788831,4.27631 -8.896041,-5.77281 -10.473289,-18.15026 -4.683575,-26.67604 7.01212,-10.32587 21.585119,-12.08797 31.563258,-5.09085 11.758893,8.24586 13.705843,25.02253 5.49811,36.45048 -9.476152,13.19401 -28.461631,15.32586 -41.337687,5.90537 -14.630593,-10.70415 -16.947384,-31.90193 -6.312644,-46.2249 11.930572,-16.06821 35.343106,-18.56999 51.112116,-6.71991 17.506588,13.15584 20.193418,38.78494 7.127178,55.99933" transform="translate(25, 25 )">
    <desc id="desc36">a new test shape to play with! :)</desc>
  </path><rect xmlns="http://www.w3.org/2000/svg" height="10" id="AvrilNiblet1" onmouseout="setAttribute('fill-opacity','0.5')" onmouseover="setAttribute('fill-opacity','1.0')" style="fill:yellow;stroke:black" width="10" x="225" y="225" transform="translate(25, 25 )">
    <desc id="desc71">Avril's first little niblet! :)</desc>
    <title id="title73"/>
  </rect><path xmlns="http://www.w3.org/2000/svg" fill-opacity="0.43046721000000016" onmousedown="Reverse(PurpleSpiral)" id="PurpleSpiral" d="m 282.09113,269.50729 c 1.52075,1.52076 -1.29967,2.80025 -2.52761,2.52761 -3.32763,-0.73884 -3.86257,-5.00113 -2.5276,-7.58281 2.38796,-4.61803 8.58895,-5.15902 12.63801,-2.5276 5.94217,3.86172 6.4939,12.22544 2.5276,17.69322 -5.28645,7.28768 -15.87921,7.84514 -22.74842,2.52759 -8.6442,-6.69159 -9.20486,-19.54122 -2.5276,-27.80363 8.08706,-10.00688 23.20787,-10.56947 32.85884,-2.52759 11.37333,9.47708 11.93717,26.8774 2.52759,37.91404 -10.86373,12.74223 -30.54887,13.30692 -42.96924,2.52759 -14.11282,-12.24817 -14.67812,-34.22169 -2.52759,-48.02445 13.63105,-15.4846 37.8955,-16.05034 53.07965,-2.52759 16.85728,15.01283 17.42336,41.57006 2.52759,58.13486" inkscape:tile-cx="185.6451" xmlns:inkscape="http://www.inkscape.org/namespaces/inkscape" inkscape:tile-cy="265.9547" inkscape:tile-h="68.00056" inkscape:tile-w="75.106916" inkscape:tile-x0="148.09164" inkscape:tile-y0="231.95443" sodipodi:argument="-18.064157" xmlns:sodipodi="http://sodipodi.sourceforge.net/DTD/sodipodi-0.dtd" sodipodi:cx="182.09113" sodipodi:cy="269.50729" sodipodi:expansion="1" sodipodi:radius="42.894836" sodipodi:revolution="3" sodipodi:t0="0" sodipodi:type="spiral" style="fill:#800080;fill-rule:evenodd;stroke:#000000;stroke-width:0.2081555px;stroke-linecap:butt;stroke-linejoin:miter;stroke-opacity:1" transform="translate(25, 25)"/><image xmlns="http://www.w3.org/2000/svg" id="back3" width="448" height="448" x="1" y="1" xlink:href="creatures/png/back3.png" xmlns:xlink="http://www.w3.org/1999/xlink"/><image xmlns="http://www.w3.org/2000/svg" id="galaxy3" width="294" height="150" x="150" y="100" style="opacity:0.5" onmousedown="tool(eg_newy)" xlink:href="creatures/png/galaxy3.png" xmlns:xlink="http://www.w3.org/1999/xlink" transform="translate(25, 25 )"/><image xmlns="http://www.w3.org/2000/svg" id="galaxy4" width="306" height="150" x="50" y="250" style="opacity:0.25" onmousedown="tool(eg_newy2)" xlink:href="creatures/png/galaxy4.png" xmlns:xlink="http://www.w3.org/1999/xlink" transform="translate(25, 12.5 )"/><image xmlns="http://www.w3.org/2000/svg" id="planet3" width="157" height="150" x="100" y="250" style="opacity:0.5" onmousedown="tool(eg_niblet)" xlink:href="creatures/png/planet3.png" xmlns:xlink="http://www.w3.org/1999/xlink" transform="translate(25, 0.0 )"/><image xmlns="http://www.w3.org/2000/svg" id="planet4" width="150" height="150" x="300" y="150" style="opacity:0.9" onmousedown="tool(eg_medy)" xlink:href="creatures/png/planet4.png" xmlns:xlink="http://www.w3.org/1999/xlink" transform="translate(25, 0.0 )"/><image xmlns="http://www.w3.org/2000/svg" id="satellite3" width="79" height="150" x="200" y="250" onmousedown="tool(satellite3)" xlink:href="creatures/png/satellite3.png" xmlns:xlink="http://www.w3.org/1999/xlink" transform="translate(25, 25 )"/><image xmlns="http://www.w3.org/2000/svg" id="satellite4" width="109" height="75" x="50" y="50" onmousedown="tool(satellite4)" xlink:href="creatures/png/satellite4.png" xmlns:xlink="http://www.w3.org/1999/xlink" transform="translate(25, 25 )"/><image xmlns="http://www.w3.org/2000/svg" id="mediumcreature3" width="38" height="50" x="300" y="175" onmousedown="tool(the_rect)" xlink:href="creatures/png/mediumcreature3.png" xmlns:xlink="http://www.w3.org/1999/xlink" transform="translate( 0.0 , 25 )"/><image xmlns="http://www.w3.org/2000/svg" id="niblet3" width="21" height="32" x="400" y="350" onmousedown="tool(pink_rect)" xlink:href="creatures/png/niblet3.png" xmlns:xlink="http://www.w3.org/1999/xlink" transform="translate( 0.0 , 25 )"/><image xmlns="http://www.w3.org/2000/svg" id="bigbeauty3" width="92" height="110" x="100" y="150" onmousedown="tool(eg_biggo)" xlink:href="creatures/png/bigbeauty3.png" xmlns:xlink="http://www.w3.org/1999/xlink" transform="translate(25, 0.0 )"/><image xmlns="http://www.w3.org/2000/svg" id="Creature-0.33470175617110554" a0:href="creatures/png/flower1.png" xmlns:a0="http://www.w3.org/1999/xlink" opacity="0.9755898340976015" transform="translate(-38.690957741868644, -149) rotate(102.03760394756699 339.45833587646484 343.71666717529297)" x="200" y="200" height="120" width="120" onmousedown="tool('Creature-0.33470175617110554')" class="creatureClass"><title>Creature-0.33470175617110554</title><desc>movePsyCreat("Creature-0.33470175617110554", 1, 1)</desc></image><image xmlns="http://www.w3.org/2000/svg" id="Creature-0.5915783971824043" a0:href="creatures/png/bact1.png" xmlns:a0="http://www.w3.org/1999/xlink" opacity="0.9432722061270912" transform="translate(104.04757360187554, -149) rotate(-244.96562652373368 435.3166809082031 340.8583450317383)" x="200" y="200" height="120" width="120" onmousedown="tool('Creature-0.5915783971824043')" class="creatureClass"><title>Creature-0.5915783971824043</title><desc>movePsyCreat("Creature-0.5915783971824043", 1, 1)</desc></image><image xmlns="http://www.w3.org/2000/svg" id="Creature-0.16240908199501725" a0:href="creatures/png/bact1.png" xmlns:a0="http://www.w3.org/1999/xlink" opacity="0.980950120475248" transform="translate(-34.09659406606602, -149) rotate(19.572326184615452 15.708335876464844 177.84166717529297)" x="200" y="200" height="120" width="120" onmousedown="tool('Creature-0.16240908199501725')" class="creatureClass"><title>Creature-0.16240908199501725</title><desc>movePsyCreat("Creature-0.16240908199501725", 1, 1)</desc></image><image xmlns="http://www.w3.org/2000/svg" id="Creature-0.29393310595843003" a0:href="creatures/png/bact1.png" xmlns:a0="http://www.w3.org/1999/xlink" opacity="0.7941990271641176" transform="translate(215.97158603503192, -0.8417903679512335) rotate(-0.6533253701650287 510.47501373291016 422.2083511352539)" x="200" y="200" height="120" width="120" onmousedown="tool('Creature-0.29393310595843003')" class="creatureClass"><title>Creature-0.29393310595843003</title><desc>movePsyCreat("Creature-0.29393310595843003", 1, 1)</desc></image><image xmlns="http://www.w3.org/2000/svg" id="Creature-0.3597630808679606" a0:href="creatures/png/bact1.png" xmlns:a0="http://www.w3.org/1999/xlink" opacity="0.3369777904533263" transform="translate(164.0233753102214, 258.7937154726069) rotate(-0.44634738054574546 -8.724998474121094 585.5833206176758)" x="200" y="200" height="120" width="120" onmousedown="tool('Creature-0.3597630808679606')" class="creatureClass"><title>Creature-0.3597630808679606</title><desc>movePsyCreat("Creature-0.3597630808679606", 1, 1)</desc></image><image xmlns="http://www.w3.org/2000/svg" id="Creature-0.8011607125371644" a0:href="creatures/png/bact1.png" xmlns:a0="http://www.w3.org/1999/xlink" opacity="0.7720647057212822" transform="translate(184.42075254909173, 262.06167623512556) rotate(0.3147955923921978 464.17501068115234 444.02498626708984)" x="200" y="200" height="120" width="120" onmousedown="tool('Creature-0.8011607125371644')" class="creatureClass"><title>Creature-0.8011607125371644</title><desc>movePsyCreat("Creature-0.8011607125371644", 1, 1)</desc></image><image xmlns="http://www.w3.org/2000/svg" id="Creature-0.7154805004474337" a0:href="creatures/png/bact1.png" xmlns:a0="http://www.w3.org/1999/xlink" opacity="0.7136853985568057" transform="translate(-346.91807416542997, -113.32346913380843) rotate(-2.964360240348802 71.58332824707031 552.75)" x="200" y="200" height="120" width="120" onmousedown="tool('Creature-0.7154805004474337')" class="creatureClass"><title>Creature-0.7154805004474337</title><desc>movePsyCreat("Creature-0.7154805004474337", 1, 1)</desc></image><image xmlns="http://www.w3.org/2000/svg" id="Creature-0.4407025596505928" a0:href="creatures/png/bact1.png" xmlns:a0="http://www.w3.org/1999/xlink" opacity="0.9760603617731334" transform="translate(-259.7039269359682, -13.396044873279408) rotate(-0.23570160795654832 135.71666717529297 60.133338928222656)" x="200" y="200" height="120" width="120" onmousedown="tool('Creature-0.4407025596505928')" class="creatureClass"><title>Creature-0.4407025596505928</title><desc>movePsyCreat("Creature-0.4407025596505928", 1, 1)</desc></image><image xmlns="http://www.w3.org/2000/svg" id="Creature-0.6128425111363858" a0:href="creatures/png/bact1.png" xmlns:a0="http://www.w3.org/1999/xlink" opacity="0.9430208046162011" transform="translate(-115.27504177757879, -149) rotate(0.4585261808823794 300.78333282470703 373.78333282470703)" x="200" y="200" height="120" width="120" onmousedown="tool('Creature-0.6128425111363858')" class="creatureClass"><title>Creature-0.6128425111363858</title><desc>movePsyCreat("Creature-0.6128425111363858", 1, 1)</desc></image><image xmlns="http://www.w3.org/2000/svg" id="Creature-0.18192714699478407" a0:href="creatures/png/bact1.png" xmlns:a0="http://www.w3.org/1999/xlink" opacity="0.9361069275358842" transform="translate(-37.53465608000275, -149) rotate(34.27141998408408 -198.93333435058594 172.2083282470703)" x="200" y="200" height="120" width="120" onmousedown="tool('Creature-0.18192714699478407')" class="creatureClass"><title>Creature-0.18192714699478407</title><desc>movePsyCreat("Creature-0.18192714699478407", 1, 1)</desc></image><image xmlns="http://www.w3.org/2000/svg" id="Creature-0.9542179435426764" a0:href="creatures/png/bact1.png" xmlns:a0="http://www.w3.org/1999/xlink" opacity="0.7540051657748876" transform="translate(-244.71718183163523, -149) rotate(-12.602442374133636 173.25833129882812 276.79166412353516)" x="200" y="200" height="120" width="120" onmousedown="tool('Creature-0.9542179435426764')" class="creatureClass"><title>Creature-0.9542179435426764</title><desc>movePsyCreat("Creature-0.9542179435426764", 1, 1)</desc></image><image xmlns="http://www.w3.org/2000/svg" id="Creature-0.903715135081827" a0:href="creatures/png/bact1.png" xmlns:a0="http://www.w3.org/1999/xlink" opacity="0.9172182320254914" transform="translate(-107.7457300894142, -149) rotate(36.657863944217404 316 259.81666564941406)" x="200" y="200" height="120" width="120" onmousedown="tool('Creature-0.903715135081827')" class="creatureClass"><title>Creature-0.903715135081827</title><desc>movePsyCreat("Creature-0.903715135081827", 1, 1)</desc></image><image xmlns="http://www.w3.org/2000/svg" id="Creature-0.796481354442659" a0:href="creatures/png/bact1.png" xmlns:a0="http://www.w3.org/1999/xlink" opacity="0.45739228488822414" transform="translate(-117.05540236939245, -149) rotate(27.71102431591275 444.03333282470703 319.3583526611328)" x="200" y="200" height="120" width="120" onmousedown="tool('Creature-0.796481354442659')" class="creatureClass"><title>Creature-0.796481354442659</title><desc>movePsyCreat("Creature-0.796481354442659", 1, 1)</desc></image><image xmlns="http://www.w3.org/2000/svg" id="Creature-0.33648310452039076" a0:href="creatures/png/bact1.png" xmlns:a0="http://www.w3.org/1999/xlink" opacity="0.7700860894516649" transform="translate(-272.90023283441815, -149) rotate(-79.23128290428713 155.16666412353516 183.1500015258789)" x="200" y="200" height="120" width="120" onmousedown="tool('Creature-0.33648310452039076')" class="creatureClass"><title>Creature-0.33648310452039076</title><desc>movePsyCreat("Creature-0.33648310452039076", 1, 1)</desc></image><g xmlns="http://www.w3.org/2000/svg" id="Creature-0.9216891249303651" style="fill:#a90610;stroke:#4e9700" stroke-width="0.5513159323443984" opacity="0.7621735268952051" transform="translate(38.77069201177108, 444.45859001671045) rotate(0.021533377301245826 623.2000732421875 350.48333740234375)" onmousedown="tool('Creature-0.9216891249303651')" class="creatureClass"><title>Creature-0.9216891249303651</title><desc>moveLifePathCreatureEvo("Creature-0.9216891249303651", 1, 1)</desc><path id="Creature-0.9216891249303651-part-0" d="M 204.07590031113432, 261.86465113550224 Q 87.33620831471171, 212.05961732881744 374.50075644622416, 0.08481347911956601 T 405.2938736394392, 247.59504569553897, 631.636445260369 224.78454733333635, 634.872888422383 143.42362879123957, 23.041714495008602 200.45641017764538, 134.94614859793072 133.08393761619303 z" stroke-width="1.409180183235903" opacity="0.9626166844188926" class="creaturePartClass"/><path id="Creature-0.9216891249303651-part-1" d="M 497.80175682003824, 62.22621397002609 Q 574.7150696170003, 267.7162742246203 319.1805036398314, 149.1455310358737 T 780.6004618797988, 78.85254609802685, 15.4543090934137 165.54931547753867, 629.0050420738598 99.60840176098188, 759.7530440695571 188.0936644294595, 411.5509444176562 55.27792532529582 z" stroke-width="4.539834195607855" opacity="0.9414622718328594" class="creaturePartClass"/><path id="Creature-0.9216891249303651-part-2" d="M 646.9478249935951, 186.13287129866384 Q 154.60177059906457, 181.0751143083927 778.5778536600253, 251.98935391019882 T 383.1414132426377, 267.7809019971558, 582.3577756644607 180.05640635192475, 524.6197803459506 195.39744274670664, 51.94546813442365 218.8702551447019, 175.79504148362864 151.7567532795517 z" stroke-width="5.33738304233565" opacity="0.8740318693149619" class="creaturePartClass"/><path id="Creature-0.9216891249303651-part-3" d="M 680.7478429237495, 245.4184504401429 Q 178.95571287901888, 148.91817806831847 0.8832813229057713, 5.36232775721157 T 231.51639490796924, 83.43955597767743, 672.7895033065236 191.076057642686, 550.2099026228582 99.50982538741792, 181.65016825034726 13.896301868054454, 724.3316102156332 259.1838259765785 z" stroke-width="5.440954700013685" opacity="0.9694449053726069" class="creaturePartClass"/></g><g xmlns="http://www.w3.org/2000/svg" id="Creature-0.24616888928666392" style="fill:#85d4af;stroke:#2d4b6b" stroke-width="0.226609038477635" opacity="0.5630239488241661" transform="translate(84.06971550850194, 386.1617041313483) rotate(-0.10748615744835956 517.3666687011719 737.4166564941406)" onmousedown="tool('Creature-0.24616888928666392')" class="creatureClass"><title>Creature-0.24616888928666392</title><desc>moveLifePathCreatureEvo("Creature-0.24616888928666392", 1, 1)</desc><path id="Creature-0.24616888928666392-part-0" d="M 113.13571161994601, 18.723561400285373 Q 524.9098115370426, 8.77739832397306 512.0072781261503, 29.99410096578335 T 649.7996968949452, 1.7400739933808955, 536.2200973647484 32.52079200089635, 54.75622695878129 35.404326851314266, 334.9686652656007 11.979649367062851, 229.34254883535476 17.46789990264529 z" stroke-width="2.277641062520408" opacity="0.7779539407422247" class="creaturePartClass"/><path id="Creature-0.24616888928666392-part-1" d="M 361.83164831899364, 22.74826485887769 Q 425.011774067709, 1.4327455469553527 431.2639966486432, 27.144440073964738 T 299.8686408457476, 38.5205141789475, 91.30923641390562 16.682191179420826, 560.8324975480009 7.861908709529721, 160.97675769789234 33.79849114750094, 453.5922498504966 34.63143378979478 z" stroke-width="2.0362821417005983" opacity="0.8778168620495963" class="creaturePartClass"/><path id="Creature-0.24616888928666392-part-2" d="M 93.48262902797218, 32.19614632311719 Q 254.05323960975213, 23.51918075411221 144.44156040524263, 11.532106664390025 T 296.68574061540306, 23.743226612963458, 142.61775265253294 26.781210567392193, 209.48645952308183 35.49471270529821, 505.1691419825344 11.65669722781571, 571.9310673408605 16.580414260882577 z" stroke-width="5.819161948531275" opacity="0.6052020565719783" class="creaturePartClass"/><path id="Creature-0.24616888928666392-part-3" d="M 19.703565358713828, 36.59267164233702 Q 535.7425056917501, 3.4628843062126613 207.02459196445454, 35.100692167892866 T 591.9926629982693, 13.600072468328541, 371.87584492891716 6.065365858002897, 530.7540557411868 15.425188773388554, 25.97312736615036 15.39155666307252, 244.0723961870792 36.18185192999089 z" stroke-width="1.140337509792404" opacity="0.8237166335060109" class="creaturePartClass"/><image id="Creature-0.9180739236893405" a0:href="creatures/png/bact1.png" xmlns:a0="http://www.w3.org/1999/xlink" opacity="0.92934652019809" transform="translate(-284.3858075248312, 174.78290110646657) rotate(-0.20975785230091287 216.7750015258789 844.0666656494141)" x="200" y="200" height="120" width="120" onmousedown="tool('Creature-0.9180739236893405')" class="creatureClass"><title>Creature-0.9180739236893405</title><desc>movePsyCreat("Creature-0.9180739236893405", 1, 1)</desc></image><image id="Creature-0.8565503263819614" a1:href="creatures/png/flower1.png" xmlns:a1="http://www.w3.org/1999/xlink" opacity="0.5367446673478697" transform="translate(195.65772817840633, 63.575134431397345) rotate(0.43565535744315287 392.3416748046875 720.9000015258789)" x="200" y="200" height="120" width="120" onmousedown="tool('Creature-0.8565503263819614')" class="creatureClass"><title>Creature-0.8565503263819614</title><desc>movePsyCreat("Creature-0.8565503263819614", 1, 1)</desc></image></g><image xmlns="http://www.w3.org/2000/svg" id="Creature-0.9180739236893405" a0:href="creatures/png/bact1.png" xmlns:a0="http://www.w3.org/1999/xlink" opacity="0.92934652019809" transform="translate(-284.3858075248312, 174.78290110646657) rotate(-0.20975785230091287 216.7750015258789 844.0666656494141)" x="200" y="200" height="120" width="120" onmousedown="tool('Creature-0.9180739236893405')" class="creatureClass"><title>Creature-0.9180739236893405</title><desc>movePsyCreat("Creature-0.9180739236893405", 1, 1)</desc></image><image xmlns="http://www.w3.org/2000/svg" id="Creature-0.8565503263819614" a0:href="creatures/png/flower1.png" xmlns:a0="http://www.w3.org/1999/xlink" opacity="0.5367446673478697" transform="translate(195.65772817840633, 63.575134431397345) rotate(0.43565535744315287 392.3416748046875 720.9000015258789)" x="200" y="200" height="120" width="120" onmousedown="tool('Creature-0.8565503263819614')" class="creatureClass"><title>Creature-0.8565503263819614</title><desc>movePsyCreat("Creature-0.8565503263819614", 1, 1)</desc></image><path xmlns="http://www.w3.org/2000/svg" id="Creature-0.23115340653922067" d="M 36031.91494158414, 114.54583392557873 Q 113163.31668550312, 62.21602315250417 34448.141490986236, 97.69210672358987 T 263656.76013977797, 323.31868712140147, 144215.88070536676 340.0554800032642, 83079.73982059183 57.13020980927199, 286038.887870992 274.33377412247745, 47116.52200940048 250.7139819611026 z" style="fill:#62fc22;stroke:#4192ce" stroke-width="0.018255201969928553" opacity="0.994032172916082" transform="translate(-171577.84375, -114797.03125) rotate(-0.6135750824829471 -18554.640625 -113887.92236328125)" onmousedown="tool('Creature-0.23115340653922067')" class="creatureClass"><title>Creature-0.23115340653922067</title><desc>moveLifePathCreatureNext("Creature-0.23115340653922067", 1, 1)</desc></path></svg>