<?xml version="1.0" encoding="UTF-8" standalone="no"?>
<!-- Created with LifeFLOW (http://life.worldsowisdom.com/flow/) -->

<svg
   xmlns:osb="http://www.openswatchbook.org/uri/2009/osb"
   xmlns:dc="http://purl.org/dc/elements/1.1/"
   xmlns:cc="http://creativecommons.org/ns#"
   xmlns:rdf="http://www.w3.org/1999/02/22-rdf-syntax-ns#"
   xmlns:svg="http://www.w3.org/2000/svg"
   xmlns="http://www.w3.org/2000/svg"
   xmlns:xlink="http://www.w3.org/1999/xlink"
   xmlns:sodipodi="http://sodipodi.sourceforge.net/DTD/sodipodi-0.dtd"
   xmlns:inkscape="http://www.inkscape.org/namespaces/inkscape"
   width="450"
   height="450"
   viewBox="0 0 450 450"
   id="svg2"
   version="1.1"
   inkscape:version="0.91 r13725"
   sodipodi:docname="newcreatures-plain.svg">
  <defs
     id="defs4">
    <linearGradient
       inkscape:collect="always"
       id="linearGradient6501">
      <stop
         style="stop-color:#0000ff;stop-opacity:1;"
         offset="0"
         id="stop6503" />
      <stop
         style="stop-color:#0000ff;stop-opacity:0;"
         offset="1"
         id="stop6505" />
    </linearGradient>
    <linearGradient
       id="linearGradient6455"
       osb:paint="solid">
      <stop
         style="stop-color:#0000ff;stop-opacity:1;"
         offset="0"
         id="stop6457" />
    </linearGradient>
    <filter
       inkscape:collect="always"
       style="color-interpolation-filters:sRGB"
       id="filter5001"
       x="-0.37912726"
       width="1.7582545"
       y="-0.65848422"
       height="2.3169684">
      <feGaussianBlur
         inkscape:collect="always"
         stdDeviation="6.3692616"
         id="feGaussianBlur5003" />
    </filter>
    <linearGradient
       inkscape:collect="always"
       xlink:href="#linearGradient6501"
       id="linearGradient6507"
       x1="242.51431"
       y1="178.50594"
       x2="313.40628"
       y2="178.50594"
       gradientUnits="userSpaceOnUse"
       gradientTransform="translate(-215.03742,319.7082)" />
  </defs>
  <sodipodi:namedview
     id="base"
     pagecolor="#ffffff"
     bordercolor="#666666"
     borderopacity="1.0"
     inkscape:pageopacity="0.0"
     inkscape:pageshadow="2"
     inkscape:zoom="0.24748738"
     inkscape:cx="463.57331"
     inkscape:cy="265.90363"
     inkscape:document-units="px"
     inkscape:current-layer="layer1"
     showgrid="false"
     inkscape:window-width="1366"
     inkscape:window-height="706"
     inkscape:window-x="-8"
     inkscape:window-y="-8"
     inkscape:window-maximized="1"
     units="px" />
  <metadata
     id="metadata7">
    <rdf:RDF>
      <cc:Work
         rdf:about="">
        <dc:format>image/svg+xml</dc:format>
        <dc:type
           rdf:resource="http://purl.org/dc/dcmitype/StillImage" />
        <dc:title></dc:title>
      </cc:Work>
    </rdf:RDF>
  </metadata>
  <g
     inkscape:label="Layer 1"
     inkscape:groupmode="layer"
     id="layer1"
     transform="translate(0,-364.28567)">
    <path
       sodipodi:type="star"
       style="opacity:0.28999999;fill:#00ffff;stroke:#800080"
       id="path4136eg"
       sodipodi:sides="5"
       sodipodi:cx="149.96248"
       sodipodi:cy="470.92843"
       sodipodi:r1="84.03109"
       sodipodi:r2="42.015545"
       sodipodi:arg1="0.31099828"
       sodipodi:arg2="0.93931681"
       inkscape:flatsided="false"
       inkscape:rounded="0"
       inkscape:randomized="0"
       d="m 229.96248,496.64272 -55.19656,8.19877 -24.53782,50.11762 -24.85417,-49.96149 -55.247286,-7.84966 39.835836,-39.07667 -9.60688,-54.96897 49.47407,25.81078 49.30991,-26.12303 -9.25918,55.0286 z"
       inkscape:transform-center-x="-0.082081267"
       inkscape:transform-center-y="7.9461513" />
    <path
       inkscape:transform-center-y="2.4320959"
       inkscape:transform-center-x="-0.025122895"
       d="m 68.791599,427.6385 -16.894071,2.5094 -7.510317,15.33956 -7.607143,-15.29177 -16.909598,-2.40255 12.192598,-11.96024 -2.940388,-16.82442 15.142583,7.89994 15.092337,-7.99551 -2.833967,16.84267 z"
       inkscape:randomized="0"
       inkscape:rounded="0"
       inkscape:flatsided="false"
       sodipodi:arg2="0.93931681"
       sodipodi:arg1="0.31099828"
       sodipodi:r2="12.859744"
       sodipodi:r1="25.719488"
       sodipodi:cy="419.76809"
       sodipodi:cx="44.305912"
       sodipodi:sides="5"
       id="path4138eg"
       style="opacity:0.28999999;fill:#00ffff;stroke:#800080;stroke-width:0.3060711"
       sodipodi:type="star" />
    <g
       id="BiggoEGbg"
       transform="translate(-109.96232,143.76849)">
      <desc
         id="desc4151">A big creature for LifeFLOW! :)</desc>
      <circle
         r="29.934187"
         cy="259.14496"
         cx="302.39636"
         id="path4137eg"
         style="opacity:0.28999999;fill:#ffff00;stroke:#800080;stroke-width:0.6047619" />
      <circle
         r="7.3308215"
         cy="265.86487"
         cx="307.8945"
         id="path4139eg"
         style="opacity:0.28999999;fill:#ffff00;stroke:#800080;stroke-width:0.6047619" />
      <ellipse
         ry="10.996231"
         rx="3.6654108"
         cy="251.20323"
         cx="292.01105"
         id="path4141eg"
         style="opacity:0.28999999;fill:#0000ff;stroke:#800080;stroke-width:0.6047619" />
      <ellipse
         ry="3.6654108"
         rx="9.7744284"
         cy="253.64687"
         cx="317.66891"
         id="path4143eg"
         style="opacity:0.28999999;fill:#0000ff;stroke:#800080;stroke-width:0.6047619" />
    </g>
    <rect
       style="opacity:0.87000002;fill:url(#linearGradient6507);fill-opacity:1;stroke:#0000ff;stroke-width:0.6047619;stroke-miterlimit:4;stroke-dasharray:none;filter:url(#filter5001)"
       id="MedyEGbg"
       width="40.319515"
       height="23.214266"
       x="42.763119"
       y="486.60684" />
    <g
       id="g6519eg"
       inkscape:label="#MedyEG"
       transform="translate(0,53.355016)">
      <rect
         y="281.74832"
         x="59.868374"
         height="31.766891"
         width="63.533783"
         id="rect6509eg"
         style="opacity:0.87000002;fill:#0000ff;fill-opacity:1;stroke:#0000ff;stroke-width:0.6047619;stroke-miterlimit:4;stroke-dasharray:none" />
      <path
         inkscape:transform-center-y="-0.19571458"
         inkscape:transform-center-x="0.72308977"
         d="m 81.860835,300.07539 -6.160837,-1.4834 -4.714657,4.23419 -0.493011,-6.31769 -5.483865,-3.17547 5.856139,-2.42116 1.325442,-6.19674 4.112304,4.82134 6.303033,-0.65433 -3.314595,5.40091 z"
         inkscape:randomized="0"
         inkscape:rounded="0"
         inkscape:flatsided="false"
         sodipodi:arg2="1.3230568"
         sodipodi:arg1="0.69473828"
         sodipodi:r2="4.7712951"
         sodipodi:r1="9.5425901"
         sodipodi:cy="293.96637"
         sodipodi:cx="74.530014"
         sodipodi:sides="5"
         id="path6511eg"
         style="opacity:0.87000002;fill:#ff8080;fill-opacity:1;stroke:#0000ff;stroke-width:0.6047619;stroke-miterlimit:4;stroke-dasharray:none"
         sodipodi:type="star" />
      <path
         inkscape:transform-center-y="0.22428177"
         inkscape:transform-center-x="0.37755769"
         d="m 108.74051,312.2934 -1.06782,-3.99694 -3.89796,-1.38629 3.47135,-2.25068 0.1139,-4.13556 3.21323,2.60595 3.96835,-1.16963 -1.48546,3.86124 2.33867,3.41269 -4.13129,-0.21956 z"
         inkscape:randomized="0"
         inkscape:rounded="0"
         inkscape:flatsided="false"
         sodipodi:arg2="2.3965104"
         sodipodi:arg1="1.7681919"
         sodipodi:r2="3.115"
         sodipodi:r1="6.23"
         sodipodi:cy="306.18439"
         sodipodi:cx="109.96231"
         sodipodi:sides="5"
         id="path6513eg"
         style="opacity:0.87000002;fill:#ff8080;fill-opacity:1;stroke:#0000ff;stroke-width:0.6047619;stroke-miterlimit:4;stroke-dasharray:none"
         sodipodi:type="star" />
      <path
         inkscape:transform-center-y="-0.16705416"
         inkscape:transform-center-x="0.16705535"
         d="m 92.857067,295.18814 -2.173306,-0.73698 -1.839194,1.3725 0.02933,-2.29468 -1.873674,-1.32505 2.191432,-0.6812 0.6812,-2.19143 1.32505,1.87368 2.294678,-0.0293 -1.372506,1.8392 z"
         inkscape:randomized="0"
         inkscape:rounded="0"
         inkscape:flatsided="false"
         sodipodi:arg2="1.4137167"
         sodipodi:arg1="0.78539816"
         sodipodi:r2="1.727891"
         sodipodi:r1="3.4557824"
         sodipodi:cy="292.74454"
         sodipodi:cx="90.41346"
         sodipodi:sides="5"
         id="path6515eg"
         style="opacity:0.87000002;fill:#ff8080;fill-opacity:1;stroke:#0000ff;stroke-width:0.6047619;stroke-miterlimit:4;stroke-dasharray:none"
         sodipodi:type="star" />
      <path
         inkscape:transform-center-y="-0.1121867"
         inkscape:transform-center-x="-0.63956251"
         d="m 84.736419,309.55335 2.201552,-4.70569 -2.628342,-4.48131 5.155694,0.63966 3.44978,-3.8845 0.984842,5.10102 4.760422,2.08056 -4.547027,2.51294 -0.507677,5.17036 -3.79506,-3.54794 z"
         inkscape:randomized="0"
         inkscape:rounded="0"
         inkscape:flatsided="false"
         sodipodi:arg2="3.0951702"
         sodipodi:arg1="2.4668517"
         sodipodi:r2="3.9116797"
         sodipodi:r1="7.8233595"
         sodipodi:cy="304.66614"
         sodipodi:cx="90.845436"
         sodipodi:sides="5"
         id="path6517eg"
         style="opacity:0.87000002;fill:#ff8080;fill-opacity:1;stroke:#0000ff;stroke-width:0.6047619;stroke-miterlimit:4;stroke-dasharray:none"
         sodipodi:type="star" />
    </g>
    <path
       sodipodi:type="spiral"
       style="fill:#00ffff;fill-rule:evenodd;stroke:#000000;stroke-width:0.6047619px;stroke-linecap:butt;stroke-linejoin:miter;stroke-opacity:1"
       id="eaglynew2"
       sodipodi:cx="73.308212"
       sodipodi:cy="393.74982"
       sodipodi:expansion="1"
       sodipodi:revolution="3"
       sodipodi:radius="41.613129"
       sodipodi:argument="-18.147299"
       sodipodi:t0="0"
       d="m 73.308212,393.74982 c 1.592741,1.3477 -1.030876,2.81189 -2.239973,2.64724 -3.276579,-0.4462 -4.137127,-4.52375 -3.054508,-7.12719 1.936552,-4.65694 7.887895,-5.67954 12.014402,-3.46177 6.055815,3.25466 7.263028,11.296 3.869042,16.90161 -4.52365,7.4714 -14.719492,8.86373 -21.788831,4.27631 -8.896041,-5.77281 -10.473289,-18.15026 -4.683575,-26.67604 7.01212,-10.32587 21.585119,-12.08797 31.563258,-5.09085 11.758893,8.24586 13.705843,25.02253 5.49811,36.45048 -9.476152,13.19401 -28.461631,15.32586 -41.337687,5.90537 -14.630593,-10.70415 -16.947384,-31.90193 -6.312644,-46.2249 11.930572,-16.06821 35.343106,-18.56999 51.112116,-6.71991 17.506588,13.15584 20.193418,38.78494 7.127178,55.99933">
      <desc
         id="desc6528">a new test shape to play with! :)</desc>
    </path>
    <path
       d="m 205.26299,520.81738 c 1.59274,1.34771 -1.03088,2.8119 -2.23998,2.64724 -3.27658,-0.44619 -4.13713,-4.52374 -3.05451,-7.12718 1.93656,-4.65695 7.8879,-5.67955 12.01441,-3.46178 6.05581,3.25466 7.26302,11.296 3.86904,16.90162 -4.52365,7.4714 -14.71949,8.86373 -21.78883,4.27631 -8.89604,-5.77281 -10.47329,-18.15027 -4.68358,-26.67605 7.01212,-10.32586 21.58512,-12.08796 31.56326,-5.09084 11.75889,8.24586 13.70584,25.02252 5.49811,36.45047 -9.47615,13.19402 -28.46163,15.32587 -41.33769,5.90538 -14.63059,-10.70416 -16.94738,-31.90193 -6.31264,-46.2249 11.93057,-16.06821 35.3431,-18.57 51.11211,-6.71991 17.50659,13.15583 20.19342,38.78493 7.12718,55.99933"
       sodipodi:t0="0"
       sodipodi:argument="-18.147299"
       sodipodi:radius="41.613129"
       sodipodi:revolution="3"
       sodipodi:expansion="1"
       sodipodi:cy="520.81738"
       sodipodi:cx="205.26299"
       id="path6530eg"
       style="fill:#800000;fill-rule:evenodd;stroke:#000000;stroke-width:0.6047619px;stroke-linecap:butt;stroke-linejoin:miter;stroke-opacity:1"
       sodipodi:type="spiral">
      <desc
         id="desc6532">a new test shape to play with! :)</desc>
    </path>
  </g>
  <rect
     height="448"
     id="Border"
     style="fill:none;stroke:#800080;stroke-width:0.60342091"
     width="448"
     x="1"
     y="1" />
	 
	 
	 <!-- creatures from original versions! :) -->
	 
			<a style="fill-opacity:0.75" xlink:href="http://life.worldsowisdom.com/flow/"> <rect height="90" id="YellowRect" onmouseout="setAttribute('fill-opacity','0.5')" onmouseover="setAttribute('fill-opacity','1.0')" style="fill:yellow;stroke:#000000" width="90" x="150" y="90"> <desc id="desc3364">A clickable square!</desc>
			<title id="title3362"></title>
			</rect> </a> <a style="fill-opacity:0.75" xlink:href="http://life.worldsowisdom.com/flow/">
			<rect height="90" id="OrangeRect" onmouseout="setAttribute('fill-opacity','0.75')" onmouseover="setAttribute('fill-opacity','1.0')" style="fill:orange;stroke:#000000" width="90" x="60" y="300"> <desc id="desc3364">A clickable square!</desc>
			<title id="title3362"></title>
			</rect> </a>

<path xmlns="http://www.w3.org/2000/svg" sodipodi:type="spiral" xmlns:sodipodi="http://sodipodi.sourceforge.net/DTD/sodipodi-0.dtd" style="fill:#00ffff;fill-rule:evenodd;stroke:#000000;stroke-width:0.6047619px;stroke-linecap:butt;stroke-linejoin:miter;stroke-opacity:1" id="eaglynew" sodipodi:cx="73.308212" sodipodi:cy="393.74982" sodipodi:expansion="1" sodipodi:revolution="3" sodipodi:radius="41.613129" sodipodi:argument="-18.147299" sodipodi:t0="0" d="m 73.308212,393.74982 c 1.592741,1.3477 -1.030876,2.81189 -2.239973,2.64724 -3.276579,-0.4462 -4.137127,-4.52375 -3.054508,-7.12719 1.936552,-4.65694 7.887895,-5.67954 12.014402,-3.46177 6.055815,3.25466 7.263028,11.296 3.869042,16.90161 -4.52365,7.4714 -14.719492,8.86373 -21.788831,4.27631 -8.896041,-5.77281 -10.473289,-18.15026 -4.683575,-26.67604 7.01212,-10.32587 21.585119,-12.08797 31.563258,-5.09085 11.758893,8.24586 13.705843,25.02253 5.49811,36.45048 -9.476152,13.19401 -28.461631,15.32586 -41.337687,5.90537 -14.630593,-10.70415 -16.947384,-31.90193 -6.312644,-46.2249 11.930572,-16.06821 35.343106,-18.56999 51.112116,-6.71991 17.506588,13.15584 20.193418,38.78494 7.127178,55.99933" transform="translate(25, 25 )">
    <desc id="desc36">a new test shape to play with! :)</desc>
  </path><rect xmlns="http://www.w3.org/2000/svg" height="10" id="AvrilNiblet1" onmouseout="setAttribute('fill-opacity','0.5')" onmouseover="setAttribute('fill-opacity','1.0')" style="fill:yellow;stroke:black" width="10" x="225" y="225" transform="translate(25, 25 )">
    <desc id="desc71">Avril's first little niblet! :)</desc>
    <title id="title73"/>
  </rect><path xmlns="http://www.w3.org/2000/svg" fill-opacity="0.43046721000000016" onmousedown="Reverse(PurpleSpiral)" id="PurpleSpiral" d="m 282.09113,269.50729 c 1.52075,1.52076 -1.29967,2.80025 -2.52761,2.52761 -3.32763,-0.73884 -3.86257,-5.00113 -2.5276,-7.58281 2.38796,-4.61803 8.58895,-5.15902 12.63801,-2.5276 5.94217,3.86172 6.4939,12.22544 2.5276,17.69322 -5.28645,7.28768 -15.87921,7.84514 -22.74842,2.52759 -8.6442,-6.69159 -9.20486,-19.54122 -2.5276,-27.80363 8.08706,-10.00688 23.20787,-10.56947 32.85884,-2.52759 11.37333,9.47708 11.93717,26.8774 2.52759,37.91404 -10.86373,12.74223 -30.54887,13.30692 -42.96924,2.52759 -14.11282,-12.24817 -14.67812,-34.22169 -2.52759,-48.02445 13.63105,-15.4846 37.8955,-16.05034 53.07965,-2.52759 16.85728,15.01283 17.42336,41.57006 2.52759,58.13486" inkscape:tile-cx="185.6451" xmlns:inkscape="http://www.inkscape.org/namespaces/inkscape" inkscape:tile-cy="265.9547" inkscape:tile-h="68.00056" inkscape:tile-w="75.106916" inkscape:tile-x0="148.09164" inkscape:tile-y0="231.95443" sodipodi:argument="-18.064157" xmlns:sodipodi="http://sodipodi.sourceforge.net/DTD/sodipodi-0.dtd" sodipodi:cx="182.09113" sodipodi:cy="269.50729" sodipodi:expansion="1" sodipodi:radius="42.894836" sodipodi:revolution="3" sodipodi:t0="0" sodipodi:type="spiral" style="fill:#800080;fill-rule:evenodd;stroke:#000000;stroke-width:0.2081555px;stroke-linecap:butt;stroke-linejoin:miter;stroke-opacity:1" transform="translate(25, 25)"/><image xmlns="http://www.w3.org/2000/svg" id="back3" width="448" height="448" x="1" y="1" xlink:href="creatures/png/back3.png" xmlns:xlink="http://www.w3.org/1999/xlink"/><image xmlns="http://www.w3.org/2000/svg" id="galaxy3" width="294" height="150" x="150" y="100" style="opacity:0.5" onmousedown="tool(eg_newy)" xlink:href="creatures/png/galaxy3.png" xmlns:xlink="http://www.w3.org/1999/xlink" transform="translate(25, 25 )"/><image xmlns="http://www.w3.org/2000/svg" id="galaxy4" width="306" height="150" x="50" y="250" style="opacity:0.25" onmousedown="tool(eg_newy2)" xlink:href="creatures/png/galaxy4.png" xmlns:xlink="http://www.w3.org/1999/xlink" transform="translate(25, 12.5 )"/><image xmlns="http://www.w3.org/2000/svg" id="planet3" width="157" height="150" x="100" y="250" style="opacity:0.5" onmousedown="tool(eg_niblet)" xlink:href="creatures/png/planet3.png" xmlns:xlink="http://www.w3.org/1999/xlink" transform="translate(25, 0.0 )"/><image xmlns="http://www.w3.org/2000/svg" id="planet4" width="150" height="150" x="300" y="150" style="opacity:0.9" onmousedown="tool(eg_medy)" xlink:href="creatures/png/planet4.png" xmlns:xlink="http://www.w3.org/1999/xlink" transform="translate(25, 0.0 )"/><image xmlns="http://www.w3.org/2000/svg" id="satellite3" width="79" height="150" x="200" y="250" onmousedown="tool(satellite3)" xlink:href="creatures/png/satellite3.png" xmlns:xlink="http://www.w3.org/1999/xlink" transform="translate(25, 25 )"/><image xmlns="http://www.w3.org/2000/svg" id="satellite4" width="109" height="75" x="50" y="50" onmousedown="tool(satellite4)" xlink:href="creatures/png/satellite4.png" xmlns:xlink="http://www.w3.org/1999/xlink" transform="translate(25, 25 )"/><image xmlns="http://www.w3.org/2000/svg" id="mediumcreature3" width="38" height="50" x="300" y="175" onmousedown="tool(the_rect)" xlink:href="creatures/png/mediumcreature3.png" xmlns:xlink="http://www.w3.org/1999/xlink" transform="translate( 0.0 , 25 )"/><image xmlns="http://www.w3.org/2000/svg" id="niblet3" width="21" height="32" x="400" y="350" onmousedown="tool(pink_rect)" xlink:href="creatures/png/niblet3.png" xmlns:xlink="http://www.w3.org/1999/xlink" transform="translate( 0.0 , 25 )"/><image xmlns="http://www.w3.org/2000/svg" id="bigbeauty3" width="92" height="110" x="100" y="150" onmousedown="tool(eg_biggo)" xlink:href="creatures/png/bigbeauty3.png" xmlns:xlink="http://www.w3.org/1999/xlink" transform="translate(25, 0.0 )"/><g xmlns="http://www.w3.org/2000/svg" id="Creature-0.9577066003855992" style="fill:#d58c77;stroke:#9f1b8b" stroke-width="0.545766752948475" opacity="0.913320369991482" transform="translate(198.73068358490136, 273.25673771598576) rotate(0.2699526964429175 3399.658203125 334.84166717529297)" onmousedown="tool('Creature-0.9577066003855992')" class="creatureClass"><title>Creature-0.9577066003855992</title><desc>moveLifePathCreatureEvo3("Creature-0.9577066003855992", 0.7, 1.2)</desc><path id="Creature-0.9577066003855992-part-0" d="M 3037.7801036782807, 57.72170118022713 Q 4565.3455526060025, 1.8768758533377896 724.6268774430484, 20.41584791079233 T 1553.4614007187406, 66.42619714381517, 5250.2839544897715 19.675645567454136, 4688.29963495234 63.25127251187192, 3710.497803659069 44.15022376229708, 5166.266126199595 56.60503958338969 z" stroke-width="0.1558895173373057" opacity="0.8129913465080421" class="creaturePartClass"/><path id="Creature-0.9577066003855992-part-1" d="M 4394.927485416165, 53.62753882648137 Q 2156.5782233923064, 35.577123765580914 5122.26203613558, 35.50823054117829 T 3031.9158303444224, 55.83442632502479, 1763.0566511104912 32.01555580685296, 1029.0846432905437 25.639456820041506, 3984.3795042827837 52.842328008007094, 666.9984508770268 36.282893550800736 z" stroke-width="0.012513209311998206" opacity="0.8831654537355668" class="creaturePartClass"/><path id="Creature-0.9577066003855992-part-2" d="M 3632.5091898894857, 31.044707745786653 Q 3221.890535440726, 26.09892689656982 2479.6621075797766, 6.136202936185378 T 5280.015943984352, 58.63312258271996, 783.8431242569014 12.31347295877509, 1572.589756769883 3.261134016429903, 1073.6752872294696 18.717472955812624, 5207.069598651317 19.001559354734404 z" stroke-width="0.46816275115400713" opacity="0.9917501673761973" class="creaturePartClass"/><path id="Creature-0.9577066003855992-part-3" d="M 2471.548155054546, 19.57002084491539 Q 4121.74422280234, 8.702182376913948 3462.633222667137, 34.17459592625091 T 4869.311704786905, 62.501777726654915, 2453.2204011868216 19.356672433788034, 5316.5331077571955 61.91045632288138, 5110.497989263089 6.574588637227265, 4936.717542477282 62.77132394957941 z" stroke-width="0.2395092705149281" opacity="0.20846063161401263" class="creaturePartClass"/></g><g xmlns="http://www.w3.org/2000/svg" id="Creature-0.19217368269724378" style="fill:#6ec870;stroke:#85a1" stroke-width="3.7950349354100763" opacity="0.9308308421105717" transform="translate(6.395507140012613, 448.6184542077792) rotate(-0.005716319190734016 376.26666259765625 644.7416534423828)" onmousedown="tool('Creature-0.19217368269724378')" class="creatureClass"><title>Creature-0.19217368269724378</title><desc>moveLifePathCreatureEvo3("Creature-0.19217368269724378", 0.7, 1.2)</desc><path id="Creature-0.19217368269724378-part-0" d="M 520.6704291158052, 27.046860199541907 Q 188.38538145600546, 298.83145333170563 216.1672952447232, 89.55663990799205 T 453.02235133946647, 77.38707675264352, 440.9810823401909 76.83307802644316, 182.0309255634062 328.9371623755678, 254.01952859748087 138.9459546640171, 114.91079413926748 205.3250806460006 z" stroke-width="3.109189095462948" opacity="0.6480186426034127" class="creaturePartClass"/><path id="Creature-0.19217368269724378-part-1" d="M 45.98795157573562, 246.48572097745438 Q 131.43992568522745, 97.3289993754983 32.6612286059905, 314.14000094231864 T 42.25352218127688, 79.30979058881107, 168.73721801317058 283.16383350077393, 421.3394500759811 173.333438024669, 570.0629746859278 178.6888507430684, 579.0216277919817 242.1686991238834 z" stroke-width="1.9866068216436232" opacity="0.8040922875680198" class="creaturePartClass"/><path id="Creature-0.19217368269724378-part-2" d="M 355.70178579289274, 97.1762296539456 Q 562.1989644504407, 162.82274553956768 370.6247612254035, 25.683668765730275 T 39.543227711493074, 34.41573862522559, 536.8376352837588 352.7233760191491, 369.73535402098776 157.88714398423915, 30.02602245199402 11.503362574186495, 63.9436498589638 200.32788984241958 z" stroke-width="8.176260792980523" opacity="0.5864437913737245" class="creaturePartClass"/><path id="Creature-0.19217368269724378-part-3" d="M 59.380408383936214, 250.29260654073087 Q 196.72600833985177, 95.98756805745022 271.7852111785529, 90.14433237898409 T 168.82543401138207, 13.401610594973974, 3.613940646773346 352.2329299132975, 304.97018951670515 312.09765905519737, 372.03942661220543 231.3549786581996, 94.09458321711041 216.12073272143107 z" stroke-width="0.36454494076973404" opacity="0.792558569769755" class="creaturePartClass"/></g><g xmlns="http://www.w3.org/2000/svg" id="Creature-0.20717348720450812" style="fill:#acc2ba;stroke:#5a2bc2" stroke-width="311.11460835903426" opacity="0.9907881091729356" transform="translate(237.29485142415558, 232.77244452216274) rotate(0.11647816914856508 441.1083221435547 1482.13330078125)" onmousedown="tool('Creature-0.20717348720450812')" class="creatureClass"><title>Creature-0.20717348720450812</title><desc>moveLifePathCreatureEvo3("Creature-0.20717348720450812", 0.7, 1.2)</desc><path id="Creature-0.20717348720450812-part-0" d="M 55.059468435891525, 1320.1594762694854 Q 85.56626122548924, 850.365970123342 75.67029919733682, 1627.8537605293436 T 97.79835111641873, 1840.9435041323704, 73.66766356068527 944.0819589588359, 132.9300331877357 1499.1012229343312, 112.91888784901536 1757.4740085577089, 18.59009397138856 1191.343551634335 z" stroke-width="136.00357088147842" opacity="0.7267450441082753" class="creaturePartClass"/><path id="Creature-0.20717348720450812-part-1" d="M 45.45622109796387, 430.0796222645339 Q 1.688047591101022, 962.7309646437196 67.2304256284083, 1078.3659403326037 T 36.47186372189464, 1574.171714269706, 71.03215042151315 286.60973411397464, 59.01190639446774 1390.3914974338334, 118.34120357719418 1263.918378644982, 36.3990353225582 42.201642740058745 z" stroke-width="135.23507258179714" opacity="0.7345589995450721" class="creaturePartClass"/><path id="Creature-0.20717348720450812-part-2" d="M 72.5440310648552, 1440.7332747350904 Q 97.03343398607295, 925.2090585114537 39.029730369511945, 1070.356899393534 T 91.67012968697784, 158.1651778710878, 74.61633783044208 525.8618988579547, 20.02116922867372 1132.2436382963708, 82.55869763258202 1734.1406937348468, 37.431751085898775 1136.750812330948 z" stroke-width="58.501776268598654" opacity="0.6898972989358163" class="creaturePartClass"/><path id="Creature-0.20717348720450812-part-3" d="M 116.39796343833842, 1550.6882663655422 Q 89.06308879723196, 523.1925270952295 89.0047068584299, 231.435331638226 T 35.53185200655591, 637.9738235712947, 12.541495823368376 1054.4739766227945, 96.77644407337898 886.8897093377865, 128.09751214515757 747.0551379480709, 78.16513126485121 582.9612904107979 z" stroke-width="148.99400220626032" opacity="0.9712002435463888" class="creaturePartClass"/></g><image xmlns="http://www.w3.org/2000/svg" id="Creature-0.18628942785362856" a0:href="creatures/png/CIRC1.png" xmlns:a0="http://www.w3.org/1999/xlink" opacity="0.5054795923476829" transform="translate(-204.10452927400104, 105.92562927944732) rotate(0.17066652300258334 218.33333587646484 682.7083206176758)" x="200" y="200" height="120" width="120" onmousedown="tool('Creature-0.18628942785362856')" class="creatureClass"><title>Creature-0.18628942785362856</title><desc>movePsyCreat("Creature-0.18628942785362856", 1, 1)</desc></image><g xmlns="http://www.w3.org/2000/svg" id="Creature-0.9987243401828068" style="fill:#d09d1;stroke:#44597d" stroke-width="3.3498579003248787" opacity="0.8950904589861438" transform="translate(0.6632206380280619, 31.199590670135876) rotate(0.001825697696513277 12.983329772949219 76.59166717529297)" onmousedown="tool('Creature-0.9987243401828068')" class="creatureClass"><title>Creature-0.9987243401828068</title><desc>moveLifePathCreatureEvo3("Creature-0.9987243401828068", 0.7, 1.2)</desc><path id="Creature-0.9987243401828068-part-0" d="M 0.20851052516625349, 1.5892297299940379 Q 0.3786835706902137, 3.055049278203375 0.35415304599616126, 2.421454199105103 T 0.1673156935445073, 5.1675952743479145, 0.021520105656992146 1.5095374184161006, 0.07523956717065311 0.32785844076608195, 0.031732246886834896 4.912611131197898, 0.217791379696309 5.232669657533456 z" stroke-width="0.4051826371462211" opacity="0.7886603433906236" class="creaturePartClass"/><path id="Creature-0.9987243401828068-part-1" d="M 0.3631685406965692, 1.1023987309202474 Q 0.03588611749684769, 3.0318925080932715 0.2988729352410768, 6.362405439565264 T 0.025626602376696426, 3.729967294505744, 0.008239941382786173 4.427768522593484, 0.296763245049916 3.681554051819203, 0.3257136734651485 3.2712185900694633, 0.1549489286978539 3.5759722928150954 z" stroke-width="1.9226387428617302" opacity="0.9786128788758395" class="creaturePartClass"/><path id="Creature-0.9987243401828068-part-2" d="M 0.3238370140469123, 3.975579231633606 Q 0.09840048935278724, 1.7135955168515575 0.10213262708499528, 3.276308163111075 T 0.12386059966044606, 2.265115338952907, 0.11319675524779169 5.76345907218352, 0.34524126535107225 2.6703740403273812, 0.051615866261609446 0.002121490341553399, 0.22897059017044985 1.736790263840121 z" stroke-width="3.0821325860826017" opacity="0.6479632893656005" class="creaturePartClass"/><path id="Creature-0.9987243401828068-part-3" d="M 0.04743070914861065, 5.022329423670038 Q 0.08615012188462812, 0.19855834486093946 0.03799665406018328, 2.008740885465258 T 0.1782611627532639, 2.937317943524437, 0.06839375133385252 5.119431853124139, 0.134178372168339 5.393036654966864, 0.3236536587216619 0.27297795300928285, 0.14430929514059682 1.4060593430648265 z" stroke-width="2.334001098969405" opacity="0.2857880188937967" class="creaturePartClass"/></g><g xmlns="http://www.w3.org/2000/svg" id="Creature-0.7588233630820439" style="fill:#c7a8a0;stroke:#ab672f" stroke-width="40.47773529039395" opacity="0.9906603616049877" transform="translate(142.31215938852574, 167.78430091164245) rotate(0.08014919338282574 151.94166564941406 215.25)" onmousedown="tool('Creature-0.7588233630820439')" class="creatureClass"><title>Creature-0.7588233630820439</title><desc>moveLifePathCreatureEvo3("Creature-0.7588233630820439", 0.7, 1.2)</desc><path id="Creature-0.7588233630820439-part-0" d="M 1.7750581561256753, 4.7762046935190705 Q 2.899582225145711, 6.437051317148729 3.5709103404186076, 0.6402632537260176 T 3.9689208775169917, 4.437717180954769, 3.2117148262783273 2.5741424962080437, 2.8432874927709677 2.6531851646271303, 4.197209367022246 3.3066659551367703, 1.52062272958481 4.067361088009838 z" stroke-width="12.685487166145546" opacity="0.9950218777749663" class="creaturePartClass"/><path id="Creature-0.7588233630820439-part-1" d="M 0.7168503181443434, 2.0739779218850463 Q 2.1057905435699182, 0.7418158172671784 3.7141478371016348, 5.662507331717338 T 1.256977332463322, 5.7697457908451915, 3.7432738488116444 6.203819556753464, 0.2750515269421342 6.701683055881879, 0.046104631594488105 3.367456202761403, 0.5481966002898373 2.2377194932096223 z" stroke-width="11.962159436228117" opacity="0.8582269480042372" class="creaturePartClass"/><path id="Creature-0.7588233630820439-part-2" d="M 0.3381948568363027, 0.40384241356638706 Q 0.6530401625237077, 5.565817597296456 1.7262474448927443, 5.466935234065829 T 2.535365516589779, 6.943120324166287, 3.716841934283899 2.90144820838767, 3.611991428059355 7.53470355327639, 1.0914036287117348 7.642539422351121, 1.1317083074474317 4.231520009684456 z" stroke-width="73.40850043805376" opacity="0.5022752943325899" class="creaturePartClass"/><path id="Creature-0.7588233630820439-part-3" d="M 1.376205237792878, 7.0069102826363405 Q 2.0528185836944712, 1.3786046415931732 1.8862035869008598, 2.6596886060779723 T 1.4439034688801577, 2.020670922219317, 4.47828008864334 7.662784722971372, 4.470293083830853 3.022449802417976, 3.0026828464659974 1.3358696778449137, 3.5022781290941456 7.616083235449398 z" stroke-width="43.230567772349" opacity="0.7652511183339937" class="creaturePartClass"/></g><g xmlns="http://www.w3.org/2000/svg" id="Creature-0.269266450131467" style="fill:#a0de6b;stroke:#f62f8b" stroke-width="25.192736570488606" opacity="0.7301521719711705" transform="translate(91.02697409456736, 85.9809161631344) rotate(0.26162607190512244 102.09166717529297 134.30833435058594)" onmousedown="tool('Creature-0.269266450131467')" class="creatureClass"><title>Creature-0.269266450131467</title><desc>moveLifePathCreatureEvo3("Creature-0.269266450131467", 0.7, 1.2)</desc><path id="Creature-0.269266450131467-part-0" d="M 1.8336265095682542, 2.262804347875336 Q 5.113357476030957, 1.5579691877713204 0.08428180458911444, 3.5282925173553124 T 2.094672910967955, 6.649755370251226, 0.0815491086116375 2.688899341007258, 2.041881869923037 7.507553310248436, 4.792274895518236 3.3899201546534474, 0.5065578367740923 4.77664582607788 z" stroke-width="0.1361314494519876" opacity="0.9704916850617448" class="creaturePartClass"/><path id="Creature-0.269266450131467-part-1" d="M 1.8261966970249506, 1.9208781258738057 Q 2.4881214592530365, 0.024983571361040614 4.1630459429721025, 0.725526423558156 T 0.2978264790066673, 4.296303002751451, 2.0112683866074526 2.8822838959408457, 2.035777083092539 4.807971964625729, 2.4646172292664046 4.119155064512672, 1.1548776556164773 5.232471676569375 z" stroke-width="9.156230882623028" opacity="0.5696238902215707" class="creaturePartClass"/><path id="Creature-0.269266450131467-part-2" d="M 3.829566732805597, 2.7272493650181273 Q 1.0366147411296227, 4.510664066698807 3.6340668499754294, 6.462727578264463 T 1.0456823001596223, 2.1388040528154146, 4.0497993336841835 5.418035672151996, 0.6580600300009968 1.997455760881916, 1.7662532665403694 4.948294399494292, 0.8766722852627465 0.34066289382843074 z" stroke-width="4.202465890704509" opacity="0.5633146672514343" class="creaturePartClass"/><path id="Creature-0.269266450131467-part-3" d="M 4.729544941543697, 0.4662849922895821 Q 1.7936375135771039, 4.363996723560589 0.22612163186781456, 7.865723278698146 T 0.40869449076807185, 1.1728245000547446, 4.892963812988905 4.716257721151153, 3.2424378508756417 2.540933928066135, 1.303094787384833 6.515893973906528, 4.053534389478755 5.13187284785397 z" stroke-width="1.45645814885656" opacity="0.9513440607943594" class="creaturePartClass"/></g><g xmlns="http://www.w3.org/2000/svg" id="Creature-0.12200866039619063" style="fill:#4e47ae;stroke:#4c339b" stroke-width="0.7852435146807535" opacity="0.9001195662333746" transform="translate(44.75862426227449, 5.167105165677884) rotate(2.9570693771105776 59.025001525878906 42.14166259765625)" onmousedown="tool('Creature-0.12200866039619063')" class="creatureClass"><title>Creature-0.12200866039619063</title><desc>moveLifePathCreatureEvo3("Creature-0.12200866039619063", 0.7, 1.2)</desc><path id="Creature-0.12200866039619063-part-0" d="M 1.2248230841760417, 1.2129844396688865 Q 0.010220135905167915, 1.1008902869491417 0.24033580879126148, 1.1271141067824497 T 1.4034515821670097, 1.1835902086072518, 1.5814368125125322 1.1338782062447008, 0.15391220030928676 0.15044444630063278, 0.9739197012813213 0.6532483178505534, 1.322742996920295 0.33708250928748074 z" stroke-width="0.40401957916697184" opacity="0.9444846992720081" class="creaturePartClass"/><path id="Creature-0.12200866039619063-part-1" d="M 0.027009408278180224, 0.5154481061179157 Q 0.49729198864771024, 0.6489492400551884 1.111887428148313, 1.0621897881950633 T 0.7752331670267711, 0.7735044888878381, 0.7164212381648523 0.05434196159790608, 0.9005828341077304 1.049791018931031, 0.44001679354396983 0.705424342864484, 1.6885241099565762 0.11072304022094119 z" stroke-width="0.16290420352990853" opacity="0.5993843716296029" class="creaturePartClass"/><path id="Creature-0.12200866039619063-part-2" d="M 0.6746984435530718, 0.8744261814475993 Q 0.18330338291177192, 0.023110099388545306 0.9158680040634849, 1.1486661632084936 T 1.1298288237382055, 0.43520112848617076, 1.3656996936557935 1.066433595782811, 0.8477343088834062 0.15779536264938376, 1.5249384611477736 0.23685765663896438, 0.8561773346367622 0.66005468578562 z" stroke-width="0.7644004566315521" opacity="0.9542929855291107" class="creaturePartClass"/><path id="Creature-0.12200866039619063-part-3" d="M 1.593765112306864, 1.2183052590227683 Q 1.1364151951325983, 0.348250689880923 1.3591449612556246, 0.45524822544344956 T 0.8927654856267971, 1.1540354085578508, 0.055843424682311765 0.6468567770958672, 1.6310512473862815 0.6609407971548226, 1.4828209002852983 0.08718459299934812, 1.196639311021419 1.1836301973526213 z" stroke-width="0.18275982993018552" opacity="0.723931318129683" class="creaturePartClass"/></g><g xmlns="http://www.w3.org/2000/svg" id="Creature-0.9656414524403341" style="fill:#de63f9;stroke:#ff67c3" stroke-width="13.513866405337188" opacity="0.866385742791423" transform="translate(154.38297165429415, 351.4004135140952) rotate(-0.09418512716671731 164.6750030517578 396.50831604003906)" onmousedown="tool('Creature-0.9656414524403341')" class="creatureClass"><title>Creature-0.9656414524403341</title><desc>moveLifePathCreatureEvo3("Creature-0.9656414524403341", 0.7, 1.2)</desc><path id="Creature-0.9656414524403341-part-0" d="M 0.782303036844104, 0.13778890846844688 Q 0.02478447963216134, 0.08476292842274083 0.10829294384116595, 0.9994152740725293 T 0.9131276757621201, 0.9734588958327077, 0.42446194534033477 0.5384815259467258, 0.847435750857248 0.1877073761370946, 0.42915020497836803 1.0248752016140237, 0.4659642644808327 1.1547561979599312 z" stroke-width="4.219965550781312" opacity="0.9753448059418419" class="creaturePartClass"/><path id="Creature-0.9656414524403341-part-1" d="M 0.6465781601583117, 0.41959150304097037 Q 0.8770516480631193, 0.07501848728367737 0.3874038601924077, 0.21938001133278479 T 0.6769840231737841, 1.178889667066581, 0.9405030833494818 0.5162002728450396, 0.7171623238692021 1.2078373410086016, 0.4614423807386306 1.0573813948528432, 0.1734785183804975 1.1609834741722453 z" stroke-width="2.6563119781283295" opacity="0.48426071166519324" class="creaturePartClass"/><path id="Creature-0.9656414524403341-part-2" d="M 0.052657594508732516, 0.19348445260019603 Q 0.2995802124288014, 0.37342520803820195 0.15445585879619442, 0.00018043433852715551 T 0.2060433046690416, 0.09418444202734214, 0.7761604315441237 0.8226501926324621, 0.19950163721172826 1.14247700935265, 0.759757483823483 0.01595942191415974, 0.2782863696416731 0.7681535175677808 z" stroke-width="8.785513834220742" opacity="0.7749922256519792" class="creaturePartClass"/><path id="Creature-0.9656414524403341-part-3" d="M 0.17933881869428286, 0.323385809893549 Q 0.14385327061717135, 0.17127685603583503 0.4396896493063293, 0.07477931282303163 T 0.3211799549250313, 0.5677675117256347, 0.5551620658620292 0.5888902997470064, 0.07408282009259252 1.199127894592404, 0.9323152770894075 0.33771192424999447, 0.6973906647424665 0.5740361471649562 z" stroke-width="5.776690514593184" opacity="0.8367565746355022" class="creaturePartClass"/></g><g xmlns="http://www.w3.org/2000/svg" id="Creature-0.13458110448777316" style="fill:#62c330;stroke:#30e4b2" stroke-width="0.8213071096750393" opacity="0.6043128480102475" transform="translate(258.70746524270595, 414.2401888948322) rotate(-0.13325618047770316 303.77501678466797 -12.333335876464844)" onmousedown="tool('Creature-0.13458110448777316')" class="creatureClass"><title>Creature-0.13458110448777316</title><desc>moveLifePathCreatureEvo3("Creature-0.13458110448777316", 0.7, 1.2)</desc><path id="Creature-0.13458110448777316-part-0" d="M 2.5710572764849693, 0.19314999422708504 Q 0.5830189213001342, 0.6377506714066535 2.3089058211595135, 0.7536292709694227 T 1.8513163893287257, 0.7161065918281032, 1.4831365237557999 0.09620043931519957, 0.5903924810831693 0.8007308139515013, 2.3635687869565327 0.7416856630599715, 1.132202063955417 0.40017030738154463 z" stroke-width="1.677941272926965" opacity="0.9042934619775167" class="creaturePartClass"/><path id="Creature-0.13458110448777316-part-1" d="M 2.3086516203100045, 0.3498010338013444 Q 1.5528938535648609, 0.4469332262687699 0.0939098307355843, 0.35355423791887314 T 1.815647848863932, 0.5597937828552074, 0.018495995572657804 0.2769886559080812, 1.3942204372329066 0.023377445493961785, 0.022666723382987777 0.711940868338173, 0.4173662024951767 0.4018361369878063 z" stroke-width="1.4870782620709317" opacity="0.7603635025994105" class="creaturePartClass"/><path id="Creature-0.13458110448777316-part-2" d="M 1.7536097164184006, 0.05045986588842809 Q 2.5162029353074202, 0.17434651688096642 1.4827055835084844, 0.7994645763741073 T 2.6753530246156156, 0.8460889936732479, 1.7891461403448865 0.84472527501715, 0.8517821947136038 0.17146113258212958, 2.073062211835979 0.12623738432923368, 1.2020582857581887 0.1498566226554004 z" stroke-width="5.417822783040076" opacity="0.6656214425027904" class="creaturePartClass"/><path id="Creature-0.13458110448777316-part-3" d="M 0.48871364554474545, 0.31030401017378817 Q 2.2763717671496058, 0.4290872482455097 0.6710835898402594, 0.15694664517003445 T 1.3641746760840077, 0.7006542953326509, 1.535123387329581 0.7917050780397694, 1.8037943004801176 0.049350592465489444, 2.2290204983044926 0.5637352804916226, 0.6698148140352647 0.27210506551697095 z" stroke-width="1.7378551526986215" opacity="0.5689714539024029" class="creaturePartClass"/></g></svg>