<?xml version="1.0" encoding="UTF-8" standalone="no"?>
<!-- Created with LifeFLOW (http://life.worldsowisdom.com/flow/) -->

<svg
   xmlns:osb="http://www.openswatchbook.org/uri/2009/osb"
   xmlns:dc="http://purl.org/dc/elements/1.1/"
   xmlns:cc="http://creativecommons.org/ns#"
   xmlns:rdf="http://www.w3.org/1999/02/22-rdf-syntax-ns#"
   xmlns:svg="http://www.w3.org/2000/svg"
   xmlns="http://www.w3.org/2000/svg"
   xmlns:xlink="http://www.w3.org/1999/xlink"
   xmlns:sodipodi="http://sodipodi.sourceforge.net/DTD/sodipodi-0.dtd"
   xmlns:inkscape="http://www.inkscape.org/namespaces/inkscape"
   width="450"
   height="450"
   viewBox="0 0 450 450"
   id="svg2"
   version="1.1"
   inkscape:version="0.91 r13725"
   sodipodi:docname="newcreatures-plain.svg">
  <defs
     id="defs4">
    <linearGradient
       inkscape:collect="always"
       id="linearGradient6501">
      <stop
         style="stop-color:#0000ff;stop-opacity:1;"
         offset="0"
         id="stop6503" />
      <stop
         style="stop-color:#0000ff;stop-opacity:0;"
         offset="1"
         id="stop6505" />
    </linearGradient>
    <linearGradient
       id="linearGradient6455"
       osb:paint="solid">
      <stop
         style="stop-color:#0000ff;stop-opacity:1;"
         offset="0"
         id="stop6457" />
    </linearGradient>
    <filter
       inkscape:collect="always"
       style="color-interpolation-filters:sRGB"
       id="filter5001"
       x="-0.37912726"
       width="1.7582545"
       y="-0.65848422"
       height="2.3169684">
      <feGaussianBlur
         inkscape:collect="always"
         stdDeviation="6.3692616"
         id="feGaussianBlur5003" />
    </filter>
    <linearGradient
       inkscape:collect="always"
       xlink:href="#linearGradient6501"
       id="linearGradient6507"
       x1="242.51431"
       y1="178.50594"
       x2="313.40628"
       y2="178.50594"
       gradientUnits="userSpaceOnUse"
       gradientTransform="translate(-215.03742,319.7082)" />
  </defs>
  <sodipodi:namedview
     id="base"
     pagecolor="#ffffff"
     bordercolor="#666666"
     borderopacity="1.0"
     inkscape:pageopacity="0.0"
     inkscape:pageshadow="2"
     inkscape:zoom="0.24748738"
     inkscape:cx="463.57331"
     inkscape:cy="265.90363"
     inkscape:document-units="px"
     inkscape:current-layer="layer1"
     showgrid="false"
     inkscape:window-width="1366"
     inkscape:window-height="706"
     inkscape:window-x="-8"
     inkscape:window-y="-8"
     inkscape:window-maximized="1"
     units="px" />
  <metadata
     id="metadata7">
    <rdf:RDF>
      <cc:Work
         rdf:about="">
        <dc:format>image/svg+xml</dc:format>
        <dc:type
           rdf:resource="http://purl.org/dc/dcmitype/StillImage" />
        <dc:title></dc:title>
      </cc:Work>
    </rdf:RDF>
  </metadata>
  <g
     inkscape:label="Layer 1"
     inkscape:groupmode="layer"
     id="layer1"
     transform="translate(0,-364.28567)">
    <path
       sodipodi:type="star"
       style="opacity:0.28999999;fill:#00ffff;stroke:#800080"
       id="path4136eg"
       sodipodi:sides="5"
       sodipodi:cx="149.96248"
       sodipodi:cy="470.92843"
       sodipodi:r1="84.03109"
       sodipodi:r2="42.015545"
       sodipodi:arg1="0.31099828"
       sodipodi:arg2="0.93931681"
       inkscape:flatsided="false"
       inkscape:rounded="0"
       inkscape:randomized="0"
       d="m 229.96248,496.64272 -55.19656,8.19877 -24.53782,50.11762 -24.85417,-49.96149 -55.247286,-7.84966 39.835836,-39.07667 -9.60688,-54.96897 49.47407,25.81078 49.30991,-26.12303 -9.25918,55.0286 z"
       inkscape:transform-center-x="-0.082081267"
       inkscape:transform-center-y="7.9461513" />
    <path
       inkscape:transform-center-y="2.4320959"
       inkscape:transform-center-x="-0.025122895"
       d="m 68.791599,427.6385 -16.894071,2.5094 -7.510317,15.33956 -7.607143,-15.29177 -16.909598,-2.40255 12.192598,-11.96024 -2.940388,-16.82442 15.142583,7.89994 15.092337,-7.99551 -2.833967,16.84267 z"
       inkscape:randomized="0"
       inkscape:rounded="0"
       inkscape:flatsided="false"
       sodipodi:arg2="0.93931681"
       sodipodi:arg1="0.31099828"
       sodipodi:r2="12.859744"
       sodipodi:r1="25.719488"
       sodipodi:cy="419.76809"
       sodipodi:cx="44.305912"
       sodipodi:sides="5"
       id="path4138eg"
       style="opacity:0.28999999;fill:#00ffff;stroke:#800080;stroke-width:0.3060711"
       sodipodi:type="star" />
    <g
       id="BiggoEGbg"
       transform="translate(-109.96232,143.76849)">
      <desc
         id="desc4151">A big creature for LifeFLOW! :)</desc>
      <circle
         r="29.934187"
         cy="259.14496"
         cx="302.39636"
         id="path4137eg"
         style="opacity:0.28999999;fill:#ffff00;stroke:#800080;stroke-width:0.6047619" />
      <circle
         r="7.3308215"
         cy="265.86487"
         cx="307.8945"
         id="path4139eg"
         style="opacity:0.28999999;fill:#ffff00;stroke:#800080;stroke-width:0.6047619" />
      <ellipse
         ry="10.996231"
         rx="3.6654108"
         cy="251.20323"
         cx="292.01105"
         id="path4141eg"
         style="opacity:0.28999999;fill:#0000ff;stroke:#800080;stroke-width:0.6047619" />
      <ellipse
         ry="3.6654108"
         rx="9.7744284"
         cy="253.64687"
         cx="317.66891"
         id="path4143eg"
         style="opacity:0.28999999;fill:#0000ff;stroke:#800080;stroke-width:0.6047619" />
    </g>
    <rect
       style="opacity:0.87000002;fill:url(#linearGradient6507);fill-opacity:1;stroke:#0000ff;stroke-width:0.6047619;stroke-miterlimit:4;stroke-dasharray:none;filter:url(#filter5001)"
       id="MedyEGbg"
       width="40.319515"
       height="23.214266"
       x="42.763119"
       y="486.60684" />
    <g
       id="g6519eg"
       inkscape:label="#MedyEG"
       transform="translate(0,53.355016)">
      <rect
         y="281.74832"
         x="59.868374"
         height="31.766891"
         width="63.533783"
         id="rect6509eg"
         style="opacity:0.87000002;fill:#0000ff;fill-opacity:1;stroke:#0000ff;stroke-width:0.6047619;stroke-miterlimit:4;stroke-dasharray:none" />
      <path
         inkscape:transform-center-y="-0.19571458"
         inkscape:transform-center-x="0.72308977"
         d="m 81.860835,300.07539 -6.160837,-1.4834 -4.714657,4.23419 -0.493011,-6.31769 -5.483865,-3.17547 5.856139,-2.42116 1.325442,-6.19674 4.112304,4.82134 6.303033,-0.65433 -3.314595,5.40091 z"
         inkscape:randomized="0"
         inkscape:rounded="0"
         inkscape:flatsided="false"
         sodipodi:arg2="1.3230568"
         sodipodi:arg1="0.69473828"
         sodipodi:r2="4.7712951"
         sodipodi:r1="9.5425901"
         sodipodi:cy="293.96637"
         sodipodi:cx="74.530014"
         sodipodi:sides="5"
         id="path6511eg"
         style="opacity:0.87000002;fill:#ff8080;fill-opacity:1;stroke:#0000ff;stroke-width:0.6047619;stroke-miterlimit:4;stroke-dasharray:none"
         sodipodi:type="star" />
      <path
         inkscape:transform-center-y="0.22428177"
         inkscape:transform-center-x="0.37755769"
         d="m 108.74051,312.2934 -1.06782,-3.99694 -3.89796,-1.38629 3.47135,-2.25068 0.1139,-4.13556 3.21323,2.60595 3.96835,-1.16963 -1.48546,3.86124 2.33867,3.41269 -4.13129,-0.21956 z"
         inkscape:randomized="0"
         inkscape:rounded="0"
         inkscape:flatsided="false"
         sodipodi:arg2="2.3965104"
         sodipodi:arg1="1.7681919"
         sodipodi:r2="3.115"
         sodipodi:r1="6.23"
         sodipodi:cy="306.18439"
         sodipodi:cx="109.96231"
         sodipodi:sides="5"
         id="path6513eg"
         style="opacity:0.87000002;fill:#ff8080;fill-opacity:1;stroke:#0000ff;stroke-width:0.6047619;stroke-miterlimit:4;stroke-dasharray:none"
         sodipodi:type="star" />
      <path
         inkscape:transform-center-y="-0.16705416"
         inkscape:transform-center-x="0.16705535"
         d="m 92.857067,295.18814 -2.173306,-0.73698 -1.839194,1.3725 0.02933,-2.29468 -1.873674,-1.32505 2.191432,-0.6812 0.6812,-2.19143 1.32505,1.87368 2.294678,-0.0293 -1.372506,1.8392 z"
         inkscape:randomized="0"
         inkscape:rounded="0"
         inkscape:flatsided="false"
         sodipodi:arg2="1.4137167"
         sodipodi:arg1="0.78539816"
         sodipodi:r2="1.727891"
         sodipodi:r1="3.4557824"
         sodipodi:cy="292.74454"
         sodipodi:cx="90.41346"
         sodipodi:sides="5"
         id="path6515eg"
         style="opacity:0.87000002;fill:#ff8080;fill-opacity:1;stroke:#0000ff;stroke-width:0.6047619;stroke-miterlimit:4;stroke-dasharray:none"
         sodipodi:type="star" />
      <path
         inkscape:transform-center-y="-0.1121867"
         inkscape:transform-center-x="-0.63956251"
         d="m 84.736419,309.55335 2.201552,-4.70569 -2.628342,-4.48131 5.155694,0.63966 3.44978,-3.8845 0.984842,5.10102 4.760422,2.08056 -4.547027,2.51294 -0.507677,5.17036 -3.79506,-3.54794 z"
         inkscape:randomized="0"
         inkscape:rounded="0"
         inkscape:flatsided="false"
         sodipodi:arg2="3.0951702"
         sodipodi:arg1="2.4668517"
         sodipodi:r2="3.9116797"
         sodipodi:r1="7.8233595"
         sodipodi:cy="304.66614"
         sodipodi:cx="90.845436"
         sodipodi:sides="5"
         id="path6517eg"
         style="opacity:0.87000002;fill:#ff8080;fill-opacity:1;stroke:#0000ff;stroke-width:0.6047619;stroke-miterlimit:4;stroke-dasharray:none"
         sodipodi:type="star" />
    </g>
    <path
       sodipodi:type="spiral"
       style="fill:#00ffff;fill-rule:evenodd;stroke:#000000;stroke-width:0.6047619px;stroke-linecap:butt;stroke-linejoin:miter;stroke-opacity:1"
       id="eaglynew2"
       sodipodi:cx="73.308212"
       sodipodi:cy="393.74982"
       sodipodi:expansion="1"
       sodipodi:revolution="3"
       sodipodi:radius="41.613129"
       sodipodi:argument="-18.147299"
       sodipodi:t0="0"
       d="m 73.308212,393.74982 c 1.592741,1.3477 -1.030876,2.81189 -2.239973,2.64724 -3.276579,-0.4462 -4.137127,-4.52375 -3.054508,-7.12719 1.936552,-4.65694 7.887895,-5.67954 12.014402,-3.46177 6.055815,3.25466 7.263028,11.296 3.869042,16.90161 -4.52365,7.4714 -14.719492,8.86373 -21.788831,4.27631 -8.896041,-5.77281 -10.473289,-18.15026 -4.683575,-26.67604 7.01212,-10.32587 21.585119,-12.08797 31.563258,-5.09085 11.758893,8.24586 13.705843,25.02253 5.49811,36.45048 -9.476152,13.19401 -28.461631,15.32586 -41.337687,5.90537 -14.630593,-10.70415 -16.947384,-31.90193 -6.312644,-46.2249 11.930572,-16.06821 35.343106,-18.56999 51.112116,-6.71991 17.506588,13.15584 20.193418,38.78494 7.127178,55.99933">
      <desc
         id="desc6528">a new test shape to play with! :)</desc>
    </path>
    <path
       d="m 205.26299,520.81738 c 1.59274,1.34771 -1.03088,2.8119 -2.23998,2.64724 -3.27658,-0.44619 -4.13713,-4.52374 -3.05451,-7.12718 1.93656,-4.65695 7.8879,-5.67955 12.01441,-3.46178 6.05581,3.25466 7.26302,11.296 3.86904,16.90162 -4.52365,7.4714 -14.71949,8.86373 -21.78883,4.27631 -8.89604,-5.77281 -10.47329,-18.15027 -4.68358,-26.67605 7.01212,-10.32586 21.58512,-12.08796 31.56326,-5.09084 11.75889,8.24586 13.70584,25.02252 5.49811,36.45047 -9.47615,13.19402 -28.46163,15.32587 -41.33769,5.90538 -14.63059,-10.70416 -16.94738,-31.90193 -6.31264,-46.2249 11.93057,-16.06821 35.3431,-18.57 51.11211,-6.71991 17.50659,13.15583 20.19342,38.78493 7.12718,55.99933"
       sodipodi:t0="0"
       sodipodi:argument="-18.147299"
       sodipodi:radius="41.613129"
       sodipodi:revolution="3"
       sodipodi:expansion="1"
       sodipodi:cy="520.81738"
       sodipodi:cx="205.26299"
       id="path6530eg"
       style="fill:#800000;fill-rule:evenodd;stroke:#000000;stroke-width:0.6047619px;stroke-linecap:butt;stroke-linejoin:miter;stroke-opacity:1"
       sodipodi:type="spiral">
      <desc
         id="desc6532">a new test shape to play with! :)</desc>
    </path>
  </g>
  <rect
     height="448"
     id="Border"
     style="fill:none;stroke:#800080;stroke-width:0.60342091"
     width="448"
     x="1"
     y="1" />
	 
	 
	 <!-- creatures from original versions! :) -->
	 
			<a style="fill-opacity:0.75" xlink:href="http://life.worldsowisdom.com/flow/"> <rect height="90" id="YellowRect" onmouseout="setAttribute('fill-opacity','0.5')" onmouseover="setAttribute('fill-opacity','1.0')" style="fill:yellow;stroke:#000000" width="90" x="150" y="90"> <desc id="desc3364">A clickable square!</desc>
			<title id="title3362"></title>
			</rect> </a> <a style="fill-opacity:0.75" xlink:href="http://life.worldsowisdom.com/flow/">
			<rect height="90" id="OrangeRect" onmouseout="setAttribute('fill-opacity','0.75')" onmouseover="setAttribute('fill-opacity','1.0')" style="fill:orange;stroke:#000000" width="90" x="60" y="300"> <desc id="desc3364">A clickable square!</desc>
			<title id="title3362"></title>
			</rect> </a>

<path xmlns="http://www.w3.org/2000/svg" sodipodi:type="spiral" xmlns:sodipodi="http://sodipodi.sourceforge.net/DTD/sodipodi-0.dtd" style="fill:#00ffff;fill-rule:evenodd;stroke:#000000;stroke-width:0.6047619px;stroke-linecap:butt;stroke-linejoin:miter;stroke-opacity:1" id="eaglynew" sodipodi:cx="73.308212" sodipodi:cy="393.74982" sodipodi:expansion="1" sodipodi:revolution="3" sodipodi:radius="41.613129" sodipodi:argument="-18.147299" sodipodi:t0="0" d="m 73.308212,393.74982 c 1.592741,1.3477 -1.030876,2.81189 -2.239973,2.64724 -3.276579,-0.4462 -4.137127,-4.52375 -3.054508,-7.12719 1.936552,-4.65694 7.887895,-5.67954 12.014402,-3.46177 6.055815,3.25466 7.263028,11.296 3.869042,16.90161 -4.52365,7.4714 -14.719492,8.86373 -21.788831,4.27631 -8.896041,-5.77281 -10.473289,-18.15026 -4.683575,-26.67604 7.01212,-10.32587 21.585119,-12.08797 31.563258,-5.09085 11.758893,8.24586 13.705843,25.02253 5.49811,36.45048 -9.476152,13.19401 -28.461631,15.32586 -41.337687,5.90537 -14.630593,-10.70415 -16.947384,-31.90193 -6.312644,-46.2249 11.930572,-16.06821 35.343106,-18.56999 51.112116,-6.71991 17.506588,13.15584 20.193418,38.78494 7.127178,55.99933" transform="translate(25, 25 )">
    <desc id="desc36">a new test shape to play with! :)</desc>
  </path><rect xmlns="http://www.w3.org/2000/svg" height="10" id="AvrilNiblet1" onmouseout="setAttribute('fill-opacity','0.5')" onmouseover="setAttribute('fill-opacity','1.0')" style="fill:yellow;stroke:black" width="10" x="225" y="225" transform="translate(25, 25 )">
    <desc id="desc71">Avril's first little niblet! :)</desc>
    <title id="title73"/>
  </rect><path xmlns="http://www.w3.org/2000/svg" fill-opacity="0.43046721000000016" onmousedown="Reverse(PurpleSpiral)" id="PurpleSpiral" d="m 282.09113,269.50729 c 1.52075,1.52076 -1.29967,2.80025 -2.52761,2.52761 -3.32763,-0.73884 -3.86257,-5.00113 -2.5276,-7.58281 2.38796,-4.61803 8.58895,-5.15902 12.63801,-2.5276 5.94217,3.86172 6.4939,12.22544 2.5276,17.69322 -5.28645,7.28768 -15.87921,7.84514 -22.74842,2.52759 -8.6442,-6.69159 -9.20486,-19.54122 -2.5276,-27.80363 8.08706,-10.00688 23.20787,-10.56947 32.85884,-2.52759 11.37333,9.47708 11.93717,26.8774 2.52759,37.91404 -10.86373,12.74223 -30.54887,13.30692 -42.96924,2.52759 -14.11282,-12.24817 -14.67812,-34.22169 -2.52759,-48.02445 13.63105,-15.4846 37.8955,-16.05034 53.07965,-2.52759 16.85728,15.01283 17.42336,41.57006 2.52759,58.13486" inkscape:tile-cx="185.6451" xmlns:inkscape="http://www.inkscape.org/namespaces/inkscape" inkscape:tile-cy="265.9547" inkscape:tile-h="68.00056" inkscape:tile-w="75.106916" inkscape:tile-x0="148.09164" inkscape:tile-y0="231.95443" sodipodi:argument="-18.064157" xmlns:sodipodi="http://sodipodi.sourceforge.net/DTD/sodipodi-0.dtd" sodipodi:cx="182.09113" sodipodi:cy="269.50729" sodipodi:expansion="1" sodipodi:radius="42.894836" sodipodi:revolution="3" sodipodi:t0="0" sodipodi:type="spiral" style="fill:#800080;fill-rule:evenodd;stroke:#000000;stroke-width:0.2081555px;stroke-linecap:butt;stroke-linejoin:miter;stroke-opacity:1" transform="translate(25, 25)"/><image xmlns="http://www.w3.org/2000/svg" id="back3" width="448" height="448" x="1" y="1" xlink:href="creatures/png/back3.png" xmlns:xlink="http://www.w3.org/1999/xlink"/><image xmlns="http://www.w3.org/2000/svg" id="galaxy3" width="294" height="150" x="150" y="100" style="opacity:0.5" onmousedown="tool(eg_newy)" xlink:href="creatures/png/galaxy3.png" xmlns:xlink="http://www.w3.org/1999/xlink" transform="translate(25, 25 )"/><image xmlns="http://www.w3.org/2000/svg" id="galaxy4" width="306" height="150" x="50" y="250" style="opacity:0.25" onmousedown="tool(eg_newy2)" xlink:href="creatures/png/galaxy4.png" xmlns:xlink="http://www.w3.org/1999/xlink" transform="translate(25, 12.5 )"/><image xmlns="http://www.w3.org/2000/svg" id="planet3" width="157" height="150" x="100" y="250" style="opacity:0.5" onmousedown="tool(eg_niblet)" xlink:href="creatures/png/planet3.png" xmlns:xlink="http://www.w3.org/1999/xlink" transform="translate(25, 0.0 )"/><image xmlns="http://www.w3.org/2000/svg" id="planet4" width="150" height="150" x="300" y="150" style="opacity:0.9" onmousedown="tool(eg_medy)" xlink:href="creatures/png/planet4.png" xmlns:xlink="http://www.w3.org/1999/xlink" transform="translate(25, 0.0 )"/><image xmlns="http://www.w3.org/2000/svg" id="satellite3" width="79" height="150" x="200" y="250" onmousedown="tool(satellite3)" xlink:href="creatures/png/satellite3.png" xmlns:xlink="http://www.w3.org/1999/xlink" transform="translate(25, 25 )"/><image xmlns="http://www.w3.org/2000/svg" id="satellite4" width="109" height="75" x="50" y="50" onmousedown="tool(satellite4)" xlink:href="creatures/png/satellite4.png" xmlns:xlink="http://www.w3.org/1999/xlink" transform="translate(25, 25 )"/><image xmlns="http://www.w3.org/2000/svg" id="mediumcreature3" width="38" height="50" x="300" y="175" onmousedown="tool(the_rect)" xlink:href="creatures/png/mediumcreature3.png" xmlns:xlink="http://www.w3.org/1999/xlink" transform="translate( 0.0 , 25 )"/><image xmlns="http://www.w3.org/2000/svg" id="niblet3" width="21" height="32" x="400" y="350" onmousedown="tool(pink_rect)" xlink:href="creatures/png/niblet3.png" xmlns:xlink="http://www.w3.org/1999/xlink" transform="translate( 0.0 , 25 )"/><image xmlns="http://www.w3.org/2000/svg" id="bigbeauty3" width="92" height="110" x="100" y="150" onmousedown="tool(eg_biggo)" xlink:href="creatures/png/bigbeauty3.png" xmlns:xlink="http://www.w3.org/1999/xlink" transform="translate(25, 0.0 )"/><path xmlns="http://www.w3.org/2000/svg" id="Creature-0.22379202303259982" d="M 84.52024344240407, 1587.830248894695 Q 224.3384096009716, 1390.976514046456 336.09746297889114, 1602.9337436833684 T 253.43257940628283, 1365.4911637911555, 44.97373207000439 1618.5466620970342, 286.5839045716775 1399.6887532345092, 223.60297673024473 1371.9287087595078, 154.71664086778537 981.7182217776907 z" style="fill:#4c8c69;stroke:#939ed0" stroke-width="0.8788985812965457" opacity="0.6990308586308571" transform="translate(425.20134143120634, 31.33360544048488) rotate(1.6941725591547387 473.3000030517578 1497.066650390625)" onmousedown="tool('Creature-0.22379202303259982')" class="creatureClass"><title>Creature-0.22379202303259982</title><desc>moveLifePathCreatureNext("Creature-0.22379202303259982", 1, 1)</desc></path><g xmlns="http://www.w3.org/2000/svg" id="Creature-0.7930697313515557" style="fill:#f1cfa4;stroke:#70c4b9" stroke-width="1.9381834169078793" opacity="0.5441493729104093" transform="translate(0,0)" onmousedown="tool('Creature-0.7930697313515557')" class="creatureClass"><title>Creature-0.7930697313515557</title><desc>moveLifePathCreatureEvo("Creature-0.7930697313515557", 1, 1)</desc><path id="Creature-0.7930697313515557-part-0" d="M 475.7064911752544, 54.15406147982812 Q 187.5108201738435, 14.90828900298945 392.5567089175076, 35.02840331337554 T 423.0847038209134, 50.23373287945614, 451.39954107484016 43.88467677550333, 476.7526318921105 4.864097839321351, 528.2887916783317 49.63292430682436, 33.954332194912396 8.770309713595344 z" stroke-width="4.30465641270943" opacity="0.5428912874753741" class="creaturePartClass"/><path id="Creature-0.7930697313515557-part-1" d="M 92.74937903719014, 12.885987793888306 Q 5.871688110437387, 30.23102972794746 73.0203154627864, 46.25538965460261 T 485.2312844930598, 11.970480399358562, 370.0537955477094 55.143966484502364, 244.32488771112327 43.55463383234305, 550.8097975285415 49.60058723325399, 2.8758566018015927 31.596989785626196 z" stroke-width="6.1581768464833795" opacity="0.9801150486971345" class="creaturePartClass"/><path id="Creature-0.7930697313515557-part-2" d="M 139.31716837262624, 21.489442040733675 Q 79.08500071409262, 29.780453527420157 482.32885657242105, 48.86985040327578 T 371.66716294075, 8.052901685263867, 15.797097744683402 30.071803587871905, 249.66641719280446 13.321181393779728, 410.6896430101899 13.666116171907648, 108.26920060712636 46.294008749816776 z" stroke-width="1.3109397472926283" opacity="0.549437096209943" class="creaturePartClass"/><path id="Creature-0.7930697313515557-part-3" d="M 403.0837603958314, 8.821515942014026 Q 119.30524904964692, 41.22918924603433 113.16665337446649, 4.899170754117307 T 364.91449654311225, 16.29521053960608, 191.19379228226785 12.894925545686698, 76.5827413673164 4.030326370839154, 50.3295062656805 24.2391713824, 139.07669077755335 17.28470640823164 z" stroke-width="0.16174580428581478" opacity="0.8861228476020419" class="creaturePartClass"/></g><g xmlns="http://www.w3.org/2000/svg" id="Creature-0.46305384378338854" style="fill:#611a0c;stroke:#d152eb" stroke-width="28.21222184081792" opacity="0.863444963670183" transform="translate(0,0)" onmousedown="tool('Creature-0.46305384378338854')" class="creatureClass"><title>Creature-0.46305384378338854</title><desc>moveLifePathCreatureEvo("Creature-0.46305384378338854", 1, 1)</desc><path id="Creature-0.46305384378338854-part-0" d="M 20.49771194379419, 187.03572807856727 Q 114.1022580737203, 374.8867022371823 141.35261295725414, 369.45238819344115 T 10.777528925008992, 36.6502310607215, 9.63800514817645 176.95731290606608, 93.67747405473872 405.8161104009023, 78.84383493252075 187.10698348939712, 50.771740011401334 282.5756191692391 z" stroke-width="21.13888738493197" opacity="0.5935370185568204" class="creaturePartClass"/><path id="Creature-0.46305384378338854-part-1" d="M 130.83300391013015, 385.24223755857804 Q 53.066256308948134, 121.65246241532158 18.765611647002835, 415.73692466683275 T 209.35824079466687, 130.65541580545514, 187.53374112821228 24.423781144605293, 82.54452403331523 8.08567303718709, 19.11636325961238 290.20790487258154, 120.95880755391465 373.53893995493667 z" stroke-width="33.64558530860505" opacity="0.992214452663085" class="creaturePartClass"/><path id="Creature-0.46305384378338854-part-2" d="M 90.87826421426142, 395.903153373506 Q 102.68954499222014, 301.23773438294745 5.39361122917759, 150.14166396626604 T 51.43808908833178, 47.38621084435738, 7.140216624707369 284.5102583876737, 114.41889330820544 384.6487897566176, 199.56104449989977 310.9379882592767, 117.39962865315047 8.63221778323358 z" stroke-width="21.26726318559044" opacity="0.12394908373654558" class="creaturePartClass"/><path id="Creature-0.46305384378338854-part-3" d="M 26.331589573046525, 60.12394325592333 Q 39.806796295234335, 396.65612904313053 35.321991889246924, 220.8565720779975 T 101.93547546129722, 237.8773453343623, 80.53645288322838 86.99048691686711, 4.404436775269774 49.51360328042148, 173.16541260473596 33.0759854525478, 187.6613528264941 394.6400465720066 z" stroke-width="11.616077740249748" opacity="0.9489495305973815" class="creaturePartClass"/></g><g xmlns="http://www.w3.org/2000/svg" id="Creature-0.07618805245545635" style="fill:#b60e10;stroke:#5b4c36" stroke-width="23.593800465847977" opacity="0.9851594914970965" transform="translate(0,0)" onmousedown="tool('Creature-0.07618805245545635')" class="creatureClass"><title>Creature-0.07618805245545635</title><desc>moveLifePathCreatureEvo("Creature-0.07618805245545635", 1, 1)</desc><path id="Creature-0.07618805245545635-part-0" d="M 155.02882173969877, 378.64191147848504 Q 50.1611605203882, 315.41067058888945 18.188644060318946, 44.42310634995354 T 3.614324923977612, 178.90843533572766, 156.82457212839918 347.82504027051436, 84.36611111371029 134.02278094755275, 81.85324077201192 78.39212807580766, 24.159773958022715 274.24798309239026 z" stroke-width="34.41266834806555" opacity="0.9745719573179341" class="creaturePartClass"/><path id="Creature-0.07618805245545635-part-1" d="M 114.4434600470072, 313.65390525582535 Q 123.72131706756788, 92.44565964631013 133.44685435613607, 212.613322561877 T 94.64012930692905, 46.2929056022745, 133.07365797967964 36.4020721097511, 4.646128332644481 138.27484893080967, 85.60788595874837 79.56733836323298, 96.15115408084668 128.49263048640213 z" stroke-width="29.98256306825947" opacity="0.7865668125016924" class="creaturePartClass"/><path id="Creature-0.07618805245545635-part-2" d="M 59.38718136094966, 122.9789523742571 Q 41.251532153693596, 196.0287714232609 121.3841240882839, 342.62651840365356 T 141.659684288292, 39.486542719038596, 94.1556591924474 31.287653379437412, 27.90071202405707 114.80376893821953, 112.4463594503899 380.6092145668796, 152.53693387656307 30.23643918408241 z" stroke-width="4.812468500914755" opacity="0.5973088513090667" class="creaturePartClass"/><path id="Creature-0.07618805245545635-part-3" d="M 123.0589757991889, 3.5906685501447373 Q 148.42350521498292, 101.17677557927368 80.77886477726807, 363.95264812316157 T 43.7247177622492, 2.8708208785648126, 4.073997079073575 13.848931902266745, 138.03397322266935 255.4193249942426, 18.388779082361246 289.3016318677918, 10.81715527700833 275.0995887025475 z" stroke-width="7.957716944595345" opacity="0.8363579157480526" class="creaturePartClass"/></g><g xmlns="http://www.w3.org/2000/svg" id="Creature-0.918281608917747" style="fill:#dea3d8;stroke:#9342a2" stroke-width="27.057237413010895" opacity="0.7658717426047817" transform="translate(0,0)" onmousedown="tool('Creature-0.918281608917747')" class="creatureClass"><title>Creature-0.918281608917747</title><desc>moveLifePathCreatureEvo("Creature-0.918281608917747", 1, 1)</desc><path id="Creature-0.918281608917747-part-0" d="M 157.18804302152654, 80.27146492480887 Q 171.52775890574836, 250.08122005819968 92.00919466826979, 204.53255191624368 T 3.306249666472556, 29.33419675735408, 32.51689831669568 31.98246933716593, 32.70280118800461 107.21312848013686, 142.53083450849323 123.03574581653035, 103.89822637365052 262.6991445206181 z" stroke-width="15.846693255227088" opacity="0.4792702568754177" class="creaturePartClass"/><path id="Creature-0.918281608917747-part-1" d="M 142.26761522348477, 118.83188123308199 Q 163.55845195046433, 222.18293061688485 110.52932587221875, 172.82544916642595 T 54.807132790755816, 123.3792835102555, 206.18092304925503 198.9283403097093, 186.65658878854853 117.46836640413208, 68.50951465798843 35.513950103358255, 217.1349071805222 201.12806304245655 z" stroke-width="18.71025086194244" opacity="0.7333558911397238" class="creaturePartClass"/><path id="Creature-0.918281608917747-part-2" d="M 196.6716388039687, 40.89285371379835 Q 180.79525910258306, 236.9971000301402 10.177823485246364, 132.5820283362811 T 158.09497267929834, 265.7897393100899, 125.24468241571506 33.90432541573762, 161.99489345665424 167.87848930447868, 5.971433172794307 221.7930876733342, 80.0917870371759 64.14438488770391 z" stroke-width="0.4875542502635888" opacity="0.7879507030492602" class="creaturePartClass"/><path id="Creature-0.918281608917747-part-3" d="M 202.61586596301473, 8.969125564474963 Q 196.07955762056196, 222.75697548995427 14.787224269102998, 177.48822143177009 T 42.54049069147128, 102.48880199006032, 11.840228713053744 122.53220396869115, 37.058750236089004 73.55315580390362, 205.68889770667744 222.58910253115684, 1.282802667950654 57.482472455927706 z" stroke-width="5.969564552473311" opacity="0.680249158884122" class="creaturePartClass"/></g><path xmlns="http://www.w3.org/2000/svg" id="Creature-0.94112281712008" d="M 97.60342417399477, 127.50059112185744 Q 98.22260467704712, 83.91374568101527 38.37580450759745, 34.0838644643681 T 3.676505938137658, 95.9918694306006, 91.37183305735306 16.40388457239761, 72.62183518141768 66.81285677954529, 25.33399412817139 245.80771943072688, 69.5258060518127 266.30172926235355 z" style="fill:yellow;stroke:orange" stroke-width="14.129802517330475" opacity="0.6960483461202062" transform="translate(137.26191268825153, 126.32949505433075) rotate(0.032035480763110635 77.4000015258789 517.566650390625)" onmousedown="tool('Creature-0.94112281712008')" class="creatureClass"><title>Creature-0.94112281712008</title><desc>moveLifePathCreature2("Creature-0.94112281712008", 1, 1)</desc></path><g xmlns="http://www.w3.org/2000/svg" id="Creature-0.7006378944931393" style="fill:#c3f6ed;stroke:#82e80f" stroke-width="2.167382226393084" opacity="0.7015632162835073" transform="translate(0,0)" onmousedown="tool('Creature-0.7006378944931393')" class="creatureClass"><title>Creature-0.7006378944931393</title><desc>moveLifePathCreatureEvo("Creature-0.7006378944931393", 1, 1)</desc><path id="Creature-0.7006378944931393-part-0" d="M 154.5308198715608, 85.89727902612422 Q 95.68908314251661, 241.9137485136079 30.062482618562704, 57.81390320263703 T 153.90510432191874, 76.39873337001887, 37.16929697397996 37.16146340705981, 39.468033668533515 41.287343711493556, 108.28912823451738 33.837880187922124, 25.635414648692144 65.73432060629003 z" stroke-width="2.721867113421664" opacity="0.745931313161068" class="creaturePartClass"/><path id="Creature-0.7006378944931393-part-1" d="M 151.75358520281452, 54.32267046458456 Q 90.24078852723635, 154.2971041791304 122.06877703942206, 30.86724766402694 T 60.943024224180526, 57.91765896618819, 95.95362930886427 73.10154669412441, 131.90280638136576 5.445518949261324, 127.90091011230676 93.81006245086765, 114.83077533408127 61.57400670415947 z" stroke-width="1.0554067971852825" opacity="0.9225065211777246" class="creaturePartClass"/><path id="Creature-0.7006378944931393-part-2" d="M 144.2493733771796, 139.89491989692726 Q 103.79536076885496, 178.41207957188428 44.15378309510669, 215.8941731839878 T 16.053221790528493, 67.33436368473625, 125.24287290820145 22.60390114766768, 114.6121607292013 57.39406052860449, 138.54424243436011 178.54689419092898, 13.345515113829789 145.1346405924248 z" stroke-width="3.4407699324986525" opacity="0.5822817235956442" class="creaturePartClass"/><path id="Creature-0.7006378944931393-part-3" d="M 9.71050133978765, 230.81555413765724 Q 107.92991726699627, 17.42875145054249 91.10123509766805, 87.4750376460429 T 121.14035205488966, 203.24337400357638, 138.5969102711668 248.99242474943705, 90.08414067517855 83.02417026381664, 116.09294646750907 212.63424362444232, 6.001838935618133 72.95646533650624 z" stroke-width="4.146851275186929" opacity="0.9170110797402441" class="creaturePartClass"/></g></svg>