<?xml version="1.0" encoding="UTF-8" standalone="no"?>
<!-- Created with LifeFLOW (http://life.worldsowisdom.com/flow/) -->

<svg
   xmlns:osb="http://www.openswatchbook.org/uri/2009/osb"
   xmlns:dc="http://purl.org/dc/elements/1.1/"
   xmlns:cc="http://creativecommons.org/ns#"
   xmlns:rdf="http://www.w3.org/1999/02/22-rdf-syntax-ns#"
   xmlns:svg="http://www.w3.org/2000/svg"
   xmlns="http://www.w3.org/2000/svg"
   xmlns:xlink="http://www.w3.org/1999/xlink"
   xmlns:sodipodi="http://sodipodi.sourceforge.net/DTD/sodipodi-0.dtd"
   xmlns:inkscape="http://www.inkscape.org/namespaces/inkscape"
   width="450"
   height="450"
   viewBox="0 0 450 450"
   id="svg2"
   version="1.1"
   inkscape:version="0.91 r13725"
   sodipodi:docname="newcreatures-plain.svg">
  <defs
     id="defs4">
    <linearGradient
       inkscape:collect="always"
       id="linearGradient6501">
      <stop
         style="stop-color:#0000ff;stop-opacity:1;"
         offset="0"
         id="stop6503" />
      <stop
         style="stop-color:#0000ff;stop-opacity:0;"
         offset="1"
         id="stop6505" />
    </linearGradient>
    <linearGradient
       id="linearGradient6455"
       osb:paint="solid">
      <stop
         style="stop-color:#0000ff;stop-opacity:1;"
         offset="0"
         id="stop6457" />
    </linearGradient>
    <filter
       inkscape:collect="always"
       style="color-interpolation-filters:sRGB"
       id="filter5001"
       x="-0.37912726"
       width="1.7582545"
       y="-0.65848422"
       height="2.3169684">
      <feGaussianBlur
         inkscape:collect="always"
         stdDeviation="6.3692616"
         id="feGaussianBlur5003" />
    </filter>
    <linearGradient
       inkscape:collect="always"
       xlink:href="#linearGradient6501"
       id="linearGradient6507"
       x1="242.51431"
       y1="178.50594"
       x2="313.40628"
       y2="178.50594"
       gradientUnits="userSpaceOnUse"
       gradientTransform="translate(-215.03742,319.7082)" />
  </defs>
  <sodipodi:namedview
     id="base"
     pagecolor="#ffffff"
     bordercolor="#666666"
     borderopacity="1.0"
     inkscape:pageopacity="0.0"
     inkscape:pageshadow="2"
     inkscape:zoom="0.24748738"
     inkscape:cx="463.57331"
     inkscape:cy="265.90363"
     inkscape:document-units="px"
     inkscape:current-layer="layer1"
     showgrid="false"
     inkscape:window-width="1366"
     inkscape:window-height="706"
     inkscape:window-x="-8"
     inkscape:window-y="-8"
     inkscape:window-maximized="1"
     units="px" />
  <metadata
     id="metadata7">
    <rdf:RDF>
      <cc:Work
         rdf:about="">
        <dc:format>image/svg+xml</dc:format>
        <dc:type
           rdf:resource="http://purl.org/dc/dcmitype/StillImage" />
        <dc:title></dc:title>
      </cc:Work>
    </rdf:RDF>
  </metadata>
  <g
     inkscape:label="Layer 1"
     inkscape:groupmode="layer"
     id="layer1"
     transform="translate(0,-364.28567)">
    <path
       sodipodi:type="star"
       style="opacity:0.28999999;fill:#00ffff;stroke:#800080"
       id="path4136eg"
       sodipodi:sides="5"
       sodipodi:cx="149.96248"
       sodipodi:cy="470.92843"
       sodipodi:r1="84.03109"
       sodipodi:r2="42.015545"
       sodipodi:arg1="0.31099828"
       sodipodi:arg2="0.93931681"
       inkscape:flatsided="false"
       inkscape:rounded="0"
       inkscape:randomized="0"
       d="m 229.96248,496.64272 -55.19656,8.19877 -24.53782,50.11762 -24.85417,-49.96149 -55.247286,-7.84966 39.835836,-39.07667 -9.60688,-54.96897 49.47407,25.81078 49.30991,-26.12303 -9.25918,55.0286 z"
       inkscape:transform-center-x="-0.082081267"
       inkscape:transform-center-y="7.9461513" />
    <path
       inkscape:transform-center-y="2.4320959"
       inkscape:transform-center-x="-0.025122895"
       d="m 68.791599,427.6385 -16.894071,2.5094 -7.510317,15.33956 -7.607143,-15.29177 -16.909598,-2.40255 12.192598,-11.96024 -2.940388,-16.82442 15.142583,7.89994 15.092337,-7.99551 -2.833967,16.84267 z"
       inkscape:randomized="0"
       inkscape:rounded="0"
       inkscape:flatsided="false"
       sodipodi:arg2="0.93931681"
       sodipodi:arg1="0.31099828"
       sodipodi:r2="12.859744"
       sodipodi:r1="25.719488"
       sodipodi:cy="419.76809"
       sodipodi:cx="44.305912"
       sodipodi:sides="5"
       id="path4138eg"
       style="opacity:0.28999999;fill:#00ffff;stroke:#800080;stroke-width:0.3060711"
       sodipodi:type="star" />
    <g
       id="BiggoEGbg"
       transform="translate(-109.96232,143.76849)">
      <desc
         id="desc4151">A big creature for LifeFLOW! :)</desc>
      <circle
         r="29.934187"
         cy="259.14496"
         cx="302.39636"
         id="path4137eg"
         style="opacity:0.28999999;fill:#ffff00;stroke:#800080;stroke-width:0.6047619" />
      <circle
         r="7.3308215"
         cy="265.86487"
         cx="307.8945"
         id="path4139eg"
         style="opacity:0.28999999;fill:#ffff00;stroke:#800080;stroke-width:0.6047619" />
      <ellipse
         ry="10.996231"
         rx="3.6654108"
         cy="251.20323"
         cx="292.01105"
         id="path4141eg"
         style="opacity:0.28999999;fill:#0000ff;stroke:#800080;stroke-width:0.6047619" />
      <ellipse
         ry="3.6654108"
         rx="9.7744284"
         cy="253.64687"
         cx="317.66891"
         id="path4143eg"
         style="opacity:0.28999999;fill:#0000ff;stroke:#800080;stroke-width:0.6047619" />
    </g>
    <rect
       style="opacity:0.87000002;fill:url(#linearGradient6507);fill-opacity:1;stroke:#0000ff;stroke-width:0.6047619;stroke-miterlimit:4;stroke-dasharray:none;filter:url(#filter5001)"
       id="MedyEGbg"
       width="40.319515"
       height="23.214266"
       x="42.763119"
       y="486.60684" />
    <g
       id="g6519eg"
       inkscape:label="#MedyEG"
       transform="translate(0,53.355016)">
      <rect
         y="281.74832"
         x="59.868374"
         height="31.766891"
         width="63.533783"
         id="rect6509eg"
         style="opacity:0.87000002;fill:#0000ff;fill-opacity:1;stroke:#0000ff;stroke-width:0.6047619;stroke-miterlimit:4;stroke-dasharray:none" />
      <path
         inkscape:transform-center-y="-0.19571458"
         inkscape:transform-center-x="0.72308977"
         d="m 81.860835,300.07539 -6.160837,-1.4834 -4.714657,4.23419 -0.493011,-6.31769 -5.483865,-3.17547 5.856139,-2.42116 1.325442,-6.19674 4.112304,4.82134 6.303033,-0.65433 -3.314595,5.40091 z"
         inkscape:randomized="0"
         inkscape:rounded="0"
         inkscape:flatsided="false"
         sodipodi:arg2="1.3230568"
         sodipodi:arg1="0.69473828"
         sodipodi:r2="4.7712951"
         sodipodi:r1="9.5425901"
         sodipodi:cy="293.96637"
         sodipodi:cx="74.530014"
         sodipodi:sides="5"
         id="path6511eg"
         style="opacity:0.87000002;fill:#ff8080;fill-opacity:1;stroke:#0000ff;stroke-width:0.6047619;stroke-miterlimit:4;stroke-dasharray:none"
         sodipodi:type="star" />
      <path
         inkscape:transform-center-y="0.22428177"
         inkscape:transform-center-x="0.37755769"
         d="m 108.74051,312.2934 -1.06782,-3.99694 -3.89796,-1.38629 3.47135,-2.25068 0.1139,-4.13556 3.21323,2.60595 3.96835,-1.16963 -1.48546,3.86124 2.33867,3.41269 -4.13129,-0.21956 z"
         inkscape:randomized="0"
         inkscape:rounded="0"
         inkscape:flatsided="false"
         sodipodi:arg2="2.3965104"
         sodipodi:arg1="1.7681919"
         sodipodi:r2="3.115"
         sodipodi:r1="6.23"
         sodipodi:cy="306.18439"
         sodipodi:cx="109.96231"
         sodipodi:sides="5"
         id="path6513eg"
         style="opacity:0.87000002;fill:#ff8080;fill-opacity:1;stroke:#0000ff;stroke-width:0.6047619;stroke-miterlimit:4;stroke-dasharray:none"
         sodipodi:type="star" />
      <path
         inkscape:transform-center-y="-0.16705416"
         inkscape:transform-center-x="0.16705535"
         d="m 92.857067,295.18814 -2.173306,-0.73698 -1.839194,1.3725 0.02933,-2.29468 -1.873674,-1.32505 2.191432,-0.6812 0.6812,-2.19143 1.32505,1.87368 2.294678,-0.0293 -1.372506,1.8392 z"
         inkscape:randomized="0"
         inkscape:rounded="0"
         inkscape:flatsided="false"
         sodipodi:arg2="1.4137167"
         sodipodi:arg1="0.78539816"
         sodipodi:r2="1.727891"
         sodipodi:r1="3.4557824"
         sodipodi:cy="292.74454"
         sodipodi:cx="90.41346"
         sodipodi:sides="5"
         id="path6515eg"
         style="opacity:0.87000002;fill:#ff8080;fill-opacity:1;stroke:#0000ff;stroke-width:0.6047619;stroke-miterlimit:4;stroke-dasharray:none"
         sodipodi:type="star" />
      <path
         inkscape:transform-center-y="-0.1121867"
         inkscape:transform-center-x="-0.63956251"
         d="m 84.736419,309.55335 2.201552,-4.70569 -2.628342,-4.48131 5.155694,0.63966 3.44978,-3.8845 0.984842,5.10102 4.760422,2.08056 -4.547027,2.51294 -0.507677,5.17036 -3.79506,-3.54794 z"
         inkscape:randomized="0"
         inkscape:rounded="0"
         inkscape:flatsided="false"
         sodipodi:arg2="3.0951702"
         sodipodi:arg1="2.4668517"
         sodipodi:r2="3.9116797"
         sodipodi:r1="7.8233595"
         sodipodi:cy="304.66614"
         sodipodi:cx="90.845436"
         sodipodi:sides="5"
         id="path6517eg"
         style="opacity:0.87000002;fill:#ff8080;fill-opacity:1;stroke:#0000ff;stroke-width:0.6047619;stroke-miterlimit:4;stroke-dasharray:none"
         sodipodi:type="star" />
    </g>
    <path
       sodipodi:type="spiral"
       style="fill:#00ffff;fill-rule:evenodd;stroke:#000000;stroke-width:0.6047619px;stroke-linecap:butt;stroke-linejoin:miter;stroke-opacity:1"
       id="eaglynew2"
       sodipodi:cx="73.308212"
       sodipodi:cy="393.74982"
       sodipodi:expansion="1"
       sodipodi:revolution="3"
       sodipodi:radius="41.613129"
       sodipodi:argument="-18.147299"
       sodipodi:t0="0"
       d="m 73.308212,393.74982 c 1.592741,1.3477 -1.030876,2.81189 -2.239973,2.64724 -3.276579,-0.4462 -4.137127,-4.52375 -3.054508,-7.12719 1.936552,-4.65694 7.887895,-5.67954 12.014402,-3.46177 6.055815,3.25466 7.263028,11.296 3.869042,16.90161 -4.52365,7.4714 -14.719492,8.86373 -21.788831,4.27631 -8.896041,-5.77281 -10.473289,-18.15026 -4.683575,-26.67604 7.01212,-10.32587 21.585119,-12.08797 31.563258,-5.09085 11.758893,8.24586 13.705843,25.02253 5.49811,36.45048 -9.476152,13.19401 -28.461631,15.32586 -41.337687,5.90537 -14.630593,-10.70415 -16.947384,-31.90193 -6.312644,-46.2249 11.930572,-16.06821 35.343106,-18.56999 51.112116,-6.71991 17.506588,13.15584 20.193418,38.78494 7.127178,55.99933">
      <desc
         id="desc6528">a new test shape to play with! :)</desc>
    </path>
    <path
       d="m 205.26299,520.81738 c 1.59274,1.34771 -1.03088,2.8119 -2.23998,2.64724 -3.27658,-0.44619 -4.13713,-4.52374 -3.05451,-7.12718 1.93656,-4.65695 7.8879,-5.67955 12.01441,-3.46178 6.05581,3.25466 7.26302,11.296 3.86904,16.90162 -4.52365,7.4714 -14.71949,8.86373 -21.78883,4.27631 -8.89604,-5.77281 -10.47329,-18.15027 -4.68358,-26.67605 7.01212,-10.32586 21.58512,-12.08796 31.56326,-5.09084 11.75889,8.24586 13.70584,25.02252 5.49811,36.45047 -9.47615,13.19402 -28.46163,15.32587 -41.33769,5.90538 -14.63059,-10.70416 -16.94738,-31.90193 -6.31264,-46.2249 11.93057,-16.06821 35.3431,-18.57 51.11211,-6.71991 17.50659,13.15583 20.19342,38.78493 7.12718,55.99933"
       sodipodi:t0="0"
       sodipodi:argument="-18.147299"
       sodipodi:radius="41.613129"
       sodipodi:revolution="3"
       sodipodi:expansion="1"
       sodipodi:cy="520.81738"
       sodipodi:cx="205.26299"
       id="path6530eg"
       style="fill:#800000;fill-rule:evenodd;stroke:#000000;stroke-width:0.6047619px;stroke-linecap:butt;stroke-linejoin:miter;stroke-opacity:1"
       sodipodi:type="spiral">
      <desc
         id="desc6532">a new test shape to play with! :)</desc>
    </path>
  </g>
  <rect
     height="448"
     id="Border"
     style="fill:none;stroke:#800080;stroke-width:0.60342091"
     width="448"
     x="1"
     y="1" />
	 
	 
	 <!-- creatures from original versions! :) -->
	 
			<a style="fill-opacity:0.75" xlink:href="http://life.worldsowisdom.com/flow/"> <rect height="90" id="YellowRect" onmouseout="setAttribute('fill-opacity','0.5')" onmouseover="setAttribute('fill-opacity','1.0')" style="fill:yellow;stroke:#000000" width="90" x="150" y="90"> <desc id="desc3364">A clickable square!</desc>
			<title id="title3362"></title>
			</rect> </a> <a style="fill-opacity:0.75" xlink:href="http://life.worldsowisdom.com/flow/">
			<rect height="90" id="OrangeRect" onmouseout="setAttribute('fill-opacity','0.75')" onmouseover="setAttribute('fill-opacity','1.0')" style="fill:orange;stroke:#000000" width="90" x="60" y="300"> <desc id="desc3364">A clickable square!</desc>
			<title id="title3362"></title>
			</rect> </a>

<path xmlns="http://www.w3.org/2000/svg" sodipodi:type="spiral" xmlns:sodipodi="http://sodipodi.sourceforge.net/DTD/sodipodi-0.dtd" style="fill:#00ffff;fill-rule:evenodd;stroke:#000000;stroke-width:0.6047619px;stroke-linecap:butt;stroke-linejoin:miter;stroke-opacity:1" id="eaglynew" sodipodi:cx="73.308212" sodipodi:cy="393.74982" sodipodi:expansion="1" sodipodi:revolution="3" sodipodi:radius="41.613129" sodipodi:argument="-18.147299" sodipodi:t0="0" d="m 73.308212,393.74982 c 1.592741,1.3477 -1.030876,2.81189 -2.239973,2.64724 -3.276579,-0.4462 -4.137127,-4.52375 -3.054508,-7.12719 1.936552,-4.65694 7.887895,-5.67954 12.014402,-3.46177 6.055815,3.25466 7.263028,11.296 3.869042,16.90161 -4.52365,7.4714 -14.719492,8.86373 -21.788831,4.27631 -8.896041,-5.77281 -10.473289,-18.15026 -4.683575,-26.67604 7.01212,-10.32587 21.585119,-12.08797 31.563258,-5.09085 11.758893,8.24586 13.705843,25.02253 5.49811,36.45048 -9.476152,13.19401 -28.461631,15.32586 -41.337687,5.90537 -14.630593,-10.70415 -16.947384,-31.90193 -6.312644,-46.2249 11.930572,-16.06821 35.343106,-18.56999 51.112116,-6.71991 17.506588,13.15584 20.193418,38.78494 7.127178,55.99933" transform="translate(25, 25 )">
    <desc id="desc36">a new test shape to play with! :)</desc>
  </path><rect xmlns="http://www.w3.org/2000/svg" height="10" id="AvrilNiblet1" onmouseout="setAttribute('fill-opacity','0.5')" onmouseover="setAttribute('fill-opacity','1.0')" style="fill:yellow;stroke:black" width="10" x="225" y="225" transform="translate(25, 25 )">
    <desc id="desc71">Avril's first little niblet! :)</desc>
    <title id="title73"/>
  </rect><path xmlns="http://www.w3.org/2000/svg" fill-opacity="0.43046721000000016" onmousedown="Reverse(PurpleSpiral)" id="PurpleSpiral" d="m 282.09113,269.50729 c 1.52075,1.52076 -1.29967,2.80025 -2.52761,2.52761 -3.32763,-0.73884 -3.86257,-5.00113 -2.5276,-7.58281 2.38796,-4.61803 8.58895,-5.15902 12.63801,-2.5276 5.94217,3.86172 6.4939,12.22544 2.5276,17.69322 -5.28645,7.28768 -15.87921,7.84514 -22.74842,2.52759 -8.6442,-6.69159 -9.20486,-19.54122 -2.5276,-27.80363 8.08706,-10.00688 23.20787,-10.56947 32.85884,-2.52759 11.37333,9.47708 11.93717,26.8774 2.52759,37.91404 -10.86373,12.74223 -30.54887,13.30692 -42.96924,2.52759 -14.11282,-12.24817 -14.67812,-34.22169 -2.52759,-48.02445 13.63105,-15.4846 37.8955,-16.05034 53.07965,-2.52759 16.85728,15.01283 17.42336,41.57006 2.52759,58.13486" inkscape:tile-cx="185.6451" xmlns:inkscape="http://www.inkscape.org/namespaces/inkscape" inkscape:tile-cy="265.9547" inkscape:tile-h="68.00056" inkscape:tile-w="75.106916" inkscape:tile-x0="148.09164" inkscape:tile-y0="231.95443" sodipodi:argument="-18.064157" xmlns:sodipodi="http://sodipodi.sourceforge.net/DTD/sodipodi-0.dtd" sodipodi:cx="182.09113" sodipodi:cy="269.50729" sodipodi:expansion="1" sodipodi:radius="42.894836" sodipodi:revolution="3" sodipodi:t0="0" sodipodi:type="spiral" style="fill:#800080;fill-rule:evenodd;stroke:#000000;stroke-width:0.2081555px;stroke-linecap:butt;stroke-linejoin:miter;stroke-opacity:1" transform="translate(25, 25)"/><image xmlns="http://www.w3.org/2000/svg" id="back3" width="448" height="448" x="1" y="1" xlink:href="creatures/png/back3.png" xmlns:xlink="http://www.w3.org/1999/xlink"/><image xmlns="http://www.w3.org/2000/svg" id="galaxy3" width="294" height="150" x="150" y="100" style="opacity:0.5" onmousedown="tool(eg_newy)" xlink:href="creatures/png/galaxy3.png" xmlns:xlink="http://www.w3.org/1999/xlink" transform="translate(25, 25 )"/><image xmlns="http://www.w3.org/2000/svg" id="galaxy4" width="306" height="150" x="50" y="250" style="opacity:0.25" onmousedown="tool(eg_newy2)" xlink:href="creatures/png/galaxy4.png" xmlns:xlink="http://www.w3.org/1999/xlink" transform="translate(25, 12.5 )"/><image xmlns="http://www.w3.org/2000/svg" id="planet3" width="157" height="150" x="100" y="250" style="opacity:0.5" onmousedown="tool(eg_niblet)" xlink:href="creatures/png/planet3.png" xmlns:xlink="http://www.w3.org/1999/xlink" transform="translate(25, 0.0 )"/><image xmlns="http://www.w3.org/2000/svg" id="planet4" width="150" height="150" x="300" y="150" style="opacity:0.9" onmousedown="tool(eg_medy)" xlink:href="creatures/png/planet4.png" xmlns:xlink="http://www.w3.org/1999/xlink" transform="translate(25, 0.0 )"/><image xmlns="http://www.w3.org/2000/svg" id="satellite3" width="79" height="150" x="200" y="250" onmousedown="tool(satellite3)" xlink:href="creatures/png/satellite3.png" xmlns:xlink="http://www.w3.org/1999/xlink" transform="translate(25, 25 )"/><image xmlns="http://www.w3.org/2000/svg" id="satellite4" width="109" height="75" x="50" y="50" onmousedown="tool(satellite4)" xlink:href="creatures/png/satellite4.png" xmlns:xlink="http://www.w3.org/1999/xlink" transform="translate(25, 25 )"/><image xmlns="http://www.w3.org/2000/svg" id="mediumcreature3" width="38" height="50" x="300" y="175" onmousedown="tool(the_rect)" xlink:href="creatures/png/mediumcreature3.png" xmlns:xlink="http://www.w3.org/1999/xlink" transform="translate( 0.0 , 25 )"/><image xmlns="http://www.w3.org/2000/svg" id="niblet3" width="21" height="32" x="400" y="350" onmousedown="tool(pink_rect)" xlink:href="creatures/png/niblet3.png" xmlns:xlink="http://www.w3.org/1999/xlink" transform="translate( 0.0 , 25 )"/><image xmlns="http://www.w3.org/2000/svg" id="bigbeauty3" width="92" height="110" x="100" y="150" onmousedown="tool(eg_biggo)" xlink:href="creatures/png/bigbeauty3.png" xmlns:xlink="http://www.w3.org/1999/xlink" transform="translate(25, 0.0 )"/><g xmlns="http://www.w3.org/2000/svg" id="Creature-0.5177946074493689" style="fill:#5d649e;stroke:#69fbd3" stroke-width="0.0012235315995578156" opacity="0.9253822628019739" transform="translate(289.60508217022544, 162.7687366943026) rotate(-0.8328889433644712 873.05029296875 257.2000045776367)" onmousedown="tool('Creature-0.5177946074493689')" class="creatureClass"><title>Creature-0.5177946074493689</title><desc>moveLifePathCreatureEvo3("Creature-0.5177946074493689", 0.7, 1.2)</desc><path id="Creature-0.5177946074493689-part-0" d="M 1083.5177824286511, 0.40845697568302297 Q 1894.3378931119332, 0.5184659548402628 113.43682033321949, 0.9163286580113057 T 2071.8175025830474, 0.3337027055278819, 792.8195464473532 0.08363500084889382, 2302.2259541578583 0.3509967767644568, 301.99887570603784 0.10440825791538426, 560.6067160642204 0.30470157016687405 z" stroke-width="0.0007575992984464076" opacity="0.4718265311466822" class="creaturePartClass"/><path id="Creature-0.5177946074493689-part-1" d="M 467.3360128774491, 0.7288960126182358 Q 2716.8184274953073, 0.8562679067827187 812.9418180507199, 0.7230294215381374 T 222.35117682748418, 0.3766357981503834, 2379.5603737820074 0.48210625580985217, 550.5136902863692 0.8141806281067406, 502.6785016290652 0.9685047757635428, 2534.695558677503 0.408837955170943 z" stroke-width="0.0017875215877604716" opacity="0.7026683553663623" class="creaturePartClass"/><path id="Creature-0.5177946074493689-part-2" d="M 2047.0062784763202, 0.8026273836450385 Q 1596.5758554304632, 0.7769083337028393 1606.5832429868913, 0.932651872843327 T 1095.8899560750249, 0.8811603455193471, 1389.9227534857282 0.8768617946711681, 2280.0742119718375 0.7425851914654633, 268.2190236126736 0.6190726744461538, 2846.525828547136 0.539612581904741 z" stroke-width="0.00008869381481931013" opacity="0.8142325554392007" class="creaturePartClass"/><path id="Creature-0.5177946074493689-part-3" d="M 2116.698219839973, 0.16826694697846012 Q 1977.4258860269422, 0.8346583431658344 2373.7883614996836, 0.803562945960677 T 1734.95715033284, 0.025892085700449426, 1514.9347507854563 0.3116227985923592, 201.61646394486863 0.46628263744022136, 2872.8658951375364 0.700286430157271, 1068.6471776585358 0.9583018878302945 z" stroke-width="0.0012685824840443292" opacity="0.9687742313752983" class="creaturePartClass"/></g><g xmlns="http://www.w3.org/2000/svg" id="Creature-0.955271703104439" style="fill:#2f31b;stroke:#1afce9" stroke-width="0.5677957668048071" opacity="0.5434005967971681" transform="translate(353.529054330819, 213.5767810436937) rotate(0.7104261187192431 809.5 346.3000183105469)" onmousedown="tool('Creature-0.955271703104439')" class="creatureClass"><title>Creature-0.955271703104439</title><desc>moveLifePathCreatureEvo3("Creature-0.955271703104439", 0.7, 1.2)</desc><path id="Creature-0.955271703104439-part-0" d="M 232.73808154856363, 67.47911093212672 Q 1472.1151805252007, 45.25078416717325 500.845359229194, 13.888979133635896 T 1655.0252654935184, 65.88656037836519, 1192.8282178929041 25.363806305216844, 577.008521796335 10.682046180528133, 1508.4672457599324 29.928266373679634, 1111.2365512210852 27.586712211794055 z" stroke-width="0.27281331234219625" opacity="0.9200045256540907" class="creaturePartClass"/><path id="Creature-0.955271703104439-part-1" d="M 1836.6943126488623, 28.447556064129838 Q 1226.9403730406027, 61.63771477375818 1864.0848014076867, 56.99208690692577 T 232.7791689752594, 36.63071496481187, 851.6686256013577 67.39228893523874, 1187.7107468013546 69.175862448526, 1220.2884486272244 10.817305194708439, 730.3538813646419 69.4545979431854 z" stroke-width="0.2973220679293163" opacity="0.9956891104414209" class="creaturePartClass"/><path id="Creature-0.955271703104439-part-2" d="M 844.6060125721348, 46.13799711306283 Q 1796.3042402823012, 53.60897962722249 487.49114516611843, 58.90719496467811 T 1922.9542046996053, 22.788498662047758, 329.0845286563671 54.64068729200769, 253.62077219284822 12.263215715302293, 1101.109770906898 43.38863698184321, 813.3215440139472 25.89868813690183 z" stroke-width="0.35223890775094724" opacity="0.5611264371402088" class="creaturePartClass"/><path id="Creature-0.955271703104439-part-3" d="M 1589.9131476391494, 24.963394651478115 Q 1712.033098577637, 67.55430726000188 1260.8266614302254, 38.20422050320339 T 792.2445242758787, 16.10320178842268, 1502.9050227114403 2.812617098897864, 963.092052860281 39.51786244421427, 1719.3279403256129 36.673343435673374, 75.08373895141713 57.71183641882867 z" stroke-width="0.20655441314468467" opacity="0.8945989278099202" class="creaturePartClass"/></g><g xmlns="http://www.w3.org/2000/svg" id="Creature-0.15777953433711767" style="fill:#457b37;stroke:#6652e2" stroke-width="34.26292524967939" opacity="0.963958971742846" transform="translate(0,0)" onmousedown="tool('Creature-0.15777953433711767')" class="creatureClass"><title>Creature-0.15777953433711767</title><desc>moveLifePathCreatureBranch1("Creature-0.15777953433711767", 0.7, 1.2)</desc><path id="Creature-0.15777953433711767-part-0" d="M 111.6542111457958, 168.91893926709793 Q 104.11859835890367, 216.3791288143668 81.79875954648577, 89.87742136393797 T 78.72902277078792, 313.9861551912382, 89.42993785704758 91.12792385359984, 44.5719589300074 342.14461869266864, 29.410364438135957 275.28458976580964, 77.19885297950817 437.96651792409006 z" stroke-width="2.37777981032111" opacity="0.9321707862099717" class="creaturePartClass"/><path id="Creature-0.15777953433711767-part-1" d="M 148.26305259621017, 414.5011131764869 Q 121.5876133088137, 185.66583699411808 45.05943859542046, 301.6481601859281 T 97.53306156694238, 560.8476062071858, 18.444129472925425 109.60943800427205, 150.6715424871903 17.70684405054981, 110.7739808054571 391.59641572666914, 139.9366663158574 240.5102812399111 z" stroke-width="7.032102703308696" opacity="0.7374936996812232" class="creaturePartClass"/><path id="Creature-0.15777953433711767-part-2" d="M 52.90348426796629, 185.4410114761252 Q 19.404903815949297, 122.74320712565726 1.0472221132856614, 392.06311404777256 T 126.89828764599964, 512.8253735625682, 124.19654256227972 62.63887046695038, 96.62039480491406 244.11956402847866, 91.68502551761792 119.78401728801884, 61.9408554889549 547.2644512204807 z" stroke-width="39.69646475302841" opacity="0.4836741687631382" class="creaturePartClass"/><path id="Creature-0.15777953433711767-part-3" d="M 132.1636750110116, 101.05903718486232 Q 101.55247223039726, 295.30669339217474 123.43167354789432, 138.0194623292295 T 111.31558916497607, 260.1470159083414, 125.26339761249234 438.66057155318987, 1.2584547882547819 476.0279246524539, 12.511626936934942 210.83246178643495, 63.417214120801056 519.6706103877939 z" stroke-width="11.76458520943286" opacity="0.7483227222711695" class="creaturePartClass"/><path id="Creature-0.17534406011050463" d="M 37.11140792038871 52.588984470708674, 116.74522342480411 46.89673488411682, 16.39959220718839 2.7306783677185376, 212.52255613234422 23.710751080484773, 169.24645694922947 78.53445113483201, 206.07264907295894 58.02412058498249, 78.04682091527586 53.94270973687642 z" style="fill:black;stroke:yellow" stroke-width="13.709274346493556" transform="translate(156.31625013159024, 221.20588747532778) rotate(0.06048847267172972 280.39166259765625 359.2000045776367)" onmousedown="tool('Creature-0.17534406011050463')" class="creatureClass"><title>Creature-0.17534406011050463</title><desc>moveLifePathCreature("Creature-0.17534406011050463", 1, 1)</desc></path><image id="Creature-0.07935278384693534" a0:href="creatures/png/flower1.png" xmlns:a0="http://www.w3.org/1999/xlink" opacity="0.503568232036662" transform="translate(337.4492731842378, 346.44475765324006) rotate(0.33357472297524576 551.6499938964844 718.5333251953125)" x="200" y="200" height="120" width="120" onmousedown="tool('Creature-0.07935278384693534')" class="creatureClass"><title>Creature-0.07935278384693534</title><desc>movePsyCreat("Creature-0.07935278384693534", 1, 1)</desc></image><path id="Creature-0.742190668121709" d="M 235.9901932193416 285.82115713604435, 129.91155499250561 280.55807394702214, 114.99346838376216 173.64292187518154, 215.82558412979586 168.68066001574138, 50.09777095066319 334.37454014955546, 233.6971939099807 219.4244036403987, 84.84284933354883 342.18676353371836 z" style="fill:black;stroke:yellow" stroke-width="8.711443514930394" transform="translate(164.16980950300814, -119.60631051404933) rotate(0.6347096747303238 316.28333282470703 233.44166564941406)" onmousedown="tool('Creature-0.742190668121709')" class="creatureClass"><title>Creature-0.742190668121709</title><desc>moveLifePathCreature("Creature-0.742190668121709", 1, 1)</desc></path><image id="Creature-0.5767642834869892" a1:href="creatures/png/bact4.png" xmlns:a1="http://www.w3.org/1999/xlink" opacity="0.7305134107469499" transform="translate(150.69560226200986, -149) rotate(248.77028119515555 694.8166656494141 353.25001525878906)" x="200" y="200" height="120" width="120" onmousedown="tool('Creature-0.5767642834869892')" class="creatureClass"><title>Creature-0.5767642834869892</title><desc>movePsyCreat("Creature-0.5767642834869892", 1, 1)</desc></image><image id="Creature-0.7002251786966301" a2:href="creatures/png/bubble3.png" xmlns:a2="http://www.w3.org/1999/xlink" opacity="0.7486923222085209" transform="translate(30.763230205364778, 422.5567471107797) rotate(0.02788384680832583 42.025001525878906 609.1083297729492)" x="200" y="200" height="120" width="120" onmousedown="tool('Creature-0.7002251786966301')" class="creatureClass"><title>Creature-0.7002251786966301</title><desc>movePsyCreat("Creature-0.7002251786966301", 1, 1)</desc></image><rect id="Creature-0.04035720843189483" x="397.2021906941584" y="190.63170670913632" width="12.962625765354314" height="15.492777618956058" style="fill:brown;stroke:white" transform="translate(-333.8171810927311, 37.97938806902846), rotate(-333.636112232368)" onmousedown="tool('Creature-0.04035720843189483')" class="creatureClass"><title>Creature-0.04035720843189483</title><desc>moveCreature("Creature-0.04035720843189483", -120, -30)</desc></rect></g><image xmlns="http://www.w3.org/2000/svg" id="Creature-0.07935278384693534" a0:href="creatures/png/flower1.png" xmlns:a0="http://www.w3.org/1999/xlink" opacity="0.503568232036662" transform="translate(337.4492731842378, 346.44475765324006) rotate(0.33357472297524576 551.6499938964844 718.5333251953125)" x="200" y="200" height="120" width="120" onmousedown="tool('Creature-0.07935278384693534')" class="creatureClass"><title>Creature-0.07935278384693534</title><desc>movePsyCreat("Creature-0.07935278384693534", 1, 1)</desc></image><path xmlns="http://www.w3.org/2000/svg" id="Creature-0.17534406011050463" d="M 37.11140792038871 52.588984470708674, 116.74522342480411 46.89673488411682, 16.39959220718839 2.7306783677185376, 212.52255613234422 23.710751080484773, 169.24645694922947 78.53445113483201, 206.07264907295894 58.02412058498249, 78.04682091527586 53.94270973687642 z" style="fill:black;stroke:yellow" stroke-width="13.709274346493556" transform="translate(156.31625013159024, 221.20588747532778) rotate(0.06048847267172972 280.39166259765625 359.2000045776367)" onmousedown="tool('Creature-0.17534406011050463')" class="creatureClass"><title>Creature-0.17534406011050463</title><desc>moveLifePathCreature("Creature-0.17534406011050463", 1, 1)</desc></path><image xmlns="http://www.w3.org/2000/svg" id="Creature-0.5767642834869892" a0:href="creatures/png/bact4.png" xmlns:a0="http://www.w3.org/1999/xlink" opacity="0.7305134107469499" transform="translate(150.69560226200986, -149) rotate(248.77028119515555 694.8166656494141 353.25001525878906)" x="200" y="200" height="120" width="120" onmousedown="tool('Creature-0.5767642834869892')" class="creatureClass"><title>Creature-0.5767642834869892</title><desc>movePsyCreat("Creature-0.5767642834869892", 1, 1)</desc></image><image xmlns="http://www.w3.org/2000/svg" id="Creature-0.7002251786966301" a0:href="creatures/png/bubble3.png" xmlns:a0="http://www.w3.org/1999/xlink" opacity="0.7486923222085209" transform="translate(30.763230205364778, 422.5567471107797) rotate(0.02788384680832583 42.025001525878906 609.1083297729492)" x="200" y="200" height="120" width="120" onmousedown="tool('Creature-0.7002251786966301')" class="creatureClass"><title>Creature-0.7002251786966301</title><desc>movePsyCreat("Creature-0.7002251786966301", 1, 1)</desc></image><path xmlns="http://www.w3.org/2000/svg" id="Creature-0.742190668121709" d="M 235.9901932193416 285.82115713604435, 129.91155499250561 280.55807394702214, 114.99346838376216 173.64292187518154, 215.82558412979586 168.68066001574138, 50.09777095066319 334.37454014955546, 233.6971939099807 219.4244036403987, 84.84284933354883 342.18676353371836 z" style="fill:black;stroke:yellow" stroke-width="8.711443514930394" transform="translate(164.16980950300814, -119.60631051404933) rotate(0.6347096747303238 316.28333282470703 233.44166564941406)" onmousedown="tool('Creature-0.742190668121709')" class="creatureClass"><title>Creature-0.742190668121709</title><desc>moveLifePathCreature("Creature-0.742190668121709", 1, 1)</desc></path><rect xmlns="http://www.w3.org/2000/svg" id="Creature-0.04035720843189483" x="397.2021906941584" y="190.63170670913632" width="12.962625765354314" height="15.492777618956058" style="fill:brown;stroke:white" transform="translate(-333.8171810927311, 37.97938806902846), rotate(-333.636112232368)" onmousedown="tool('Creature-0.04035720843189483')" class="creatureClass"><title>Creature-0.04035720843189483</title><desc>moveCreature("Creature-0.04035720843189483", -120, -30)</desc></rect></svg>