<?xml version="1.0" encoding="UTF-8" standalone="no"?>
<!-- Created with Inkscape (http://www.inkscape.org/) -->

<svg
   xmlns:dc="http://purl.org/dc/elements/1.1/"
   xmlns:cc="http://creativecommons.org/ns#"
   xmlns:rdf="http://www.w3.org/1999/02/22-rdf-syntax-ns#"
   xmlns:svg="http://www.w3.org/2000/svg"
   xmlns="http://www.w3.org/2000/svg"
   xmlns:sodipodi="http://sodipodi.sourceforge.net/DTD/sodipodi-0.dtd"
   xmlns:inkscape="http://www.inkscape.org/namespaces/inkscape"
   width="210mm"
   height="297mm"
   viewBox="0 0 744.09448819 1052.3622047"
   id="svg2"
   version="1.1"
   inkscape:version="0.91 r13725"
   sodipodi:docname="ui-new.svg">
  <defs
     id="defs4" />
  <sodipodi:namedview
     id="base"
     pagecolor="#ffffff"
     bordercolor="#666666"
     borderopacity="1.0"
     inkscape:pageopacity="0.0"
     inkscape:pageshadow="2"
     inkscape:zoom="0.35"
     inkscape:cx="-283.57143"
     inkscape:cy="520"
     inkscape:document-units="px"
     inkscape:current-layer="layer1"
     showgrid="false"
     inkscape:window-width="1366"
     inkscape:window-height="706"
     inkscape:window-x="-8"
     inkscape:window-y="-8"
     inkscape:window-maximized="1" />
  <metadata
     id="metadata7">
    <rdf:RDF>
      <cc:Work
         rdf:about="">
        <dc:format>image/svg+xml</dc:format>
        <dc:type
           rdf:resource="http://purl.org/dc/dcmitype/StillImage" />
        <dc:title></dc:title>
      </cc:Work>
    </rdf:RDF>
  </metadata>
  <g
     inkscape:label="Layer 1"
     inkscape:groupmode="layer"
     id="layer1" />
<svg id="svg1" height="450" onload="Start(evt)" version="1.1" width="450" xmlns="http://www.w3.org/2000/svg" xmlns:xlink="http://www.w3.org/1999/xlink"> <script type="text/ecmascript">
   <![CDATA[

    var time = 0;
    var delta_time = 25;
    var max_time = 1000;
    var dir = 1;
	var dir_purple_spiral = 1;
	var opacity_ps = .9;
	
    var the_rect;
    var pink_rect;
    var eg_niblet;
    var eg_medy;
    var eg_biggo;
    var eg_newy;
    var purple_spiral;
    var avril_niblet_1;

	var creatures = svg1;
	
    function Start(evt) {

      the_rect = evt.target.ownerDocument.getElementById("BlueRect");
      pink_rect = evt.target.ownerDocument.getElementById("PinkRect");
      eg_niblet = evt.target.ownerDocument.getElementById("NibletEG");
      eg_medy = evt.target.ownerDocument.getElementById("MedyEG");
      eg_biggo = evt.target.ownerDocument.getElementById("BiggoEG");
      eg_newy = evt.target.ownerDocument.getElementById("NewyEG");
      eg_newy2 = evt.target.ownerDocument.getElementById("NewyEG2");
      purple_spiral = evt.target.ownerDocument.getElementById("PurpleSpiral");
      avril_niblet_1 = evt.target.ownerDocument.getElementById("AvrilNiblet1");
      Oscillate();
    }


	function Save() {
		//creatures = svg1;
		//$var = $_POST['foo'];
		//file_put_contents('file_where_stored_value_is.php', $var);
	}

	function Move(creature, x, y) {
		creature.setAttribute("transform", "translate(x, y)");
	}
	
	function Turn() {
		dir = -dir;
	}
	
	function Act(creature) {
		//creature.setAttribute('fill-opacity',)
		//BiggoEG.setAttribute('fill-opacity','BiggoEG.getAttribute('fill-opacity')*0.9');
		creature.setAttribute('fill-opacity',creature.getAttribute('fill-opacity')*0.9);
	}

	function Speed() {
		delta_time = 1 / delta_time;
	}
	
	function Randomize() {
		time = Math.random()*1000;
	}
	
	function Reverse(creature) {
		dir_purple_spiral = -dir_purple_spiral;
		opacity_ps = opacity_ps * 0.9;
//		opacity_ps = opacity_ps - 0.2;
		purple_spiral.setAttribute('fill-opacity',opacity_ps);
//		purple_spiral.setAttribute('fill-opacity','0.1');
	//	purple_spiral.setAttribute('fill-opacity','0.25');
	//	purple_spiral.setAttribute('fill','fill+1');
		//dir = -dir;
	}

//	function Reverse() {
//		dir = -dir;
//	}

	function MovePurpleSpiral() {
	
	//	Move(purple_spiral);
	//	x_pos_ps = x_pos * 3;
	//	dir_purple_spiral = dir_purple_spiral * x_pos;
		x_pos_ps = (time * 25) / max_time * dir_purple_spiral;
		purple_spiral.setAttribute("transform", "translate(" +x_pos_ps+ ", " +y_pos+ ")");
		//purple_spiral.setAttribute("transform", "rotate(90, 100, 120)");
//		purple_spiral.setAttribute("transform", "rotate(90, " +x_pos_ps+ ", " +y_pos+ ")");

	}
	
    function Oscillate() {

      time = time + dir * delta_time;
      if (time >  max_time)  dir = -1;
      if (time < -max_time)  dir =  1;

      // Calculate x position
      x_pos = (time * 25) / max_time;
      the_rect.setAttribute("transform", "translate(" +x_pos+ ", 0.0 )");
      pink_rect.setAttribute("transform", "translate(" +x_pos+ ", 0.0 )");
      eg_niblet.setAttribute("transform", "translate(" +x_pos+ ", 0.0 )");
      eg_medy.setAttribute("transform", "translate(" +x_pos+ ", 0.0 )");
      eg_biggo.setAttribute("transform", "translate(" +x_pos+ ", 0.0 )");

      // Calculate y position
      y_pos = (time * 25) / max_time;
      eg_medy.setAttribute("transform", "translate(0.0, " +y_pos+ " )");

      // move(purple_spiral, " +x_pos+ ", 0.0);
	  //x_pos_ps = x_pos * 3;
      //purple_spiral.setAttribute("transform", "translate(" +x_pos_ps+ ", " +y_pos+ ")");
		MovePurpleSpiral();
	  
      // Move newyz
      eg_newy.setAttribute("transform", "translate(" +x_pos+ ", " +y_pos+ " )");
      eg_newy2.setAttribute("transform", "translate(" +x_pos+ ", " +y_pos+ " )");
      avril_niblet_1.setAttribute("transform", "translate(" +x_pos+ ", " +y_pos+ " )");


      // Repeat
      setTimeout("Oscillate()", delta_time)
    }

    window.Oscillate = Oscillate

   ]]>
  </script> <rect height="450" id="Border" style="fill:none;stroke:#800080" width="450" x="0" y="0"> </rect> <a style="fill-opacity:0.75" xlink:href="http://life.worldsowisdom.com/flow/"> <rect height="90" id="BlueRect" onmouseout="setAttribute('fill-opacity','0.5')" onmouseover="setAttribute('fill-opacity','1.0')" style="fill:#0000ff;stroke:#000000" width="90" x="150" y="90"> <desc id="desc3364">A clickable square to test simple JavaScript.</desc>
			<title id="title3362"></title>
			</rect> </a> <a style="fill-opacity:0.75" xlink:href="http://life.worldsowisdom.com/flow/"> <rect height="90" id="PinkRect" onmouseout="setAttribute('fill-opacity','0.75')" onmouseover="setAttribute('fill-opacity','1.0')" style="fill:#ff00ff;stroke:#000000" width="90" x="60" y="300"> <desc id="desc3364">A clickable square!</desc>
			<title id="title3362"></title>
			</rect> </a> <a style="fill-opacity:0.75" xlink:href="http://life.worldsowisdom.com/flow/"> <rect height="90" id="YellowRect" onmouseout="setAttribute('fill-opacity','0.5')" onmouseover="setAttribute('fill-opacity','1.0')" style="fill:yellow;stroke:#000000" width="90" x="150" y="90"> <desc id="desc3364">A clickable square!</desc>
			<title id="title3362"></title>
			</rect> </a> <a style="fill-opacity:0.75" xlink:href="http://life.worldsowisdom.com/flow/"> <rect height="90" id="OrangeRect" onmouseout="setAttribute('fill-opacity','0.75')" onmouseover="setAttribute('fill-opacity','1.0')" style="fill:orange;stroke:#000000" width="90" x="60" y="300"> <desc id="desc3364">A clickable square!</desc>
			<title id="title3362"></title>
			</rect> </a> <a style="fill-opacity:0.75" xlink:href="http://life.worldsowisdom.com/flow/"> <circle height="90" id="PurpleSpiral2" onmouseout="setAttribute('fill-opacity','0.75')" onmouseover="setAttribute('fill-opacity','1.0')" style="fill:purple;stroke:#000000" width="90" x="60" y="300"> <desc id="desc3364">A clickable square!</desc>
			<title id="title3362"></title>
			</circle> </a> 
			
			<path fill-opacity=opacity_ps onmousedown="Reverse(PurpleSpiral)" id="PurpleSpiral" d="m 282.09113,269.50729 c 1.52075,1.52076 -1.29967,2.80025 -2.52761,2.52761 -3.32763,-0.73884 -3.86257,-5.00113 -2.5276,-7.58281 2.38796,-4.61803 8.58895,-5.15902 12.63801,-2.5276 5.94217,3.86172 6.4939,12.22544 2.5276,17.69322 -5.28645,7.28768 -15.87921,7.84514 -22.74842,2.52759 -8.6442,-6.69159 -9.20486,-19.54122 -2.5276,-27.80363 8.08706,-10.00688 23.20787,-10.56947 32.85884,-2.52759 11.37333,9.47708 11.93717,26.8774 2.52759,37.91404 -10.86373,12.74223 -30.54887,13.30692 -42.96924,2.52759 -14.11282,-12.24817 -14.67812,-34.22169 -2.52759,-48.02445 13.63105,-15.4846 37.8955,-16.05034 53.07965,-2.52759 16.85728,15.01283 17.42336,41.57006 2.52759,58.13486" id="path4800" inkscape:tile-cx="185.6451" inkscape:tile-cy="265.9547" inkscape:tile-h="68.00056" inkscape:tile-w="75.106916" inkscape:tile-x0="148.09164" inkscape:tile-y0="231.95443" sodipodi:argument="-18.064157" sodipodi:cx="182.09113" sodipodi:cy="269.50729" sodipodi:expansion="1" sodipodi:radius="42.894836" sodipodi:revolution="3" sodipodi:t0="0" sodipodi:type="spiral" style="fill:#800080;fill-rule:evenodd;stroke:#000000;stroke-width:0.2081555px;stroke-linecap:butt;stroke-linejoin:miter;stroke-opacity:1"></path> 

			<a style="fill-opacity:0.75" xlink:href="http://life.worldsowisdom.com/flow/"> <rect height="10" id="NibletEG" onmouseout="setAttribute('fill-opacity','0.5')" onmouseover="setAttribute('fill-opacity','1.0')" style="fill:green;stroke:lightgreen" width="10" x="300" y="300"> <desc id="desc3364">A clickable square to test simple JavaScript.</desc>
			<title id="title3362"></title>
			</rect> </a> 
			
			
			<!--abejita!-->
		
			<a style="fill-opacity:0.75" xlink:href="http://life.worldsowisdom.com/flow/abejita.html"><rect height="10" id="AvrilNiblet1" onmouseout="setAttribute('fill-opacity','0.5')" onmouseover="setAttribute('fill-opacity','1.0')" style="fill:yellow;stroke:black" width="10" x="225" y="225"> <desc id="desc3364">Avril's first little niblet! :)</desc>
			<title id="title3362"></title>
			</rect> </a> 



		
			<a style="fill-opacity:0.75" xlink:href="http://life.worldsowisdom.com/flow/"> 
			    <g
       id="MedyEG"
	   onmouseout="setAttribute('fill-opacity','0.1')" onmouseover="setAttribute('fill-opacity','1.0')" >
	   
      <rect
         style="opacity:0.87000002;fill:#0000ff;fill-opacity:1;stroke:#0000ff;stroke-width:0.6047619;stroke-miterlimit:4;stroke-dasharray:none"
         id="rect6509"
         width="63.533783"
         height="31.766891"
         x="59.868374"
         y="281.74832" />
      <path
         style="opacity:0.87000002;fill:#ff8080;fill-opacity:1;stroke:#0000ff;stroke-width:0.6047619;stroke-miterlimit:4;stroke-dasharray:none"
         id="path6511"
         d="m 81.860835,300.07539 -6.160837,-1.4834 -4.714657,4.23419 -0.493011,-6.31769 -5.483865,-3.17547 5.856139,-2.42116 1.325442,-6.19674 4.112304,4.82134 6.303033,-0.65433 -3.314595,5.40091 z" />
      <path
         style="opacity:0.87000002;fill:#ff8080;fill-opacity:1;stroke:#0000ff;stroke-width:0.6047619;stroke-miterlimit:4;stroke-dasharray:none"
         id="path6513"
         d="m 108.74051,312.2934 -1.06782,-3.99694 -3.89796,-1.38629 3.47135,-2.25068 0.1139,-4.13556 3.21323,2.60595 3.96835,-1.16963 -1.48546,3.86124 2.33867,3.41269 -4.13129,-0.21956 z" />
      <path
         style="opacity:0.87000002;fill:#ff8080;fill-opacity:1;stroke:#0000ff;stroke-width:0.6047619;stroke-miterlimit:4;stroke-dasharray:none"
         id="path6515"
         d="m 92.857067,295.18814 -2.173306,-0.73698 -1.839194,1.3725 0.02933,-2.29468 -1.873674,-1.32505 2.191432,-0.6812 0.6812,-2.19143 1.32505,1.87368 2.294678,-0.0293 -1.372506,1.8392 z" />
      <path
         style="opacity:0.87000002;fill:#ff8080;fill-opacity:1;stroke:#0000ff;stroke-width:0.6047619;stroke-miterlimit:4;stroke-dasharray:none"
         id="path6517"
         d="m 84.736419,309.55335 2.201552,-4.70569 -2.628342,-4.48131 5.155694,0.63966 3.44978,-3.8845 0.984842,5.10102 4.760422,2.08056 -4.547027,2.51294 -0.507677,5.17036 -3.79506,-3.54794 z" />
    </g>
 </a> 
			
			
			    <a xlink:href="http://life.worldsowisdom.com/flow/"><g
       id="BiggoEG"
	   onmouseout="setAttribute('fill-opacity','0.25')" onmouseover="setAttribute('fill-opacity','1.0')">
      <desc
         id="desc4151">A big creature for LifeFLOW! :)</desc>
      <circle
         r="29.934187"
         cy="259.14496"
         cx="302.39636"
         id="path4137"
         style="opacity:0.28999999;fill:#ffff00;stroke:#800080;stroke-width:0.6047619" />
      <circle
         r="7.3308215"
         cy="265.86487"
         cx="307.8945"
         id="path4139"
         style="opacity:0.28999999;fill:#ffff00;stroke:#800080;stroke-width:0.6047619" />
      <ellipse
         ry="10.996231"
         rx="3.6654108"
         cy="251.20323"
         cx="292.01105"
         id="path4141"
         style="opacity:0.28999999;fill:#0000ff;stroke:#800080;stroke-width:0.6047619" />
      <ellipse
         ry="3.6654108"
         rx="9.7744284"
         cy="253.64687"
         cx="317.66891"
         id="path4143"
         style="opacity:0.28999999;fill:#0000ff;stroke:#800080;stroke-width:0.6047619" />
    </g></a>

			
<a style="fill-opacity:0.75" xlink:href="http://life.worldsowisdom.com/flow/"> <circle cx="225" cy="375" id="NewyEG" onmouseout="setAttribute('fill-opacity','0.1')" onmouseover="setAttribute('fill-opacity','1.0')" r="30" style="fill:blue;stroke:green"> <desc id="desc3364">A new creature!</desc>
			<title id="title3362"></title>
			</circle> </a> 

<a style="fill-opacity:0.75" xlink:href="http://life.worldsowisdom.com/flow/"> <circle cx="115" cy="175" id="NewyEG2" onmouseout="setAttribute('fill-opacity','0.1')" onmouseover="setAttribute('fill-opacity','1.0')" r="30" style="fill:black;stroke:red"> <desc id="desc3364">A new creature!</desc>
			<title id="title3362"></title>
			</circle> </a> 


<a style="fill-opacity:0.75" xlink:href="https://www.paypal.com/cgi-bin/webscr?cmd=_s-xclick&hosted_button_id=TLUCRBGYW5XTS"> <rect height="10" id="NibletEGdemo" onmouseout="setAttribute('fill-opacity','0.5')" onmouseover="setAttribute('fill-opacity','1.0')" style="fill:green;stroke:lightgreen" width="10" x="300" y="30"> <desc id="desc3364">A clickable square to test simple JavaScript.</desc>
			<title id="title3362"></title>
			</rect> </a> 

			<a style="fill-opacity:0.75" xlink:href="https://www.paypal.com/cgi-bin/webscr?cmd=_s-xclick&hosted_button_id=V5C7SW55G7J2S"><text x="300" y="15" font-family="Verdana" font-size="15">CONTRIBUTE! :)</text></a>

			<a style="fill-opacity:0.75" xlink:href="https://www.paypal.com/cgi-bin/webscr?cmd=_s-xclick&hosted_button_id=TLUCRBGYW5XTS"><text x="300" y="60">Little niblet! :)</text></a>
<a style="fill-opacity:0.75" xlink:href="https://www.paypal.com/cgi-bin/webscr?cmd=_s-xclick&hosted_button_id=SBNNRLFPME2UN">
 <g
       id="MedyEGdemo"
	   onmouseout="setAttribute('fill-opacity','0.1')" onmouseover="setAttribute('fill-opacity','1.0')" >
	   
      <rect
         style="opacity:0.87000002;fill:#0000ff;fill-opacity:1;stroke:#0000ff;stroke-width:0.6047619;stroke-miterlimit:4;stroke-dasharray:none"
         id="rect6509"
         width="63.533783"
         height="31.766891"
         x="300"
         y="75" />
      <path
         style="opacity:0.87000002;fill:#ff8080;fill-opacity:1;stroke:#0000ff;stroke-width:0.6047619;stroke-miterlimit:4;stroke-dasharray:none"
         id="path6511"
         d="m 360,102 -6.160837,-1.4834 -4.714657,4.23419 -0.493011,-6.31769 -5.483865,-3.17547 5.856139,-2.42116 1.325442,-6.19674 4.112304,4.82134 6.303033,-0.65433 -3.314595,5.40091 z" />
      <path
         style="opacity:0.87000002;fill:#ff8080;fill-opacity:1;stroke:#0000ff;stroke-width:0.6047619;stroke-miterlimit:4;stroke-dasharray:none"
         id="path6513"
         d="m 320,90 -1.06782,-3.99694 -3.89796,-1.38629 3.47135,-2.25068 0.1139,-4.13556 3.21323,2.60595 3.96835,-1.16963 -1.48546,3.86124 2.33867,3.41269 -4.13129,-0.21956 z" />
      <path
         style="opacity:0.87000002;fill:#ff8080;fill-opacity:1;stroke:#0000ff;stroke-width:0.6047619;stroke-miterlimit:4;stroke-dasharray:none"
         id="path6515"
         d="m 315,88 -2.173306,-0.73698 -1.839194,1.3725 0.02933,-2.29468 -1.873674,-1.32505 2.191432,-0.6812 0.6812,-2.19143 1.32505,1.87368 2.294678,-0.0293 -1.372506,1.8392 z" />
      <path
         style="opacity:0.87000002;fill:#ff8080;fill-opacity:1;stroke:#0000ff;stroke-width:0.6047619;stroke-miterlimit:4;stroke-dasharray:none"
         id="path6517"
         d="m 330,90 2.201552,-4.70569 -2.628342,-4.48131 5.155694,0.63966 3.44978,-3.8845 0.984842,5.10102 4.760422,2.08056 -4.547027,2.51294 -0.507677,5.17036 -3.79506,-3.54794 z" />
    </g>
</a> 


			<a style="fill-opacity:0.75" xlink:href="https://www.paypal.com/cgi-bin/webscr?cmd=_s-xclick&hosted_button_id=SBNNRLFPME2UN"><text x="300" y="120">Medium creature! :)</text></a>
<a style="fill-opacity:0.75" xlink:href="https://www.paypal.com/cgi-bin/webscr?cmd=_s-xclick&hosted_button_id=V5C7SW55G7J2S"> 
	<g
       id="BiggoEGdemo"
	   onmouseout="setAttribute('fill-opacity','0.5')" onmouseover="setAttribute('fill-opacity','1.0')">
      <desc
         id="desc4151">A big creature for LifeFLOW! :)</desc>
      <circle
         r="30"
         cy="160"
         cx="330"
         id="path4137"
         style="opacity:0.28999999;fill:#ffff00;stroke:#800080;stroke-width:0.6047619" />
      <circle
         r="7.3308215"
         cy="165"
         cx="337"
         id="path4139"
         style="opacity:0.28999999;fill:#ffff00;stroke:#800080;stroke-width:0.6047619" />
      <ellipse
         ry="10.996231"
         rx="3.6654108"
         cy="147"
         cx="322"
         id="path4141"
         style="opacity:0.28999999;fill:#0000ff;stroke:#800080;stroke-width:0.6047619" />
      <ellipse
         ry="3.6654108"
         rx="9.7744284"
         cy="170"
         cx="315"
         id="path4143"
         style="opacity:0.28999999;fill:#0000ff;stroke:#800080;stroke-width:0.6047619" />
    </g></a>



			<a style="fill-opacity:0.75" xlink:href="https://www.paypal.com/cgi-bin/webscr?cmd=_s-xclick&hosted_button_id=V5C7SW55G7J2S"><text x="300" y="210">Big beauty! :)</text></a>
			


		<!-- text menu items -->
			
			<text x="100" y="400" opacity="0.1" onmousedown="Turn()" onmouseover="setAttribute('opacity','0.75')" onmouseout="setAttribute('opacity','0.1')" onmouseover="setAttribute('transform', 'translate(" +x_pos+ ", 0.0 )')">Reverse the flow! :)</text>
			<text x="200" y="400" opacity="0.1" onmousedown="Speed()" onmouseover="setAttribute('opacity','0.75')" onmouseout="setAttribute('opacity','0.1')" onmouseover="setAttribute('transform', 'translate(" +x_pos+ ", 0.0 )')">Pause/Resume! :)</text>
			<text x="300" y="400" opacity="0.1" onmousedown="Randomize()" onmouseover="setAttribute('opacity','0.75')" onmouseout="setAttribute('opacity','0.1')" onmouseover="setAttribute('transform', 'translate(" +x_pos+ ", 0.0 )')">Flow Forth! :)</text>

		<!-- graphical buttons -->
			
			<a style="fill-opacity:0.75" xlink:href="https://www.paypal.com/cgi-bin/webscr?cmd=_s-xclick&hosted_button_id=TLUCRBGYW5XTS"> 
			<rect height="32" width="32" x="30" y="400" id="Button1" onmouseout="setAttribute('fill-opacity','0.5')" onmouseover="setAttribute('fill-opacity','1.0')" style="fill:green;stroke:lightgreen"> <desc id="First button on toolbar! :)">A clickable square to test simple JavaScript.</desc></title>
			</rect> </a> 

    <g
       id="g4339">
      <desc
         id="desc4343">investigate icon</desc>
      <rect
         y="415"
         x="45"
         height="9.8658857"
         width="4.8658862"
         id="rect4335"
         style="opacity:1;fill:#00ffff;stroke:#0000ff;stroke-width:0.13411406;stroke-miterlimit:4;stroke-dasharray:none" />
      <ellipse
         ry="4.8638129"
         rx="4.8638134"
         cy="415"
         cx="45"
         id="path4337"
         style="opacity:1;fill:#00ffff;stroke:#0000ff;stroke-width:0.27237353;stroke-miterlimit:4;stroke-dasharray:none" />
    </g>
			
			
			<rect height="32" width="32" x="70" y="400" id="Button2" onmousedown="Turn()" onmouseout="setAttribute('fill-opacity','0.5')" onmouseover="setAttribute('fill-opacity','1.0')" style="fill:green;stroke:lightgreen"> <desc id="First button on toolbar! :)">A clickable square to test simple JavaScript.</desc>
			</rect>

				<path
				   style="opacity:1;fill:#00ffff;stroke:#800080;stroke-width:0.18216613"
				   id="path4136"
				   onmousedown="Turn()" onmouseout="setAttribute('fill-opacity','0.5')" onmouseover="setAttribute('fill-opacity','1.0')" 
				   d="m 82,402 c 2.50289,-0.15428 5.00444,-0.0471 7.50749,0.0373 2.46447,0.0996 4.84471,0.59894 7.15284,1.40694 1.35134,0.51927 2.60501,1.16584 3.68248,2.11325 0.93505,0.92641 1.18752,2.08797 1.28979,3.32895 0.0332,2.2365 -1.05468,4.26562 -2.09359,6.20274 -0.74075,1.50129 -1.6671,2.86523 -2.96509,3.96219 -2.59849,1.8482 -5.62791,3.21097 -8.38422,4.70659 -0.60095,0.32609 -1.20977,0.58392 -1.85521,0.81378 -0.6246,0.31049 -1.23227,0.64964 -1.86834,0.93735 0,0 6.08357,-4.69345 6.08357,-4.69345 l 0,0 c 0.61334,-0.31325 1.23251,-0.61922 1.87681,-0.8697 0.77525,-0.332 0.36756,-0.14869 1.15762,-0.52389 0.2133,-0.1013 0.84425,-0.42103 0.64006,-0.30357 -10.5777,6.08457 -7.09397,4.069 -4.84846,2.70008 1.4593,-0.92444 2.49046,-2.2502 3.27423,-3.74737 1.03534,-1.77706 2.06917,-3.65567 2.11746,-5.74175 -0.0909,-1.03726 -0.21312,-2.05129 -1.01108,-2.82853 -1.01695,-0.85491 -2.22583,-1.41649 -3.46208,-1.92111 -2.19344,-0.8105 -4.48887,-1.2463 -6.84144,-1.32905 -2.56308,-0.0817 -5.18733,-0.21933 -7.70234,0.35936 0,0 6.2495,-4.61008 6.2495,-4.61008 z"
				   inkscape:connector-curvature="0" />
				<path
				   inkscape:connector-curvature="0"
				   onmousedown="Turn()" onmouseout="setAttribute('fill-opacity','0.5')" onmouseover="setAttribute('fill-opacity','1.0')" 
				   d="m 92,430 c -2.50289,0.15428 -5.00444,0.0471 -7.50749,-0.0373 -2.46447,-0.0996 -4.84471,-0.59894 -7.15284,-1.40694 -1.35134,-0.51927 -2.60501,-1.16584 -3.68248,-2.11325 -0.93505,-0.92641 -1.18752,-2.08797 -1.28979,-3.32895 -0.0332,-2.2365 1.05468,-4.26562 2.09359,-6.20274 0.74075,-1.50129 1.6671,-2.86523 2.96509,-3.96219 2.59849,-1.8482 5.62791,-3.21097 8.38422,-4.70659 0.60095,-0.32609 1.20977,-0.58392 1.85521,-0.81378 0.6246,-0.31049 1.23227,-0.64964 1.86834,-0.93735 0,0 -6.08357,4.69345 -6.08357,4.69345 l 0,0 c -0.61334,0.31325 -1.23251,0.61922 -1.87681,0.8697 -0.77525,0.332 -0.36756,0.14869 -1.15762,0.52389 -0.2133,0.1013 -0.84425,0.42103 -0.64006,0.30357 10.5777,-6.08457 7.09397,-4.069 4.84846,-2.70008 -1.4593,0.92444 -2.49046,2.2502 -3.27423,3.74737 -1.03534,1.77706 -2.06917,3.65567 -2.11746,5.74175 0.0909,1.03726 0.21312,2.05129 1.01108,2.82853 1.01695,0.85491 2.22583,1.41649 3.46208,1.92111 2.19344,0.8105 4.48887,1.2463 6.84144,1.32905 2.56308,0.0817 5.18733,0.21933 7.70234,-0.35936 0,0 -6.2495,4.61008 -6.2495,4.61008 z"
				   id="path4147"
				   style="opacity:1;fill:#0000ff;stroke:#800080;stroke-width:0.18216613" />

				   
			<rect height="32" width="32" x="110" y="400" id="Button3" onmousedown="Speed()" onmouseout="setAttribute('fill-opacity','0.5')" onmouseover="setAttribute('fill-opacity','1.0')" style="fill:green;stroke:lightgreen"> <desc id="First button on toolbar! :)">A clickable square to test simple JavaScript.</desc>
			</rect>
			
			
    <g
		onmousedown="Speed()"
       id="g4349">
      <desc
         id="desc4353">move icon</desc>
      <path
         inkscape:connector-curvature="0"
         d="m 118,405 c 2.34949,0.62488 4.64194,1.41706 7.00388,1.9962 3.54565,0.74369 7.16208,1.04609 10.77317,1.24807 1.93138,0.12749 3.86839,0.11921 5.72955,-0.44216 0,0 -5.65785,4.32362 -5.65785,4.32362 l 0,0 c -1.85435,0.3595 -3.74107,0.27347 -5.6147,0.0878 -3.64562,-0.30015 -7.32684,-0.49691 -10.90386,-1.30362 -2.43924,-0.62037 -4.84433,-1.41164 -7.34327,-1.76227 0,0 6.01308,-4.14759 6.01308,-4.14759 z"
         id="path4345"
         style="opacity:1;fill:#00ffff;stroke:#0000ff;stroke-width:0.24354082;stroke-miterlimit:4;stroke-dasharray:none" />
      <path
         style="opacity:1;fill:#0000ff;stroke:#0000ff;stroke-width:0.24354082;stroke-miterlimit:4;stroke-dasharray:none"
         id="path4347"
         d="m 118,425 c 2.34949,-0.62487 4.64194,-1.41706 7.00388,-1.9962 3.54565,-0.74369 7.16208,-1.04609 10.77317,-1.24807 1.93138,-0.12749 3.86839,-0.11921 5.72955,0.44216 0,0 -5.65785,-4.32362 -5.65785,-4.32362 l 0,0 c -1.85435,-0.3595 -3.74107,-0.27347 -5.6147,-0.0878 -3.64562,0.30015 -7.32684,0.49691 -10.90386,1.30362 -2.43924,0.62037 -4.84433,1.41164 -7.34327,1.76227 0,0 6.01308,4.14759 6.01308,4.14759 z"
         inkscape:connector-curvature="0" />
    </g>

	
			<rect height="32" width="32" x="150" y="400" id="Button4"  style="fill:yellow;stroke:lightgreen;opacity:0.75" onmousedown="Turn()" onmouseout="setAttribute('fill-opacity','0.75')" onmouseover="setAttribute('fill-opacity','1.0')"> <desc id="First button on toolbar! :)">A clickable square to test simple JavaScript.</desc>
			</rect>

			
			    <g
       id="g4367">
      <path
         d="m 177,408 c -0.62488,2.34949 -1.41706,4.64194 -1.9962,7.00388 -0.74369,3.54565 -1.04609,7.16208 -1.24807,10.77317 -0.12749,1.93138 -0.11921,3.86839 0.44216,5.72955 0,0 -4.32362,-5.65785 -4.32362,-5.65785 l 0,0 c -0.3595,-1.85435 -0.27347,-3.74107 -0.0878,-5.6147 0.30015,-3.64562 0.49691,-7.32684 1.30362,-10.90386 0.62037,-2.43924 1.41164,-4.84433 1.76227,-7.34327 0,0 4.14759,6.01308 4.14759,6.01308 z"
         id="path4361"
         style="opacity:1;fill:#008000;stroke:#0000ff;stroke-width:0.24354082;stroke-miterlimit:4;stroke-dasharray:none" />
      <path
         style="opacity:1;fill:#0000ff;stroke:#0000ff;stroke-width:0.24354082;stroke-miterlimit:4;stroke-dasharray:none"
         id="path4363"
         d="m 157,408 c 0.62487,2.34949 1.41706,4.64194 1.9962,7.00388 0.74369,3.54565 1.04609,7.16208 1.24807,10.77317 0.12749,1.93138 0.11921,3.86839 -0.44216,5.72955 0,0 4.32362,-5.65785 4.32362,-5.65785 l 0,0 c 0.3595,-1.85435 0.27347,-3.74107 0.0878,-5.6147 -0.30015,-3.64562 -0.49691,-7.32684 -1.30362,-10.90386 -0.62037,-2.43924 -1.41164,-4.84433 -1.76227,-7.34327 0,0 -4.14759,6.01308 -4.14759,6.01308 z" />
    </g>

			
			
			<a style="fill-opacity:0.75" xlink:href="https://www.paypal.com/cgi-bin/webscr?cmd=_s-xclick&hosted_button_id=TLUCRBGYW5XTS">
			<rect height="32" width="32" x="190" y="400" id="Button5" onmouseout="setAttribute('fill-opacity','0.5')" onmouseover="setAttribute('fill-opacity','1.0')" style="fill:red;stroke:pink"> <desc id="First button on toolbar! :)">A clickable square to test simple JavaScript.</desc>
			</rect> </a> 
			
			
			
    <g
       id="g4379">
      <path
         inkscape:connector-curvature="0"
         d="m 196,425 c 0.62488,-2.34949 1.41706,-4.64194 1.9962,-7.00388 0.74369,-3.54565 1.04609,-7.16208 1.24807,-10.77317 0.12749,-1.93138 0.11921,-3.86839 -0.44216,-5.72955 0,0 4.32362,5.65785 4.32362,5.65785 l 0,0 c 0.3595,1.85435 0.27347,3.74107 0.0878,5.6147 -0.30015,3.64562 -0.49691,7.32684 -1.30362,10.90386 -0.62037,2.43924 -1.41164,4.84433 -1.76227,7.34327 0,0 -4.14759,-6.01308 -4.14759,-6.01308 z"
         id="path4373"
         style="opacity:1;fill:#ff0000;stroke:#0000ff;stroke-width:0.24354082;stroke-miterlimit:4;stroke-dasharray:none" />
      <path
         style="opacity:1;fill:#ffff00;stroke:#0000ff;stroke-width:0.24354082;stroke-miterlimit:4;stroke-dasharray:none"
         id="path4375"
         d="m 216,425 c -0.62487,-2.34949 -1.41706,-4.64194 -1.9962,-7.00388 -0.74369,-3.54565 -1.04609,-7.16208 -1.24807,-10.77317 -0.12749,-1.93138 -0.11921,-3.86839 0.44216,-5.72955 0,0 -4.32362,5.65785 -4.32362,5.65785 l 0,0 c -0.3595,1.85435 -0.27347,3.74107 -0.0878,5.6147 0.30015,3.64562 0.49691,7.32684 1.30362,10.90386 0.62037,2.43924 1.41164,4.84433 1.76227,7.34327 0,0 4.14759,-6.01308 4.14759,-6.01308 z"
         inkscape:connector-curvature="0" />
    </g>

	<!-- button 6 -->
			
			<rect height="32" width="32" x="230" y="400" id="Button6" onmousedown="Act(BiggoEG)" onmouseout="setAttribute('fill-opacity','0.5')" onmouseover="setAttribute('fill-opacity','1.0')" style="fill:brown;stroke:orange"> <desc id="First button on toolbar! :)">A clickable square to test simple JavaScript.</desc>
			</rect>

			
			    <g
       id="g4431">
      <path
         style="opacity:1;fill:#ff0000;stroke:#0000ff;stroke-width:0.74645996;stroke-miterlimit:4;stroke-dasharray:none"
         id="path4419"
         d="m 256,402 c -2.15738,2.87358 -4.02933,5.97792 -5.58282,9.21883 -0.40965,0.85464 -0.77204,1.73116 -1.15806,2.59674 -0.92857,2.2163 -1.57914,4.52929 -2.20773,6.84326 -0.35264,1.29816 -0.52081,2.1214 -1.01004,3.38086 -0.24992,0.64338 -0.55484,1.26402 -0.83226,1.89603 -0.34179,0.66061 -0.68358,1.32123 -1.02537,1.98184 0,0 -4.53032,2.04296 -4.53032,2.04296 l 0,0 c 0.33011,-0.64291 0.66021,-1.28582 0.99031,-1.92873 0.25899,-0.60814 0.53843,-1.20797 0.77698,-1.82442 1.32045,-3.41221 2.02512,-7.047 3.50388,-10.40524 1.73774,-3.99327 3.68289,-7.89361 6.02239,-11.57353 0,0 5.05304,-2.2286 5.05304,-2.2286 z"
         inkscape:connector-curvature="0" />
      <path
         inkscape:connector-curvature="0"
         d="m 255,430 c -1.4099,-3.30514 -3.16236,-6.47846 -5.19233,-9.44427 -0.53532,-0.78209 -1.11321,-1.53419 -1.66981,-2.30128 -1.45509,-1.91232 -3.13291,-3.63223 -4.82257,-5.33358 -0.94792,-0.95448 -1.57679,-1.51174 -2.42289,-2.56515 -0.43223,-0.53813 -0.81726,-1.11252 -1.22588,-1.66878 -0.40122,-0.62631 -0.80243,-1.25261 -1.20364,-1.87891 0,0 0.4959,-4.94486 0.4959,-4.94486 l 0,0 c 0.39172,0.60734 0.78345,1.21467 1.17518,1.822 0.39716,0.52836 0.77691,1.07028 1.1915,1.5851 2.29483,2.84964 5.09032,5.2773 7.25926,8.23707 2.5894,3.50156 4.99462,7.13627 7.01178,11.00229 0,0 -0.5965,5.49037 -0.5965,5.49037 z"
         id="path4421"
         style="opacity:1;fill:#ff0000;stroke:#0000ff;stroke-width:0.74645996;stroke-miterlimit:4;stroke-dasharray:none" />
    </g>
			
			<a style="fill-opacity:0.75" xlink:href="https://www.paypal.com/cgi-bin/webscr?cmd=_s-xclick&hosted_button_id=TLUCRBGYW5XTS">
			<rect height="32" width="32" x="270" y="400" id="Button7" onmouseout="setAttribute('fill-opacity','0.5')" onmouseover="setAttribute('fill-opacity','1.0')" style="fill:blue;stroke:lightgreen"> <desc id="First button on toolbar! :)">A clickable square to test simple JavaScript.</desc>
			</rect> </a> 
			
			
			
			
			<g
       id="g4411">
      <path
         inkscape:connector-curvature="0"
         d="m 280,430 c 2.15738,-2.87358 4.02933,-5.97792 5.58282,-9.21883 0.40965,-0.85464 0.77204,-1.73116 1.15806,-2.59674 0.92857,-2.2163 1.57914,-4.52929 2.20773,-6.84326 0.35264,-1.29816 0.52081,-2.1214 1.01004,-3.38086 0.24992,-0.64338 0.55484,-1.26402 0.83226,-1.89603 0.34179,-0.66061 0.68358,-1.32123 1.02537,-1.98184 0,0 4.53032,-2.04296 4.53032,-2.04296 l 0,0 c -0.33011,0.64291 -0.66021,1.28582 -0.99031,1.92873 -0.25899,0.60814 -0.53843,1.20797 -0.77698,1.82442 -1.32045,3.41221 -2.02512,7.047 -3.50388,10.40524 -1.73774,3.99327 -3.68289,7.89361 -6.02239,11.57353 0,0 -5.05304,2.2286 -5.05304,2.2286 z"
         id="path4391"
         style="opacity:1;fill:#ffff00;stroke:#0000ff;stroke-width:0.74645996;stroke-miterlimit:4;stroke-dasharray:none" />
      <path
         style="opacity:1;fill:#ffff00;stroke:#0000ff;stroke-width:0.74645996;stroke-miterlimit:4;stroke-dasharray:none"
         id="path4393"
         d="m 278,403 c 1.4099,3.30514 3.16236,6.47846 5.19233,9.44427 0.53532,0.78209 1.11321,1.53419 1.66981,2.30128 1.45509,1.91232 3.13291,3.63223 4.82257,5.33358 0.94792,0.95448 1.57679,1.51174 2.42289,2.56515 0.43223,0.53813 0.81726,1.11252 1.22588,1.66878 0.40122,0.62631 0.80243,1.25261 1.20364,1.87891 0,0 -0.4959,4.94486 -0.4959,4.94486 l 0,0 c -0.39172,-0.60734 -0.78345,-1.21467 -1.17518,-1.822 -0.39716,-0.52836 -0.77691,-1.07028 -1.1915,-1.5851 -2.29483,-2.84964 -5.09032,-5.2773 -7.25926,-8.23707 -2.5894,-3.50156 -4.99462,-7.13627 -7.01178,-11.00229 0,0 0.5965,-5.49037 0.5965,-5.49037 z"
         inkscape:connector-curvature="0" />
      <path
         inkscape:connector-curvature="0"
         d="m 282,418 c -0.5499,1.28911 -1.23342,2.52681 -2.02517,3.68357 -0.20879,0.30504 -0.43419,0.59839 -0.65128,0.89757 -0.56753,0.74588 -1.22193,1.41669 -1.88096,2.08028 -0.36972,0.37227 -0.61499,0.58962 -0.945,1.00048 -0.16858,0.20989 -0.31876,0.43392 -0.47813,0.65088 -0.15649,0.24428 -0.31298,0.48856 -0.46947,0.73284 0,0 0.19342,1.92865 0.19342,1.92865 l 0,0 c 0.15279,-0.23688 0.30558,-0.47376 0.45836,-0.71064 0.15491,-0.20607 0.30302,-0.41744 0.46473,-0.61824 0.89505,-1.11145 1.98539,-2.05831 2.83134,-3.21272 1.00995,-1.36572 1.94807,-2.78338 2.73482,-4.29125 0,0 -0.23266,-2.14142 -0.23266,-2.14142 z"
         id="path4395"
         style="opacity:1;fill:#ffff00;stroke:#0000ff;stroke-width:0.29114342;stroke-miterlimit:4;stroke-dasharray:none" />
      <path
         style="opacity:1;fill:#ffff00;stroke:#0000ff;stroke-width:0.29114342;stroke-miterlimit:4;stroke-dasharray:none"
         id="path4397"
         d="m 288,412 c -0.84146,-1.12078 -1.57157,-2.33157 -2.17748,-3.59563 -0.15978,-0.33334 -0.30112,-0.67521 -0.45168,-1.01282 -0.36218,-0.86443 -0.61592,-1.76656 -0.86109,-2.66909 -0.13754,-0.50632 -0.20313,-0.82741 -0.39394,-1.31864 -0.0975,-0.25094 -0.21641,-0.493 -0.32462,-0.73951 -0.13331,-0.25766 -0.26661,-0.51532 -0.39992,-0.77299 0,0 -1.76697,-0.79682 -1.76697,-0.79682 l 0,0 c 0.12875,0.25077 0.25749,0.50152 0.38625,0.75227 0.10101,0.23719 0.21001,0.47115 0.30305,0.71159 0.51501,1.33086 0.78986,2.74855 1.36662,4.05838 0.67777,1.5575 1.43645,3.07876 2.34893,4.51404 0,0 1.97085,0.86922 1.97085,0.86922 z"
         inkscape:connector-curvature="0" />
    </g>
    
			

			<a style="fill-opacity:0.75" xlink:href="https://www.paypal.com/cgi-bin/webscr?cmd=_s-xclick&hosted_button_id=TLUCRBGYW5XTS">
			<rect height="32" width="32" x="310" y="400" id="Button8" onmouseout="setAttribute('fill-opacity','0.5')" onmouseover="setAttribute('fill-opacity','1.0')" style="fill:purple;stroke:lightpurple"> <desc id="First button on toolbar! :)">A clickable square to test simple JavaScript.</desc>
			</rect> </a> 


			
				    <rect
       style="opacity:1;fill:#00ff00;stroke:#008000"
       id="rect4309"
       width="20"
       height="20"
       x="316"
       y="406">
      <desc
         id="desc4311">Save icon</desc>
    </rect>


			
			<a style="fill-opacity:0.75" xlink:href="https://www.paypal.com/cgi-bin/webscr?cmd=_s-xclick&hosted_button_id=TLUCRBGYW5XTS">
			<rect height="32" width="32" x="350" y="400" id="Button8" onmouseout="setAttribute('fill-opacity','0.5')" onmouseover="setAttribute('fill-opacity','1.0')" style="fill:blue;stroke:lightblue"> <desc id="First button on toolbar! :)">A clickable square to test simple JavaScript.</desc>
			</rect> </a> 
			
			
			<rect
       style="opacity:1;fill:#00ffff;stroke:#0000ff"
       id="rect4309"
       width="20"
       height="20"
       x="356"
       y="406">
      <desc
         id="desc4311">Save icon</desc>
    </rect>


			
			<a style="fill-opacity:0.75" xlink:href="https://www.paypal.com/cgi-bin/webscr?cmd=_s-xclick&hosted_button_id=TLUCRBGYW5XTS">
			<rect height="32" width="32" x="390" y="400" id="Button8" onmouseout="setAttribute('fill-opacity','0.5')" onmouseover="setAttribute('fill-opacity','1.0')" style="fill:almond;stroke:vanilla"> <desc id="First button on toolbar! :)">A clickable square to test simple JavaScript.</desc>
			</rect> </a> 
			
			
			    <circle
       style="opacity:1;fill:#ffff00;stroke:#0000ff;stroke-width:1.03703701;stroke-miterlimit:4;stroke-dasharray:none"
       id="path4435"
       cx="406"
       cy="416"
       r="11.481482" />

			
			</svg>
	 </svg>
