<?xml version="1.0" encoding="UTF-8" standalone="no"?>
<!-- Created with Inkscape (http://www.inkscape.org/) -->

<svg
   xmlns:dc="http://purl.org/dc/elements/1.1/"
   xmlns:cc="http://creativecommons.org/ns#"
   xmlns:rdf="http://www.w3.org/1999/02/22-rdf-syntax-ns#"
   xmlns:svg="http://www.w3.org/2000/svg"
   xmlns="http://www.w3.org/2000/svg"
   xmlns:sodipodi="http://sodipodi.sourceforge.net/DTD/sodipodi-0.dtd"
   xmlns:inkscape="http://www.inkscape.org/namespaces/inkscape"
   width="210mm"
   height="297mm"
   viewBox="0 0 744.09448819 1052.3622047"
   id="svg2"
   version="1.1"
   inkscape:version="0.91 r13725"
   sodipodi:docname="hearts.svg">
  <defs
     id="defs4" />
  <sodipodi:namedview
     id="base"
     pagecolor="#ffffff"
     bordercolor="#666666"
     borderopacity="1.0"
     inkscape:pageopacity="0.0"
     inkscape:pageshadow="2"
     inkscape:zoom="0.35"
     inkscape:cx="-283.57143"
     inkscape:cy="520"
     inkscape:document-units="px"
     inkscape:current-layer="layer1"
     showgrid="false"
     inkscape:window-width="1366"
     inkscape:window-height="706"
     inkscape:window-x="-8"
     inkscape:window-y="-8"
     inkscape:window-maximized="1" />
  <metadata
     id="metadata7">
    <rdf:RDF>
      <cc:Work
         rdf:about="">
        <dc:format>image/svg+xml</dc:format>
        <dc:type
           rdf:resource="http://purl.org/dc/dcmitype/StillImage" />
        <dc:title></dc:title>
      </cc:Work>
    </rdf:RDF>
  </metadata>
  <g
     inkscape:label="Layer 1"
     inkscape:groupmode="layer"
     id="layer1">
    <path
       style="opacity:0.28999999;fill:#00ffff;stroke:#800080"
       id="path4136"
       d="m 148.57493,357.89775 c 32.14874,-32.62107 69.73623,-59.08948 108.33549,-83.43915 15.81188,-9.09351 38.44241,-23.58605 57.78986,-32.15435 5.16884,-2.28909 14.21622,-6.88702 20.14914,-3.41543 1.42325,0.8328 2.25554,2.40611 3.38331,3.60917 3.67758,9.24067 2.6817,18.86254 1.7104,28.57934 -1.6299,16.30532 -2.93413,23.92291 -7.99554,40.31158 -2.63372,8.5279 -6.00461,16.81044 -9.00691,25.21566 -11.36674,29.75114 -25.86494,58.09209 -39.4389,86.84567 0,0 -35.77865,16.13787 -35.77865,16.13787 l 0,0 c 15.94303,-28.74706 32.25948,-57.36914 43.81086,-88.2728 2.69633,-8.12762 5.80628,-16.12953 8.08901,-24.38287 5.45902,-19.73742 8.9895,-42.56184 3.06949,-62.61768 -0.63228,-0.53008 -1.11968,-1.31311 -1.89682,-1.59023 -10.79216,-3.84831 -50.15138,23.58817 -10.10641,-1.35245 -37.31666,22.71066 -74.4576,47.12919 -103.73446,79.98636 0,0 -38.37987,16.53931 -38.37987,16.53931 z"
       inkscape:connector-curvature="0" />
    <path
       style="opacity:0.28999999;fill:#00ffff;stroke:#800080"
       id="path4138"
       d="m 143.33317,346.66531 c -8.71039,-15.64092 -19.04527,-30.45815 -30.43603,-44.26429 -5.11504,-4.55585 -14.644003,-16.75106 -22.81082,-15.32573 -1.305145,0.22778 -4.632155,2.56582 -3.431798,2.00508 10.4076,-4.86185 20.711288,-9.94313 31.066928,-14.91469 -1.68608,3.38585 -3.62669,6.65647 -5.05825,10.15754 -3.8666,9.45628 -7.74282,23.78023 -9.99314,33.24037 -5.221094,21.9489 -8.408288,44.1162 -11.367871,66.45181 -1.347097,15.93993 -4.432308,32.07793 1.87931,47.43074 1.670954,4.06454 3.709205,8.11007 6.623961,11.39896 7.7458,8.74004 16.15126,10.97718 26.54397,15.57623 6.04877,1.62147 11.998,3.67486 18.14631,4.86442 13.60769,2.63279 28.287,3.27667 42.0853,3.39489 23.33565,0.19992 46.47981,-1.80351 69.69316,-3.87155 14.88145,-1.58251 20.05187,-2.19664 34.26231,-3.48913 8.90239,-0.80971 18.9863,-2.49813 27.69869,0.71166 1.83649,0.6766 3.41888,1.90609 5.12832,2.85914 7.19252,6.56384 9.73133,16.10526 12.95724,24.95469 0,0 -35.42116,19.63329 -35.42116,19.63329 l 0,0 c -2.87876,-7.9325 -5.28799,-16.41773 -12.02072,-22.03395 -1.40608,-0.71333 -2.72761,-1.62622 -4.21823,-2.13998 -7.81351,-2.69302 -16.88065,-1.64624 -24.89934,-1.26507 -14.82688,0.70481 -16.50686,0.9556 -32.43631,2.15768 -37.33315,2.64574 -76.08341,7.08601 -113.21098,-0.0217 -6.4256,-1.23012 -12.65261,-3.33432 -18.978923,-5.00148 -11.442881,-5.04019 -20.322857,-7.31225 -28.769413,-17.06132 -3.094089,-3.57122 -5.12551,-8.01146 -6.848898,-12.41111 -6.803746,-17.36932 -2.717672,-31.86925 -0.705713,-49.70509 3.540642,-23.35314 2.971488,-20.1202 6.933353,-44.05343 3.654421,-22.07599 6.759224,-44.51373 14.716639,-65.55791 13.062403,-8.87165 25.718855,-18.37262 39.187215,-26.61495 7.10622,-4.34884 23.66919,14.16301 27.26214,18.26774 11.31436,14.1531 21.46356,29.15844 32.73659,43.34832 0,0 -36.31384,21.27881 -36.31384,21.27881 z"
       inkscape:connector-curvature="0" />
    <path
       style="opacity:0.28999999;fill:#00ffff;stroke:#800080"
       id="path4140"
       d="m 497.77912,377.59786 c 19.9496,-20.49987 39.66963,-41.37364 62.52589,-58.72561 4.71611,-3.58037 9.68341,-6.81722 14.52511,-10.22583 23.22444,-14.43022 21.20425,-13.41301 56.70269,-32.81763 6.40307,-3.50013 15.86747,-8.33109 23.5828,-6.71153 2.02624,0.42533 3.78664,1.67558 5.67996,2.51337 10.52148,7.9372 16.82748,19.8252 18.81631,32.83365 0.55099,3.60394 0.50655,7.27402 0.75983,10.91103 0.39821,25.25769 -6.45941,49.56131 -13.77475,73.46791 -8.08342,21.22916 -15.77936,42.50509 -21.83276,64.40421 -3.89477,13.4063 -6.26233,27.09299 -8.45353,40.8465 -1.11933,5.64558 -1.81245,11.37017 -3.38314,16.91411 0,0 -38.02599,17.93617 -38.02599,17.93617 l 0,0 c 1.9176,-5.52055 3.09769,-11.1364 4.34706,-16.85533 3.19755,-13.8925 4.79217,-28.15946 9.452,-41.72513 6.59588,-21.93295 14.30088,-43.42401 22.50538,-64.80881 7.35184,-23.38838 15.02224,-47.06059 14.04431,-71.92218 -1.52364,-16.06442 -4.10784,-29.7208 -18.56705,-39.00022 -7.25088,-1.97001 -9.67411,-1.28895 -16.85989,1.63992 -2.93795,1.19749 -11.25497,5.77904 -8.65367,3.9628 3.36903,-2.35227 43.38171,-25.86827 8.33137,-5.21398 -5.0336,3.38881 -10.20476,6.58175 -15.10081,10.16643 -21.85945,16.00457 -41.28644,35.30579 -58.13972,56.47063 0,0 -38.4814,15.93952 -38.4814,15.93952 z"
       inkscape:connector-curvature="0" />
    <path
       style="opacity:0.28999999;fill:#00ffff;stroke:#800080"
       id="path4142"
       d="m 494.84653,379.95165 c -13.18184,-10.22084 -26.46678,-20.38883 -40.75645,-29.02544 -10.53195,-6.41437 -22.50969,-8.45651 -34.59827,-9.29609 -4.61493,0.65668 -5.72945,0.46914 -10.06117,2.52465 -1.67807,0.79628 -6.41551,3.74545 -4.78783,2.85066 10.18395,-5.59844 19.97323,-11.95276 30.45909,-16.96297 1.82217,-0.87065 -2.91682,2.81216 -4.16519,4.39958 -1.33872,1.7023 -2.37716,3.62066 -3.56574,5.43099 -7.23287,15.56773 -8.28891,32.9862 -9.00103,49.89319 0.21076,4.46773 0.10053,9.67727 1.70965,13.97696 5.69898,15.22805 20.87874,23.61633 33.88859,31.71474 20.94024,12.1554 44.65985,16.38459 68.41393,18.69329 14.16757,1.06483 28.38269,0.88056 42.57587,0.69139 10.26157,0.094 20.57783,-0.81552 30.80928,0.11407 7.59273,1.44258 14.47659,4.64278 19.94123,10.10793 5.25097,6.71061 7.97191,14.89287 12.37904,22.10909 2.95502,5.29198 6.35939,10.31389 9.33442,15.59461 1.58895,3.46549 0.87449,1.69781 2.14215,5.30353 0,0 -36.80519,20.28566 -36.80519,20.28566 l 0,0 c -1.00462,-3.13918 -0.42144,-1.59715 -1.7512,-4.62544 -2.93936,-5.26418 -6.1952,-10.34813 -8.91465,-15.73701 -3.98774,-7.01644 -6.75684,-14.79716 -12.09053,-20.97851 -4.9445,-4.63292 -11.24213,-7.13768 -17.95623,-7.92981 -10.07627,-0.52811 -20.17175,0.003 -30.25704,-0.1124 -13.96262,-0.004 -27.95722,-0.0813 -41.83604,-1.81754 -23.8567,-3.10085 -47.64248,-8.35059 -68.59542,-20.71456 -13.49894,-8.72479 -30.20141,-18.07023 -37.04785,-33.52513 -1.75077,-3.95213 -1.88816,-10.77178 -2.19462,-14.93874 1.24841,-17.34676 2.63602,-34.91916 7.95576,-51.57594 0.75739,-1.37872 5.33884,-10.17483 6.87854,-11.21008 4.77329,-3.20941 33.99108,-25.2872 50.65911,-27.34765 1.80318,-0.2229 3.63247,-0.0986 5.4487,-0.14784 12.34499,1.34117 24.48636,4.33777 34.89597,11.43794 14.07332,9.35538 27.25114,20.16194 42.35386,27.87311 0,0 -35.46074,22.94376 -35.46074,22.94376 z"
       inkscape:connector-curvature="0" />
  </g>
</svg>
