<?xml version="1.0" encoding="UTF-8" standalone="no"?>
<!-- Created with LifeFLOW (http://life.worldsowisdom.com/flow/) -->

<svg
   xmlns:osb="http://www.openswatchbook.org/uri/2009/osb"
   xmlns:dc="http://purl.org/dc/elements/1.1/"
   xmlns:cc="http://creativecommons.org/ns#"
   xmlns:rdf="http://www.w3.org/1999/02/22-rdf-syntax-ns#"
   xmlns:svg="http://www.w3.org/2000/svg"
   xmlns="http://www.w3.org/2000/svg"
   xmlns:xlink="http://www.w3.org/1999/xlink"
   xmlns:sodipodi="http://sodipodi.sourceforge.net/DTD/sodipodi-0.dtd"
   xmlns:inkscape="http://www.inkscape.org/namespaces/inkscape"
   width="450"
   height="450"
   viewBox="0 0 450 450"
   id="svg2"
   version="1.1"
   inkscape:version="0.91 r13725"
   sodipodi:docname="newcreatures-plain.svg">
  <defs
     id="defs4">
    <linearGradient
       inkscape:collect="always"
       id="linearGradient6501">
      <stop
         style="stop-color:#0000ff;stop-opacity:1;"
         offset="0"
         id="stop6503" />
      <stop
         style="stop-color:#0000ff;stop-opacity:0;"
         offset="1"
         id="stop6505" />
    </linearGradient>
    <linearGradient
       id="linearGradient6455"
       osb:paint="solid">
      <stop
         style="stop-color:#0000ff;stop-opacity:1;"
         offset="0"
         id="stop6457" />
    </linearGradient>
    <filter
       inkscape:collect="always"
       style="color-interpolation-filters:sRGB"
       id="filter5001"
       x="-0.37912726"
       width="1.7582545"
       y="-0.65848422"
       height="2.3169684">
      <feGaussianBlur
         inkscape:collect="always"
         stdDeviation="6.3692616"
         id="feGaussianBlur5003" />
    </filter>
    <linearGradient
       inkscape:collect="always"
       xlink:href="#linearGradient6501"
       id="linearGradient6507"
       x1="242.51431"
       y1="178.50594"
       x2="313.40628"
       y2="178.50594"
       gradientUnits="userSpaceOnUse"
       gradientTransform="translate(-215.03742,319.7082)" />
  </defs>
  <sodipodi:namedview
     id="base"
     pagecolor="#ffffff"
     bordercolor="#666666"
     borderopacity="1.0"
     inkscape:pageopacity="0.0"
     inkscape:pageshadow="2"
     inkscape:zoom="0.24748738"
     inkscape:cx="463.57331"
     inkscape:cy="265.90363"
     inkscape:document-units="px"
     inkscape:current-layer="layer1"
     showgrid="false"
     inkscape:window-width="1366"
     inkscape:window-height="706"
     inkscape:window-x="-8"
     inkscape:window-y="-8"
     inkscape:window-maximized="1"
     units="px" />
  <metadata
     id="metadata7">
    <rdf:RDF>
      <cc:Work
         rdf:about="">
        <dc:format>image/svg+xml</dc:format>
        <dc:type
           rdf:resource="http://purl.org/dc/dcmitype/StillImage" />
        <dc:title></dc:title>
      </cc:Work>
    </rdf:RDF>
  </metadata>
  <g
     inkscape:label="Layer 1"
     inkscape:groupmode="layer"
     id="layer1"
     transform="translate(0,-364.28567)">
    <path
       sodipodi:type="star"
       style="opacity:0.28999999;fill:#00ffff;stroke:#800080"
       id="path4136eg"
       sodipodi:sides="5"
       sodipodi:cx="149.96248"
       sodipodi:cy="470.92843"
       sodipodi:r1="84.03109"
       sodipodi:r2="42.015545"
       sodipodi:arg1="0.31099828"
       sodipodi:arg2="0.93931681"
       inkscape:flatsided="false"
       inkscape:rounded="0"
       inkscape:randomized="0"
       d="m 229.96248,496.64272 -55.19656,8.19877 -24.53782,50.11762 -24.85417,-49.96149 -55.247286,-7.84966 39.835836,-39.07667 -9.60688,-54.96897 49.47407,25.81078 49.30991,-26.12303 -9.25918,55.0286 z"
       inkscape:transform-center-x="-0.082081267"
       inkscape:transform-center-y="7.9461513" />
    <path
       inkscape:transform-center-y="2.4320959"
       inkscape:transform-center-x="-0.025122895"
       d="m 68.791599,427.6385 -16.894071,2.5094 -7.510317,15.33956 -7.607143,-15.29177 -16.909598,-2.40255 12.192598,-11.96024 -2.940388,-16.82442 15.142583,7.89994 15.092337,-7.99551 -2.833967,16.84267 z"
       inkscape:randomized="0"
       inkscape:rounded="0"
       inkscape:flatsided="false"
       sodipodi:arg2="0.93931681"
       sodipodi:arg1="0.31099828"
       sodipodi:r2="12.859744"
       sodipodi:r1="25.719488"
       sodipodi:cy="419.76809"
       sodipodi:cx="44.305912"
       sodipodi:sides="5"
       id="path4138eg"
       style="opacity:0.28999999;fill:#00ffff;stroke:#800080;stroke-width:0.3060711"
       sodipodi:type="star" />
    <g
       id="BiggoEGbg"
       transform="translate(-109.96232,143.76849)">
      <desc
         id="desc4151">A big creature for LifeFLOW! :)</desc>
      <circle
         r="29.934187"
         cy="259.14496"
         cx="302.39636"
         id="path4137eg"
         style="opacity:0.28999999;fill:#ffff00;stroke:#800080;stroke-width:0.6047619" />
      <circle
         r="7.3308215"
         cy="265.86487"
         cx="307.8945"
         id="path4139eg"
         style="opacity:0.28999999;fill:#ffff00;stroke:#800080;stroke-width:0.6047619" />
      <ellipse
         ry="10.996231"
         rx="3.6654108"
         cy="251.20323"
         cx="292.01105"
         id="path4141eg"
         style="opacity:0.28999999;fill:#0000ff;stroke:#800080;stroke-width:0.6047619" />
      <ellipse
         ry="3.6654108"
         rx="9.7744284"
         cy="253.64687"
         cx="317.66891"
         id="path4143eg"
         style="opacity:0.28999999;fill:#0000ff;stroke:#800080;stroke-width:0.6047619" />
    </g>
    <rect
       style="opacity:0.87000002;fill:url(#linearGradient6507);fill-opacity:1;stroke:#0000ff;stroke-width:0.6047619;stroke-miterlimit:4;stroke-dasharray:none;filter:url(#filter5001)"
       id="MedyEGbg"
       width="40.319515"
       height="23.214266"
       x="42.763119"
       y="486.60684" />
    <g
       id="g6519eg"
       inkscape:label="#MedyEG"
       transform="translate(0,53.355016)">
      <rect
         y="281.74832"
         x="59.868374"
         height="31.766891"
         width="63.533783"
         id="rect6509eg"
         style="opacity:0.87000002;fill:#0000ff;fill-opacity:1;stroke:#0000ff;stroke-width:0.6047619;stroke-miterlimit:4;stroke-dasharray:none" />
      <path
         inkscape:transform-center-y="-0.19571458"
         inkscape:transform-center-x="0.72308977"
         d="m 81.860835,300.07539 -6.160837,-1.4834 -4.714657,4.23419 -0.493011,-6.31769 -5.483865,-3.17547 5.856139,-2.42116 1.325442,-6.19674 4.112304,4.82134 6.303033,-0.65433 -3.314595,5.40091 z"
         inkscape:randomized="0"
         inkscape:rounded="0"
         inkscape:flatsided="false"
         sodipodi:arg2="1.3230568"
         sodipodi:arg1="0.69473828"
         sodipodi:r2="4.7712951"
         sodipodi:r1="9.5425901"
         sodipodi:cy="293.96637"
         sodipodi:cx="74.530014"
         sodipodi:sides="5"
         id="path6511eg"
         style="opacity:0.87000002;fill:#ff8080;fill-opacity:1;stroke:#0000ff;stroke-width:0.6047619;stroke-miterlimit:4;stroke-dasharray:none"
         sodipodi:type="star" />
      <path
         inkscape:transform-center-y="0.22428177"
         inkscape:transform-center-x="0.37755769"
         d="m 108.74051,312.2934 -1.06782,-3.99694 -3.89796,-1.38629 3.47135,-2.25068 0.1139,-4.13556 3.21323,2.60595 3.96835,-1.16963 -1.48546,3.86124 2.33867,3.41269 -4.13129,-0.21956 z"
         inkscape:randomized="0"
         inkscape:rounded="0"
         inkscape:flatsided="false"
         sodipodi:arg2="2.3965104"
         sodipodi:arg1="1.7681919"
         sodipodi:r2="3.115"
         sodipodi:r1="6.23"
         sodipodi:cy="306.18439"
         sodipodi:cx="109.96231"
         sodipodi:sides="5"
         id="path6513eg"
         style="opacity:0.87000002;fill:#ff8080;fill-opacity:1;stroke:#0000ff;stroke-width:0.6047619;stroke-miterlimit:4;stroke-dasharray:none"
         sodipodi:type="star" />
      <path
         inkscape:transform-center-y="-0.16705416"
         inkscape:transform-center-x="0.16705535"
         d="m 92.857067,295.18814 -2.173306,-0.73698 -1.839194,1.3725 0.02933,-2.29468 -1.873674,-1.32505 2.191432,-0.6812 0.6812,-2.19143 1.32505,1.87368 2.294678,-0.0293 -1.372506,1.8392 z"
         inkscape:randomized="0"
         inkscape:rounded="0"
         inkscape:flatsided="false"
         sodipodi:arg2="1.4137167"
         sodipodi:arg1="0.78539816"
         sodipodi:r2="1.727891"
         sodipodi:r1="3.4557824"
         sodipodi:cy="292.74454"
         sodipodi:cx="90.41346"
         sodipodi:sides="5"
         id="path6515eg"
         style="opacity:0.87000002;fill:#ff8080;fill-opacity:1;stroke:#0000ff;stroke-width:0.6047619;stroke-miterlimit:4;stroke-dasharray:none"
         sodipodi:type="star" />
      <path
         inkscape:transform-center-y="-0.1121867"
         inkscape:transform-center-x="-0.63956251"
         d="m 84.736419,309.55335 2.201552,-4.70569 -2.628342,-4.48131 5.155694,0.63966 3.44978,-3.8845 0.984842,5.10102 4.760422,2.08056 -4.547027,2.51294 -0.507677,5.17036 -3.79506,-3.54794 z"
         inkscape:randomized="0"
         inkscape:rounded="0"
         inkscape:flatsided="false"
         sodipodi:arg2="3.0951702"
         sodipodi:arg1="2.4668517"
         sodipodi:r2="3.9116797"
         sodipodi:r1="7.8233595"
         sodipodi:cy="304.66614"
         sodipodi:cx="90.845436"
         sodipodi:sides="5"
         id="path6517eg"
         style="opacity:0.87000002;fill:#ff8080;fill-opacity:1;stroke:#0000ff;stroke-width:0.6047619;stroke-miterlimit:4;stroke-dasharray:none"
         sodipodi:type="star" />
    </g>
    <path
       sodipodi:type="spiral"
       style="fill:#00ffff;fill-rule:evenodd;stroke:#000000;stroke-width:0.6047619px;stroke-linecap:butt;stroke-linejoin:miter;stroke-opacity:1"
       id="eaglynew2"
       sodipodi:cx="73.308212"
       sodipodi:cy="393.74982"
       sodipodi:expansion="1"
       sodipodi:revolution="3"
       sodipodi:radius="41.613129"
       sodipodi:argument="-18.147299"
       sodipodi:t0="0"
       d="m 73.308212,393.74982 c 1.592741,1.3477 -1.030876,2.81189 -2.239973,2.64724 -3.276579,-0.4462 -4.137127,-4.52375 -3.054508,-7.12719 1.936552,-4.65694 7.887895,-5.67954 12.014402,-3.46177 6.055815,3.25466 7.263028,11.296 3.869042,16.90161 -4.52365,7.4714 -14.719492,8.86373 -21.788831,4.27631 -8.896041,-5.77281 -10.473289,-18.15026 -4.683575,-26.67604 7.01212,-10.32587 21.585119,-12.08797 31.563258,-5.09085 11.758893,8.24586 13.705843,25.02253 5.49811,36.45048 -9.476152,13.19401 -28.461631,15.32586 -41.337687,5.90537 -14.630593,-10.70415 -16.947384,-31.90193 -6.312644,-46.2249 11.930572,-16.06821 35.343106,-18.56999 51.112116,-6.71991 17.506588,13.15584 20.193418,38.78494 7.127178,55.99933">
      <desc
         id="desc6528">a new test shape to play with! :)</desc>
    </path>
    <path
       d="m 205.26299,520.81738 c 1.59274,1.34771 -1.03088,2.8119 -2.23998,2.64724 -3.27658,-0.44619 -4.13713,-4.52374 -3.05451,-7.12718 1.93656,-4.65695 7.8879,-5.67955 12.01441,-3.46178 6.05581,3.25466 7.26302,11.296 3.86904,16.90162 -4.52365,7.4714 -14.71949,8.86373 -21.78883,4.27631 -8.89604,-5.77281 -10.47329,-18.15027 -4.68358,-26.67605 7.01212,-10.32586 21.58512,-12.08796 31.56326,-5.09084 11.75889,8.24586 13.70584,25.02252 5.49811,36.45047 -9.47615,13.19402 -28.46163,15.32587 -41.33769,5.90538 -14.63059,-10.70416 -16.94738,-31.90193 -6.31264,-46.2249 11.93057,-16.06821 35.3431,-18.57 51.11211,-6.71991 17.50659,13.15583 20.19342,38.78493 7.12718,55.99933"
       sodipodi:t0="0"
       sodipodi:argument="-18.147299"
       sodipodi:radius="41.613129"
       sodipodi:revolution="3"
       sodipodi:expansion="1"
       sodipodi:cy="520.81738"
       sodipodi:cx="205.26299"
       id="path6530eg"
       style="fill:#800000;fill-rule:evenodd;stroke:#000000;stroke-width:0.6047619px;stroke-linecap:butt;stroke-linejoin:miter;stroke-opacity:1"
       sodipodi:type="spiral">
      <desc
         id="desc6532">a new test shape to play with! :)</desc>
    </path>
  </g>
  <rect
     height="448"
     id="Border"
     style="fill:none;stroke:#800080;stroke-width:0.60342091"
     width="448"
     x="1"
     y="1" />
	 
	 
	 <!-- creatures from original versions! :) -->
	 
			<a style="fill-opacity:0.75" xlink:href="http://life.worldsowisdom.com/flow/"> <rect height="90" id="YellowRect" onmouseout="setAttribute('fill-opacity','0.5')" onmouseover="setAttribute('fill-opacity','1.0')" style="fill:yellow;stroke:#000000" width="90" x="150" y="90"> <desc id="desc3364">A clickable square!</desc>
			<title id="title3362"></title>
			</rect> </a> <a style="fill-opacity:0.75" xlink:href="http://life.worldsowisdom.com/flow/">
			<rect height="90" id="OrangeRect" onmouseout="setAttribute('fill-opacity','0.75')" onmouseover="setAttribute('fill-opacity','1.0')" style="fill:orange;stroke:#000000" width="90" x="60" y="300"> <desc id="desc3364">A clickable square!</desc>
			<title id="title3362"></title>
			</rect> </a>

<path xmlns="http://www.w3.org/2000/svg" xmlns:sodipodi="http://sodipodi.sourceforge.net/DTD/sodipodi-0.dtd" sodipodi:type="spiral" style="fill:#00ffff;fill-rule:evenodd;stroke:#000000;stroke-width:0.6047619px;stroke-linecap:butt;stroke-linejoin:miter;stroke-opacity:1" id="eaglynew" sodipodi:cx="73.308212" sodipodi:cy="393.74982" sodipodi:expansion="1" sodipodi:revolution="3" sodipodi:radius="41.613129" sodipodi:argument="-18.147299" sodipodi:t0="0" d="m 73.308212,393.74982 c 1.592741,1.3477 -1.030876,2.81189 -2.239973,2.64724 -3.276579,-0.4462 -4.137127,-4.52375 -3.054508,-7.12719 1.936552,-4.65694 7.887895,-5.67954 12.014402,-3.46177 6.055815,3.25466 7.263028,11.296 3.869042,16.90161 -4.52365,7.4714 -14.719492,8.86373 -21.788831,4.27631 -8.896041,-5.77281 -10.473289,-18.15026 -4.683575,-26.67604 7.01212,-10.32587 21.585119,-12.08797 31.563258,-5.09085 11.758893,8.24586 13.705843,25.02253 5.49811,36.45048 -9.476152,13.19401 -28.461631,15.32586 -41.337687,5.90537 -14.630593,-10.70415 -16.947384,-31.90193 -6.312644,-46.2249 11.930572,-16.06821 35.343106,-18.56999 51.112116,-6.71991 17.506588,13.15584 20.193418,38.78494 7.127178,55.99933" transform="translate(25, 25 )">
    <desc id="desc36">a new test shape to play with! :)</desc>
  </path><rect xmlns="http://www.w3.org/2000/svg" height="10" id="AvrilNiblet1" onmouseout="setAttribute('fill-opacity','0.5')" onmouseover="setAttribute('fill-opacity','1.0')" style="fill:yellow;stroke:black" width="10" x="225" y="225" transform="translate(25, 25 )">
    <desc id="desc71">Avril's first little niblet! :)</desc>
    <title id="title73"/>
  </rect><path xmlns="http://www.w3.org/2000/svg" fill-opacity="0.43046721000000016" onmousedown="Reverse(PurpleSpiral)" id="PurpleSpiral" d="m 282.09113,269.50729 c 1.52075,1.52076 -1.29967,2.80025 -2.52761,2.52761 -3.32763,-0.73884 -3.86257,-5.00113 -2.5276,-7.58281 2.38796,-4.61803 8.58895,-5.15902 12.63801,-2.5276 5.94217,3.86172 6.4939,12.22544 2.5276,17.69322 -5.28645,7.28768 -15.87921,7.84514 -22.74842,2.52759 -8.6442,-6.69159 -9.20486,-19.54122 -2.5276,-27.80363 8.08706,-10.00688 23.20787,-10.56947 32.85884,-2.52759 11.37333,9.47708 11.93717,26.8774 2.52759,37.91404 -10.86373,12.74223 -30.54887,13.30692 -42.96924,2.52759 -14.11282,-12.24817 -14.67812,-34.22169 -2.52759,-48.02445 13.63105,-15.4846 37.8955,-16.05034 53.07965,-2.52759 16.85728,15.01283 17.42336,41.57006 2.52759,58.13486" xmlns:inkscape="http://www.inkscape.org/namespaces/inkscape" inkscape:tile-cx="185.6451" inkscape:tile-cy="265.9547" inkscape:tile-h="68.00056" inkscape:tile-w="75.106916" inkscape:tile-x0="148.09164" inkscape:tile-y0="231.95443" xmlns:sodipodi="http://sodipodi.sourceforge.net/DTD/sodipodi-0.dtd" sodipodi:argument="-18.064157" sodipodi:cx="182.09113" sodipodi:cy="269.50729" sodipodi:expansion="1" sodipodi:radius="42.894836" sodipodi:revolution="3" sodipodi:t0="0" sodipodi:type="spiral" style="fill:#800080;fill-rule:evenodd;stroke:#000000;stroke-width:0.2081555px;stroke-linecap:butt;stroke-linejoin:miter;stroke-opacity:1" transform="translate(25, 25)"/><image xmlns="http://www.w3.org/2000/svg" id="back3" width="448" height="448" x="1" y="1" xmlns:xlink="http://www.w3.org/1999/xlink" xlink:href="creatures/png/back4.png"/><g xmlns="http://www.w3.org/2000/svg" inkscape:label="Layer 1" xmlns:inkscape="http://www.inkscape.org/namespaces/inkscape" inkscape:groupmode="layer" id="galaxy3" transform="translate(25, 25 )">
    <path style="fill:url(#linearGradient5471);fill-opacity:1;stroke:url(#linearGradient5463);stroke-width:1px;stroke-linecap:butt;stroke-linejoin:miter;stroke-opacity:1" d="M 16.565992,11.3876 C 36.029908,-1.0481795 32.281391,31.347262 39.578625,27.669664 66.256173,14.099579 83.397638,14.033681 91.28438,25.797883 103.7585,16.985026 102.89894,6.8038965 120.35715,7.6428573 L 103.11392,28.47808 c 2.88913,24.456839 3.46105,50.291261 19.02894,75.59335 -11.52896,14.83066 -38.256694,15.63168 -61.4279,19.71564 C 41.669467,114.46482 32.68672,118.74953 23.571429,99.428564 17.929739,66.193577 33.83851,62.764356 29.778284,32.33349 z" id="path5455" inkscape:connector-curvature="0" sodipodi:nodetypes="cccccccccc" xmlns:sodipodi="http://sodipodi.sourceforge.net/DTD/sodipodi-0.dtd" transform="translate(0,0)"/>
    <path style="fill:url(#radialGradient5561);fill-opacity:1;stroke:none" d="m 64.018864,78.2925 c 4.416994,-1.6558 8.150796,2.4892 8.001653,5.0228 -0.27395,4.6538 -2.825854,3.7257 -2.760185,2.4252 0.668465,-1.2262 -1.508495,-5.1733 -2.613349,0.2523 -0.188809,0.9272 -1.512568,1.1796 -2.502531,0.3357 1.168527,-2.8536 -4.543781,-3.2683 -3.588927,-0.3477 -2.380373,1.2062 -3.683312,0.511 -2.906504,-1.4935 1.398386,-3.6084 4.550686,-5.5765 6.369843,-6.1948 z" id="path5553" inkscape:connector-curvature="0" sodipodi:nodetypes="cscsccsc" xmlns:sodipodi="http://sodipodi.sourceforge.net/DTD/sodipodi-0.dtd"/>
    <path style="fill:#fdfcff;fill-opacity:1;stroke:none" d="m -53.928575,-27.71932 c 23.388011,8.3959 38.601357,9.2126 61.4285756,0.7143 1.515033,0.041 38.3125884,-24.63841 -2.857142,11.7857 -46.8508536,31.2283 -75.5333286,-31.4404 -58.5714336,-12.5 z" id="path5598" inkscape:connector-curvature="0" sodipodi:nodetypes="cccc" xmlns:sodipodi="http://sodipodi.sourceforge.net/DTD/sodipodi-0.dtd"/>
    <path style="fill:#000000;fill-opacity:1;stroke:none" d="m 91.711228,42.91564 c -0.972229,-3.13091 -6.096057,8.39505 -23.601015,10.87647 13.26118,-2.32725 30.679154,-8.17357 23.601015,-10.87647 z" id="path5677-9-4-9" inkscape:connector-curvature="0" sodipodi:nodetypes="ccc" xmlns:sodipodi="http://sodipodi.sourceforge.net/DTD/sodipodi-0.dtd"/>
    <path style="fill:url(#linearGradient4094);fill-opacity:1;stroke:#ffffff;stroke-width:2;stroke-linecap:butt;stroke-linejoin:miter;stroke-miterlimit:4;stroke-opacity:1;stroke-dasharray:none" d="m 89.964197,95.0267 c -16.128746,5.7348 -15.963643,8.2606 -39.731338,2.2065 20.19602,8.5594 22.601281,8.4253 39.731338,-2.2065 z" id="path5677-3" inkscape:connector-curvature="0" sodipodi:nodetypes="ccc" xmlns:sodipodi="http://sodipodi.sourceforge.net/DTD/sodipodi-0.dtd"/>
    <g id="g7624" transform="matrix(0.9989677,-0.04542613,0.04542613,0.9989677,-44.675059,3.9587657)">
      <path sodipodi:nodetypes="ccc" xmlns:sodipodi="http://sodipodi.sourceforge.net/DTD/sodipodi-0.dtd" inkscape:connector-curvature="0" id="path5677-9-4" d="m 35.227683,49.60224 c 1.781992,-0.99928 18.384469,-2.76058 23.36327,4.51706 -5.186146,-4.40635 -24.485878,-1.39506 -23.36327,-4.51706 z" style="fill:#000000;fill-opacity:1;stroke:none"/>
      <path sodipodi:nodetypes="ccccc" xmlns:sodipodi="http://sodipodi.sourceforge.net/DTD/sodipodi-0.dtd" inkscape:connector-curvature="0" id="path3983" d="m 24.973658,993.26031 c -1.089299,-1.59003 -2.864311,-14.5311 0.205275,-15.85179 7.939902,-2.74528 31.950645,2.10836 36.602967,6.29887 -0.01445,1.74606 -0.347793,-2.46645 -0.27981,4.09579 0.311768,9.87518 -11.798516,11.30318 -36.528434,5.45713 z" style="fill:url(#radialGradient7630);fill-opacity:1;stroke:url(#linearGradient7632);stroke-width:0.99999982px;stroke-linecap:butt;stroke-linejoin:miter;stroke-opacity:1"/>
      <path sodipodi:nodetypes="ccccc" xmlns:sodipodi="http://sodipodi.sourceforge.net/DTD/sodipodi-0.dtd" inkscape:connector-curvature="0" id="path3983-0" d="m 105.05352,69.43797 c 1.04711,-1.66444 2.06778,-14.69443 -1.26725,-15.78744 -8.582005,-2.15824 -33.663106,4.42941 -38.307518,8.94581 0.130949,1.73955 0.204566,-2.48412 0.56735,4.06266 0.324308,9.86703 13.231203,10.40833 39.007428,2.77896 z" style="fill:url(#radialGradient7634);fill-opacity:1;stroke:url(#linearGradient7636);stroke-width:0.99999964px;stroke-linecap:butt;stroke-linejoin:miter;stroke-opacity:1"/>
      <path sodipodi:nodetypes="cc" xmlns:sodipodi="http://sodipodi.sourceforge.net/DTD/sodipodi-0.dtd" inkscape:connector-curvature="0" id="path7614" d="m 61.745574,61.18731 4.24886,0" style="fill:#141414;fill-opacity:1;stroke:url(#linearGradient7638);stroke-width:3;stroke-linecap:butt;stroke-linejoin:miter;stroke-miterlimit:4;stroke-opacity:1;stroke-dasharray:none"/>
    </g>
  </g><image xmlns="http://www.w3.org/2000/svg" id="galaxy4" width="306" height="150" x="50" y="250" style="opacity:0.25" onmousedown="tool(eg_newy2)" xmlns:xlink="http://www.w3.org/1999/xlink" xlink:href="creatures/png/galaxy4.png" transform="translate(25, 12.5 )"/><image xmlns="http://www.w3.org/2000/svg" id="planet3" width="157" height="150" x="100" y="250" style="opacity:0.5" onmousedown="tool(eg_niblet)" xmlns:xlink="http://www.w3.org/1999/xlink" xlink:href="creatures/png/planet3.png" transform="translate(25, 0.0 )"/><image xmlns="http://www.w3.org/2000/svg" id="planet4" width="150" height="150" x="300" y="150" style="opacity:0.9" onmousedown="tool(eg_medy)" xmlns:xlink="http://www.w3.org/1999/xlink" xlink:href="creatures/png/planet4.png" transform="translate(25, 0.0 )"/><image xmlns="http://www.w3.org/2000/svg" id="satellite3" width="79" height="150" x="200" y="250" onmousedown="tool(satellite3)" xmlns:xlink="http://www.w3.org/1999/xlink" xlink:href="creatures/png/satellite3.png" transform="translate(25, 25 )"/><image xmlns="http://www.w3.org/2000/svg" id="satellite4" width="109" height="75" x="50" y="50" onmousedown="tool(satellite4)" xmlns:xlink="http://www.w3.org/1999/xlink" xlink:href="creatures/png/satellite4.png" transform="translate(25, 25 )"/><image xmlns="http://www.w3.org/2000/svg" id="mediumcreature3" width="38" height="50" x="300" y="175" onmousedown="tool(the_rect)" xmlns:xlink="http://www.w3.org/1999/xlink" xlink:href="creatures/png/mediumcreature3.png" transform="translate( 0.0 , 25 )"/><image xmlns="http://www.w3.org/2000/svg" id="niblet3" width="21" height="32" x="400" y="350" onmousedown="tool(pink_rect)" xmlns:xlink="http://www.w3.org/1999/xlink" xlink:href="creatures/png/niblet3.png" transform="translate( 0.0 , 25 )"/><image xmlns="http://www.w3.org/2000/svg" id="bigbeauty3" width="92" height="110" x="100" y="150" onmousedown="tool(eg_biggo)" xmlns:xlink="http://www.w3.org/1999/xlink" xlink:href="creatures/png/bigbeauty5.png" transform="translate(25, 0.0 )"/><rect xmlns="http://www.w3.org/2000/svg" id="Creature-0.25680456531897056" x="351.9517610145667" y="98.4075457463568" width="11.468251730794865" height="32.02488488884741" style="fill:yellow;stroke:black" transform="translate(695.8195146715105, 14.89575098152195)" onmousedown="deleteCreature('Creature-0.25680456531897056')" class="creatureClass"><title>Creature-0.25680456531897056</title><desc>document.getElementById("Creature-0.25680456531897056").setAttribute("transform", "translate("+time*Math.random()+", "+50*Math.random()+")");</desc></rect><rect xmlns="http://www.w3.org/2000/svg" id="Creature-0.942357017748823" x="267.975305069926" y="412.8257542168748" width="27.13403056199594" height="25.059357786599588" style="fill:yellow;stroke:black" transform="translate(434.96328684267814, 46.813622911369144)" onmousedown="deleteCreature('Creature-0.942357017748823')" class="creatureClass"><title>Creature-0.942357017748823</title><desc>document.getElementById("Creature-0.942357017748823").setAttribute("transform", "translate("+time*Math.random()+", "+50*Math.random()+")");</desc></rect><rect xmlns="http://www.w3.org/2000/svg" id="Creature-0.634315175490507" x="218.84859219093175" y="214.54700092496367" width="15.301798877175163" height="16.837291320711422" style="fill:pink;stroke:yellow" transform="translate(32.608024290043296, 22.01249775862692)" onmousedown="deleteCreature('Creature-0.634315175490507')" class="creatureClass"><title>Creature-0.634315175490507</title><desc>document.getElementById("Creature-0.634315175490507").setAttribute("transform", "translate("+33*Math.random()+", "+50*Math.random()+")");</desc></rect><rect xmlns="http://www.w3.org/2000/svg" id="Creature-0.6771887830078764" x="49.806627184613696" y="19.08894119100988" width="15.856304529226936" height="1.1426954296800407" style="fill:pink;stroke:yellow" transform="translate(29.310515807174127, 5.875283337860298)" onmousedown="deleteCreature('Creature-0.6771887830078764')" class="creatureClass"><title>Creature-0.6771887830078764</title><desc>document.getElementById("Creature-0.6771887830078764").setAttribute("transform", "translate("+33*Math.random()+", "+50*Math.random()+")");</desc></rect><circle xmlns="http://www.w3.org/2000/svg" id="Creature-0.43547967278689703" r="20" cx="202.13959784598282" cy="246.6566971225122" style="fill:blue;stroke:purple" transform="translate(16.896729881856384, 17.6694974254662)" onmousedown="deleteCreature('Creature-0.43547967278689703')" class="creatureClass"><title>Creature-0.43547967278689703</title><desc>document.getElementById("Creature-0.43547967278689703").setAttribute("transform", "translate("+33*Math.random()+", "+50*Math.random()+")");</desc></circle><circle xmlns="http://www.w3.org/2000/svg" id="Creature-0.18342620100433704" r="20" cx="338.8437124596343" cy="307.4276008790802" style="fill:blue;stroke:purple" transform="translate(24.084632912223046, 6.1834728429485235)" onmousedown="deleteCreature('Creature-0.18342620100433704')" class="creatureClass"><title>Creature-0.18342620100433704</title><desc>document.getElementById("Creature-0.18342620100433704").setAttribute("transform", "translate("+33*Math.random()+", "+50*Math.random()+")");</desc></circle><circle xmlns="http://www.w3.org/2000/svg" id="Creature-0.44400574912168356" r="20" cx="302.6130146389478" cy="383.62140668668326" style="fill:blue;stroke:purple" transform="translate(28.236900174824306, 47.68264397329754)" onmousedown="deleteCreature('Creature-0.44400574912168356')" class="creatureClass"><title>Creature-0.44400574912168356</title><desc>document.getElementById("Creature-0.44400574912168356").setAttribute("transform", "translate("+33*Math.random()+", "+50*Math.random()+")");</desc></circle><circle xmlns="http://www.w3.org/2000/svg" id="Creature-0.2560995423343535" r="20" cx="184.25067348496887" cy="74.18083415751047" style="fill:blue;stroke:purple" transform="translate(29.634734612968906, 27.23353622289373)" onmousedown="deleteCreature('Creature-0.2560995423343535')" class="creatureClass"><title>Creature-0.2560995423343535</title><desc>document.getElementById("Creature-0.2560995423343535").setAttribute("transform", "translate("+33*Math.random()+", "+50*Math.random()+")");</desc></circle><circle xmlns="http://www.w3.org/2000/svg" id="Creature-0.11008625371964209" r="20" cx="126.0235491879155" cy="73.7970436081345" style="fill:blue;stroke:purple" transform="translate(12.090356548297288, 19.636061471716626)" onmousedown="deleteCreature('Creature-0.11008625371964209')" class="creatureClass"><title>Creature-0.11008625371964209</title><desc>document.getElementById("Creature-0.11008625371964209").setAttribute("transform", "translate("+33*Math.random()+", "+50*Math.random()+")");</desc></circle><circle xmlns="http://www.w3.org/2000/svg" id="Creature-0.8538057178037155" r="20" cx="58.857574638356944" cy="121.31658519894451" style="fill:blue;stroke:purple" transform="translate(14.872099188880215, 38.2039407298801)" onmousedown="deleteCreature('Creature-0.8538057178037155')" class="creatureClass"><title>Creature-0.8538057178037155</title><desc>document.getElementById("Creature-0.8538057178037155").setAttribute("transform", "translate("+33*Math.random()+", "+50*Math.random()+")");</desc></circle><circle xmlns="http://www.w3.org/2000/svg" id="Creature-0.916016861729301" r="20" cx="28.953583641557962" cy="360.1930168957407" style="fill:blue;stroke:purple" transform="translate(5.435443400334407, 2.3128868063752916)" onmousedown="deleteCreature('Creature-0.916016861729301')" class="creatureClass"><title>Creature-0.916016861729301</title><desc>document.getElementById("Creature-0.916016861729301").setAttribute("transform", "translate("+33*Math.random()+", "+50*Math.random()+")");</desc></circle><circle xmlns="http://www.w3.org/2000/svg" id="Creature-0.5701520875104306" r="20" cx="230.31740137532904" cy="283.247384127021" style="fill:blue;stroke:purple" transform="translate(30.235096678267244, 44.48463375296349)" onmousedown="deleteCreature('Creature-0.5701520875104306')" class="creatureClass"><title>Creature-0.5701520875104306</title><desc>document.getElementById("Creature-0.5701520875104306").setAttribute("transform", "translate("+33*Math.random()+", "+50*Math.random()+")");</desc></circle><rect xmlns="http://www.w3.org/2000/svg" id="Creature-0.4904805861581196" x="248.19836093588967" y="371.20806540309155" width="15.79378103839131" height="8.852650192144084" style="fill:pink;stroke:yellow" transform="translate(2.126025676864721, 3.81514423177578)" onmousedown="deleteCreature('Creature-0.4904805861581196')" class="creatureClass"><title>Creature-0.4904805861581196</title><desc>document.getElementById("Creature-0.4904805861581196").setAttribute("transform", "translate("+33*Math.random()+", "+50*Math.random()+")");</desc></rect><rect xmlns="http://www.w3.org/2000/svg" id="Creature-0.4076959624856621" x="93.86457544698823" y="53.89838546115268" width="11.17368331575166" height="10.335490572169498" style="fill:pink;stroke:yellow" transform="translate(25.21321576482767, 33.766323939453635)" onmousedown="deleteCreature('Creature-0.4076959624856621')" class="creatureClass"><title>Creature-0.4076959624856621</title><desc>document.getElementById("Creature-0.4076959624856621").setAttribute("transform", "translate("+33*Math.random()+", "+50*Math.random()+")");</desc></rect><rect xmlns="http://www.w3.org/2000/svg" id="Creature-0.4053012018092168" x="213.32515385120982" y="439.84456577414096" width="7.530859706169011" height="16.422160923062993" style="fill:pink;stroke:yellow" transform="translate(15.651816384090004, 38.07391786787042)" onmousedown="deleteCreature('Creature-0.4053012018092168')" class="creatureClass"><title>Creature-0.4053012018092168</title><desc>document.getElementById("Creature-0.4053012018092168").setAttribute("transform", "translate("+33*Math.random()+", "+50*Math.random()+")");</desc></rect><rect xmlns="http://www.w3.org/2000/svg" id="Creature-0.3472486704944383" x="386.2673548979851" y="372.52958116501026" width="14.711487196794744" height="7.370622119517629" style="fill:pink;stroke:yellow" transform="translate(25.645370112859737, 29.32775433058119)" onmousedown="deleteCreature('Creature-0.3472486704944383')" class="creatureClass"><title>Creature-0.3472486704944383</title><desc>document.getElementById("Creature-0.3472486704944383").setAttribute("transform", "translate("+33*Math.random()+", "+50*Math.random()+")");</desc></rect></svg>